<svg width="80" height="80" viewBox="0 0 80 80" fill="none" xmlns="http://www.w3.org/2000/svg">
<path d="M33.6082 47.9192H22.4782L20.2137 54.9672C20.1828 55.0955 20.1082 55.209 20.0026 55.2882C19.8971 55.3673 19.7672 55.4072 19.6354 55.4008H13.9982C13.6767 55.4008 13.5643 55.2242 13.6609 54.8708L23.2973 27.2329C23.3936 26.9439 23.4901 26.6613 23.5864 26.2916C23.7126 25.6488 23.7771 24.9954 23.7791 24.3403C23.7726 24.2945 23.7768 24.2478 23.7914 24.2039C23.8061 24.16 23.8307 24.1201 23.8634 24.0874C23.8962 24.0547 23.9361 24.03 23.9799 24.0153C24.0238 24.0007 24.0705 23.9965 24.1164 24.003H31.7773C32.0016 24.003 32.1301 24.0833 32.1628 24.2439L43.1 54.919C43.1963 55.2405 43.0999 55.4011 42.8109 55.4008H36.5473C36.4397 55.4128 36.3314 55.3851 36.2428 55.3231C36.1541 55.261 36.0911 55.1687 36.0655 55.0636L33.6082 47.9192ZM24.2128 41.9765H31.8255C31.6328 41.3344 31.4079 40.6116 31.1508 39.8083C30.8934 39.0058 30.6204 38.1465 30.3318 37.2306C30.0428 36.3152 29.7537 35.3997 29.4645 34.4842C29.1755 33.5688 28.9105 32.6855 28.6695 31.8342C28.4287 30.9836 28.2119 30.2046 28.0191 29.4975H27.9709C27.6997 30.7988 27.362 32.0853 26.9591 33.352C26.5089 34.7974 26.0511 36.275 25.5859 37.7847C25.12 39.2949 24.6622 40.6922 24.2128 41.9765Z" fill="white"/>
<path d="M60.8315 45.176H51.3397C51.456 46.1151 51.7678 47.0195 52.2552 47.8306C52.794 48.6338 53.5561 49.2619 54.4474 49.6374C55.6554 50.1601 56.962 50.4162 58.2779 50.3882C59.322 50.3681 60.3621 50.254 61.3856 50.047C62.301 49.9234 63.1982 49.6895 64.0575 49.3505C64.2178 49.2225 64.2984 49.3023 64.2984 49.5914V54.1686C64.3064 54.2934 64.2815 54.418 64.2261 54.53C64.171 54.6176 64.0969 54.6917 64.0093 54.7468C63.0561 55.169 62.053 55.4678 61.0242 55.6361C59.6266 55.8986 58.2061 56.0196 56.7842 55.9974C54.5031 55.9974 52.5918 55.6441 51.0506 54.9374C49.5935 54.2956 48.3066 53.3221 47.2925 52.0947C46.3452 50.9382 45.6405 49.6027 45.2206 48.1679C44.8048 46.7517 44.5939 45.2834 44.5943 43.8074C44.5899 42.1959 44.842 40.5939 45.3411 39.0616C45.8219 37.5668 46.5821 36.1771 47.5816 34.9661C48.5673 33.7693 49.8 32.7996 51.1952 32.1234C52.6083 31.433 54.2788 31.1854 56.206 31.1854C57.8043 31.145 59.3919 31.4575 60.8556 32.1008C62.0864 32.6257 63.1699 33.444 64.0115 34.4843C64.8008 35.5029 65.4043 36.6528 65.7942 37.8811C66.1738 39.0648 66.3688 40.2999 66.3724 41.5429C66.3724 42.2498 66.3483 42.8922 66.3001 43.4702C66.252 44.0483 66.2118 44.4659 66.1797 44.7229C66.1671 44.8291 66.1161 44.9271 66.0361 44.9981C65.9562 45.0692 65.8529 45.1084 65.746 45.1084C65.5532 45.1084 65.224 45.1325 64.7583 45.1806C64.2923 45.2288 63.7141 45.2609 63.0238 45.277C62.3326 45.2935 61.6024 45.176 60.8315 45.176ZM51.3397 40.7868H57.6515C58.4224 40.7868 58.9926 40.7787 59.3619 40.7627C59.609 40.738 59.8477 40.6589 60.0607 40.5311V40.242C60.0509 39.8651 59.986 39.4918 59.8679 39.1338C59.608 38.3118 59.0853 37.5979 58.3802 37.1017C57.6752 36.6056 56.8267 36.3546 55.9652 36.3875C55.1544 36.3385 54.3468 36.5265 53.6409 36.9286C52.9351 37.3307 52.3615 37.9295 51.9902 38.652C51.6601 39.324 51.4405 40.0448 51.3397 40.7868Z" fill="white"/>
</svg>
