<svg width="80" height="80" viewBox="0 0 80 80" fill="none" xmlns="http://www.w3.org/2000/svg">
<path d="M41.0229 42.4279C41.1127 40.8269 41.8966 39.4164 43.0794 38.4166C44.2392 37.4345 45.8004 36.8342 47.5039 36.8342C49.2056 36.8342 50.7668 37.4345 51.9275 38.4166C53.1094 39.4164 53.8934 40.8269 53.9839 42.4262C54.0737 44.0712 53.4125 45.5994 52.2526 46.7322C51.0699 47.8844 49.3876 48.6074 47.5039 48.6074C45.6201 48.6074 43.9345 47.8844 42.7526 46.7322C41.5918 45.5994 40.9323 44.0712 41.0229 42.4279Z" fill="white"/>
<path d="M30.702 45.6628C30.713 46.2893 30.9129 47.5067 31.2126 48.4575C31.8424 50.4699 32.9109 52.3317 34.3976 53.9724C35.9232 55.6589 37.8019 57.0135 39.9718 57.9753C42.2526 58.9853 44.7239 59.5001 47.2909 59.4958C49.8107 59.5002 52.3032 58.9735 54.6058 57.9499C56.7757 56.9788 58.6526 55.6183 60.1757 53.931C61.6616 52.2834 62.7283 50.4183 63.3599 48.4059C63.6774 47.3891 63.878 46.357 63.9585 45.3216C64.0372 44.3 64.004 43.2729 63.8594 42.2585C63.5791 40.284 62.8871 38.3904 61.8283 36.7004C60.8474 35.1283 59.5926 33.7448 58.1235 32.6154L58.1269 32.6128L43.1322 21.0995C43.1187 21.0894 43.1077 21.0784 43.0933 21.0691C42.1095 20.3139 40.4552 20.3164 39.3732 21.0733C38.2794 21.8387 38.1541 23.1044 39.1277 23.9027L39.1235 23.907L45.3775 28.9927L26.3157 29.013H26.2903C24.7147 29.0147 23.2001 30.0484 22.9004 31.3548C22.5922 32.6857 23.6623 33.7897 25.3005 33.7956L25.298 33.8015L34.9597 33.7829L17.719 47.0165L17.653 47.0656C16.0266 48.311 15.5008 50.3819 16.5252 51.6925C17.5649 53.0251 19.7755 53.0276 21.4188 51.7001L30.8282 43.9992C30.8282 43.9992 30.691 45.0388 30.702 45.6628ZM54.8809 49.1441C52.9421 51.1193 50.2278 52.2394 47.2909 52.2453C44.3497 52.2504 41.6354 51.1405 39.6966 49.1687C38.7806 48.2488 38.0737 47.1422 37.6241 45.9244C37.202 44.7654 37.0395 43.5278 37.1483 42.2991C37.251 41.1012 37.605 39.9384 38.1871 38.8864C38.773 37.833 39.556 36.902 40.4933 36.1441C42.3779 34.6084 44.7772 33.777 47.2867 33.7736C49.7986 33.7702 52.1963 34.594 54.0825 36.1247C55.0188 36.8796 55.8009 37.8078 56.3862 38.8584C56.9695 39.9096 57.3249 41.0719 57.4293 42.2695C57.5364 43.4974 57.3734 44.734 56.9518 45.8922C56.5025 47.1121 55.7962 48.2211 54.8809 49.1441Z" fill="white"/>
</svg>
