<svg width="80" height="80" viewBox="0 0 80 80" fill="none" xmlns="http://www.w3.org/2000/svg">
<path d="M40 40.0002C40 37.8785 40.8429 35.8437 42.3431 34.3434C43.8434 32.8431 45.8783 32.0002 48 32.0002C50.1217 32.0002 52.1566 32.8431 53.6568 34.3434C55.1571 35.8437 56 37.8785 56 40.0002C56 42.122 55.1571 44.1568 53.6568 45.6571C52.1566 47.1574 50.1217 48.0002 48 48.0002C45.8783 48.0002 43.8434 47.1574 42.3431 45.6571C40.8429 44.1568 40 42.122 40 40.0002Z" fill="white"/>
<path d="M24 56C24 53.8783 24.8429 51.8434 26.3431 50.3431C27.8434 48.8429 29.8783 48 32 48H40V56C40 58.1217 39.1571 60.1566 37.6568 61.6568C36.1566 63.1571 34.1217 64 32 64C29.8783 64 27.8434 63.1571 26.3431 61.6568C24.8429 60.1566 24 58.1217 24 56Z" fill="white"/>
<path d="M40 16V32H48C50.1217 32 52.1566 31.1571 53.6568 29.6568C55.1571 28.1566 56 26.1217 56 24C56 21.8783 55.1571 19.8434 53.6568 18.3431C52.1566 16.8429 50.1217 16 48 16H40Z" fill="white"/>
<path d="M24 24C24 26.1217 24.8429 28.1566 26.3431 29.6568C27.8434 31.1571 29.8783 32 32 32H40V16H32C29.8783 16 27.8434 16.8429 26.3431 18.3431C24.8429 19.8434 24 21.8783 24 24Z" fill="white"/>
<path d="M24 40.0002C24 42.122 24.8429 44.1568 26.3431 45.6571C27.8434 47.1574 29.8783 48.0002 32 48.0002H40V32.0002H32C29.8783 32.0002 27.8434 32.8431 26.3431 34.3434C24.8429 35.8437 24 37.8785 24 40.0002Z" fill="white"/>
</svg>
