<svg width="80" height="80" viewBox="0 0 80 80" fill="none" xmlns="http://www.w3.org/2000/svg">
<path d="M40.0828 48.9629H29.5989L27.4659 55.5891C27.4368 55.7099 27.3665 55.8168 27.2671 55.8914C27.1677 55.9659 27.0454 56.0035 26.9212 55.9975H21.6112C21.3084 55.9975 21.2025 55.8311 21.2935 55.4983L30.3704 29.3566C30.4613 29.0843 30.5521 28.7742 30.6428 28.4262C30.7616 27.8206 30.8223 27.2052 30.8244 26.5881C30.8182 26.545 30.8222 26.501 30.836 26.4596C30.8498 26.4183 30.873 26.3807 30.9038 26.3499C30.9346 26.319 30.9722 26.2958 31.0136 26.282C31.0549 26.2682 31.0989 26.2642 31.1421 26.2704H38.3582C38.5696 26.2704 38.6906 26.346 38.7213 26.4974L49.0237 55.5437C49.1145 55.8465 49.0237 55.9978 48.7514 55.9975H42.8513C42.7499 56.0088 42.648 55.9827 42.5645 55.9242C42.481 55.8658 42.4216 55.7789 42.3975 55.6799L40.0828 48.9629ZM31.2328 43.2444H38.4036C38.222 42.6395 38.0103 41.9587 37.7682 41.202C37.5257 40.4461 37.2685 39.6367 36.9967 38.7739C36.7243 37.9117 36.452 37.0493 36.1797 36.187C35.9074 35.3247 35.6578 34.4927 35.4309 33.6908C35.2039 32.8895 34.9997 32.1558 34.8183 31.4897H34.7728C34.5173 32.7154 34.1992 33.9273 33.8198 35.1204C33.3957 36.482 32.9645 37.8738 32.5262 39.2959C32.0873 40.7184 31.6561 42.0346 31.2328 43.2444Z" fill="white"/>
<path d="M55.1499 31.0812C54.687 31.0998 54.2254 31.0205 53.7952 30.8484C53.3651 30.6764 52.9761 30.4154 52.6537 30.0827C52.3322 29.7356 52.0825 29.3284 51.9189 28.8844C51.7553 28.4404 51.6811 27.9685 51.7005 27.4958C51.684 27.0277 51.7665 26.5615 51.9424 26.1274C52.1184 25.6934 52.3839 25.3014 52.7217 24.9769C53.0562 24.6558 53.4511 24.4043 53.8834 24.2368C54.3158 24.0693 54.7771 23.9892 55.2406 24.0012C56.3299 24.0012 57.1847 24.3264 57.8049 24.9769C58.118 25.315 58.3613 25.7115 58.5209 26.1437C58.6806 26.5759 58.7534 27.0354 58.7352 27.4958C58.7542 27.9704 58.6776 28.4439 58.51 28.8883C58.3424 29.3327 58.0871 29.7389 57.7595 30.0827C57.417 30.4203 57.0083 30.6833 56.5592 30.8552C56.1101 31.027 55.6302 31.104 55.1499 31.0812ZM52.0182 55.5436V33.8496C52.0182 33.5774 52.1388 33.4412 52.3813 33.4412H57.9637C58.2056 33.4412 58.3266 33.5773 58.3268 33.8496V55.5436C58.3268 55.8465 58.2058 55.9977 57.9637 55.9975H52.4267C52.1545 55.9975 52.0183 55.8462 52.0182 55.5436Z" fill="white"/>
</svg>
