<svg width="80" height="80" viewBox="0 0 80 80" fill="none" xmlns="http://www.w3.org/2000/svg">
<path d="M18.6265 54.9721V24.4773C18.6265 24.255 18.722 24.1432 18.9129 24.1432C19.4213 24.1432 19.8856 24.1358 20.5858 24.1193C21.2853 24.1037 22.0409 24.0878 22.8526 24.0716C23.664 24.0559 24.5231 24.04 25.4298 24.0239C26.3364 24.0082 27.2351 24.0003 28.126 24C30.5435 24 32.5797 24.3023 34.2345 24.9068C35.7272 25.4117 37.0886 26.2431 38.2194 27.3406C39.178 28.2918 39.9188 29.4397 40.3907 30.7051C40.8372 31.9365 41.0634 33.2369 41.059 34.5467C41.059 37.0925 40.4704 39.1923 39.2932 40.8461C38.1083 42.5068 36.4427 43.7644 34.5209 44.4492C32.5165 45.1971 30.2892 45.4508 27.8397 45.4508C27.1395 45.4508 26.6464 45.4428 26.3603 45.4269C26.074 45.4112 25.6445 45.4032 25.0719 45.403V54.9244C25.0802 54.9827 25.0748 55.0422 25.0562 55.0981C25.0375 55.154 25.0061 55.2048 24.9644 55.2465C24.9228 55.2882 24.8719 55.3196 24.816 55.3382C24.7601 55.3569 24.7006 55.3622 24.6423 55.3539H18.9605C18.7376 55.3539 18.6265 55.2271 18.6265 54.9721ZM25.0718 29.8699V39.8161C25.4849 39.8481 25.8667 39.864 26.2171 39.8638H27.792C28.9507 39.8599 30.1018 39.6762 31.2042 39.3191C32.1497 39.0382 32.9945 38.4916 33.638 37.7442C34.2584 37.0127 34.5686 35.9946 34.5687 34.69C34.5938 33.7668 34.3536 32.8558 33.8766 32.0651C33.3751 31.3006 32.6502 30.7091 31.8006 30.371C30.6914 29.9398 29.5065 29.737 28.3169 29.7745C27.5533 29.7745 26.8772 29.7825 26.2888 29.7983C25.6997 29.8148 25.2941 29.8386 25.0718 29.8699Z" fill="white"/>
<path d="M59.5109 38.0076C58.6141 37.5468 57.6589 37.2097 56.6714 37.0054C55.5834 36.7558 54.471 36.6278 53.3547 36.6236C52.7508 36.6073 52.1479 36.6796 51.5651 36.8384C51.1941 36.921 50.8644 37.1324 50.6344 37.4349C50.4789 37.677 50.3961 37.9586 50.3959 38.2462C50.4046 38.5253 50.5052 38.7938 50.6822 39.0098C50.9609 39.3359 51.3015 39.6035 51.6843 39.7972C52.3648 40.1636 53.0659 40.4903 53.7841 40.7755C55.3858 41.3117 56.9162 42.0408 58.3416 42.9469C59.3127 43.5598 60.1162 44.4043 60.6801 45.4046C61.1542 46.3518 61.3917 47.3999 61.3721 48.4589C61.4006 49.8574 61.001 51.2311 60.2268 52.396C59.3979 53.5785 58.2466 54.4979 56.9099 55.0446C55.4619 55.6807 53.6723 55.9989 51.5412 55.9991C50.1874 56.0128 48.8358 55.8848 47.5086 55.6173C46.4629 55.4256 45.445 55.105 44.4782 54.6629C44.3739 54.609 44.287 54.5265 44.2279 54.4251C44.1687 54.3237 44.1397 54.2075 44.1441 54.0901V48.9361C44.1384 48.8857 44.1465 48.8346 44.1675 48.7883C44.1885 48.7421 44.2217 48.7025 44.2635 48.6736C44.3045 48.6505 44.3516 48.6403 44.3985 48.6446C44.4454 48.6489 44.4898 48.6673 44.5259 48.6975C45.6677 49.3708 46.9075 49.8618 48.2006 50.153C49.3403 50.4387 50.5094 50.5909 51.6843 50.6064C52.7976 50.6064 53.6169 50.4632 54.1421 50.1769C54.3792 50.0684 54.5798 49.8934 54.7196 49.6732C54.8593 49.4529 54.9323 49.1969 54.9295 48.9361C54.9295 48.523 54.6909 48.1254 54.2137 47.7431C53.7365 47.3613 52.7661 46.8999 51.3025 46.3591C49.8041 45.8375 48.3833 45.1151 47.0791 44.2116C46.1462 43.5628 45.3781 42.7048 44.8361 41.7061C44.3668 40.7657 44.1295 39.7266 44.1442 38.6757C44.1415 37.413 44.4883 36.1743 45.1463 35.0965C45.8965 33.9097 46.9738 32.9651 48.2484 32.3763C49.6479 31.6769 51.3978 31.3269 53.4979 31.3264C54.7278 31.3165 55.9565 31.4043 57.1725 31.5889C58.0531 31.7006 58.914 31.9335 59.7308 32.2809C59.7956 32.2995 59.8551 32.3329 59.9048 32.3784C59.9545 32.424 59.9929 32.4804 60.0171 32.5434C60.0493 32.6599 60.0654 32.7803 60.0648 32.9013V37.7213C60.0681 37.7774 60.0566 37.8333 60.0315 37.8836C60.0064 37.9338 59.9685 37.9766 59.9217 38.0076C59.8579 38.0394 59.7876 38.0559 59.7163 38.0559C59.645 38.0559 59.5747 38.0394 59.5109 38.0076Z" fill="white"/>
</svg>
