<svg width="120" height="82" viewBox="0 0 120 82" fill="none" xmlns="http://www.w3.org/2000/svg">
<g clip-path="url(#clip0_2872_144031)">
<path fill-rule="evenodd" clip-rule="evenodd" d="M13 1C6.37258 1 1 6.37258 1 13V49C1 55.6274 6.37259 61 13 61H87L107 81V61C113.627 61 119 55.6274 119 49V13C119 6.37258 113.627 1 107 1H13Z" fill="#FCC547"/>
<path d="M87 61L87.7071 60.2929C87.5196 60.1054 87.2652 60 87 60V61ZM107 81L106.293 81.7071C106.579 81.9931 107.009 82.0787 107.383 81.9239C107.756 81.7691 108 81.4045 108 81H107ZM107 61V60C106.448 60 106 60.4477 106 61H107ZM2 13C2 6.92487 6.92487 2 13 2V0C5.8203 0 0 5.8203 0 13H2ZM2 49V13H0V49H2ZM13 60C6.92487 60 2 55.0751 2 49H0C0 56.1797 5.8203 62 13 62V60ZM87 60H13V62H87V60ZM86.2929 61.7071L106.293 81.7071L107.707 80.2929L87.7071 60.2929L86.2929 61.7071ZM108 81V61H106V81H108ZM118 49C118 55.0751 113.075 60 107 60V62C114.18 62 120 56.1797 120 49H118ZM118 13V49H120V13H118ZM107 2C113.075 2 118 6.92487 118 13H120C120 5.8203 114.18 0 107 0V2ZM13 2H107V0H13V2Z" fill="#58261D"/>
</g>
<defs>
<clipPath id="clip0_2872_144031">
<rect width="120" height="82" fill="white"/>
</clipPath>
</defs>
</svg>
