<svg width="240" height="138" viewBox="0 0 240 138" fill="none" xmlns="http://www.w3.org/2000/svg">
<g clip-path="url(#clip0_2872_144032)">
<path fill-rule="evenodd" clip-rule="evenodd" d="M17 1C8.16344 1 1 8.16344 1 17V89C1 97.8366 8.16344 105 17 105H21V137L53 105H223C231.837 105 239 97.8366 239 89V17C239 8.16344 231.837 1 223 1H17Z" fill="#FCC547"/>
<path d="M21 105H22C22 104.448 21.5523 104 21 104V105ZM21 137H20C20 137.404 20.2436 137.769 20.6173 137.924C20.991 138.079 21.4211 137.993 21.7071 137.707L21 137ZM53 105V104C52.7348 104 52.4804 104.105 52.2929 104.293L53 105ZM2 17C2 8.71573 8.71573 2 17 2V0C7.61116 0 0 7.61116 0 17H2ZM2 89V17H0V89H2ZM17 104C8.71573 104 2 97.2843 2 89H0C0 98.3888 7.61116 106 17 106V104ZM21 104H17V106H21V104ZM22 137V105H20V137H22ZM52.2929 104.293L20.2929 136.293L21.7071 137.707L53.7071 105.707L52.2929 104.293ZM223 104H53V106H223V104ZM238 89C238 97.2843 231.284 104 223 104V106C232.389 106 240 98.3888 240 89H238ZM238 17V89H240V17H238ZM223 2C231.284 2 238 8.71573 238 17H240C240 7.61116 232.389 0 223 0V2ZM17 2H223V0H17V2Z" fill="#58261D"/>
</g>
<defs>
<clipPath id="clip0_2872_144032">
<rect width="240" height="138" fill="white"/>
</clipPath>
</defs>
</svg>
