<svg width="50" height="26" viewBox="0 0 50 26" fill="none" xmlns="http://www.w3.org/2000/svg">
<path d="M10.5 24.5C6.91016 24.5 4 21.5898 4 18C4 14.5283 6.72168 11.6921 10.1479 11.5093C10.8394 8.0813 13.8682 5.5 17.5 5.5C19.6123 5.5 21.52 6.37305 22.8833 7.77808C24.5088 4.0813 28.2031 1.5 32.5 1.5C38.1895 1.5 42.8223 6.02515 42.9951 11.6729C45.8643 12.3481 48 14.9246 48 18C48 21.5898 45.0898 24.5 41.5 24.5H10.5Z" fill="#FFF2F3"/>
<path d="M6.5 24.5C2.91016 24.5 0 21.5898 0 18C0 14.4102 2.91016 11.5 6.5 11.5C7.3667 11.5 8.19385 11.6694 8.94971 11.9773C10.1631 9.89746 12.4185 8.5 15 8.5C16.3945 8.5 17.6934 8.90771 18.7847 9.61035C20.3022 6.01978 23.8569 3.5 28 3.5C32.8857 3.5 36.9531 7.00366 37.8267 11.6355C40.7803 12.248 43 14.8647 43 18C43 21.5898 40.0898 24.5 36.5 24.5H6.5Z" fill="#93D7EE"/>
<path d="M10.5 24.5C6.91016 24.5 4 21.5898 4 18C4 14.5283 6.72168 11.6921 10.1479 11.5093C10.8394 8.0813 13.8682 5.5 17.5 5.5C19.6123 5.5 21.52 6.37305 22.8833 7.77808C24.5088 4.0813 28.2031 1.5 32.5 1.5C38.1895 1.5 42.8223 6.02515 42.9951 11.6729C45.8643 12.3481 48 14.9246 48 18C48 21.5898 45.0898 24.5 41.5 24.5H10.5Z" stroke="#27043E" stroke-width="3" stroke-linejoin="round"/>
</svg>
