<svg width="33" height="18" viewBox="0 0 33 18" fill="none" xmlns="http://www.w3.org/2000/svg">
<path d="M22.9999 7.02748L23 7C23 4.23858 20.7614 2 18 2C15.2386 2 13 4.23858 13 7C13 7.04227 13.0005 7.08441 13.0016 7.12642C12.6815 7.0439 12.3459 7 12 7C10.1352 7 8.5685 8.27604 8.12536 10.0026C8.08378 10.0009 8.04199 10 8 10C6.34315 10 5 11.3431 5 13C5 14.6569 6.34315 16 8 16H28C29.6569 16 31 14.6569 31 13C31 11.3431 29.6569 10 28 10C27.915 10 27.8308 10.0035 27.7476 10.0105C27.1328 8.25721 25.4632 7 23.5 7C23.331 7 23.1641 7.00932 22.9999 7.02748Z" fill="#FFF2F3"/>
<path d="M3 16C1.34315 16 0 14.6569 0 13C0 11.3431 1.34315 10 3 10C3.04199 10 3.08378 10.0009 3.12536 10.0026C3.5685 8.27604 5.13523 7 7 7C7.46419 7 7.9099 7.07907 8.32442 7.22447C9.0406 5.33956 10.8639 4 13 4C15.0834 4 16.8692 5.27424 17.6205 7.0859C17.905 7.02955 18.199 7 18.5 7C20.4632 7 22.1328 8.25721 22.7476 10.0105C22.8308 10.0035 22.915 10 23 10C24.6569 10 26 11.3431 26 13C26 14.6569 24.6569 16 23 16H3Z" fill="#93D7EE"/>
<path d="M22.9999 7.02748L23 7C23 4.23858 20.7614 2 18 2C15.2386 2 13 4.23858 13 7C13 7.04227 13.0005 7.08441 13.0016 7.12642C12.6815 7.0439 12.3459 7 12 7C10.1352 7 8.5685 8.27604 8.12536 10.0026C8.08378 10.0009 8.04199 10 8 10C6.34315 10 5 11.3431 5 13C5 14.6569 6.34315 16 8 16H28C29.6569 16 31 14.6569 31 13C31 11.3431 29.6569 10 28 10C27.915 10 27.8308 10.0035 27.7476 10.0105C27.1328 8.25721 25.4632 7 23.5 7C23.331 7 23.1641 7.00932 22.9999 7.02748Z" stroke="#27043E" stroke-width="3" stroke-linejoin="round"/>
</svg>
