<svg width="112" height="112" viewBox="0 0 112 112" fill="none" xmlns="http://www.w3.org/2000/svg">
<path d="M35 89C53.2254 89 68 74.2254 68 56C68 37.7746 53.2254 23 35 23" stroke="#0E0E0F" stroke-width="4" stroke-linecap="round"/>
<path d="M28.1446 25.76C29.2221 25.5168 29.8985 24.4462 29.6553 23.3688C29.4121 22.2913 28.3416 21.6149 27.2641 21.8581L27.1561 21.8826C26.0794 22.1292 25.4065 23.202 25.6531 24.2786C25.8997 25.3553 26.9724 26.0283 28.0491 25.7817L28.1446 25.76Z" fill="#0E0E0F"/>
<path d="M21.5921 28.0409C22.5877 27.5625 23.007 26.3677 22.5286 25.372C22.0502 24.3764 20.8553 23.9571 19.8597 24.4355L19.76 24.4836C18.766 24.9652 18.3504 26.1614 18.832 27.1555C19.3135 28.1495 20.5097 28.565 21.5038 28.0835L21.5921 28.0409Z" fill="#0E0E0F"/>
<path d="M15.7106 31.7306C16.5748 31.0427 16.7178 29.7845 16.0299 28.9202C15.342 28.056 14.0838 27.913 13.2195 28.6009L13.1331 28.6699C12.2711 29.3605 12.132 30.6192 12.8226 31.4813C13.5132 32.3433 14.7719 32.4823 15.634 31.7917L15.7106 31.7306Z" fill="#0E0E0F"/>
<path d="M10.7919 36.6338C11.4825 35.7717 11.3435 34.5131 10.4814 33.8225C9.61935 33.1319 8.36067 33.2709 7.67008 34.133L7.60108 34.2194C6.91321 35.0836 7.05617 36.3418 7.92041 37.0297C8.78464 37.7176 10.0429 37.5746 10.7308 36.7104L10.7919 36.6338Z" fill="#0E0E0F"/>
<path d="M7.08367 42.5037C7.56521 41.5096 7.1497 40.3134 6.15562 39.8318C5.16154 39.3503 3.96532 39.7658 3.48378 40.7599L3.43568 40.8596C2.95731 41.8552 3.3766 43.0501 4.37221 43.5285C5.36782 44.0068 6.56271 43.5875 7.04109 42.5919L7.08367 42.5037Z" fill="#0E0E0F"/>
<path d="M4.78186 49.0489C5.02844 47.9722 4.3555 46.8995 3.27881 46.6529C2.20212 46.4063 1.12939 47.0793 0.882804 48.156L0.858257 48.2639C0.615101 49.3414 1.29145 50.412 2.36892 50.6551C3.4464 50.8983 4.51698 50.2219 4.76013 49.1445L4.78186 49.0489Z" fill="#0E0E0F"/>
<path d="M4.00004 55.9505C4.00176 54.8459 3.10772 53.9491 2.00315 53.9474C0.898584 53.9457 0.00176132 54.8397 4.31538e-05 55.9443L0 55.9998L4.31538e-05 56.0554C0.00176132 57.16 0.898584 58.054 2.00315 58.0523C3.10772 58.0506 4.00176 57.1537 4.00004 56.0492L4 55.9998L4.00004 55.9505Z" fill="#0E0E0F"/>
<path d="M4.76013 62.8552C4.51698 61.7777 3.4464 61.1014 2.36892 61.3445C1.29145 61.5877 0.615102 62.6583 0.858258 63.7357L0.882804 63.8437C1.12939 64.9204 2.20212 65.5933 3.27881 65.3468C4.35551 65.1002 5.02844 64.0274 4.78186 62.9507L4.76013 62.8552Z" fill="#0E0E0F"/>
<path d="M7.04109 69.4077C6.56272 68.4121 5.36782 67.9928 4.37221 68.4712C3.37661 68.9496 2.95731 70.1445 3.43568 71.1401L3.48379 71.2398C3.96532 72.2339 5.16154 72.6494 6.15562 72.1679C7.14971 71.6863 7.56521 70.4901 7.08367 69.496L7.04109 69.4077Z" fill="#0E0E0F"/>
<path d="M10.7308 75.2893C10.0429 74.425 8.78465 74.2821 7.92041 74.97C7.05618 75.6578 6.91321 76.9161 7.60109 77.7803L7.67009 77.8667C8.36068 78.7288 9.61936 78.8678 10.4814 78.1772C11.3435 77.4866 11.4825 76.2279 10.7919 75.3659L10.7308 75.2893Z" fill="#0E0E0F"/>
<path d="M15.634 80.2079C14.7719 79.5173 13.5132 79.6563 12.8226 80.5184C12.1321 81.3805 12.2711 82.6392 13.1331 83.3298L13.2195 83.3988C14.0838 84.0866 15.342 83.9437 16.0299 83.0794C16.7178 82.2152 16.5748 80.957 15.7106 80.2691L15.634 80.2079Z" fill="#0E0E0F"/>
<path d="M21.5038 83.9162C20.5097 83.4346 19.3135 83.8501 18.832 84.8442C18.3505 85.8383 18.766 87.0345 19.76 87.5161L19.8597 87.5642C20.8554 88.0425 22.0502 87.6232 22.5286 86.6276C23.007 85.632 22.5877 84.4371 21.5921 83.9587L21.5038 83.9162Z" fill="#0E0E0F"/>
<path d="M28.0491 86.218C26.9724 85.9714 25.8997 86.6443 25.6531 87.721C25.4065 88.7977 26.0794 89.8704 27.1561 90.117L27.2641 90.1416C28.3416 90.3847 29.4121 89.7084 29.6553 88.6309C29.8985 87.5534 29.2221 86.4829 28.1446 86.2397L28.0491 86.218Z" fill="#0E0E0F"/>
<circle cx="35" cy="56" r="6" fill="#0E0E0F"/>
</svg>
