<svg width="60" height="60" viewBox="0 0 60 60" fill="none" xmlns="http://www.w3.org/2000/svg">
<path fill-rule="evenodd" clip-rule="evenodd" d="M44.5024 38.9115C42.6129 40.8365 39.9676 41.9281 37.1054 41.9339C34.239 41.9388 31.5937 40.8571 29.7043 38.9355C28.8115 38.039 28.1226 36.9606 27.6844 35.7737C27.2731 34.6442 27.1148 33.4381 27.2207 32.2406C27.3209 31.0732 27.6658 29.9399 28.2331 28.9147C28.8041 27.8881 29.5672 26.9808 30.4807 26.2422C32.3173 24.7455 34.6557 23.9352 37.1012 23.9319C39.5493 23.9286 41.886 24.7314 43.7243 26.2232C44.6367 26.959 45.3989 27.8635 45.9694 28.8874C46.5378 29.9119 46.8841 31.0446 46.9859 32.2118C47.0903 33.4085 46.9314 34.6135 46.5205 35.7423C46.0827 36.9311 45.3944 38.012 44.5024 38.9115ZM30.9966 32.3663C31.084 30.8061 31.8481 29.4315 33.0007 28.457C34.1311 27.4999 35.6526 26.9149 37.3127 26.9149C38.9711 26.9149 40.4926 27.4999 41.6238 28.457C42.7756 29.4315 43.5397 30.8061 43.628 32.3647C43.7154 33.9678 43.071 35.4571 41.9406 36.5611C40.788 37.6841 39.1485 38.3887 37.3127 38.3887C35.4769 38.3887 33.8341 37.6841 32.6823 36.5611C31.551 35.4571 30.9083 33.9678 30.9966 32.3663Z" fill="#0E0E0F"/>
<path fill-rule="evenodd" clip-rule="evenodd" d="M30 60C46.5685 60 60 46.5685 60 30C60 13.4315 46.5685 0 30 0C13.4315 0 0 13.4315 0 30C0 46.5685 13.4315 60 30 60ZM20.9385 35.5187C20.9492 36.1293 21.1439 37.3158 21.436 38.2424C22.0499 40.2036 23.0911 42.018 24.54 43.6171C26.0268 45.2606 27.8577 46.5808 29.9724 47.5181C32.1952 48.5024 34.6037 49.0041 37.1054 49C39.5611 49.0043 41.9902 48.4909 44.2342 47.4933C46.3489 46.547 48.1782 45.221 49.6625 43.5766C51.1105 41.971 52.1502 40.1533 52.7657 38.1921C53.0751 37.2011 53.2706 36.1953 53.349 35.1862C53.4257 34.1906 53.3934 33.1896 53.2525 32.201C52.9793 30.2768 52.3049 28.4313 51.2731 26.7843C50.3171 25.2522 49.0942 23.9038 47.6625 22.8032L47.6658 22.8007L33.0525 11.5803C33.048 11.5769 33.0438 11.5734 33.0396 11.5699L33.0298 11.5618C33.025 11.5579 33.02 11.5541 33.0146 11.5505C32.0558 10.8146 30.4436 10.817 29.3891 11.5547C28.3231 12.3006 28.2009 13.5341 29.1498 14.3121L29.1457 14.3163L35.2407 19.2726L16.6636 19.2924H16.6389C15.1034 19.2941 13.6273 20.3015 13.3352 21.5746C13.0349 22.8717 14.0778 23.9476 15.6744 23.9534L15.6719 23.9592L25.0879 23.941L8.28562 36.8381L8.22126 36.8859C6.63626 38.0996 6.12387 40.1178 7.12224 41.3951C8.13545 42.6938 10.2898 42.6962 11.8913 41.4025L21.0614 33.8974C21.0614 33.8974 20.9277 34.9106 20.9385 35.5187Z" fill="#0E0E0F"/>
</svg>
