<svg width="60" height="60" viewBox="0 0 60 60" fill="none" xmlns="http://www.w3.org/2000/svg">
<path fill-rule="evenodd" clip-rule="evenodd" d="M30 60C46.5685 60 60 46.5685 60 30C60 13.4315 46.5685 0 30 0C13.4315 0 0 13.4315 0 30C0 46.5685 13.4315 60 30 60ZM45.6004 13.5C42.8862 13.5 39.742 13.6903 36.466 16.0261C33.3499 18.2478 30.4463 22.1704 27.2983 28.6966C24.2963 34.9204 21.932 37.7478 20.0515 39.0886C18.3311 40.3153 16.7502 40.5 14.4004 40.5C12.7435 40.5 11.4004 41.8431 11.4004 43.5C11.4004 45.1569 12.7435 46.5 14.4004 46.5C17.1146 46.5 20.2588 46.3097 23.5348 43.9739C26.6509 41.7522 29.5545 37.8296 32.7025 31.3034C35.7045 25.0796 38.0688 22.2522 39.9492 20.9114C41.6697 19.6847 43.2505 19.5 45.6004 19.5C47.2572 19.5 48.6004 18.1569 48.6004 16.5C48.6004 14.8431 47.2572 13.5 45.6004 13.5Z" fill="#0E0E0F"/>
</svg>
