<svg width="60" height="60" viewBox="0 0 60 60" fill="none" xmlns="http://www.w3.org/2000/svg">
<path d="M38.0928 12.2994C38.7432 12.2837 39.386 12.4413 39.9554 12.7559C41.7326 13.7822 42.5304 16.566 42.1424 20.3932C42.116 20.6541 42.0849 20.918 42.0477 21.1835C40.0192 20.5725 37.9421 20.1366 35.8391 19.8809C34.5643 18.1858 33.1467 16.6031 31.6018 15.15C34.0278 13.2745 36.3048 12.2994 38.0913 12.2994H38.0928Z" fill="#0E0E0F"/>
<path fill-rule="evenodd" clip-rule="evenodd" d="M37.2578 34.1914C36.4728 35.5543 35.618 36.8758 34.6968 38.1506C33.1353 38.311 31.5666 38.3908 29.9969 38.3897C28.4277 38.3908 26.8595 38.311 25.2986 38.1506C24.3798 36.8758 23.5276 35.5543 22.7453 34.1914C21.9603 32.8322 21.2469 31.433 20.608 29.9993C21.2469 28.5657 21.9603 27.1664 22.7453 25.8072C23.5264 24.4498 24.376 23.133 25.2908 21.862C26.8546 21.6976 28.426 21.6157 29.9984 21.6167C31.5676 21.6158 33.1358 21.6956 34.6968 21.8558C35.6148 23.1288 36.4675 24.4476 37.2516 25.8072C38.0359 27.1667 38.7493 28.566 39.3889 29.9993C38.7493 31.4327 38.0359 32.8319 37.2516 34.1914H37.2578ZM30.0769 25.7467C27.7493 25.7467 25.8625 27.6335 25.8625 29.9611C25.8625 32.2886 27.7493 34.1755 30.0769 34.1755C32.4044 34.1755 34.2913 32.2886 34.2913 29.9611C34.2913 27.6335 32.4044 25.7467 30.0769 25.7467Z" fill="#0E0E0F"/>
<path d="M39.066 35.241C39.5603 34.3823 40.0236 33.5159 40.4607 32.6495C40.9515 33.9898 41.3546 35.3606 41.6674 36.7532C40.3063 37.1777 38.9188 37.5122 37.5139 37.7547C38.0478 36.9494 38.5652 36.1115 39.066 35.241Z" fill="#0E0E0F"/>
<path d="M27.0509 40.391C28.0164 40.45 29.002 40.4842 30 40.4842C30.998 40.4842 31.9898 40.45 32.9568 40.391C32.04 41.4895 31.0523 42.5268 30 43.4963C28.95 42.527 27.9649 41.4896 27.0509 40.391Z" fill="#0E0E0F"/>
<path d="M20.9324 35.241C21.4346 36.0999 21.9538 36.9464 22.4823 37.7512C21.0776 37.5098 19.6904 37.1765 18.3295 36.7532C18.6419 35.3591 19.0447 33.9867 19.5355 32.645C19.967 33.5129 20.4295 34.3808 20.9324 35.241Z" fill="#0E0E0F"/>
<path d="M18.3326 23.2594C18.644 24.6451 19.0447 26.0092 19.5322 27.3432C19.9686 26.4768 20.425 25.6226 20.9247 24.7577C21.426 23.8897 21.946 23.0575 22.4768 22.2548C21.0752 22.4999 19.6909 22.8354 18.3326 23.2594Z" fill="#0E0E0F"/>
<path d="M32.9475 19.6061C31.9821 19.5471 30.9965 19.5129 29.9907 19.5129C28.9932 19.5129 28.0102 19.544 27.0416 19.6061C27.9555 18.5074 28.9407 17.4701 29.9907 16.5008C31.0434 17.4699 32.0311 18.5072 32.9475 19.6061Z" fill="#0E0E0F"/>
<path d="M39.0629 24.7577C38.56 23.8861 38.0401 23.0477 37.503 22.2424C38.9117 22.4849 40.3028 22.8199 41.6674 23.2454C41.3543 24.6394 40.9515 26.0117 40.4614 27.3536C40.0299 26.4857 39.5658 25.6178 39.0645 24.7592L39.0629 24.7577Z" fill="#0E0E0F"/>
<path d="M17.8607 20.3948C17.468 16.5691 18.2705 13.7837 20.0461 12.7574C20.6158 12.4433 21.2584 12.2858 21.9087 12.301C23.6952 12.301 25.9722 13.276 28.3982 15.1516C26.8523 16.6056 25.4336 18.1894 24.1578 19.8855C22.0554 20.1425 19.9785 20.5767 17.9492 21.1835C17.9135 20.918 17.8809 20.6556 17.8561 20.3948H17.8607Z" fill="#0E0E0F"/>
<path d="M15.6132 24.2857C15.8523 24.1822 16.096 24.0786 16.3443 23.9751C16.8325 26.0355 17.4945 28.0508 18.3233 29.9993C17.493 31.9516 16.8304 33.9711 16.3427 36.0359C12.3879 34.4134 10.0954 32.1652 10.0954 29.9993C10.0954 27.9467 12.1132 25.8647 15.6132 24.2857Z" fill="#0E0E0F"/>
<path d="M20.0461 47.2412C18.2705 46.2149 17.468 43.4295 17.8607 39.6038C17.8856 39.343 17.9182 39.0806 17.9539 38.8135C19.9824 39.4244 22.0595 39.8603 24.1624 40.1162C25.4376 41.8119 26.8552 43.3956 28.3997 44.8501C25.0176 47.4632 21.9273 48.3249 20.0508 47.2412H20.0461Z" fill="#0E0E0F"/>
<path d="M42.1408 39.6038C42.5289 43.431 41.7311 46.2149 39.9539 47.2412C38.0789 48.328 34.987 47.4632 31.6065 44.8501C33.1505 43.3956 34.5675 41.8119 35.8422 40.1162C37.9452 39.8604 40.0223 39.4246 42.0508 38.8135C42.088 39.0806 42.1191 39.343 42.1455 39.6038H42.1408Z" fill="#0E0E0F"/>
<path d="M43.6635 36.0328C43.1744 33.9692 42.5113 31.9508 41.6814 29.9993C42.511 28.0467 43.1735 26.0273 43.6619 23.9627C47.609 25.5852 49.9077 27.8334 49.9077 29.9993C49.9077 32.1652 47.6152 34.4134 43.6604 36.0359L43.6635 36.0328Z" fill="#0E0E0F"/>
<path fill-rule="evenodd" clip-rule="evenodd" d="M30 60C46.5685 60 60 46.5685 60 30C60 13.4315 46.5685 0 30 0C13.4315 0 0 13.4315 0 30C0 46.5685 13.4315 60 30 60ZM51.9969 29.9993C51.9969 26.6907 48.933 23.7888 44.0546 21.8791C44.1198 21.449 44.1788 21.0236 44.2207 20.6059C44.7018 15.8518 43.5564 12.4205 40.9969 10.9424C38.1332 9.28888 34.0883 10.4891 29.9984 13.762C25.9086 10.4891 21.8637 9.28888 19 10.9424C16.4405 12.4205 15.295 15.8518 15.7762 20.6059C15.8181 21.0236 15.8755 21.4506 15.9423 21.8822C15.5356 22.0375 15.1367 22.202 14.7534 22.3744C10.3981 24.3322 8 27.0431 8 29.9993C8 33.3079 11.0639 36.2098 15.9423 38.1195C15.8755 38.5496 15.8181 38.975 15.7762 39.3927C15.295 44.1468 16.4405 47.5781 19 49.0562C19.88 49.5552 20.8771 49.8103 21.8885 49.7952C24.313 49.7952 27.1441 48.519 29.9984 46.2366C32.8513 48.519 35.6839 49.7952 38.1115 49.7952C39.1229 49.8101 40.1199 49.555 41 49.0562C43.5595 47.5781 44.705 44.1468 44.2238 39.3927C44.1819 38.975 44.1229 38.5496 44.0577 38.1195C48.9361 36.2129 52 33.3064 52 29.9993H51.9969Z" fill="#0E0E0F"/>
</svg>
