<svg width="60" height="60" viewBox="0 0 60 60" fill="none" xmlns="http://www.w3.org/2000/svg">
<path d="M52.4713 49.8762C57.1561 44.5836 60 37.6239 60 30C60 13.4315 46.5685 0 30 0C23.2451 0 17.0115 2.23254 11.9971 6H34.9804C38.0876 6 40.8416 6.65486 43.2441 7.96629C45.6467 9.23657 47.5101 10.998 48.8353 13.2523C50.2016 15.5057 50.8856 18.1277 50.8856 21.1191C50.8856 24.0694 50.1399 26.6709 48.6484 28.9243C47.1579 31.1366 45.1281 32.8166 42.5601 33.9634L52.0658 49.0834C52.2335 49.3508 52.3686 49.615 52.4713 49.8762Z" fill="#0E0E0F"/>
<path d="M48.3057 53.7695C43.2404 57.6762 36.8916 60 30 60C13.4315 60 0 46.5685 0 30C0 22.375 2.84468 15.4144 7.53067 10.1216C7.98898 11.1677 9.04234 11.8997 10.2681 11.8997H34.9804C37.797 11.8997 40.1164 12.7603 41.9387 14.4814C43.761 16.2026 44.6721 18.4149 44.6721 21.1191C44.6721 23.6186 43.761 25.6671 41.9378 27.2649C40.1164 28.8223 37.797 29.6006 34.9804 29.6006H24.2404C22.593 29.6006 21.2576 30.9206 21.2576 32.5509C21.2576 34.1794 22.593 35.5003 24.2404 35.5003H36.0998L46.785 52.4631C47.1909 53.0912 47.6978 53.5265 48.3057 53.7695Z" fill="#0E0E0F"/>
</svg>
