<svg width="60" height="60" viewBox="0 0 60 60" fill="none" xmlns="http://www.w3.org/2000/svg">
<path d="M30 60C46.5685 60 60 46.5685 60 30C60 22.4873 57.2385 15.6197 52.6752 10.3566C44.2617 5.75435 38 5.9839 38 18C38 33.7016 37.5185 59.9966 13.8734 55.3014C18.5307 58.276 24.064 60 30 60Z" fill="#0E0E0F"/>
<path d="M0.187962 33.3771C1.57896 42.6538 6.15749 44.8245 13.0001 42.9998C18.2234 41.607 20.2133 33.6954 22.3636 25.1454C24.0729 18.3494 25.8836 11.15 29.5001 6.50002C34.1544 0.515808 43.0087 3.37365 49.5959 7.28373C44.3391 2.74493 37.4901 0 30 0C13.4315 0 0 13.4315 0 30C0 31.1417 0.0637766 32.2685 0.187962 33.3771Z" fill="#0E0E0F"/>
</svg>
