<svg width="60" height="60" viewBox="0 0 60 60" fill="none" xmlns="http://www.w3.org/2000/svg">
<path fill-rule="evenodd" clip-rule="evenodd" d="M30 60C46.5685 60 60 46.5685 60 30C60 13.4315 46.5685 0 30 0C13.4315 0 0 13.4315 0 30C0 46.5685 13.4315 60 30 60ZM26.7139 10.6646C27.7358 9.37764 29.8077 10.0828 29.8324 11.726L29.9145 24.2414H45.9671C48.894 24.2414 50.5264 27.622 48.7064 29.9143L33.2859 49.3355C32.264 50.6224 30.1921 49.9173 30.1675 48.2742L29.98 35.7587H14.0327C11.1057 35.7587 9.47325 32.3781 11.2934 30.0858L26.7139 10.6646Z" fill="#0E0E0F"/>
</svg>
