<svg width="61" height="60" viewBox="0 0 61 60" fill="none" xmlns="http://www.w3.org/2000/svg">
<path d="M49.875 30.4469L42.7038 34.593V25.4075L49.8753 29.5538C50.2178 29.7516 50.2176 30.2489 49.875 30.4469Z" fill="#0E0E0F"/>
<path d="M37.9923 22.6835L28.4762 28.1859L18.9604 22.6837L28.1523 17.3697C28.3528 17.254 28.6008 17.254 28.8013 17.3697L37.9923 22.6835Z" fill="#0E0E0F"/>
<path d="M39.5611 36.0335V25.4064L30.0478 30.9072V41.9103L39.2701 36.5783C39.4509 36.4578 39.5611 36.2541 39.5611 36.0335Z" fill="#0E0E0F"/>
<path d="M17.3925 25.4071V36.0325C17.3925 36.2672 17.518 36.4834 17.7183 36.5991L26.9051 41.9108V30.9075L17.3925 25.4071Z" fill="#0E0E0F"/>
<path d="M17.3925 40.0407V48.3368C17.3925 48.7367 17.8209 48.9791 18.1599 48.7835L25.3368 44.6341L17.3925 40.0407Z" fill="#0E0E0F"/>
<path d="M18.1595 11.2168L25.3377 15.367L17.3925 19.9604V11.6636C17.3925 11.2625 17.8218 11.0214 18.1595 11.2168Z" fill="#0E0E0F"/>
<path fill-rule="evenodd" clip-rule="evenodd" d="M30.0117 60C46.5803 60 60.0117 46.5685 60.0117 30C60.0117 13.4315 46.5803 0 30.0117 0C13.4432 0 0.0117188 13.4315 0.0117188 30C0.0117188 46.5685 13.4432 60 30.0117 60ZM19.7332 8.49672L40.8074 20.6808L40.8468 20.7039L51.4476 26.8329C53.8836 28.2406 53.8837 31.7595 51.448 33.1673L41.7539 38.7721C41.7325 38.7855 41.7108 38.7986 41.6888 38.8113L41.6864 38.8127L40.8237 39.3115L40.808 39.3206L29.9527 45.5964C29.9326 45.608 29.9125 45.6192 29.8923 45.6301L29.2972 45.9741C29.2854 45.9813 29.2736 45.9884 29.2616 45.9953C29.2505 46.0017 29.2393 46.008 29.228 46.0141L19.7328 51.5039C17.2934 52.9137 14.25 51.1501 14.25 48.3368V11.6636C14.25 8.85172 17.2924 7.085 19.7332 8.49672Z" fill="#0E0E0F"/>
</svg>
