<svg width="752" height="516" viewBox="0 0 752 516" fill="none" xmlns="http://www.w3.org/2000/svg">
<g clip-path="url(#clip0_2731_12994)">
<path d="M6.33042 195.418C6.33046 78.9612 -6.89991 41.3989 8.32683 1C125.152 9.39333 347.023 6.29851 442.582 6.39895C538.141 6.49938 670.707 1 751 1C732.5 89.6448 758 444.224 743 515C714.686 515 597.219 508.007 479.996 507.613C293.899 506.986 60.7633 515 2.70642 515C2.70642 481.006 6.33038 311.875 6.33042 195.418Z" fill="white" stroke="#0E0E0F" stroke-width="2"/>
<path fill-rule="evenodd" clip-rule="evenodd" d="M99.1768 386.975C208.075 384.478 363.314 380.918 496.469 381.333C581.071 381.597 662.608 385.002 717.028 387.274C728.602 387.757 738.948 388.189 747.838 388.529C747.537 355.522 746.794 319.029 746.036 281.844C743.715 167.997 741.262 47.6591 751 1C713.016 1 663.332 2.23076 611.403 3.51716C553.562 4.94999 492.934 6.45187 442.582 6.39895C424.078 6.3795 400.838 6.47986 374.542 6.59341C265.037 7.0663 102.531 7.76807 8.32683 1C-1.04296 25.8595 0.362733 49.645 2.83043 91.4002C4.37295 117.501 6.33044 150.623 6.33042 195.418C6.3304 254.558 5.3958 327.283 4.47584 388.995C28.3326 388.599 60.8908 387.853 99.1768 386.975Z" fill="#FEC460"/>
<path d="M496.469 381.333L496.472 380.333L496.472 380.333L496.469 381.333ZM99.1768 386.975L99.1997 387.974L99.1997 387.974L99.1768 386.975ZM717.028 387.274L717.07 386.275L717.07 386.275L717.028 387.274ZM747.838 388.529L747.799 389.528L748.847 389.568L748.838 388.52L747.838 388.529ZM746.036 281.844L745.036 281.865L745.036 281.865L746.036 281.844ZM751 1L751.979 1.2043L752.23 0H751V1ZM611.403 3.51716L611.378 2.51746L611.378 2.51746L611.403 3.51716ZM442.582 6.39895L442.581 7.39894L442.582 6.39895ZM374.542 6.59341L374.537 5.59342L374.542 6.59341ZM8.32683 1L8.39849 0.0025709L7.65426 -0.0508989L7.39109 0.64731L8.32683 1ZM2.83043 91.4002L3.82868 91.3412L2.83043 91.4002ZM6.33042 195.418L5.33042 195.418L6.33042 195.418ZM4.47584 388.995L3.47595 388.981L3.46056 390.012L4.49245 389.995L4.47584 388.995ZM496.472 380.333C363.302 379.918 208.05 383.478 99.1538 385.975L99.1997 387.974C208.101 385.477 363.326 381.918 496.466 382.333L496.472 380.333ZM717.07 386.275C662.65 384.002 581.096 380.597 496.472 380.333L496.466 382.333C581.046 382.597 662.565 386.001 716.987 388.273L717.07 386.275ZM747.876 387.529C738.989 387.19 728.644 386.758 717.07 386.275L716.987 388.273C728.559 388.756 738.908 389.188 747.799 389.528L747.876 387.529ZM745.036 281.865C745.794 319.051 746.537 355.538 746.838 388.538L748.838 388.52C748.537 355.506 747.793 319.008 747.035 281.824L745.036 281.865ZM750.021 0.795704C745.128 24.2395 743.31 66.0894 742.996 116.22C742.682 166.384 743.876 224.945 745.036 281.865L747.035 281.824C745.875 224.897 744.682 166.365 744.996 116.233C745.31 66.0682 747.134 24.4196 751.979 1.2043L750.021 0.795704ZM611.428 4.51685C663.362 3.23034 713.031 2 751 2V0C713 0 663.303 1.23118 611.378 2.51746L611.428 4.51685ZM442.581 7.39894C492.949 7.45188 553.59 5.94959 611.428 4.51685L611.378 2.51746C553.533 3.95039 492.92 5.45185 442.583 5.39895L442.581 7.39894ZM374.546 7.59341C400.843 7.47984 424.08 7.3795 442.581 7.39894L442.583 5.39895C424.076 5.37949 400.833 5.47987 374.537 5.59342L374.546 7.59341ZM8.25517 1.99743C102.506 8.76891 265.059 8.06622 374.546 7.59341L374.537 5.59342C265.015 6.06639 102.555 6.76724 8.39849 0.0025709L8.25517 1.99743ZM3.82868 91.3412C1.35756 49.5279 -0.0174972 25.9742 9.26257 1.35269L7.39109 0.64731C-2.06843 25.7449 -0.632093 49.762 1.83217 91.4592L3.82868 91.3412ZM7.33042 195.418C7.33044 150.592 5.37142 117.446 3.82868 91.3412L1.83217 91.4592C3.37448 117.556 5.33044 150.654 5.33042 195.418L7.33042 195.418ZM5.47573 389.01C6.39569 327.298 7.3304 254.567 7.33042 195.418L5.33042 195.418C5.3304 254.55 4.39591 327.268 3.47595 388.981L5.47573 389.01ZM99.1538 385.975C60.8665 386.853 28.3121 387.599 4.45923 387.996L4.49245 389.995C28.3532 389.599 60.915 388.852 99.1997 387.974L99.1538 385.975Z" fill="#0E0E0F"/>
</g>
<defs>
<clipPath id="clip0_2731_12994">
<rect width="752" height="516" fill="white"/>
</clipPath>
</defs>
</svg>
