<svg width="704" height="32" viewBox="0 0 704 32" fill="none" xmlns="http://www.w3.org/2000/svg">
<path d="M90.7774 25.964C45.4329 25.5825 57.2619 23.548 67.1194 22.1492C107.061 16.4816 170.016 13.8905 211.244 11.4679C234.003 10.1305 275.339 7.39875 308.855 7.39875C342.37 7.39875 439.359 6.6358 478.789 6.6358C502.447 6.6358 630.492 6 687.666 6C696.264 6 698 8.06524 698 11.4679C698 15.0597 698 19.7683 696.264 22.1777C693.535 25.964 687.16 25.964 682.102 25.964C664.359 25.964 593.51 25.3282 508.736 24.4381C423.962 23.548 136.122 26.3455 90.7774 25.964Z" fill="#B3E0DB"/>
</svg>
