<svg width="140" height="84" viewBox="0 0 140 84" fill="none" xmlns="http://www.w3.org/2000/svg">
<g clip-path="url(#clip0_2718_13315)">
<path d="M28.0005 1C21.0005 0.999915 14.8096 1.5 12 6.00006L12.5005 12.4996L28.0005 14.9998V1Z" fill="black" stroke="black" stroke-width="2" stroke-linejoin="round"/>
<path d="M104.986 32C88 28.5 26.8099 12 12 6C7.5 16.5 3.5 28 1 39C18.007 50 86.0352 65.5 98.1831 67.5C97.6972 71.5 96.7253 77.5 95.7535 83C99.1549 81 133.655 63 139 59C132.5 49.5 115 27.5 108.845 17C108 22 106.93 27.5 104.986 32Z" fill="white" stroke="black" stroke-width="2" stroke-linejoin="round"/>
<path d="M18.6567 33.9267C19.1362 34.0491 19.3163 34.3437 19.1971 34.8105C19.0489 35.3909 18.169 35.9289 16.5575 36.4245C14.9539 36.9154 13.5024 36.9949 12.2029 36.6631C11.0549 36.37 10.0941 35.7248 9.32067 34.7277C8.54722 33.7306 8.34412 32.513 8.71136 31.0748C9.08505 29.6113 10.0045 28.1158 11.4696 26.5884C12.9347 25.0609 14.555 23.9259 16.3304 23.1832C18.1121 22.4421 19.7126 22.2528 21.1319 22.6152C21.9772 22.831 22.5877 23.2557 22.9635 23.8892C23.3392 24.5227 23.441 25.1769 23.2686 25.8519C23.0818 26.5836 22.8905 27.0958 22.6948 27.3885C22.5007 27.6749 22.1886 27.8842 21.7585 28.0162C21.3283 28.1483 20.9965 28.1845 20.7631 28.1249C20.5234 28.0637 20.337 27.9254 20.2039 27.71C20.0707 27.4946 20.0412 27.2418 20.1153 26.9516C20.1668 26.7497 20.2954 26.4701 20.5009 26.1127C20.7 25.7537 20.8326 25.4449 20.8987 25.1862C21.0098 24.751 20.9172 24.4955 20.6207 24.4198C19.7123 24.1879 18.5696 24.4134 17.1924 25.0965C15.8152 25.7797 14.5384 26.7404 13.3622 27.9788C12.1938 29.2124 11.4687 30.3812 11.1868 31.4851C11 32.2168 11.0534 32.889 11.3472 33.5015C11.641 34.1141 12.1947 34.5243 13.0085 34.7321C13.4879 34.8545 14.1233 34.879 14.9148 34.8056C15.7125 34.7338 16.4769 34.5561 17.2078 34.2724C17.9467 33.984 18.4297 33.8687 18.6567 33.9267ZM31.221 35.5223C30.4214 36.8905 29.299 37.9309 27.8538 38.6437C26.4165 39.3518 25.108 39.5552 23.9284 39.254C22.9948 39.0156 22.3122 38.4785 21.8806 37.6426C21.4506 36.8004 21.3629 35.881 21.6174 34.8843C22.0329 33.2568 22.9972 31.7963 24.51 30.5028C26.0229 29.2093 27.571 28.7647 29.1544 29.169C30.233 29.4444 31.0044 30.0681 31.4685 31.0399C31.9342 32.0055 32.0261 33.0402 31.7442 34.1441C31.6218 34.6235 31.4482 35.0798 31.2234 35.5129L31.221 35.5223ZM27.0642 31.2759C26.5228 31.5543 25.9312 32.0685 25.2895 32.8184C24.6478 33.5684 24.2166 34.3755 23.9959 35.2397C23.8623 35.7632 23.8465 36.2195 23.9488 36.6085C24.0574 36.999 24.2694 37.2346 24.5848 37.3151C25.367 37.5148 26.2991 37.259 27.3811 36.5475C28.4632 35.8361 29.1516 34.9032 29.4464 33.7488C29.6123 33.0991 29.6096 32.5306 29.4383 32.0434C29.275 31.5515 28.9473 31.2428 28.4553 31.1171C27.9885 30.9979 27.528 31.0517 27.0736 31.2784L27.0642 31.2759ZM40.2744 41.4726C40.1166 40.8276 40.1664 39.7114 40.4239 38.1242C40.6974 36.4739 40.5945 35.5876 40.1151 35.4652C39.6609 35.3492 38.6606 35.9908 37.114 37.3899C35.569 38.7828 34.5649 39.8467 34.1017 40.5818C33.9837 40.807 33.8258 40.9783 33.6278 41.0958C33.4361 41.2148 33.2646 41.255 33.1132 41.2163C32.1544 40.9715 31.7869 40.4107 32.0108 39.5339C32.0865 39.2374 32.3535 38.5866 32.8117 37.5815C33.4057 36.2818 33.9539 34.6479 34.4565 32.6798C34.5322 32.3833 34.742 32.1009 35.086 31.8326C35.4316 31.558 35.7495 31.4578 36.0397 31.5319C36.4055 31.6253 36.6629 31.7884 36.8117 32.0213C36.9606 32.2542 36.9343 32.7648 36.733 33.5533C36.5799 34.1526 36.1038 35.2674 35.3045 36.8976C37.4916 34.0427 39.4273 32.8303 41.1115 33.2603C42.575 33.634 43.1389 35.0043 42.8033 37.3711C42.4564 39.7822 42.447 41.0295 42.775 41.1133C42.9201 41.1504 43.0953 41.1615 43.3007 41.1467C43.5471 41.129 43.7365 41.1371 43.869 41.1709C44.1718 41.2482 44.2781 41.4635 44.1879 41.8168C44.1057 42.1385 43.8098 42.4291 43.3 42.6887C42.7919 42.9419 42.2224 42.988 41.5916 42.8269C40.8599 42.6401 40.4177 42.1878 40.2649 41.4702L40.2744 41.4726ZM50.6075 37.3985C50.5507 37.384 50.1914 38.0415 49.5294 39.3708C48.8737 40.7018 48.508 41.5156 48.4323 41.812C48.3002 42.3293 48.2612 42.7057 48.3153 42.9412C48.3773 43.1721 48.5345 43.3197 48.7868 43.3842C49.1401 43.4744 49.4928 43.5006 49.8452 43.4629C50.2054 43.4205 50.7052 43.2525 51.3446 42.9588C51.7419 42.7713 52.0541 42.7066 52.2812 42.7646C52.4641 42.8113 52.5955 42.902 52.6753 43.0366C52.7631 43.1665 52.7893 43.3008 52.7538 43.4396C52.6121 43.9947 52.0032 44.5112 50.927 44.9889C49.8525 45.4604 48.8169 45.5689 47.8202 45.3144C46.9876 45.1018 46.4133 44.6931 46.0973 44.0883C45.7877 43.4851 45.7505 42.7231 45.9857 41.8021C46.2031 40.9505 46.9558 39.3319 48.2436 36.9461C47.8286 36.8872 47.5423 36.8376 47.3846 36.7973L47.1859 36.7466C46.8957 36.6725 46.6234 36.5021 46.3689 36.2356C46.1208 35.9706 46.0498 35.63 46.1562 35.2137C46.2915 34.6838 46.6587 34.4954 47.258 34.6484L49.3022 35.0897C49.762 34.3941 50.298 33.466 50.9102 32.3053C51.2834 31.5808 51.7822 31.2983 52.4067 31.4578C52.7536 31.5464 52.9975 31.7229 53.1383 31.9873C53.2806 32.2454 53.3188 32.5037 53.2528 32.7624C53.227 32.8633 52.7101 33.7694 51.7019 35.4808C53.753 35.8164 54.8763 36.0091 55.0718 36.0591C55.4062 36.1444 55.6141 36.2513 55.6955 36.3796C55.7786 36.5016 55.7847 36.7014 55.7138 36.9789C55.5705 37.5403 55.0032 37.7751 54.012 37.6833L50.6075 37.3985ZM61.1217 44.891C58.9038 46.6562 57.0221 47.3415 55.4766 46.9469C54.9089 46.8019 54.4772 46.4532 54.1815 45.9006C53.8859 45.348 53.8266 44.7248 54.0038 44.0309C54.4307 42.3593 55.6292 40.7705 57.5995 39.2646C59.5715 37.7523 61.3144 37.1894 62.8283 37.576C63.5979 37.7725 64.0035 38.2893 64.045 39.1264C64.7705 39.3116 65.0623 39.6818 64.9206 40.2369C64.8529 40.5019 64.6611 40.9636 64.3451 41.622C63.761 42.857 63.3699 43.8625 63.1718 44.6384C62.9656 45.4458 62.8742 46.0272 62.8977 46.3826C62.9275 46.7396 62.9547 46.975 62.9794 47.0888C63.0041 47.2026 63.1281 47.3485 63.3515 47.5265C63.5732 47.7108 63.6567 47.9102 63.6019 48.1246C63.5198 48.4464 63.2873 48.6726 62.9045 48.8033C62.528 48.9356 62.1632 48.9567 61.8099 48.8665C60.624 48.5636 60.3946 47.2385 61.1217 44.891ZM61.8949 39.4946C61.2578 39.3319 60.2479 39.8266 58.8652 40.9786C57.4904 42.126 56.6774 43.1917 56.4261 44.1757C56.294 44.693 56.3352 44.979 56.5497 45.0338C57.294 45.2238 58.377 44.7982 59.7987 43.7569C61.2282 42.7109 62.0694 41.6927 62.3223 40.7023C62.4028 40.3869 62.3939 40.1192 62.2955 39.8992C62.2051 39.6746 62.0715 39.5397 61.8949 39.4946ZM67.8247 50.5334C66.7839 50.2676 66.0647 49.7816 65.6672 49.0753C65.2697 48.3691 65.1998 47.5113 65.4575 46.502C65.8634 44.9124 66.9489 43.3586 68.714 41.8405C70.4791 40.3225 71.983 39.7221 73.2257 40.0394C73.8249 40.1925 74.2594 40.6226 74.529 41.3297C74.8002 42.0306 74.8537 42.7028 74.6894 43.3462C74.5347 43.9517 74.3165 44.3328 74.0346 44.4893C73.7607 44.641 73.5197 44.6904 73.3115 44.6372C72.6996 44.481 72.4511 43.9673 72.566 43.0963C72.6482 42.4588 72.5726 42.1102 72.3392 42.0506C71.8472 41.925 71.0186 42.4593 69.8536 43.6535C68.6886 44.8477 67.9716 45.9715 67.7026 47.0249C67.4852 47.8765 67.8369 48.4199 68.7579 48.6551C69.7735 48.9144 70.8904 48.8166 72.1085 48.3616C72.6828 48.1387 73.1119 48.0635 73.3958 48.136C73.7427 48.2246 73.8719 48.4423 73.7833 48.7893C73.6593 49.275 72.9391 49.7664 71.6229 50.2635C70.3145 50.7559 69.0485 50.8458 67.8247 50.5334ZM85.7483 46.1398L85.7577 46.1422C85.7577 46.1422 85.7498 46.1469 85.734 46.1563C85.3166 46.2647 84.975 46.3657 84.7092 46.4591C84.2141 46.635 83.7102 46.8322 83.1975 47.0507C82.6088 47.3035 82.1585 47.5279 81.8464 47.7237C81.5835 47.885 81.4391 48.0161 81.4134 48.1171C81.3844 48.2306 81.6398 48.7695 82.1798 49.7339C82.7213 50.6919 83.1638 51.3929 83.5074 51.8367C83.8573 52.2822 84.2436 52.5589 84.6662 52.6668L85.0849 52.7636C85.2363 52.8023 85.3441 52.8802 85.4083 52.9974C85.4803 53.1099 85.493 53.2576 85.4463 53.4405C85.3803 53.6991 85.1429 53.9577 84.7342 54.2162C84.3255 54.4746 83.7301 54.504 82.9479 54.3043C82.4874 54.1867 82.0633 53.9004 81.6756 53.4452C81.2894 52.9838 80.7589 52.0353 80.084 50.5997C79.545 49.4475 79.2408 48.8625 79.1714 48.8448C79.1273 48.8335 78.9658 48.9132 78.6871 49.0839C78.4083 49.2546 78.2189 49.3911 78.1189 49.4932L78.1165 49.5027C77.8756 49.9988 77.6472 50.6696 77.4314 51.5148C77.3234 51.9375 77.1095 52.2491 76.7895 52.4496C76.4759 52.6517 76.1392 52.7068 75.7797 52.615C75.4075 52.52 75.1447 52.3387 74.9913 52.071C74.8363 51.8097 74.7862 51.5718 74.841 51.3573C74.8989 51.1303 75.105 50.6521 75.4593 49.9227C76.1438 48.5051 76.9058 46.5864 77.7454 44.1668C78.4514 42.244 79.0211 40.7499 79.4543 39.6847C79.8892 38.6131 80.2101 37.9223 80.4169 37.6123C80.6253 37.296 80.8815 37.0691 81.1854 36.9317C81.4908 36.7879 81.7887 36.7531 82.0788 36.8272C82.3564 36.8981 82.5474 37.0711 82.6518 37.3464C82.7641 37.617 82.7784 37.9163 82.6946 38.2443C82.5899 38.6543 81.9159 40.1889 80.6724 42.8481L80.1288 44.0296L80.1383 44.032C79.3953 45.7842 78.9843 46.8014 78.9055 47.0836L82.4821 45.1949C84.3301 44.1415 85.601 43.7034 86.2949 43.8806C86.9636 44.0513 87.2294 44.4048 87.0925 44.941C86.9218 45.6096 86.4737 46.0092 85.7483 46.1398ZM110.406 49.7549L106.167 53.2083C104.19 54.8737 102.807 55.6057 102.019 55.4044C101.653 55.311 101.381 55.0199 101.203 54.5311C101.028 54.0359 100.901 53.3216 100.823 52.388C100.746 51.4544 100.704 50.7515 100.697 50.2793C100.686 49.1882 100.652 48.5611 100.592 48.3982L99.4817 50.7351C99.1273 51.4913 98.7859 52.1835 98.4575 52.8119C98.1307 53.434 97.7534 54.1876 97.3258 55.0729C96.9045 55.9598 96.6113 56.6341 96.4464 57.096C96.3935 57.2504 96.1986 57.3821 95.8617 57.4909C95.5312 57.6014 95.2902 57.6373 95.1388 57.5986C94.836 57.5213 94.5884 57.3069 94.3959 56.9554C94.2082 56.6118 94.1473 56.3107 94.2134 56.0521C94.368 55.4465 94.6907 54.7091 95.1814 53.84C97.1983 50.2831 98.4057 48.028 98.8037 47.0747C99.208 46.123 99.4939 45.3191 99.6614 44.6631C99.7484 44.3224 99.9635 44.0985 100.307 43.9913C100.65 43.884 101.061 43.8916 101.541 44.014C101.799 44.0801 102.014 44.3164 102.186 44.7231C102.358 45.1298 102.447 45.4887 102.455 45.7998L102.451 45.7785L102.826 49.795C102.974 51.3985 103.086 52.4215 103.161 52.864C104.031 52.2999 105.368 51.2739 107.172 49.7861C108.975 48.3045 110.189 47.3648 110.815 46.9669C111.441 46.5689 111.855 46.3957 112.056 46.4473C112.366 46.5262 112.676 46.7433 112.989 47.0986C113.301 47.4539 113.434 47.723 113.387 47.9059C113.352 48.0447 112.987 48.9626 112.291 50.6597C111.803 51.8589 111.294 53.2104 110.762 54.7141C110.23 56.2178 109.929 57.1085 109.858 57.386C109.771 57.7266 109.726 58.088 109.722 58.4701C109.714 58.7638 109.679 59.0336 109.616 59.2796C109.457 59.9041 109.238 60.3017 108.959 60.4724C108.687 60.6448 108.323 60.6729 107.869 60.557C107.043 60.346 106.788 59.6191 107.105 58.3764C107.405 57.2031 107.878 55.7986 108.524 54.1628C109.172 52.5207 109.7 51.2681 110.109 50.4048C110.255 50.0929 110.354 49.8763 110.406 49.7549ZM121.738 60.2785C121.571 60.9345 120.818 61.5789 119.481 62.2117C118.145 62.8382 116.783 62.9743 115.395 62.6199C114.329 62.3477 113.576 61.7991 113.135 60.9742C112.695 60.143 112.628 59.1282 112.934 57.9297C113.385 56.1634 114.433 54.667 116.076 53.4405C117.72 52.2139 119.251 51.7819 120.671 52.1443C121.377 52.3247 121.888 52.6936 122.202 53.251C122.517 53.8084 122.595 54.3962 122.437 55.0144C122.157 56.112 121.363 57.0246 120.055 57.7523C118.749 58.4736 117.224 58.8134 115.481 58.7714C115.281 58.7673 115.157 58.8567 115.11 59.0396C115.033 59.3424 115.091 59.6664 115.285 60.0116C115.487 60.3521 115.812 60.5795 116.26 60.6939C117.528 61.0176 118.953 60.6861 120.536 59.6993C120.84 59.5081 121.105 59.4416 121.332 59.4996C121.711 59.5962 121.846 59.8559 121.738 60.2785ZM115.817 56.9825C116.865 57.0352 117.851 56.8333 118.774 56.3768C119.703 55.922 120.235 55.4296 120.37 54.8998C120.423 54.6916 120.408 54.5028 120.323 54.3334C120.247 54.1594 120.117 54.049 119.934 54.0023C119.385 53.8621 118.674 54.1104 117.799 54.7471C116.924 55.3838 116.263 56.1289 115.817 56.9825Z" fill="black"/>
</g>
<defs>
<clipPath id="clip0_2718_13315">
<rect width="140" height="84" fill="white"/>
</clipPath>
</defs>
</svg>
