<svg width="80" height="80" viewBox="0 0 80 80" fill="none" xmlns="http://www.w3.org/2000/svg">
<rect width="80" height="80" rx="40" fill="#14B8A6"/>
<path fill-rule="evenodd" clip-rule="evenodd" d="M59 57.2744C58.9926 58.228 58.2161 59 57.2609 59H39.7091L32.207 46.0054H59V57.2744ZM21 57.2609V49.631L37.53 21H43.99L30.0252 45.1883L37.9991 59H22.7391C21.7791 59 21 58.2207 21 57.2609ZM42.1813 44.5237H35.65C34.9209 44.5237 34.247 44.141 33.8826 43.5094C33.7034 43.1993 33.609 42.8473 33.609 42.4891C33.609 42.1309 33.7034 41.779 33.8826 41.4688L37.15 35.8092L42.1813 44.5237ZM57.2609 21C58.2161 21 58.9926 21.772 59 22.7256V44.5237H43.8922L38.0048 34.3282L45.7 21H57.2609Z" fill="black"/>
</svg>
