<svg width="784" height="188" viewBox="0 0 784 188" fill="none" xmlns="http://www.w3.org/2000/svg">
<path d="M20.9769 184.476C18.1841 173.218 17 43.4963 17 17C100.493 17.8308 280.566 19.4925 332.918 19.4925C385.27 19.4925 644.547 18.4955 765.649 17.997C768.135 35.9973 767.404 147.569 761.665 165.034C755.926 182.5 742.285 186.969 730.851 186.969C678.948 186.969 95.4433 187.467 20.9769 184.476Z" fill="white" stroke="#0E0E0F" stroke-width="2"/>
<path d="M37.2143 6C35.5857 9.25714 15.7262 26.3571 6 34.5C7.80952 36.7619 11.9714 41.8286 14.1429 44C18.8929 40.6071 38.5714 22.2857 44 14.8214C42.6429 12.7857 39.3857 8.17143 37.2143 6Z" fill="white" stroke="#0E0E0F" stroke-width="2"/>
<path d="M750.082 6C754.735 12.3333 768.694 27.1111 778 34.1481C775.932 36.4938 771.951 41.7481 769.469 44C760.939 36.963 745.429 21.4815 740 13.037C743.102 10.2222 746.204 8.11111 750.082 6Z" fill="white" stroke="#0E0E0F" stroke-width="2"/>
<path fill-rule="evenodd" clip-rule="evenodd" d="M762.482 161.764C762.221 163.07 761.949 164.168 761.664 165.034C755.989 182.307 742.585 186.868 731.23 186.967C740.467 181.51 747.025 175.848 749.5 161C755.535 164.018 759.203 164.121 762.482 161.764Z" fill="#D9D9D9"/>
<path d="M762.482 161.764L763.462 161.959L763.958 159.47L761.898 160.952L762.482 161.764ZM761.664 165.034L762.614 165.346V165.346L761.664 165.034ZM731.23 186.967L730.722 186.106L727.517 187.999L731.239 187.967L731.23 186.967ZM749.5 161L749.947 160.106L748.736 159.5L748.513 160.836L749.5 161ZM761.501 161.568C761.245 162.853 760.982 163.908 760.714 164.722L762.614 165.346C762.916 164.427 763.198 163.287 763.462 161.959L761.501 161.568ZM760.714 164.722C757.947 173.144 753.324 178.404 748.06 181.585C742.776 184.778 736.777 185.919 731.222 185.967L731.239 187.967C737.038 187.917 743.418 186.727 749.094 183.297C754.79 179.855 759.706 174.197 762.614 165.346L760.714 164.722ZM748.513 160.836C747.297 168.133 745.093 173.094 742.114 176.888C739.127 180.694 735.307 183.398 730.722 186.106L731.739 187.828C736.391 185.08 740.468 182.224 743.688 178.123C746.916 174.01 749.228 168.716 750.486 161.164L748.513 160.836ZM761.898 160.952C760.431 162.007 758.916 162.495 757.076 162.399C755.194 162.301 752.912 161.588 749.947 160.106L749.053 161.894C752.123 163.43 754.693 164.277 756.972 164.396C759.296 164.517 761.254 163.878 763.066 162.575L761.898 160.952Z" fill="#0E0E0F"/>
</svg>
