<svg width="520" height="600" viewBox="0 0 520 600" fill="none" xmlns="http://www.w3.org/2000/svg">
<g clip-path="url(#clip0_3621_11159)">
<rect width="520" height="600" fill="white"/>
<path d="M32 49.7346H488" stroke="#E4AAB6" stroke-width="2"/>
<path d="M32 74.7346H488" stroke="#DEDEDC"/>
<path d="M32 99.7346H488" stroke="#DEDEDC"/>
<path d="M32 124.735H488" stroke="#DEDEDC"/>
<path d="M32 149.735H488" stroke="#DEDEDC"/>
<path d="M32 174.735H488" stroke="#DEDEDC"/>
<path d="M32 199.735H488" stroke="#DEDEDC"/>
<path d="M32 224.735H488" stroke="#DEDEDC"/>
<path d="M32 249.735H488" stroke="#DEDEDC"/>
<path d="M32 274.735H488" stroke="#DEDEDC"/>
<path d="M32 299.735H488" stroke="#DEDEDC"/>
<path d="M32 324.735H488" stroke="#DEDEDC"/>
<path d="M32 349.735H488" stroke="#DEDEDC"/>
<path d="M32 374.735H488" stroke="#DEDEDC"/>
<path d="M32 399.735H488" stroke="#DEDEDC"/>
<path d="M32 424.735H488" stroke="#DEDEDC"/>
<path d="M32 449.735H488" stroke="#DEDEDC"/>
<path d="M32 474.735H488" stroke="#DEDEDC"/>
<path d="M32 499.735H488" stroke="#DEDEDC"/>
<path d="M32 524.735H488" stroke="#DEDEDC"/>
<path d="M32 549.735H488" stroke="#DEDEDC"/>
</g>
<defs>
<clipPath id="clip0_3621_11159">
<rect width="520" height="600" fill="white"/>
</clipPath>
</defs>
</svg>
