<svg width="160" height="180" viewBox="0 0 160 180" fill="none" xmlns="http://www.w3.org/2000/svg">
<path d="M2 22L160 22V156L136 180H2L2 22Z" fill="#BABABA" fill-opacity="0.4"/>
<path d="M0 20L158 20V154L134 178H0L0 20Z" fill="#FF866B"/>
<path d="M158 154H134V178L158 154Z" fill="#EC755A"/>
<rect x="10" width="18" height="72" fill="#FFAE50" fill-opacity="0.6"/>
<path d="M119.024 81.5196C118.647 81.3374 118.354 81.08 118.148 80.7473C117.939 80.4017 117.86 80.0123 117.913 79.579C117.973 79.1841 118.11 78.8146 118.325 78.4707C118.54 78.1268 118.804 77.8334 119.117 77.5906C119.463 77.3151 119.844 77.0798 120.258 76.8846C120.672 76.6893 121.102 76.5442 121.548 76.449C121.994 76.3539 122.444 76.3176 122.898 76.3401C123.363 76.3474 123.813 76.4171 124.247 76.5491C124.486 76.6244 124.636 76.7557 124.697 76.9431C124.758 77.1305 124.753 77.3168 124.681 77.5021C124.622 77.6851 124.503 77.8326 124.325 77.9447C124.147 78.0569 123.939 78.0753 123.7 78C123.362 77.89 122.996 77.8446 122.602 77.8639C122.209 77.8833 121.818 77.955 121.431 78.0791C121.053 78.1881 120.706 78.3512 120.389 78.5684C120.071 78.7856 119.819 79.037 119.633 79.3226C119.581 79.3984 119.545 79.4515 119.524 79.4818C119.516 79.5098 119.501 79.5721 119.479 79.6688L119.479 79.8872C119.539 79.9954 119.584 80.0599 119.614 80.0808C119.901 80.2003 120.183 80.2609 120.461 80.2628C120.75 80.2494 121.037 80.2233 121.321 80.1844C121.722 80.1371 122.131 80.0886 122.545 80.039C122.97 79.9742 123.383 79.9513 123.784 79.9704C124.197 79.9871 124.589 80.0674 124.96 80.2111C125.33 80.3549 125.667 80.6041 125.971 80.9588C126.309 81.36 126.51 81.8063 126.574 82.2976C126.648 82.7738 126.541 83.2369 126.253 83.687C125.965 84.137 125.598 84.4824 125.153 84.7231C124.705 84.951 124.243 85.1417 123.769 85.2951C123.343 85.4263 122.89 85.5226 122.412 85.584C121.946 85.643 121.484 85.6485 121.025 85.6004C120.581 85.5627 120.151 85.4564 119.735 85.2812C119.316 85.0933 118.948 84.8168 118.629 84.4516C118.476 84.2679 118.422 84.0793 118.466 83.8859C118.507 83.6797 118.597 83.5177 118.734 83.3998C118.882 83.2668 119.054 83.1954 119.251 83.1858C119.46 83.1738 119.648 83.2584 119.814 83.4398C120.047 83.7015 120.338 83.8797 120.686 83.9746C121.035 84.0695 121.401 84.1148 121.784 84.1107C122.177 84.0913 122.564 84.0336 122.943 83.9374C123.32 83.8284 123.657 83.7137 123.952 83.5932C124.112 83.5242 124.269 83.4424 124.424 83.3478C124.589 83.2381 124.72 83.1214 124.816 82.9977C124.925 82.8718 124.994 82.74 125.022 82.6026C125.047 82.4523 125.012 82.2998 124.918 82.1451C124.731 81.8484 124.471 81.6579 124.138 81.5734C123.817 81.4867 123.488 81.461 123.15 81.4966C122.813 81.5321 122.471 81.5816 122.125 81.6451C121.779 81.7086 121.431 81.7593 121.081 81.7972C120.728 81.8223 120.377 81.8206 120.027 81.7921C119.678 81.7636 119.344 81.6728 119.024 81.5196Z" fill="black"/>
<path d="M110.132 83.2717C110.053 83.1274 110.017 82.9685 110.025 82.795C109.65 81.2619 109.272 79.7427 108.89 78.2375C108.505 76.7195 108.228 75.1751 108.059 73.6044C108.044 73.382 108.088 73.1886 108.191 73.0242C108.303 72.8446 108.468 72.7348 108.686 72.6949C108.891 72.6572 109.091 72.7 109.286 72.8231C109.478 72.9334 109.581 73.0997 109.596 73.3221C109.75 74.7369 109.991 76.1224 110.319 77.4786C110.645 78.822 110.981 80.1834 111.327 81.5629C111.962 80.9829 112.599 80.4158 113.239 79.8615C113.891 79.3048 114.52 78.726 115.124 78.1252C115.303 77.9467 115.49 77.8794 115.683 77.9233C115.887 77.952 116.049 78.0414 116.169 78.1914C116.302 78.3391 116.375 78.5178 116.387 78.7274C116.399 78.937 116.315 79.131 116.136 79.3095C115.532 79.9104 114.91 80.488 114.27 81.0423C113.641 81.5815 113.008 82.1346 112.371 82.7018C113.334 83.1205 114.293 83.5468 115.247 83.9807C116.2 84.4145 117.14 84.884 118.067 85.3889C118.259 85.4992 118.37 85.6708 118.4 85.9037C118.427 86.1238 118.383 86.3172 118.268 86.4839C118.13 86.6682 117.957 86.7727 117.75 86.7975C117.555 86.82 117.363 86.7825 117.173 86.685C116.32 86.2195 115.459 85.7884 114.592 85.3916C113.725 84.9948 112.845 84.6004 111.952 84.2083C112.054 84.6926 112.145 85.1857 112.224 85.6875C112.316 86.187 112.393 86.6824 112.457 87.1737C112.491 87.4322 112.436 87.6344 112.29 87.7802C112.16 87.9365 111.999 88.0323 111.807 88.0676C111.615 88.1029 111.43 88.0706 111.253 87.9707C111.078 87.8837 110.974 87.7109 110.94 87.4524C110.838 86.7562 110.718 86.0634 110.578 85.3742C110.448 84.6699 110.3 83.969 110.132 83.2717Z" fill="black"/>
<path d="M101.101 84.8111C100.724 84.6289 100.431 84.3715 100.225 84.0388C100.016 83.6932 99.9375 83.3038 99.9903 82.8705C100.05 82.4756 100.188 82.1061 100.402 81.7622C100.617 81.4183 100.881 81.1249 101.194 80.8821C101.541 80.6066 101.921 80.3713 102.335 80.1761C102.749 79.9808 103.18 79.8357 103.625 79.7405C104.071 79.6454 104.521 79.6091 104.976 79.6316C105.44 79.6389 105.89 79.7086 106.325 79.8406C106.563 79.9159 106.713 80.0472 106.774 80.2346C106.835 80.422 106.83 80.6083 106.758 80.7936C106.699 80.9766 106.58 81.1241 106.402 81.2362C106.224 81.3484 106.016 81.3668 105.777 81.2915C105.439 81.1815 105.073 81.1361 104.68 81.1554C104.286 81.1748 103.895 81.2465 103.508 81.3706C103.131 81.4796 102.783 81.6427 102.466 81.8599C102.148 82.0771 101.896 82.3285 101.711 82.6141C101.658 82.6899 101.622 82.743 101.601 82.7733C101.593 82.8013 101.578 82.8636 101.556 82.9603L101.556 83.1787C101.616 83.2869 101.661 83.3514 101.691 83.3723C101.978 83.4918 102.26 83.5524 102.539 83.5543C102.827 83.5409 103.114 83.5148 103.398 83.4759C103.8 83.4286 104.208 83.3801 104.622 83.3305C105.047 83.2657 105.46 83.2428 105.861 83.2619C106.274 83.2786 106.666 83.3589 107.037 83.5026C107.407 83.6464 107.744 83.8956 108.048 84.2503C108.386 84.6515 108.587 85.0978 108.651 85.5891C108.725 86.0653 108.619 86.5284 108.33 86.9785C108.042 87.4285 107.676 87.7739 107.23 88.0146C106.782 88.2425 106.321 88.4332 105.846 88.5866C105.42 88.7178 104.967 88.8141 104.489 88.8755C104.023 88.9345 103.561 88.94 103.102 88.8919C102.658 88.8542 102.228 88.7479 101.812 88.5727C101.394 88.3848 101.025 88.1083 100.706 87.7432C100.554 87.5594 100.499 87.3708 100.543 87.1774C100.585 86.9712 100.674 86.8092 100.811 86.6913C100.959 86.5583 101.131 86.4869 101.328 86.4773C101.537 86.4653 101.725 86.5499 101.891 86.7313C102.124 86.993 102.415 87.1712 102.764 87.2661C103.112 87.361 103.478 87.4063 103.861 87.4022C104.254 87.3828 104.641 87.3251 105.02 87.2289C105.398 87.1199 105.734 87.0052 106.03 86.8847C106.189 86.8157 106.346 86.7339 106.501 86.6393C106.666 86.5296 106.797 86.4129 106.893 86.2892C107.003 86.1633 107.071 86.0316 107.099 85.8941C107.124 85.7438 107.089 85.5913 106.995 85.4366C106.808 85.1399 106.548 84.9494 106.215 84.865C105.894 84.7782 105.565 84.7526 105.228 84.7881C104.89 84.8236 104.548 84.8731 104.202 84.9366C103.857 85.0001 103.508 85.0508 103.158 85.0887C102.805 85.1138 102.454 85.1121 102.105 85.0836C101.755 85.0551 101.421 84.9643 101.101 84.8111Z" fill="black"/>
<path d="M92.8951 90.1903C92.4244 90.0782 92.0304 89.8792 91.7131 89.5932C91.4063 89.2921 91.164 88.9461 90.9863 88.5551C90.8214 88.1617 90.7182 87.7438 90.6766 87.3013C90.6327 86.8461 90.6436 86.4006 90.7092 85.9649C90.7657 85.6235 90.8326 85.2671 90.91 84.8954C91.0001 84.5214 91.1206 84.1683 91.2715 83.8361C91.4223 83.5039 91.6197 83.2095 91.8639 82.9529C92.1056 82.6834 92.4127 82.4814 92.7852 82.3468C93.1704 82.2099 93.5639 82.1178 93.9656 82.0705C94.3778 82.008 94.7882 81.9723 95.197 81.9635C95.381 81.9561 95.5621 81.9692 95.7404 82.0027C95.9163 82.0233 96.0933 82.0504 96.2716 82.0838C96.2491 81.8894 96.3029 81.714 96.4331 81.5577C96.5761 81.3991 96.7372 81.3033 96.9165 81.2704C97.1342 81.2304 97.3212 81.2755 97.4775 81.4057C97.6442 81.5207 97.7592 81.6783 97.8225 81.8785C97.9947 82.4558 98.1285 83.0402 98.2239 83.6317C98.3321 84.2208 98.421 84.8134 98.4908 85.4096C98.5734 86.0034 98.656 86.5972 98.7385 87.191C98.8339 87.7825 98.9485 88.3704 99.0823 88.9548C99.1398 89.1958 99.0971 89.3956 98.9541 89.5542C98.8216 89.6977 98.6593 89.7871 98.4672 89.8224C98.2751 89.8576 98.0852 89.8329 97.8975 89.7483C97.7203 89.6484 97.603 89.478 97.5455 89.237C96.872 89.6784 96.1301 90 95.3199 90.2018C94.5073 90.3907 93.699 90.3869 92.8951 90.1903ZM92.264 85.9971C92.2295 86.2417 92.2073 86.5172 92.1974 86.8235C92.1874 87.1298 92.22 87.4151 92.295 87.6793C92.37 87.9435 92.4991 88.178 92.6823 88.3826C92.8631 88.5745 93.1219 88.6858 93.4585 88.7167C94.1493 88.8016 94.813 88.7393 95.4497 88.5297C96.0992 88.3178 96.678 87.9732 97.186 87.496C97.122 86.859 97.0487 86.2437 96.9662 85.6499C96.8964 85.0537 96.7998 84.4558 96.6765 83.8563C96.4329 83.7554 96.1865 83.6749 95.9371 83.6148C95.6982 83.5395 95.4408 83.5073 95.1648 83.5183C94.8888 83.5293 94.596 83.5566 94.2862 83.6002C93.987 83.6287 93.6988 83.6816 93.4218 83.759C93.3962 83.7637 93.3293 83.7958 93.2211 83.8554C93.1233 83.8998 93.0692 83.9296 93.0588 83.9448C92.9425 84.0323 92.846 84.1559 92.7694 84.3156C92.6453 84.5767 92.5439 84.8535 92.4652 85.146C92.3842 85.4256 92.3171 85.7093 92.264 85.9971Z" fill="black"/>
<path d="M78.936 93.5482C78.7685 93.6452 78.5665 93.6624 78.3299 93.5999C78.1062 93.5351 77.9627 93.4026 77.8995 93.2024C77.5132 92.1083 77.1934 91.0153 76.9399 89.9234C76.6968 88.8162 76.4718 87.6992 76.2649 86.5722C76.2296 86.3801 76.2526 86.217 76.3339 86.0829C76.4152 85.9488 76.5227 85.8497 76.6565 85.7854C76.7904 85.7211 76.9365 85.6876 77.0948 85.685C77.2532 85.6824 77.393 85.7229 77.5143 85.8066C77.7642 85.5091 78.0391 85.2402 78.3392 84.9998C78.6392 84.7593 78.951 84.5829 79.2746 84.4705C79.6086 84.343 79.9515 84.2999 80.3033 84.3412C80.6528 84.3697 81.003 84.5106 81.354 84.7638C81.6443 84.9753 81.9062 85.2118 82.1396 85.4735C82.3706 85.7223 82.586 85.9938 82.7857 86.2881C82.8884 85.7662 83.075 85.2686 83.3455 84.7953C83.616 84.322 84.0073 83.9655 84.5193 83.7258C84.8975 83.5505 85.216 83.5184 85.4747 83.6298C85.7311 83.7283 85.99 83.9125 86.2513 84.1822C86.5278 84.4624 86.7863 84.7525 87.0268 85.0525C87.28 85.3502 87.5216 85.6567 87.7516 85.9719C87.9816 86.2871 88.2052 86.6035 88.4224 86.921C88.6396 87.2386 88.8556 87.5497 89.0704 87.8545C89.3179 88.193 89.5398 88.5361 89.736 88.884C89.9428 89.2167 90.103 89.5845 90.2167 89.9872C90.2822 90.2002 90.2395 90.4 90.0884 90.5866C89.9478 90.7581 89.7815 90.8615 89.5894 90.8967C89.3717 90.9367 89.1794 90.8992 89.0127 90.7842C88.8564 90.654 88.7454 90.4825 88.6799 90.2694C88.5978 89.9668 88.4605 89.6875 88.2678 89.4317C88.0857 89.1606 87.9047 88.896 87.7249 88.6378C87.5299 88.3691 87.3338 88.094 87.1365 87.8125C86.952 87.5287 86.7622 87.2524 86.5672 86.9837C86.3723 86.715 86.1645 86.4487 85.9439 86.1847C85.7362 85.9184 85.5167 85.6608 85.2857 85.412C85.253 85.3783 85.2204 85.3446 85.1877 85.3108C85.155 85.2771 85.1224 85.2434 85.0897 85.2097C84.8594 85.3976 84.6984 85.5662 84.6067 85.7154C84.515 85.8646 84.4378 86.0575 84.3754 86.2941C84.321 86.5026 84.2818 86.7216 84.2577 86.9511C84.2441 87.1654 84.2381 87.385 84.2397 87.6097C84.2381 88.0337 84.2593 88.4733 84.3032 88.9286C84.3387 89.2662 84.3975 89.5864 84.4796 89.8891C84.5744 90.1894 84.6204 90.5119 84.6175 90.8566C84.6167 91.0686 84.5233 91.2446 84.3372 91.3847C84.1639 91.5224 83.9765 91.5833 83.775 91.5674C83.5863 91.5491 83.4354 91.4841 83.3222 91.3725C83.2195 91.2457 83.1389 91.0951 83.0803 90.9205C82.9539 90.5201 82.8186 90.108 82.6746 89.6844C82.5306 89.2607 82.3686 88.847 82.1885 88.4432C82.0061 88.0265 81.7952 87.635 81.5558 87.2686C81.3269 86.887 81.0526 86.5468 80.7329 86.2481C80.5113 86.0505 80.2974 85.9309 80.0912 85.8894C79.8978 85.8454 79.6795 85.9186 79.4365 86.1089C79.1701 86.3167 78.9161 86.5553 78.6743 86.8247C78.4326 87.0942 78.2275 87.3834 78.0592 87.6923C78.2225 88.5096 78.3987 89.3245 78.5876 90.1371C78.787 90.9345 79.0248 91.7248 79.301 92.5081C79.3666 92.7211 79.3711 92.9255 79.3144 93.1213C79.2681 93.3019 79.142 93.4442 78.936 93.5482Z" fill="black"/>
<path d="M62.9526 94.3188C62.8515 93.7681 62.7876 93.204 62.761 92.6264C62.726 91.9311 62.6921 91.2423 62.6595 90.5599C62.6245 89.8647 62.5371 89.1725 62.3973 88.4833C62.3526 88.24 62.3953 88.0401 62.5255 87.8839C62.6557 87.7276 62.8168 87.6318 63.0089 87.5965C63.201 87.5612 63.392 87.5923 63.582 87.6898C63.772 87.7873 63.8894 87.9577 63.9341 88.2011C64.4265 88.0709 64.8968 87.9647 65.345 87.8824C65.8597 87.8011 66.3221 87.8684 66.7325 88.0843C67.1428 88.3002 67.4811 88.6286 67.7474 89.0695C67.9811 89.4767 68.153 89.9085 68.2633 90.3648C68.3736 90.8212 68.4775 91.2787 68.5749 91.7374C68.7077 92.3882 68.8468 93.0378 68.9924 93.6862C69.1356 94.3218 69.2672 94.9662 69.3871 95.6194C69.4342 95.8755 69.385 96.0765 69.2397 96.2223C69.1096 96.3786 68.9484 96.4744 68.7563 96.5097C68.577 96.5426 68.3924 96.5103 68.2024 96.4128C68.0275 96.3258 67.9166 96.1542 67.8695 95.8981C67.7567 95.2833 67.6333 94.6838 67.4995 94.0994C67.3785 93.5126 67.2488 92.9142 67.1103 92.3042C67.0235 91.976 66.9484 91.6389 66.8849 91.2931C66.8318 90.9322 66.7462 90.6103 66.6281 90.3275C66.5568 90.1553 66.4901 90.0087 66.4282 89.8877C66.3639 89.7539 66.2688 89.6323 66.1428 89.5231C66.1078 89.4765 66.0419 89.4423 65.9452 89.4204C65.8613 89.396 65.7873 89.3898 65.7233 89.4015C65.5312 89.4368 65.3543 89.4825 65.1925 89.5387C65.0307 89.5949 64.8649 89.6651 64.695 89.7492C64.6228 89.789 64.5507 89.8287 64.4786 89.8684C64.4064 89.9081 64.3419 89.9531 64.2849 90.0033C64.2415 90.4878 64.2266 90.9473 64.2402 91.3817C64.2642 91.8009 64.2894 92.2265 64.3158 92.6585C64.3338 92.973 64.3658 93.2914 64.4118 93.6139C64.4683 93.9213 64.5119 94.231 64.5427 94.5431C64.5864 94.8528 64.6044 95.1672 64.5968 95.4863C64.602 95.8031 64.5601 96.1153 64.4709 96.4229C64.3957 96.6618 64.2643 96.8117 64.0769 96.8726C63.8919 96.9463 63.7067 96.9472 63.5214 96.8753C63.3513 96.8139 63.2037 96.6953 63.0788 96.5197C62.9667 96.3417 62.9419 96.1345 63.0043 95.8979C63.0773 95.6462 63.0954 95.3848 63.0589 95.1135C63.0223 94.8422 62.9869 94.5773 62.9526 94.3188Z" fill="black"/>
<path d="M53.7392 90.2126C53.9214 89.8349 54.1555 89.4874 54.4414 89.1701C54.7401 88.8505 55.0687 88.585 55.427 88.3735C55.783 88.1493 56.1659 87.9996 56.5757 87.9243C56.9832 87.8362 57.4071 87.8378 57.8475 87.929C58.2727 88.0098 58.6701 88.1553 59.0396 88.3654C59.4068 88.5627 59.7177 88.8499 59.9723 89.2267C60.1696 89.5082 60.314 89.8259 60.4055 90.1798C60.4969 90.5337 60.4608 90.8779 60.2972 91.2124C60.1545 91.5166 59.9552 91.7651 59.6993 91.9577C59.4563 92.1479 59.1805 92.3045 58.8721 92.4273C58.5765 92.5478 58.2622 92.6386 57.9293 92.6998C57.6091 92.7586 57.3006 92.8086 57.0037 92.8499C56.6683 92.8982 56.3307 92.9338 55.9906 92.9565C55.6634 92.9769 55.3298 92.9984 54.9898 93.0212C55.198 93.5786 55.497 94.0533 55.8867 94.4451C56.2764 94.8369 56.7549 95.0998 57.3223 95.2339C57.4726 95.2592 57.5885 95.2777 57.6701 95.2892C57.7108 95.2949 57.7452 95.3018 57.7732 95.31C57.8116 95.3029 57.85 95.2958 57.8884 95.2888C57.9932 95.2828 58.0788 95.2803 58.1452 95.2813C58.2221 95.2672 58.2913 95.2479 58.353 95.2233C58.4403 95.1941 58.4967 95.1771 58.5224 95.1724C58.5584 95.1525 58.5945 95.1326 58.6306 95.1128C58.7644 95.0485 58.8778 94.9813 58.9709 94.9113C59.0767 94.8389 59.1959 94.7309 59.3284 94.5875C59.3935 94.5093 59.4783 94.3945 59.5828 94.2429C59.6874 94.0913 59.7751 93.956 59.8459 93.8371C59.9411 93.6343 60.0724 93.4844 60.2399 93.3875C60.4203 93.2881 60.6171 93.2785 60.8303 93.3585C61.0156 93.4303 61.1603 93.5693 61.2643 93.7752C61.3788 93.966 61.3885 94.1628 61.2933 94.3656C61.0136 94.9333 60.6506 95.4435 60.2042 95.8961C59.7682 96.3336 59.226 96.6252 58.5776 96.7707C58.0572 96.8928 57.5349 96.896 57.0106 96.7805C56.484 96.6521 56.002 96.4428 55.5648 96.1524C55.0214 95.7888 54.5612 95.3372 54.1841 94.7975C53.8069 94.2577 53.5491 93.6829 53.4106 93.0729C53.2789 93.0044 53.1693 92.912 53.0817 92.7957C53.0046 92.6642 52.9595 92.5269 52.9465 92.3836C52.9462 92.2381 52.9739 92.1006 53.0296 91.9712C53.0829 91.829 53.1829 91.7246 53.3295 91.658C53.3834 91.1583 53.5199 90.6765 53.7392 90.2126ZM58.4343 89.8269C58.2605 89.6735 58.0134 89.5534 57.693 89.4666C57.4308 89.4088 57.1333 89.4105 56.8003 89.4717C56.4801 89.5305 56.2154 89.6387 56.006 89.7963C55.7373 89.9912 55.5112 90.238 55.3278 90.5364C55.1419 90.8221 55.0068 91.1315 54.9224 91.4648C55.2368 91.4467 55.5512 91.4287 55.8656 91.4107C56.18 91.3927 56.4921 91.3618 56.8018 91.3182C56.9683 91.2876 57.1348 91.257 57.3013 91.2265C57.4678 91.1959 57.6331 91.1589 57.7972 91.1155C57.8484 91.1061 57.8932 91.0979 57.9317 91.0908C57.9805 91.0686 58.0306 91.0528 58.0818 91.0434C58.1924 90.9966 58.2733 90.9685 58.3245 90.9591C58.3862 90.9346 58.4467 90.9036 58.506 90.8662C58.5549 90.844 58.6154 90.813 58.6875 90.7733C58.7469 90.7359 58.7817 90.7097 58.7922 90.6945C58.8027 90.6793 58.8195 90.663 58.8428 90.6455L58.8581 90.4044C58.8231 90.3579 58.7956 90.3166 58.7757 90.2805C58.7663 90.2293 58.7453 90.1868 58.7126 90.1531C58.6928 90.117 58.6502 90.0653 58.5848 89.9978C58.5323 89.9281 58.4821 89.8711 58.4343 89.8269Z" fill="black"/>
<path d="M51.4946 91.3991C51.738 91.3544 51.9314 91.3983 52.0748 91.5309C52.2311 91.661 52.3269 91.8221 52.3622 92.0142C52.3975 92.2063 52.3664 92.3974 52.2689 92.5874C52.1818 92.7623 52.0167 92.872 51.7733 92.9167C51.4683 92.986 51.161 93.0424 50.8512 93.086C50.552 93.1145 50.2527 93.143 49.9535 93.1715C50.1521 94.1809 50.3187 95.1961 50.4532 96.2172C50.6006 97.236 50.6828 98.2602 50.6998 99.2897C50.7141 99.5121 50.6283 99.6933 50.4422 99.8334C50.2561 99.9735 50.0611 100.029 49.8572 100C49.6278 99.9764 49.4517 99.8829 49.3292 99.7201C49.2218 99.5677 49.1673 99.3791 49.1657 99.1544C49.1406 98.1528 49.0451 97.1642 48.8792 96.1886C48.7261 95.2106 48.5462 94.2309 48.3394 93.2495C47.8387 93.262 47.3315 93.2757 46.8179 93.2906C46.302 93.2927 45.7949 93.3064 45.2964 93.3317C45.074 93.3461 44.8992 93.259 44.7719 93.0706C44.6295 92.8717 44.5674 92.6779 44.5857 92.4892C44.6097 92.2597 44.7044 92.0901 44.8695 91.9803C45.0324 91.8578 45.2186 91.7905 45.4282 91.7784C45.8626 91.7649 46.2981 91.7577 46.7349 91.7569C47.1693 91.7433 47.61 91.7286 48.0572 91.7127C48.0327 91.651 48.0086 91.5561 47.9851 91.428C47.7734 90.2754 47.5577 89.1368 47.3379 88.0122C47.131 86.8852 46.9793 85.7348 46.8829 84.561C46.8708 84.3514 46.9148 84.158 47.0146 83.9808C47.1273 83.8013 47.2924 83.6915 47.5102 83.6515C47.7023 83.6163 47.8957 83.6602 48.0904 83.7833C48.2979 83.904 48.4076 84.0692 48.4197 84.2788C48.5174 85.5318 48.678 86.7666 48.9014 87.9832C49.1353 89.1847 49.3791 90.4042 49.6328 91.6417C49.9449 91.6109 50.257 91.5801 50.569 91.5492C50.8787 91.5056 51.1873 91.4556 51.4946 91.3991Z" fill="black"/>
<path d="M39.332 88.9662C39.3096 88.1231 39.459 87.3146 39.7802 86.5407C40.1142 85.7645 40.562 85.0666 41.1234 84.4472C41.4407 84.0845 41.7972 83.827 42.1929 83.6749C42.5886 83.5228 43.0265 83.5285 43.5066 83.6918C43.8748 83.8228 44.2454 83.9665 44.6184 84.1231C45.0042 84.2773 45.3248 84.5097 45.5804 84.8202C45.7485 85.0144 45.8117 85.2146 45.7702 85.4208C45.7263 85.6142 45.6305 85.7774 45.4828 85.9104C45.3328 86.0307 45.153 86.0968 44.9434 86.1088C44.7465 86.1185 44.5705 86.025 44.4153 85.8285C44.3301 85.725 44.2228 85.6454 44.0934 85.5897C43.9617 85.5212 43.8387 85.4644 43.7245 85.4192C43.5975 85.3763 43.4541 85.3166 43.2945 85.24C43.1348 85.1634 42.9821 85.1252 42.8366 85.1255C42.7142 85.1082 42.6013 85.1422 42.4978 85.2274C42.392 85.2998 42.2908 85.3978 42.1944 85.5214C42.1084 85.6299 42.0248 85.7512 41.9435 85.8852C41.8726 86.0042 41.8059 86.1091 41.7431 86.2001C41.3715 86.7714 41.1157 87.3611 40.9759 87.9693C40.8488 88.5751 40.854 89.2162 40.9915 89.8926C41.089 90.3513 41.2121 90.8053 41.3608 91.2546C41.7275 91.1608 42.0941 91.067 42.4608 90.9731C42.8403 90.877 43.2134 90.782 43.5801 90.6882C43.7931 90.6226 43.9853 90.6601 44.1568 90.8007C44.341 90.939 44.452 91.1105 44.4896 91.3154C44.5296 91.5332 44.4857 91.7266 44.3579 91.8957C44.2405 92.0496 44.0742 92.153 43.8588 92.2058C43.5305 92.2925 43.1959 92.3805 42.8548 92.4696C42.5265 92.5563 42.1982 92.6431 41.87 92.7299C41.9484 92.9405 42.0268 93.1512 42.1052 93.3618C42.1836 93.5725 42.262 93.7831 42.3404 93.9938C42.6611 94.8749 42.9794 95.7431 43.2953 96.5985C43.6241 97.4516 43.9116 98.3321 44.1577 99.2401C44.2233 99.4531 44.1858 99.6454 44.0452 99.8168C43.9069 100.001 43.7354 100.112 43.5305 100.15C43.3127 100.19 43.1193 100.146 42.9502 100.018C42.7963 99.9005 42.6865 99.7353 42.6209 99.5223C42.356 98.5119 42.0369 97.5313 41.6637 96.5805C41.2881 95.6168 40.9254 94.6508 40.5754 93.6825C40.531 93.5847 40.493 93.4858 40.4614 93.3857C40.4426 93.2832 40.4109 93.1831 40.3665 93.0854C39.9998 93.1792 39.6255 93.2678 39.2437 93.3512C38.8747 93.4322 38.498 93.508 38.1138 93.5785C37.8705 93.6232 37.6771 93.5793 37.5336 93.4468C37.375 93.3038 37.278 93.1363 37.2427 92.9442C37.2075 92.7521 37.2397 92.5674 37.3396 92.3902C37.4243 92.2026 37.5883 92.0864 37.8316 92.0417C38.5104 91.9171 39.1856 91.7732 39.8573 91.6101C39.7109 91.1737 39.5914 90.7389 39.4986 90.3058C39.4058 89.8727 39.3503 89.4262 39.332 88.9662Z" fill="black"/>
<path d="M33.0616 92.5602C33.462 92.4337 33.8887 92.3421 34.3417 92.2854C34.7922 92.2159 35.2354 92.2139 35.6711 92.2795C36.1044 92.3324 36.5122 92.4626 36.8946 92.6704C37.277 92.8782 37.5978 93.1834 37.857 93.5859C38.0415 93.8697 38.1632 94.1717 38.222 94.4919C38.2912 94.7969 38.3017 95.1061 38.2533 95.4195C38.2154 95.7177 38.1251 96.0189 37.9824 96.3231C37.8502 96.6122 37.6824 96.8879 37.479 97.1503C37.041 97.7206 36.5387 98.2298 35.9724 98.678C35.406 99.1262 34.7935 99.5035 34.1348 99.8098C33.8544 99.9407 33.56 100.068 33.2516 100.19C32.9536 100.298 32.6446 100.381 32.3244 100.44C32.0042 100.499 31.6846 100.525 31.3655 100.517C31.044 100.497 30.7335 100.428 30.434 100.311C30.2207 100.231 30.0772 100.098 30.0035 99.9132C29.8867 99.7096 29.7658 99.52 29.6409 99.3443C29.516 99.1687 29.3899 98.9866 29.2626 98.7982C29.1481 98.6074 29.0465 98.4143 28.9576 98.2188C28.8688 98.0233 28.8043 97.8166 28.7644 97.5989C28.6844 97.1635 28.6988 96.7372 28.8075 96.3201C28.9267 95.8878 29.1193 95.495 29.3854 95.1417C29.8292 94.5306 30.3751 94.0067 31.023 93.57C31.6709 93.1333 32.3505 92.7967 33.0616 92.5602ZM35.5358 93.8136C35.1665 93.749 34.7833 93.7532 34.3863 93.8261C33.9613 93.8909 33.5469 94.0133 33.1431 94.1934C32.737 94.3607 32.3571 94.5628 32.0035 94.7999C31.6707 95.0066 31.3358 95.2733 30.9986 95.6C30.6719 95.9115 30.4519 96.263 30.3384 96.6546C30.2713 96.8655 30.2565 97.0734 30.2941 97.2783C30.3422 97.468 30.4107 97.6607 30.4995 97.8562C30.5988 98.0365 30.7121 98.2209 30.8394 98.4093C30.9771 98.5826 31.1021 98.7583 31.2142 98.9362C31.4285 98.9498 31.5613 98.9519 31.6125 98.9425C31.6405 98.9506 31.6736 98.9512 31.7121 98.9441C31.7505 98.937 31.7825 98.9312 31.8081 98.9265C32.069 98.905 32.2983 98.8563 32.4961 98.7802C32.637 98.7544 32.8116 98.6958 33.0199 98.6046C33.3411 98.4794 33.646 98.3374 33.9346 98.1785C34.2207 98.0068 34.4802 97.8334 34.7128 97.6583C34.9815 97.4633 35.2414 97.2567 35.4926 97.0385C35.7437 96.8203 35.9489 96.6039 36.1081 96.3893C36.215 96.2505 36.3143 96.1065 36.406 95.9573C36.4583 95.8815 36.4937 95.822 36.5123 95.7789C36.5598 95.6775 36.5993 95.6041 36.6307 95.5586C36.6597 95.5003 36.6811 95.4368 36.695 95.3681C36.7297 95.269 36.7424 95.1939 36.733 95.1426C36.7411 95.1147 36.7416 95.0815 36.7346 95.0431C36.7403 95.0023 36.7473 94.9679 36.7554 94.94L36.7166 94.7286C36.6943 94.6798 36.6809 94.6425 36.6762 94.6169C36.6715 94.5913 36.6604 94.5669 36.6429 94.5436C36.588 94.461 36.5378 94.404 36.4923 94.3727C36.4573 94.3261 36.4159 94.2808 36.368 94.2366C36.3832 94.2471 36.3605 94.2314 36.2998 94.1896C36.252 94.1454 36.2205 94.1181 36.2054 94.1076L36.0235 93.9822C35.9524 93.9555 35.8737 93.9236 35.7874 93.8865C35.7012 93.8494 35.6173 93.8251 35.5358 93.8136Z" fill="black"/>
<path d="M117.21 128.558C117.379 128.664 117.508 128.821 117.598 129.03C117.687 129.239 117.699 129.434 117.633 129.616C117.553 129.837 117.422 129.999 117.239 130.102C117.095 130.257 116.912 130.327 116.691 130.313C116.469 130.311 116.288 130.238 116.145 130.094C115.951 129.937 115.828 129.806 115.777 129.701C115.674 129.518 115.643 129.336 115.683 129.154C115.736 128.972 115.841 128.816 115.998 128.687C116.025 128.661 116.057 128.635 116.097 128.61C116.136 128.571 116.175 128.538 116.214 128.513C116.332 128.461 116.397 128.436 116.41 128.436C116.436 128.436 116.514 128.423 116.645 128.398C116.749 128.399 116.827 128.413 116.879 128.439C117.009 128.466 117.119 128.506 117.21 128.558Z" fill="black"/>
<path d="M114.646 129.42C114.54 129.602 114.377 129.724 114.155 129.788C113.946 129.852 113.751 129.818 113.57 129.686C113.22 129.424 112.883 129.154 112.559 128.879C112.236 128.59 111.886 128.334 111.51 128.11C111.173 127.899 110.835 127.708 110.498 127.537C110.161 127.352 109.836 127.142 109.526 126.905C109.15 126.616 108.8 126.302 108.477 125.961C108.46 126.612 108.462 127.263 108.484 127.914C108.505 128.552 108.54 129.197 108.588 129.848C108.612 130.07 108.54 130.252 108.369 130.394C108.199 130.549 108.016 130.626 107.821 130.625C107.587 130.623 107.405 130.544 107.276 130.387C107.146 130.242 107.07 130.06 107.045 129.838C106.973 128.9 106.934 127.982 106.927 127.083C106.92 126.172 106.945 125.254 107.004 124.33C106.9 124.186 106.797 124.042 106.694 123.898C106.591 123.741 106.494 123.584 106.404 123.427C106.327 123.271 106.295 123.121 106.309 122.978C106.336 122.835 106.389 122.711 106.468 122.608C106.56 122.504 106.665 122.42 106.782 122.356C106.913 122.292 107.05 122.266 107.193 122.28C107.221 121.981 107.256 121.682 107.297 121.383C107.338 121.07 107.379 120.765 107.42 120.465C107.46 120.257 107.494 120.056 107.522 119.861C107.562 119.653 107.596 119.444 107.623 119.236C107.65 119.132 107.664 119.035 107.664 118.944C107.678 118.853 107.698 118.755 107.725 118.651C107.725 118.599 107.739 118.534 107.765 118.456C107.779 118.287 107.787 118.124 107.788 117.968C107.789 117.799 107.797 117.629 107.811 117.46C107.825 117.252 107.846 117.031 107.874 116.796C107.915 116.549 107.968 116.315 108.035 116.094C108.115 115.861 108.22 115.646 108.352 115.452C108.483 115.258 108.66 115.109 108.882 115.006C109.091 114.917 109.3 114.866 109.508 114.854C109.729 114.843 109.944 114.857 110.152 114.898C110.373 114.938 110.588 114.998 110.796 115.078C111.004 115.144 111.205 115.217 111.4 115.296C111.854 115.469 112.302 115.667 112.743 115.891C113.198 116.103 113.6 116.379 113.949 116.72C114.285 117.061 114.575 117.466 114.82 117.936C115.064 118.394 115.172 118.87 115.142 119.364C115.114 119.664 115.047 119.93 114.942 120.164C114.849 120.385 114.717 120.612 114.546 120.845C114.126 121.428 113.673 121.985 113.188 122.516C112.702 123.046 112.185 123.531 111.635 123.97C111.373 124.177 111.085 124.383 110.771 124.589C110.471 124.796 110.15 124.969 109.811 125.11C109.927 125.215 110.044 125.32 110.16 125.425C110.277 125.53 110.4 125.622 110.53 125.701C110.867 125.925 111.204 126.135 111.541 126.333C111.891 126.517 112.229 126.722 112.553 126.945C112.864 127.168 113.168 127.405 113.466 127.654C113.764 127.904 114.062 128.14 114.36 128.363C114.541 128.482 114.657 128.639 114.708 128.834C114.772 129.03 114.751 129.225 114.646 129.42ZM109.411 123.584C109.725 123.417 110.006 123.243 110.254 123.062C110.516 122.869 110.771 122.662 111.02 122.443C111.282 122.21 111.538 121.964 111.787 121.705C112.036 121.447 112.278 121.188 112.515 120.929C112.606 120.812 112.692 120.709 112.771 120.618C112.849 120.528 112.921 120.443 112.987 120.366C113.053 120.275 113.118 120.184 113.184 120.094C113.263 119.99 113.342 119.873 113.421 119.744C113.447 119.705 113.474 119.666 113.5 119.627C113.526 119.588 113.552 119.549 113.579 119.51C113.594 119.146 113.518 118.807 113.351 118.493C113.132 118.114 112.854 117.806 112.517 117.57C112.193 117.333 111.83 117.135 111.428 116.976C111.194 116.871 110.96 116.778 110.726 116.698C110.492 116.619 110.246 116.545 109.986 116.479C109.921 116.452 109.823 116.425 109.693 116.398C109.615 116.424 109.562 116.463 109.536 116.515C109.483 116.684 109.456 116.801 109.456 116.866C109.442 116.905 109.422 116.976 109.396 117.08C109.382 117.21 109.368 117.314 109.354 117.392C109.354 117.457 109.354 117.529 109.353 117.607C109.308 118.505 109.204 119.39 109.042 120.261C108.893 121.133 108.77 122.017 108.673 122.915C108.646 123.058 108.626 123.208 108.612 123.364C108.611 123.507 108.603 123.65 108.589 123.794C108.706 123.807 108.771 123.808 108.784 123.795C108.928 123.77 109.039 123.745 109.117 123.719C109.208 123.681 109.306 123.636 109.411 123.584Z" fill="black"/>
<path d="M96.9868 118.033C96.7269 117.953 96.5717 117.783 96.5214 117.522C96.4575 117.339 96.4783 117.144 96.5839 116.936C96.6895 116.716 96.8531 116.593 97.0746 116.569C98.3389 116.382 99.6026 116.286 100.866 116.281C102.142 116.264 103.418 116.253 104.694 116.248C104.942 116.25 105.13 116.329 105.259 116.486C105.388 116.643 105.452 116.82 105.451 117.015C105.449 117.21 105.383 117.392 105.252 117.561C105.121 117.716 104.931 117.793 104.684 117.791C103.668 117.81 102.646 117.817 101.617 117.81C100.589 117.803 99.5597 117.848 98.5303 117.945C98.5529 118.466 98.582 118.988 98.6176 119.509C98.6533 120.017 98.6889 120.531 98.7245 121.052C99.7144 121.007 100.698 120.948 101.675 120.877C102.665 120.805 103.655 120.799 104.644 120.857C104.891 120.872 105.079 120.964 105.208 121.135C105.338 121.305 105.401 121.487 105.4 121.683C105.399 121.878 105.333 122.053 105.201 122.209C105.07 122.364 104.881 122.434 104.634 122.42C103.657 122.361 102.687 122.368 101.723 122.439C100.772 122.511 99.8082 122.57 98.8313 122.616C98.9032 123.554 98.9685 124.492 99.0274 125.429C99.0994 126.354 99.1453 127.286 99.1651 128.223C99.6215 128.122 100.084 128.028 100.554 127.94C101.023 127.839 101.492 127.764 101.961 127.715C102.431 127.653 102.9 127.623 103.368 127.626C103.837 127.629 104.306 127.672 104.774 127.753C104.982 127.793 105.137 127.918 105.24 128.127C105.343 128.336 105.368 128.532 105.314 128.714C105.248 128.934 105.123 129.09 104.94 129.18C104.757 129.27 104.555 129.294 104.334 129.254C103.918 129.173 103.495 129.144 103.065 129.167C102.635 129.191 102.212 129.233 101.795 129.296C101.312 129.371 100.83 129.458 100.348 129.559C99.8782 129.66 99.4087 129.768 98.9392 129.882C98.7175 129.933 98.5094 129.892 98.315 129.761C98.1329 129.733 97.9706 129.661 97.8281 129.543C97.6857 129.424 97.6152 129.248 97.6168 129.014C97.5981 127.907 97.5533 126.813 97.4824 125.732C97.4245 124.651 97.3536 123.563 97.2697 122.468C97.1275 122.324 97.044 122.148 97.0193 121.939C97.0078 121.718 97.0676 121.53 97.1989 121.374C97.1021 120.267 97.0314 119.153 96.9868 118.033Z" fill="black"/>
<path d="M87.3364 130.059C86.9474 129.809 86.5979 129.5 86.2878 129.134C85.9777 128.767 85.707 128.368 85.4754 127.937C85.2439 127.506 85.0516 127.062 84.8984 126.605C84.7451 126.148 84.631 125.692 84.5559 125.235C84.4806 124.805 84.438 124.369 84.4279 123.926C84.4179 123.47 84.4795 123.028 84.6125 122.599C84.7189 122.261 84.8578 121.936 85.0292 121.625C85.2135 121.314 85.4108 121.016 85.6211 120.731C86.1336 120.031 86.7044 119.371 87.3335 118.75C87.9627 118.129 88.6499 117.587 89.3952 117.123C89.7352 116.904 90.088 116.711 90.4537 116.544C90.8325 116.377 91.2109 116.256 91.589 116.18C91.9801 116.105 92.3709 116.088 92.7612 116.13C93.1517 116.158 93.5416 116.265 93.931 116.45C94.1257 116.542 94.2484 116.699 94.299 116.921C94.3496 117.143 94.3222 117.338 94.2169 117.507C94.0985 117.701 93.9349 117.817 93.7263 117.855C93.5308 117.893 93.3356 117.865 93.1409 117.773C92.9203 117.667 92.6406 117.626 92.3019 117.65C92.1717 117.649 92.0087 117.674 91.8131 117.725C91.6305 117.763 91.4479 117.82 91.2651 117.897C90.8865 118.038 90.5076 118.237 90.1282 118.495C89.762 118.74 89.4152 118.998 89.0879 119.269C88.5117 119.76 87.9678 120.297 87.4561 120.88C86.9575 121.449 86.5366 122.071 86.1936 122.746C86.1539 122.837 86.114 122.974 86.0737 123.156C86.0334 123.338 86.0063 123.494 85.9924 123.624C85.9639 124.001 85.981 124.372 86.0436 124.737C86.1189 125.168 86.2202 125.598 86.3475 126.029C86.488 126.446 86.6676 126.844 86.8865 127.224C87.0925 127.576 87.331 127.93 87.6021 128.283C87.8863 128.623 88.2364 128.847 88.6523 128.954C89.0943 129.074 89.5501 129.051 90.02 128.885C90.1244 128.847 90.2224 128.808 90.3138 128.77C90.4052 128.718 90.5032 128.667 90.6078 128.616C90.647 128.59 90.6862 128.564 90.7255 128.538C90.7647 128.512 90.8039 128.487 90.8432 128.461C91.1444 128.202 91.4131 127.931 91.6494 127.646C91.8857 127.361 92.109 127.063 92.3194 126.752C92.4248 126.57 92.5302 126.389 92.6356 126.207C92.754 126.013 92.8464 125.824 92.9128 125.643C92.979 125.474 93.0321 125.324 93.072 125.194C93.112 125.051 93.1325 124.908 93.1334 124.765C93.0036 124.712 92.8736 124.685 92.7433 124.684C92.6131 124.683 92.4764 124.683 92.3332 124.682C91.9685 124.692 91.6038 124.716 91.239 124.752C90.8871 124.789 90.5224 124.806 90.1448 124.804C89.8974 124.802 89.7092 124.723 89.58 124.566C89.4639 124.396 89.4066 124.213 89.4079 124.018C89.4092 123.822 89.4689 123.647 89.5872 123.491C89.7184 123.336 89.9077 123.259 90.1551 123.261C90.5067 123.263 90.8583 123.246 91.2102 123.209C91.562 123.173 91.9137 123.149 92.2653 123.138C92.617 123.127 92.9619 123.143 93.3002 123.184C93.6385 123.225 93.9764 123.319 94.314 123.464C94.6517 123.597 94.9366 123.833 95.1687 124.173C95.3104 124.395 95.3674 124.643 95.3395 124.916C95.3247 125.19 95.3164 125.457 95.3147 125.717C95.2849 126.277 95.2616 126.837 95.2449 127.396C95.2412 127.943 95.2311 128.49 95.2144 129.037C95.2127 129.297 95.1268 129.492 94.9566 129.621C94.7866 129.737 94.6039 129.795 94.4086 129.793C94.2133 129.792 94.0379 129.732 93.8824 129.614C93.7271 129.483 93.6502 129.287 93.652 129.026C93.6667 128.766 93.675 128.506 93.6767 128.245C93.6784 127.985 93.6867 127.725 93.7014 127.464C93.3198 128.061 92.893 128.611 92.4209 129.116C92.1061 129.452 91.7396 129.736 91.3214 129.968C90.9031 130.213 90.4658 130.385 90.0094 130.487C89.566 130.588 89.1101 130.611 88.6417 130.556C88.1733 130.5 87.7382 130.335 87.3364 130.059Z" fill="black"/>
<path d="M75.2468 118.201C75.221 118.174 75.1951 118.148 75.1692 118.122C75.1564 118.096 75.137 118.07 75.1112 118.043C74.956 117.886 74.8789 117.723 74.88 117.554C74.8943 117.371 74.9474 117.216 75.0394 117.086C75.1445 116.943 75.2754 116.84 75.4321 116.776C75.6019 116.699 75.7712 116.694 75.94 116.76C76.1485 116.735 76.3435 116.789 76.5249 116.92C76.7195 117.039 76.8158 117.234 76.814 117.508C77.4728 118.307 78.0925 119.092 78.6733 119.864C79.2542 120.636 79.7826 121.454 80.2586 122.316C80.4774 122.708 80.6765 123.113 80.856 123.531C81.0486 123.936 81.2282 124.347 81.3947 124.765C81.3982 124.231 81.4213 123.704 81.4638 123.184C81.5194 122.663 81.5815 122.13 81.6503 121.583C81.8009 120.464 81.9451 119.352 82.0826 118.246C82.2333 117.127 82.319 115.995 82.3396 114.849C82.3413 114.602 82.4206 114.42 82.5776 114.304C82.7478 114.175 82.9305 114.111 83.1258 114.112C83.3211 114.114 83.4964 114.18 83.6518 114.311C83.8203 114.429 83.9037 114.612 83.9021 114.86C83.8813 116.031 83.7889 117.19 83.625 118.335C83.4743 119.466 83.3235 120.605 83.1726 121.75C83.1036 122.335 83.0477 122.914 83.0048 123.487C82.962 124.046 82.9452 124.619 82.9543 125.205C82.9636 125.765 82.9729 126.319 82.9823 126.866C83.0047 127.413 83.001 127.966 82.9713 128.526C82.9569 128.721 82.8908 128.883 82.7727 129.013C82.6678 129.129 82.537 129.206 82.3805 129.244C82.224 129.282 82.0678 129.275 81.9119 129.222C81.756 129.169 81.6265 129.064 81.5234 128.907C81.2269 128.449 80.9762 127.972 80.7712 127.476C80.5662 126.967 80.3742 126.464 80.1953 125.968C80.0162 125.485 79.8305 125.022 79.6381 124.578C79.4458 124.121 79.2275 123.67 78.983 123.226C78.6614 122.638 78.3136 122.075 77.9395 121.539C77.5785 121.003 77.1914 120.479 76.7781 119.969C76.7745 120.503 76.771 121.03 76.7675 121.551C76.7642 122.058 76.7737 122.579 76.7962 123.113C76.816 124.051 76.8749 124.982 76.9729 125.908C77.071 126.82 77.1756 127.738 77.2866 128.664C77.3112 128.885 77.2318 129.073 77.0485 129.228C76.8783 129.371 76.702 129.441 76.5197 129.44C76.2854 129.438 76.1035 129.365 75.9743 129.221C75.8451 129.064 75.7683 128.875 75.7437 128.653C75.6196 127.728 75.5086 126.809 75.4105 125.897C75.3125 124.972 75.2535 124.041 75.2337 123.103C75.2132 122.283 75.2056 121.469 75.2109 120.661C75.2294 119.841 75.2414 119.021 75.2468 118.201Z" fill="black"/>
<path d="M65.6802 129.329C65.6786 129.576 65.5927 129.758 65.4227 129.874C65.2656 130.003 65.0894 130.067 64.8941 130.066C64.6988 130.064 64.5234 129.998 64.368 129.867C64.2126 129.748 64.1357 129.566 64.1373 129.318C64.1441 128.303 64.2677 127.327 64.5084 126.391C64.749 125.455 65.0481 124.526 65.4058 123.604C65.3158 123.434 65.291 123.245 65.3315 123.037C65.4114 122.764 65.5818 122.596 65.8427 122.533C66.1072 121.909 66.3783 121.293 66.6558 120.682C66.9464 120.059 67.224 119.436 67.4885 118.813C67.7531 118.19 67.9982 117.56 68.2238 116.923C68.4494 116.287 68.636 115.637 68.7837 114.974C68.824 114.779 68.9033 114.61 69.0214 114.468C69.1526 114.325 69.3288 114.255 69.5502 114.256C69.7585 114.258 69.9468 114.337 70.115 114.494C70.2833 114.639 70.3537 114.822 70.3262 115.043C70.2821 115.798 70.2905 116.494 70.3514 117.133C70.4123 117.758 70.5058 118.384 70.6318 119.01C70.758 119.623 70.8971 120.242 71.0492 120.868C71.2144 121.481 71.3665 122.094 71.5057 122.707C71.645 123.294 71.7713 123.881 71.8846 124.467C71.9979 125.054 72.1829 125.622 72.4397 126.17C72.5681 126.445 72.703 126.712 72.8445 126.974C72.9861 127.222 73.1406 127.477 73.3082 127.739C73.4629 127.974 73.6044 128.222 73.7329 128.484C73.8615 128.732 73.9508 129.006 74.0009 129.306C74.0255 129.514 73.9917 129.709 73.8993 129.891C73.82 130.073 73.6694 130.196 73.4477 130.259C73.265 130.31 73.0699 130.283 72.8622 130.177C72.6546 130.072 72.532 129.915 72.4943 129.706C72.4442 129.406 72.3418 129.139 72.1871 128.903C72.0455 128.668 71.8973 128.426 71.7427 128.177C71.5623 127.89 71.395 127.602 71.2406 127.315C71.0994 127.014 70.9712 126.707 70.8561 126.394C70.7281 126.068 70.6196 125.742 70.5306 125.415C70.4417 125.076 70.3593 124.737 70.2835 124.398C69.6978 124.355 69.1186 124.325 68.5457 124.308C67.986 124.279 67.4199 124.229 66.8475 124.16C66.5294 124.992 66.2569 125.836 66.0298 126.694C65.8158 127.552 65.6992 128.43 65.6802 129.329ZM67.5622 122.427C67.5359 122.466 67.516 122.511 67.5027 122.563C67.5024 122.602 67.4891 122.641 67.4628 122.68C67.8792 122.722 68.2892 122.751 68.6927 122.766C69.0964 122.769 69.5064 122.785 69.9229 122.814C69.7838 122.188 69.6317 121.568 69.4665 120.955C69.3144 120.329 69.1754 119.697 69.0495 119.058C68.8113 119.629 68.5666 120.194 68.3155 120.752C68.0645 121.297 67.8134 121.856 67.5622 122.427Z" fill="black"/>
</svg>
