<svg width="405" height="514" viewBox="0 0 405 514" fill="none" xmlns="http://www.w3.org/2000/svg">
<g clip-path="url(#clip0_3621_11123)">
<rect x="4.01904" y="4" width="400" height="510" fill="#BABABA" fill-opacity="0.4"/>
<rect x="0.019043" width="400" height="510" fill="white"/>
<circle cx="25.019" cy="57" r="9" fill="#BABABA" fill-opacity="0.4"/>
<path d="M25.019 66.0002C29.9896 66.0002 34.019 61.9708 34.019 57.0002C34.019 55.5463 33.6743 54.1729 33.062 52.9573C31.8464 52.345 30.473 52.0002 29.019 52.0002C24.0485 52.0002 20.019 56.0297 20.019 61.0002C20.019 62.4542 20.3638 63.8276 20.9761 65.0432C22.1917 65.6555 23.5651 66.0002 25.019 66.0002Z" fill="#FFEDD5"/>
<circle cx="25.019" cy="123" r="9" fill="#BABABA" fill-opacity="0.4"/>
<path d="M25.019 132C29.9896 132 34.019 127.971 34.019 123C34.019 121.546 33.6743 120.173 33.062 118.957C31.8464 118.345 30.473 118 29.019 118C24.0485 118 20.019 122.03 20.019 127C20.019 128.454 20.3638 129.828 20.9761 131.043C22.1917 131.655 23.5651 132 25.019 132Z" fill="#FFEDD5"/>
<circle cx="25.019" cy="189" r="9" fill="#BABABA" fill-opacity="0.4"/>
<path d="M25.019 198C29.9896 198 34.019 193.971 34.019 189C34.019 187.546 33.6743 186.173 33.062 184.957C31.8464 184.345 30.473 184 29.019 184C24.0485 184 20.019 188.03 20.019 193C20.019 194.454 20.3638 195.828 20.9761 197.043C22.1917 197.655 23.5651 198 25.019 198Z" fill="#FFEDD5"/>
<circle cx="25.019" cy="255" r="9" fill="#BABABA" fill-opacity="0.4"/>
<path d="M25.019 264C29.9896 264 34.019 259.971 34.019 255C34.019 253.546 33.6743 252.173 33.062 250.957C31.8464 250.345 30.473 250 29.019 250C24.0485 250 20.019 254.03 20.019 259C20.019 260.454 20.3638 261.828 20.9761 263.043C22.1917 263.655 23.5651 264 25.019 264Z" fill="#FFEDD5"/>
<circle cx="25.019" cy="321" r="9" fill="#BABABA" fill-opacity="0.4"/>
<path d="M25.019 330C29.9896 330 34.019 325.971 34.019 321C34.019 319.546 33.6743 318.173 33.062 316.957C31.8464 316.345 30.473 316 29.019 316C24.0485 316 20.019 320.03 20.019 325C20.019 326.454 20.3638 327.828 20.9761 329.043C22.1917 329.655 23.5651 330 25.019 330Z" fill="#FFEDD5"/>
<circle cx="25.019" cy="387" r="9" fill="#BABABA" fill-opacity="0.4"/>
<path d="M25.019 396C29.9896 396 34.019 391.971 34.019 387C34.019 385.546 33.6743 384.173 33.062 382.957C31.8464 382.345 30.473 382 29.019 382C24.0485 382 20.019 386.03 20.019 391C20.019 392.454 20.3638 393.828 20.9761 395.043C22.1917 395.655 23.5651 396 25.019 396Z" fill="#FFEDD5"/>
<circle cx="25.019" cy="453" r="9" fill="#BABABA" fill-opacity="0.4"/>
<path d="M25.019 462C29.9896 462 34.019 457.971 34.019 453C34.019 451.546 33.6743 450.173 33.062 448.957C31.8464 448.345 30.473 448 29.019 448C24.0485 448 20.019 452.03 20.019 457C20.019 458.454 20.3638 459.828 20.9761 461.043C22.1917 461.655 23.5651 462 25.019 462Z" fill="#FFEDD5"/>
<path d="M54.019 30H384.019" stroke="#DEDEDC"/>
<path d="M54.019 55H384.019" stroke="#DEDEDC"/>
<path d="M54.019 80H384.019" stroke="#DEDEDC"/>
<path d="M54.019 105H384.019" stroke="#DEDEDC"/>
<path d="M54.019 130H384.019" stroke="#DEDEDC"/>
<path d="M54.019 155H384.019" stroke="#DEDEDC"/>
<path d="M54.019 180H384.019" stroke="#DEDEDC"/>
<path d="M54.019 205H384.019" stroke="#DEDEDC"/>
<path d="M54.019 230H384.019" stroke="#DEDEDC"/>
<path d="M54.019 255H384.019" stroke="#DEDEDC"/>
<path d="M54.019 280H384.019" stroke="#DEDEDC"/>
<path d="M54.019 305H384.019" stroke="#DEDEDC"/>
<path d="M54.019 330H384.019" stroke="#DEDEDC"/>
<path d="M54.019 355H384.019" stroke="#DEDEDC"/>
<path d="M54.019 380H384.019" stroke="#DEDEDC"/>
<path d="M54.019 405H384.019" stroke="#DEDEDC"/>
<path d="M54.019 430H384.019" stroke="#DEDEDC"/>
<path d="M54.019 455H384.019" stroke="#DEDEDC"/>
<path d="M54.019 480H384.019" stroke="#DEDEDC"/>
</g>
<defs>
<clipPath id="clip0_3621_11123">
<rect width="404" height="514" fill="white" transform="translate(0.019043)"/>
</clipPath>
</defs>
</svg>
