<svg width="30" height="30" viewBox="0 0 30 30" fill="none" xmlns="http://www.w3.org/2000/svg">
<path fill-rule="evenodd" clip-rule="evenodd" d="M15 29.5C23.0081 29.5 29.5 23.0081 29.5 15C29.5 6.99187 23.0081 0.5 15 0.5C6.99187 0.5 0.5 6.99187 0.5 15C0.5 23.0081 6.99187 29.5 15 29.5ZM15 23.2857C19.5761 23.2857 23.2857 19.5761 23.2857 15C23.2857 10.4239 19.5761 6.71429 15 6.71429C10.4239 6.71429 6.71427 10.4239 6.71427 15C6.71427 19.5761 10.4239 23.2857 15 23.2857Z" fill="black"/>
<path d="M29 15C29 22.732 22.732 29 15 29V30C23.2843 30 30 23.2843 30 15H29ZM15 1C22.732 1 29 7.26801 29 15H30C30 6.71573 23.2843 0 15 0V1ZM1 15C1 7.26801 7.26801 1 15 1V0C6.71573 0 0 6.71573 0 15H1ZM15 29C7.26801 29 1 22.732 1 15H0C0 23.2843 6.71573 30 15 30V29ZM22.7857 15C22.7857 19.2999 19.2999 22.7857 15 22.7857V23.7857C19.8522 23.7857 23.7857 19.8522 23.7857 15H22.7857ZM15 7.21429C19.2999 7.21429 22.7857 10.7001 22.7857 15H23.7857C23.7857 10.1478 19.8522 6.21429 15 6.21429V7.21429ZM7.21427 15C7.21427 10.7001 10.7001 7.21429 15 7.21429V6.21429C10.1478 6.21429 6.21427 10.1478 6.21427 15H7.21427ZM15 22.7857C10.7001 22.7857 7.21427 19.2999 7.21427 15H6.21427C6.21427 19.8522 10.1478 23.7857 15 23.7857V22.7857Z" fill="#505050"/>
</svg>
