<svg width="18" height="18" viewBox="0 0 18 18" fill="none" xmlns="http://www.w3.org/2000/svg">
<path fill-rule="evenodd" clip-rule="evenodd" d="M2 1C1.44772 1 1 1.44771 1 2V11C1 11.5523 1.44771 12 2 12H6.01894C6.2617 8.8088 8.8088 6.2617 12 6.01894V2C12 1.44772 11.5523 1 11 1H2Z" fill="#878787"/>
<path fill-rule="evenodd" clip-rule="evenodd" d="M7.02246 13C7.27508 15.8033 9.63102 18 12.5 18C15.5376 18 18 15.5376 18 12.5C18 9.63102 15.8033 7.27508 13 7.02246V11C13 12.1046 12.1046 13 11 13H7.02246Z" fill="#878787"/>
<path fill-rule="evenodd" clip-rule="evenodd" d="M12 7.02246V11C12 11.5523 11.5523 12 11 12H7.02246C7.26024 9.36147 9.36147 7.26024 12 7.02246Z" fill="#0099FF"/>
</svg>
