<svg width="18" height="18" viewBox="0 0 18 18" fill="none" xmlns="http://www.w3.org/2000/svg">
<circle cx="9" cy="9" r="7.2" stroke="white" stroke-width="1.6"/>
<path d="M11.2 9C11.2 11.1386 10.8736 13.0391 10.3723 14.376C10.1205 15.0473 9.84001 15.5351 9.56913 15.8406C9.29743 16.147 9.10327 16.2 9 16.2C8.89673 16.2 8.70257 16.147 8.43087 15.8406C8.15999 15.5351 7.87951 15.0473 7.62774 14.376C7.12643 13.0391 6.8 11.1386 6.8 9C6.8 6.86139 7.12643 4.96089 7.62774 3.62404C7.87951 2.95267 8.15999 2.46493 8.43087 2.1594C8.70257 1.85295 8.89673 1.8 9 1.8C9.10327 1.8 9.29743 1.85295 9.56913 2.1594C9.84001 2.46493 10.1205 2.95267 10.3723 3.62404C10.8736 4.96089 11.2 6.86139 11.2 9Z" stroke="white" stroke-width="1.6"/>
<path d="M16 9H2" stroke="white" stroke-width="1.6"/>
</svg>
