<svg width="18" height="18" viewBox="0 0 18 18" fill="none" xmlns="http://www.w3.org/2000/svg">
<circle cx="9" cy="3" r="2" fill="white"/>
<circle cx="9" cy="15" r="2" fill="white"/>
<circle cx="14.1962" cy="5.99963" r="2" transform="rotate(60 14.1962 5.99963)" fill="white"/>
<circle cx="3.80384" cy="11.9996" r="2" transform="rotate(60 3.80384 11.9996)" fill="white"/>
<circle cx="3.80383" cy="6.00037" r="2" transform="rotate(-60 3.80383 6.00037)" fill="white"/>
<circle cx="14.1962" cy="12.0004" r="2" transform="rotate(-60 14.1962 12.0004)" fill="white"/>
<path fill-rule="evenodd" clip-rule="evenodd" d="M15.0622 5.5L9.00004 2L2.93787 5.5V12.5L9.00004 16L15.0622 12.5V5.5ZM9.00004 12C10.6569 12 12 10.6569 12 9C12 7.34315 10.6569 6 9.00004 6C7.34319 6 6.00004 7.34315 6.00004 9C6.00004 10.6569 7.34319 12 9.00004 12Z" fill="white"/>
</svg>
