<svg width="18" height="18" viewBox="0 0 18 18" fill="none" xmlns="http://www.w3.org/2000/svg">
<path fill-rule="evenodd" clip-rule="evenodd" d="M2 1C1.44772 1 1 1.44771 1 2V11C1 11.5523 1.44771 12 2 12H6.01894C6.2617 8.8088 8.8088 6.2617 12 6.01894V2C12 1.44772 11.5523 1 11 1H2Z" fill="#0099FF"/>
<path fill-rule="evenodd" clip-rule="evenodd" d="M12.5 18C15.5376 18 18 15.5376 18 12.5C18 9.46243 15.5376 7 12.5 7C9.46243 7 7 9.46243 7 12.5C7 15.5376 9.46243 18 12.5 18ZM15 12H10V13H15V12Z" fill="#878787"/>
</svg>
