<svg width="250" height="250" viewBox="0 0 250 250" fill="none" xmlns="http://www.w3.org/2000/svg">
<g clip-path="url(#clip0_2502_39370)">
<path d="M83.4011 250H0.0189448C0.00639146 249.835 0 249.668 0 249.5C0 245.91 2.91015 243 6.5 243C8.45191 243 10.2029 243.86 11.3943 245.223C12.5515 244.464 13.931 244.017 15.4139 244C16.7196 239.383 20.9647 236 26 236C26.567 236 27.1239 236.043 27.6678 236.126C29.7932 228.553 36.7481 223 45 223C48.52 223 51.8041 224.01 54.5779 225.757C57.1561 224.627 60.0048 224 63 224C74.598 224 84 233.402 84 245C84 246.723 83.7925 248.398 83.4011 250Z" fill="#7EC487"/>
<path d="M249.987 250H117.828C116.649 247.064 116 243.858 116 240.5C116 226.417 127.417 215 141.5 215C147.82 215 153.602 217.299 158.057 221.106C160.748 219.758 163.786 219 167 219C175.145 219 182.152 223.868 185.271 230.854C188.001 228.455 191.58 227 195.5 227C202.449 227 208.331 231.573 210.298 237.875C211.585 237.312 213.006 237 214.5 237C219.025 237 222.882 239.862 224.358 243.875C225.45 243.316 226.688 243 228 243C229.667 243 231.214 243.51 232.495 244.382C234.184 241.746 237.138 240 240.5 240C245.747 240 250 244.253 250 249.5C250 249.668 249.996 249.834 249.987 250Z" fill="#7EC487"/>
<path d="M58.7729 228.741C58.9028 227.745 59.7515 227 60.7561 227H137.244C138.249 227 139.097 227.745 139.227 228.741L142 250H56L58.7729 228.741Z" fill="#4B7790"/>
<path d="M141 243L85.0807 238.171C79.4639 237.686 75.3786 232.708 76.078 227.2L76.1034 227H137.212C138.215 227 139.062 227.736 139.186 228.716L141 243Z" fill="#779BB7"/>
<path d="M142 250L139.227 228.741C139.097 227.745 138.249 227 137.244 227H60.7561C59.7515 227 58.9028 227.745 58.7729 228.741L56 250" stroke="#27043E" stroke-width="2"/>
<path d="M72 70H126L136 227H62L72 70Z" fill="#AFC8DC"/>
<path d="M126 70H86.933L77.9417 209.583C77.4181 217.711 83.4769 224.772 91.5904 225.489L108.694 227H136L126 70Z" fill="#E2F2FF"/>
<path d="M72 70H126L136 227H62L72 70Z" stroke="#27043E" stroke-width="2"/>
<rect x="77" y="76" width="9" height="4" stroke="#27043E" stroke-width="2"/>
<rect x="67" y="208" width="9" height="4" stroke="#27043E" stroke-width="2"/>
<rect x="64" y="232" width="9" height="4" stroke="#27043E" stroke-width="2"/>
<rect x="109" y="165" width="9" height="4" stroke="#27043E" stroke-width="2"/>
<rect x="105" y="169" width="9" height="4" stroke="#27043E" stroke-width="2"/>
<rect x="83" y="80" width="9" height="4" stroke="#27043E" stroke-width="2"/>
<rect x="72" y="204" width="9" height="4" stroke="#27043E" stroke-width="2"/>
<rect x="69" y="236" width="9" height="4" stroke="#27043E" stroke-width="2"/>
<rect x="86" y="76" width="9" height="4" stroke="#27043E" stroke-width="2"/>
<rect x="73" y="232" width="9" height="4" stroke="#27043E" stroke-width="2"/>
<rect x="118" y="165" width="9" height="4" stroke="#27043E" stroke-width="2"/>
<rect x="114" y="169" width="9" height="4" stroke="#27043E" stroke-width="2"/>
<rect x="69" y="64" width="60" height="6" rx="1" fill="#4B7790" stroke="#27043E" stroke-width="2"/>
<path d="M85 67C85 65.8954 85.8954 65 87 65H128V69H87C85.8954 69 85 68.1046 85 67Z" fill="#779BB7"/>
<rect x="73" y="32" width="52" height="32" fill="#AAC4D9"/>
<path d="M125 62.5882L90.4158 58.5195C87.8977 58.2233 86 56.0892 86 53.5538V32H125V62.5882Z" fill="#E2F2FF"/>
<rect x="73" y="32" width="52" height="32" stroke="#27043E" stroke-width="2"/>
<path d="M67.9381 250H36.1659C36.0568 249.35 36 248.681 36 248C36 241.373 41.3726 236 48 236C52.1327 236 55.7774 238.089 57.9358 241.269C58.5943 241.093 59.2862 241 60 241C64.4183 241 68 244.582 68 249C68 249.339 67.979 249.672 67.9381 250Z" fill="#3BB44A"/>
<path d="M67.9381 250C67.979 249.672 68 249.339 68 249C68 244.582 64.4183 241 60 241C59.2862 241 58.5943 241.093 57.9358 241.269C55.7774 238.089 52.1327 236 48 236C41.3726 236 36 241.373 36 248C36 248.681 36.0568 249.35 36.1659 250" stroke="#27043E" stroke-width="2"/>
<path d="M174.687 250H109.299C109.104 249.199 109 248.362 109 247.5C109 241.701 113.701 237 119.5 237C122.078 237 124.439 237.929 126.267 239.471C128.355 237.33 131.272 236 134.5 236C135.947 236 137.331 236.267 138.606 236.755C141.977 230.924 148.28 227 155.5 227C166.27 227 175 235.73 175 246.5C175 247.695 174.893 248.865 174.687 250Z" fill="#61CB29"/>
<path d="M166.992 250H109.582C109.207 249.074 109 248.061 109 247C109 242.582 112.582 239 117 239C120.21 239 122.979 240.891 124.253 243.619C126.031 241.992 128.4 241 131 241C133.553 241 135.883 241.957 137.651 243.532C140.202 238.471 145.446 235 151.5 235C159.893 235 166.728 241.671 166.992 250Z" fill="#008800"/>
<path d="M175 250C175 248.5 175 247.695 175 246.5C175 235.73 166.27 227 155.5 227C148.28 227 141.977 230.924 138.606 236.755C137.331 236.267 135.947 236 134.5 236C131.272 236 128.355 237.33 126.267 239.471C124.439 237.929 122.078 237 119.5 237C113.701 237 109 241.701 109 247.5C109 248.362 109 249 109 250" stroke="#27043E" stroke-width="2"/>
<path d="M99 2C87.9543 2 79 10.9543 79 22H119C119 10.9543 110.046 2 99 2Z" fill="#AFC8DC"/>
<path d="M105.51 3.08354C105.013 3.02826 104.509 3 104 3C95.1634 3 88 11.5066 88 22H119C119 13.2336 113.36 5.78448 105.51 3.08354Z" fill="#E2F2FF"/>
<path d="M99 2C87.9543 2 79 10.9543 79 22H119C119 10.9543 110.046 2 99 2Z" stroke="#27043E" stroke-width="2"/>
<rect x="69" y="22" width="60" height="10" rx="2" fill="#4B7790" stroke="#27043E" stroke-width="2"/>
<path d="M85 27C85 24.7909 86.7909 23 89 23H127C127.552 23 128 23.4477 128 24V30C128 30.5523 127.552 31 127 31H89C86.7909 31 85 29.2091 85 27Z" fill="#779BB7"/>
<path d="M89 209C89 203.477 93.4772 199 99 199C104.523 199 109 203.477 109 209V227H89V209Z" fill="#DAB85E"/>
<path d="M93 227H109V209C109 204.162 105.564 200.127 101 199.2C96.4355 200.127 93 204.162 93 209V227Z" fill="#FFE8A4"/>
<path d="M89 209C89 203.477 93.4772 199 99 199V199C104.523 199 109 203.477 109 209V227H89V209Z" stroke="#27043E" stroke-width="2"/>
<circle cx="104" cy="215" r="2" fill="#27043E"/>
<rect x="87" y="134" width="24" height="4" rx="1" fill="#779BB7" stroke="#27043E" stroke-width="2"/>
<path d="M90 121C90 116.029 94.0294 112 99 112C103.971 112 108 116.029 108 121V134H90V121Z" fill="#4B7790" stroke="#27043E" stroke-width="2"/>
<path d="M90 128H108" stroke="#27043E" stroke-width="2"/>
<path d="M90 122H108" stroke="#27043E" stroke-width="2"/>
<path d="M99 112V134" stroke="#27043E" stroke-width="2"/>
</g>
<defs>
<clipPath id="clip0_2502_39370">
<rect width="250" height="250" fill="white"/>
</clipPath>
</defs>
</svg>
