<svg width="103" height="134" viewBox="0 0 103 134" fill="none" xmlns="http://www.w3.org/2000/svg">
<rect x="1" y="1" width="101" height="132" rx="6" fill="#E9C2AD" stroke="#0E0E0F" stroke-width="2"/>
<path d="M88 128H82M15 128H78" stroke="#FFF0DD" stroke-width="2" stroke-linecap="round"/>
<path d="M58 5L83 5M98 33V9C98 6.79086 96.2091 5 94 5H87" stroke="#FFF0DD" stroke-width="2" stroke-linecap="round"/>
<rect x="10" y="9" width="83" height="24" rx="4" fill="#FFF9ED" stroke="#0E0E0F"/>
<rect x="10" y="39" width="14" height="14" rx="2" fill="#FFF9ED" stroke="#0E0E0F"/>
<rect x="10" y="62" width="14" height="14" rx="2" fill="#E5A079" stroke="#0E0E0F"/>
<rect x="10" y="85" width="14" height="14" rx="2" fill="#FFF9ED" stroke="#0E0E0F"/>
<rect x="10" y="107" width="14" height="14" rx="2" fill="#FBDAAF" stroke="#0E0E0F"/>
<rect x="33" y="39" width="14" height="14" rx="2" fill="#FFF9ED" stroke="#0E0E0F"/>
<rect x="33" y="62" width="14" height="14" rx="2" fill="#E5A079" stroke="#0E0E0F"/>
<rect x="33" y="85" width="14" height="14" rx="2" fill="#FFF9ED" stroke="#0E0E0F"/>
<rect x="33" y="107" width="14" height="14" rx="2" fill="#FBDAAF" stroke="#0E0E0F"/>
<rect x="56" y="39" width="14" height="14" rx="2" fill="#FFF9ED" stroke="#0E0E0F"/>
<rect x="56" y="62" width="14" height="14" rx="2" fill="#E5A079" stroke="#0E0E0F"/>
<rect x="56" y="85" width="14" height="14" rx="2" fill="#FFF9ED" stroke="#0E0E0F"/>
<rect x="56" y="107" width="14" height="14" rx="2" fill="#FBDAAF" stroke="#0E0E0F"/>
<rect x="79" y="39" width="14" height="14" rx="2" fill="#FFF9ED" stroke="#0E0E0F"/>
<rect x="79" y="62" width="14" height="14" rx="2" fill="#E5A079" stroke="#0E0E0F"/>
<rect x="79" y="85" width="14" height="14" rx="2" fill="#FFF9ED" stroke="#0E0E0F"/>
<rect x="79" y="107" width="14" height="14" rx="2" fill="#FBDAAF" stroke="#0E0E0F"/>
<path d="M17.106 50.086C17.078 50.1046 17.008 50.1093 16.896 50.1C16.7933 50.0906 16.6813 50.0626 16.56 50.016C16.448 49.9786 16.3593 49.932 16.294 49.876C16.2566 49.8386 16.2193 49.7966 16.182 49.75C16.1446 49.694 16.126 49.6006 16.126 49.47C16.1353 49.3393 16.168 49.1293 16.224 48.84C16.2613 48.6533 16.308 48.4573 16.364 48.252C16.42 48.0466 16.4713 47.8693 16.518 47.72C16.5646 47.5706 16.588 47.496 16.588 47.496C16.6346 47.4773 16.7 47.3373 16.784 47.076C16.8773 46.8146 16.98 46.4973 17.092 46.124C17.1293 45.9933 17.1946 45.774 17.288 45.466C17.3813 45.158 17.4746 44.8593 17.568 44.57C17.652 44.2993 17.7313 44.0893 17.806 43.94C17.8806 43.7906 17.918 43.716 17.918 43.716C17.918 43.716 17.862 43.7486 17.75 43.814C17.638 43.8793 17.4933 43.968 17.316 44.08C17.1386 44.192 16.952 44.3226 16.756 44.472C16.5973 44.5653 16.4153 44.696 16.21 44.864C16.014 45.0226 15.832 45.1533 15.664 45.256C15.412 45.452 15.2393 45.578 15.146 45.634C15.062 45.69 14.978 45.6946 14.894 45.648C14.7726 45.5453 14.656 45.396 14.544 45.2C14.4413 44.9946 14.418 44.8453 14.474 44.752C14.4926 44.7426 14.5533 44.7006 14.656 44.626C14.768 44.5513 14.894 44.4626 15.034 44.36C15.174 44.2573 15.3 44.164 15.412 44.08C15.5333 43.996 15.6173 43.94 15.664 43.912C15.692 43.912 15.7433 43.8793 15.818 43.814C15.8926 43.7486 15.972 43.688 16.056 43.632C16.1026 43.576 16.266 43.45 16.546 43.254C16.826 43.058 17.1293 42.8386 17.456 42.596C17.8013 42.3813 18.1093 42.2086 18.38 42.078C18.6506 41.9473 18.8046 41.8866 18.842 41.896C18.87 41.896 18.9353 41.9286 19.038 41.994C19.15 42.0593 19.2573 42.134 19.36 42.218C19.4626 42.302 19.5186 42.372 19.528 42.428C19.584 42.4933 19.556 42.6426 19.444 42.876C19.4067 42.96 19.346 43.114 19.262 43.338C19.178 43.5526 19.0846 43.8046 18.982 44.094C18.8886 44.374 18.7953 44.654 18.702 44.934C18.618 45.2046 18.548 45.438 18.492 45.634C18.4173 45.9233 18.3473 46.1473 18.282 46.306C18.226 46.4646 18.17 46.6186 18.114 46.768C18.0673 46.908 18.0113 47.104 17.946 47.356C17.8806 47.5053 17.8106 47.6966 17.736 47.93C17.6706 48.154 17.61 48.378 17.554 48.602C17.498 48.8166 17.456 48.994 17.428 49.134C17.3533 49.3393 17.2926 49.54 17.246 49.736C17.1993 49.932 17.1526 50.0486 17.106 50.086Z" fill="#0E0E0F"/>
<path d="M16.654 73.0461C16.6167 73.0461 16.5233 72.9808 16.374 72.8501C16.234 72.7194 16.164 72.5234 16.164 72.2621C16.1733 71.9728 16.22 71.6694 16.304 71.3521C16.3973 71.0254 16.486 70.7361 16.57 70.4841C16.626 70.3161 16.6727 70.1761 16.71 70.0641C16.7567 69.9521 16.78 69.8821 16.78 69.8541C16.7707 69.8541 16.7193 69.8634 16.626 69.8821C16.542 69.9008 16.4347 69.9241 16.304 69.9521C15.8467 70.0454 15.4967 70.0921 15.254 70.0921C15.0207 70.0921 14.82 69.9521 14.652 69.6721C14.596 69.6161 14.5213 69.5134 14.428 69.3641C14.3347 69.2148 14.2693 69.0514 14.232 68.8741C14.204 68.6968 14.2507 68.5474 14.372 68.4261C14.4653 68.1928 14.54 68.0248 14.596 67.9221C14.652 67.8194 14.6893 67.7448 14.708 67.6981C14.736 67.6514 14.75 67.6048 14.75 67.5581C14.7593 67.5394 14.7733 67.5114 14.792 67.4741C14.8107 67.4368 14.834 67.3994 14.862 67.3621C14.946 67.2221 15.0627 67.0401 15.212 66.8161C15.3707 66.5921 15.534 66.3681 15.702 66.1441C15.8793 65.9108 16.038 65.7054 16.178 65.5281C16.318 65.3414 16.4207 65.2201 16.486 65.1641C16.542 65.1361 16.64 65.0941 16.78 65.0381C16.9293 64.9821 17.0367 64.9541 17.102 64.9541C17.1767 64.9541 17.2467 65.0054 17.312 65.1081C17.3867 65.2014 17.4473 65.2994 17.494 65.4021C17.5407 65.5048 17.564 65.5748 17.564 65.6121C17.564 65.6121 17.5593 65.6214 17.55 65.6401C17.5407 65.6588 17.522 65.6914 17.494 65.7381C17.4567 65.7941 17.4007 65.8688 17.326 65.9621C17.2607 66.0554 17.1627 66.1768 17.032 66.3261C16.92 66.4568 16.78 66.6481 16.612 66.9001C16.444 67.1428 16.276 67.4041 16.108 67.6841C15.9493 67.9548 15.814 68.1974 15.702 68.4121C15.59 68.6268 15.534 68.7714 15.534 68.8461C15.534 68.8928 15.548 68.9301 15.576 68.9581C15.6133 68.9768 15.6787 68.9861 15.772 68.9861C15.8933 68.9674 16.0007 68.9488 16.094 68.9301C16.1967 68.9114 16.29 68.8928 16.374 68.8741C16.4767 68.8554 16.5653 68.8368 16.64 68.8181C16.7147 68.7901 16.7847 68.7668 16.85 68.7481C16.9247 68.7201 16.99 68.6968 17.046 68.6781C17.1113 68.6501 17.1673 68.6174 17.214 68.5801C17.326 68.4868 17.41 68.3608 17.466 68.2021C17.522 68.0434 17.6107 67.8288 17.732 67.5581C17.8067 67.3714 17.8813 67.2034 17.956 67.0541C18.04 66.8954 18.1147 66.7508 18.18 66.6201C18.4133 66.1908 18.6093 65.8781 18.768 65.6821C18.9267 65.4768 19.0153 65.3741 19.034 65.3741C19.062 65.3741 19.1273 65.4114 19.23 65.4861C19.3327 65.5608 19.4307 65.6401 19.524 65.7241C19.5987 65.7894 19.6593 65.8501 19.706 65.9061C19.7527 65.9528 19.776 65.9854 19.776 66.0041C19.776 66.1161 19.748 66.2328 19.692 66.3541C19.6453 66.4661 19.5753 66.5968 19.482 66.7461C19.3887 66.8954 19.2813 67.0868 19.16 67.3201C19.02 67.5908 18.8893 67.8614 18.768 68.1321C18.6467 68.3934 18.53 68.6548 18.418 68.9161C18.306 69.1681 18.2033 69.4154 18.11 69.6581C18.0167 69.9008 17.928 70.1294 17.844 70.3441C17.6387 70.8948 17.4987 71.3008 17.424 71.5621C17.3493 71.8234 17.312 72.0054 17.312 72.1081C17.3213 72.2014 17.34 72.2808 17.368 72.3461C17.368 72.4674 17.3307 72.5841 17.256 72.6961C17.1813 72.7988 17.088 72.8828 16.976 72.9481C16.864 73.0134 16.7567 73.0461 16.654 73.0461Z" fill="#0E0E0F"/>
<path d="M15.286 96.1154C15.174 96.0967 15.0433 96.0174 14.894 95.8774C14.7447 95.7374 14.642 95.6021 14.586 95.4714C14.5487 95.2941 14.6233 94.986 14.81 94.5474C14.9967 94.0994 15.2487 93.5767 15.566 92.9794C15.7713 92.6434 15.874 92.4474 15.874 92.3914C15.874 92.3354 15.7807 92.3074 15.594 92.3074C15.51 92.2887 15.3933 92.2654 15.244 92.2374C15.104 92.2 15.02 92.1627 14.992 92.1254C14.8427 92.0507 14.754 91.9714 14.726 91.8874C14.7073 91.794 14.74 91.7427 14.824 91.7334C14.9173 91.6867 14.9453 91.6261 14.908 91.5514C14.88 91.4674 14.8753 91.4021 14.894 91.3554C14.9407 91.3554 14.978 91.3601 15.006 91.3694C15.034 91.3694 15.0853 91.3787 15.16 91.3974C15.2907 91.3974 15.412 91.402 15.524 91.4114C15.6453 91.4207 15.7573 91.4254 15.86 91.4254C15.9067 91.4254 15.9627 91.4254 16.028 91.4254C16.1027 91.4254 16.168 91.43 16.224 91.4394C16.3547 91.458 16.4433 91.4487 16.49 91.4114C16.5367 91.3647 16.6253 91.2574 16.756 91.0894C16.8307 90.9587 16.9287 90.8187 17.05 90.6694C17.1713 90.5107 17.2927 90.3147 17.414 90.0814C17.7407 89.6147 17.9227 89.302 17.96 89.1434C17.9973 88.9847 17.9227 88.9147 17.736 88.9334C17.5867 88.952 17.4187 88.9894 17.232 89.0454C17.0547 89.092 16.7887 89.1807 16.434 89.3114C16.1727 89.414 15.9673 89.4794 15.818 89.5074C15.678 89.526 15.5567 89.5074 15.454 89.4514C15.398 89.442 15.3513 89.386 15.314 89.2834C15.286 89.1807 15.2673 89.0687 15.258 88.9474C15.258 88.8167 15.2627 88.7187 15.272 88.6534C15.2907 88.5507 15.482 88.4387 15.846 88.3174C16.21 88.196 16.63 88.0747 17.106 87.9534C17.3207 87.916 17.5633 87.8927 17.834 87.8834C18.1047 87.874 18.3473 87.8834 18.562 87.9114C18.786 87.9394 18.9167 87.9907 18.954 88.0654C18.954 88.0654 18.9633 88.0794 18.982 88.1074C19.01 88.126 19.0287 88.1167 19.038 88.0794C19.0753 88.0887 19.1033 88.126 19.122 88.1914C19.1407 88.2474 19.178 88.322 19.234 88.4154C19.3273 88.574 19.3833 88.6907 19.402 88.7654C19.43 88.84 19.43 88.9474 19.402 89.0874C19.374 89.19 19.3273 89.2927 19.262 89.3954C19.1967 89.498 19.1453 89.5634 19.108 89.5914C19.0613 89.6287 19.024 89.6707 18.996 89.7174C18.9773 89.764 18.968 89.7874 18.968 89.7874C18.9587 89.8247 18.9307 89.862 18.884 89.8994C18.8373 89.9274 18.7907 89.9694 18.744 90.0254C18.7347 90.0627 18.7113 90.1047 18.674 90.1514C18.646 90.198 18.6273 90.2354 18.618 90.2634C18.6087 90.2727 18.5713 90.3287 18.506 90.4314C18.4407 90.5247 18.366 90.6367 18.282 90.7674C18.198 90.898 18.1187 91.0194 18.044 91.1314C17.9693 91.2434 17.918 91.3227 17.89 91.3694C17.7593 91.4907 17.694 91.5794 17.694 91.6354C17.694 91.6914 17.7547 91.7474 17.876 91.8034C18.0347 91.8687 18.1653 91.9481 18.268 92.0414C18.3707 92.1254 18.4407 92.2327 18.478 92.3634C18.4873 92.578 18.45 92.704 18.366 92.7414C18.3193 92.8067 18.24 92.8534 18.128 92.8814C18.0253 92.9094 17.96 92.9047 17.932 92.8674C17.904 92.8114 17.8387 92.76 17.736 92.7134C17.6427 92.6574 17.5493 92.6154 17.456 92.5874C17.3627 92.5594 17.302 92.5454 17.274 92.5454C17.2367 92.564 17.1993 92.6014 17.162 92.6574C17.1247 92.7041 17.0827 92.7554 17.036 92.8114C16.9707 92.9047 16.8867 93.0494 16.784 93.2454C16.6813 93.432 16.5787 93.6187 16.476 93.8054C16.3733 93.9827 16.294 94.1181 16.238 94.2114C16.2287 94.2581 16.2007 94.3047 16.154 94.3514C16.1167 94.3981 16.0887 94.454 16.07 94.5194C16.0327 94.5847 16 94.6827 15.972 94.8134C15.944 94.9347 15.93 95.0467 15.93 95.1494C15.93 95.2427 15.944 95.2941 15.972 95.3034C16.0467 95.2847 16.098 95.294 16.126 95.3314C16.1633 95.3594 16.1913 95.4107 16.21 95.4854C16.2567 95.5507 16.2193 95.6394 16.098 95.7514C15.986 95.854 15.846 95.9427 15.678 96.0174C15.5193 96.1014 15.3887 96.134 15.286 96.1154Z" fill="#0E0E0F"/>
<path d="M37.8123 49.7191C37.775 49.7005 37.7096 49.6491 37.6163 49.5651C37.5323 49.4811 37.4483 49.3878 37.3643 49.2851C37.2803 49.1731 37.2243 49.0891 37.1963 49.0331C37.1683 48.9865 37.1683 48.9025 37.1963 48.7811C37.2336 48.6598 37.271 48.5991 37.3083 48.5991C37.3363 48.6178 37.3736 48.5851 37.4203 48.5011C37.467 48.4171 37.5136 48.3285 37.5603 48.2351C37.607 48.1325 37.6303 48.0718 37.6303 48.0531C37.6396 48.0158 37.663 47.9878 37.7003 47.9691C37.747 47.9411 37.789 47.9131 37.8263 47.8851C37.873 47.8105 37.9336 47.7358 38.0083 47.6611C38.0923 47.5771 38.1576 47.5071 38.2043 47.4511C38.279 47.3578 38.4143 47.2178 38.6103 47.0311C38.8063 46.8445 38.9976 46.6531 39.1843 46.4571C39.3803 46.2425 39.553 46.0558 39.7023 45.8971C39.8516 45.7291 39.931 45.6125 39.9403 45.5471C39.9403 45.5471 39.9543 45.5331 39.9823 45.5051C40.0196 45.4678 40.0616 45.4351 40.1083 45.4071C40.155 45.3791 40.2156 45.3325 40.2903 45.2671C40.3743 45.2018 40.4443 45.1411 40.5003 45.0851C40.519 45.0105 40.561 44.9265 40.6263 44.8331C40.701 44.7305 40.785 44.6325 40.8783 44.5391C40.953 44.4271 41.023 44.3058 41.0883 44.1751C41.1536 44.0351 41.1956 43.9325 41.2143 43.8671C41.2423 43.7645 41.233 43.7038 41.1863 43.6851C41.1396 43.6571 41.0136 43.6105 40.8083 43.5451C40.5843 43.4705 40.3743 43.4565 40.1783 43.5031C39.9823 43.5498 39.721 43.6898 39.3943 43.9231C39.2636 43.9511 39.1423 43.9885 39.0303 44.0351C38.9276 44.0818 38.839 44.1005 38.7643 44.0911C38.727 44.0725 38.685 44.0305 38.6383 43.9651C38.5916 43.8998 38.5403 43.8391 38.4843 43.7831L38.3443 43.1811L38.7783 42.9431C39.161 42.7005 39.525 42.5185 39.8703 42.3971C40.225 42.2665 40.533 42.2431 40.7943 42.3271C40.897 42.3271 40.9903 42.3411 41.0743 42.3691C41.1583 42.3878 41.2003 42.3971 41.2003 42.3971C41.275 42.3878 41.3823 42.4251 41.5223 42.5091C41.6716 42.5931 41.8163 42.7005 41.9563 42.8311C42.1056 42.9618 42.2083 43.0925 42.2643 43.2231C42.4136 43.4471 42.4696 43.7178 42.4323 44.0351C42.395 44.3525 42.2596 44.6838 42.0263 45.0291C41.9796 45.0851 41.877 45.2018 41.7183 45.3791C41.5596 45.5565 41.3776 45.7571 41.1723 45.9811C40.9763 46.1958 40.7943 46.3871 40.6263 46.5551C40.4676 46.7231 40.365 46.8305 40.3183 46.8771C40.253 46.9051 40.141 46.9938 39.9823 47.1431C39.833 47.2925 39.6696 47.4605 39.4923 47.6471C39.3243 47.8245 39.1796 47.9831 39.0583 48.1231C38.9463 48.2538 38.8996 48.3191 38.9183 48.3191C38.909 48.3565 38.9556 48.3565 39.0583 48.3191C39.1703 48.2725 39.2683 48.2351 39.3523 48.2071C39.4923 48.1605 39.6556 48.1185 39.8423 48.0811C40.0383 48.0345 40.2343 47.9971 40.4303 47.9691C40.6263 47.9411 40.7943 47.9225 40.9343 47.9131C41.0836 47.9038 41.1723 47.9131 41.2003 47.9411C41.219 47.9878 41.233 48.0065 41.2423 47.9971C41.261 47.9785 41.2703 47.9691 41.2703 47.9691C41.289 47.9038 41.4056 47.8851 41.6203 47.9131C41.8443 47.9411 42.045 47.9831 42.2223 48.0391C42.325 48.0671 42.4043 48.1045 42.4603 48.1511C42.5256 48.1978 42.5583 48.2398 42.5583 48.2771C42.5583 48.2771 42.5676 48.3005 42.5863 48.3471C42.6143 48.3845 42.6563 48.4358 42.7123 48.5011C42.8616 48.6225 42.8616 48.7531 42.7123 48.8931C42.5723 49.0331 42.3156 49.0705 41.9423 49.0051C41.6996 49.0051 41.499 49.0191 41.3403 49.0471C41.303 49.0658 41.2236 49.0751 41.1023 49.0751C40.981 49.0751 40.8643 49.0798 40.7523 49.0891C40.5843 49.0705 40.4163 49.0798 40.2483 49.1171C40.0803 49.1451 39.8796 49.1965 39.6463 49.2711C39.5623 49.2991 39.4316 49.3411 39.2543 49.3971C39.077 49.4531 38.8856 49.5091 38.6803 49.5651C38.475 49.6211 38.2883 49.6631 38.1203 49.6911C37.9616 49.7191 37.859 49.7285 37.8123 49.7191Z" fill="#0E0E0F"/>
<path d="M37.9288 72.7179C37.7608 72.5966 37.6768 72.4939 37.6768 72.4099C37.6395 72.3539 37.5975 72.3259 37.5508 72.3259C37.5228 72.3352 37.4948 72.2886 37.4668 72.1859C37.4481 72.0832 37.4295 71.9712 37.4108 71.8499C37.4015 71.7286 37.4015 71.6492 37.4108 71.6119C37.4481 71.5372 37.5181 71.4812 37.6208 71.4439C37.7328 71.4066 37.8401 71.3926 37.9428 71.4019C38.0548 71.4019 38.1155 71.4392 38.1248 71.5139C38.1435 71.5886 38.2135 71.6492 38.3348 71.6959C38.4655 71.7426 38.6335 71.7612 38.8388 71.7519C39.1001 71.7426 39.3381 71.7006 39.5528 71.6259C39.7768 71.5512 39.9775 71.4439 40.1548 71.3039C40.3415 71.1639 40.5095 70.9959 40.6588 70.7999C40.7241 70.6692 40.7848 70.4966 40.8408 70.2819C40.8968 70.0672 40.9341 69.8759 40.9528 69.7079C40.9715 69.5399 40.9575 69.4559 40.9108 69.4559C40.9108 69.4559 40.9015 69.4232 40.8828 69.3579C40.8735 69.2926 40.8548 69.2226 40.8268 69.1479C40.7801 69.0079 40.6728 68.8679 40.5048 68.7279C40.3368 68.5786 40.1735 68.4712 40.0148 68.4059C39.9495 68.3872 39.8141 68.3872 39.6088 68.4059C39.4035 68.4246 39.2308 68.4432 39.0908 68.4619C38.9415 68.4712 38.8528 68.4712 38.8248 68.4619C38.8061 68.4432 38.7968 68.4339 38.7968 68.4339C38.7501 68.4246 38.6708 68.3779 38.5588 68.2939C38.4561 68.2099 38.3581 68.1212 38.2648 68.0279C38.1808 67.9346 38.1388 67.8646 38.1388 67.8179C38.1575 67.7526 38.2088 67.6406 38.2928 67.4819C38.3768 67.3232 38.4795 67.1506 38.6008 66.9639C38.7315 66.7772 38.8621 66.5952 38.9928 66.4179C39.1235 66.2406 39.2448 66.0959 39.3568 65.9839C39.6368 65.6759 39.9728 65.4472 40.3648 65.2979C40.7568 65.1392 41.1441 65.0692 41.5268 65.0879C41.7975 65.0972 41.9981 65.1346 42.1288 65.1999C42.2688 65.2559 42.3948 65.3586 42.5068 65.5079C42.5815 65.6386 42.6095 65.7739 42.5908 65.9139C42.5721 66.0539 42.5255 66.1612 42.4508 66.2359C42.3761 66.3106 42.2828 66.3199 42.1708 66.2639C42.0401 66.1799 41.8628 66.1472 41.6388 66.1659C41.4148 66.1846 41.1768 66.2312 40.9248 66.3059C40.7288 66.3806 40.5701 66.4459 40.4488 66.5019C40.3275 66.5486 40.2435 66.6232 40.1968 66.7259C40.1595 66.7539 40.1315 66.7819 40.1128 66.8099C40.1035 66.8379 40.0801 66.8472 40.0428 66.8379C40.0428 66.8379 40.0288 66.8566 40.0008 66.8939C39.9728 66.9219 39.9588 66.9546 39.9588 66.9919C39.9121 67.0479 39.8795 67.0899 39.8608 67.1179C39.8515 67.1366 39.8281 67.1272 39.7908 67.0899C39.7908 67.0899 39.7908 67.1039 39.7908 67.1319C39.7908 67.1599 39.7861 67.1926 39.7768 67.2299C39.7675 67.2952 39.7861 67.3419 39.8328 67.3699C39.8888 67.3886 40.0055 67.4072 40.1828 67.4259C40.4161 67.4632 40.5888 67.5006 40.7008 67.5379C40.8221 67.5659 40.9995 67.6499 41.2328 67.7899C41.4941 67.9392 41.6855 68.1632 41.8068 68.4619C41.9375 68.7512 42.0121 69.0732 42.0308 69.4279C42.0588 69.7732 42.0495 70.1046 42.0028 70.4219C41.9748 70.6272 41.9468 70.7859 41.9188 70.8979C41.8908 71.0099 41.8115 71.1639 41.6808 71.3599C41.4661 71.6586 41.1908 71.9246 40.8548 72.1579C40.5188 72.3819 40.1641 72.5592 39.7908 72.6899C39.4175 72.8206 39.0628 72.8952 38.7268 72.9139C38.4001 72.9232 38.1341 72.8579 37.9288 72.7179Z" fill="#0E0E0F"/>
<path d="M37.9227 96.3413C37.8574 96.332 37.7687 96.29 37.6567 96.2153C37.5447 96.1406 37.4327 96.0566 37.3207 95.9633C37.2087 95.8793 37.1247 95.814 37.0687 95.7673C37.0034 95.6086 36.9567 95.4873 36.9287 95.4033C36.9007 95.3193 36.9007 95.1793 36.9287 94.9833C36.9287 94.8713 36.938 94.7406 36.9567 94.5913C36.9847 94.442 37.0314 94.3206 37.0967 94.2273C37.162 94.0406 37.2647 93.8213 37.4047 93.5693C37.554 93.3173 37.7127 93.0653 37.8807 92.8133C38.058 92.5613 38.2214 92.3326 38.3707 92.1273C38.5294 91.9126 38.646 91.7586 38.7207 91.6653C38.8234 91.5346 38.87 91.4273 38.8607 91.3433C38.8607 91.25 38.7674 91.0773 38.5807 90.8253C38.5434 90.7226 38.5014 90.648 38.4547 90.6013C38.408 90.5453 38.4034 90.5173 38.4407 90.5173C38.4407 90.5173 38.4267 90.5033 38.3987 90.4753C38.38 90.438 38.3567 90.3866 38.3287 90.3213C38.1887 90.1906 38.1187 89.99 38.1187 89.7193C38.128 89.4486 38.198 89.1826 38.3287 88.9213C38.478 88.5853 38.6787 88.296 38.9307 88.0533C39.1827 87.8106 39.4487 87.6706 39.7287 87.6333C39.8314 87.6426 40.0087 87.6706 40.2607 87.7173C40.522 87.764 40.788 87.8153 41.0587 87.8713C41.3387 87.9273 41.558 87.9926 41.7167 88.0673C41.8287 88.114 41.9734 88.198 42.1507 88.3193C42.3374 88.4406 42.5054 88.562 42.6547 88.6833C42.804 88.8046 42.8834 88.8933 42.8927 88.9493C42.8927 88.9773 42.9067 89.01 42.9347 89.0473C42.972 89.0753 42.9954 89.1126 43.0047 89.1593C43.0607 89.262 43.0887 89.402 43.0887 89.5793C43.098 89.7566 43.0887 89.9293 43.0607 90.0973C43.0327 90.2653 42.9907 90.3913 42.9347 90.4753C42.7014 90.7366 42.538 90.886 42.4447 90.9233C42.398 90.9606 42.342 91.0073 42.2767 91.0633C42.2207 91.1193 42.1554 91.1566 42.0807 91.1753C42.034 91.2406 41.9874 91.2966 41.9407 91.3433C41.9034 91.39 41.866 91.4133 41.8287 91.4133C41.7914 91.3853 41.754 91.3713 41.7167 91.3713C41.6794 91.362 41.6607 91.376 41.6607 91.4133C41.6607 91.432 41.5954 91.474 41.4647 91.5393C41.3434 91.6046 41.2174 91.6606 41.0867 91.7073C40.956 91.754 40.872 91.768 40.8347 91.7493C40.8347 91.7493 40.8207 91.7493 40.7927 91.7493C40.7647 91.7493 40.7227 91.768 40.6667 91.8053C40.5454 91.7866 40.6154 91.936 40.8767 92.2533C41.0914 92.6546 41.25 93.042 41.3527 93.4153C41.4647 93.7793 41.4507 94.0593 41.3107 94.2553C41.1334 94.6566 40.942 94.988 40.7367 95.2493C40.5314 95.5013 40.368 95.6226 40.2467 95.6133C40.2467 95.6133 40.2234 95.6273 40.1767 95.6553C40.1394 95.6833 40.0974 95.7113 40.0507 95.7393C40.032 95.8046 39.99 95.8466 39.9247 95.8653C39.8687 95.8933 39.8174 95.9026 39.7707 95.8933C39.6867 95.856 39.542 95.9026 39.3367 96.0333C39.2154 96.1173 39.0567 96.1873 38.8607 96.2433C38.6647 96.2993 38.4734 96.3366 38.2867 96.3553C38.1094 96.374 37.988 96.3693 37.9227 96.3413ZM38.2447 95.2773C38.338 95.2866 38.4594 95.2633 38.6087 95.2073C38.7674 95.1513 38.9307 95.0766 39.0987 94.9833C39.276 94.89 39.4347 94.7966 39.5747 94.7033C39.8734 94.47 40.074 94.2366 40.1767 94.0033C40.2887 93.77 40.298 93.5366 40.2047 93.3033C40.1487 93.1913 40.088 93.07 40.0227 92.9393C39.9574 92.8086 39.9014 92.706 39.8547 92.6313C39.7987 92.5473 39.7474 92.4866 39.7007 92.4493C39.6634 92.412 39.6214 92.3793 39.5747 92.3513C39.5747 92.3513 39.5514 92.384 39.5047 92.4493C39.4674 92.5053 39.4254 92.5846 39.3787 92.6873C39.276 92.818 39.2154 92.8973 39.1967 92.9253C39.178 92.9533 39.15 93 39.1127 93.0653C39.0474 93.1306 38.9867 93.1913 38.9307 93.2473C38.8747 93.3033 38.8327 93.3453 38.8047 93.3733C38.8047 93.4013 38.7767 93.4853 38.7207 93.6253C38.6647 93.756 38.5994 93.8866 38.5247 94.0173C38.3194 94.372 38.1887 94.666 38.1327 94.8993C38.086 95.1326 38.1234 95.2586 38.2447 95.2773ZM40.4147 90.7133C40.6107 90.536 40.7647 90.4333 40.8767 90.4053C40.9887 90.3773 41.0727 90.4146 41.1287 90.5173C41.1474 90.5546 41.236 90.5313 41.3947 90.4473C41.5627 90.354 41.7214 90.228 41.8707 90.0693C41.9267 89.9666 41.9407 89.9153 41.9127 89.9153C41.894 89.9153 41.8754 89.8406 41.8567 89.6913C41.866 89.598 41.866 89.5233 41.8567 89.4673C41.8474 89.4113 41.8054 89.3553 41.7307 89.2993C41.656 89.2433 41.5207 89.178 41.3247 89.1033C40.746 88.898 40.3027 88.8326 39.9947 88.9073C39.6867 88.9726 39.472 89.1686 39.3507 89.4953C39.2947 89.6726 39.2667 89.8173 39.2667 89.9293C39.2667 90.0413 39.304 90.1766 39.3787 90.3353C39.4627 90.3726 39.5187 90.424 39.5467 90.4893C39.5747 90.5453 39.5887 90.5733 39.5887 90.5733C39.5887 90.6573 39.626 90.6993 39.7007 90.6993C39.7194 90.746 39.7847 90.7973 39.8967 90.8533C40.0087 90.9093 40.1814 90.8626 40.4147 90.7133Z" fill="#0E0E0F"/>
<path d="M61.7092 49.9078C61.4759 49.9078 61.2472 49.8658 61.0232 49.7818C60.8085 49.6885 60.6359 49.5811 60.5052 49.4598C60.3745 49.3385 60.3139 49.2218 60.3232 49.1098C60.3325 48.9605 60.3839 48.8438 60.4772 48.7598C60.5705 48.6758 60.7199 48.6478 60.9252 48.6758C61.2425 48.7411 61.5645 48.7645 61.8912 48.7458C62.2179 48.7178 62.5212 48.6525 62.8012 48.5498C63.0905 48.4471 63.3239 48.3071 63.5012 48.1298C63.7532 47.8871 63.8839 47.6818 63.8932 47.5138C63.9025 47.3365 63.7719 47.1591 63.5012 46.9818C63.3799 46.8978 63.2305 46.8185 63.0532 46.7438C62.8759 46.6691 62.6985 46.6131 62.5212 46.5758C62.3532 46.5291 62.2039 46.5105 62.0732 46.5198C61.9892 46.5291 61.8865 46.5151 61.7652 46.4778C61.6439 46.4311 61.5225 46.3751 61.4012 46.3098C61.3452 46.2445 61.2939 46.1371 61.2472 45.9878C61.2005 45.8385 61.1679 45.7451 61.1492 45.7078C61.1399 45.6611 61.1725 45.6051 61.2472 45.5398C61.3219 45.4745 61.4712 45.3765 61.6952 45.2458C61.9192 45.1058 62.2459 44.9191 62.6752 44.6858C63.0672 44.4711 63.3659 44.3078 63.5712 44.1958C63.7859 44.0745 63.9492 43.9811 64.0612 43.9158C64.1825 43.8411 64.2852 43.7665 64.3692 43.6918C64.4812 43.5611 64.5325 43.4631 64.5232 43.3978C64.5139 43.3325 64.3879 43.2765 64.1452 43.2298C63.9119 43.2111 63.7252 43.2111 63.5852 43.2298C63.4452 43.2391 63.3752 43.2625 63.3752 43.2998C63.3752 43.2998 63.3705 43.2998 63.3612 43.2998C63.3612 43.2998 63.3472 43.2998 63.3192 43.2998C63.2725 43.2811 63.1699 43.2858 63.0112 43.3138C62.8525 43.3418 62.6985 43.3745 62.5492 43.4118C62.4092 43.4491 62.3345 43.4818 62.3252 43.5098C62.3159 43.5285 62.2505 43.5611 62.1292 43.6078C62.0172 43.6451 61.9005 43.6778 61.7792 43.7058C61.6672 43.7338 61.5972 43.7478 61.5692 43.7478C61.5225 43.7291 61.4665 43.6638 61.4012 43.5518C61.3452 43.4398 61.2985 43.3231 61.2612 43.2018C61.2239 43.0711 61.2145 42.9825 61.2332 42.9358C61.2519 42.8985 61.3172 42.8425 61.4292 42.7678C61.5505 42.6838 61.6859 42.5998 61.8352 42.5158C61.9845 42.4225 62.1105 42.3525 62.2132 42.3058C62.3439 42.2685 62.5352 42.2358 62.7872 42.2078C63.0485 42.1705 63.3052 42.1425 63.5572 42.1238C63.8185 42.0958 64.0052 42.0865 64.1172 42.0958C64.5465 42.1425 64.8919 42.2545 65.1532 42.4318C65.4145 42.5998 65.5825 42.8705 65.6572 43.2438C65.6852 43.3745 65.6852 43.5098 65.6572 43.6498C65.6292 43.7898 65.5685 43.9298 65.4752 44.0698C65.3819 44.2098 65.2419 44.3638 65.0552 44.5318C64.8219 44.6811 64.6399 44.8071 64.5092 44.9098C64.3879 45.0031 64.2199 45.1011 64.0052 45.2038C63.9399 45.2505 63.8372 45.3018 63.6972 45.3578C63.5572 45.4138 63.4265 45.4651 63.3052 45.5118C63.1839 45.5585 63.1232 45.5911 63.1232 45.6098C63.1232 45.6098 63.1652 45.6191 63.2492 45.6378C63.3425 45.6471 63.4405 45.6658 63.5432 45.6938C63.6552 45.7125 63.7345 45.7451 63.7812 45.7918C64.0519 45.8851 64.2992 46.0485 64.5232 46.2818C64.7565 46.5058 64.9199 46.6831 65.0132 46.8138C65.1439 47.1031 65.1579 47.4205 65.0552 47.7658C64.9619 48.1018 64.7892 48.4238 64.5372 48.7318C64.2945 49.0305 64.0099 49.2778 63.6832 49.4738C63.4219 49.6231 63.0999 49.7305 62.7172 49.7958C62.3439 49.8518 62.0079 49.8891 61.7092 49.9078Z" fill="#0E0E0F"/>
<path d="M62.5534 72.6743C62.2454 72.7583 61.9514 72.791 61.6714 72.7723C61.4008 72.7443 61.1674 72.637 60.9714 72.4503C60.8408 72.3476 60.7054 72.2076 60.5654 72.0303C60.4348 71.853 60.3554 71.671 60.3274 71.4843C60.2808 71.3443 60.2528 71.2323 60.2434 71.1483C60.2341 71.0643 60.2388 70.9616 60.2574 70.8403C60.2854 70.719 60.3228 70.5323 60.3694 70.2803C60.4441 69.9443 60.5094 69.683 60.5654 69.4963C60.6214 69.3003 60.7334 69.0856 60.9014 68.8523C60.9761 68.6563 61.0601 68.4603 61.1534 68.2643C61.2561 68.059 61.3308 67.9283 61.3774 67.8723C61.4241 67.807 61.4941 67.709 61.5874 67.5783C61.6808 67.4476 61.7788 67.3263 61.8814 67.2143C61.9748 67.093 62.0588 66.981 62.1334 66.8783C62.2174 66.7663 62.2594 66.7103 62.2594 66.7103C62.3061 66.6823 62.3481 66.6543 62.3854 66.6263C62.4321 66.5983 62.4788 66.5516 62.5254 66.4863C62.6001 66.4023 62.7214 66.2996 62.8894 66.1783C63.0574 66.0476 63.2488 65.917 63.4634 65.7863C63.6781 65.6556 63.8881 65.5483 64.0934 65.4643C64.2988 65.371 64.4761 65.315 64.6254 65.2963C64.9241 65.1936 65.0641 65.1983 65.0454 65.3103C65.0454 65.3103 65.0921 65.3616 65.1854 65.4643C65.2881 65.5576 65.3768 65.6136 65.4514 65.6323C65.4888 65.6416 65.5168 65.6743 65.5354 65.7303C65.5634 65.777 65.5914 65.8236 65.6194 65.8703C65.6381 65.945 65.6008 66.0476 65.5074 66.1783C65.4141 66.2996 65.3021 66.421 65.1714 66.5423C65.0408 66.6356 64.9474 66.687 64.8914 66.6963C64.8448 66.7056 64.8028 66.6916 64.7654 66.6543C64.7748 66.617 64.7561 66.5936 64.7094 66.5843C64.6628 66.5656 64.6394 66.5563 64.6394 66.5563C64.5834 66.5376 64.4761 66.5563 64.3174 66.6123C64.1681 66.659 64.0048 66.7383 63.8274 66.8503C63.6594 66.953 63.5054 67.079 63.3654 67.2283C63.2814 67.303 63.2068 67.3776 63.1414 67.4523C63.0761 67.527 63.0341 67.583 63.0154 67.6203C62.8941 67.7416 62.7868 67.863 62.6934 67.9843C62.6001 68.0963 62.5534 68.1523 62.5534 68.1523C62.5814 68.2083 62.6468 68.2223 62.7494 68.1943C62.8614 68.1663 62.9221 68.1336 62.9314 68.0963C62.9314 68.059 63.0341 68.0123 63.2394 67.9563C63.4541 67.891 63.6688 67.849 63.8834 67.8303C63.9674 67.793 64.0794 67.7883 64.2194 67.8163C64.3688 67.8443 64.4901 67.8676 64.5834 67.8863C64.7888 67.9236 64.9288 67.961 65.0034 67.9983C65.0781 68.0356 65.1714 68.1243 65.2834 68.2643C65.4701 68.4416 65.5961 68.633 65.6614 68.8383C65.7361 69.0436 65.7688 69.2676 65.7594 69.5103C65.7594 69.6596 65.7454 69.7903 65.7174 69.9023C65.6894 70.0143 65.6241 70.131 65.5214 70.2523C65.4468 70.3736 65.3488 70.5276 65.2274 70.7143C65.1061 70.8916 64.9848 71.055 64.8634 71.2043C64.7514 71.3536 64.6534 71.4563 64.5694 71.5123C64.5321 71.531 64.4948 71.5543 64.4574 71.5823C64.4294 71.601 64.4154 71.6103 64.4154 71.6103C64.4061 71.6663 64.3314 71.7456 64.1914 71.8483C64.0608 71.9416 63.8928 72.049 63.6874 72.1703C63.4914 72.2823 63.2908 72.385 63.0854 72.4783C62.8801 72.5716 62.7028 72.637 62.5534 72.6743ZM61.7134 71.5963C61.8628 71.615 61.9748 71.629 62.0494 71.6383C62.1241 71.6383 62.2641 71.5963 62.4694 71.5123C62.5441 71.4936 62.6094 71.475 62.6654 71.4563C62.7214 71.4376 62.7634 71.433 62.7914 71.4423C62.7914 71.4423 62.8474 71.405 62.9594 71.3303C63.0808 71.2463 63.2161 71.1576 63.3654 71.0643C63.8041 70.7936 64.1308 70.4996 64.3454 70.1823C64.5601 69.8556 64.6441 69.5803 64.5974 69.3563C64.6068 69.3003 64.5974 69.2396 64.5694 69.1743C64.5414 69.0996 64.5274 69.053 64.5274 69.0343C64.5088 69.0343 64.4668 69.025 64.4014 69.0063C64.3454 68.9876 64.2754 68.9736 64.1914 68.9643C64.0981 68.9363 64.0094 68.9223 63.9254 68.9223C63.8414 68.9223 63.7108 68.941 63.5334 68.9783C63.3654 69.0063 63.0948 69.067 62.7214 69.1603C62.6561 69.1696 62.5861 69.193 62.5114 69.2303C62.4461 69.2583 62.3761 69.2816 62.3014 69.3003C62.2828 69.3283 62.2361 69.361 62.1614 69.3983C62.0868 69.4356 62.0261 69.4636 61.9794 69.4823C61.8861 69.4916 61.8068 69.5663 61.7414 69.7063C61.6761 69.8463 61.5968 70.1216 61.5034 70.5323C61.4568 70.8216 61.4241 71.013 61.4054 71.1063C61.3961 71.1996 61.4101 71.279 61.4474 71.3443C61.4661 71.4376 61.4988 71.4983 61.5454 71.5263C61.5921 71.5543 61.6481 71.5776 61.7134 71.5963Z" fill="#0E0E0F"/>
<path d="M62.2836 96.4119C62.2369 96.4025 62.1669 96.3699 62.0736 96.3139C61.9896 96.2672 61.9102 96.2112 61.8356 96.1459C61.7609 96.0805 61.7236 96.0385 61.7236 96.0199C61.7329 95.9732 61.7142 95.9499 61.6676 95.9499C61.6676 95.9499 61.6582 95.9172 61.6396 95.8519C61.6209 95.7959 61.6162 95.7352 61.6256 95.6699C61.6256 95.6419 61.6302 95.5719 61.6396 95.4599C61.6489 95.3479 61.6536 95.2592 61.6536 95.1939C61.6722 95.0072 61.7189 94.7599 61.7936 94.4519C61.8682 94.1439 61.9569 93.8219 62.0596 93.4859C62.1622 93.1405 62.2602 92.8325 62.3536 92.5619C62.4842 92.2259 62.5402 92.0205 62.5216 91.9459C62.5122 91.8712 62.3956 91.8432 62.1716 91.8619C61.8822 91.9085 61.6162 91.8619 61.3736 91.7219C61.1309 91.5819 60.9396 91.3859 60.7996 91.1339C60.6596 90.8725 60.5989 90.6065 60.6176 90.3359C60.6269 90.1959 60.6549 90.0699 60.7016 89.9579C60.7576 89.8365 60.8462 89.6732 60.9676 89.4679C61.1636 89.1785 61.3969 88.9032 61.6676 88.6419C61.9476 88.3805 62.2369 88.1565 62.5356 87.9699C62.8342 87.7832 63.1049 87.6665 63.3476 87.6199C63.4969 87.5919 63.6742 87.5825 63.8796 87.5919C64.0849 87.6012 64.2436 87.6292 64.3556 87.6759C64.4956 87.7319 64.6496 87.8532 64.8176 88.0399C64.9856 88.2265 65.1256 88.4225 65.2376 88.6279C65.3589 88.8332 65.4056 88.9919 65.3776 89.1039C65.3122 89.4119 65.2376 89.6452 65.1536 89.8039C65.0696 89.9625 64.9669 90.1072 64.8456 90.2379C64.6962 90.3685 64.5189 90.6065 64.3136 90.9519C64.1176 91.2972 63.9169 91.6939 63.7116 92.1419C63.5156 92.5805 63.3429 93.0145 63.1936 93.4439C63.0629 93.8359 62.9789 94.1905 62.9416 94.5079C62.9136 94.8252 62.9322 94.9885 62.9976 94.9979C63.0349 94.9979 63.1002 95.0119 63.1936 95.0399C63.2869 95.0679 63.3522 95.0819 63.3896 95.0819C63.4176 95.1192 63.4316 95.1612 63.4316 95.2079C63.4316 95.2545 63.4082 95.3292 63.3616 95.4319C63.3336 95.4972 63.2682 95.5859 63.1656 95.6979C63.0722 95.8099 62.9602 95.9172 62.8296 96.0199C62.7082 96.1319 62.5962 96.2252 62.4936 96.2999C62.3909 96.3745 62.3209 96.4119 62.2836 96.4119ZM61.8776 90.6579C62.0176 90.8072 62.1856 90.8725 62.3816 90.8539C62.5776 90.8259 62.7829 90.7232 62.9976 90.5459C63.2122 90.3685 63.4176 90.1259 63.6136 89.8179C63.7256 89.6872 63.7956 89.5845 63.8236 89.5099C63.8609 89.4259 63.8982 89.3699 63.9356 89.3419C64.0569 89.2112 64.1409 89.1085 64.1876 89.0339C64.2342 88.9592 64.2249 88.8892 64.1596 88.8239C64.0942 88.7212 64.0242 88.6652 63.9496 88.6559C63.8749 88.6465 63.7256 88.6839 63.5016 88.7679C63.3522 88.7959 63.2356 88.8425 63.1516 88.9079C63.0769 88.9732 62.9416 89.0712 62.7456 89.2019C62.7082 89.2392 62.6709 89.2625 62.6336 89.2719C62.5962 89.2719 62.5589 89.2672 62.5216 89.2579C62.5216 89.2579 62.5122 89.2625 62.4936 89.2719C62.4749 89.2719 62.4656 89.2905 62.4656 89.3279C62.5122 89.4119 62.4562 89.5192 62.2976 89.6499C62.0549 89.9112 61.9009 90.1212 61.8356 90.2799C61.7702 90.4292 61.7842 90.5552 61.8776 90.6579Z" fill="#0E0E0F"/>
<path d="M16.4231 117.78C16.3578 117.78 16.2365 117.757 16.0591 117.71C15.8911 117.664 15.7138 117.608 15.5271 117.542C15.3498 117.468 15.2098 117.388 15.1071 117.304C14.7898 117.034 14.5611 116.735 14.4211 116.408C14.2811 116.072 14.1971 115.732 14.1691 115.386C14.1505 115.041 14.1645 114.714 14.2111 114.406C14.3138 113.809 14.5285 113.216 14.8551 112.628C15.1818 112.031 15.5738 111.536 16.0311 111.144C16.2738 110.93 16.5165 110.748 16.7591 110.598C17.0018 110.449 17.2631 110.342 17.5431 110.276C17.6458 110.248 17.7905 110.234 17.9771 110.234C18.1731 110.225 18.3038 110.22 18.3691 110.22C18.5558 110.22 18.7611 110.262 18.9851 110.346C19.2185 110.421 19.4191 110.514 19.5871 110.626C19.7551 110.729 19.8391 110.827 19.8391 110.92C19.8391 110.986 19.8345 111.051 19.8251 111.116C19.8158 111.182 19.7738 111.196 19.6991 111.158H19.5591L19.6991 111.578C19.7365 111.653 19.7691 111.756 19.7971 111.886C19.8251 112.008 19.8391 112.12 19.8391 112.222C19.8391 112.316 19.8251 112.456 19.7971 112.642C19.7785 112.82 19.7458 113.011 19.6991 113.216C19.6618 113.422 19.6198 113.613 19.5731 113.79C19.5358 113.968 19.4985 114.098 19.4611 114.182C19.4331 114.238 19.4145 114.294 19.4051 114.35C19.4051 114.397 19.4051 114.439 19.4051 114.476C19.3678 114.551 19.3071 114.682 19.2231 114.868C19.1391 115.055 19.0785 115.186 19.0411 115.26C19.0038 115.298 18.9711 115.33 18.9431 115.358C18.9245 115.386 18.9338 115.419 18.9711 115.456C18.9711 115.484 18.9478 115.55 18.9011 115.652C18.8545 115.746 18.8031 115.834 18.7471 115.918C18.7005 116.002 18.6631 116.044 18.6351 116.044C18.6351 116.044 18.6211 116.049 18.5931 116.058C18.5745 116.058 18.5651 116.072 18.5651 116.1C18.5651 116.138 18.4998 116.236 18.3691 116.394C18.2478 116.553 18.1031 116.716 17.9351 116.884C17.8418 116.978 17.6925 117.099 17.4871 117.248C17.2818 117.388 17.0765 117.514 16.8711 117.626C16.6751 117.729 16.5258 117.78 16.4231 117.78ZM16.3951 116.436C16.4978 116.436 16.5958 116.422 16.6891 116.394C16.7825 116.357 16.8618 116.306 16.9271 116.24C17.0951 116.128 17.2538 115.979 17.4031 115.792C17.5618 115.606 17.6925 115.391 17.7951 115.148C17.8978 115.008 17.9771 114.864 18.0331 114.714C18.0985 114.556 18.1965 114.29 18.3271 113.916C18.4018 113.814 18.4531 113.688 18.4811 113.538C18.5091 113.389 18.5231 113.263 18.5231 113.16C18.5231 113.058 18.5231 112.918 18.5231 112.74C18.5325 112.563 18.5558 112.414 18.5931 112.292C18.5931 112.05 18.5885 111.91 18.5791 111.872C18.5698 111.826 18.5325 111.765 18.4671 111.69C18.4298 111.662 18.3785 111.634 18.3131 111.606C18.2571 111.578 18.1965 111.564 18.1311 111.564C18.0658 111.564 17.9771 111.583 17.8651 111.62C17.7625 111.648 17.6738 111.686 17.5991 111.732C17.5338 111.77 17.4591 111.774 17.3751 111.746C17.3005 111.718 17.2631 111.681 17.2631 111.634C17.2631 111.504 17.1978 111.513 17.0671 111.662C16.9458 111.802 16.7825 111.998 16.5771 112.25C16.4091 112.418 16.2645 112.591 16.1431 112.768C16.0311 112.936 15.9751 113.039 15.9751 113.076C15.9751 113.114 15.9611 113.16 15.9331 113.216C15.9051 113.272 15.8771 113.338 15.8491 113.412C15.8025 113.478 15.7465 113.585 15.6811 113.734C15.6158 113.884 15.5505 114.033 15.4851 114.182C15.4291 114.322 15.3918 114.43 15.3731 114.504C15.3731 114.542 15.3731 114.644 15.3731 114.812C15.3731 114.971 15.3731 115.12 15.3731 115.26C15.3731 115.419 15.3778 115.536 15.3871 115.61C15.3965 115.685 15.4105 115.746 15.4291 115.792C15.4571 115.839 15.4945 115.909 15.5411 116.002C15.5785 116.068 15.6345 116.147 15.7091 116.24C15.7931 116.324 15.8491 116.385 15.8771 116.422C15.9798 116.516 16.0451 116.553 16.0731 116.534C16.1105 116.506 16.2178 116.474 16.3951 116.436Z" fill="#0E0E0F"/>
<path d="M40.2585 114.645C40.0625 114.71 39.8992 114.743 39.7685 114.743C39.6379 114.734 39.4932 114.673 39.3345 114.561C39.1479 114.374 39.0825 114.188 39.1385 114.001C39.2039 113.805 39.3719 113.614 39.6425 113.427C39.8292 113.315 39.9645 113.259 40.0485 113.259C40.1419 113.25 40.2772 113.282 40.4545 113.357C40.7719 113.553 40.9119 113.772 40.8745 114.015C40.8372 114.248 40.6319 114.458 40.2585 114.645Z" fill="#0E0E0F"/>
<path d="M62.3331 113.545C62.2771 113.545 62.2024 113.545 62.1091 113.545C62.0251 113.536 61.9038 113.512 61.7451 113.475C61.6051 113.475 61.4931 113.461 61.4091 113.433C61.3251 113.396 61.2644 113.344 61.2271 113.279C61.0964 113.139 61.0824 112.999 61.1851 112.859C61.2878 112.71 61.5771 112.64 62.0531 112.649C62.4171 112.574 62.8044 112.523 63.2151 112.495C63.6258 112.467 64.0458 112.453 64.4751 112.453C64.7644 112.453 64.9698 112.481 65.0911 112.537C65.2218 112.584 65.3384 112.658 65.4411 112.761C65.6091 112.901 65.6698 113.055 65.6231 113.223C65.5764 113.382 65.4411 113.442 65.2171 113.405C65.1238 113.414 64.9558 113.424 64.7131 113.433C64.4798 113.442 64.2558 113.456 64.0411 113.475C63.9758 113.475 63.8451 113.484 63.6491 113.503C63.4624 113.512 63.2478 113.522 63.0051 113.531C62.7718 113.54 62.5478 113.545 62.3331 113.545ZM61.5631 115.547C61.5071 115.547 61.4324 115.547 61.3391 115.547C61.2551 115.538 61.1384 115.514 60.9891 115.477C60.8398 115.477 60.7231 115.463 60.6391 115.435C60.5644 115.398 60.5084 115.346 60.4711 115.281C60.3404 115.141 60.3264 115.001 60.4291 114.861C60.5318 114.712 60.8164 114.642 61.2831 114.651C61.6471 114.576 62.0344 114.525 62.4451 114.497C62.8558 114.469 63.2758 114.455 63.7051 114.455C63.9944 114.455 64.2044 114.483 64.3351 114.539C64.4658 114.595 64.5824 114.674 64.6851 114.777C64.8531 114.917 64.9091 115.066 64.8531 115.225C64.8064 115.384 64.6758 115.444 64.4611 115.407C64.3678 115.416 64.1951 115.426 63.9431 115.435C63.6911 115.444 63.4578 115.458 63.2431 115.477C63.1778 115.477 63.0518 115.486 62.8651 115.505C62.6784 115.514 62.4684 115.524 62.2351 115.533C62.0018 115.542 61.7778 115.547 61.5631 115.547Z" fill="#0E0E0F"/>
<path d="M84.2952 114.514C84.2392 114.514 84.1692 114.514 84.0852 114.514C84.0012 114.505 83.9079 114.482 83.8052 114.444C83.6652 114.444 83.5532 114.416 83.4692 114.36C83.3945 114.295 83.3385 114.23 83.3012 114.164C83.1985 114.024 83.2032 113.917 83.3152 113.842C83.4365 113.758 83.6699 113.698 84.0152 113.66C84.1739 113.623 84.4072 113.595 84.7152 113.576C85.0325 113.548 85.3732 113.53 85.7372 113.52C86.1012 113.502 86.4465 113.488 86.7732 113.478C87.0999 113.469 87.3565 113.464 87.5432 113.464C87.7859 113.464 88.0005 113.488 88.1872 113.534C88.3832 113.581 88.5325 113.656 88.6352 113.758C88.7752 113.898 88.8079 114.048 88.7332 114.206C88.6585 114.356 88.5139 114.412 88.2992 114.374C88.2525 114.374 88.1639 114.379 88.0332 114.388C87.9025 114.398 87.7579 114.407 87.5992 114.416C87.4499 114.426 87.3192 114.435 87.2072 114.444C87.1512 114.444 86.9972 114.449 86.7452 114.458C86.4932 114.468 86.1992 114.477 85.8632 114.486C85.5365 114.496 85.2239 114.505 84.9252 114.514C84.6359 114.514 84.4259 114.514 84.2952 114.514ZM86.1712 116.698C86.0312 116.801 85.9192 116.796 85.8352 116.684C85.7605 116.563 85.7045 116.33 85.6672 115.984C85.6299 115.826 85.5972 115.592 85.5692 115.284C85.5505 114.967 85.5319 114.626 85.5132 114.262C85.5039 113.898 85.4945 113.553 85.4852 113.226C85.4759 112.9 85.4712 112.643 85.4712 112.456C85.4712 112.214 85.4945 111.999 85.5412 111.812C85.5879 111.616 85.6579 111.467 85.7512 111.364C85.8912 111.224 86.0405 111.192 86.1992 111.266C86.3579 111.341 86.4185 111.486 86.3812 111.7C86.3905 111.747 86.3952 111.836 86.3952 111.966C86.4045 112.097 86.4139 112.242 86.4232 112.4C86.4325 112.55 86.4419 112.68 86.4512 112.792C86.4512 112.848 86.4559 113.002 86.4652 113.254C86.4745 113.506 86.4839 113.8 86.4932 114.136C86.5025 114.463 86.5072 114.776 86.5072 115.074C86.5165 115.364 86.5212 115.574 86.5212 115.704C86.5212 115.76 86.5165 115.83 86.5072 115.914C86.5072 115.998 86.4885 116.092 86.4512 116.194C86.4512 116.334 86.4185 116.446 86.3532 116.53C86.2972 116.605 86.2365 116.661 86.1712 116.698Z" fill="#0E0E0F"/>
<path d="M85.1355 92.5251C85.0795 92.5251 85.0095 92.5251 84.9255 92.5251C84.8415 92.5158 84.7482 92.4924 84.6455 92.4551C84.5055 92.4551 84.3935 92.4271 84.3095 92.3711C84.2349 92.3058 84.1789 92.2404 84.1415 92.1751C84.0389 92.0351 84.0435 91.9278 84.1555 91.8531C84.2769 91.7691 84.5102 91.7084 84.8555 91.6711C85.1729 91.5964 85.4855 91.5451 85.7935 91.5171C86.1015 91.4891 86.4422 91.4751 86.8155 91.4751C87.0582 91.4751 87.2542 91.4984 87.4035 91.5451C87.5622 91.5918 87.6929 91.6664 87.7955 91.7691C87.9355 91.9091 87.9682 92.0584 87.8935 92.2171C87.8189 92.3664 87.6742 92.4224 87.4595 92.3851C87.3942 92.3944 87.2542 92.4038 87.0395 92.4131C86.8342 92.4224 86.6475 92.4364 86.4795 92.4551C86.3769 92.4644 86.1949 92.4784 85.9335 92.4971C85.6722 92.5158 85.4062 92.5251 85.1355 92.5251Z" fill="#0E0E0F"/>
<path d="M88.0476 70.8702C88.029 71.0382 87.945 71.1082 87.7956 71.0802C87.6556 71.0522 87.4503 70.9309 87.1796 70.7162C87.077 70.6509 86.9323 70.5435 86.7456 70.3942C86.5683 70.2355 86.3676 70.0582 86.1436 69.8622C85.929 69.6662 85.7096 69.4655 85.4856 69.2602C85.271 69.0549 85.0703 68.8635 84.8836 68.6862C84.7063 68.5089 84.5616 68.3689 84.4496 68.2662C84.2816 68.0982 84.1463 67.9302 84.0436 67.7622C83.9503 67.5942 83.899 67.4355 83.8896 67.2862C83.8896 67.0902 83.969 66.9642 84.1276 66.9082C84.2956 66.8522 84.4403 66.9082 84.5616 67.0762C84.6083 67.1229 84.725 67.2302 84.9116 67.3982C85.0983 67.5569 85.257 67.6922 85.3876 67.8042C85.4156 67.8322 85.495 67.9115 85.6256 68.0422C85.7656 68.1635 85.929 68.3175 86.1156 68.5042C86.3023 68.6815 86.4936 68.8635 86.6896 69.0502C86.8856 69.2369 87.063 69.4095 87.2216 69.5682C87.3896 69.7269 87.511 69.8435 87.5856 69.9182C87.6323 69.9555 87.679 70.0069 87.7256 70.0722C87.7816 70.1282 87.833 70.2075 87.8796 70.3102C87.9823 70.4035 88.0383 70.5015 88.0476 70.6042C88.0663 70.7069 88.0663 70.7955 88.0476 70.8702ZM84.1276 71.0942C83.9596 71.0755 83.8896 70.9962 83.9176 70.8562C83.9456 70.7069 84.067 70.5015 84.2816 70.2402C84.3563 70.1282 84.4683 69.9835 84.6176 69.8062C84.767 69.6195 84.9396 69.4189 85.1356 69.2042C85.3316 68.9802 85.5323 68.7609 85.7376 68.5462C85.943 68.3222 86.1343 68.1215 86.3116 67.9442C86.489 67.7575 86.629 67.6129 86.7316 67.5102C86.8996 67.3422 87.0676 67.2069 87.2356 67.1042C87.4036 67.0015 87.5623 66.9502 87.7116 66.9502C87.9076 66.9502 88.0336 67.0295 88.0896 67.1882C88.1456 67.3469 88.0896 67.4869 87.9216 67.6082C87.875 67.6642 87.7676 67.7855 87.5996 67.9722C87.441 68.1589 87.3056 68.3175 87.1936 68.4482C87.1656 68.4762 87.0863 68.5602 86.9556 68.7002C86.8343 68.8309 86.6803 68.9895 86.4936 69.1762C86.3163 69.3629 86.1343 69.5542 85.9476 69.7502C85.761 69.9462 85.5883 70.1282 85.4296 70.2962C85.271 70.4549 85.1543 70.5715 85.0796 70.6462C85.0423 70.6835 84.991 70.7302 84.9256 70.7862C84.8696 70.8422 84.7903 70.8935 84.6876 70.9402C84.5943 71.0429 84.4963 71.0989 84.3936 71.1082C84.291 71.1175 84.2023 71.1129 84.1276 71.0942Z" fill="#0E0E0F"/>
<path d="M84.2952 46.5902C84.2392 46.5902 84.1692 46.5902 84.0852 46.5902C84.0012 46.5809 83.9079 46.5575 83.8052 46.5202C83.6652 46.5202 83.5532 46.4922 83.4692 46.4362C83.3945 46.3709 83.3385 46.3055 83.3012 46.2402C83.1985 46.1002 83.2032 45.9929 83.3152 45.9182C83.4365 45.8342 83.6699 45.7735 84.0152 45.7362C84.1739 45.6989 84.4072 45.6709 84.7152 45.6522C85.0325 45.6242 85.3732 45.6055 85.7372 45.5962C86.1012 45.5775 86.4465 45.5635 86.7732 45.5542C87.0999 45.5449 87.3565 45.5402 87.5432 45.5402C87.7859 45.5402 88.0005 45.5635 88.1872 45.6102C88.3832 45.6569 88.5325 45.7315 88.6352 45.8342C88.7752 45.9742 88.8079 46.1235 88.7332 46.2822C88.6585 46.4315 88.5139 46.4875 88.2992 46.4502C88.2525 46.4502 88.1639 46.4549 88.0332 46.4642C87.9025 46.4735 87.7579 46.4829 87.5992 46.4922C87.4499 46.5015 87.3192 46.5109 87.2072 46.5202C87.1512 46.5202 86.9972 46.5249 86.7452 46.5342C86.4932 46.5435 86.1992 46.5529 85.8632 46.5622C85.5365 46.5715 85.2239 46.5809 84.9252 46.5902C84.6359 46.5902 84.4259 46.5902 84.2952 46.5902ZM84.8832 49.1802C84.7805 49.1055 84.7012 49.0169 84.6452 48.9142C84.5985 48.8115 84.5705 48.7182 84.5612 48.6342C84.5612 48.5409 84.5705 48.4849 84.5892 48.4662C84.6825 48.3635 84.7619 48.2282 84.8272 48.0602C84.9019 47.8829 84.9812 47.7289 85.0652 47.5982C85.0839 47.5609 85.1072 47.5189 85.1352 47.4722C85.1725 47.4255 85.2099 47.3975 85.2472 47.3882C85.3592 47.3135 85.5132 47.3182 85.7092 47.4022C85.9145 47.4862 86.0639 47.6029 86.1572 47.7522C86.2412 47.9295 86.2645 48.1115 86.2272 48.2982C86.1992 48.4849 86.1012 48.6809 85.9332 48.8862C85.7932 49.0729 85.6159 49.1895 85.4012 49.2362C85.1865 49.2922 85.0139 49.2735 84.8832 49.1802ZM86.1712 44.5742C86.0685 44.4995 85.9892 44.4109 85.9332 44.3082C85.8865 44.2055 85.8585 44.1122 85.8492 44.0282C85.8399 43.9349 85.8445 43.8835 85.8632 43.8742C85.9659 43.7622 86.0499 43.6222 86.1152 43.4542C86.1899 43.2862 86.2645 43.1322 86.3392 42.9922C86.3579 42.9642 86.3812 42.9269 86.4092 42.8802C86.4465 42.8242 86.4839 42.7915 86.5212 42.7822C86.6332 42.7075 86.7872 42.7169 86.9832 42.8102C87.1885 42.8942 87.3379 43.0109 87.4312 43.1602C87.5152 43.3375 87.5385 43.5195 87.5012 43.7062C87.4732 43.8929 87.3752 44.0889 87.2072 44.2942C87.0672 44.4809 86.8899 44.5975 86.6752 44.6442C86.4699 44.6909 86.3019 44.6675 86.1712 44.5742Z" fill="#0E0E0F"/>
<path d="M85.8255 25.3413C85.7602 25.332 85.6715 25.29 85.5595 25.2153C85.4475 25.1406 85.3355 25.0566 85.2235 24.9633C85.1115 24.8793 85.0275 24.814 84.9715 24.7673C84.9062 24.6086 84.8595 24.4873 84.8315 24.4033C84.8035 24.3193 84.8035 24.1793 84.8315 23.9833C84.8315 23.8713 84.8409 23.7406 84.8595 23.5913C84.8875 23.442 84.9342 23.3206 84.9995 23.2273C85.0649 23.0406 85.1675 22.8213 85.3075 22.5693C85.4569 22.3173 85.6155 22.0653 85.7835 21.8133C85.9609 21.5613 86.1242 21.3326 86.2735 21.1273C86.4322 20.9126 86.5489 20.7586 86.6235 20.6653C86.7262 20.5346 86.7729 20.4273 86.7635 20.3433C86.7635 20.25 86.6702 20.0773 86.4835 19.8253C86.4462 19.7226 86.4042 19.648 86.3575 19.6013C86.3109 19.5453 86.3062 19.5173 86.3435 19.5173C86.3435 19.5173 86.3295 19.5033 86.3015 19.4753C86.2829 19.438 86.2595 19.3866 86.2315 19.3213C86.0915 19.1906 86.0215 18.99 86.0215 18.7193C86.0309 18.4486 86.1009 18.1826 86.2315 17.9213C86.3809 17.5853 86.5815 17.296 86.8335 17.0533C87.0855 16.8106 87.3515 16.6706 87.6315 16.6333C87.7342 16.6426 87.9115 16.6706 88.1635 16.7173C88.4249 16.764 88.6909 16.8153 88.9615 16.8713C89.2415 16.9273 89.4609 16.9926 89.6195 17.0673C89.7315 17.114 89.8762 17.198 90.0535 17.3193C90.2402 17.4406 90.4082 17.562 90.5575 17.6833C90.7069 17.8046 90.7862 17.8933 90.7955 17.9493C90.7955 17.9773 90.8095 18.01 90.8375 18.0473C90.8749 18.0753 90.8982 18.1126 90.9075 18.1593C90.9635 18.262 90.9915 18.402 90.9915 18.5793C91.0009 18.7566 90.9915 18.9293 90.9635 19.0973C90.9355 19.2653 90.8935 19.3913 90.8375 19.4753C90.6042 19.7366 90.4409 19.886 90.3475 19.9233C90.3009 19.9606 90.2449 20.0073 90.1795 20.0633C90.1235 20.1193 90.0582 20.1566 89.9835 20.1753C89.9369 20.2406 89.8902 20.2966 89.8435 20.3433C89.8062 20.39 89.7689 20.4133 89.7315 20.4133C89.6942 20.3853 89.6569 20.3713 89.6195 20.3713C89.5822 20.362 89.5635 20.376 89.5635 20.4133C89.5635 20.432 89.4982 20.474 89.3675 20.5393C89.2462 20.6046 89.1202 20.6606 88.9895 20.7073C88.8589 20.754 88.7749 20.768 88.7375 20.7493C88.7375 20.7493 88.7235 20.7493 88.6955 20.7493C88.6675 20.7493 88.6255 20.768 88.5695 20.8053C88.4482 20.7866 88.5182 20.936 88.7795 21.2533C88.9942 21.6546 89.1529 22.042 89.2555 22.4153C89.3675 22.7793 89.3535 23.0593 89.2135 23.2553C89.0362 23.6566 88.8449 23.988 88.6395 24.2493C88.4342 24.5013 88.2709 24.6226 88.1495 24.6133C88.1495 24.6133 88.1262 24.6273 88.0795 24.6553C88.0422 24.6833 88.0002 24.7113 87.9535 24.7393C87.9349 24.8046 87.8929 24.8466 87.8275 24.8653C87.7715 24.8933 87.7202 24.9026 87.6735 24.8933C87.5895 24.856 87.4449 24.9026 87.2395 25.0333C87.1182 25.1173 86.9595 25.1873 86.7635 25.2433C86.5675 25.2993 86.3762 25.3366 86.1895 25.3553C86.0122 25.374 85.8909 25.3693 85.8255 25.3413ZM86.1475 24.2773C86.2409 24.2866 86.3622 24.2633 86.5115 24.2073C86.6702 24.1513 86.8335 24.0766 87.0015 23.9833C87.1789 23.89 87.3375 23.7966 87.4775 23.7033C87.7762 23.47 87.9769 23.2366 88.0795 23.0033C88.1915 22.77 88.2009 22.5366 88.1075 22.3033C88.0515 22.1913 87.9909 22.07 87.9255 21.9393C87.8602 21.8086 87.8042 21.706 87.7575 21.6313C87.7015 21.5473 87.6502 21.4866 87.6035 21.4493C87.5662 21.412 87.5242 21.3793 87.4775 21.3513C87.4775 21.3513 87.4542 21.384 87.4075 21.4493C87.3702 21.5053 87.3282 21.5846 87.2815 21.6873C87.1789 21.818 87.1182 21.8973 87.0995 21.9253C87.0809 21.9533 87.0529 22 87.0155 22.0653C86.9502 22.1306 86.8895 22.1913 86.8335 22.2473C86.7775 22.3033 86.7355 22.3453 86.7075 22.3733C86.7075 22.4013 86.6795 22.4853 86.6235 22.6253C86.5675 22.756 86.5022 22.8866 86.4275 23.0173C86.2222 23.372 86.0915 23.666 86.0355 23.8993C85.9889 24.1326 86.0262 24.2586 86.1475 24.2773ZM88.3175 19.7133C88.5135 19.536 88.6675 19.4333 88.7795 19.4053C88.8915 19.3773 88.9755 19.4146 89.0315 19.5173C89.0502 19.5546 89.1389 19.5313 89.2975 19.4473C89.4655 19.354 89.6242 19.228 89.7735 19.0693C89.8295 18.9666 89.8435 18.9153 89.8155 18.9153C89.7969 18.9153 89.7782 18.8406 89.7595 18.6913C89.7689 18.598 89.7689 18.5233 89.7595 18.4673C89.7502 18.4113 89.7082 18.3553 89.6335 18.2993C89.5589 18.2433 89.4235 18.178 89.2275 18.1033C88.6489 17.898 88.2055 17.8326 87.8975 17.9073C87.5895 17.9726 87.3749 18.1686 87.2535 18.4953C87.1975 18.6726 87.1695 18.8173 87.1695 18.9293C87.1695 19.0413 87.2069 19.1766 87.2815 19.3353C87.3655 19.3726 87.4215 19.424 87.4495 19.4893C87.4775 19.5453 87.4915 19.5733 87.4915 19.5733C87.4915 19.6573 87.5289 19.6993 87.6035 19.6993C87.6222 19.746 87.6875 19.7973 87.7995 19.8533C87.9115 19.9093 88.0842 19.8626 88.3175 19.7133Z" fill="#0E0E0F"/>
<path d="M81.6086 24.8513C81.5713 24.8513 81.4779 24.7859 81.3286 24.6553C81.1886 24.5246 81.1186 24.3286 81.1186 24.0673C81.1279 23.7779 81.1746 23.4746 81.2586 23.1573C81.3519 22.8306 81.4406 22.5413 81.5246 22.2893C81.5806 22.1213 81.6273 21.9813 81.6646 21.8693C81.7113 21.7573 81.7346 21.6873 81.7346 21.6593C81.7253 21.6593 81.6739 21.6686 81.5806 21.6873C81.4966 21.7059 81.3893 21.7293 81.2586 21.7573C80.8013 21.8506 80.4513 21.8973 80.2086 21.8973C79.9753 21.8973 79.7746 21.7573 79.6066 21.4773C79.5506 21.4213 79.4759 21.3186 79.3826 21.1693C79.2893 21.0199 79.2239 20.8566 79.1866 20.6793C79.1586 20.5019 79.2053 20.3526 79.3266 20.2313C79.4199 19.9979 79.4946 19.8299 79.5506 19.7273C79.6066 19.6246 79.6439 19.5499 79.6626 19.5033C79.6906 19.4566 79.7046 19.4099 79.7046 19.3633C79.7139 19.3446 79.7279 19.3166 79.7466 19.2793C79.7653 19.2419 79.7886 19.2046 79.8166 19.1673C79.9006 19.0273 80.0173 18.8453 80.1666 18.6213C80.3253 18.3973 80.4886 18.1733 80.6566 17.9493C80.8339 17.7159 80.9926 17.5106 81.1326 17.3333C81.2726 17.1466 81.3753 17.0253 81.4406 16.9693C81.4966 16.9413 81.5946 16.8993 81.7346 16.8433C81.8839 16.7873 81.9913 16.7593 82.0566 16.7593C82.1313 16.7593 82.2013 16.8106 82.2666 16.9133C82.3413 17.0066 82.4019 17.1046 82.4486 17.2073C82.4953 17.3099 82.5186 17.3799 82.5186 17.4173C82.5186 17.4173 82.5139 17.4266 82.5046 17.4453C82.4953 17.4639 82.4766 17.4966 82.4486 17.5433C82.4113 17.5993 82.3553 17.6739 82.2806 17.7673C82.2153 17.8606 82.1173 17.9819 81.9866 18.1313C81.8746 18.2619 81.7346 18.4533 81.5666 18.7053C81.3986 18.9479 81.2306 19.2093 81.0626 19.4893C80.9039 19.7599 80.7686 20.0026 80.6566 20.2173C80.5446 20.4319 80.4886 20.5766 80.4886 20.6513C80.4886 20.6979 80.5026 20.7353 80.5306 20.7633C80.5679 20.7819 80.6333 20.7913 80.7266 20.7913C80.8479 20.7726 80.9553 20.7539 81.0486 20.7353C81.1513 20.7166 81.2446 20.6979 81.3286 20.6793C81.4313 20.6606 81.5199 20.6419 81.5946 20.6233C81.6693 20.5953 81.7393 20.5719 81.8046 20.5533C81.8793 20.5253 81.9446 20.5019 82.0006 20.4833C82.0659 20.4553 82.1219 20.4226 82.1686 20.3853C82.2806 20.2919 82.3646 20.1659 82.4206 20.0073C82.4766 19.8486 82.5653 19.6339 82.6866 19.3633C82.7613 19.1766 82.8359 19.0086 82.9106 18.8593C82.9946 18.7006 83.0693 18.5559 83.1346 18.4253C83.3679 17.9959 83.5639 17.6833 83.7226 17.4873C83.8813 17.2819 83.9699 17.1793 83.9886 17.1793C84.0166 17.1793 84.0819 17.2166 84.1846 17.2913C84.2873 17.3659 84.3853 17.4453 84.4786 17.5293C84.5533 17.5946 84.6139 17.6553 84.6606 17.7113C84.7073 17.7579 84.7306 17.7906 84.7306 17.8093C84.7306 17.9213 84.7026 18.0379 84.6466 18.1593C84.5999 18.2713 84.5299 18.4019 84.4366 18.5513C84.3433 18.7006 84.2359 18.8919 84.1146 19.1253C83.9746 19.3959 83.8439 19.6666 83.7226 19.9373C83.6013 20.1986 83.4846 20.4599 83.3726 20.7213C83.2606 20.9733 83.1579 21.2206 83.0646 21.4633C82.9713 21.7059 82.8826 21.9346 82.7986 22.1493C82.5933 22.6999 82.4533 23.1059 82.3786 23.3673C82.3039 23.6286 82.2666 23.8106 82.2666 23.9133C82.2759 24.0066 82.2946 24.0859 82.3226 24.1513C82.3226 24.2726 82.2853 24.3893 82.2106 24.5013C82.1359 24.6039 82.0426 24.6879 81.9306 24.7533C81.8186 24.8186 81.7113 24.8513 81.6086 24.8513Z" fill="#0E0E0F"/>
<path d="M74.7737 24.6411C74.7084 24.6411 74.5871 24.6177 74.4097 24.5711C74.2417 24.5244 74.0644 24.4684 73.8777 24.4031C73.7004 24.3284 73.5604 24.2491 73.4577 24.1651C73.1404 23.8944 72.9117 23.5957 72.7717 23.2691C72.6317 22.9331 72.5477 22.5924 72.5197 22.2471C72.5011 21.9017 72.5151 21.5751 72.5617 21.2671C72.6644 20.6697 72.8791 20.0771 73.2057 19.4891C73.5324 18.8917 73.9244 18.3971 74.3817 18.0051C74.6244 17.7904 74.8671 17.6084 75.1097 17.4591C75.3524 17.3097 75.6137 17.2024 75.8937 17.1371C75.9964 17.1091 76.1411 17.0951 76.3277 17.0951C76.5237 17.0857 76.6544 17.0811 76.7197 17.0811C76.9064 17.0811 77.1117 17.1231 77.3357 17.2071C77.5691 17.2817 77.7697 17.3751 77.9377 17.4871C78.1057 17.5897 78.1897 17.6877 78.1897 17.7811C78.1897 17.8464 78.1851 17.9117 78.1757 17.9771C78.1664 18.0424 78.1244 18.0564 78.0497 18.0191H77.9097L78.0497 18.4391C78.0871 18.5137 78.1197 18.6164 78.1477 18.7471C78.1757 18.8684 78.1897 18.9804 78.1897 19.0831C78.1897 19.1764 78.1757 19.3164 78.1477 19.5031C78.1291 19.6804 78.0964 19.8717 78.0497 20.0771C78.0124 20.2824 77.9704 20.4737 77.9237 20.6511C77.8864 20.8284 77.8491 20.9591 77.8117 21.0431C77.7837 21.0991 77.7651 21.1551 77.7557 21.2111C77.7557 21.2577 77.7557 21.2997 77.7557 21.3371C77.7184 21.4117 77.6577 21.5424 77.5737 21.7291C77.4897 21.9157 77.4291 22.0464 77.3917 22.1211C77.3544 22.1584 77.3217 22.1911 77.2937 22.2191C77.2751 22.2471 77.2844 22.2797 77.3217 22.3171C77.3217 22.3451 77.2984 22.4104 77.2517 22.5131C77.2051 22.6064 77.1537 22.6951 77.0977 22.7791C77.0511 22.8631 77.0137 22.9051 76.9857 22.9051C76.9857 22.9051 76.9717 22.9097 76.9437 22.9191C76.9251 22.9191 76.9157 22.9331 76.9157 22.9611C76.9157 22.9984 76.8504 23.0964 76.7197 23.2551C76.5984 23.4137 76.4537 23.5771 76.2857 23.7451C76.1924 23.8384 76.0431 23.9597 75.8377 24.1091C75.6324 24.2491 75.4271 24.3751 75.2217 24.4871C75.0257 24.5897 74.8764 24.6411 74.7737 24.6411ZM74.7457 23.2971C74.8484 23.2971 74.9464 23.2831 75.0397 23.2551C75.1331 23.2177 75.2124 23.1664 75.2777 23.1011C75.4457 22.9891 75.6044 22.8397 75.7537 22.6531C75.9124 22.4664 76.0431 22.2517 76.1457 22.0091C76.2484 21.8691 76.3277 21.7244 76.3837 21.5751C76.4491 21.4164 76.5471 21.1504 76.6777 20.7771C76.7524 20.6744 76.8037 20.5484 76.8317 20.3991C76.8597 20.2497 76.8737 20.1237 76.8737 20.0211C76.8737 19.9184 76.8737 19.7784 76.8737 19.6011C76.8831 19.4237 76.9064 19.2744 76.9437 19.1531C76.9437 18.9104 76.9391 18.7704 76.9297 18.7331C76.9204 18.6864 76.8831 18.6257 76.8177 18.5511C76.7804 18.5231 76.7291 18.4951 76.6637 18.4671C76.6077 18.4391 76.5471 18.4251 76.4817 18.4251C76.4164 18.4251 76.3277 18.4437 76.2157 18.4811C76.1131 18.5091 76.0244 18.5464 75.9497 18.5931C75.8844 18.6304 75.8097 18.6351 75.7257 18.6071C75.6511 18.5791 75.6137 18.5417 75.6137 18.4951C75.6137 18.3644 75.5484 18.3737 75.4177 18.5231C75.2964 18.6631 75.1331 18.8591 74.9277 19.1111C74.7597 19.2791 74.6151 19.4517 74.4937 19.6291C74.3817 19.7971 74.3257 19.8997 74.3257 19.9371C74.3257 19.9744 74.3117 20.0211 74.2837 20.0771C74.2557 20.1331 74.2277 20.1984 74.1997 20.2731C74.1531 20.3384 74.0971 20.4457 74.0317 20.5951C73.9664 20.7444 73.9011 20.8937 73.8357 21.0431C73.7797 21.1831 73.7424 21.2904 73.7237 21.3651C73.7237 21.4024 73.7237 21.5051 73.7237 21.6731C73.7237 21.8317 73.7237 21.9811 73.7237 22.1211C73.7237 22.2797 73.7284 22.3964 73.7377 22.4711C73.7471 22.5457 73.7611 22.6064 73.7797 22.6531C73.8077 22.6997 73.8451 22.7697 73.8917 22.8631C73.9291 22.9284 73.9851 23.0077 74.0597 23.1011C74.1437 23.1851 74.1997 23.2457 74.2277 23.2831C74.3304 23.3764 74.3957 23.4137 74.4237 23.3951C74.4611 23.3671 74.5684 23.3344 74.7457 23.2971Z" fill="#0E0E0F"/>
<path d="M66.637 24.5712C66.5997 24.5525 66.5343 24.5012 66.441 24.4172C66.357 24.3332 66.273 24.2399 66.189 24.1372C66.105 24.0252 66.049 23.9412 66.021 23.8852C65.993 23.8385 65.993 23.7545 66.021 23.6332C66.0583 23.5119 66.0957 23.4512 66.133 23.4512C66.161 23.4699 66.1983 23.4372 66.245 23.3532C66.2917 23.2692 66.3383 23.1805 66.385 23.0872C66.4317 22.9845 66.455 22.9239 66.455 22.9052C66.4643 22.8679 66.4877 22.8399 66.525 22.8212C66.5717 22.7932 66.6137 22.7652 66.651 22.7372C66.6977 22.6625 66.7583 22.5879 66.833 22.5132C66.917 22.4292 66.9823 22.3592 67.029 22.3032C67.1037 22.2099 67.239 22.0699 67.435 21.8832C67.631 21.6965 67.8223 21.5052 68.009 21.3092C68.205 21.0945 68.3777 20.9079 68.527 20.7492C68.6763 20.5812 68.7557 20.4645 68.765 20.3992C68.765 20.3992 68.779 20.3852 68.807 20.3572C68.8443 20.3199 68.8863 20.2872 68.933 20.2592C68.9797 20.2312 69.0403 20.1845 69.115 20.1192C69.199 20.0539 69.269 19.9932 69.325 19.9372C69.3437 19.8625 69.3857 19.7785 69.451 19.6852C69.5257 19.5825 69.6097 19.4845 69.703 19.3912C69.7777 19.2792 69.8477 19.1579 69.913 19.0272C69.9783 18.8872 70.0203 18.7845 70.039 18.7192C70.067 18.6165 70.0577 18.5559 70.011 18.5372C69.9643 18.5092 69.8383 18.4625 69.633 18.3972C69.409 18.3225 69.199 18.3085 69.003 18.3552C68.807 18.4019 68.5457 18.5419 68.219 18.7752C68.0883 18.8032 67.967 18.8405 67.855 18.8872C67.7523 18.9339 67.6637 18.9525 67.589 18.9432C67.5517 18.9245 67.5097 18.8825 67.463 18.8172C67.4163 18.7519 67.365 18.6912 67.309 18.6352L67.169 18.0332L67.603 17.7952C67.9857 17.5525 68.3497 17.3705 68.695 17.2492C69.0497 17.1185 69.3577 17.0952 69.619 17.1792C69.7217 17.1792 69.815 17.1932 69.899 17.2212C69.983 17.2399 70.025 17.2492 70.025 17.2492C70.0997 17.2399 70.207 17.2772 70.347 17.3612C70.4963 17.4452 70.641 17.5525 70.781 17.6832C70.9303 17.8139 71.033 17.9445 71.089 18.0752C71.2383 18.2992 71.2943 18.5699 71.257 18.8872C71.2197 19.2045 71.0843 19.5359 70.851 19.8812C70.8043 19.9372 70.7017 20.0539 70.543 20.2312C70.3843 20.4085 70.2023 20.6092 69.997 20.8332C69.801 21.0479 69.619 21.2392 69.451 21.4072C69.2923 21.5752 69.1897 21.6825 69.143 21.7292C69.0777 21.7572 68.9657 21.8459 68.807 21.9952C68.6577 22.1445 68.4943 22.3125 68.317 22.4992C68.149 22.6765 68.0043 22.8352 67.883 22.9752C67.771 23.1059 67.7243 23.1712 67.743 23.1712C67.7337 23.2085 67.7803 23.2085 67.883 23.1712C67.995 23.1245 68.093 23.0872 68.177 23.0592C68.317 23.0125 68.4803 22.9705 68.667 22.9332C68.863 22.8865 69.059 22.8492 69.255 22.8212C69.451 22.7932 69.619 22.7745 69.759 22.7652C69.9083 22.7559 69.997 22.7652 70.025 22.7932C70.0437 22.8399 70.0577 22.8585 70.067 22.8492C70.0857 22.8305 70.095 22.8212 70.095 22.8212C70.1137 22.7559 70.2303 22.7372 70.445 22.7652C70.669 22.7932 70.8697 22.8352 71.047 22.8912C71.1497 22.9192 71.229 22.9565 71.285 23.0032C71.3503 23.0499 71.383 23.0919 71.383 23.1292C71.383 23.1292 71.3923 23.1525 71.411 23.1992C71.439 23.2365 71.481 23.2879 71.537 23.3532C71.6863 23.4745 71.6863 23.6052 71.537 23.7452C71.397 23.8852 71.1403 23.9225 70.767 23.8572C70.5243 23.8572 70.3237 23.8712 70.165 23.8992C70.1277 23.9179 70.0483 23.9272 69.927 23.9272C69.8057 23.9272 69.689 23.9319 69.577 23.9412C69.409 23.9225 69.241 23.9319 69.073 23.9692C68.905 23.9972 68.7043 24.0485 68.471 24.1232C68.387 24.1512 68.2563 24.1932 68.079 24.2492C67.9017 24.3052 67.7103 24.3612 67.505 24.4172C67.2997 24.4732 67.113 24.5152 66.945 24.5432C66.7863 24.5712 66.6837 24.5805 66.637 24.5712Z" fill="#0E0E0F"/>
</svg>
