<svg width="122" height="79" viewBox="0 0 122 79" fill="none" xmlns="http://www.w3.org/2000/svg">
<rect x="1" y="48" width="120" height="30" fill="#D1DBC2" stroke="#0E0E0F" stroke-width="2"/>
<path d="M95.5 54H93M90 54H51.5" stroke="white" stroke-width="2" stroke-linecap="round" stroke-linejoin="round"/>
<path d="M61 1C35.0426 1 14 22.0426 14 48H39C39 35.8497 48.8497 26 61 26C73.1503 26 83 35.8497 83 48H108C108 22.0426 86.9574 1 61 1Z" fill="#D1DBC2" stroke="#0E0E0F" stroke-width="2"/>
<path d="M55.5 19.5209C57.2808 19.179 59.1195 19 61 19C71.0412 19 79.8904 24.1032 85.0956 31.8576M87.6304 36.5C87.3742 35.9076 87.0989 35.3254 86.8051 34.7542" stroke="white" stroke-width="2" stroke-linecap="round" stroke-linejoin="round"/>
<path d="M96.7393 38.4238L106.399 35.8356" stroke="#0E0E0F" stroke-width="2"/>
<path d="M93.043 29.5005L101.703 24.5005" stroke="#0E0E0F" stroke-width="2"/>
<path d="M87.1631 21.8374L94.2342 14.7663" stroke="#0E0E0F" stroke-width="2"/>
<path d="M79.5 15.9575L84.5 7.29727" stroke="#0E0E0F" stroke-width="2"/>
<path d="M70.5762 12.2612L73.1644 2.60197" stroke="#0E0E0F" stroke-width="2"/>
<path d="M61 11.0005V1.00049" stroke="#0E0E0F" stroke-width="2"/>
<path d="M51.4238 12.2612L48.8356 2.60197" stroke="#0E0E0F" stroke-width="2"/>
<path d="M42.5 15.9575L37.5 7.29727" stroke="#0E0E0F" stroke-width="2"/>
<path d="M34.8369 21.8374L27.7658 14.7663" stroke="#0E0E0F" stroke-width="2"/>
<path d="M28.957 29.5005L20.2968 24.5005" stroke="#0E0E0F" stroke-width="2"/>
<path d="M25.2607 38.4243L15.6015 35.8361" stroke="#0E0E0F" stroke-width="2"/>
<path d="M13 68V76" stroke="#0E0E0F" stroke-width="2"/>
<path d="M17 72V76" stroke="#0E0E0F" stroke-width="2"/>
<path d="M9 72V76" stroke="#0E0E0F" stroke-width="2"/>
<path d="M5 72V76" stroke="#0E0E0F" stroke-width="2"/>
<path d="M33 72V76" stroke="#0E0E0F" stroke-width="2"/>
<path d="M49 72V76" stroke="#0E0E0F" stroke-width="2"/>
<path d="M65 72V76" stroke="#0E0E0F" stroke-width="2"/>
<path d="M81 72V76" stroke="#0E0E0F" stroke-width="2"/>
<path d="M97 72V76" stroke="#0E0E0F" stroke-width="2"/>
<path d="M21 72V76" stroke="#0E0E0F" stroke-width="2"/>
<path d="M37 72V76" stroke="#0E0E0F" stroke-width="2"/>
<path d="M53 72V76" stroke="#0E0E0F" stroke-width="2"/>
<path d="M69 72V76" stroke="#0E0E0F" stroke-width="2"/>
<path d="M85 72V76" stroke="#0E0E0F" stroke-width="2"/>
<path d="M101 72V76" stroke="#0E0E0F" stroke-width="2"/>
<path d="M25 72V76" stroke="#0E0E0F" stroke-width="2"/>
<path d="M41 72V76" stroke="#0E0E0F" stroke-width="2"/>
<path d="M57 72V76" stroke="#0E0E0F" stroke-width="2"/>
<path d="M73 72V76" stroke="#0E0E0F" stroke-width="2"/>
<path d="M89 72V76" stroke="#0E0E0F" stroke-width="2"/>
<path d="M105 72V76" stroke="#0E0E0F" stroke-width="2"/>
<path d="M113 72V76" stroke="#0E0E0F" stroke-width="2"/>
<path d="M117 72V76" stroke="#0E0E0F" stroke-width="2"/>
<path d="M29 68V76" stroke="#0E0E0F" stroke-width="2"/>
<path d="M45 68V76" stroke="#0E0E0F" stroke-width="2"/>
<path d="M61 68V76" stroke="#0E0E0F" stroke-width="2"/>
<path d="M77 68V76" stroke="#0E0E0F" stroke-width="2"/>
<path d="M93 68V76" stroke="#0E0E0F" stroke-width="2"/>
<path d="M109 68V76" stroke="#0E0E0F" stroke-width="2"/>
</svg>
