<svg width="260" height="360" viewBox="0 0 260 360" fill="none" xmlns="http://www.w3.org/2000/svg">
<g clip-path="url(#clip0_2545_55499)">
<circle cx="166" cy="121" r="65" stroke="black" stroke-width="6"/>
<circle cx="244.5" cy="324.5" r="32.5" stroke="black" stroke-width="6"/>
<circle cx="130" cy="28" r="25" stroke="black" stroke-width="6"/>
<circle cx="166" cy="121" r="26" stroke="black" stroke-width="6"/>
<rect x="33" y="320" width="118" height="37" stroke="black" stroke-width="6" stroke-linejoin="round"/>
<path d="M33 320V357L3 338.5L33 320Z" stroke="black" stroke-width="6" stroke-linejoin="round"/>
<rect x="151" y="320" width="19" height="37" stroke="black" stroke-width="6" stroke-linejoin="round"/>
<path d="M171 320H183C189.627 320 195 325.373 195 332V345C195 351.627 189.627 357 183 357H171V320Z" stroke="black" stroke-width="6" stroke-linejoin="round"/>
<path d="M77.2603 258.5C73.7603 254 64.2603 246.5 52.8326 244.294L87.4792 230.078C95.7308 226.692 99.6754 217.258 96.2897 209.006C92.9039 200.755 83.47 196.81 75.2184 200.196L27.5479 219.756C20.4169 222.682 15.7603 229.626 15.7603 237.333V253C15.7603 288.899 44.8617 318 80.7603 318C116.659 318 145.76 288.899 145.76 253V212" stroke="black" stroke-width="6" stroke-linecap="round" stroke-linejoin="round"/>
<path d="M79.4325 199.5L98.034 122.016C100.185 113.055 94.6648 104.046 85.7038 101.895C76.7428 99.7438 67.7345 105.264 65.5833 114.225L49.3409 181.883C49.098 182.894 47.664 182.909 47.401 181.902L35.9521 138.077C33.6228 129.161 24.5064 123.821 15.59 126.15C6.67362 128.48 1.33375 137.596 3.66308 146.513L23.5141 222.5" stroke="black" stroke-width="6" stroke-linejoin="round"/>
<path d="M79.8226 197.749L84.9897 176.225C87.1409 167.264 96.1492 161.744 105.11 163.895C114.071 166.046 119.592 175.055 117.44 184.016L107.106 227.062C104.955 236.024 95.9467 241.544 86.9857 239.393C83.6519 238.592 80.7944 236.843 78.6309 234.5" stroke="black" stroke-width="6"/>
<rect x="118.907" y="181" width="33.3727" height="64.8879" rx="16.6864" transform="rotate(13.4994 118.907 181)" stroke="black" stroke-width="6"/>
<path d="M252.442 164.676C246.829 157.368 236.353 155.994 229.045 161.607L169.909 207.026C162.601 212.639 161.226 223.115 166.84 230.423C172.453 237.732 182.929 239.106 190.237 233.493L206.572 220.947L244.557 270.399C250.17 277.708 260.646 279.081 267.954 273.468C275.263 267.854 276.637 257.378 271.023 250.07L233.039 200.619L249.373 188.074C256.681 182.461 258.056 171.985 252.442 164.676Z" stroke="black" stroke-width="6"/>
<path d="M205.016 234.326C206.813 232.041 210.483 233.39 210.372 236.295L209.196 267.115C209.146 268.414 209.939 269.597 211.159 270.045L240.107 280.687C242.835 281.69 242.686 285.598 239.89 286.39L210.214 294.795C208.964 295.149 208.084 296.269 208.034 297.567L206.858 328.388C206.747 331.292 202.985 332.357 201.368 329.943L184.203 304.317C183.48 303.238 182.144 302.746 180.893 303.101L151.218 311.506C148.422 312.298 146.246 309.049 148.042 306.765L167.109 282.522C167.913 281.501 167.967 280.078 167.244 278.998L150.079 253.373C148.462 250.958 150.879 247.884 153.607 248.887L182.556 259.53C183.776 259.978 185.145 259.59 185.949 258.569L205.016 234.326Z" stroke="black" stroke-width="6"/>
<path d="M94.4917 22.6167C96.2171 20.2782 99.927 21.5138 99.9057 24.4198L99.7332 47.9256C99.7236 49.2253 100.552 50.3832 101.785 50.7939L124.087 58.2217C126.844 59.14 126.816 63.0501 124.045 63.9279L101.637 71.0275C100.398 71.42 99.5523 72.5657 99.5428 73.8654L99.3703 97.3711C99.349 100.277 95.6213 101.458 93.9304 99.0946L80.2537 79.9766C79.4975 78.9196 78.1466 78.4697 76.9076 78.8622L54.499 85.9618C51.7286 86.8396 49.4535 83.6594 51.1789 81.3208L65.1348 62.4057C65.9064 61.3598 65.9169 59.9361 65.1607 58.879L51.4839 39.7611C49.793 37.3975 52.1145 34.251 54.8718 35.1693L77.1738 42.597C78.4069 43.0077 79.7642 42.5777 80.5358 41.5319L94.4917 22.6167Z" stroke="black" stroke-width="6"/>
<rect x="3" y="76" width="44" height="44" rx="2" stroke="black" stroke-width="6"/>
<rect x="160" y="15" width="84" height="28" rx="14" stroke="black" stroke-width="6"/>
<path d="M247.107 81.6557C247.141 81.6657 247.175 81.6756 247.21 81.6853C247.244 81.6951 247.279 81.7047 247.314 81.714L247.452 81.7531C253.208 83.3765 259.191 80.026 260.814 74.2697C260.826 74.228 260.838 74.1863 260.849 74.1445C260.86 74.1059 260.871 74.0671 260.882 74.0282L276.542 18.5013C278.203 12.6113 274.774 6.49002 268.884 4.82897C262.995 3.16792 256.873 6.59612 255.212 12.4861L242.424 57.8317L223.302 52.4389C217.545 50.8155 211.563 54.166 209.94 59.9223C208.316 65.6787 211.667 71.6611 217.423 73.2845L247.107 81.6557Z" stroke="black" stroke-width="6" stroke-linejoin="round"/>
<rect x="17" y="90" width="16" height="16" rx="2" stroke="black" stroke-width="6"/>
<path d="M267.385 184.092L236.602 113.582C236.146 112.538 235.807 111.473 235.578 110.4C233.98 102.894 237.814 95.0487 245.122 91.8583L291.861 71.4526" stroke="black" stroke-width="6"/>
<rect x="10.9282" y="27.0063" width="35.4288" height="15.4038" transform="rotate(16.4614 10.9282 27.0063)" stroke="black" stroke-width="6" stroke-linejoin="round"/>
<path d="M16.1659 44.6162L9.83643 66.037L24.6089 70.402L30.9383 48.9812L16.1659 44.6162Z" stroke="black" stroke-width="6" stroke-linejoin="round"/>
<path d="M39.2296 35.3689C40.5231 33.9256 41.5242 32.1795 42.1099 30.1973C44.2193 23.0585 36.0588 3.11133 36.0588 3.11133C36.0588 3.11133 18.3675 15.4198 16.2581 22.5586C15.6724 24.5408 15.5637 26.5506 15.8651 28.4651L39.2296 35.3689Z" stroke="black" stroke-width="6" stroke-linejoin="round"/>
<path d="M149.614 43.5124L105.05 29.6774M154.951 26.3218L110.387 12.4868" stroke="black" stroke-width="6"/>
<rect x="227" y="311.356" width="8" height="13" rx="4" fill="black"/>
<rect x="254" y="311.356" width="8" height="13" rx="4" fill="black"/>
<path d="M244.5 337.644C249.471 337.644 253.5 334.614 253.5 329.644C253.5 327.711 251.933 326.144 250 326.144H239C237.067 326.144 235.5 327.711 235.5 329.644C235.5 334.614 239.529 337.644 244.5 337.644Z" fill="black"/>
</g>
<defs>
<clipPath id="clip0_2545_55499">
<rect width="260" height="360" fill="white"/>
</clipPath>
</defs>
</svg>
