<svg width="260" height="360" viewBox="0 0 260 360" fill="none" xmlns="http://www.w3.org/2000/svg">
<g clip-path="url(#clip0_2545_55496)">
<path d="M237.935 20.8447L206.292 12.6704V60.3994L223.959 65.4096L237.935 20.8447Z" stroke="black" stroke-width="6" stroke-linejoin="round"/>
<path d="M265.717 80.6694L262.025 56.6729L229.063 70.9125L232.491 85.9432L265.717 80.6694Z" stroke="black" stroke-width="6" stroke-linejoin="round"/>
<path d="M140.5 16L212 85.5L268.748 266" stroke="black" stroke-width="6" stroke-linejoin="round"/>
<path d="M212 86L105 69.5L212 401" stroke="black" stroke-width="6" stroke-linejoin="round"/>
<path d="M212.614 370.247L144.798 160.143L218.131 167.818L267.325 319" stroke="black" stroke-width="6" stroke-linejoin="round"/>
<ellipse cx="43.3033" cy="46.3391" rx="29.6879" ry="7.65959" transform="rotate(-32.827 43.3033 46.3391)" stroke="black" stroke-width="6"/>
<path d="M68.2826 30.3091L83.9267 57.8745C86.0634 61.0992 76.9481 70.9008 63.5672 79.7671C50.1863 88.6334 37.6068 93.2068 35.4702 89.9822L18.3532 62.3527" stroke="black" stroke-width="6"/>
<path d="M-10 135L64 396.5" stroke="black" stroke-width="6" stroke-linejoin="round"/>
<path d="M3.2229 178.722L31.0142 162.642L34.3353 173.304" stroke="black" stroke-width="6" stroke-linejoin="round"/>
<path d="M50.4158 119.993L54.2612 106.709L96.0357 81.3647L102.678 85.0353L120.157 137.472L115.787 150.756L75.5854 173.304L65.2729 169.633" stroke="black" stroke-width="6" stroke-linejoin="round"/>
<path d="M60.2041 182.742L70.6915 187.811L86.4224 239.723L82.2274 252.308L41.5016 275.73L28.3926 270.137" stroke="black" stroke-width="6" stroke-linejoin="round"/>
<path d="M47.9688 216.302L55.8342 243.219" stroke="black" stroke-width="6" stroke-linejoin="round"/>
<path d="M81.3535 113.875L89.219 140.793" stroke="black" stroke-width="6" stroke-linejoin="round"/>
<path d="M83.2761 224.866L111.242 208.961" stroke="black" stroke-width="6" stroke-linejoin="round"/>
<path d="M115.437 149.532L124.876 153.028L142.355 207.737L138.335 219.797L95.3365 244.268L85.8979 239.199" stroke="black" stroke-width="6" stroke-linejoin="round"/>
<path d="M129.945 171.206L101.979 186.937" stroke="black" stroke-width="6" stroke-linejoin="round"/>
<path d="M76.8232 172.288L70.6873 188.139" stroke="black" stroke-width="6" stroke-linejoin="round"/>
<path d="M163.485 364.071C167.818 356.368 166.374 341.602 162.04 330.688C171.831 309.342 165.306 287.357 159.794 285.749C152.09 283.502 137.003 297.947 131.707 306.935C123.682 304.367 113.25 305.009 103.941 309.342C98.1632 298.268 87.4634 289.517 81.7926 291.206C74.3369 293.427 67.9899 322.503 83.879 346.417C80.669 352.355 79.7061 362.306 81.7926 368.404" stroke="black" stroke-width="6" stroke-linejoin="round"/>
<path d="M147.596 346.898C149.843 350.75 152.571 358.615 152.25 366.639" stroke="black" stroke-width="6" stroke-linejoin="round"/>
<path d="M100.57 351.713C97.6211 354.925 95.1592 360.274 93.9707 364.433" stroke="black" stroke-width="6" stroke-linejoin="round"/>
<path d="M120.627 356.454L122.749 366.131" stroke="black" stroke-width="6" stroke-linejoin="round"/>
<path d="M81.7942 361.841L68.3723 356.96" stroke="black" stroke-width="6" stroke-linejoin="round"/>
<path d="M-5.5166 143.59L42.5503 114.924L49.8915 119.643L65.6229 170.508L60.9036 183.617L21.4014 206.864L9.16615 200.921" stroke="black" stroke-width="6" stroke-linejoin="round"/>
<path d="M174.314 107.096L185.901 147.192L225.783 154.338L209.531 99.9321L169.879 91.7485L174.314 107.096ZM174.314 107.096L183.711 108.232L184.864 114.11M201.693 105.119L205.727 117.453M219.905 136.933L211.145 134.858M190.512 97.1659L205.727 149.151M215.986 127.25L178.87 119.643M190.512 129.902L193.97 142.811M204.428 142.811L215.247 144.732" stroke="black" stroke-width="6" stroke-linejoin="round"/>
<path d="M64.2821 29.0211L134.5 -15.5L141.5 15.5L105.5 68L-11.5 139.5L24.5 90L17 59L19.3241 57.5264" stroke="black" stroke-width="6" stroke-linejoin="round"/>
</g>
<defs>
<clipPath id="clip0_2545_55496">
<rect width="260" height="360" fill="white"/>
</clipPath>
</defs>
</svg>
