<svg width="260" height="360" viewBox="0 0 260 360" fill="none" xmlns="http://www.w3.org/2000/svg">
<g clip-path="url(#clip0_2545_55498)">
<path d="M156.5 -9.5C159 6 164.5 36 165 68C181 68 189 68 201.5 68C206.5 92 213 135 189 181C216.5 197 269 192 283.5 117C298 42 258 8.5 217.5 -17" stroke="black" stroke-width="6"/>
<path d="M52.5 -16C52.5 39.5 52.5 153.1 52.5 163.5C64 166.5 95.5 165 107.5 160.5C70.5 129.5 80.3 70.7 89.5 49.5C104 49.5 135.8 49.5 147 49.5C149.385 34.6571 153.879 21.7812 159.511 10.5" stroke="black" stroke-width="6"/>
<path d="M71.5 180H-14.5" stroke="black" stroke-width="6"/>
<path d="M34 179V279" stroke="black" stroke-width="6"/>
<path d="M-6.5 285C32.5 268 133.5 279 173.5 374" stroke="black" stroke-width="6"/>
<path d="M89 369.774C53.8509 345.307 12.8335 339.155 -16 343.102" stroke="black" stroke-width="6"/>
<path d="M125 94.5L122.5 164.5L139.5 166" stroke="black" stroke-width="6"/>
<path d="M206 94C196 100.5 168.5 104.5 148 97.5" stroke="black" stroke-width="6"/>
<path d="M198 97.5L200 105" stroke="black" stroke-width="6"/>
<path d="M186 99.5L188.5 110.5" stroke="black" stroke-width="6"/>
<path d="M168 101V117.5" stroke="black" stroke-width="6"/>
<path d="M153 99L149 115" stroke="black" stroke-width="6"/>
<path d="M204.5 187C195 209.5 191.5 233 193.5 264" stroke="black" stroke-width="6"/>
<path d="M69 163.5C71.5 189 80.7585 228.17 117.5 236C148 242.5 176.5 232.5 195 218.5" stroke="black" stroke-width="6"/>
<path d="M138 268C175 244.5 219 251 249.5 277.5" stroke="black" stroke-width="6"/>
<path d="M-22 21C52.0593 63.3647 54.1165 181.124 -9.65678 212" stroke="black" stroke-width="6"/>
<path d="M285 212C201 258.5 233 326.5 252 367.5" stroke="black" stroke-width="6"/>
<path d="M92.5 223C99.5 237.5 120 271.5 118 337.5" stroke="black" stroke-width="6"/>
<path d="M127.5 190C123.087 189.118 117 198.5 114.5 203.5C117.5 213 127.6 223.5 136 223.5C146.5 223.5 153.5 214.5 157.5 203.5C155 197 152 189.5 145.5 190C140.5 190.385 140 197 136 197C131 197 132.5 191 127.5 190Z" stroke="black" stroke-width="6"/>
<path d="M114 203C123.5 209.5 143.5 210 158 204" stroke="black" stroke-width="6"/>
</g>
<defs>
<clipPath id="clip0_2545_55498">
<rect width="260" height="360" fill="white"/>
</clipPath>
</defs>
</svg>
