<svg width="160" height="90" viewBox="0 0 160 90" fill="none" xmlns="http://www.w3.org/2000/svg">
<rect width="160" height="90" rx="12" fill="#47A638"/>
<path d="M52.5349 50.3411C51.6611 49.9596 50.7074 49.8089 49.766 49.6612C49.1199 49.5597 48.4769 49.4582 47.8309 49.3597C46.8095 49.1997 45.7757 49.0367 44.822 48.6367C44.7205 48.5937 44.6128 48.5444 44.5513 48.4552C44.4651 48.3352 44.4744 48.1722 44.4928 48.0245C44.6036 47.0708 44.8805 46.1847 45.1635 45.2741C45.3604 44.6311 46.0342 42.9698 45.6558 42.3237C45.1943 41.533 44.419 41.4192 43.5637 41.2162C42.6808 42.4775 41.1087 42.5452 39.7796 43.0436C38.3152 43.5912 36.9338 44.3327 35.5279 45.0126C35.1187 45.2095 34.6049 45.3971 34.2357 45.1264C34.771 44.4311 35.3033 43.7358 35.8386 43.0436C36.4324 42.2714 37.0477 41.4807 37.8937 40.9977C38.9182 40.4101 40.1026 40.3793 41.2533 40.3855C42.3516 40.3916 43.3884 40.1978 44.4713 40.0348C45.1574 39.4779 46.108 39.3887 46.6741 38.6503C47.1202 38.0689 46.7018 37.9673 46.1972 37.6382C45.7388 37.3397 45.2527 37.0875 44.742 36.8875C42.6746 36.0845 40.2595 36.146 38.2783 37.1582C37.8568 37.3736 37.3922 37.6351 36.9369 37.4997C35.9524 37.2074 36.0478 35.5677 34.9618 35.3277C34.2296 35.1646 33.7804 35.9184 33.6973 36.5675C33.6758 36.7367 33.6789 36.906 33.645 37.0721C33.5866 37.3674 33.2512 38.0966 32.9282 38.195C32.6021 38.2935 31.7714 37.7612 31.4545 37.6289C31.3776 37.5951 31.2946 37.5612 31.2115 37.5643C31.0454 37.5643 30.9131 37.6966 30.7839 37.7981C30.3778 38.1089 29.8209 38.2042 29.3348 38.0443C29.8209 37.4474 29.7409 36.6106 30.1593 35.9891C30.5285 35.4446 31.1623 35.1831 31.7683 34.9893C33.3681 34.4724 35.0018 34.174 36.6692 33.9802C38.1921 33.8048 39.6289 33.251 41.121 32.9034C44.0683 32.2143 47.1509 32.285 50.1475 32.728C50.2121 33.4079 49.1168 33.4141 48.6 33.8079C48.1754 34.134 48.5569 34.3463 45.9757 34.5955V35.2939C48.5569 35.2939 48.2677 35.2969 48.7877 35.2939C49.6552 35.2846 50.9412 34.8785 51.3996 34.1371C51.7626 33.5525 52.2149 32.8726 52.381 32.2081C52.4303 32.0112 52.621 31.8051 52.5872 31.6051C52.5102 31.1621 52.1164 30.879 51.6673 30.8298C51.2212 30.7837 50.8089 30.9098 50.3659 30.9713C49.2491 31.1313 48.0862 30.8821 47.1571 30.2391C47.6155 29.8453 47.9108 29.2608 47.9416 28.6578C47.9601 28.3317 47.6647 27.9994 47.7139 27.6764C47.7939 27.1565 48.5569 26.7442 48.5569 26.3566V24.7352C45.9757 24.1568 47.2002 23.6738 46.0496 23.6C44.982 23.5323 44.0344 23.7354 42.9761 23.84C40.3703 24.0922 37.8199 23.7538 35.2171 23.6185C33.9311 23.5508 32.6698 23.5292 31.3869 23.6585C30.3778 23.76 28.8733 24.5045 27.9504 24.0246C27.7319 23.9138 27.4612 23.923 27.1259 23.8646C27.0213 26.8119 28.9318 28.7286 30.4639 31.0729C29.7102 30.9283 29.2087 30.7898 28.6949 30.7468C28.1288 30.6975 27.5597 30.7344 26.9967 30.7344C26.4778 30.2196 25.9394 29.953 25.3815 29.9346C25.3046 30.4945 25.1692 31.0636 25.1538 31.6389C25.1015 33.7156 25.0369 35.8292 25.2215 37.9027C25.2584 38.3058 25.3076 38.718 25.4892 39.078C25.6491 39.3979 25.9014 39.6594 26.1506 39.9179C26.3906 40.164 26.6336 40.4132 26.9413 40.5639C27.2489 40.7147 27.6335 40.7516 27.9227 40.5701C28.5195 40.1947 28.498 39.078 29.1964 38.9734C29.4702 39.3302 29.7378 39.7733 30.0763 40.0748C30.5193 40.4716 31.0607 40.7608 31.6391 40.8962C31.9775 40.9762 32.3437 41.01 32.6175 41.2254C33.2943 41.7607 32.1498 43.502 31.8822 44.0773C31.4761 44.9449 31.0515 45.7479 30.6854 46.6462C30.387 47.3723 29.9224 48.0153 29.4579 48.649C28.8364 49.5012 28.2057 50.3626 27.3905 51.0303C26.7813 51.5317 26.0429 51.7071 25.4184 52.1286C25.0984 52.3439 24.96 53.0485 25.0123 53.4761C25.0215 53.553 25.483 54.9928 25.5476 54.9928H26.0368C26.8151 54.9928 27.3843 54.7898 27.8981 54.5098V54.6206C30.4793 54.8328 31.7222 54.6329 32.7251 53.9929C32.8021 53.9437 33.6081 53.8422 33.6912 53.8237C35.2387 53.4422 36.9554 52.5347 38.3675 52.1686C40.7272 52.6362 43.2161 53.2792 45.5665 53.836C47.7478 54.3529 50.169 54.6052 52.298 53.9037C53.0948 53.6391 54.6607 53.0454 54.4454 52.0147C54.2823 51.2333 53.1963 50.6457 52.5349 50.3565V50.3411ZM40.8072 28.2609C40.8072 28.0456 42.0039 27.9379 42.9484 27.8271C43.8529 27.7195 44.3944 27.5502 45.4158 27.6364C45.3543 28.6486 45.4158 29.4577 44.6682 30.1684C43.2068 30.0607 40.8102 30.4853 40.8102 29.5438V28.264L40.8072 28.2609ZM33.2481 28.7255H35.5894C35.6724 28.7255 35.8109 29.0301 35.9801 29.2546C35.8786 29.4823 35.7555 29.7684 35.6201 30.0699C35.1033 30.4729 34.4695 30.4699 33.7958 30.433C33.4973 30.0145 33.1866 29.5623 32.8697 29.1162C33.0359 28.9501 33.1343 28.7255 33.2481 28.7255ZM30.6423 52.7531C30.2824 53.0177 30.3685 53.2023 29.2333 53.3869C29.6609 52.8977 30.0855 52.3501 30.5993 51.7071C31.2023 50.9472 31.6237 49.4981 32.7098 49.0244C33.6081 50.3996 35.0879 50.8395 36.3585 51.9163C34.9187 52.3993 32.1344 53.0085 30.6423 52.7531ZM41.2594 48.0922C39.2289 48.286 37.4599 47.5353 35.4479 46.7908C35.4048 46.7754 37.0292 46.0586 37.2538 46.0155C38.0691 45.8586 38.8751 45.6863 39.6719 45.4556C40.5334 45.2064 41.6286 44.5542 42.4808 44.5296C42.6131 45.231 42.33 47.9907 41.2594 48.0922Z" fill="white"/>
<path d="M130.395 51.1344C129.872 50.3529 129.005 49.873 128.125 49.5407C126.959 49.1008 125.771 48.7162 124.596 48.2978C124.205 48.1594 125.024 46.1535 125.119 45.932C125.501 45.0521 125.944 44.203 126.451 43.3908C126.661 43.0554 126.885 42.7139 126.962 42.3232C127.131 41.4557 126.473 40.585 125.651 40.2497C124.833 39.9112 123.904 39.9912 123.033 40.1543C122.738 40.2097 122.436 40.2712 122.138 40.2374C121.84 40.2035 121.535 40.0528 121.403 39.782C121.261 39.4959 121.341 39.1544 121.424 38.8437C122 36.6994 122.556 34.5458 123.572 32.5584C124.535 30.6817 125.507 28.8481 125.762 26.7222C125.83 26.1592 125.851 25.5716 125.639 25.0455C125.202 23.9472 124.119 23.6426 123.043 23.5349C121.227 23.3503 119.406 23.2396 117.585 23.1288C116.554 23.0673 115.527 23.0027 114.493 22.9412C114.121 22.9196 113.742 22.895 113.376 22.975C112.724 23.1196 112.21 23.5595 111.626 23.8518C111.041 24.1441 108.014 24.1964 107.368 24.2056C107.122 24.4517 104.171 24.6978 104.171 24.944V27.3067C104.242 27.3375 104.288 27.3652 104.356 27.396C102.904 26.9745 101.184 27.1068 99.6917 27.1991C98.6888 27.2606 95.5169 27.4421 94.4124 27.5867C94.2617 27.7374 91.6436 27.9836 91.6436 28.1774V28.9373C91.6436 29.1865 94.5693 29.4142 94.9847 29.6787C94.5939 31.4939 97.5874 32.8722 97.1875 34.6073C97.1013 34.9796 97.4397 35.3241 97.4243 35.7056C97.3997 36.2563 98.0458 36.7393 98.1996 37.2685C98.3411 37.7515 98.4304 38.2684 98.3842 38.7729C98.2488 40.2374 98.1781 41.7018 98.0427 43.1662C97.9873 43.76 97.8458 44.2676 98.2088 44.7383C98.5688 45.209 99.138 45.612 99.5656 46.0212C99.9163 45.7074 100.184 45.4736 100.359 45.3167C100.513 44.2214 100.658 43.2308 100.809 42.1725C100.861 42.1202 100.953 41.9448 101.076 41.9202C102.996 41.5418 104.913 41.1049 106.931 41.2341C107.214 40.825 107.746 40.2958 107.869 39.8159C108.017 39.2406 107.869 38.4376 107.912 37.8346C108.008 36.5609 108.226 35.3026 108.497 34.0566C108.518 33.952 108.549 33.8505 108.574 33.7459C108.937 35.3272 109.577 36.9178 109.629 38.4991C109.663 39.4836 110.373 40.5419 109.86 41.3849C109.743 41.5787 109.903 41.751 109.798 41.954C109.684 42.1756 109.783 42.4186 109.727 42.6616C109.472 43.7815 109.29 44.9044 109.035 46.0243C108.866 46.7688 108.706 47.5595 108.146 48.0825C108.248 46.8888 108.192 45.6828 107.946 44.5076C107.731 45.8735 107.537 47.2426 107.334 48.6116C107.275 49.0116 107.22 49.4146 107.042 49.7776C106.574 50.7283 105.374 51.2451 105.156 52.2789C104.993 53.0664 105.482 53.8417 106.06 54.3986C106.359 54.6816 106.712 54.9462 107.125 54.98C107.672 55.0231 108.18 54.6416 108.46 54.1678C108.74 53.6971 108.841 53.1434 108.967 52.6111C109.18 51.7128 109.457 50.8267 109.829 49.9807C110.14 49.2762 110.598 48.0794 111.232 47.6025C111.296 47.5533 111.358 47.5195 111.413 47.501C111.724 47.3872 111.902 47.6918 112.278 47.9717C112.659 48.2548 113.044 48.5316 113.444 48.7901C114.231 49.3039 115.068 49.7561 115.97 50.033C116.406 50.1684 116.905 50.2945 117.136 50.6944C117.163 50.7437 117.188 50.799 117.179 50.8513C117.166 50.9375 117.08 50.9898 117.003 51.0298C116.047 51.5343 115.041 51.7743 113.973 51.9004C113.456 51.962 111.456 52.2635 111.207 51.5589C111.047 51.1067 110.89 50.6575 110.696 50.1099C110.776 50.3406 110.41 51.1036 110.361 51.3713C110.257 51.9158 110.229 52.4788 110.269 53.0295C110.278 53.1372 110.287 53.251 110.343 53.3464C110.401 53.4541 110.506 53.5279 110.61 53.5894C111.41 54.0571 112.413 53.9033 113.321 53.7094C115.068 53.3403 116.794 52.8757 118.489 52.3219C119.255 52.0696 119.901 51.9435 120.683 52.1681C123.452 52.9618 126.384 52.9065 129.266 52.848C129.875 52.8357 130.808 51.7558 130.392 51.1375L130.395 51.1344ZM104.913 35.238C104.903 35.8102 104.94 36.4901 104.546 36.9578C104.334 37.207 104.03 37.3547 103.728 37.4808C103.457 37.5946 103.184 37.6992 102.907 37.8038C102.75 37.8623 102.581 37.9238 102.414 37.8992C102.399 37.8992 102.384 37.893 102.365 37.89C102.144 37.8346 101.993 37.6162 101.938 37.3916C101.882 37.167 101.901 36.9332 101.898 36.7024C101.885 36.1087 101.707 35.5364 101.624 34.9488C101.495 34.0412 101.753 33.2536 102.353 32.5614C103.165 32.6137 104.036 32.3891 104.913 33.0168C105.1 33.1521 104.916 34.958 104.913 35.238ZM122.289 46.8673C122.163 46.9719 122.021 47.0672 121.861 47.1011C121.652 47.1472 121.434 47.0888 121.227 47.0272C119.92 46.6519 118.625 46.215 117.363 45.7043C116.779 45.4674 116.197 45.2213 115.631 44.9475C115.2 44.7414 114.361 44.0676 113.893 44.0676C113.705 43.9722 113.515 43.8738 113.385 43.7077C113.028 43.2462 113.345 42.5878 113.364 42.0033C113.382 41.431 113.096 40.8865 113.062 40.3143C113.035 39.8436 113.179 39.3821 113.228 38.9114C113.336 37.9269 113.044 36.9516 112.884 35.9764C112.665 34.6412 112.708 33.2629 112.998 31.94C113.225 30.8909 113.555 29.4788 114.45 28.7927C115.93 27.6636 118.163 28.0574 119.886 28.0789C120.332 28.0851 120.483 28.2881 120.766 28.5804C120.667 28.4789 120.489 29.2419 120.483 29.2696C120.394 29.6757 120.351 30.1033 120.274 30.5155C120.12 31.3277 119.954 32.1399 119.766 32.946C119.385 34.595 118.926 36.2286 118.357 37.8223C117.948 38.9729 117.462 40.1297 116.631 41.0219C116.293 41.388 115.883 41.7325 115.579 42.1233C115.36 42.4063 115.197 42.7109 115.157 43.0708C115.099 43.5692 115.32 44.0922 115.717 44.3968C116.197 44.7629 116.843 44.7968 117.443 44.8183C118.172 44.8429 118.908 44.8675 119.631 44.7691C120.892 44.6029 122.123 44.0707 123.384 44.203C123.489 45.1998 123.061 46.2366 122.283 46.8673H122.289Z" fill="white"/>
<path d="M92.4189 40.191C92.0005 40.231 91.5698 40.3448 91.1606 40.2341C91.056 40.2064 90.9514 40.1602 90.8899 40.071C90.8007 39.9418 90.8376 39.7664 90.8837 39.6157C91.0099 39.1911 91.1883 38.782 91.4037 38.3943C91.579 38.0867 91.7882 37.7821 91.8467 37.4314C91.8867 37.1883 91.8559 36.9391 91.8252 36.693C91.7729 36.2992 91.7206 35.9054 91.6713 35.5116C91.6436 35.2901 91.6098 35.0594 91.4837 34.8748C91.3483 34.681 91.1268 34.5671 90.9361 34.4225C90.4161 34.0287 90.7453 33.5273 90.4776 33.0412C90.0808 32.3213 89.1055 32.7704 89.0501 33.4534C89.0255 33.7488 89.0563 34.0749 88.8809 34.3179C88.7702 34.4717 88.5887 34.564 88.4441 34.6871C87.8626 35.1917 87.9611 36.0992 87.8441 36.8591C87.6811 37.9236 86.9735 38.8866 86.0075 39.3603C85.5829 38.5051 85.7706 37.4898 85.7429 36.533C85.7121 35.4624 85.4014 34.4287 85.1553 33.395C84.9245 32.4351 84.9799 31.3737 84.6569 30.4569C84.5677 30.1985 83.8478 28.4818 83.3801 28.7156C84.3923 28.208 85.1399 27.9957 86.2936 27.9803C87.7857 27.9618 89.2717 27.768 90.7207 27.405C91.5144 27.205 91.6621 24.7899 91.1268 24.2392C90.4746 23.5655 89.5362 23.184 88.6317 23.0086C87.5396 22.7994 86.4166 22.861 85.306 22.9256C83.5955 23.024 81.8849 23.1225 80.1744 23.2209C79.8637 23.2394 79.5499 23.2578 79.2545 23.3501C79.0238 23.4209 78.8115 23.5347 78.5931 23.6393C77.9808 23.9408 77.3471 24.1962 76.6979 24.3992C76.298 24.5254 75.3566 24.5653 75.0366 24.7992C73.8367 25.6821 75.4888 26.9927 76.2764 27.3681C76.9594 27.6942 77.707 27.8541 78.4515 27.9834C79.876 28.2295 81.3189 28.3679 82.7648 28.3956C81.5157 29.7185 81.5834 31.5152 81.928 33.1704C82.2387 34.6656 82.5495 36.1608 82.8571 37.6529C82.9894 38.2897 83.1094 38.8373 83.0632 39.4803C83.0571 39.5603 83.0355 40.554 83.1032 40.5263C82.3372 40.8432 81.6819 41.114 81.0573 41.3755C80.8881 40.8924 80.8204 40.3971 80.5651 40.0341C79.876 39.0619 79.1007 38.1513 78.3685 37.2099C77.3778 35.93 76.3964 34.644 75.415 33.3611C75.0151 32.8381 74.6243 32.309 74.2859 31.8536C74.2459 31.7983 73.6583 31.8967 73.5568 31.9029C73.3999 33.195 72.9661 34.4564 73.5014 35.7424C73.9352 36.7853 74.9012 37.539 75.9565 37.939C76.2734 38.059 76.6118 38.1605 76.861 38.3882C77.4732 38.9481 77.5932 40.3387 77.8116 41.1047C78.1377 42.2615 76.5349 42.243 75.7534 42.4061C74.8981 42.5845 73.8675 42.9814 72.9938 42.9814C72.4769 43.0891 71.957 43.1968 71.4463 43.3321C70.8679 43.4829 70.3018 43.6705 69.7481 43.8921C69.4035 44.0274 69.0466 44.1905 68.8343 44.4951C68.7174 44.6612 68.6528 44.8612 68.5328 45.0273C68.4067 45.2027 68.2252 45.3319 68.0929 45.5011C67.6283 46.0825 67.9421 47.0978 68.6559 47.3162C68.8466 47.3747 69.0497 47.3808 69.2497 47.3808C69.8803 47.3808 70.511 47.3039 71.1233 47.1532C72.3969 46.8424 73.5876 46.221 74.8797 45.9902C76.0211 45.7872 77.1963 45.8979 78.3531 45.9841C78.4854 45.9933 78.6207 46.0056 78.753 45.9995C78.8761 45.9964 78.9992 45.9779 79.1222 45.9595C80.1898 45.8118 81.2635 45.698 82.3372 45.618C82.4541 45.6088 82.5802 45.6026 82.6848 45.6549C82.7863 45.7041 82.8571 45.7964 82.9217 45.8887C83.1955 46.264 83.4724 46.6394 83.7462 47.0116C83.8231 47.1162 83.9031 47.2301 83.9093 47.3593C83.9154 47.4608 83.8754 47.5593 83.8354 47.6546C83.6662 48.0638 83.497 48.4699 83.3278 48.876C83.2724 49.0145 83.214 49.1529 83.1155 49.2667C82.974 49.4298 82.7679 49.5159 82.5679 49.5959C82.0418 49.8113 81.5157 50.0266 80.9897 50.242C80.7651 50.3343 80.519 50.4266 80.2821 50.3712C79.8698 50.2728 79.5099 49.7374 79.1407 49.9528C78.9622 50.0574 78.913 50.2912 78.8853 50.4943C78.753 51.4326 78.6792 52.5402 79.3929 53.1616C79.9898 53.6815 80.8789 53.6231 81.6357 53.8538C82.1587 54.0138 82.6325 54.3245 83.1678 54.4414C84.2015 54.6691 85.2383 54.1523 86.1705 53.6539C86.3797 53.54 86.5951 53.4262 86.752 53.2478C86.8935 53.0878 86.9796 52.8878 87.0658 52.6909C87.1704 52.4479 87.2781 52.2017 87.3827 51.9587C87.4473 51.8079 87.515 51.651 87.518 51.4849C87.518 51.3465 87.475 51.2142 87.4319 51.0819C87.1089 50.082 86.9181 49.0391 86.8627 47.99C86.8074 46.9224 87.0473 46.1841 87.5888 45.2919C88.3825 45.6641 88.8502 45.4057 89.6808 45.3257C90.05 45.2919 90.4161 45.3749 90.7791 45.4488C91.9328 45.6887 93.2465 45.8118 94.1787 45.095C95.1847 44.3197 95.3416 42.8737 95.2739 41.6093C95.2647 41.4647 95.2555 41.317 95.194 41.1878C94.7879 40.3387 93.2158 40.1018 92.4066 40.1787L92.4189 40.191Z" fill="white"/>
<path d="M68.1051 39.5613C68.0774 38.9737 68.3205 38.38 68.7512 37.9831C69.1419 37.6231 69.6526 37.9031 70.0956 37.9185C70.634 37.9369 71.1755 37.74 71.6462 37.4939C72.0554 37.2786 72.4553 37.0078 72.6768 36.6017C72.926 36.1526 72.9137 35.608 72.8983 35.0942C72.8614 34.0605 72.8214 33.0084 73.0922 32.0085C73.3352 31.1101 73.8213 30.2979 74.129 29.4211C74.3443 28.7074 74.4674 27.9167 74.292 27.1784C74.0305 26.0831 73.1506 26.0093 72.203 25.6739C72.0154 25.6093 71.8123 25.5416 71.6247 25.6093C71.5201 25.6493 71.4308 25.7262 71.3293 25.7724C71.2124 25.8247 71.0832 25.8339 70.9601 25.8431C69.7941 25.9262 68.6158 26.0124 67.4529 25.8616C66.9422 25.7939 66.4592 25.6524 65.9577 25.5416C65.7239 25.4893 64.7179 25.1725 64.5271 25.2894C63.4627 25.9477 63.075 26.8307 62.8689 27.7567C62.712 28.4613 62.7704 29.2119 62.7489 29.9411C62.7489 29.9749 62.875 30.0118 62.9427 30.0487C63.0196 29.8334 63.0873 29.618 63.1827 29.415C63.638 29.7996 63.8288 30.8794 63.9887 31.4516C64.2041 32.2085 64.361 32.9776 64.4594 33.759C64.6594 35.3158 64.6256 36.9063 64.3518 38.4538C64.3118 38.6815 64.2656 38.9122 64.2718 39.1429C64.2872 39.589 64.5025 39.9767 64.7794 40.312C64.8902 40.4474 65.4378 41.1365 65.5701 41.1365C65.9485 41.1365 66.5761 41.2596 66.933 41.1365C67.2745 41.0165 67.6129 40.5766 67.8836 40.3366C67.9482 40.2782 68.0159 40.2197 68.059 40.1428C68.1574 39.9736 68.1236 39.7613 68.1113 39.5675L68.1051 39.5613ZM67.6067 33.3437C67.4621 32.5438 67.3145 31.2332 67.1391 30.7717H70.1787C70.2525 31.6947 70.1172 32.9622 69.1204 33.7221C68.6251 33.636 68.0313 33.9375 67.6067 33.3437Z" fill="white"/>
<path d="M135.183 23.1259C134.801 22.4429 134.269 21.9168 133.589 21.5507C132.906 21.1815 132.208 21 131.491 21C130.774 21 130.076 21.1846 129.393 21.5507C128.71 21.9199 128.177 22.4429 127.796 23.1259C127.414 23.8119 127.221 24.5226 127.221 25.2671C127.221 26.0117 127.408 26.71 127.787 27.3869C128.162 28.0668 128.691 28.5929 129.368 28.9682C130.045 29.3435 130.752 29.5312 131.491 29.5312C132.229 29.5312 132.937 29.3435 133.614 28.9682C134.29 28.5929 134.816 28.0668 135.192 27.3869C135.567 26.71 135.755 26.0024 135.755 25.2671C135.755 24.5318 135.564 23.8119 135.183 23.1259ZM134.576 27.0331C134.266 27.5961 133.826 28.036 133.26 28.3498C132.694 28.6636 132.106 28.8205 131.491 28.8205C130.875 28.8205 130.285 28.6636 129.722 28.3498C129.156 28.036 128.716 27.5961 128.402 27.0331C128.088 26.4701 127.931 25.8794 127.931 25.2671C127.931 24.6549 128.091 24.055 128.411 23.4828C128.731 22.9105 129.174 22.4706 129.743 22.166C130.312 21.8583 130.894 21.7045 131.494 21.7045C132.094 21.7045 132.672 21.8583 133.241 22.166C133.81 22.4737 134.253 22.9136 134.573 23.4828C134.89 24.0519 135.05 24.6488 135.05 25.2671C135.05 25.8855 134.893 26.4701 134.58 27.0331H134.576Z" fill="white"/>
<path d="M132.174 25.4063V25.3848C132.669 25.2155 133.072 24.7971 133.072 24.1726C133.072 23.7973 132.931 23.4712 132.697 23.265C132.398 22.9974 131.968 22.8682 131.309 22.8682C130.891 22.8682 130.439 22.9112 130.128 22.9758V27.6768H130.743V25.6093H131.321C131.881 25.6309 132.143 25.877 132.284 26.5354C132.411 27.1291 132.518 27.5414 132.595 27.6768H133.232C133.14 27.4922 133.026 27.0307 132.869 26.3662C132.749 25.8708 132.531 25.5294 132.168 25.4032L132.174 25.4063ZM131.374 25.1448H130.743V23.4096C130.848 23.3819 131.054 23.3543 131.352 23.3543C132.004 23.3543 132.451 23.6219 132.451 24.2403C132.451 24.7848 132.032 25.1479 131.374 25.1479V25.1448Z" fill="white"/>
<path d="M57.0297 41.3608C58.1851 41.3608 59.1218 40.4242 59.1218 39.2688C59.1218 38.1134 58.1851 37.1768 57.0297 37.1768C55.8743 37.1768 54.9377 38.1134 54.9377 39.2688C54.9377 40.4242 55.8743 41.3608 57.0297 41.3608Z" fill="white"/>
<path d="M28.6888 66.4257L28.7196 65.3212L28.9595 60.8295L29.1503 57.9561C28.4488 57.9653 27.9074 57.9714 27.532 57.9714C26.9783 57.9714 26.3414 57.9653 25.6215 57.9561C25.6215 58.8606 25.5938 60.0235 25.5385 61.4418C25.4831 62.8631 25.4 64.2906 25.2862 65.7304C25.2277 66.518 25.1324 67.5363 25.0001 68.7854C26.2799 68.7762 27.772 68.77 29.4764 68.77C30.7347 68.77 32.0607 68.7762 33.4513 68.7854L33.6266 66.3888C32.9129 66.4257 31.8576 66.4442 30.467 66.4442C30.1902 66.4442 29.5995 66.4349 28.6888 66.4196V66.4257Z" fill="white"/>
<path d="M42.6562 61.6536C42.2378 61.2752 41.7271 60.986 41.1211 60.7829C40.515 60.583 39.8843 60.4814 39.229 60.4814C38.5245 60.4814 37.8476 60.5953 37.1985 60.8199C36.5494 61.0444 36.0017 61.3675 35.5587 61.7828C35.1157 62.2012 34.7957 62.6719 34.5896 63.1949C34.3866 63.7179 34.285 64.2686 34.285 64.847C34.285 65.4254 34.3896 65.973 34.5988 66.496C34.808 67.0191 35.1188 67.4682 35.5341 67.8466C35.9494 68.222 36.4663 68.5081 37.0847 68.705C37.703 68.8988 38.3491 68.9973 39.0198 68.9973C39.7489 68.9973 40.4412 68.8865 41.0934 68.665C41.7456 68.4435 42.284 68.1081 42.7085 67.662C43.1331 67.2159 43.4315 66.736 43.61 66.2253C43.7884 65.7146 43.8746 65.1762 43.8746 64.6101C43.8746 64.0441 43.7761 63.4841 43.5761 62.9796C43.3792 62.475 43.0685 62.032 42.6532 61.6536H42.6562ZM40.4935 65.6931C40.3581 66.0407 40.1581 66.3022 39.8935 66.4776C39.629 66.656 39.3305 66.7452 38.9983 66.7452C38.5583 66.7452 38.1953 66.5914 37.903 66.2807C37.6108 65.97 37.4662 65.5269 37.4662 64.9424C37.4662 64.5455 37.5338 64.1794 37.6692 63.8441C37.8046 63.5087 38.0045 63.2534 38.2691 63.078C38.5337 62.9027 38.8352 62.8165 39.1736 62.8165C39.512 62.8165 39.7766 62.8965 40.0197 63.0534C40.2596 63.2134 40.435 63.4226 40.5396 63.6872C40.6442 63.9518 40.6996 64.2471 40.6996 64.5763C40.6996 64.9732 40.6319 65.3454 40.4965 65.69L40.4935 65.6931Z" fill="white"/>
<path d="M62.152 61.4258C61.7705 61.0781 61.3059 60.832 60.7583 60.6936C60.2107 60.5521 59.6354 60.4844 59.0324 60.4844C58.4294 60.4844 57.8818 60.5613 57.328 60.7151C56.7712 60.8689 56.282 61.1274 55.8574 61.4935C55.4329 61.8565 55.0852 62.3641 54.8145 63.0102C54.5438 63.6593 54.4084 64.3208 54.4084 64.9976C54.4084 65.4776 54.4761 65.9452 54.6114 66.4005C54.7468 66.8559 54.9437 67.2466 55.2021 67.5788C55.4606 67.908 55.7836 68.1849 56.1651 68.4064C56.5496 68.6279 57.005 68.7818 57.5341 68.871C58.0633 68.9571 58.6417 69.0002 59.2724 69.0002C59.7 69.0002 60.1246 68.9817 60.543 68.9417C60.9614 68.9017 61.4752 68.8218 62.0905 68.6987C62.2874 67.4835 62.4197 66.7143 62.4873 66.3974C61.832 66.5943 61.2813 66.7328 60.8322 66.8128C60.3861 66.8958 59.9861 66.9358 59.6385 66.9358C59.0509 66.9358 58.5555 66.8005 58.1464 66.5328C57.7403 66.2652 57.5341 65.8437 57.5341 65.2776C57.5341 65.2099 57.5341 65.133 57.5434 65.0469L63.1057 65.0376C63.1734 64.6684 63.2072 64.33 63.2072 64.0285C63.2072 63.5209 63.1272 63.0471 62.9642 62.6072C62.8042 62.1672 62.5304 61.7734 62.152 61.4258ZM60.223 63.8316H57.6049C57.6418 63.6194 57.6787 63.4532 57.7156 63.3363C57.7526 63.2163 57.811 63.0933 57.891 62.9671C57.971 62.841 58.0694 62.7272 58.1894 62.6287C58.3094 62.5303 58.4417 62.4564 58.5894 62.4072C58.7371 62.358 58.8909 62.3303 59.0509 62.3303C59.2785 62.3303 59.4816 62.3764 59.6662 62.4657C59.8477 62.5549 59.9892 62.6995 60.0876 62.8933C60.1861 63.0902 60.2353 63.324 60.2353 63.6009C60.2353 63.6655 60.2353 63.7424 60.2261 63.8316H60.223Z" fill="white"/>
<path d="M68.5018 61.6695C68.0496 61.6603 67.8158 61.6572 67.8004 61.6572C67.7696 62.7248 67.7266 63.7677 67.6743 64.783C68.711 64.7737 69.2894 64.7676 69.4125 64.7676L70.9138 64.783L71.08 61.6572C70.277 61.6726 69.7724 61.6818 69.5725 61.6818C69.314 61.6818 68.9572 61.6788 68.5049 61.6695H68.5018Z" fill="white"/>
<path d="M85.3767 64.2046C85.2229 63.9923 85.0506 63.82 84.8568 63.6846C84.663 63.5493 84.4815 63.4508 84.3123 63.3924C84.1431 63.3308 83.9185 63.2785 83.6385 63.2293C83.9185 63.1493 84.1431 63.0693 84.3092 62.9924C84.4753 62.9124 84.6476 62.8017 84.8199 62.6602C84.9952 62.5186 85.1522 62.3402 85.2906 62.1248C85.4321 61.9095 85.5398 61.6664 85.6167 61.3896C85.6936 61.1157 85.7305 60.8266 85.7305 60.5251C85.7305 60.1374 85.6629 59.7775 85.5306 59.439C85.4137 59.1437 85.2537 58.8883 85.0475 58.6761C84.863 58.4976 84.6291 58.3469 84.3523 58.2238C84.0754 58.1038 83.7493 58.0177 83.3801 57.9685C83.1001 57.9315 82.6294 57.9131 81.968 57.9131C81.4173 57.9131 80.7589 57.9254 79.9928 57.95C79.2268 57.9746 78.553 57.9869 77.9777 57.9869C77.5655 57.9869 77.0055 57.9777 76.3041 57.9623C76.3102 58.3838 76.3133 58.713 76.3133 58.9468C76.3133 59.5959 76.2887 60.7158 76.2395 62.3033C76.1902 63.8908 76.1379 65.1398 76.0856 66.0474C76.0487 66.715 75.9749 67.6287 75.8641 68.7917L77.4024 68.7824L79.4883 68.7917C80.3035 68.7917 81.0727 68.7824 81.8018 68.7609C82.5279 68.7394 83.0293 68.7086 83.3062 68.6655C83.6447 68.6071 83.9769 68.5025 84.2969 68.3486C84.6199 68.1948 84.8814 68.0102 85.0814 67.7949C85.3183 67.5395 85.506 67.238 85.6382 66.8811C85.7705 66.5273 85.8351 66.1489 85.8351 65.7459C85.8351 65.4536 85.7951 65.1798 85.7213 64.9153C85.6444 64.6537 85.5306 64.4169 85.3767 64.2046ZM79.4975 60.0543H80.925C81.3496 60.0543 81.6634 60.0913 81.8695 60.1651C82.0756 60.2389 82.2264 60.3528 82.3187 60.5066C82.411 60.6604 82.4571 60.8358 82.4571 61.0296C82.4571 61.168 82.4356 61.3034 82.3894 61.4419C82.3433 61.5803 82.2664 61.7034 82.1587 61.8141C82.051 61.9249 81.9218 62.0049 81.7741 62.051C81.6265 62.0972 81.4726 62.131 81.3157 62.1495C81.1588 62.1679 80.8973 62.1771 80.5251 62.1771H79.396L79.4944 60.0513L79.4975 60.0543ZM82.454 65.9274C82.3833 66.0905 82.2848 66.2228 82.1648 66.3151C82.0418 66.4104 81.8664 66.4873 81.6326 66.5458C81.4419 66.592 81.1465 66.6166 80.7435 66.6166H79.2175L79.316 64.3307H80.9896C81.3496 64.3307 81.6142 64.3492 81.7834 64.3892C81.9526 64.4292 82.0941 64.4938 82.211 64.583C82.3279 64.6722 82.414 64.783 82.4725 64.9153C82.531 65.0475 82.5586 65.2014 82.5586 65.3767C82.5586 65.5767 82.5217 65.7613 82.451 65.9243L82.454 65.9274Z" fill="white"/>
<path d="M93.2865 60.5614C93.0526 60.5091 92.8434 60.4814 92.6527 60.4814C92.4527 60.4814 92.2589 60.503 92.0743 60.5491C91.8897 60.5922 91.7113 60.663 91.5421 60.7553C91.3729 60.8476 91.2221 60.9522 91.0898 61.066C90.9575 61.1798 90.7883 61.3521 90.5822 61.5859L90.616 60.6906C90.0438 60.6999 89.5393 60.706 89.0993 60.706C88.724 60.706 88.2163 60.6999 87.5764 60.6906C87.5857 61.2629 87.5918 61.7397 87.5918 62.1274C87.5918 62.515 87.5918 62.8811 87.5826 63.2472L87.5026 65.2716L87.2565 68.7942C87.8441 68.785 88.3948 68.7788 88.9086 68.7788C89.4223 68.7788 89.9423 68.785 90.4561 68.7942C90.4345 68.3881 90.4253 68.0466 90.4253 67.7697C90.4253 66.9883 90.4468 66.2899 90.4899 65.6838C90.533 65.0747 90.6068 64.6317 90.7114 64.3517C90.816 64.0717 90.9575 63.8379 91.136 63.6503C91.3144 63.4626 91.5175 63.3211 91.7451 63.2288C91.9759 63.1365 92.2497 63.0903 92.5665 63.0903C92.8219 63.0903 93.0926 63.1334 93.3818 63.2165L93.3264 61.9951C93.3049 61.6198 93.2926 61.1429 93.2865 60.5676V60.5614Z" fill="white"/>
<path d="M101.771 61.4258C101.39 61.0781 100.925 60.832 100.378 60.6936C99.8301 60.5521 99.2547 60.4844 98.6517 60.4844C98.0488 60.4844 97.5011 60.5613 96.9443 60.7151C96.3874 60.8689 95.8983 61.1274 95.4737 61.4935C95.0461 61.8565 94.7015 62.3641 94.4308 63.0102C94.16 63.6593 94.0247 64.3208 94.0247 64.9976C94.0247 65.4776 94.0923 65.9452 94.2277 66.4005C94.3631 66.8559 94.56 67.2466 94.8184 67.5788C95.0768 67.908 95.3999 68.1849 95.7814 68.4064C96.1659 68.6279 96.6212 68.7818 97.1504 68.871C97.6796 68.9571 98.258 69.0002 98.8886 69.0002C99.3163 69.0002 99.7408 68.9817 100.159 68.9417C100.578 68.9017 101.091 68.8218 101.707 68.6987C101.904 67.4835 102.036 66.7143 102.104 66.3974C101.448 66.5943 100.898 66.7328 100.448 66.8128C100.002 66.8958 99.6024 66.9358 99.2547 66.9358C98.6671 66.9358 98.1718 66.8005 97.7626 66.5328C97.3565 66.2652 97.1504 65.8437 97.1504 65.2776C97.1504 65.2099 97.1504 65.133 97.1596 65.0469L102.722 65.0376C102.79 64.6684 102.824 64.33 102.824 64.0285C102.824 63.5209 102.744 63.0471 102.58 62.6072C102.42 62.1672 102.147 61.7734 101.768 61.4258H101.771ZM99.8424 63.8316H97.2242C97.2612 63.6194 97.2981 63.4532 97.335 63.3363C97.3719 63.2163 97.4304 63.0933 97.5104 62.9671C97.5904 62.841 97.6888 62.7272 97.8088 62.6287C97.9288 62.5303 98.0611 62.4564 98.2087 62.4072C98.3564 62.358 98.5102 62.3303 98.6702 62.3303C98.8979 62.3303 99.1009 62.3764 99.2855 62.4657C99.467 62.5549 99.6085 62.6995 99.707 62.8933C99.8054 63.0902 99.8547 63.324 99.8547 63.6009C99.8547 63.6655 99.8547 63.7424 99.8454 63.8316H99.8424Z" fill="white"/>
<path d="M110.571 60.6936C110.051 60.5521 109.481 60.4844 108.857 60.4844C107.762 60.4844 106.451 60.6505 104.928 60.9858C104.87 61.4104 104.827 61.7211 104.802 61.918C104.774 62.1149 104.713 62.478 104.611 63.001C105.95 62.4872 107.073 62.2318 107.983 62.2318C108.312 62.2318 108.558 62.2872 108.728 62.3949C108.897 62.5026 108.98 62.6595 108.98 62.8594C108.98 62.9333 108.968 63.004 108.94 63.0687C108.912 63.1363 108.869 63.1979 108.811 63.2594C108.749 63.3209 108.669 63.3732 108.574 63.4194C108.475 63.4655 108.312 63.5178 108.082 63.5794C107.851 63.6409 107.599 63.6963 107.325 63.7486C106.663 63.8747 106.119 64.0101 105.688 64.1516C105.257 64.2931 104.916 64.4469 104.67 64.6069C104.421 64.7669 104.205 64.9638 104.021 65.1915C103.836 65.4191 103.701 65.6529 103.611 65.8898C103.525 66.1267 103.479 66.3698 103.479 66.619C103.479 67.0251 103.596 67.4342 103.833 67.8403C104.07 68.2464 104.405 68.5418 104.842 68.7264C105.279 68.9079 105.823 69.0002 106.482 69.0002C106.888 69.0002 107.322 68.9633 107.774 68.8894C107.986 68.108 108.168 67.5111 108.322 67.105C108.1 67.1789 107.925 67.225 107.799 67.2435C107.672 67.262 107.552 67.2712 107.442 67.2712C107.131 67.2712 106.903 67.2066 106.759 67.0804C106.617 66.9543 106.543 66.8005 106.543 66.619C106.543 66.5021 106.568 66.3974 106.62 66.3021C106.669 66.2067 106.756 66.1144 106.873 66.0252C106.993 65.936 107.131 65.8621 107.291 65.8037C107.451 65.7452 107.675 65.6745 107.959 65.5883C108.245 65.5053 108.442 65.4407 108.555 65.3976C108.669 65.3545 108.826 65.2868 109.026 65.1915C108.937 67.0128 108.857 68.2126 108.786 68.7941C109.346 68.7848 109.875 68.7787 110.374 68.7787C110.872 68.7787 111.404 68.7848 111.921 68.7941C111.964 67.1112 112.023 65.7514 112.103 64.7146C112.183 63.6778 112.223 63.0102 112.223 62.7149C112.223 62.1334 112.078 61.6873 111.786 61.3735C111.493 61.0628 111.09 60.8351 110.571 60.6936Z" fill="white"/>
<path d="M117.751 62.9921H119.575C119.575 62.6383 119.597 61.9092 119.64 60.8108H117.831C117.846 60.011 117.874 59.2664 117.911 58.5742C117.102 58.768 116.573 58.8911 116.323 58.9403L114.967 59.2172C114.921 60.0356 114.881 60.5678 114.847 60.8108H113.533L113.508 61.5492C113.487 62.1461 113.462 62.6291 113.438 62.9921H114.674L114.502 65.7364C114.471 66.2009 114.453 66.5024 114.447 66.6378C114.441 66.7731 114.438 66.8654 114.438 66.9208C114.438 67.2162 114.481 67.4961 114.564 67.7607C114.647 68.0253 114.807 68.2591 115.041 68.4622C115.274 68.6652 115.564 68.8067 115.914 68.8836C116.262 68.9606 116.662 68.9975 117.111 68.9975C117.385 68.9975 117.671 68.9821 117.963 68.9482C118.256 68.9175 118.665 68.8436 119.191 68.7267L119.366 67.7576C119.434 67.3331 119.517 66.8993 119.612 66.4563C119.262 66.5516 119.018 66.607 118.883 66.6255C118.745 66.6439 118.612 66.6532 118.486 66.6532C118.317 66.6532 118.163 66.6162 118.022 66.5424C117.88 66.4686 117.785 66.3455 117.729 66.1763C117.674 66.0071 117.646 65.7948 117.646 65.5425C117.646 65.4595 117.653 65.2687 117.662 64.9703L117.757 62.9859L117.751 62.9921Z" fill="white"/>
<path d="M130.057 61.9789C129.952 61.6681 129.749 61.3882 129.454 61.139C129.159 60.8867 128.799 60.7113 128.38 60.6129C127.959 60.5114 127.525 60.4622 127.076 60.4622C126.842 60.4622 126.617 60.4745 126.399 60.5021C126.181 60.5298 125.978 60.5667 125.796 60.6129C125.615 60.659 125.451 60.7144 125.313 60.779C125.175 60.8436 125.036 60.9206 124.901 61.0128C124.765 61.1051 124.642 61.2067 124.532 61.3143C124.421 61.422 124.279 61.5882 124.104 61.8097C124.162 60.8406 124.202 60.1976 124.23 59.8807L124.393 57.9609C123.885 57.9702 123.347 57.9763 122.775 57.9763C122.353 57.9763 121.806 57.9702 121.132 57.9609C121.132 58.7701 121.12 59.6038 121.095 60.4591C121.07 61.3174 121.037 62.2096 120.987 63.1418C120.907 64.5478 120.831 65.7845 120.757 66.8459C120.72 67.3536 120.658 68.0027 120.572 68.7903C121.237 68.7811 121.806 68.7749 122.276 68.7749C122.747 68.7749 123.239 68.7811 123.775 68.7903C123.806 67.7535 123.836 66.9905 123.867 66.5044C123.925 65.6276 124.009 64.9631 124.113 64.5139C124.202 64.1447 124.316 63.8617 124.455 63.6648C124.615 63.431 124.799 63.2618 125.011 63.148C125.248 63.0218 125.522 62.9572 125.83 62.9572C126.174 62.9572 126.451 63.0587 126.661 63.2587C126.87 63.4587 126.974 63.8094 126.974 64.3047C126.974 64.7539 126.94 65.4369 126.873 66.3568C126.805 67.2736 126.725 68.0858 126.636 68.7903C127.217 68.7811 127.793 68.7749 128.359 68.7749C128.86 68.7749 129.389 68.7811 129.94 68.7903C129.94 68.458 129.94 68.1811 129.943 67.9596C129.943 67.7412 129.959 67.4643 129.98 67.129L130.152 64.4555C130.18 64.0955 130.195 63.7971 130.205 63.5633C130.214 63.3295 130.217 63.1387 130.217 62.9972C130.217 62.628 130.165 62.2865 130.057 61.9789Z" fill="white"/>
<path d="M55.7006 59.5679C54.7807 59.2757 51.335 59.8356 49.9444 62.4845C48.6831 64.8842 48.8923 67.7207 49.5783 68.6006C50.6674 67.6192 51.2797 66.4963 51.6365 65.6102C52.1688 64.2689 52.298 63.2936 52.5256 62.6691C52.984 61.4385 53.0948 61.4908 53.0763 61.4815C53.0979 61.4877 53.0671 61.4877 52.7041 62.7214C52.5256 63.3305 52.4426 64.3273 51.9288 65.721C51.5873 66.6255 50.9874 67.773 49.9075 68.7913C51.292 68.4714 52.8364 67.53 53.4209 65.844C54.147 63.7458 53.5317 62.8198 54.0178 61.2785C54.3193 60.3217 54.9746 59.9648 55.7037 59.5679H55.7006Z" fill="white"/>
<path d="M48.8 64.7207L47.7047 60.6904H44.4959L47.2371 68.7909L49.2614 68.7817C48.7446 68.0772 48.48 66.4774 48.8 64.7207Z" fill="white"/>
</svg>
