<svg width="150" height="100" viewBox="0 0 150 100" fill="none" xmlns="http://www.w3.org/2000/svg">
<g clip-path="url(#clip0_2760_91572)">
<path d="M150 0H0V100H150V0Z" fill="#47A638"/>
<path d="M49.8611 54.825C49.0722 54.4805 48.2111 54.3444 47.3611 54.2111C46.7777 54.1194 46.1972 54.0278 45.6139 53.9389C44.6916 53.7944 43.7583 53.6472 42.8972 53.2861C42.8055 53.2472 42.7083 53.2028 42.6527 53.1222C42.575 53.0139 42.5833 52.8666 42.6 52.7333C42.7 51.8722 42.95 51.0722 43.2055 50.25C43.3833 49.6694 43.9916 48.1694 43.65 47.5861C43.2333 46.8722 42.5333 46.7694 41.7611 46.5861C40.9639 47.725 39.5444 47.7861 38.3444 48.2361C37.0222 48.7305 35.775 49.4 34.5055 50.0139C34.1361 50.1916 33.6722 50.3611 33.3389 50.1166C33.8222 49.4889 34.3027 48.8611 34.7861 48.2361C35.3222 47.5389 35.8777 46.825 36.6416 46.3889C37.5666 45.8583 38.6361 45.8305 39.675 45.8361C40.6666 45.8416 41.6027 45.6666 42.5805 45.5194C43.2 45.0166 44.0583 44.9361 44.5694 44.2694C44.9722 43.7444 44.5944 43.6528 44.1389 43.3555C43.725 43.0861 43.2861 42.8583 42.825 42.6778C40.9583 41.9528 38.7777 42.0083 36.9889 42.9222C36.6083 43.1166 36.1889 43.3528 35.7777 43.2305C34.8889 42.9666 34.975 41.4861 33.9944 41.2694C33.3333 41.1222 32.9277 41.8028 32.8527 42.3889C32.8333 42.5416 32.8361 42.6944 32.8055 42.8444C32.7527 43.1111 32.45 43.7694 32.1583 43.8583C31.8639 43.9472 31.1139 43.4666 30.8277 43.3472C30.7583 43.3166 30.6833 43.2861 30.6083 43.2889C30.4583 43.2889 30.3389 43.4083 30.2222 43.5C29.8555 43.7805 29.3527 43.8666 28.9139 43.7222C29.3527 43.1833 29.2805 42.4278 29.6583 41.8666C29.9916 41.375 30.5639 41.1389 31.1111 40.9639C32.5555 40.4972 34.0305 40.2278 35.5361 40.0528C36.9111 39.8944 38.2083 39.3944 39.5555 39.0805C42.2166 38.4583 45 38.5222 47.7055 38.9222C47.7639 39.5361 46.775 39.5416 46.3083 39.8972C45.925 40.1916 46.2694 40.3833 43.9389 40.6083V41.2389C46.2694 41.2389 46.0083 41.2416 46.4777 41.2389C47.2611 41.2305 48.4222 40.8639 48.8361 40.1944C49.1639 39.6666 49.5722 39.0527 49.7222 38.4528C49.7666 38.275 49.9389 38.0889 49.9083 37.9083C49.8389 37.5083 49.4833 37.2528 49.0777 37.2083C48.675 37.1666 48.3027 37.2805 47.9027 37.3361C46.8944 37.4805 45.8444 37.2555 45.0055 36.675C45.4194 36.3194 45.6861 35.7916 45.7139 35.2472C45.7305 34.9528 45.4639 34.6528 45.5083 34.3611C45.5805 33.8916 46.2694 33.5194 46.2694 33.1694V31.7055C43.9389 31.1833 45.0444 30.7472 44.0055 30.6805C43.0416 30.6194 42.1861 30.8028 41.2305 30.8972C38.8777 31.125 36.575 30.8194 34.225 30.6972C33.0639 30.6361 31.925 30.6166 30.7666 30.7333C29.8555 30.825 28.4972 31.4972 27.6639 31.0639C27.4666 30.9639 27.2222 30.9722 26.9194 30.9194C26.825 33.5805 28.55 35.3111 29.9333 37.4278C29.2527 37.2972 28.8 37.1722 28.3361 37.1333C27.825 37.0889 27.3111 37.1222 26.8027 37.1222C26.3342 36.6574 25.8481 36.4166 25.3444 36.4C25.275 36.9055 25.1527 37.4194 25.1389 37.9389C25.0916 39.8139 25.0333 41.7222 25.2 43.5944C25.2333 43.9583 25.2777 44.3305 25.4416 44.6555C25.5861 44.9444 25.8139 45.1805 26.0389 45.4139C26.2555 45.6361 26.475 45.8611 26.7527 45.9972C27.0305 46.1333 27.3777 46.1666 27.6389 46.0028C28.1777 45.6639 28.1583 44.6555 28.7889 44.5611C29.0361 44.8833 29.2777 45.2833 29.5833 45.5555C29.9833 45.9139 30.4722 46.175 30.9944 46.2972C31.3 46.3694 31.6305 46.4 31.8777 46.5944C32.4889 47.0778 31.4555 48.65 31.2139 49.1694C30.8472 49.9527 30.4639 50.6778 30.1333 51.4889C29.8639 52.1444 29.4444 52.725 29.025 53.2972C28.4639 54.0666 27.8944 54.8444 27.1583 55.4472C26.6083 55.9 25.9416 56.0583 25.3777 56.4389C25.0889 56.6333 24.9639 57.2694 25.0111 57.6555C25.0194 57.725 25.4361 59.025 25.4944 59.025H25.9361C26.6389 59.025 27.1527 58.8416 27.6166 58.5889V58.6889C29.9472 58.8805 31.0694 58.7 31.975 58.1222C32.0444 58.0778 32.7722 57.9861 32.8472 57.9694C34.2444 57.625 35.7944 56.8055 37.0694 56.475C39.2 56.8972 41.4472 57.4778 43.5694 57.9805C45.5389 58.4472 47.725 58.675 49.6472 58.0416C50.3666 57.8028 51.7805 57.2666 51.5861 56.3361C51.4389 55.6305 50.4583 55.1 49.8611 54.8389V54.825ZM39.2722 34.8889C39.2722 34.6944 40.3527 34.5972 41.2055 34.4972C42.0222 34.4 42.5111 34.2472 43.4333 34.325C43.3777 35.2389 43.4333 35.9694 42.7583 36.6111C41.4389 36.5139 39.275 36.8972 39.275 36.0472V34.8916L39.2722 34.8889ZM32.4472 35.3083H34.5611C34.6361 35.3083 34.7611 35.5833 34.9139 35.7861C34.8222 35.9916 34.7111 36.25 34.5889 36.5222C34.1222 36.8861 33.55 36.8833 32.9416 36.85C32.6722 36.4722 32.3916 36.0639 32.1055 35.6611C32.2555 35.5111 32.3444 35.3083 32.4472 35.3083ZM30.0944 57.0028C29.7694 57.2416 29.8472 57.4083 28.8222 57.575C29.2083 57.1333 29.5916 56.6389 30.0555 56.0583C30.6 55.3722 30.9805 54.0639 31.9611 53.6361C32.7722 54.8778 34.1083 55.275 35.2555 56.2472C33.9555 56.6833 31.4416 57.2333 30.0944 57.0028ZM39.6805 52.7944C37.8472 52.9694 36.25 52.2916 34.4333 51.6194C34.3944 51.6055 35.8611 50.9583 36.0639 50.9194C36.8 50.7778 37.5277 50.6222 38.2472 50.4139C39.025 50.1889 40.0139 49.6 40.7833 49.5778C40.9027 50.2111 40.6472 52.7028 39.6805 52.7944Z" fill="white"/>
<path d="M120.161 55.5421C119.689 54.8365 118.906 54.4032 118.111 54.1032C117.058 53.706 115.986 53.3588 114.925 52.981C114.572 52.856 115.311 51.0449 115.397 50.8449C115.742 50.0504 116.142 49.2838 116.6 48.5504C116.789 48.2477 116.992 47.9393 117.061 47.5865C117.214 46.8032 116.619 46.0171 115.878 45.7143C115.139 45.4088 114.3 45.481 113.514 45.6282C113.247 45.6782 112.975 45.7338 112.706 45.7032C112.436 45.6727 112.161 45.5366 112.042 45.2921C111.914 45.0338 111.986 44.7254 112.061 44.4449C112.581 42.5088 113.083 40.5643 114 38.7699C114.869 37.0754 115.747 35.4199 115.978 33.5004C116.039 32.9921 116.058 32.4616 115.867 31.9866C115.472 30.9949 114.494 30.7199 113.522 30.6227C111.883 30.456 110.239 30.356 108.594 30.256C107.664 30.2004 106.736 30.1421 105.803 30.0866C105.467 30.0671 105.125 30.0449 104.794 30.1171C104.206 30.2477 103.742 30.6449 103.214 30.9088C102.686 31.1727 99.9528 31.2199 99.3695 31.2282C99.1472 31.4504 96.4834 31.6727 96.4834 31.8949V34.0282C96.5472 34.056 96.5889 34.081 96.65 34.1088C95.3389 33.7282 93.7861 33.8477 92.4389 33.931C91.5334 33.9866 88.6695 34.1504 87.6722 34.281C87.5361 34.4171 85.1722 34.6393 85.1722 34.8143V35.5004C85.1722 35.7254 87.8139 35.931 88.1889 36.1699C87.8361 37.8088 90.5389 39.0532 90.1778 40.6199C90.1 40.956 90.4056 41.2671 90.3917 41.6116C90.3695 42.1088 90.9528 42.5449 91.0917 43.0227C91.2195 43.4588 91.3 43.9254 91.2584 44.381C91.1361 45.7032 91.0722 47.0254 90.95 48.3477C90.9 48.8838 90.7722 49.3421 91.1 49.7671C91.425 50.1921 91.9389 50.556 92.325 50.9254C92.6417 50.6421 92.8834 50.431 93.0417 50.2893C93.1806 49.3004 93.3111 48.406 93.4472 47.4504C93.4945 47.4032 93.5778 47.2449 93.6889 47.2227C95.4222 46.881 97.1528 46.4866 98.975 46.6032C99.2306 46.2338 99.7111 45.756 99.8222 45.3227C99.9556 44.8032 99.8222 44.0782 99.8611 43.5338C99.9472 42.3838 100.144 41.2477 100.389 40.1227C100.408 40.0282 100.436 39.9366 100.458 39.8421C100.786 41.2699 101.364 42.706 101.411 44.1338C101.442 45.0227 102.083 45.9782 101.619 46.7393C101.514 46.9143 101.658 47.0699 101.564 47.2532C101.461 47.4532 101.55 47.6727 101.5 47.8921C101.269 48.9032 101.106 49.9171 100.875 50.9282C100.722 51.6004 100.578 52.3143 100.072 52.7866C100.164 51.7088 100.114 50.6199 99.8917 49.5588C99.6972 50.7921 99.5222 52.0282 99.3389 53.2643C99.2861 53.6254 99.2361 53.9893 99.075 54.3171C98.6528 55.1754 97.5695 55.6421 97.3722 56.5754C97.225 57.2866 97.6667 57.9865 98.1889 58.4893C98.4584 58.7449 98.7778 58.9838 99.15 59.0143C99.6445 59.0532 100.103 58.7088 100.356 58.281C100.608 57.856 100.7 57.356 100.814 56.8754C101.006 56.0643 101.256 55.2643 101.592 54.5004C101.872 53.8643 102.286 52.7838 102.858 52.3532C102.917 52.3088 102.972 52.2782 103.022 52.2616C103.303 52.1588 103.464 52.4338 103.803 52.6866C104.147 52.9421 104.494 53.1921 104.856 53.4254C105.567 53.8893 106.322 54.2977 107.136 54.5477C107.531 54.6699 107.981 54.7838 108.189 55.1449C108.214 55.1893 108.236 55.2393 108.228 55.2866C108.217 55.3643 108.139 55.4116 108.069 55.4477C107.206 55.9032 106.297 56.1199 105.333 56.2338C104.867 56.2893 103.061 56.5616 102.836 55.9254C102.692 55.5171 102.55 55.1115 102.375 54.6171C102.447 54.8254 102.117 55.5143 102.072 55.756C101.978 56.2477 101.953 56.756 101.989 57.2532C101.997 57.3504 102.006 57.4532 102.056 57.5393C102.108 57.6366 102.203 57.7032 102.297 57.7588C103.019 58.181 103.925 58.0421 104.744 57.8671C106.322 57.5338 107.881 57.1143 109.411 56.6143C110.103 56.3866 110.686 56.2727 111.392 56.4754C113.892 57.1921 116.539 57.1421 119.142 57.0893C119.692 57.0782 120.533 56.1032 120.158 55.5449L120.161 55.5421ZM97.1528 41.1893C97.1445 41.706 97.1778 42.3199 96.8222 42.7421C96.6306 42.9671 96.3556 43.1004 96.0834 43.2143C95.8389 43.3171 95.5917 43.4116 95.3417 43.506C95.2 43.5588 95.0472 43.6143 94.8972 43.5921C94.8834 43.5921 94.8695 43.5865 94.8528 43.5838C94.6528 43.5338 94.5167 43.3366 94.4667 43.1338C94.4167 42.931 94.4334 42.7199 94.4306 42.5115C94.4195 41.9754 94.2584 41.4588 94.1834 40.9282C94.0667 40.1088 94.3 39.3977 94.8417 38.7727C95.575 38.8199 96.3611 38.6171 97.1528 39.1838C97.3222 39.306 97.1556 40.9366 97.1528 41.1893ZM112.842 51.6893C112.728 51.7838 112.6 51.8699 112.456 51.9004C112.267 51.9421 112.069 51.8893 111.883 51.8338C110.703 51.4949 109.533 51.1004 108.394 50.6393C107.867 50.4254 107.342 50.2032 106.831 49.956C106.442 49.7699 105.683 49.1616 105.261 49.1616C105.092 49.0754 104.919 48.9866 104.803 48.8365C104.481 48.4199 104.767 47.8254 104.783 47.2977C104.8 46.781 104.542 46.2893 104.511 45.7727C104.486 45.3477 104.617 44.931 104.661 44.506C104.758 43.6171 104.494 42.7365 104.35 41.856C104.153 40.6504 104.192 39.406 104.453 38.2116C104.658 37.2643 104.956 35.9893 105.764 35.3699C107.1 34.3504 109.117 34.706 110.672 34.7254C111.075 34.731 111.211 34.9143 111.467 35.1782C111.378 35.0866 111.217 35.7754 111.211 35.8004C111.131 36.1671 111.092 36.5532 111.022 36.9254C110.883 37.6588 110.733 38.3921 110.564 39.1199C110.219 40.6088 109.806 42.0838 109.292 43.5227C108.922 44.5615 108.483 45.606 107.733 46.4116C107.428 46.7421 107.058 47.0532 106.783 47.406C106.586 47.6616 106.439 47.9366 106.403 48.2616C106.35 48.7116 106.55 49.1838 106.908 49.4588C107.342 49.7893 107.925 49.8199 108.467 49.8393C109.125 49.8616 109.789 49.8838 110.442 49.7949C111.581 49.6449 112.692 49.1643 113.831 49.2838C113.925 50.1838 113.539 51.1199 112.836 51.6893H112.842Z" fill="white"/>
<path d="M85.8722 45.6608C85.4944 45.697 85.1055 45.7997 84.7361 45.6997C84.6417 45.6747 84.5472 45.6331 84.4917 45.5525C84.4111 45.4358 84.4444 45.2775 84.4861 45.1414C84.6 44.7581 84.7611 44.3886 84.9555 44.0386C85.1139 43.7608 85.3028 43.4858 85.3555 43.1692C85.3917 42.9497 85.3639 42.7247 85.3361 42.5025C85.2889 42.147 85.2417 41.7914 85.1972 41.4358C85.1722 41.2358 85.1417 41.0275 85.0278 40.8608C84.9055 40.6858 84.7055 40.5831 84.5333 40.4525C84.0639 40.097 84.3611 39.6442 84.1194 39.2053C83.7611 38.5553 82.8805 38.9608 82.8305 39.5775C82.8083 39.8442 82.8361 40.1386 82.6778 40.3581C82.5778 40.497 82.4139 40.5803 82.2833 40.6914C81.7583 41.147 81.8472 41.9664 81.7417 42.6525C81.5944 43.6136 80.9555 44.4831 80.0833 44.9108C79.7 44.1386 79.8694 43.222 79.8444 42.3581C79.8167 41.3914 79.5361 40.4581 79.3139 39.5247C79.1055 38.6581 79.1555 37.6997 78.8639 36.872C78.7833 36.6386 78.1333 35.0886 77.7111 35.2997C78.625 34.8414 79.3 34.6497 80.3417 34.6358C81.6889 34.6192 83.0305 34.4442 84.3389 34.1164C85.0555 33.9358 85.1889 31.7553 84.7055 31.2581C84.1167 30.6497 83.2694 30.3053 82.4528 30.147C81.4667 29.9581 80.4528 30.0136 79.45 30.072C77.9055 30.1608 76.3611 30.2497 74.8167 30.3386C74.5361 30.3553 74.2528 30.372 73.9861 30.4553C73.7778 30.5192 73.5861 30.622 73.3889 30.7164C72.8361 30.9886 72.2639 31.2192 71.6778 31.4025C71.3167 31.5164 70.4667 31.5525 70.1778 31.7636C69.0944 32.5608 70.5861 33.7442 71.2972 34.0831C71.9139 34.3775 72.5889 34.522 73.2611 34.6386C74.5472 34.8608 75.85 34.9858 77.1555 35.0108C76.0278 36.2053 76.0889 37.8275 76.4 39.322C76.6805 40.672 76.9611 42.022 77.2389 43.3692C77.3583 43.9442 77.4667 44.4386 77.425 45.0192C77.4194 45.0914 77.4 45.9886 77.4611 45.9636C76.7694 46.2497 76.1778 46.4942 75.6139 46.7303C75.4611 46.2942 75.4 45.847 75.1694 45.5192C74.5472 44.6414 73.8472 43.8192 73.1861 42.9692C72.2917 41.8136 71.4055 40.6525 70.5194 39.4942C70.1583 39.022 69.8055 38.5442 69.5 38.1331C69.4639 38.0831 68.9333 38.172 68.8417 38.1775C68.7 39.3442 68.3083 40.4831 68.7917 41.6442C69.1833 42.5858 70.0555 43.2664 71.0083 43.6275C71.2944 43.7358 71.6 43.8275 71.825 44.0331C72.3778 44.5386 72.4861 45.7942 72.6833 46.4858C72.9778 47.5303 71.5305 47.5136 70.825 47.6608C70.0528 47.822 69.1222 48.1803 68.3333 48.1803C67.8667 48.2775 67.3972 48.3747 66.9361 48.497C66.4139 48.6331 65.9028 48.8025 65.4028 49.0025C65.0917 49.1247 64.7694 49.272 64.5778 49.547C64.4722 49.697 64.4139 49.8775 64.3055 50.0275C64.1917 50.1858 64.0278 50.3025 63.9083 50.4553C63.4889 50.9803 63.7722 51.897 64.4167 52.0942C64.5889 52.147 64.7722 52.1525 64.9528 52.1525C65.5222 52.1525 66.0917 52.0831 66.6444 51.947C67.7944 51.6664 68.8694 51.1053 70.0361 50.897C71.0667 50.7136 72.1278 50.8136 73.1722 50.8914C73.2917 50.8997 73.4139 50.9108 73.5333 50.9053C73.6444 50.9025 73.7555 50.8858 73.8667 50.8692C74.8305 50.7358 75.8 50.6331 76.7694 50.5608C76.875 50.5525 76.9889 50.547 77.0833 50.5942C77.175 50.6386 77.2389 50.722 77.2972 50.8053C77.5444 51.1442 77.7944 51.4831 78.0417 51.8192C78.1111 51.9136 78.1833 52.0164 78.1889 52.1331C78.1944 52.2247 78.1583 52.3136 78.1222 52.3997C77.9694 52.7692 77.8167 53.1358 77.6639 53.5025C77.6139 53.6275 77.5611 53.7525 77.4722 53.8553C77.3444 54.0025 77.1583 54.0803 76.9778 54.1525C76.5028 54.347 76.0278 54.5414 75.5528 54.7358C75.35 54.8192 75.1278 54.9025 74.9139 54.8525C74.5417 54.7636 74.2167 54.2803 73.8833 54.4747C73.7222 54.5692 73.6778 54.7803 73.6528 54.9636C73.5333 55.8108 73.4667 56.8108 74.1111 57.372C74.65 57.8414 75.4528 57.7886 76.1361 57.997C76.6083 58.1414 77.0361 58.422 77.5194 58.5275C78.4528 58.7331 79.3889 58.2664 80.2305 57.8164C80.4194 57.7136 80.6139 57.6108 80.7555 57.4497C80.8833 57.3053 80.9611 57.1247 81.0389 56.947C81.1333 56.7275 81.2305 56.5053 81.325 56.2858C81.3833 56.1497 81.4444 56.0081 81.4472 55.8581C81.4472 55.7331 81.4083 55.6136 81.3694 55.4942C81.0778 54.5914 80.9055 53.6497 80.8555 52.7025C80.8055 51.7386 81.0222 51.072 81.5111 50.2664C82.2278 50.6025 82.65 50.3692 83.4 50.297C83.7333 50.2664 84.0639 50.3414 84.3917 50.4081C85.4333 50.6247 86.6194 50.7358 87.4611 50.0886C88.3694 49.3886 88.5111 48.0831 88.45 46.9414C88.4417 46.8108 88.4333 46.6775 88.3778 46.5608C88.0111 45.7942 86.5917 45.5803 85.8611 45.6497L85.8722 45.6608Z" fill="white"/>
<path d="M63.9195 45.0919C63.8945 44.5614 64.1139 44.0253 64.5028 43.6669C64.8556 43.3419 65.3167 43.5947 65.7167 43.6086C66.2028 43.6253 66.6917 43.4475 67.1167 43.2253C67.4862 43.0308 67.8473 42.7864 68.0473 42.4197C68.2723 42.0142 68.2612 41.5225 68.2473 41.0586C68.2139 40.1253 68.1778 39.1753 68.4223 38.2725C68.6417 37.4614 69.0806 36.728 69.3584 35.9364C69.5528 35.2919 69.6639 34.578 69.5056 33.9114C69.2695 32.9225 68.475 32.8558 67.6195 32.553C67.45 32.4947 67.2667 32.4336 67.0973 32.4947C67.0028 32.5308 66.9223 32.6003 66.8306 32.6419C66.725 32.6892 66.6084 32.6975 66.4973 32.7058C65.4445 32.7808 64.3806 32.8586 63.3306 32.7225C62.8695 32.6614 62.4334 32.5336 61.9806 32.4336C61.7695 32.3864 60.8612 32.1003 60.6889 32.2058C59.7278 32.8003 59.3778 33.5975 59.1917 34.4336C59.05 35.0697 59.1028 35.7475 59.0834 36.4058C59.0834 36.4364 59.1973 36.4697 59.2584 36.503C59.3278 36.3086 59.3889 36.1142 59.475 35.9308C59.8862 36.278 60.0584 37.253 60.2028 37.7697C60.3973 38.453 60.5389 39.1475 60.6278 39.853C60.8084 41.2586 60.7778 42.6947 60.5306 44.0919C60.4945 44.2975 60.4528 44.5058 60.4584 44.7142C60.4723 45.1169 60.6667 45.4669 60.9167 45.7697C61.0167 45.8919 61.5112 46.5142 61.6306 46.5142C61.9723 46.5142 62.5389 46.6253 62.8612 46.5142C63.1695 46.4058 63.475 46.0086 63.7195 45.7919C63.7778 45.7392 63.8389 45.6864 63.8778 45.6169C63.9667 45.4642 63.9362 45.2725 63.925 45.0975L63.9195 45.0919ZM63.4695 39.478C63.3389 38.7558 63.2056 37.5725 63.0473 37.1558H65.7917C65.8584 37.9892 65.7362 39.1336 64.8362 39.8197C64.3889 39.7419 63.8528 40.0142 63.4695 39.478Z" fill="white"/>
<path d="M124.483 30.2525C124.139 29.6358 123.658 29.1608 123.044 28.8302C122.428 28.4969 121.797 28.333 121.15 28.333C120.503 28.333 119.872 28.4997 119.256 28.8302C118.639 29.1636 118.158 29.6358 117.814 30.2525C117.469 30.8719 117.294 31.5136 117.294 32.1858C117.294 32.858 117.464 33.4886 117.806 34.0997C118.144 34.7136 118.622 35.1886 119.233 35.5275C119.844 35.8663 120.483 36.0358 121.15 36.0358C121.817 36.0358 122.456 35.8663 123.067 35.5275C123.678 35.1886 124.153 34.7136 124.492 34.0997C124.831 33.4886 125 32.8497 125 32.1858C125 31.5219 124.828 30.8719 124.483 30.2525ZM123.936 33.7802C123.656 34.2886 123.258 34.6858 122.747 34.9691C122.236 35.2525 121.706 35.3941 121.15 35.3941C120.594 35.3941 120.061 35.2525 119.553 34.9691C119.042 34.6858 118.644 34.2886 118.361 33.7802C118.078 33.2719 117.936 32.7386 117.936 32.1858C117.936 31.633 118.081 31.0913 118.369 30.5747C118.658 30.058 119.058 29.6608 119.572 29.3858C120.086 29.108 120.611 28.9691 121.153 28.9691C121.694 28.9691 122.217 29.108 122.731 29.3858C123.244 29.6636 123.644 30.0608 123.933 30.5747C124.219 31.0886 124.364 31.6275 124.364 32.1858C124.364 32.7441 124.222 33.2719 123.939 33.7802H123.936Z" fill="white"/>
<path d="M121.767 32.3112V32.2918C122.214 32.139 122.578 31.7612 122.578 31.1973C122.578 30.8584 122.45 30.564 122.239 30.3779C121.969 30.1362 121.581 30.0195 120.986 30.0195C120.608 30.0195 120.2 30.0584 119.919 30.1168V34.3612H120.475V32.4945H120.997C121.503 32.514 121.739 32.7362 121.867 33.3306C121.981 33.8668 122.078 34.239 122.147 34.3612H122.722C122.639 34.1945 122.536 33.7779 122.394 33.1779C122.286 32.7306 122.089 32.4223 121.761 32.3084L121.767 32.3112ZM121.044 32.0751H120.475V30.5084C120.569 30.4834 120.756 30.4584 121.025 30.4584C121.614 30.4584 122.017 30.7001 122.017 31.2584C122.017 31.7501 121.639 32.0779 121.044 32.0779V32.0751Z" fill="white"/>
<path d="M53.9194 46.7163C54.9626 46.7163 55.8083 45.8706 55.8083 44.8274C55.8083 43.7842 54.9626 42.9385 53.9194 42.9385C52.8762 42.9385 52.0305 43.7842 52.0305 44.8274C52.0305 45.8706 52.8762 46.7163 53.9194 46.7163Z" fill="white"/>
<path d="M28.3306 69.3474L28.3583 68.3502L28.575 64.2946L28.7472 61.7002C28.1139 61.7085 27.625 61.7141 27.2861 61.7141C26.7861 61.7141 26.2111 61.7085 25.5611 61.7002C25.5611 62.5169 25.5361 63.5669 25.4861 64.8474C25.4361 66.1308 25.3611 67.4196 25.2583 68.7196C25.2056 69.4308 25.1194 70.3502 25 71.478C26.1556 71.4696 27.5028 71.4641 29.0417 71.4641C30.1778 71.4641 31.375 71.4696 32.6306 71.478L32.7889 69.3141C32.1444 69.3474 31.1917 69.3641 29.9361 69.3641C29.6861 69.3641 29.1528 69.3558 28.3306 69.3419V69.3474Z" fill="white"/>
<path d="M40.9416 65.0388C40.5639 64.6971 40.1027 64.436 39.5555 64.2527C39.0083 64.0721 38.4389 63.9805 37.8472 63.9805C37.2111 63.9805 36.6 64.0832 36.0139 64.286C35.4277 64.4888 34.9333 64.7805 34.5333 65.1555C34.1333 65.5332 33.8444 65.9582 33.6583 66.4305C33.475 66.9027 33.3833 67.3999 33.3833 67.9221C33.3833 68.4444 33.4777 68.9388 33.6666 69.411C33.8555 69.8832 34.1361 70.2888 34.5111 70.6305C34.8861 70.9694 35.3527 71.2277 35.9111 71.4055C36.4694 71.5805 37.0527 71.6694 37.6583 71.6694C38.3166 71.6694 38.9416 71.5694 39.5305 71.3694C40.1194 71.1694 40.6055 70.8666 40.9889 70.4638C41.3722 70.061 41.6416 69.6277 41.8027 69.1666C41.9639 68.7055 42.0416 68.2194 42.0416 67.7082C42.0416 67.1971 41.9527 66.6916 41.7722 66.236C41.5944 65.7805 41.3139 65.3805 40.9389 65.0388H40.9416ZM38.9889 68.686C38.8666 68.9999 38.6861 69.236 38.4472 69.3944C38.2083 69.5555 37.9389 69.636 37.6389 69.636C37.2416 69.636 36.9139 69.4971 36.65 69.2166C36.3861 68.936 36.2555 68.536 36.2555 68.0082C36.2555 67.6499 36.3166 67.3194 36.4389 67.0166C36.5611 66.7138 36.7416 66.4832 36.9805 66.3249C37.2194 66.1666 37.4916 66.0888 37.7972 66.0888C38.1027 66.0888 38.3416 66.161 38.5611 66.3027C38.7777 66.4471 38.9361 66.636 39.0305 66.8749C39.125 67.1138 39.175 67.3805 39.175 67.6777C39.175 68.036 39.1139 68.3721 38.9916 68.6832L38.9889 68.686Z" fill="white"/>
<path d="M58.5444 64.8334C58.2 64.5195 57.7805 64.2973 57.2861 64.1723C56.7916 64.0445 56.2722 63.9834 55.7277 63.9834C55.1833 63.9834 54.6888 64.0528 54.1888 64.1917C53.6861 64.3306 53.2444 64.564 52.8611 64.8945C52.4777 65.2223 52.1638 65.6806 51.9194 66.264C51.675 66.8501 51.5527 67.4473 51.5527 68.0584C51.5527 68.4917 51.6138 68.914 51.7361 69.3251C51.8583 69.7362 52.0361 70.089 52.2694 70.389C52.5027 70.6862 52.7944 70.9362 53.1388 71.1362C53.4861 71.3362 53.8972 71.4751 54.375 71.5556C54.8527 71.6334 55.375 71.6723 55.9444 71.6723C56.3305 71.6723 56.7138 71.6556 57.0916 71.6195C57.4694 71.5834 57.9333 71.5112 58.4888 71.4001C58.6666 70.3028 58.7861 69.6084 58.8472 69.3223C58.2555 69.5001 57.7583 69.6251 57.3527 69.6973C56.95 69.7723 56.5888 69.8084 56.275 69.8084C55.7444 69.8084 55.2972 69.6862 54.9277 69.4445C54.5611 69.2028 54.375 68.8223 54.375 68.3112C54.375 68.2501 54.375 68.1806 54.3833 68.1028L59.4055 68.0945C59.4666 67.7612 59.4972 67.4556 59.4972 67.1834C59.4972 66.7251 59.425 66.2973 59.2777 65.9001C59.1333 65.5028 58.8861 65.1473 58.5444 64.8334ZM56.8027 67.0056H54.4388C54.4722 66.814 54.5055 66.664 54.5388 66.5584C54.5722 66.4501 54.625 66.339 54.6972 66.2251C54.7694 66.1112 54.8583 66.0084 54.9666 65.9195C55.075 65.8306 55.1944 65.764 55.3277 65.7195C55.4611 65.6751 55.6 65.6501 55.7444 65.6501C55.95 65.6501 56.1333 65.6917 56.3 65.7723C56.4638 65.8528 56.5916 65.9834 56.6805 66.1584C56.7694 66.3362 56.8138 66.5473 56.8138 66.7973C56.8138 66.8556 56.8138 66.9251 56.8055 67.0056H56.8027Z" fill="white"/>
<path d="M64.2777 65.0531C63.8694 65.0448 63.6583 65.042 63.6444 65.042C63.6166 66.0059 63.5777 66.9475 63.5305 67.8642C64.4666 67.8559 64.9888 67.8503 65.1 67.8503L66.4555 67.8642L66.6055 65.042C65.8805 65.0559 65.425 65.0642 65.2444 65.0642C65.0111 65.0642 64.6889 65.0614 64.2805 65.0531H64.2777Z" fill="white"/>
<path d="M79.5139 67.3417C79.375 67.15 79.2195 66.9945 79.0445 66.8722C78.8695 66.75 78.7056 66.6611 78.5528 66.6084C78.4001 66.5528 78.1973 66.5056 77.9445 66.4611C78.1973 66.3889 78.4 66.3167 78.55 66.2472C78.7 66.175 78.8556 66.075 79.0112 65.9472C79.1695 65.8195 79.3112 65.6584 79.4362 65.4639C79.5639 65.2695 79.6612 65.05 79.7306 64.8C79.8 64.5528 79.8334 64.2917 79.8334 64.0195C79.8334 63.6695 79.7723 63.3445 79.6528 63.0389C79.5473 62.7722 79.4028 62.5417 79.2167 62.35C79.05 62.1889 78.8389 62.0528 78.5889 61.9417C78.3389 61.8334 78.0445 61.7556 77.7112 61.7111C77.4584 61.6778 77.0334 61.6611 76.4362 61.6611C75.9389 61.6611 75.3445 61.6722 74.6528 61.6945C73.9612 61.7167 73.3528 61.7278 72.8334 61.7278C72.4612 61.7278 71.9556 61.7195 71.3223 61.7056C71.3278 62.0861 71.3306 62.3834 71.3306 62.5945C71.3306 63.1806 71.3084 64.1917 71.2639 65.625C71.2195 67.0584 71.1723 68.1861 71.125 69.0056C71.0917 69.6084 71.025 70.4334 70.925 71.4834L72.3139 71.475L74.1973 71.4834C74.9334 71.4834 75.6278 71.475 76.2862 71.4556C76.9417 71.4361 77.3945 71.4084 77.6445 71.3695C77.95 71.3167 78.25 71.2222 78.5389 71.0834C78.8306 70.9445 79.0667 70.7778 79.2473 70.5834C79.4612 70.3528 79.6306 70.0806 79.75 69.7584C79.8695 69.4389 79.9278 69.0972 79.9278 68.7334C79.9278 68.4695 79.8917 68.2222 79.825 67.9834C79.7556 67.7472 79.6528 67.5334 79.5139 67.3417ZM74.2056 63.5945H75.4945C75.8778 63.5945 76.1612 63.6278 76.3473 63.6945C76.5334 63.7611 76.6695 63.8639 76.7528 64.0028C76.8362 64.1417 76.8778 64.3 76.8778 64.475C76.8778 64.6 76.8584 64.7222 76.8167 64.8472C76.7751 64.9722 76.7056 65.0834 76.6084 65.1834C76.5112 65.2834 76.3945 65.3556 76.2612 65.3972C76.1278 65.4389 75.9889 65.4695 75.8473 65.4861C75.7056 65.5028 75.4695 65.5111 75.1334 65.5111H74.1139L74.2028 63.5917L74.2056 63.5945ZM76.875 68.8972C76.8112 69.0445 76.7223 69.1639 76.6139 69.2472C76.5028 69.3334 76.3445 69.4028 76.1334 69.4556C75.9612 69.4972 75.6945 69.5195 75.3306 69.5195H73.9528L74.0417 67.4556H75.5528C75.8778 67.4556 76.1167 67.4722 76.2695 67.5084C76.4223 67.5445 76.55 67.6028 76.6556 67.6834C76.7612 67.7639 76.8389 67.8639 76.8917 67.9834C76.9445 68.1028 76.9695 68.2417 76.9695 68.4C76.9695 68.5806 76.9362 68.7472 76.8723 68.8945L76.875 68.8972Z" fill="white"/>
<path d="M86.6555 64.0527C86.4444 64.0055 86.2555 63.9805 86.0833 63.9805C85.9027 63.9805 85.7277 63.9999 85.5611 64.0416C85.3944 64.0805 85.2333 64.1444 85.0805 64.2277C84.9277 64.311 84.7916 64.4055 84.6722 64.5082C84.5527 64.611 84.4 64.7666 84.2138 64.9777L84.2444 64.1694C83.7277 64.1777 83.2722 64.1832 82.875 64.1832C82.5361 64.1832 82.0777 64.1777 81.5 64.1694C81.5083 64.686 81.5138 65.1166 81.5138 65.4666C81.5138 65.8166 81.5138 66.1471 81.5055 66.4777L81.4333 68.3055L81.2111 71.486C81.7416 71.4777 82.2388 71.4721 82.7027 71.4721C83.1666 71.4721 83.6361 71.4777 84.1 71.486C84.0805 71.1194 84.0722 70.811 84.0722 70.561C84.0722 69.8555 84.0916 69.2249 84.1305 68.6777C84.1694 68.1277 84.2361 67.7277 84.3305 67.4749C84.425 67.2221 84.5527 67.011 84.7138 66.8416C84.875 66.6721 85.0583 66.5444 85.2638 66.461C85.4722 66.3777 85.7194 66.336 86.0055 66.336C86.2361 66.336 86.4805 66.3749 86.7416 66.4499L86.6916 65.3471C86.6722 65.0082 86.6611 64.5777 86.6555 64.0582V64.0527Z" fill="white"/>
<path d="M94.3167 64.8334C93.9723 64.5195 93.5528 64.2973 93.0584 64.1723C92.5639 64.0445 92.0445 63.9834 91.5 63.9834C90.9556 63.9834 90.4612 64.0528 89.9584 64.1917C89.4556 64.3306 89.0139 64.564 88.6306 64.8945C88.2445 65.2223 87.9334 65.6806 87.6889 66.264C87.4445 66.8501 87.3223 67.4473 87.3223 68.0584C87.3223 68.4917 87.3834 68.914 87.5056 69.3251C87.6278 69.7362 87.8056 70.089 88.0389 70.389C88.2723 70.6862 88.5639 70.9362 88.9084 71.1362C89.2556 71.3362 89.6667 71.4751 90.1445 71.5556C90.6223 71.6334 91.1445 71.6723 91.7139 71.6723C92.1001 71.6723 92.4834 71.6556 92.8612 71.6195C93.2389 71.5834 93.7028 71.5112 94.2584 71.4001C94.4362 70.3028 94.5556 69.6084 94.6167 69.3223C94.025 69.5001 93.5278 69.6251 93.1223 69.6973C92.7195 69.7723 92.3584 69.8084 92.0445 69.8084C91.5139 69.8084 91.0667 69.6862 90.6973 69.4445C90.3306 69.2028 90.1445 68.8223 90.1445 68.3112C90.1445 68.2501 90.1445 68.1806 90.1528 68.1028L95.175 68.0945C95.2362 67.7612 95.2667 67.4556 95.2667 67.1834C95.2667 66.7251 95.1945 66.2973 95.0473 65.9001C94.9028 65.5028 94.6556 65.1473 94.3139 64.8334H94.3167ZM92.575 67.0056H90.2112C90.2445 66.814 90.2778 66.664 90.3112 66.5584C90.3445 66.4501 90.3973 66.339 90.4695 66.2251C90.5417 66.1112 90.6306 66.0084 90.7389 65.9195C90.8473 65.8306 90.9667 65.764 91.1 65.7195C91.2334 65.6751 91.3723 65.6501 91.5167 65.6501C91.7223 65.6501 91.9056 65.6917 92.0723 65.7723C92.2362 65.8528 92.3639 65.9834 92.4528 66.1584C92.5417 66.3362 92.5862 66.5473 92.5862 66.7973C92.5862 66.8556 92.5862 66.9251 92.5778 67.0056H92.575Z" fill="white"/>
<path d="M102.261 64.1723C101.792 64.0445 101.278 63.9834 100.714 63.9834C99.7249 63.9834 98.5416 64.1334 97.1666 64.4362C97.1138 64.8195 97.0749 65.1001 97.0527 65.2778C97.0277 65.4556 96.9722 65.7834 96.8805 66.2556C98.0888 65.7917 99.1027 65.5612 99.9249 65.5612C100.222 65.5612 100.444 65.6112 100.597 65.7084C100.75 65.8056 100.825 65.9473 100.825 66.1278C100.825 66.1945 100.814 66.2584 100.789 66.3167C100.764 66.3778 100.725 66.4334 100.672 66.489C100.617 66.5445 100.544 66.5917 100.458 66.6334C100.369 66.6751 100.222 66.7223 100.014 66.7778C99.8055 66.8334 99.5777 66.8834 99.3305 66.9306C98.7333 67.0445 98.2416 67.1667 97.8527 67.2945C97.4638 67.4223 97.1555 67.5612 96.9333 67.7056C96.7083 67.8501 96.5138 68.0278 96.3472 68.2334C96.1805 68.439 96.0583 68.6501 95.9777 68.864C95.8999 69.0778 95.8583 69.2973 95.8583 69.5223C95.8583 69.889 95.9638 70.2584 96.1777 70.6251C96.3916 70.9917 96.6944 71.2584 97.0888 71.4251C97.4833 71.589 97.9749 71.6723 98.5694 71.6723C98.9361 71.6723 99.3277 71.639 99.7361 71.5723C99.9277 70.8667 100.092 70.3278 100.23 69.9612C100.03 70.0278 99.8722 70.0695 99.7583 70.0862C99.6444 70.1028 99.5361 70.1112 99.4361 70.1112C99.1555 70.1112 98.9499 70.0528 98.8194 69.939C98.6916 69.8251 98.6249 69.6862 98.6249 69.5223C98.6249 69.4167 98.6472 69.3223 98.6944 69.2362C98.7388 69.1501 98.8166 69.0667 98.9222 68.9862C99.0305 68.9056 99.1555 68.839 99.2999 68.7862C99.4444 68.7334 99.6472 68.6695 99.9027 68.5917C100.161 68.5167 100.339 68.4584 100.442 68.4195C100.544 68.3806 100.686 68.3195 100.867 68.2334C100.786 69.8778 100.714 70.9612 100.65 71.4862C101.155 71.4778 101.633 71.4723 102.083 71.4723C102.533 71.4723 103.014 71.4778 103.48 71.4862C103.519 69.9667 103.572 68.739 103.644 67.8028C103.717 66.8667 103.753 66.264 103.753 65.9973C103.753 65.4723 103.622 65.0695 103.358 64.7862C103.094 64.5056 102.731 64.3001 102.261 64.1723Z" fill="white"/>
<path d="M108.744 66.2477H110.392C110.392 65.9282 110.411 65.2699 110.45 64.2782H108.817C108.831 63.556 108.856 62.8838 108.889 62.2588C108.158 62.4338 107.681 62.5449 107.456 62.5893L106.231 62.8393C106.189 63.5782 106.153 64.0588 106.122 64.2782H104.936L104.914 64.9449C104.894 65.4838 104.872 65.9199 104.85 66.2477H105.967L105.811 68.7255C105.783 69.1449 105.767 69.4171 105.761 69.5393C105.756 69.6616 105.753 69.7449 105.753 69.7949C105.753 70.0616 105.792 70.3143 105.867 70.5532C105.942 70.7921 106.086 71.0032 106.297 71.1866C106.508 71.3699 106.769 71.4977 107.086 71.5671C107.4 71.6366 107.761 71.6699 108.167 71.6699C108.414 71.6699 108.672 71.656 108.936 71.6255C109.2 71.5977 109.569 71.531 110.044 71.4255L110.203 70.5505C110.264 70.1671 110.339 69.7755 110.425 69.3755C110.108 69.4616 109.889 69.5116 109.767 69.5282C109.642 69.5449 109.522 69.5532 109.408 69.5532C109.256 69.5532 109.117 69.5199 108.989 69.4532C108.861 69.3866 108.775 69.2755 108.725 69.1227C108.675 68.9699 108.65 68.7782 108.65 68.5505C108.65 68.4755 108.656 68.3032 108.664 68.0338L108.75 66.2421L108.744 66.2477Z" fill="white"/>
<path d="M119.856 65.3329C119.761 65.0523 119.578 64.7995 119.311 64.5745C119.044 64.3467 118.719 64.1884 118.342 64.0995C117.961 64.0079 117.569 63.9634 117.164 63.9634C116.953 63.9634 116.75 63.9745 116.553 63.9995C116.356 64.0245 116.172 64.0579 116.008 64.0995C115.844 64.1412 115.697 64.1912 115.572 64.2495C115.447 64.3079 115.322 64.3773 115.2 64.4606C115.078 64.544 114.967 64.6356 114.867 64.7329C114.767 64.8301 114.639 64.9801 114.481 65.1801C114.533 64.3051 114.569 63.7245 114.594 63.4384L114.742 61.7051C114.283 61.7134 113.797 61.719 113.281 61.719C112.9 61.719 112.406 61.7134 111.797 61.7051C111.797 62.4356 111.786 63.1884 111.764 63.9606C111.742 64.7356 111.711 65.5412 111.667 66.3829C111.594 67.6523 111.525 68.769 111.458 69.7273C111.425 70.1856 111.369 70.7717 111.292 71.4829C111.892 71.4745 112.406 71.469 112.831 71.469C113.256 71.469 113.7 71.4745 114.183 71.4829C114.211 70.5467 114.239 69.8579 114.267 69.419C114.319 68.6273 114.394 68.0273 114.489 67.6217C114.569 67.2884 114.672 67.0329 114.797 66.8551C114.942 66.644 115.108 66.4912 115.3 66.3884C115.514 66.2745 115.761 66.2162 116.039 66.2162C116.35 66.2162 116.6 66.3079 116.789 66.4884C116.978 66.669 117.072 66.9856 117.072 67.4329C117.072 67.8384 117.042 68.4551 116.981 69.2856C116.919 70.1134 116.847 70.8467 116.767 71.4829C117.292 71.4745 117.811 71.469 118.322 71.469C118.775 71.469 119.253 71.4745 119.75 71.4829C119.75 71.1829 119.75 70.9329 119.753 70.7329C119.753 70.5356 119.767 70.2856 119.786 69.9829L119.942 67.569C119.967 67.244 119.981 66.9745 119.989 66.7634C119.997 66.5523 120 66.3801 120 66.2523C120 65.919 119.953 65.6106 119.856 65.3329Z" fill="white"/>
<path d="M52.7195 63.1559C51.8889 62.892 48.7778 63.3975 47.5223 65.7892C46.3834 67.9559 46.5723 70.517 47.1917 71.3114C48.175 70.4253 48.7278 69.4114 49.05 68.6114C49.5306 67.4003 49.6473 66.5198 49.8528 65.9559C50.2667 64.8448 50.3667 64.892 50.35 64.8836C50.3695 64.8892 50.3417 64.8892 50.0139 66.0031C49.8528 66.5531 49.7778 67.4531 49.3139 68.7114C49.0056 69.5281 48.4639 70.5642 47.4889 71.4836C48.7389 71.1948 50.1334 70.3448 50.6612 68.8225C51.3167 66.9281 50.7612 66.092 51.2 64.7003C51.4723 63.8364 52.0639 63.5142 52.7223 63.1559H52.7195Z" fill="white"/>
<path d="M46.4889 67.8088L45.5 64.1699H42.6028L45.0778 71.4838L46.9056 71.4755C46.4389 70.8394 46.2 69.3949 46.4889 67.8088Z" fill="white"/>
</g>
<defs>
<clipPath id="clip0_2760_91572">
<rect width="150" height="100" fill="white"/>
</clipPath>
</defs>
</svg>
