<svg width="150" height="100" viewBox="0 0 150 100" fill="none" xmlns="http://www.w3.org/2000/svg">
<g clip-path="url(#clip0_2760_91835)">
<path d="M150 0H0V100H150V0Z" fill="#1D51AF"/>
<path d="M45.2694 51.436C48.3722 48.2416 51.5222 44.7249 54.7194 40.8916H47.8722C47.1417 41.7138 46.0917 42.8555 44.7222 44.3166C43.2611 45.8694 42.2111 47.011 41.5722 47.7416C38.65 44.9138 36.5056 42.6305 35.1361 40.8944H28.1528C31.2556 44.4555 34.4972 47.9249 37.875 51.3027C36.8694 52.3972 36.1833 53.1305 35.8194 53.4944C35.3611 53.861 35.0417 54.1333 34.8611 54.3166C30.7528 58.0583 27.4667 60.4805 25 61.5749C29.1972 61.6638 32.075 61.4833 33.6278 61.0277C35.1778 60.661 36.9139 59.611 38.8306 57.8777L41.5694 55.2749C41.8444 55.6416 42.3 56.0972 42.9389 56.6444C43.4861 57.1916 43.9417 57.6027 44.3083 57.8777C46.0417 59.7027 47.5944 60.7527 48.9639 61.0277C50.15 61.4833 53.1167 61.711 57.8667 61.711C55.675 60.8888 52.525 58.5138 48.4167 54.5888C47.4111 53.6777 46.3611 52.6277 45.2667 51.4388L45.2694 51.436Z" fill="white"/>
<path d="M124.572 38.1531H112.561V29.8281C112.561 29.4365 112.239 29.1143 111.847 29.1143H107.981C107.589 29.1143 107.267 29.4365 107.267 29.8281V38.1531H101.739C101.503 38.1531 101.311 38.3448 101.311 38.5809V39.2309C101.311 39.467 101.503 39.6587 101.739 39.6587H107.244C107.044 46.2976 105.425 51.7087 100.336 54.0198V29.542C100.336 29.3059 100.144 29.1143 99.9084 29.1143H92.15C91.9139 29.1143 91.7223 29.3059 91.7223 29.542V30.4643C91.7223 30.7004 91.9139 30.892 92.15 30.892H94.45V55.217C94.2722 55.2198 94.1 55.2281 93.9195 55.2281C87.2 55.2281 81.5222 51.1281 74.1972 48.3837V44.4893H88.8334C89.0695 44.4893 89.2611 44.2976 89.2611 44.0615V43.4115C89.2611 43.1754 89.0695 42.9837 88.8334 42.9837H74.1972V36.7809H86.0945C86.3306 36.7809 86.5223 36.5893 86.5223 36.3531V35.7031C86.5223 35.467 86.3306 35.2754 86.0945 35.2754H74.1972V29.8281C74.1972 29.4365 73.875 29.1143 73.4834 29.1143H69.0223C68.6306 29.1143 68.3084 29.4365 68.3084 29.8281V42.9837H57.9195C57.6834 42.9837 57.4917 43.1754 57.4917 43.4115V44.0615C57.4917 44.2976 57.6834 44.4893 57.9195 44.4893H68.3084V46.6587C66.2223 46.2309 63.9973 45.967 61.5778 45.967H60.5028C60.5028 45.967 60.4973 45.967 60.4945 45.967H57.9139C57.6806 45.967 57.4917 46.1587 57.4917 46.3893V47.0504C57.4917 47.2837 57.6806 47.4726 57.9139 47.4726H60.4945C60.5167 47.4726 60.5361 47.4643 60.5556 47.4587H61.5806C63.9278 47.4587 66.1111 48.1976 68.3111 49.3393V60.8531C68.3111 61.2448 68.6334 61.567 69.025 61.567H73.4861C73.8778 61.567 74.2 61.2448 74.2 60.8531V53.0115C74.2 53.0115 74.2195 53.0226 74.2278 53.0309C79.5556 56.6281 85.5945 60.7031 93.9223 60.7031C101.464 60.7031 112 58.1559 112.542 39.6587H124.581C124.817 39.6587 125.008 39.467 125.008 39.2309V38.5809C125.008 38.3448 124.817 38.1531 124.581 38.1531H124.572Z" fill="white"/>
<path d="M124.572 59.517H120.208C118.119 59.517 118.017 58.142 118.017 55.2726V41.9893H112.675V56.5059C112.675 59.817 114.408 61.3004 118.289 61.3004H124.569C124.806 61.3004 124.997 61.1087 124.997 60.8726V59.9504C124.997 59.7143 124.806 59.5226 124.569 59.5226L124.572 59.517Z" fill="white"/>
<path d="M25.4278 35.1412H31.7139V38.9468C31.7139 39.3384 32.0361 39.6607 32.4278 39.6607H36.8889C37.2806 39.6607 37.6028 39.3384 37.6028 38.9468V35.1412H45.2639V38.9468C45.2639 39.3384 45.5861 39.6607 45.9778 39.6607H50.4389C50.8306 39.6607 51.1528 39.3384 51.1528 38.9468V35.1412H57.4389C57.675 35.1412 57.8667 34.9495 57.8667 34.7134V34.0634C57.8667 33.8273 57.675 33.6357 57.4389 33.6357H51.1528V29.8301C51.1528 29.4384 50.8306 29.1162 50.4389 29.1162H45.9778C45.5861 29.1162 45.2639 29.4384 45.2639 29.8301V33.6357H37.6028V29.8301C37.6028 29.4384 37.2806 29.1162 36.8889 29.1162H32.4278C32.0361 29.1162 31.7139 29.4384 31.7139 29.8301V33.6357H25.4278C25.1917 33.6357 25 33.8273 25 34.0634V34.7134C25 34.9495 25.1917 35.1412 25.4278 35.1412Z" fill="white"/>
<path d="M118.664 35.6087C120.456 35.6087 121.911 34.1559 121.911 32.3615C121.911 30.567 120.458 29.1143 118.664 29.1143C116.869 29.1143 115.417 30.567 115.417 32.3615C115.417 34.1559 116.869 35.6087 118.664 35.6087Z" fill="white"/>
<path d="M36.7527 65.3359L34.7472 70.8582H36.2416L37.5527 67.2082L38.3555 69.6887H37.15V70.8582H40.2444L38.3555 65.3359H36.7527Z" fill="white"/>
<path d="M48.6722 70.8668H50.15L50.1584 65.3779H48.6722V70.8668Z" fill="white"/>
<path d="M62.9055 65.4219H62.8778L62.9222 65.3691H61.1444L60.0639 66.9441L60.0722 65.3775H58.5861V69.0997L58.5778 69.108L58.5861 69.1164V70.8664H60.0639V69.3886V69.3803L61.4361 70.8664H63.1861L60.9166 68.1941L62.9055 65.4219Z" fill="white"/>
<path d="M73.6028 65.3359L71.5945 70.8582H73.0917L74.4028 67.2082L75.2028 69.6887H73.9973V70.8582H77.0945L75.2028 65.3359H73.6028Z" fill="white"/>
<path d="M87.6223 66.6803L86.9445 65.3887H85.4584L86.8834 68.0803V70.8664H88.3612L88.3695 68.0803L89.7945 65.3887H88.3084L87.6223 66.6803Z" fill="white"/>
<path d="M113.756 65.3779V65.4057H113.731V69.7168H112.403L112.383 65.3779H110.897V70.8668H115.253L115.244 65.3779H113.756Z" fill="white"/>
<path d="M100.333 65.3613C98.8084 65.3613 97.5723 66.5974 97.5723 68.1224C97.5723 69.6474 98.8084 70.8835 100.333 70.8835C101.858 70.8835 103.094 69.6474 103.094 68.1224C103.094 66.5974 101.858 65.3613 100.333 65.3613ZM100.333 69.0974C99.7945 69.0974 99.3584 68.6613 99.3584 68.1224C99.3584 67.5836 99.7945 67.1474 100.333 67.1474C100.872 67.1474 101.308 67.5836 101.308 68.1224C101.308 68.6613 100.872 69.0974 100.333 69.0974Z" fill="white"/>
</g>
<defs>
<clipPath id="clip0_2760_91835">
<rect width="150" height="100" fill="white"/>
</clipPath>
</defs>
</svg>
