<svg width="140" height="140" viewBox="0 0 140 140" fill="none" xmlns="http://www.w3.org/2000/svg">
<g clip-path="url(#clip0_2890_194095)">
<path d="M0 70C0 108.66 31.3401 140 70 140C108.66 140 140 108.66 140 70C140 31.3401 108.66 0 70 0C31.3401 0 0 31.3401 0 70Z" fill="#1D51AF"/>
<path d="M42.2514 71.3405C45.1473 68.359 48.0873 65.0768 51.0714 61.499H44.6807C43.9988 62.2664 43.0188 63.332 41.7407 64.6957C40.377 66.1449 39.397 67.2105 38.8007 67.8924C36.0733 65.2531 34.0718 63.122 32.7936 61.5016H26.2758C29.1718 64.8253 32.1973 68.0635 35.3499 71.2161C34.4114 72.2375 33.771 72.922 33.4314 73.2616C33.0036 73.6038 32.7055 73.8579 32.537 74.029C28.7025 77.5212 25.6355 79.782 23.3333 80.8035C27.2507 80.8864 29.9366 80.7179 31.3858 80.2927C32.8325 79.9505 34.4529 78.9705 36.2418 77.3527L38.7981 74.9235C39.0547 75.2657 39.4799 75.6909 40.0762 76.2016C40.587 76.7124 41.0121 77.0961 41.3544 77.3527C42.9721 79.0561 44.4214 80.0361 45.6995 80.2927C46.8066 80.7179 49.5755 80.9305 54.0088 80.9305C51.9633 80.1631 49.0233 77.9464 45.1888 74.2831C44.2503 73.4327 43.2703 72.4527 42.2488 71.3431L42.2514 71.3405Z" fill="white"/>
<path d="M116.267 58.9422H105.057V51.1722C105.057 50.8066 104.756 50.5059 104.391 50.5059H100.782C100.416 50.5059 100.116 50.8066 100.116 51.1722V58.9422H94.9563C94.736 58.9422 94.5571 59.121 94.5571 59.3414V59.9481C94.5571 60.1685 94.736 60.3473 94.9563 60.3473H100.095C99.9082 66.5436 98.3967 71.594 93.6471 73.751V50.9051C93.6471 50.6847 93.4682 50.5059 93.2478 50.5059H86.0067C85.7863 50.5059 85.6075 50.6847 85.6075 50.9051V51.7659C85.6075 51.9862 85.7863 52.1651 86.0067 52.1651H88.1534V74.8685C87.9874 74.871 87.8267 74.8788 87.6582 74.8788C81.3867 74.8788 76.0875 71.0522 69.2508 68.4907V64.8559H82.9112C83.1315 64.8559 83.3104 64.677 83.3104 64.4566V63.8499C83.3104 63.6296 83.1315 63.4507 82.9112 63.4507H69.2508V57.6614H80.3549C80.5752 57.6614 80.7541 57.4825 80.7541 57.2622V56.6555C80.7541 56.4351 80.5752 56.2562 80.3549 56.2562H69.2508V51.1722C69.2508 50.8066 68.95 50.5059 68.5845 50.5059H64.4208C64.0552 50.5059 63.7545 50.8066 63.7545 51.1722V63.4507H54.0582C53.8378 63.4507 53.6589 63.6296 53.6589 63.8499V64.4566C53.6589 64.677 53.8378 64.8559 54.0582 64.8559H63.7545V66.8807C61.8075 66.4814 59.7308 66.2351 57.4726 66.2351H56.4693C56.4693 66.2351 56.4641 66.2351 56.4615 66.2351H54.053C53.8352 66.2351 53.6589 66.414 53.6589 66.6292V67.2462C53.6589 67.464 53.8352 67.6403 54.053 67.6403H56.4615C56.4823 67.6403 56.5004 67.6325 56.5186 67.6273H57.4752C59.666 67.6273 61.7037 68.317 63.7571 69.3825V80.1288C63.7571 80.4944 64.0578 80.7951 64.4234 80.7951H68.5871C68.9526 80.7951 69.2534 80.4944 69.2534 80.1288V72.8099C69.2534 72.8099 69.2715 72.8203 69.2793 72.8281C74.2519 76.1855 79.8882 79.9888 87.6608 79.9888C94.6997 79.9888 104.533 77.6114 105.039 60.3473H116.275C116.496 60.3473 116.674 60.1685 116.674 59.9481V59.3414C116.674 59.121 116.496 58.9422 116.275 58.9422H116.267Z" fill="white"/>
<path d="M116.267 78.8827H112.194C110.245 78.8827 110.149 77.5994 110.149 74.9212V62.5234H105.163V76.0723C105.163 79.1627 106.781 80.5471 110.403 80.5471H116.265C116.485 80.5471 116.664 80.3682 116.664 80.1479V79.2871C116.664 79.0668 116.485 78.8879 116.265 78.8879L116.267 78.8827Z" fill="white"/>
<path d="M23.7325 56.1321H29.5995V59.684C29.5995 60.0495 29.9003 60.3503 30.2658 60.3503H34.4295C34.7951 60.3503 35.0958 60.0495 35.0958 59.684V56.1321H42.2462V59.684C42.2462 60.0495 42.547 60.3503 42.9125 60.3503H47.0762C47.4418 60.3503 47.7425 60.0495 47.7425 59.684V56.1321H53.6095C53.8299 56.1321 54.0088 55.9532 54.0088 55.7329V55.1262C54.0088 54.9058 53.8299 54.7269 53.6095 54.7269H47.7425V51.1751C47.7425 50.8095 47.4418 50.5088 47.0762 50.5088H42.9125C42.547 50.5088 42.2462 50.8095 42.2462 51.1751V54.7269H35.0958V51.1751C35.0958 50.8095 34.7951 50.5088 34.4295 50.5088H30.2658C29.9003 50.5088 29.5995 50.8095 29.5995 51.1751V54.7269H23.7325C23.5121 54.7269 23.3333 54.9058 23.3333 55.1262V55.7329C23.3333 55.9532 23.5121 56.1321 23.7325 56.1321Z" fill="white"/>
<path d="M110.753 56.5673C112.425 56.5673 113.784 55.2114 113.784 53.5366C113.784 51.8618 112.428 50.5059 110.753 50.5059C109.078 50.5059 107.722 51.8618 107.722 53.5366C107.722 55.2114 109.078 56.5673 110.753 56.5673Z" fill="white"/>
<path d="M34.3025 84.3135L32.4307 89.4675H33.8255L35.0492 86.0609L35.7984 88.3761H34.6733V89.4675H37.5614L35.7984 84.3135H34.3025Z" fill="white"/>
<path d="M45.4275 89.4755H46.8067L46.8145 84.3525H45.4275V89.4755Z" fill="white"/>
<path d="M58.7119 84.394H58.6859L58.7274 84.3447H57.0682L56.0596 85.8147L56.0674 84.3525H54.6804V87.8266L54.6726 87.8344L54.6804 87.8421V89.4755H56.0596V88.0962V88.0884L57.3404 89.4755H58.9737L56.8556 86.9814L58.7119 84.394Z" fill="white"/>
<path d="M68.696 84.3135L66.8215 89.4675H68.2189L69.4426 86.0609L70.1893 88.3761H69.0641V89.4675H71.9549L70.1893 84.3135H68.696Z" fill="white"/>
<path d="M81.7806 85.5688L81.148 84.3633H79.761L81.091 86.8755V89.4759H82.4702L82.478 86.8755L83.808 84.3633H82.421L81.7806 85.5688Z" fill="white"/>
<path d="M106.172 84.3525V84.3785H106.149V88.4022H104.909L104.891 84.3525H103.504V89.4755H107.569L107.562 84.3525H106.172Z" fill="white"/>
<path d="M93.6444 84.3369C92.2211 84.3369 91.0674 85.4906 91.0674 86.914C91.0674 88.3373 92.2211 89.491 93.6444 89.491C95.0678 89.491 96.2215 88.3373 96.2215 86.914C96.2215 85.4906 95.0678 84.3369 93.6444 84.3369ZM93.6444 87.824C93.1415 87.824 92.7344 87.4169 92.7344 86.914C92.7344 86.411 93.1415 86.0039 93.6444 86.0039C94.1474 86.0039 94.5544 86.411 94.5544 86.914C94.5544 87.4169 94.1474 87.824 93.6444 87.824Z" fill="white"/>
</g>
<defs>
<clipPath id="clip0_2890_194095">
<rect width="140" height="140" fill="white"/>
</clipPath>
</defs>
</svg>
