<svg width="150" height="100" viewBox="0 0 150 100" fill="none" xmlns="http://www.w3.org/2000/svg">
<g clip-path="url(#clip0_2760_80702)">
<path d="M150 0H0V100H150V0Z" fill="#009EB8"/>
<path d="M35.6055 59.4552C26.9805 59.4552 19.9639 52.4385 19.9639 43.8135C19.9639 35.1885 26.9805 28.1719 35.6055 28.1719H114.394C123.019 28.1719 130.036 35.1885 130.036 43.8135C130.036 52.4385 123.019 59.4552 114.394 59.4552H35.6055Z" fill="url(#paint0_linear_2760_80702)"/>
<path d="M114.394 29.0416C122.519 29.0416 129.167 35.6888 129.167 43.8138C129.167 51.9388 122.519 58.5861 114.394 58.5861H35.6056C27.4806 58.5861 20.8334 51.9388 20.8334 43.8138C20.8334 35.6888 27.4806 29.0416 35.6056 29.0416H114.394ZM114.394 27.3027H35.6056C26.5028 27.3027 19.0945 34.7083 19.0945 43.8138C19.0945 52.9194 26.5 60.325 35.6056 60.325H114.394C123.497 60.325 130.906 52.9194 130.906 43.8138C130.906 34.7083 123.5 27.3027 114.394 27.3027Z" fill="white"/>
<path d="M114.395 58.5864H87.6528V29.042H114.395C122.52 29.042 129.167 35.6892 129.167 43.8142C129.167 51.9392 122.52 58.5864 114.395 58.5864Z" fill="url(#paint1_linear_2760_80702)"/>
<path d="M32.4862 47.9164L36.2973 37.7303C36.6389 36.7525 37.2973 36.2414 38.275 36.1914C39.2028 36.2414 39.8862 36.7525 40.3278 37.7303L43.9917 47.9164C44.0389 48.2581 44.0889 48.5025 44.1389 48.6497C44.0889 49.3831 43.65 49.7497 42.8195 49.7497C42.0862 49.7497 41.6223 49.4581 41.4278 48.8692L40.9139 47.1109H35.7112L35.125 48.8692C34.8806 49.4553 34.4167 49.7497 33.7334 49.7497C32.9028 49.7497 32.4639 49.3581 32.4139 48.5775V48.0636C32.4612 48.0164 32.4862 47.9664 32.4862 47.9164ZM38.275 39.122L36.5167 44.5442H40.0334L38.275 39.122Z" fill="#009EB8"/>
<path d="M46.1888 35.6055C47.1166 35.7527 47.6305 36.2416 47.7277 37.0721C47.6305 38.0499 47.1166 38.5638 46.1888 38.611C45.3083 38.5638 44.8194 38.0499 44.7222 37.0721C44.8194 36.1916 45.3083 35.7055 46.1888 35.6055Z" fill="#E50012"/>
<path d="M44.8694 48.3552V41.1746C44.8694 40.2469 45.3083 39.733 46.1888 39.6357C47.0694 39.733 47.5333 40.2469 47.5805 41.1746V48.3552C47.4833 49.283 47.0194 49.7469 46.1888 49.7469C45.3583 49.7469 44.9194 49.283 44.8694 48.3552Z" fill="#009EB8"/>
<path d="M55.7889 41.4663C55.6917 42.2468 55.325 42.6635 54.6889 42.7107C54.4945 42.7607 54.175 42.6635 53.7362 42.4163C53.05 42.1246 52.5639 41.9524 52.2695 41.9024C51.6334 41.9524 51.3167 42.1968 51.3167 42.6357C51.3167 42.9774 51.8306 43.344 52.8556 43.7357C54.9556 44.5663 56.0056 45.594 56.0056 46.8135C55.8084 48.769 54.5389 49.769 52.1945 49.819C49.8973 49.6718 48.6528 49.0385 48.4584 47.9135C48.5556 47.1801 48.9223 46.7663 49.5584 46.669C49.9 46.669 50.3139 46.8413 50.8028 47.1829C51.3889 47.4746 51.925 47.6218 52.4139 47.6218C53.0973 47.6718 53.4389 47.4024 53.4389 46.8163C53.4389 46.5246 52.9 46.1829 51.8278 45.7913C49.775 45.0107 48.75 43.9857 48.75 42.7135C48.8473 40.7607 50.0695 39.7079 52.4139 39.5635C54.5139 39.7607 55.6389 40.394 55.7834 41.469L55.7889 41.4663Z" fill="#009EB8"/>
<path d="M56.9611 48.356V36.7782C57.0083 35.8976 57.475 35.4115 58.3527 35.3115C59.1833 35.3615 59.6222 35.8504 59.6722 36.7782V40.5143H59.7444C60.2333 39.9282 61.0388 39.6115 62.1638 39.5615C64.5083 39.7087 65.7555 40.906 65.9 43.1532V48.356C65.8027 49.2837 65.3388 49.7476 64.5083 49.7476C63.6777 49.7476 63.2361 49.2837 63.1888 48.356V43.6671C63.0916 42.4949 62.5055 41.8615 61.4305 41.7615C60.3055 41.8587 59.7194 42.4949 59.6722 43.6671V48.356C59.6222 49.2837 59.1833 49.7476 58.3527 49.7476C57.4722 49.7476 57.0083 49.2837 56.9611 48.356Z" fill="#009EB8"/>
<path d="M67.3667 46.0107V41.1746C67.3667 40.2469 67.8306 39.733 68.7584 39.6357C69.5889 39.6857 70.0278 40.1969 70.0778 41.1746V46.0107C70.125 47.0857 70.7111 47.6469 71.8361 47.6969C72.9111 47.6496 73.4973 47.0857 73.5945 46.0107V41.1746C73.5945 40.2469 74.0334 39.733 74.9139 39.6357C75.7945 39.733 76.2584 40.2469 76.3056 41.1746V46.0107C76.2084 48.5024 74.7167 49.7719 71.8361 49.8219C68.9056 49.7719 67.4139 48.5024 67.3667 46.0107Z" fill="#009EB8"/>
<path d="M77.7722 48.356V41.1754C77.7722 40.2476 78.2361 39.7337 79.1639 39.6365C79.8472 39.6865 80.2639 40.0282 80.4083 40.6615C80.8972 39.9282 81.7527 39.5615 82.9722 39.5615C85.3166 39.7087 86.5639 40.906 86.7083 43.1532V48.356C86.6111 49.2837 86.1472 49.7476 85.3166 49.7476C84.4861 49.7476 84.0444 49.2837 83.9972 48.356V43.6671C83.9 42.4949 83.3139 41.8615 82.2389 41.7615C81.1139 41.8587 80.5277 42.4949 80.4805 43.6671V48.356C80.4305 49.2837 79.9916 49.7476 79.1611 49.7476C78.2805 49.7476 77.8166 49.2837 77.7694 48.356H77.7722Z" fill="#009EB8"/>
<path d="M102.711 39.5615C105.642 39.856 107.256 41.5893 107.547 44.7643C107.303 47.9893 105.689 49.6726 102.711 49.8199C99.6806 49.6726 98.0694 47.9865 97.875 44.7643C98.1194 41.5893 99.7306 39.856 102.711 39.5615ZM102.711 42.0532C101.392 42.1504 100.683 43.056 100.586 44.7643C100.683 46.5226 101.392 47.4282 102.711 47.4754C103.981 47.4282 104.689 46.5226 104.836 44.7643C104.689 43.056 103.981 42.1504 102.711 42.0532Z" fill="white"/>
<path d="M108.647 46.0107V41.1746C108.647 40.2469 109.111 39.733 110.039 39.6357C110.869 39.6857 111.308 40.1969 111.358 41.1746V46.0107C111.406 47.0857 111.992 47.6469 113.117 47.6969C114.192 47.6496 114.778 47.0857 114.875 46.0107V41.1746C114.875 40.2469 115.314 39.733 116.194 39.6357C117.075 39.733 117.536 40.2469 117.586 41.1746V46.0107C117.489 48.5024 115.997 49.7719 113.117 49.8219C110.186 49.7719 108.694 48.5024 108.647 46.0107Z" fill="white"/>
<path d="M96.2639 39.6357C95.5806 39.6857 95.1389 40.0024 94.9445 40.5885L92.9667 45.7191L91.0612 40.5885C90.8167 40.0024 90.3751 39.6857 89.7417 39.6357C88.9584 39.783 88.5445 40.1746 88.4973 40.808C88.4973 41.1024 88.5223 41.3469 88.5695 41.5413L91.5751 48.9413L87.4139 59.0246H90.2639L97.4362 41.5413C97.4834 41.3469 97.5334 41.1024 97.5834 40.808C97.4862 40.1746 97.0445 39.783 96.2639 39.6357Z" fill="white"/>
<path opacity="0.35" d="M35.6056 29.042C30.0251 29.042 25.1417 32.1781 22.6306 36.7753C25.1417 41.3725 30.0251 44.5087 35.6056 44.5087H114.395C119.975 44.5087 124.858 41.3725 127.37 36.7753C124.858 32.1781 119.975 29.042 114.395 29.042H35.6056Z" fill="url(#paint2_linear_2760_80702)"/>
<g style="mix-blend-mode:screen">
<path fill-rule="evenodd" clip-rule="evenodd" d="M95.4889 52.8053C92.2972 48.4775 86.2 47.5581 81.8722 50.7525C79.2861 52.6608 77.9194 55.6025 77.9166 58.5886H97.3916C97.3916 56.5775 96.775 54.5497 95.4916 52.8081L95.4889 52.8053Z" fill="url(#paint3_radial_2760_80702)"/>
</g>
<path d="M31.9416 64.9139H33.5611V63.975C33.5611 63.6639 33.7611 63.4916 34.1583 63.4639C34.5555 63.4916 34.7694 63.6639 34.7972 63.975V64.9139H37.9944V64.0194C37.9944 63.7083 38.1916 63.55 38.5916 63.55C38.9888 63.5778 39.2027 63.75 39.2305 64.0611V64.9139H40.8944C41.2055 64.9416 41.3777 65.1555 41.4055 65.5528C41.4055 65.95 41.25 66.15 40.9361 66.15H39.2305V67.0028C39.2305 67.1444 39.1888 67.2722 39.1027 67.3861C39.7861 67.5 39.9694 67.8972 39.6583 68.5805C39.0333 69.5194 38.2944 70.3278 37.4416 71.0111C37.9805 71.3805 39.0472 71.8083 40.6388 72.2916C41.0361 72.4055 41.1777 72.6472 41.0666 73.0166C40.925 73.3583 40.6388 73.5 40.2138 73.4416C38.8777 73.0722 37.5972 72.5305 36.375 71.8222C35.0111 72.6472 33.7027 73.1861 32.4527 73.4416C31.9972 73.4972 31.6861 73.3694 31.5138 73.0583C31.4277 72.6889 31.5833 72.4611 31.9833 72.375C33.4888 71.9194 34.6111 71.4666 35.3527 71.0111C34.3583 70.2166 33.6194 69.3916 33.1361 68.5389C32.9361 68.1972 32.9944 67.9 33.3055 67.6444C33.675 67.4472 33.9888 67.4889 34.2444 67.7722C34.8694 68.7666 35.5944 69.5916 36.4194 70.2444C37.0722 69.7611 37.8694 68.8666 38.8083 67.5583C38.2972 67.6444 38.025 67.4583 37.9972 67.0028V66.15H34.8V67.0028C34.7722 67.3444 34.5583 67.5278 34.1611 67.5583C33.7638 67.5305 33.5638 67.3444 33.5638 67.0028V66.15H31.9C31.5305 66.15 31.3305 65.9528 31.3027 65.5528C31.3583 65.1555 31.5722 64.9416 31.9416 64.9139Z" fill="white"/>
<path d="M46.9973 67.858H48.4889C49.0278 67.8302 49.2834 68.0719 49.2556 68.583C48.9723 71.0274 47.7056 72.5774 45.4612 73.2302C45.0056 73.3163 44.6945 73.1885 44.5223 72.8469C44.4362 72.5635 44.6223 72.3358 45.0778 72.1635C45.6751 71.9941 46.2139 71.6941 46.6973 71.2691C46.4695 71.0135 46.1556 70.7302 45.7584 70.4163C45.4751 70.758 45.2167 70.9413 44.9917 70.9719C44.5639 71.058 44.3223 70.9024 44.2667 70.5024C44.2667 70.333 44.4223 70.0913 44.7362 69.7774C45.1917 69.3219 45.5306 68.8552 45.7584 68.3691C45.7862 68.3135 45.8139 68.2274 45.8445 68.1135C45.9584 67.8302 46.0862 67.658 46.2278 67.6024C46.5695 67.5163 46.8251 67.6024 46.9945 67.858H46.9973ZM52.4973 66.0663H53.3501C53.9751 66.0385 54.2723 66.2663 54.2445 66.7496C54.2167 67.0913 54.1862 67.3885 54.1584 67.6441C54.0723 68.1552 53.9306 68.3969 53.7334 68.3691C53.8751 68.9108 53.7473 69.208 53.3501 69.2635H52.7945V70.883H53.7751C54.0862 70.9108 54.2584 71.1108 54.2862 71.4802C54.2584 71.8496 54.0862 72.0358 53.7751 72.0358H52.7945V73.2302C52.7667 73.4858 52.5667 73.6274 52.1973 73.658C51.8278 73.5996 51.6417 73.4441 51.6417 73.1885V72.0385H50.0223C49.4528 72.0663 49.1973 71.8691 49.2556 71.4413C49.2834 70.8163 49.3556 70.3052 49.4695 69.9052C49.5251 69.5635 49.7389 69.3941 50.1084 69.3941C50.4501 69.4524 50.6195 69.6496 50.6195 69.9913C50.5917 70.2469 50.5612 70.4885 50.5334 70.7163C50.5056 70.858 50.5889 70.9163 50.7889 70.8858H51.6417V69.2663H49.9362C49.5945 69.2663 49.4084 69.083 49.3806 68.7108C49.3806 68.3413 49.5501 68.1413 49.8917 68.1135H51.6389V67.8996C51.6389 67.6163 51.8223 67.458 52.1945 67.4302C52.5639 67.458 52.7639 67.5996 52.7917 67.858V68.1135H53.0889C52.9473 68.1135 52.9195 67.8719 53.0028 67.3885C53.0028 67.3024 52.9612 67.2469 52.8751 67.2191H45.7112C45.5973 67.2469 45.5417 67.333 45.5417 67.4746V68.2413C45.5139 68.583 45.3139 68.7663 44.9445 68.7969C44.5473 68.7969 44.3473 68.6274 44.3473 68.2858V66.9635C44.3473 66.3941 44.5889 66.0969 45.0723 66.0691H46.2251C46.0556 65.8135 45.8973 65.458 45.7556 65.0024H45.3723C44.9751 64.9746 44.7612 64.7746 44.7334 64.4052C44.7612 64.008 44.9751 63.7941 45.3723 63.7663C45.6278 63.7941 46.0112 63.808 46.5223 63.808C49.0806 63.8941 51.1973 63.808 52.8751 63.5524C53.6417 63.5246 53.8973 63.8496 53.6417 64.533C53.5556 64.7024 53.3139 64.8163 52.9167 64.8746C52.7751 65.4135 52.6334 65.8135 52.4889 66.0691L52.4973 66.0663ZM47.7639 68.9663H46.7417C46.6556 69.1663 46.5556 69.3358 46.4445 69.4774C46.5306 69.5913 46.6278 69.6774 46.7417 69.733C47.0251 69.9608 47.2806 70.1746 47.5084 70.3719C47.7056 70.0608 47.8501 69.6885 47.9334 69.2635C47.9612 69.0941 47.9056 68.9941 47.7639 68.9663ZM47.5528 66.0663H48.8751C48.7334 65.6691 48.6195 65.3135 48.5334 64.9996H47.0834C47.1973 65.3969 47.3528 65.7524 47.5528 66.0663ZM50.1112 66.0663H51.1778C51.2639 65.8691 51.3751 65.583 51.5195 65.2135C51.5473 65.1274 51.5889 65.0302 51.6473 64.9163C51.1639 65.0024 50.5528 65.0302 49.8139 65.0024C49.8417 65.1441 49.8834 65.3302 49.9417 65.558C49.9973 65.7858 50.0556 65.9552 50.1112 66.0691V66.0663Z" fill="white"/>
<path d="M59.6666 73.0609C59.6389 73.4304 59.425 73.6304 59.0277 73.6582C58.6 73.6304 58.3888 73.4304 58.3888 73.0609V68.1137C58.3027 68.1998 58.2472 68.2693 58.2194 68.3276C57.8777 68.7554 57.55 68.8693 57.2388 68.6693C56.8972 68.4137 56.8694 68.072 57.1527 67.6443C58.0333 66.5915 58.7166 65.3693 59.2 63.9776C59.3416 63.6359 59.5972 63.4943 59.9666 63.5498C60.3639 63.6915 60.5055 63.9331 60.3944 64.2748C60.1388 64.9859 59.925 65.5109 59.7555 65.8526L59.6694 66.1082V73.0582L59.6666 73.0609ZM63.6305 65.8943H66.4444C66.7861 65.922 66.9694 66.1359 67 66.5331C67 66.9609 66.8444 67.172 66.5305 67.172H63.5027L63.375 67.9387C63.8583 67.4276 64.2416 67.497 64.525 68.1526V71.6915C64.4666 72.0915 64.6111 72.2609 64.95 72.2026H65.4611C65.7166 72.3443 65.8444 71.8054 65.8444 70.5832C65.8444 70.2137 66.0277 70.0137 66.4 69.9859C66.7416 70.0443 66.9389 70.2554 66.9972 70.6248C67.1666 72.6443 66.6694 73.5804 65.5055 73.4387H64.7805C63.7583 73.4387 63.2583 73.0415 63.2888 72.2443V68.747C62.8333 70.5943 62.0389 72.0581 60.9 73.1387C60.5583 73.422 60.2166 73.4359 59.8777 73.1804C59.5944 72.9248 59.6222 72.6554 59.9638 72.3693C61.3277 71.0915 62.125 69.3554 62.3527 67.1665H60.3916C60.0222 67.1665 59.8222 66.9665 59.7944 66.5693C59.7944 66.1415 59.9777 65.9165 60.35 65.8859H62.4833V64.6081C62.5111 64.3526 62.525 64.197 62.525 64.1387C62.4972 63.7693 62.6805 63.5693 63.0805 63.5415C63.4777 63.5693 63.6916 63.7693 63.7194 64.1387C63.6611 64.8776 63.6333 65.4609 63.6333 65.8859L63.6305 65.8943ZM65.4222 65.5554C65.1083 65.3276 64.7666 65.0443 64.4 64.7026C64.0583 64.4748 64.0166 64.1915 64.2722 63.8498C64.5277 63.5943 64.8416 63.5804 65.2111 63.8082C65.6083 64.122 65.95 64.3915 66.2333 64.6193C66.4889 64.9609 66.5166 65.272 66.3194 65.5581C66.0361 65.8137 65.7361 65.8137 65.425 65.5581L65.4222 65.5554Z" fill="white"/>
<path d="M74.6361 65.4696V63.8501C74.6361 63.5946 74.8361 63.4668 75.2333 63.4668C75.6305 63.4946 75.8444 63.6362 75.8722 63.8946V65.4724H79.0278C79.3694 65.5001 79.5528 65.714 79.5833 66.1112C79.5556 66.5085 79.3694 66.7085 79.0278 66.7085H75.8722V68.6279H78.7722C79.0861 68.6557 79.2556 68.8696 79.2833 69.2668C79.2556 69.6668 79.0833 69.864 78.7722 69.864H75.8722V71.9529H79.325C79.6361 71.9807 79.8083 72.1668 79.8361 72.5085C79.8083 72.9057 79.6361 73.1196 79.325 73.1474H70.5833C70.2417 73.1196 70.0722 72.9057 70.0722 72.5085C70.1 72.1668 70.2861 71.9835 70.6278 71.9529H74.6361V69.864H71.65C71.3083 69.864 71.1389 69.6501 71.1389 69.2251C71.1667 68.8557 71.3667 68.6557 71.7361 68.6279H74.6361V66.7085H72.2917C71.9778 67.2779 71.6667 67.789 71.3528 68.2446C70.9833 68.6724 70.6139 68.7862 70.2444 68.5862C69.9611 68.3585 69.975 68.0029 70.2861 67.5196C71.025 66.5251 71.5361 65.3862 71.8222 64.1085C71.8778 63.7974 72.1055 63.6668 72.5055 63.7251C72.875 63.8112 73.0444 64.0085 73.0167 64.3224C72.9583 64.4918 72.8889 64.7501 72.8028 65.089C72.7444 65.2585 72.7167 65.3862 72.7167 65.4724H74.6361V65.4696Z" fill="white"/>
<path d="M88.5 64.7032H91.5694C92.2528 64.7032 92.5917 65.0726 92.5917 65.8115V69.3921C92.5917 70.9004 92.4639 71.9087 92.2083 72.4198C91.9806 72.931 91.5528 73.1865 90.9278 73.1865C90.3861 73.1587 89.9472 73.1004 89.6055 73.0171C89.3222 72.8754 89.2083 72.6754 89.2639 72.4198C89.35 72.0782 89.5333 71.9226 89.8194 71.9504C90.3306 72.1198 90.6861 72.1504 90.8861 72.0365C91.2278 71.9504 91.3972 70.8837 91.3972 68.8393V66.1115C91.3694 66.0254 91.2694 65.9698 91.1 65.9421C90.9305 69.0976 89.8333 71.4282 87.8167 72.9365C87.5028 73.1337 87.2056 73.1199 86.9222 72.8949C86.6667 72.581 86.6667 72.3254 86.9222 72.1282C88.8556 70.6782 89.8917 68.6171 90.0361 65.9448H89.6944C89.3528 68.1615 88.5583 69.8254 87.3055 70.9337C86.9917 71.1893 86.7083 71.1893 86.4528 70.9337C86.225 70.6226 86.2528 70.3226 86.5389 70.0393C87.5917 69.131 88.2583 67.7643 88.5444 65.9448H88.2028C88.0028 66.6837 87.7194 67.3393 87.35 67.906C86.8083 68.3337 86.4555 68.2476 86.2833 67.6504C86.2833 67.5365 86.3389 67.381 86.4528 67.181C86.5389 67.0115 86.5944 66.8837 86.6222 66.7976C86.5639 66.856 86.4944 66.8698 86.4083 66.8393H85.9389V68.631C86.1361 68.4615 86.3639 68.3754 86.6222 68.3754C86.9917 68.5448 87.1056 68.8448 86.9639 69.2698C86.85 69.4115 86.6083 69.5976 86.2389 69.8254C86.0972 69.9115 85.9972 69.9671 85.9417 69.9948V73.1087C85.9139 73.3921 85.7139 73.5643 85.3444 73.6198C84.9472 73.5921 84.7472 73.4337 84.7472 73.1504V70.5504C84.2917 70.806 83.8944 70.9921 83.5528 71.106C83.2972 71.2198 83.0972 71.106 82.9556 70.7643C82.8694 70.4532 82.9555 70.2087 83.2111 70.0393C83.5805 69.8698 84.0917 69.5976 84.7472 69.2282V66.8837H84.2361C84.2083 67.1393 84.1944 67.3948 84.1944 67.6504C84.1667 67.906 84.1361 68.0921 84.1083 68.206C83.9667 68.606 83.725 68.7893 83.3833 68.7615C83.1 68.6476 82.9861 68.3643 83.0417 67.9087C83.1556 66.8282 83.2111 65.7198 83.2111 64.5837C83.2111 64.2726 83.3944 64.1004 83.7667 64.0726C84.1361 64.0726 84.3361 64.2282 84.3639 64.5421C84.3639 65.0837 84.35 65.4671 84.3222 65.6948H84.7472V63.9476C84.7472 63.6921 84.9305 63.5504 85.3028 63.5198C85.7 63.5198 85.9139 63.6476 85.9417 63.9032V65.6948H86.4972C86.6667 65.6948 86.7944 65.8087 86.8805 66.0365C87.0222 65.6087 87.1361 65.1837 87.2222 64.7587C87.3639 64.1615 87.5056 63.7782 87.65 63.606C87.9917 63.4087 88.2611 63.4226 88.4611 63.6476C88.6305 63.8754 88.6444 64.231 88.5028 64.7143L88.5 64.7032Z" fill="white"/>
<path d="M98.9084 65.0005V66.1088H99.7611C100.044 66.1366 100.203 66.3366 100.231 66.706C100.203 67.0755 100.061 67.2616 99.8028 67.2616H98.9084V67.5171C99.3056 68.0282 99.6473 68.4116 99.9306 68.6699C100.186 68.8977 100.358 69.0671 100.442 69.181C100.583 69.8338 100.314 70.1199 99.6306 70.0338C99.375 69.8338 99.1334 69.5921 98.9056 69.3088V73.1032C98.8778 73.3866 98.6778 73.5588 98.3084 73.6144C97.9111 73.6144 97.7111 73.4727 97.7111 73.1866V69.6477C97.4556 70.4144 97.1695 70.9838 96.8584 71.3532C96.6306 71.6366 96.3611 71.7088 96.0473 71.5671C95.7334 71.3699 95.65 71.1116 95.7917 70.8005C96.475 69.6644 97.0278 68.4977 97.4556 67.3032H96.2611C95.6639 66.906 95.6639 66.5088 96.2611 66.1088H97.7111V65.0838C97.5417 65.1116 97.1417 65.1255 96.5167 65.1255C96.175 65.1255 95.9889 64.9421 95.9611 64.5699C95.9611 64.2005 96.1306 63.9866 96.4723 63.931C97.7223 63.9032 98.775 63.8032 99.6278 63.6338C99.9973 63.5782 100.253 63.7199 100.394 64.0616C100.481 64.431 100.353 64.6727 100.011 64.7866C99.7834 64.8727 99.4139 64.9421 98.9028 65.0005H98.9084ZM105.006 64.1477V69.5199C105.603 69.4644 105.9 69.6477 105.9 70.0755C105.956 70.531 105.658 70.7727 105.006 70.8005V73.0616C104.978 73.3449 104.764 73.5032 104.367 73.531C103.969 73.5032 103.769 73.3449 103.769 73.0616V71.0144C102.575 71.2144 101.381 71.4144 100.186 71.6116C99.8445 71.6394 99.6306 71.456 99.5473 71.056C99.5195 70.6588 99.675 70.4171 100.017 70.331C100.072 70.331 101.325 70.1338 103.769 69.7338V64.1894C103.769 63.906 103.967 63.7477 104.367 63.7199C104.764 63.7477 104.978 63.8894 105.006 64.1477ZM102.106 69.4782C101.936 69.3366 101.664 69.0949 101.294 68.7532C100.869 68.3255 100.569 68.0144 100.4 67.8144C100.172 67.5866 100.172 67.3449 100.4 67.0894C100.628 66.8616 100.897 66.8338 101.211 67.0032C101.922 67.5727 102.519 68.1255 103.003 68.6671C103.203 68.9505 103.172 69.2227 102.917 69.4782C102.603 69.706 102.333 69.706 102.106 69.4782ZM102.533 66.8338C102.136 66.4366 101.511 65.8671 100.658 65.1282C100.458 64.4449 100.744 64.1616 101.511 64.2755C101.994 64.6171 102.619 65.1866 103.386 65.981C103.586 66.2949 103.569 66.5782 103.344 66.8338C103.031 67.0894 102.761 67.0894 102.533 66.8338Z" fill="white"/>
<path d="M109.956 65.2997V64.0635C109.956 63.6941 110.153 63.4802 110.553 63.4247C110.95 63.483 111.164 63.6941 111.192 64.0635V65.2997H111.747C112.117 65.3274 112.317 65.5274 112.344 65.8969C112.317 66.2969 112.117 66.4941 111.747 66.4941H111.192V68.3274C111.392 68.2413 111.619 68.1719 111.875 68.1135C112.158 68.0858 112.344 68.2552 112.431 68.6247C112.458 68.908 112.331 69.1219 112.047 69.2635C111.764 69.433 111.478 69.5608 111.194 69.6469V72.4191C111.167 73.4135 110.511 73.7552 109.233 73.4413C108.864 73.2997 108.706 73.0163 108.764 72.5885C108.878 72.2774 109.119 72.1608 109.489 72.2469C109.772 72.333 109.931 72.2747 109.958 72.0774V70.0302C109.9 70.058 109.844 70.0885 109.789 70.1163C109.703 70.1747 109.561 70.2163 109.361 70.2441C108.964 70.358 108.706 70.2302 108.594 69.8608C108.536 69.4635 108.708 69.1941 109.106 69.0497C109.389 68.9635 109.603 68.8941 109.744 68.8358C109.831 68.7802 109.9 68.7358 109.958 68.708V66.4913H109.361C108.992 66.4913 108.792 66.2941 108.764 65.8941C108.792 65.5247 108.992 65.3247 109.361 65.2969H109.958L109.956 65.2997ZM112.856 64.5302H114.689V63.933C114.689 63.6219 114.903 63.4497 115.328 63.4219C115.725 63.4497 115.939 63.6219 115.967 63.933V64.5302H118.1C118.469 64.558 118.669 64.758 118.697 65.1274C118.669 65.5247 118.469 65.7247 118.1 65.7247H115.925V66.9608H117.417C117.956 66.9885 118.228 67.3024 118.228 67.8997C118.142 69.0385 117.544 70.2024 116.436 71.3969C116.892 71.7385 117.431 72.0358 118.056 72.2913C118.483 72.433 118.639 72.733 118.525 73.1858C118.356 73.5552 118.042 73.6691 117.586 73.5274C116.875 73.2441 116.136 72.8163 115.369 72.2469C114.403 72.8997 113.492 73.3413 112.639 73.5691C112.128 73.7108 111.786 73.6246 111.617 73.3135C111.503 72.8885 111.672 72.5885 112.128 72.4191C112.894 72.2219 113.633 71.8802 114.344 71.3969C113.547 70.6302 113.036 69.8469 112.808 69.0524C112.667 68.5413 112.822 68.258 113.278 68.1997H112.936C112.539 68.1997 112.325 68.0024 112.297 67.6024C112.325 67.2052 112.539 66.9913 112.936 66.9635H114.683V65.7274H112.85C112.481 65.7274 112.281 65.5302 112.253 65.1302C112.281 64.7608 112.481 64.5608 112.85 64.533L112.856 64.5302ZM116.525 68.1969H113.456C113.625 68.2552 113.825 68.5108 114.053 68.9635C114.336 69.533 114.778 70.0885 115.375 70.6274C115.944 70.1163 116.411 69.433 116.783 68.5802C116.839 68.3524 116.756 68.2246 116.528 68.1969H116.525Z" fill="white"/>
</g>
<defs>
<linearGradient id="paint0_linear_2760_80702" x1="75" y1="58.1719" x2="75" y2="17.5163" gradientUnits="userSpaceOnUse">
<stop stop-color="#C8C9CA"/>
<stop offset="0.5" stop-color="white"/>
<stop offset="1" stop-color="#C8C9CA"/>
</linearGradient>
<linearGradient id="paint1_linear_2760_80702" x1="108.408" y1="57.3753" x2="108.408" y2="18.9753" gradientUnits="userSpaceOnUse">
<stop stop-color="#009EB8"/>
<stop offset="0.5" stop-color="#D2ECFA"/>
<stop offset="1" stop-color="#009EB8"/>
</linearGradient>
<linearGradient id="paint2_linear_2760_80702" x1="75.0001" y1="39.6475" x2="75.0001" y2="28.9864" gradientUnits="userSpaceOnUse">
<stop stop-color="white"/>
<stop offset="1" stop-color="white" stop-opacity="0"/>
</linearGradient>
<radialGradient id="paint3_radial_2760_80702" cx="0" cy="0" r="1" gradientUnits="userSpaceOnUse" gradientTransform="translate(88.1941 59.3381) scale(8.21333)">
<stop offset="0.16" stop-color="white"/>
<stop offset="0.47" stop-color="#939393"/>
<stop offset="0.73" stop-color="#444444"/>
<stop offset="0.91" stop-color="#121212"/>
<stop offset="1"/>
</radialGradient>
<clipPath id="clip0_2760_80702">
<rect width="150" height="100" fill="white"/>
</clipPath>
</defs>
</svg>
