<svg width="160" height="80" viewBox="0 0 160 80" fill="none" xmlns="http://www.w3.org/2000/svg">
<path d="M148 0L12 0C5.37258 0 0 5.37258 0 12L0 68C0 74.6274 5.37258 80 12 80L148 80C154.627 80 160 74.6274 160 68V12C160 5.37258 154.627 0 148 0Z" fill="#009EB8"/>
<path d="M40.5389 48.9895C31.8994 48.9895 24.8708 41.961 24.8708 33.3214C24.8708 24.6818 31.8994 17.6533 40.5389 17.6533L119.461 17.6533C128.1 17.6533 135.129 24.6818 135.129 33.3214C135.129 41.961 128.1 48.9895 119.461 48.9895H40.5389Z" fill="url(#paint0_linear_2890_194092)"/>
<path d="M119.461 18.525C127.6 18.525 134.258 25.1835 134.258 33.3222C134.258 41.4609 127.6 48.1194 119.461 48.1194H40.539C32.4003 48.1194 25.7418 41.4609 25.7418 33.3222C25.7418 25.1835 32.4003 18.525 40.539 18.525L119.461 18.525ZM119.461 16.7832L40.539 16.7832C31.4208 16.7832 24 24.2013 24 33.3222C24 42.4431 31.4181 49.8612 40.539 49.8612L119.461 49.8612C128.579 49.8612 136 42.4431 136 33.3222C136 24.2013 128.582 16.7832 119.461 16.7832Z" fill="white"/>
<path d="M119.461 48.1188H92.674V18.5244H119.461C127.6 18.5244 134.258 25.1829 134.258 33.3216C134.258 41.4603 127.6 48.1188 119.461 48.1188Z" fill="url(#paint1_linear_2890_194092)"/>
<path d="M37.4142 37.4313L41.2317 27.228C41.574 26.2486 42.2334 25.7366 43.2129 25.6865C44.1422 25.7366 44.8267 26.2486 45.2691 27.228L48.9392 37.4313C48.9865 37.7736 49.0366 38.0184 49.0867 38.1659C49.0366 38.9005 48.5969 39.2678 47.765 39.2678C47.0304 39.2678 46.5657 38.9756 46.371 38.3857L45.8562 36.6244H40.6446L40.0575 38.3857C39.8127 38.9728 39.348 39.2678 38.6635 39.2678C37.8316 39.2678 37.3919 38.8754 37.3419 38.0936V37.5788C37.3892 37.5315 37.4142 37.4814 37.4142 37.4313ZM43.2129 28.622L41.4516 34.0534H44.9742L43.2129 28.622Z" fill="#009EB8"/>
<path d="M51.1402 25.0996C52.0695 25.2471 52.5843 25.7368 52.6817 26.5688C52.5843 27.5482 52.0695 28.0629 51.1402 28.1102C50.2581 28.0629 49.7684 27.5482 49.671 26.5688C49.7684 25.6867 50.2581 25.1998 51.1402 25.0996Z" fill="#E50012"/>
<path d="M49.8185 37.8709V30.6782C49.8185 29.7489 50.2581 29.2341 51.1402 29.1367C52.0222 29.2341 52.4869 29.7489 52.5342 30.6782V37.8709C52.4368 38.8002 51.9721 39.2649 51.1402 39.2649C50.3082 39.2649 49.8686 38.8002 49.8185 37.8709Z" fill="#009EB8"/>
<path d="M60.7564 30.9704C60.659 31.7523 60.2917 32.1697 59.6545 32.217C59.4598 32.2671 59.1398 32.1697 58.7001 31.9221C58.0129 31.6299 57.5259 31.4574 57.231 31.4073C56.5938 31.4574 56.2766 31.7022 56.2766 32.1419C56.2766 32.4841 56.7914 32.8514 57.8181 33.2437C59.9217 34.0757 60.9734 35.1052 60.9734 36.3267C60.7759 38.2856 59.5043 39.2873 57.1559 39.3373C54.8548 39.1899 53.6082 38.5555 53.4135 37.4286C53.5108 36.694 53.8781 36.2794 54.5153 36.182C54.8576 36.182 55.2721 36.3545 55.7619 36.6968C56.349 36.9889 56.886 37.1364 57.3757 37.1364C58.0602 37.1865 58.4024 36.9166 58.4024 36.3295C58.4024 36.0373 57.8626 35.6951 56.7886 35.3028C54.7323 34.5209 53.7056 33.4941 53.7056 32.2198C53.803 30.2637 55.0273 29.2091 57.3757 29.0645C59.4792 29.262 60.6061 29.8964 60.7508 30.9732L60.7564 30.9704Z" fill="#009EB8"/>
<path d="M61.9305 37.8702V26.2729C61.9778 25.3908 62.4453 24.9039 63.3246 24.8037C64.1565 24.8538 64.5962 25.3435 64.6462 26.2729V30.0153H64.7186C65.2083 29.4282 66.0152 29.111 67.1421 29.0609C69.4905 29.2084 70.7398 30.4076 70.8845 32.6586V37.8702C70.7871 38.7995 70.3225 39.2642 69.4905 39.2642C68.6586 39.2642 68.2161 38.7995 68.1688 37.8702V33.1734C68.0715 31.9992 67.4844 31.3648 66.4075 31.2646C65.2806 31.362 64.6935 31.9992 64.6462 33.1734V37.8702C64.5962 38.7995 64.1565 39.2642 63.3246 39.2642C62.4425 39.2642 61.9778 38.7995 61.9305 37.8702Z" fill="#009EB8"/>
<path d="M72.3538 35.5225V30.6782C72.3538 29.7489 72.8184 29.2341 73.7478 29.1367C74.5797 29.1868 75.0194 29.6988 75.0694 30.6782V35.5225C75.1168 36.5993 75.7038 37.1614 76.8307 37.2114C77.9076 37.1641 78.4947 36.5993 78.5921 35.5225V30.6782C78.5921 29.7489 79.0317 29.2341 79.9137 29.1367C80.7958 29.2341 81.2604 29.7489 81.3078 30.6782V35.5225C81.2104 38.0184 79.7162 39.29 76.8307 39.34C73.8952 39.29 72.4011 38.0184 72.3538 35.5225Z" fill="#009EB8"/>
<path d="M82.7769 37.8708V30.6781C82.7769 29.7488 83.2416 29.234 84.1709 29.1367C84.8554 29.1867 85.2728 29.529 85.4175 30.1634C85.9072 29.4288 86.7642 29.0615 87.9857 29.0615C90.3341 29.209 91.5834 30.4082 91.7281 32.6593V37.8708C91.6307 38.8002 91.166 39.2648 90.3341 39.2648C89.5021 39.2648 89.0597 38.8002 89.0124 37.8708V33.174C88.915 31.9998 88.3279 31.3654 87.2511 31.2652C86.1242 31.3626 85.5371 31.9998 85.4898 33.174V37.8708C85.4397 38.8002 85.0001 39.2648 84.1681 39.2648C83.2861 39.2648 82.8214 38.8002 82.7741 37.8708H82.7769Z" fill="#009EB8"/>
<path d="M107.758 29.0615C110.693 29.3565 112.31 31.0927 112.602 34.2731C112.357 37.5035 110.741 39.1897 107.758 39.3372C104.722 39.1897 103.108 37.5008 102.914 34.2731C103.158 31.0927 104.772 29.3565 107.758 29.0615ZM107.758 31.5574C106.436 31.6548 105.727 32.5619 105.629 34.2731C105.727 36.0344 106.436 36.9415 107.758 36.9888C109.029 36.9415 109.739 36.0344 109.886 34.2731C109.739 32.5619 109.029 31.6548 107.758 31.5574Z" fill="white"/>
<path d="M113.704 35.5225V30.6782C113.704 29.7489 114.169 29.2341 115.098 29.1367C115.93 29.1868 116.37 29.6988 116.42 30.6782V35.5225C116.467 36.5993 117.054 37.1614 118.181 37.2114C119.258 37.1641 119.845 36.5993 119.942 35.5225V30.6782C119.942 29.7489 120.382 29.2341 121.264 29.1367C122.146 29.2341 122.608 29.7489 122.658 30.6782V35.5225C122.561 38.0184 121.066 39.29 118.181 39.34C115.245 39.29 113.751 38.0184 113.704 35.5225Z" fill="white"/>
<path d="M101.3 29.1367C100.615 29.1868 100.173 29.504 99.9781 30.0911L97.997 35.2303L96.0882 30.0911C95.8433 29.504 95.4009 29.1868 94.7665 29.1367C93.9819 29.2842 93.5673 29.6765 93.52 30.3109C93.52 30.6059 93.545 30.8507 93.5923 31.0455L96.603 38.458L92.4348 48.5584H95.2896L102.474 31.0455C102.521 30.8507 102.571 30.6059 102.621 30.3109C102.524 29.6765 102.082 29.2842 101.3 29.1367Z" fill="white"/>
<path opacity="0.35" d="M40.5389 18.5244C34.9489 18.5244 30.0573 21.6658 27.542 26.2708C30.0573 30.8758 34.9489 34.0172 40.5389 34.0172L119.461 34.0172C125.051 34.0172 129.942 30.8758 132.458 26.2708C129.942 21.6658 125.051 18.5244 119.461 18.5244L40.5389 18.5244Z" fill="url(#paint2_linear_2890_194092)"/>
<g style="mix-blend-mode:screen">
<path fill-rule="evenodd" clip-rule="evenodd" d="M100.523 42.3286C97.3263 37.9935 91.2188 37.0725 86.8837 40.2723C84.2932 42.1839 82.9242 45.1305 82.9214 48.1217H102.429C102.429 46.1072 101.812 44.076 100.526 42.3314L100.523 42.3286Z" fill="url(#paint3_radial_2890_194092)"/>
</g>
<path d="M36.8689 54.4573H38.4911V53.5169C38.4911 53.2052 38.6914 53.0327 39.0893 53.0049C39.4872 53.0327 39.7015 53.2052 39.7293 53.5169V54.4573H42.9319V53.5614C42.9319 53.2497 43.1295 53.0911 43.5301 53.0911C43.928 53.119 44.1423 53.2915 44.1701 53.6031V54.4573H45.8368C46.1484 54.4852 46.321 54.6994 46.3488 55.0973C46.3488 55.4952 46.193 55.6955 45.8785 55.6955H44.1701V56.5498C44.1701 56.6917 44.1284 56.8196 44.0421 56.9337C44.7266 57.0478 44.9103 57.4457 44.5986 58.1302C43.9726 59.0707 43.2324 59.8804 42.3782 60.5649C42.918 60.9349 43.9865 61.3634 45.5808 61.8476C45.9787 61.9617 46.1206 62.2037 46.0093 62.5738C45.8674 62.916 45.5808 63.058 45.1551 62.9995C43.8167 62.6295 42.534 62.0869 41.3097 61.3773C39.9435 62.2037 38.633 62.7435 37.3809 62.9995C36.9246 63.0552 36.6129 62.9272 36.4404 62.6155C36.3542 62.2455 36.51 62.0173 36.9106 61.931C38.4187 61.4747 39.5429 61.0212 40.2858 60.5649C39.2897 59.7691 38.5495 58.9427 38.0654 58.0885C37.865 57.7462 37.9235 57.4485 38.2351 57.1925C38.6052 56.9949 38.9196 57.0367 39.1756 57.3205C39.8016 58.3166 40.5279 59.143 41.3543 59.7969C42.0081 59.3127 42.8067 58.4168 43.7472 57.1062C43.2352 57.1925 42.9625 57.0061 42.9347 56.5498V55.6955H39.7321V56.5498C39.7042 56.892 39.49 57.0756 39.0921 57.1062C38.6942 57.0784 38.4939 56.892 38.4939 56.5498V55.6955H36.8272C36.4571 55.6955 36.2568 55.498 36.2289 55.0973C36.2846 54.6994 36.4988 54.4852 36.8689 54.4573Z" fill="white"/>
<path d="M51.9498 57.4063H53.444C53.9838 57.3784 54.2398 57.6205 54.212 58.1325C53.9282 60.5811 52.6594 62.1337 50.4111 62.7876C49.9548 62.8738 49.6432 62.7458 49.4706 62.4036C49.3844 62.1198 49.5708 61.8916 50.0271 61.7191C50.6254 61.5494 51.1652 61.2489 51.6493 60.8231C51.4212 60.5672 51.1067 60.2833 50.7088 59.9689C50.425 60.3112 50.1663 60.4948 49.9409 60.5254C49.5124 60.6117 49.2703 60.4559 49.2147 60.0552C49.2147 59.8855 49.3705 59.6434 49.6849 59.329C50.1412 58.8726 50.4807 58.4052 50.7088 57.9182C50.7367 57.8626 50.7645 57.7763 50.7951 57.6623C50.9092 57.3784 51.0372 57.2059 51.1791 57.1503C51.5213 57.064 51.7773 57.1503 51.947 57.4063H51.9498ZM57.4591 55.6116H58.3133C58.9394 55.5838 59.2371 55.8119 59.2093 56.2961C59.1815 56.6383 59.1509 56.936 59.123 57.192C59.0368 57.704 58.8949 57.9461 58.6973 57.9182C58.8392 58.4608 58.7112 58.7586 58.3133 58.8142H57.7568V60.4364H58.7391C59.0507 60.4642 59.2232 60.6645 59.251 61.0346C59.2232 61.4047 59.0507 61.5911 58.7391 61.5911H57.7568V62.7876C57.729 63.0436 57.5287 63.1855 57.1586 63.2161C56.7885 63.1576 56.6021 63.0018 56.6021 62.7458V61.5939H54.9799C54.4095 61.6217 54.1535 61.4242 54.212 60.9957C54.2398 60.3696 54.3121 59.8576 54.4262 59.457C54.4819 59.1147 54.6961 58.945 55.0662 58.945C55.4084 59.0034 55.5782 59.201 55.5782 59.5432C55.5503 59.7992 55.5197 60.0413 55.4919 60.2694C55.4641 60.4113 55.5476 60.4698 55.7479 60.4392H56.6021V58.817H54.8937C54.5514 58.817 54.365 58.6333 54.3372 58.2605C54.3372 57.8904 54.5069 57.6901 54.8492 57.6623H56.5993V57.448C56.5993 57.1642 56.783 57.0056 57.1558 56.9778C57.5259 57.0056 57.7262 57.1475 57.7541 57.4063V57.6623H58.0518C57.9099 57.6623 57.8821 57.4202 57.9655 56.936C57.9655 56.8498 57.9238 56.7941 57.8375 56.7663H50.6615C50.5475 56.7941 50.4918 56.8804 50.4918 57.0223V57.7903C50.464 58.1325 50.2637 58.3161 49.8936 58.3467C49.4957 58.3467 49.2954 58.177 49.2954 57.8348V56.5103C49.2954 55.9399 49.5374 55.6422 50.0216 55.6144H51.1763C51.0066 55.3584 50.848 55.0022 50.7061 54.5459H50.3221C49.9242 54.5181 49.7099 54.3177 49.6821 53.9477C49.7099 53.5498 49.9242 53.3355 50.3221 53.3077C50.5781 53.3355 50.9621 53.3494 51.474 53.3494C54.0367 53.4357 56.1569 53.3494 57.8375 53.0934C58.6055 53.0656 58.8615 53.3912 58.6055 54.0757C58.5192 54.2454 58.2772 54.3595 57.8793 54.4179C57.7374 54.9577 57.5955 55.3584 57.4508 55.6144L57.4591 55.6116ZM52.7178 58.5165H51.6938C51.6076 58.7168 51.5074 58.8865 51.3961 59.0284C51.4824 59.1425 51.5798 59.2288 51.6938 59.2844C51.9777 59.5126 52.2336 59.7269 52.4618 59.9244C52.6594 59.6128 52.804 59.2399 52.8875 58.8142C52.9153 58.6445 52.8597 58.5443 52.7178 58.5165ZM52.5063 55.6116H53.8308C53.6889 55.2137 53.5748 54.8575 53.4885 54.5431H52.0361C52.1502 54.941 52.306 55.2972 52.5063 55.6116ZM55.069 55.6116H56.1374C56.2237 55.414 56.335 55.1274 56.4797 54.7574C56.5075 54.6711 56.5492 54.5737 56.6077 54.4596C56.1235 54.5459 55.5114 54.5737 54.7713 54.5459C54.7991 54.6878 54.8408 54.8742 54.8992 55.1024C54.9549 55.3305 55.0133 55.5003 55.069 55.6144V55.6116Z" fill="white"/>
<path d="M64.6407 62.618C64.6129 62.9881 64.3987 63.1884 64.0008 63.2163C63.5723 63.1884 63.3608 62.9881 63.3608 62.618V57.6625C63.2745 57.7487 63.2189 57.8183 63.1911 57.8767C62.8488 58.3052 62.5205 58.4193 62.2089 58.2189C61.8666 57.963 61.8388 57.6207 62.1226 57.1922C63.0047 56.1377 63.6891 54.9134 64.1733 53.5194C64.3152 53.1771 64.5712 53.0352 64.9413 53.0909C65.3391 53.2328 65.481 53.4748 65.3698 53.8171C65.1138 54.5294 64.8995 55.0553 64.7298 55.3975L64.6435 55.6535V62.6152L64.6407 62.618ZM68.6113 55.4393H71.43C71.7722 55.4671 71.9559 55.6813 71.9865 56.0792C71.9865 56.5077 71.8306 56.7192 71.5162 56.7192H68.4833L68.3553 57.4872C68.8395 56.9752 69.2235 57.0447 69.5073 57.7014V61.2463C69.4489 61.6469 69.5935 61.8167 69.933 61.7582H70.445C70.701 61.9001 70.829 61.3604 70.829 60.1361C70.829 59.766 71.0126 59.5657 71.3854 59.5378C71.7277 59.5963 71.9253 59.8077 71.9837 60.1778C72.1534 62.2007 71.6554 63.1384 70.4895 62.9964H69.7633C68.7393 62.9964 68.2385 62.5985 68.2691 61.8V58.2969C67.8128 60.1472 67.017 61.6136 65.8762 62.6959C65.5339 62.9797 65.1917 62.9937 64.8522 62.7377C64.5684 62.4817 64.5962 62.2118 64.9385 61.9252C66.3047 60.6453 67.1032 58.9062 67.3314 56.7136H65.367C64.9969 56.7136 64.7966 56.5133 64.7687 56.1154C64.7687 55.6869 64.9524 55.4615 65.3252 55.4309H67.4622V54.151C67.49 53.895 67.5039 53.7392 67.5039 53.6807C67.4761 53.3107 67.6597 53.1103 68.0604 53.0825C68.4583 53.1103 68.6725 53.3107 68.7004 53.6807C68.6419 54.4209 68.6141 55.0052 68.6141 55.4309L68.6113 55.4393ZM70.406 55.0998C70.0916 54.8716 69.7494 54.5878 69.3821 54.2456C69.0398 54.0174 68.9981 53.7336 69.2541 53.3914C69.5101 53.1354 69.8245 53.1215 70.1946 53.3496C70.5924 53.664 70.9347 53.9339 71.2185 54.1621C71.4745 54.5043 71.5023 54.816 71.3048 55.1026C71.0209 55.3586 70.7204 55.3586 70.4088 55.1026L70.406 55.0998Z" fill="white"/>
<path d="M79.6354 55.014V53.3918C79.6354 53.1358 79.8358 53.0078 80.2337 53.0078C80.6316 53.0356 80.8458 53.1775 80.8736 53.4363V55.0168H84.0345C84.3768 55.0446 84.5604 55.2588 84.591 55.6567C84.5632 56.0546 84.3768 56.255 84.0345 56.255H80.8736V58.1776H83.7785C84.093 58.2055 84.2627 58.4197 84.2905 58.8176C84.2627 59.2183 84.0902 59.4158 83.7785 59.4158H80.8736V61.5083H84.3323C84.6439 61.5361 84.8164 61.7225 84.8442 62.0648C84.8164 62.4626 84.6439 62.6769 84.3323 62.7047H75.5758C75.2336 62.6769 75.0638 62.4626 75.0638 62.0648C75.0917 61.7225 75.2781 61.5389 75.6203 61.5083H79.6354V59.4158H76.6443C76.302 59.4158 76.1323 59.2016 76.1323 58.7759C76.1601 58.4058 76.3605 58.2055 76.7305 58.1776H79.6354V56.255H77.287C76.9726 56.8254 76.661 57.3373 76.3466 57.7937C75.9765 58.2222 75.6064 58.3362 75.2364 58.1359C74.9525 57.9077 74.9665 57.5516 75.2781 57.0674C76.0182 56.0713 76.5302 54.9305 76.8168 53.6506C76.8725 53.3389 77.1006 53.2082 77.5013 53.2666C77.8714 53.3528 78.0411 53.5504 78.0133 53.8648C77.9548 54.0345 77.8853 54.2933 77.799 54.6328C77.7406 54.8025 77.7128 54.9305 77.7128 55.0168H79.6354V55.014Z" fill="white"/>
<path d="M93.5228 54.2453H96.5974C97.2819 54.2453 97.6214 54.6154 97.6214 55.3555V58.9421C97.6214 60.453 97.4934 61.463 97.2374 61.975C97.0092 62.487 96.5807 62.743 95.9547 62.743C95.4121 62.7151 94.9724 62.6567 94.6302 62.5732C94.3464 62.4313 94.2323 62.231 94.288 61.975C94.3742 61.6328 94.5579 61.4769 94.8445 61.5048C95.3564 61.6745 95.7126 61.7051 95.9129 61.591C96.2552 61.5048 96.4249 60.4363 96.4249 58.3884V55.656C96.3971 55.5698 96.2969 55.5141 96.1272 55.4863C95.9574 58.6472 94.8584 60.9817 92.8383 62.4926C92.5239 62.6901 92.2262 62.6762 91.9423 62.4508C91.6864 62.1364 91.6864 61.8804 91.9423 61.6829C93.8789 60.2304 94.9168 58.1658 95.0615 55.4891H94.7192C94.377 57.7095 93.5812 59.3762 92.3263 60.4864C92.0119 60.7424 91.7281 60.7424 91.4721 60.4864C91.2439 60.1748 91.2718 59.8742 91.5584 59.5904C92.6129 58.6806 93.2807 57.3116 93.5673 55.4891H93.2251C93.0247 56.2292 92.7409 56.8859 92.3708 57.4535C91.8283 57.882 91.4749 57.7957 91.3024 57.1975C91.3024 57.0834 91.358 56.9276 91.4721 56.7273C91.5584 56.5575 91.614 56.4295 91.6418 56.3433C91.5834 56.4017 91.5138 56.4156 91.4276 56.385H90.9573V58.1797C91.1549 58.01 91.3831 57.9237 91.6418 57.9237C92.0119 58.0935 92.126 58.394 91.9841 58.8197C91.87 58.9616 91.6279 59.148 91.2578 59.3762C91.1159 59.4624 91.0158 59.5181 90.9601 59.5459V62.6651C90.9323 62.9489 90.732 63.1214 90.3619 63.177C89.964 63.1492 89.7637 62.9906 89.7637 62.7068V60.1024C89.3073 60.3584 88.9094 60.5448 88.5672 60.6589C88.3112 60.773 88.1109 60.6589 87.969 60.3167C87.8827 60.005 87.969 59.7602 88.225 59.5904C88.595 59.4207 89.107 59.148 89.7637 58.778V56.4295H89.2517C89.2239 56.6855 89.21 56.9415 89.21 57.1975C89.1821 57.4535 89.1515 57.6399 89.1237 57.754C88.9818 58.1547 88.7397 58.3383 88.3975 58.3105C88.1137 58.1964 87.9996 57.9126 88.0552 57.4563C88.1693 56.3739 88.225 55.2637 88.225 54.1257C88.225 53.814 88.4086 53.6415 88.7815 53.6137C89.1515 53.6137 89.3519 53.7695 89.3797 54.0839C89.3797 54.6265 89.3658 55.0105 89.3379 55.2386H89.7637V53.4885C89.7637 53.2325 89.9473 53.0906 90.3202 53.06C90.7181 53.06 90.9323 53.188 90.9601 53.444V55.2386H91.5166C91.6864 55.2386 91.8143 55.3527 91.9006 55.5809C92.0425 55.1524 92.1566 54.7267 92.2428 54.301C92.3848 53.7027 92.5267 53.3187 92.6713 53.1462C93.0136 52.9487 93.2835 52.9626 93.4838 53.188C93.6536 53.4161 93.6675 53.7723 93.5256 54.2564L93.5228 54.2453Z" fill="white"/>
<path d="M103.949 54.5438V55.654H104.803C105.087 55.6818 105.245 55.8822 105.273 56.2522C105.245 56.6223 105.103 56.8087 104.845 56.8087H103.949V57.0647C104.347 57.5767 104.689 57.9607 104.973 58.2195C105.229 58.4476 105.401 58.6173 105.485 58.7314C105.626 59.3853 105.357 59.6719 104.672 59.5856C104.416 59.3853 104.174 59.1432 103.946 58.8594V62.6603C103.918 62.9441 103.718 63.1166 103.348 63.1723C102.95 63.1723 102.749 63.0303 102.749 62.7437V59.1989C102.493 59.9668 102.207 60.5373 101.895 60.9073C101.667 61.1911 101.397 61.2635 101.083 61.1216C100.768 60.924 100.685 60.6652 100.827 60.3536C101.511 59.2156 102.065 58.0469 102.493 56.8505H101.297C100.699 56.4526 100.699 56.0547 101.297 55.654H102.749V54.6273C102.58 54.6551 102.179 54.669 101.553 54.669C101.211 54.669 101.024 54.4854 100.996 54.1125C100.996 53.7425 101.166 53.5282 101.508 53.4726C102.761 53.4447 103.815 53.3446 104.669 53.1748C105.039 53.1192 105.295 53.2611 105.437 53.6033C105.524 53.9734 105.396 54.2155 105.053 54.3296C104.825 54.4158 104.455 54.4854 103.943 54.5438H103.949ZM110.056 53.6896V59.0709C110.654 59.0152 110.952 59.1989 110.952 59.6274C111.008 60.0837 110.71 60.3258 110.056 60.3536V62.6185C110.028 62.9023 109.814 63.0609 109.416 63.0888C109.018 63.0609 108.818 62.9023 108.818 62.6185V60.5679C107.622 60.7682 106.425 60.9685 105.229 61.1661C104.886 61.1939 104.672 61.0103 104.589 60.6096C104.561 60.2117 104.717 59.9696 105.059 59.8834C105.115 59.8834 106.369 59.6858 108.818 59.2851V53.7313C108.818 53.4475 109.016 53.2889 109.416 53.2611C109.814 53.2889 110.028 53.4308 110.056 53.6896ZM107.151 59.0292C106.982 58.8872 106.709 58.6452 106.339 58.3029C105.913 57.8744 105.613 57.5628 105.443 57.3625C105.215 57.1343 105.215 56.8922 105.443 56.6362C105.671 56.4081 105.941 56.3802 106.255 56.55C106.968 57.1204 107.566 57.6741 108.05 58.2167C108.25 58.5005 108.22 58.7732 107.964 59.0292C107.649 59.2573 107.379 59.2573 107.151 59.0292ZM107.58 56.3802C107.182 55.9823 106.556 55.4119 105.702 54.6718C105.501 53.9873 105.788 53.7035 106.556 53.8176C107.04 54.1598 107.666 54.7302 108.434 55.526C108.634 55.8404 108.618 56.1243 108.392 56.3802C108.078 56.6362 107.808 56.6362 107.58 56.3802Z" fill="white"/>
<path d="M115.015 54.8438V53.6056C115.015 53.2356 115.212 53.0213 115.613 52.9657C116.011 53.0241 116.225 53.2356 116.253 53.6056V54.8438H116.809C117.179 54.8717 117.38 55.072 117.407 55.4421C117.38 55.8427 117.179 56.0403 116.809 56.0403H116.253V57.8767C116.453 57.7905 116.681 57.7209 116.937 57.6625C117.221 57.6347 117.407 57.8044 117.494 58.1745C117.522 58.4583 117.394 58.6725 117.11 58.8144C116.826 58.9842 116.539 59.1121 116.256 59.1984V61.9753C116.228 62.9714 115.571 63.3137 114.291 62.9993C113.921 62.8574 113.762 62.5735 113.821 62.145C113.935 61.8334 114.177 61.7165 114.547 61.8028C114.831 61.8891 114.99 61.8306 115.017 61.6331V59.5824C114.959 59.6102 114.903 59.6408 114.848 59.6686C114.761 59.7271 114.619 59.7688 114.419 59.7966C114.021 59.9107 113.762 59.7827 113.651 59.4127C113.593 59.0148 113.765 58.7449 114.163 58.6002C114.447 58.5139 114.661 58.4444 114.803 58.3859C114.889 58.3303 114.959 58.2858 115.017 58.2579V56.0375H114.419C114.049 56.0375 113.849 55.84 113.821 55.4393C113.849 55.0692 114.049 54.8689 114.419 54.8411H115.017L115.015 54.8438ZM117.919 54.0731H119.756V53.4749C119.756 53.1632 119.97 52.9907 120.396 52.9629C120.794 52.9907 121.008 53.1632 121.036 53.4749V54.0731H123.173C123.543 54.1009 123.743 54.3013 123.771 54.6713C123.743 55.0692 123.543 55.2696 123.173 55.2696H120.994V56.5078H122.488C123.028 56.5356 123.301 56.85 123.301 57.4482C123.214 58.589 122.616 59.7549 121.506 60.9514C121.962 61.2936 122.502 61.5913 123.128 61.8473C123.557 61.9892 123.713 62.2897 123.598 62.7433C123.429 63.1133 123.114 63.2274 122.658 63.0855C121.946 62.8017 121.206 62.3732 120.438 61.8028C119.469 62.4567 118.557 62.8991 117.702 63.1273C117.19 63.2692 116.848 63.1829 116.678 62.8713C116.564 62.4455 116.734 62.145 117.19 61.9753C117.958 61.7778 118.699 61.4355 119.411 60.9514C118.612 60.1834 118.1 59.3987 117.872 58.603C117.73 58.091 117.886 57.8072 118.342 57.7487H118C117.602 57.7487 117.388 57.5512 117.36 57.1505C117.388 56.7526 117.602 56.5384 118 56.5105H119.75V55.2723H117.914C117.544 55.2723 117.343 55.0748 117.316 54.6741C117.343 54.304 117.544 54.1037 117.914 54.0759L117.919 54.0731ZM121.595 57.746H118.52C118.69 57.8044 118.891 58.0604 119.119 58.5139C119.403 59.0843 119.845 59.6408 120.443 60.1806C121.014 59.6686 121.481 58.9842 121.854 58.1299C121.91 57.9018 121.826 57.7738 121.598 57.746H121.595Z" fill="white"/>
<defs>
<linearGradient id="paint0_linear_2890_194092" x1="79.9999" y1="47.704" x2="79.9999" y2="6.97977" gradientUnits="userSpaceOnUse">
<stop stop-color="#C8C9CA"/>
<stop offset="0.5" stop-color="white"/>
<stop offset="1" stop-color="#C8C9CA"/>
</linearGradient>
<linearGradient id="paint1_linear_2890_194092" x1="113.465" y1="46.9056" x2="113.465" y2="8.44074" gradientUnits="userSpaceOnUse">
<stop stop-color="#009EB8"/>
<stop offset="0.5" stop-color="#D2ECFA"/>
<stop offset="1" stop-color="#009EB8"/>
</linearGradient>
<linearGradient id="paint2_linear_2890_194092" x1="79.9999" y1="29.1479" x2="79.9999" y2="18.4688" gradientUnits="userSpaceOnUse">
<stop stop-color="white"/>
<stop offset="1" stop-color="white" stop-opacity="0"/>
</linearGradient>
<radialGradient id="paint3_radial_2890_194092" cx="0" cy="0" r="1" gradientUnits="userSpaceOnUse" gradientTransform="translate(93.2163 48.8724) scale(8.22721)">
<stop offset="0.16" stop-color="white"/>
<stop offset="0.47" stop-color="#939393"/>
<stop offset="0.73" stop-color="#444444"/>
<stop offset="0.91" stop-color="#121212"/>
<stop offset="1"/>
</radialGradient>
</defs>
</svg>
