<svg width="180" height="120" viewBox="0 0 180 120" fill="none" xmlns="http://www.w3.org/2000/svg">
<path d="M180 87.1653V32.8347C180 25.3356 174.792 18.8426 167.471 17.2158L116.032 5.78481C98.8863 1.97474 81.1137 1.97474 63.9684 5.7848L12.5291 17.2158C5.20851 18.8426 0 25.3356 0 32.8347L0 87.1653C0 94.6644 5.2085 101.157 12.5291 102.784L63.9683 114.215C81.1137 118.025 98.8863 118.025 116.032 114.215L167.471 102.784C174.791 101.157 180 94.6644 180 87.1653Z" fill="#E6E6E6"/>
<path d="M144.964 40.2388V55.4166H67.2297V40.2388H144.964ZM145.452 39.7549H66.7458V55.9042H145.452V39.7549Z" fill="#DC0000"/>
<path d="M145.452 39.7549H104.349V55.9042H145.452V39.7549Z" fill="#DC0000"/>
<path d="M145.452 55.9042H104.349L145.452 39.7549V55.9042Z" fill="#BA0000"/>
<path d="M108.762 53.9641L109.264 44.8566H110.503L110.001 53.9641H108.762ZM114.32 43.6866H112.579V47.37L114.02 48.7098V50.2806L112.579 49.0095V54.7838H111.24V43.6866H108.997V42.5491H111.24V40.9421H112.579V42.5491H114.32V43.6866ZM115.093 45.225H118.841V40.9385H120.181V45.225H123.496V54.7838H115.093V53.6607H122.189V50.4468H115.627V49.3092H122.189V46.3625H115.093V45.225ZM117.837 44.5208H116.53L115.324 41.3393H116.628L117.834 44.5208H117.837ZM122.423 44.5208H121.152L122.358 41.3393H123.63L122.423 44.5208Z" fill="white"/>
<path d="M141.035 52.0868H134.138V54.7844H132.798V52.0868H125.969V51.0179H132.798V50.0465H134.138V51.0179H141.035V52.0868ZM134.073 40.874L134.34 41.6107H140.97V43.7521H139.732V42.6832H127.345V43.7521H126.074V41.6107H132.834L132.599 40.874H134.073ZM128.349 44.5899L128.818 43.6871H130.158L129.721 44.5899H140.97V45.6589H139.663V47.4681L135.615 48.2048L140.768 48.9739V49.9779L133.502 48.7717L126.305 50.144V49.0389L131.227 48.2336L126.908 47.4645L127.948 45.6553H126.074V44.5863H128.349V44.5899ZM128.985 52.5924H130.523L128.147 54.7844H126.605L128.985 52.5924ZM133.502 47.6378L138.356 46.735V45.6625H129.317L128.714 46.7675L133.502 47.6378ZM138.793 54.7844L136.348 52.5924H137.922L140.335 54.7844H138.796H138.793Z" fill="white"/>
<path d="M68.6995 39.7549H66.7458V55.9042H68.6995V39.7549Z" fill="#DC0000"/>
<path d="M72.2709 54.0507C72.2709 54.4118 72.5635 54.7043 72.9246 54.7043H73.5818C73.9429 54.7043 74.2354 54.4118 74.2354 54.0507V44.416H72.2673V54.0507H72.2709Z" fill="black"/>
<path d="M72.9249 40.8887C72.5637 40.8887 72.2712 41.1812 72.2712 41.5459V43.7596H74.2393V40.8887H72.9285H72.9249Z" fill="#DC0000"/>
<path d="M88.4128 54.0507C88.4128 54.4118 88.7054 54.7043 89.0701 54.7043H89.7237C90.0848 54.7043 90.3809 54.4118 90.3809 54.0507V44.416H88.4128V54.0507Z" fill="black"/>
<path d="M75.8532 43.0195H76.5068C76.8679 43.0195 77.164 43.312 77.164 43.6768V54.0373C77.164 54.3984 76.8715 54.6945 76.5068 54.6945H75.8496C75.4884 54.6945 75.1959 54.402 75.1959 54.0409V43.6804C75.1959 43.3193 75.4884 43.0231 75.8532 43.0231V43.0195Z" fill="black"/>
<path d="M84.8455 43.572C84.8455 43.879 84.5963 44.1246 84.2929 44.1246H75.7525C75.4455 44.1246 75.2 43.8754 75.2 43.572C75.2 43.2687 75.4455 43.0195 75.7525 43.0195H84.2929C84.5999 43.0195 84.8455 43.2687 84.8455 43.572Z" fill="black"/>
<path d="M84.8453 47.5252C84.8453 47.8321 84.5962 48.0813 84.2928 48.0813H81.848C81.5411 48.0813 81.2955 47.8321 81.2955 47.5252C81.2955 47.2182 81.5447 46.9727 81.848 46.9727H84.2928C84.5998 46.9727 84.8453 47.2218 84.8453 47.5252Z" fill="black"/>
<path d="M76.3733 54.1394C76.3733 54.4464 76.1241 54.6919 75.8208 54.6919H73.376C73.069 54.6919 72.8235 54.4428 72.8235 54.1394C72.8235 53.8325 73.0727 53.5869 73.376 53.5869H75.8208C76.1241 53.5869 76.3733 53.8361 76.3733 54.1394Z" fill="black"/>
<path d="M79.7932 45.8288H76.572V46.9374H77.8251C78.1898 46.9374 78.4823 47.23 78.4823 47.5911V54.0334C78.4823 54.3946 78.7748 54.6907 79.136 54.6907H79.7932C80.1543 54.6907 80.4504 54.3982 80.4504 54.0334V46.4824C80.4504 46.1213 80.1579 45.8252 79.7932 45.8252V45.8288Z" fill="black"/>
<path d="M82.942 53.9898C83.0395 54.3509 83.4115 54.6434 83.7726 54.6434H84.4262C84.7874 54.6434 85.004 54.3509 84.9065 53.9898L81.5734 41.542C81.4759 41.1809 81.1039 40.8848 80.7428 40.8848H80.0856C79.7245 40.8848 79.5078 41.1773 79.6053 41.542L82.942 53.9898Z" fill="black"/>
<path d="M82.8553 43.4668C82.9528 43.8279 83.3247 44.124 83.6859 44.124H84.3395C84.7006 44.124 84.9173 43.8315 84.8198 43.4668L84.3034 41.542C84.2059 41.1809 83.8339 40.8848 83.4728 40.8848H82.8156C82.4544 40.8848 82.2378 41.1773 82.3353 41.542L82.8517 43.4668H82.8553Z" fill="black"/>
<path d="M100.359 42.5434C100.359 42.807 100.146 43.0201 99.8862 43.0201H92.133C91.873 43.0201 91.6599 42.807 91.6599 42.5434C91.6599 42.2834 91.873 42.0703 92.133 42.0703H99.8862C100.15 42.0703 100.359 42.2834 100.359 42.5434Z" fill="black"/>
<path d="M99.4813 45.061C99.4813 45.321 99.2683 45.534 99.0083 45.534H93.0029C92.7428 45.534 92.5298 45.321 92.5298 45.061C92.5298 44.7973 92.7428 44.5879 93.0029 44.5879H99.0083C99.2719 44.5879 99.4813 44.801 99.4813 45.061Z" fill="black"/>
<path d="M99.4813 47.4897C99.4813 47.7533 99.2683 47.9627 99.0083 47.9627H93.0029C92.7428 47.9627 92.5298 47.7497 92.5298 47.4897C92.5298 47.2297 92.7428 47.0166 93.0029 47.0166H99.0083C99.2719 47.0166 99.4813 47.2297 99.4813 47.4897Z" fill="black"/>
<path d="M96.8815 41.5459C96.784 41.1848 96.412 40.8887 96.0509 40.8887H95.3937C95.0289 40.8887 94.8159 41.1812 94.9134 41.5459L95.1337 42.362C95.2312 42.7232 95.6031 43.0193 95.9642 43.0193H96.6179C96.979 43.0193 97.1957 42.7268 97.0982 42.362L96.8779 41.5459H96.8815Z" fill="black"/>
<path d="M89.0704 40.833H87.272C87.0084 40.833 86.799 41.0461 86.799 41.3061V41.7791H88.4131V43.7039H90.3813V40.833H89.0704Z" fill="#DC0000"/>
<path d="M92.5263 48.9629C92.2121 48.9629 91.9557 49.2121 91.9413 49.5262V54.618H97.1486C98.7628 54.618 100.074 53.3072 100.074 51.693V48.9629H92.5263ZM99.0409 51.693C99.0409 52.1985 98.8459 52.6752 98.4884 53.0327C98.1309 53.3902 97.6542 53.5852 97.1486 53.5852H93.9094V49.9957H99.0409V51.693Z" fill="black"/>
<path d="M39.8608 56.533L38.0913 57.0458V48.9314L39.9402 48.5342L39.8608 56.533Z" fill="#C80000"/>
<path d="M37.1124 56.5001L38.1236 57.0454V48.9311L37.1124 48.6133V56.5001Z" fill="#8C0000"/>
<path d="M46.9995 60.22L44.8798 60.8375V52.214L47.097 51.7373L46.9995 60.22Z" fill="#DC0000"/>
<path d="M43.7065 60.1263L44.9199 60.8377V52.2141L43.7065 51.835V60.1263Z" fill="#8C0000"/>
<path d="M60.1952 56.8738L58.386 57.3252V50.0089L60.2746 49.6045L60.1952 56.8738Z" fill="#DC0000"/>
<path d="M57.3818 56.9549L58.4183 57.3232V50.0069L57.3818 49.6855V56.9549Z" fill="#8C0000"/>
<path d="M51.2864 54.1303L49.8167 54.4517V48.5112L51.3514 48.1826L51.2864 54.1303Z" fill="#C80000"/>
<path d="M49.0039 54.2003L49.8453 54.4531V48.5126L49.0039 48.249V54.2003Z" fill="#8C0000"/>
<path d="M41.1139 34.2188L38.8027 34.0672L37.6146 34.0527L39.9402 34.2188H41.1139Z" fill="#666666"/>
<path d="M60.9896 49.5519L44.6093 52.6395V43.2396L61.748 41.3906L60.9896 49.5519Z" fill="#DC0000"/>
<path d="M36.2817 48.8628L44.6091 52.6401V43.2401L35.5884 41.0518L36.2817 48.8628Z" fill="#8C0000"/>
<path d="M60.8776 40.5244L44.4214 42.2072V43.027L60.7982 41.2575L60.8776 40.5244Z" fill="#DC0000"/>
<path d="M35.9099 40.9433L44.4215 43.027V42.2073L35.8918 40.25L35.9099 40.9433Z" fill="#8C0000"/>
<path d="M62.2683 40.0619L43.7573 42.0047V41.1994L62.3189 39.4443L62.2683 40.0619Z" fill="#DC0000"/>
<path d="M34.5448 39.5999L43.757 42.0049V41.1996L34.5448 39.0293V39.5999Z" fill="#8C0000"/>
<path d="M51.2791 37.613L34.5448 39.0286L43.7534 41.1953L62.3149 39.4619L51.2791 37.6094V37.613ZM36.921 39.0394L51.1852 37.8513L59.6823 39.2525L44.1831 40.7006L36.921 39.0394Z" fill="url(#paint0_linear_2890_194091)"/>
<path d="M38.3874 35.62L39.0735 35.6814L39.2541 39.874L40.1786 40.1051L39.9402 34.2188L37.6146 34.0527L37.8277 39.5129L38.5535 39.697L38.3874 35.62Z" fill="#8C0000"/>
<path d="M39.9406 34.2178H41.1142L41.2117 40.0643L40.1789 40.104" fill="#DC0000"/>
<path d="M54.9484 38.4734L55.1903 34.5769L55.9017 34.6058L55.6706 38.5926L56.8876 38.7912L57.1368 33.508L54.3381 33.3672L53.9625 38.3109L54.9484 38.4734Z" fill="#8C0000"/>
<path d="M57.588 38.6836L57.9203 33.5088H57.1366L56.8875 38.792L57.588 38.6836Z" fill="#DC0000"/>
<path d="M75.8285 59.6458V60.2778C75.601 60.3969 75.3663 60.4872 75.128 60.5522C74.8896 60.6136 74.6549 60.6461 74.4202 60.6461C74.1854 60.6461 73.9832 60.6172 73.781 60.5594C73.5788 60.5017 73.3838 60.415 73.2032 60.2994C72.9107 60.108 72.6868 59.8661 72.5243 59.57C72.3618 59.2738 72.2823 58.9525 72.2823 58.6058C72.2823 58.3422 72.3365 58.0894 72.4412 57.8402C72.5496 57.5946 72.6976 57.378 72.8963 57.1938C73.1057 56.9952 73.3404 56.8471 73.5968 56.7496C73.8568 56.6521 74.1421 56.6016 74.4599 56.6016C74.6802 56.6016 74.8969 56.6268 75.1135 56.6774C75.3302 56.728 75.5577 56.8074 75.7924 56.9157V57.5224C75.5433 57.3888 75.3121 57.2877 75.0919 57.2227C74.8716 57.1577 74.6621 57.1252 74.4563 57.1252C74.0013 57.1252 73.6221 57.266 73.3224 57.5513C73.0226 57.8366 72.8746 58.1905 72.8746 58.6202C72.8746 59.05 73.0226 59.3966 73.3152 59.6819C73.6077 59.9672 73.976 60.108 74.4202 60.108C74.6477 60.108 74.8788 60.0683 75.1099 59.9925C75.3446 59.9166 75.5794 59.7975 75.8213 59.6422L75.8285 59.6458Z" fill="black"/>
<path d="M77.1571 60.573V56.6621H77.7096V58.3449H79.9666V56.6621H80.5227V60.573H79.9666V58.8722H77.7096V60.573H77.1571Z" fill="black"/>
<path d="M82.0498 60.573V56.6621H84.4006V57.1605H82.6023V58.3449H84.3501V58.8505H82.6023V60.0711H84.4584V60.573H82.0461H82.0498Z" fill="black"/>
<path d="M85.8529 60.573V56.6621H86.3404L88.9152 59.6991V56.6621H89.4713V60.573H88.973L86.4054 57.5324V60.573H85.8529Z" fill="black"/>
<path d="M94.3245 58.6557V60.3132C94.0681 60.4251 93.8226 60.5082 93.595 60.5624C93.3639 60.6165 93.1437 60.6454 92.9342 60.6454C92.6995 60.6454 92.4792 60.6165 92.2697 60.5588C92.0639 60.501 91.8725 60.4143 91.6992 60.3024C91.4067 60.111 91.1828 59.869 91.0203 59.5729C90.8578 59.2768 90.7783 58.9554 90.7783 58.6051C90.7783 58.3415 90.8325 58.0887 90.9372 57.8395C91.0419 57.594 91.1936 57.3773 91.3886 57.1931C91.5945 56.9945 91.8292 56.8464 92.0892 56.7489C92.3492 56.6514 92.6381 56.6045 92.9595 56.6045C93.1762 56.6045 93.3964 56.6298 93.6167 56.6839C93.837 56.7345 94.0609 56.8139 94.2884 56.9187V57.5253C94.0392 57.3917 93.8081 57.2906 93.5878 57.2256C93.3712 57.1606 93.1581 57.1281 92.9523 57.1281C92.4936 57.1281 92.1181 57.269 91.8183 57.5542C91.5186 57.8395 91.3706 58.1934 91.3706 58.6232C91.3706 59.0529 91.5186 59.3996 91.8111 59.6848C92.1072 59.9701 92.4756 60.111 92.9234 60.111C93.057 60.111 93.1906 60.0965 93.3278 60.0676C93.4614 60.0387 93.6023 59.9954 93.7431 59.934V59.1757H93.0064V58.6557H94.3173H94.3245Z" fill="black"/>
<path d="M97.3907 60.573L99.1891 58.5002L97.6363 56.6621H98.326L99.5358 58.0921L100.767 56.6621H101.461L99.8788 58.5002L101.609 60.573H100.926L99.5213 58.9011L98.0732 60.573H97.3871H97.3907Z" fill="black"/>
<path d="M102.681 60.573V56.6621H103.241V60.573H102.681Z" fill="black"/>
<path d="M104.786 60.573V56.6621H105.274L107.849 59.6991V56.6621H108.405V60.573H107.906L105.339 57.5324V60.573H104.786Z" fill="black"/>
<path d="M113.497 56.6628C113.785 56.6628 114.035 56.6881 114.24 56.7422C114.45 56.7964 114.638 56.8831 114.811 56.9986C115.075 57.1792 115.28 57.4067 115.425 57.6884C115.569 57.97 115.642 58.277 115.642 58.6164C115.642 58.9559 115.569 59.2628 115.425 59.5445C115.28 59.8262 115.075 60.0573 114.811 60.2343C114.641 60.3498 114.45 60.4365 114.24 60.4907C114.031 60.5448 113.782 60.5701 113.493 60.5701H112.056V56.6592H113.493L113.497 56.6628ZM113.497 57.1972H112.612V60.0429H113.497C113.98 60.0429 114.36 59.9165 114.634 59.6637C114.909 59.4109 115.046 59.0642 115.046 58.6237C115.046 58.1831 114.909 57.8328 114.634 57.58C114.36 57.3236 113.98 57.1972 113.497 57.1972Z" fill="black"/>
<path d="M116.346 60.573L118.04 56.6621H118.448L120.163 60.573H119.585L119.083 59.4211H117.415L116.916 60.573H116.342H116.346ZM117.635 58.9191H118.856L118.238 57.5107L117.635 58.9191Z" fill="black"/>
<path d="M121.145 60.573V56.6621H121.633L124.208 59.6991V56.6621H124.764V60.573H124.265L121.698 57.5324V60.573H121.145Z" fill="black"/>
<path d="M129.621 58.6557V60.3132C129.364 60.4251 129.119 60.5082 128.888 60.5624C128.656 60.6165 128.436 60.6454 128.23 60.6454C127.996 60.6454 127.775 60.6165 127.566 60.5588C127.36 60.501 127.169 60.4143 126.995 60.3024C126.706 60.111 126.479 59.869 126.316 59.5729C126.154 59.2768 126.074 58.9554 126.074 58.6051C126.074 58.3415 126.129 58.0887 126.233 57.8395C126.338 57.594 126.49 57.3773 126.685 57.1931C126.891 56.9945 127.125 56.8464 127.385 56.7489C127.645 56.6514 127.934 56.6045 128.256 56.6045C128.472 56.6045 128.693 56.6298 128.913 56.6839C129.133 56.7345 129.357 56.8139 129.585 56.9187V57.5253C129.335 57.3917 129.104 57.2906 128.884 57.2256C128.667 57.1606 128.454 57.1281 128.248 57.1281C127.793 57.1281 127.414 57.269 127.114 57.5542C126.815 57.8395 126.667 58.1934 126.667 58.6232C126.667 59.0529 126.815 59.3996 127.107 59.6848C127.403 59.9701 127.772 60.111 128.22 60.111C128.353 60.111 128.487 60.0965 128.62 60.0676C128.754 60.0387 128.895 59.9954 129.036 59.934V59.1757H128.299V58.6557H129.61H129.621Z" fill="black"/>
<path d="M132.618 60.573L134.311 56.6621H134.719L136.438 60.573H135.861L135.359 59.4211H133.69L133.192 60.573H132.618ZM133.907 58.9191H135.127L134.51 57.5107L133.91 58.9191H133.907Z" fill="black"/>
<path d="M137.417 60.573V56.6621H137.905L140.479 59.6991V56.6621H141.035V60.573H140.537L137.97 57.5324V60.573H137.417Z" fill="black"/>
<path d="M154.718 77.0906V85.8585H109.817V77.0906H154.718ZM155 76.8125H109.539V86.1402H155V76.8125Z" fill="#DC0000"/>
<path d="M155 76.8125H131.256V86.1402H155V76.8125Z" fill="#DC0000"/>
<path d="M155 86.1402H131.256L155 76.8125V86.1402Z" fill="#BA0000"/>
<path d="M133.809 85.0221L134.098 79.7606H134.813L134.524 85.0221H133.809ZM137.019 79.0853H136.012V81.2123L136.842 81.9851V82.8951L136.012 82.1621V85.4988H135.239V79.0889H133.943V78.4317H135.239V77.5036H136.012V78.4317H137.019V79.0889V79.0853ZM137.464 79.9737H139.63V77.5H140.403V79.9737H142.317V85.4952H137.464V84.8488H141.562V82.9926H137.771V82.3354H141.562V80.6345H137.464V79.9773V79.9737ZM139.049 79.5656H138.294L137.597 77.7275H138.352L139.049 79.5656ZM141.7 79.5656H140.963L141.66 77.7275H142.397L141.7 79.5656Z" fill="white"/>
<path d="M152.45 83.9384H148.467V85.4949H147.694V83.9384H143.751V83.3209H147.694V82.7612H148.467V83.3209H152.45V83.9384ZM148.427 77.46L148.583 77.8861H152.41V79.1247H151.695V78.5072H144.542V79.1247H143.805V77.8861H147.712L147.579 77.46H148.431H148.427ZM145.12 79.605L145.39 79.0814H146.163L145.91 79.605H152.407V80.2225H151.652V81.2662L149.312 81.6923L152.288 82.1365V82.7179L148.092 82.0209L143.935 82.8154V82.1762L146.777 81.7103L144.282 81.2662L144.881 80.2225H143.798V79.605H145.112H145.12ZM145.488 84.2273H146.376L145.004 85.4949H144.116L145.488 84.2273ZM148.099 81.3637L150.905 80.84V80.2225H145.683L145.336 80.8617L148.102 81.3637H148.099ZM151.154 85.4949L149.742 84.2273H150.652L152.046 85.4949H151.157H151.154Z" fill="white"/>
<path d="M110.669 76.8125H109.539V86.1402H110.669V76.8125Z" fill="#DC0000"/>
<path d="M112.731 85.0688C112.731 85.2782 112.9 85.4479 113.11 85.4479H113.489C113.699 85.4479 113.868 85.2782 113.868 85.0688V79.5039H112.734V85.0688H112.731Z" fill="black"/>
<path d="M113.106 77.4668C112.897 77.4668 112.727 77.6365 112.727 77.846V79.1243H113.861V77.4668H113.103H113.106Z" fill="#DC0000"/>
<path d="M122.055 85.0688C122.055 85.2782 122.225 85.4479 122.434 85.4479H122.814C123.023 85.4479 123.193 85.2782 123.193 85.0688V79.5039H122.055V85.0688Z" fill="black"/>
<path d="M114.8 78.6992H115.179C115.389 78.6992 115.559 78.8689 115.559 79.0784V85.0621C115.559 85.2716 115.389 85.4413 115.179 85.4413H114.8C114.591 85.4413 114.421 85.2716 114.421 85.0621V79.0784C114.421 78.8689 114.591 78.6992 114.8 78.6992Z" fill="black"/>
<path d="M119.993 79.017C119.993 79.1939 119.849 79.3384 119.672 79.3384H114.739C114.562 79.3384 114.417 79.1939 114.417 79.017C114.417 78.8401 114.562 78.6992 114.739 78.6992H119.672C119.849 78.6992 119.993 78.8437 119.993 79.017Z" fill="black"/>
<path d="M119.993 81.3009C119.993 81.4778 119.849 81.6223 119.672 81.6223H118.26C118.083 81.6223 117.938 81.4778 117.938 81.3009C117.938 81.1239 118.083 80.9795 118.26 80.9795H119.672C119.849 80.9795 119.993 81.1239 119.993 81.3009Z" fill="black"/>
<path d="M115.1 85.1192C115.1 85.2962 114.956 85.4406 114.779 85.4406H113.367C113.19 85.4406 113.045 85.2962 113.045 85.1192C113.045 84.9423 113.19 84.7979 113.367 84.7979H114.779C114.956 84.7979 115.1 84.9423 115.1 85.1192Z" fill="black"/>
<path d="M117.075 80.319H115.215V80.9582H115.938C116.147 80.9582 116.317 81.1279 116.317 81.3374V85.0569C116.317 85.2664 116.486 85.4361 116.696 85.4361H117.075C117.285 85.4361 117.454 85.2664 117.454 85.0569V80.6946C117.454 80.4852 117.285 80.3154 117.075 80.3154V80.319Z" fill="black"/>
<path d="M118.895 85.0359C118.949 85.2453 119.166 85.415 119.375 85.415H119.754C119.964 85.415 120.087 85.2453 120.032 85.0359L118.108 77.846C118.054 77.6365 117.837 77.4668 117.627 77.4668H117.248C117.039 77.4668 116.916 77.6365 116.97 77.846L118.895 85.0359Z" fill="black"/>
<path d="M118.841 78.9582C118.899 79.1677 119.112 79.3374 119.321 79.3374H119.701C119.91 79.3374 120.033 79.1677 119.979 78.9582L119.683 77.846C119.625 77.6365 119.412 77.4668 119.202 77.4668H118.823C118.614 77.4668 118.491 77.6365 118.545 77.846L118.841 78.9582Z" fill="black"/>
<path d="M128.952 78.4248C128.952 78.5765 128.83 78.6993 128.678 78.6993H124.2C124.048 78.6993 123.926 78.5765 123.926 78.4248C123.926 78.2732 124.048 78.1504 124.2 78.1504H128.678C128.83 78.1504 128.952 78.2732 128.952 78.4248Z" fill="black"/>
<path d="M128.447 79.875C128.447 80.0267 128.324 80.1495 128.172 80.1495H124.705C124.554 80.1495 124.431 80.0267 124.431 79.875C124.431 79.7234 124.554 79.6006 124.705 79.6006H128.172C128.324 79.6006 128.447 79.7234 128.447 79.875Z" fill="black"/>
<path d="M128.447 81.2793C128.447 81.431 128.324 81.5538 128.172 81.5538H124.705C124.554 81.5538 124.431 81.431 124.431 81.2793C124.431 81.1277 124.554 81.0049 124.705 81.0049H128.172C128.324 81.0049 128.447 81.1277 128.447 81.2793Z" fill="black"/>
<path d="M126.945 77.846C126.891 77.6365 126.674 77.4668 126.464 77.4668H126.085C125.876 77.4668 125.753 77.6365 125.807 77.846L125.934 78.319C125.988 78.5285 126.204 78.6982 126.414 78.6982H126.793C127.003 78.6982 127.125 78.5285 127.071 78.319L126.945 77.846Z" fill="black"/>
<path d="M122.434 77.4336H121.398C121.246 77.4336 121.123 77.5564 121.123 77.708V77.9825H122.055V79.0947H123.193V77.4372H122.434V77.4336Z" fill="#DC0000"/>
<path d="M124.431 82.1335C124.251 82.1335 124.103 82.2779 124.095 82.4585V85.398H127.103C128.035 85.398 128.793 84.6433 128.793 83.708V82.1299H124.435L124.431 82.1335ZM128.194 83.708C128.194 84.0005 128.078 84.2749 127.873 84.4808C127.667 84.6866 127.392 84.8022 127.1 84.8022H125.229V82.7293H128.194V83.708Z" fill="black"/>
<path fill-rule="evenodd" clip-rule="evenodd" d="M69.4653 80.5654C69.4653 80.5654 74.3404 76.3223 84.0365 76.3223C93.7325 76.3223 98.7521 80.7063 98.7521 80.7063C98.7521 80.7063 94.7834 79.3665 91.3961 78.7273C88.9549 78.2687 86.7774 78.3048 86.7774 78.3048C86.7774 78.3048 88.6046 79.1065 88.6516 80.8507C88.6913 82.241 87.7993 82.9849 87.0663 83.3966C85.9793 84.0069 82.9206 84.7183 82.0142 85.0939C80.4578 85.7475 80.2808 86.0833 80.2808 86.0833C80.2808 86.0833 80.3711 85.3864 81.1475 84.6677C81.7253 84.1333 82.9314 83.5555 83.4551 83.393C84.6793 83.0138 86.4848 82.306 86.4848 80.8471C86.4848 79.3882 85.0079 78.8682 84.0112 78.8682C83.0145 78.8682 81.7831 79.1209 81.5808 79.9985C81.3245 81.1071 82.1586 80.9879 82.1586 80.9879C82.1586 80.9879 82.0503 79.7168 83.6031 79.7168C85.1559 79.7168 85.3473 80.5654 85.3329 80.9879C85.3112 81.7174 83.8884 82.4035 83.8884 82.4035C83.8884 82.4035 79.7897 83.523 79.2733 80.7063C78.9772 79.0993 81.0031 78.3012 81.0031 78.3012C81.0031 78.3012 78.6486 78.3337 76.099 78.8645C72.9429 79.5218 69.4617 80.5618 69.4617 80.5618L69.4653 80.5654Z" fill="#D7000F"/>
<path fill-rule="evenodd" clip-rule="evenodd" d="M66.912 81.9565H67.9159C68.1651 81.9565 68.2914 82.0756 68.2914 82.332V84.4482H68.9198V81.9565C68.9198 81.4762 68.667 81.339 68.2228 81.339H66.9264C66.4786 81.3317 66.2836 81.5087 66.2836 81.9565V84.4482H66.912V81.9565ZM75.7088 81.339H74.8747L75.1274 81.7073H74.5713V82.3284H74.8205L74.6183 85.3185H71.054L73.9357 82.5307C74.0802 82.1515 74.0332 81.8879 73.6902 81.8301H72.1843L71.8088 81.3317H70.9312L71.3068 81.8301H69.5481V82.5776L72.6465 82.5848L69.7323 85.2679C69.707 85.3293 69.689 85.3871 69.6745 85.4413H68.5478C68.4612 85.4413 68.4214 85.3979 68.4214 85.3149V84.6938H68.0459V82.4512H67.1684V84.3182C66.977 84.8707 66.7386 85.156 66.2908 85.3149H65.6625V84.069H65.9117V83.3215H65.6625V82.0431L66.0381 82.0756V81.3281H64.4058V82.0756H64.6586C64.8608 82.0756 64.9078 82.1984 64.9078 82.4512V83.3251H64.5322V84.0726H64.6586C64.8391 84.0726 64.9078 84.1882 64.9078 84.4446V85.3185H63.6511L63.1491 84.8202L63.5716 83.9246C63.68 83.5237 63.5463 83.1987 63.1491 83.0759H60.8885L61.0149 82.7004H63.6511V82.6751C63.7955 82.6245 63.9038 82.4909 63.9038 82.3284V81.3317H63.0263V82.0829H61.1052L61.3941 81.3317H60.5165L60.2457 82.0865H59.8196L60.0146 81.4581H59.1371L58.9565 82.1081C58.9384 82.5343 59.0793 82.704 59.3862 82.704H60.0146L58.8843 86.0696H59.8882L60.6429 83.8271H62.6508L62.3474 84.4626L62.0802 84.2532C61.5493 84.0004 61.0799 84.0474 60.6682 84.3904C60.3829 84.6829 60.3288 85.0693 60.5021 85.546C60.679 85.8205 60.9029 85.9793 61.1666 86.0263C61.4338 86.0732 61.7227 86.0516 62.0332 85.9649L62.6471 85.5641L63.6511 86.0624H66.6664C67.1611 85.8421 67.5078 85.5677 67.6703 85.1885V85.5604C67.6703 85.8782 67.7245 86.0588 68.0459 86.0588H75.3261L75.4524 83.5671H75.7052C75.8461 83.5671 75.8352 83.6971 75.8352 83.9354V86.0588L76.088 86.0407C76.4094 86.0407 76.5755 85.8855 76.5791 85.5713V83.4696C76.5864 83.1121 76.4094 82.9315 76.0483 82.9315L75.4561 82.9423V82.3212H76.5864V81.6965H75.9688L75.7161 81.3281L75.7088 81.339ZM61.4663 85.3871C61.358 85.3871 61.2677 85.3582 61.1954 85.3004C61.1232 85.2427 61.0835 85.1741 61.0835 85.0874C61.0835 85.0007 61.1196 84.9321 61.1954 84.8743C61.2677 84.8201 61.358 84.7913 61.4663 84.7913C61.6577 84.8238 61.878 84.9032 62.0152 85.0693C61.878 85.221 61.6577 85.3438 61.4663 85.3871ZM77.7708 83.3251L78.4172 86.001H79.2406L78.9084 84.7443L79.2189 84.5674V83.6935L78.7097 83.9824L78.5328 83.3179H79.2189V82.6932L77.4242 82.6318C76.9944 82.6426 76.8283 82.7907 76.8355 83.1951V85.5604C76.8355 85.9216 76.9764 86.0552 77.3375 86.0588H77.9658V85.4377H77.7167C77.5975 85.4377 77.5903 85.3907 77.5903 85.3113V83.3179H77.7744L77.7708 83.3251ZM77.0811 82.3284H79.2153V81.8301H77.5831L77.7094 81.3317H76.9547L76.7561 81.8409C76.7164 82.1768 76.785 82.2779 77.0811 82.3284Z" fill="black" fill-opacity="0.4"/>
<path d="M87.3186 85.9357C87.3186 85.961 87.2969 85.979 87.2536 85.9971C87.2102 86.0115 87.1525 86.0188 87.0839 86.0188H86.163C86.0944 86.0188 86.0366 86.0115 85.9969 85.9971C85.9536 85.979 85.9319 85.961 85.9319 85.9357V84.9209C85.9319 84.8957 85.9536 84.874 85.9969 84.8596C86.0402 84.8451 86.098 84.8379 86.163 84.8379H87.0839C87.1525 84.8379 87.2102 84.8451 87.2536 84.8596C87.2969 84.8776 87.3186 84.8957 87.3186 84.9209V85.9357ZM87.0261 85.9285V84.9318H86.2244V85.9285H87.0261Z" fill="black" fill-opacity="0.4"/>
<path d="M88.8174 85.9357C88.8174 85.961 88.7957 85.979 88.756 85.9971C88.7163 86.0115 88.6657 86.0188 88.6007 86.0188H87.781C87.716 86.0188 87.6654 86.0115 87.6221 85.9971C87.5824 85.979 87.5643 85.961 87.5643 85.9357V84.8379H87.8316V85.9285H88.5466V84.8379H88.8174V85.9357Z" fill="black" fill-opacity="0.4"/>
<path d="M90.3166 84.9318H89.8074V86.0224H89.5149V84.9318H89.0021V84.8379H90.3129V84.9318H90.3166Z" fill="black" fill-opacity="0.4"/>
<path d="M91.7353 86.0185H90.493V84.834H90.8397V85.9246H91.7353V86.0185Z" fill="black" fill-opacity="0.4"/>
<path d="M94.682 85.9357C94.682 85.961 94.6603 85.979 94.617 85.9971C94.5736 86.0115 94.5194 86.0188 94.4508 86.0188H93.5553C93.4867 86.0188 93.4325 86.0115 93.3928 85.9971C93.3494 85.979 93.3278 85.961 93.3278 85.9357V84.9209C93.3278 84.8957 93.3494 84.874 93.3928 84.8596C93.4361 84.8451 93.4903 84.8379 93.5553 84.8379H94.4508C94.5194 84.8379 94.5736 84.8451 94.617 84.8596C94.6603 84.8776 94.682 84.8957 94.682 84.9209V85.9357ZM94.3967 85.9285V84.9318H93.613V85.9285H94.3967Z" fill="black" fill-opacity="0.4"/>
<path d="M96.2564 86.0185H95.9241L95.1405 85.4515V86.0185H94.8372V84.834H95.1405V85.3648L95.8519 84.834H96.1805V84.8412L95.4113 85.4046L96.2564 86.0185Z" fill="black" fill-opacity="0.4"/>
<path fill-rule="evenodd" clip-rule="evenodd" d="M92.3276 84.6816C92.5731 84.6816 92.7429 84.8441 92.7429 84.8441C92.7429 84.8441 93.0209 85.0283 93.0282 85.4292C93.0318 85.7506 92.8981 85.9203 92.7862 86.0142C92.6201 86.155 92.1542 86.3175 92.017 86.4042C91.7787 86.5559 91.7534 86.6317 91.7534 86.6317C91.7534 86.6317 91.7678 86.4728 91.887 86.3067C91.9737 86.1839 92.1579 86.0503 92.2373 86.0142C92.4251 85.9275 92.6959 85.765 92.6959 85.4292C92.6959 85.0933 92.472 84.9741 92.3204 84.9741C92.1687 84.9741 91.9809 85.0319 91.952 85.2342C91.9123 85.4905 92.0387 85.4617 92.0387 85.4617C92.0387 85.4617 92.0206 85.1692 92.259 85.1692C92.4973 85.1692 92.5226 85.3642 92.5226 85.4617C92.519 85.6314 92.3023 85.7867 92.3023 85.7867C92.3023 85.7867 91.6776 86.0467 91.6017 85.3967C91.5584 85.0283 91.8653 84.8441 91.8653 84.8441C91.8653 84.8441 92.082 84.6816 92.3276 84.6816Z" fill="#D7000F"/>
<path fill-rule="evenodd" clip-rule="evenodd" d="M31.4394 79.5039H29.2041C27.951 79.5039 26.9254 80.5295 26.9254 81.7826C26.9254 83.0465 27.951 84.0721 29.2041 84.0721H31.4394C31.573 84.0721 31.6705 83.9673 31.6705 83.8446V83.0501H29.4533C28.7563 83.0501 28.1893 82.4759 28.1893 81.779C28.1893 81.082 28.7563 80.515 29.4533 80.515H31.6705V79.7278C31.6705 79.605 31.573 79.5075 31.4394 79.5075V79.5039Z" fill="black"/>
<path fill-rule="evenodd" clip-rule="evenodd" d="M31.273 77.9658H28.3335C26.4087 78.0092 24.9173 79.9014 25.004 81.7829V81.8009C24.9173 83.7185 26.2571 85.5746 28.3335 85.6613H31.273C31.4933 85.6613 31.6702 85.5204 31.6702 85.3002V84.6213H28.9763C27.3151 84.7115 26.2823 83.4115 26.2823 81.9273V81.6637C26.2823 80.1795 27.3585 78.9336 28.9763 78.9589H31.6702V78.3233C31.6702 78.103 31.4933 77.9694 31.273 77.9694V77.9658Z" fill="black"/>
<path fill-rule="evenodd" clip-rule="evenodd" d="M39.7416 77.8252H46.9315C46.9315 77.8252 48.0546 77.6843 48.9105 79.8041L49.7049 81.6855L51.6297 77.8252H52.7239L49.8711 83.6934C49.8711 83.6934 49.6508 83.975 49.4124 83.6934L47.7079 80.0605C47.7079 80.0605 47.2927 78.8941 46.4982 78.8508H39.7344C39.7344 78.8508 39.4419 78.7605 39.4347 78.3199C39.4275 77.9046 39.7453 77.8252 39.7453 77.8252H39.7416Z" fill="black"/>
<path fill-rule="evenodd" clip-rule="evenodd" d="M39.6801 79.4561H42.7966V85.2809C42.7966 85.2809 42.8688 85.6962 42.1502 85.6962C42.1502 85.6962 41.576 85.7576 41.4785 85.3315V80.4383H39.6765C39.6765 80.4383 39.3948 80.3227 39.3948 79.9327C39.3587 79.5536 39.6765 79.4561 39.6765 79.4561H39.6801Z" fill="black"/>
<path fill-rule="evenodd" clip-rule="evenodd" d="M43.6087 79.4684H46.169C46.169 79.4684 46.8046 79.3167 47.3715 80.6601L49.058 84.2929C49.058 84.2929 49.5419 85.0766 50.2677 84.2929L53.3589 77.8145H54.5325L51.0333 84.831C51.0333 84.831 50.6722 85.6724 49.726 85.6796C49.726 85.6796 48.6138 85.8313 48.1985 85.1849L46.6276 81.8807C46.6276 81.8807 46.1582 80.6095 45.6743 80.4253H44.7101V85.3907C44.7101 85.3907 44.6415 85.7013 44.0926 85.7013C44.0926 85.7013 43.5184 85.7807 43.457 85.4269V79.7284C43.457 79.7284 43.4136 79.5262 43.6087 79.472V79.4684Z" fill="black"/>
<path fill-rule="evenodd" clip-rule="evenodd" d="M38.6725 79.5039H36.4371C35.184 79.5039 34.1512 80.5295 34.1512 81.7826C34.1512 83.0465 35.184 84.0721 36.4371 84.0721H38.6725C38.7952 84.0721 38.9036 83.9673 38.9036 83.8446V83.0501H36.6863C35.9893 83.0501 35.4152 82.4759 35.4152 81.779C35.4152 81.082 35.9893 80.515 36.6863 80.515H38.9036V79.7278C38.9036 79.605 38.7989 79.5075 38.6725 79.5075V79.5039Z" fill="#D7000F"/>
<path fill-rule="evenodd" clip-rule="evenodd" d="M38.4959 77.9658H35.5636C33.6388 78.0092 32.1366 79.9014 32.2268 81.7829V81.8009C32.1402 83.7185 33.4908 85.5746 35.5636 85.6613H38.4959C38.7162 85.6613 38.9039 85.5204 38.9039 85.3002V84.6213H36.21C34.5488 84.7115 33.5088 83.4115 33.5088 81.9273V81.6637C33.5088 80.1795 34.5958 78.9336 36.21 78.9589H38.9039V78.3233C38.9039 78.103 38.7198 77.9694 38.4959 77.9694V77.9658Z" fill="#D7000F"/>
<path opacity="0.4" fill-rule="evenodd" clip-rule="evenodd" d="M56.082 77.7412H56.4648V86.1084H56.082V77.7412Z" fill="black"/>
<defs>
<linearGradient id="paint0_linear_2890_194091" x1="50.7916" y1="39.4078" x2="61.3363" y2="39.4078" gradientUnits="userSpaceOnUse">
<stop stop-color="#DC0000"/>
<stop offset="1" stop-color="#DC0000" stop-opacity="0"/>
</linearGradient>
</defs>
</svg>
