<svg width="150" height="100" viewBox="0 0 150 100" fill="none" xmlns="http://www.w3.org/2000/svg">
<g clip-path="url(#clip0_2760_91980)">
<path d="M150 0H0V100H150V0Z" fill="#E6E6E6"/>
<path d="M117.279 34.8V46.475H57.4849V34.8H117.279ZM117.654 34.4277H57.1127V46.85H117.654V34.4277Z" fill="#DC0000"/>
<path d="M117.654 34.4277H86.0376V46.85H117.654V34.4277Z" fill="#DC0000"/>
<path d="M117.654 46.85H86.0376L117.654 34.4277V46.85Z" fill="#BA0000"/>
<path d="M89.4321 45.3583L89.8182 38.3528H90.771L90.3849 45.3583H89.4321ZM93.7071 37.4528H92.3682V40.2861L93.4766 41.3166V42.525L92.3682 41.5472V45.9889H91.3377V37.4528H89.6127V36.5778H91.3377V35.3416H92.3682V36.5778H93.7071V37.4528ZM94.3016 38.6361H97.1849V35.3389H98.2155V38.6361H100.765V45.9889H94.3016V45.125H99.7599V42.6528H94.7127V41.7778H99.7599V39.5111H94.3016V38.6361ZM96.4127 38.0944H95.4071L94.4794 35.6472H95.4821L96.4099 38.0944H96.4127ZM99.9405 38.0944H98.9627L99.8905 35.6472H100.868L99.9405 38.0944Z" fill="white"/>
<path d="M114.257 43.9141H108.952V45.9891H107.921V43.9141H102.668V43.0918H107.921V42.3446H108.952V43.0918H114.257V43.9141ZM108.902 35.2891L109.107 35.8557H114.207V37.503H113.254V36.6807H103.727V37.503H102.749V35.8557H107.949L107.768 35.2891H108.902ZM104.499 38.1474L104.86 37.453H105.89L105.554 38.1474H114.207V38.9696H113.202V40.3613L110.088 40.928L114.052 41.5196V42.2918L108.463 41.3641L102.927 42.4196V41.5696L106.713 40.9502L103.39 40.3585L104.19 38.9668H102.749V38.1446H104.499V38.1474ZM104.988 44.3029H106.171L104.343 45.9891H103.157L104.988 44.3029ZM108.463 40.4918L112.196 39.7974V38.9724H105.243L104.779 39.8224L108.463 40.4918ZM112.532 45.9891L110.652 44.3029H111.863L113.718 45.9891H112.535H112.532Z" fill="white"/>
<path d="M58.6154 34.4277H57.1127V46.85H58.6154V34.4277Z" fill="#DC0000"/>
<path d="M61.3626 45.4248C61.3626 45.7026 61.5876 45.9276 61.8654 45.9276H62.371C62.6488 45.9276 62.8738 45.7026 62.8738 45.4248V38.0137H61.3599V45.4248H61.3626Z" fill="black"/>
<path d="M61.8656 35.2998C61.5878 35.2998 61.3628 35.5248 61.3628 35.8054V37.5081H62.8767V35.2998H61.8683H61.8656Z" fill="#DC0000"/>
<path d="M73.7793 45.4248C73.7793 45.7026 74.0043 45.9276 74.2849 45.9276H74.7876C75.0654 45.9276 75.2932 45.7026 75.2932 45.4248V38.0137H73.7793V45.4248Z" fill="black"/>
<path d="M64.1182 36.9385H64.621C64.8988 36.9385 65.1266 37.1635 65.1266 37.444V45.4135C65.1266 45.6913 64.9016 45.919 64.621 45.919H64.1155C63.8377 45.919 63.6127 45.694 63.6127 45.4163V37.4468C63.6127 37.169 63.8377 36.9413 64.1182 36.9413V36.9385Z" fill="black"/>
<path d="M71.0349 37.3635C71.0349 37.5996 70.8433 37.7885 70.6099 37.7885H64.0405C63.8044 37.7885 63.6155 37.5968 63.6155 37.3635C63.6155 37.1301 63.8044 36.9385 64.0405 36.9385H70.6099C70.846 36.9385 71.0349 37.1301 71.0349 37.3635Z" fill="black"/>
<path d="M71.0348 40.4055C71.0348 40.6416 70.8431 40.8332 70.6098 40.8332H68.7292C68.4931 40.8332 68.3042 40.6416 68.3042 40.4055C68.3042 40.1694 68.4959 39.9805 68.7292 39.9805H70.6098C70.8459 39.9805 71.0348 40.1721 71.0348 40.4055Z" fill="black"/>
<path d="M64.5183 45.4924C64.5183 45.7285 64.3266 45.9174 64.0933 45.9174H62.2127C61.9766 45.9174 61.7877 45.7257 61.7877 45.4924C61.7877 45.2563 61.9794 45.0674 62.2127 45.0674H64.0933C64.3266 45.0674 64.5183 45.259 64.5183 45.4924Z" fill="black"/>
<path d="M67.1488 39.0995H64.671V39.9522H65.6349C65.9155 39.9522 66.1405 40.1772 66.1405 40.455V45.4106C66.1405 45.6883 66.3655 45.9161 66.6432 45.9161H67.1488C67.4266 45.9161 67.6544 45.6911 67.6544 45.4106V39.6022C67.6544 39.3245 67.4294 39.0967 67.1488 39.0967V39.0995Z" fill="black"/>
<path d="M69.571 45.3774C69.646 45.6552 69.9321 45.8802 70.2099 45.8802H70.7126C70.9904 45.8802 71.1571 45.6552 71.0821 45.3774L68.5182 35.8024C68.4432 35.5247 68.1571 35.2969 67.8793 35.2969H67.3738C67.096 35.2969 66.9293 35.5219 67.0043 35.8024L69.571 45.3774Z" fill="black"/>
<path d="M69.5043 37.283C69.5793 37.5608 69.8654 37.7885 70.1432 37.7885H70.6459C70.9237 37.7885 71.0904 37.5635 71.0154 37.283L70.6182 35.8024C70.5432 35.5247 70.2571 35.2969 69.9793 35.2969H69.4737C69.1959 35.2969 69.0293 35.5219 69.1043 35.8024L69.5015 37.283H69.5043Z" fill="black"/>
<path d="M82.9683 36.5729C82.9683 36.7757 82.8044 36.9395 82.6044 36.9395H76.6405C76.4405 36.9395 76.2766 36.7757 76.2766 36.5729C76.2766 36.3729 76.4405 36.209 76.6405 36.209H82.6044C82.8072 36.209 82.9683 36.3729 82.9683 36.5729Z" fill="black"/>
<path d="M82.2933 38.5084C82.2933 38.7084 82.1294 38.8723 81.9294 38.8723H77.3099C77.1099 38.8723 76.946 38.7084 76.946 38.5084C76.946 38.3056 77.1099 38.1445 77.3099 38.1445H81.9294C82.1322 38.1445 82.2933 38.3084 82.2933 38.5084Z" fill="black"/>
<path d="M82.2933 40.3776C82.2933 40.5803 82.1294 40.7414 81.9294 40.7414H77.3099C77.1099 40.7414 76.946 40.5776 76.946 40.3776C76.946 40.1776 77.1099 40.0137 77.3099 40.0137H81.9294C82.1322 40.0137 82.2933 40.1776 82.2933 40.3776Z" fill="black"/>
<path d="M80.2933 35.8054C80.2183 35.5276 79.9322 35.2998 79.6544 35.2998H79.1488C78.8683 35.2998 78.7044 35.5248 78.7794 35.8054L78.9488 36.4331C79.0238 36.7109 79.31 36.9387 79.5877 36.9387H80.0905C80.3683 36.9387 80.535 36.7137 80.46 36.4331L80.2905 35.8054H80.2933Z" fill="black"/>
<path d="M74.2848 35.2559H72.9015C72.6987 35.2559 72.5376 35.4197 72.5376 35.6197V35.9836H73.7793V37.4642H75.2931V35.2559H74.2848Z" fill="#DC0000"/>
<path d="M76.9434 41.5117C76.7017 41.5117 76.5045 41.7034 76.4934 41.9451V45.8617H80.499C81.7406 45.8617 82.749 44.8534 82.749 43.6117V41.5117H76.9434ZM81.9545 43.6117C81.9545 44.0006 81.8045 44.3673 81.5295 44.6423C81.2545 44.9173 80.8878 45.0673 80.499 45.0673H78.0073V42.3062H81.9545V43.6117Z" fill="black"/>
<path d="M36.4322 47.3334L35.071 47.7279V41.4862L36.4933 41.1807L36.4322 47.3334Z" fill="#C80000"/>
<path d="M34.3182 47.3089L35.096 47.7283V41.4866L34.3182 41.2422V47.3089Z" fill="#8C0000"/>
<path d="M41.9238 50.1695L40.2932 50.6445V44.0112L41.9988 43.6445L41.9238 50.1695Z" fill="#DC0000"/>
<path d="M39.3905 50.0975L40.3238 50.6447V44.0114L39.3905 43.7197V50.0975Z" fill="#8C0000"/>
<path d="M52.0738 47.5946L50.6821 47.9418V42.314L52.1349 42.0029L52.0738 47.5946Z" fill="#DC0000"/>
<path d="M49.9099 47.6581L50.7071 47.9414V42.3136L49.9099 42.0664V47.6581Z" fill="#8C0000"/>
<path d="M45.2209 45.4861L44.0903 45.7334V41.1639L45.2709 40.9111L45.2209 45.4861Z" fill="#C80000"/>
<path d="M43.4653 45.5387L44.1126 45.7332V41.1637L43.4653 40.9609V45.5387Z" fill="#8C0000"/>
<path d="M37.396 30.1698L35.6182 30.0531L34.7043 30.042L36.4932 30.1698H37.396Z" fill="#666666"/>
<path d="M52.6848 41.9643L40.0848 44.3393V37.1087L53.2682 35.6865L52.6848 41.9643Z" fill="#DC0000"/>
<path d="M33.6793 41.4331L40.0849 44.3387V37.1081L33.146 35.4248L33.6793 41.4331Z" fill="#8C0000"/>
<path d="M52.5988 35.0195L39.9404 36.314V36.9445L52.5377 35.5834L52.5988 35.0195Z" fill="#DC0000"/>
<path d="M33.3933 35.3419L39.9405 36.9447V36.3141L33.3794 34.8086L33.3933 35.3419Z" fill="#8C0000"/>
<path d="M53.6682 34.6645L39.4293 36.1589V35.5395L53.7071 34.1895L53.6682 34.6645Z" fill="#DC0000"/>
<path d="M32.3431 34.309L39.4292 36.159V35.5396L32.3431 33.8701V34.309Z" fill="#8C0000"/>
<path d="M45.2154 32.7801L32.3431 33.869L39.4265 35.5357L53.7042 34.2023L45.2154 32.7773V32.7801ZM34.1709 33.8773L45.1431 32.9635L51.6793 34.0412L39.757 35.1551L34.1709 33.8773Z" fill="url(#paint0_linear_2760_91980)"/>
<path d="M35.2988 31.2475L35.8266 31.2948L35.9655 34.5198L36.6766 34.6975L36.4932 30.1698L34.7043 30.042L34.8682 34.242L35.4266 34.3837L35.2988 31.2475Z" fill="#8C0000"/>
<path d="M36.4934 30.1699H37.3962L37.4712 34.6671L36.6767 34.6977" fill="#DC0000"/>
<path d="M48.0376 33.4415L48.2237 30.4442L48.771 30.4664L48.5932 33.5331L49.5293 33.6859L49.721 29.622L47.5682 29.5137L47.2793 33.3165L48.0376 33.4415Z" fill="#8C0000"/>
<path d="M50.0683 33.6036L50.3239 29.623H49.7211L49.5294 33.6869L50.0683 33.6036Z" fill="#DC0000"/>
<path d="M64.0989 49.7284V50.2145C63.9239 50.3062 63.7433 50.3756 63.56 50.4256C63.3767 50.4728 63.1961 50.4978 63.0155 50.4978C62.835 50.4978 62.6794 50.4756 62.5239 50.4312C62.3683 50.3867 62.2183 50.3201 62.0794 50.2312C61.8544 50.0839 61.6822 49.8978 61.5572 49.6701C61.4322 49.4423 61.3711 49.1951 61.3711 48.9284C61.3711 48.7256 61.4128 48.5312 61.4933 48.3395C61.5766 48.1506 61.6905 47.9839 61.8433 47.8423C62.0044 47.6895 62.185 47.5756 62.3822 47.5006C62.5822 47.4256 62.8016 47.3867 63.0461 47.3867C63.2155 47.3867 63.3822 47.4062 63.5489 47.4451C63.7155 47.4839 63.8905 47.5451 64.0711 47.6284V48.0951C63.8794 47.9923 63.7016 47.9145 63.5322 47.8645C63.3628 47.8145 63.2017 47.7895 63.0433 47.7895C62.6933 47.7895 62.4017 47.8978 62.1711 48.1173C61.9405 48.3367 61.8266 48.6089 61.8266 48.9395C61.8266 49.2701 61.9405 49.5367 62.1655 49.7562C62.3905 49.9756 62.6739 50.0839 63.0155 50.0839C63.1905 50.0839 63.3683 50.0534 63.5461 49.9951C63.7266 49.9367 63.9072 49.8451 64.0933 49.7256L64.0989 49.7284Z" fill="black"/>
<path d="M65.1211 50.4419V47.4336H65.5461V48.728H67.2822V47.4336H67.71V50.4419H67.2822V49.1336H65.5461V50.4419H65.1211Z" fill="black"/>
<path d="M68.8849 50.4419V47.4336H70.6932V47.8169H69.3099V48.728H70.6543V49.1169H69.3099V50.0558H70.7376V50.4419H68.8821H68.8849Z" fill="black"/>
<path d="M71.8099 50.4419V47.4336H72.1849L74.1655 49.7697V47.4336H74.5933V50.4419H74.2099L72.2349 48.103V50.4419H71.8099Z" fill="black"/>
<path d="M78.3265 48.9665V50.2415C78.1293 50.3276 77.9404 50.3915 77.7654 50.4331C77.5876 50.4748 77.4182 50.497 77.2571 50.497C77.0765 50.497 76.9071 50.4748 76.746 50.4303C76.5876 50.3859 76.4404 50.3192 76.3071 50.2331C76.0821 50.0859 75.9099 49.8998 75.7849 49.672C75.6599 49.4442 75.5988 49.197 75.5988 48.9276C75.5988 48.7248 75.6404 48.5303 75.721 48.3387C75.8015 48.1498 75.9182 47.9831 76.0682 47.8415C76.2265 47.6887 76.4071 47.5748 76.6071 47.4998C76.8071 47.4248 77.0293 47.3887 77.2765 47.3887C77.4432 47.3887 77.6126 47.4081 77.7821 47.4498C77.9515 47.4887 78.1238 47.5498 78.2988 47.6303V48.097C78.1071 47.9942 77.9293 47.9164 77.7599 47.8664C77.5932 47.8164 77.4293 47.7915 77.271 47.7915C76.9182 47.7915 76.6293 47.8998 76.3988 48.1192C76.1682 48.3387 76.0543 48.6109 76.0543 48.9415C76.0543 49.272 76.1682 49.5387 76.3932 49.7581C76.621 49.9776 76.9043 50.0859 77.2488 50.0859C77.3515 50.0859 77.4543 50.0748 77.5599 50.0526C77.6626 50.0303 77.771 49.997 77.8793 49.9498V49.3665H77.3126V48.9665H78.321H78.3265Z" fill="black"/>
<path d="M80.6849 50.4419L82.0682 48.8475L80.8738 47.4336H81.4044L82.3349 48.5336L83.2821 47.4336H83.8155L82.5988 48.8475L83.9294 50.4419H83.4044L82.3238 49.1558L81.2099 50.4419H80.6821H80.6849Z" fill="black"/>
<path d="M84.7543 50.4419V47.4336H85.1848V50.4419H84.7543Z" fill="black"/>
<path d="M86.3738 50.4419V47.4336H86.7488L88.7293 49.7697V47.4336H89.1571V50.4419H88.7738L86.7988 48.103V50.4419H86.3738Z" fill="black"/>
<path d="M93.0739 47.4334C93.2961 47.4334 93.4878 47.4529 93.6461 47.4946C93.8072 47.5362 93.9517 47.6029 94.085 47.6918C94.2878 47.8307 94.4461 48.0057 94.5572 48.2223C94.6684 48.439 94.7239 48.6751 94.7239 48.9362C94.7239 49.1973 94.6684 49.4334 94.5572 49.6501C94.4461 49.8668 94.2878 50.0446 94.085 50.1807C93.9545 50.2696 93.8072 50.3362 93.6461 50.3779C93.485 50.4196 93.2934 50.439 93.0711 50.439H91.9656V47.4307H93.0711L93.0739 47.4334ZM93.0739 47.8446H92.3934V50.0334H93.0739C93.4461 50.0334 93.7378 49.9362 93.9489 49.7418C94.16 49.5473 94.2656 49.2807 94.2656 48.9418C94.2656 48.6029 94.16 48.3334 93.9489 48.139C93.7378 47.9418 93.4461 47.8446 93.0739 47.8446Z" fill="black"/>
<path d="M95.2655 50.4419L96.5682 47.4336H96.8821L98.2016 50.4419H97.7571L97.371 49.5558H96.0877L95.7044 50.4419H95.2627H95.2655ZM96.2571 49.1697H97.196L96.721 48.0864L96.2571 49.1697Z" fill="black"/>
<path d="M98.9572 50.4419V47.4336H99.3322L101.313 49.7697V47.4336H101.74V50.4419H101.357L99.3822 48.103V50.4419H98.9572Z" fill="black"/>
<path d="M105.477 48.9665V50.2415C105.279 50.3276 105.09 50.3915 104.913 50.4331C104.735 50.4748 104.565 50.497 104.407 50.497C104.227 50.497 104.057 50.4748 103.896 50.4303C103.738 50.3859 103.59 50.3192 103.457 50.2331C103.235 50.0859 103.06 49.8998 102.935 49.672C102.81 49.4442 102.749 49.197 102.749 48.9276C102.749 48.7248 102.79 48.5303 102.871 48.3387C102.952 48.1498 103.068 47.9831 103.218 47.8415C103.377 47.6887 103.557 47.5748 103.757 47.4998C103.957 47.4248 104.179 47.3887 104.427 47.3887C104.593 47.3887 104.763 47.4081 104.932 47.4498C105.102 47.4887 105.274 47.5498 105.449 47.6303V48.097C105.257 47.9942 105.079 47.9164 104.91 47.8664C104.743 47.8164 104.579 47.7915 104.421 47.7915C104.071 47.7915 103.779 47.8998 103.549 48.1192C103.318 48.3387 103.204 48.6109 103.204 48.9415C103.204 49.272 103.318 49.5387 103.543 49.7581C103.771 49.9776 104.054 50.0859 104.399 50.0859C104.502 50.0859 104.604 50.0748 104.707 50.0526C104.81 50.0303 104.918 49.997 105.027 49.9498V49.3665H104.46V48.9665H105.468H105.477Z" fill="black"/>
<path d="M107.782 50.4419L109.085 47.4336H109.399L110.721 50.4419H110.277L109.891 49.5558H108.607L108.224 50.4419H107.782ZM108.774 49.1697H109.713L109.238 48.0864L108.777 49.1697H108.774Z" fill="black"/>
<path d="M111.474 50.4419V47.4336H111.849L113.829 49.7697V47.4336H114.257V50.4419H113.874L111.899 48.103V50.4419H111.474Z" fill="black"/>
<path d="M124.782 63.1475V69.8919H90.2432V63.1475H124.782ZM124.999 62.9336H90.0293V70.1086H124.999V62.9336Z" fill="#DC0000"/>
<path d="M124.999 62.9336H106.735V70.1086H124.999V62.9336Z" fill="#DC0000"/>
<path d="M124.999 70.1086H106.735L124.999 62.9336V70.1086Z" fill="#BA0000"/>
<path d="M108.699 69.247L108.921 65.1998H109.471L109.249 69.247H108.699ZM111.168 64.6804H110.393V66.3165L111.032 66.9109V67.6109L110.393 67.047V69.6137H109.799V64.6832H108.802V64.1776H109.799V63.4637H110.393V64.1776H111.168V64.6832V64.6804ZM111.51 65.3637H113.177V63.4609H113.771V65.3637H115.243V69.6109H111.51V69.1137H114.663V67.6859H111.746V67.1804H114.663V65.8721H111.51V65.3665V65.3637ZM112.729 65.0498H112.149L111.613 63.6359H112.193L112.729 65.0498ZM114.768 65.0498H114.202L114.738 63.6359H115.304L114.768 65.0498Z" fill="white"/>
<path d="M123.038 68.414H119.974V69.6112H119.379V68.414H116.346V67.939H119.379V67.5084H119.974V67.939H123.038V68.414ZM119.943 63.4307L120.063 63.7584H123.007V64.7112H122.457V64.2362H116.954V64.7112H116.388V63.7584H119.393L119.291 63.4307H119.946H119.943ZM117.399 65.0807L117.607 64.6779H118.202L118.007 65.0807H123.004V65.5557H122.424V66.3584L120.624 66.6862L122.913 67.0279V67.4751L119.685 66.939L116.488 67.5501V67.0584L118.674 66.7001L116.754 66.3584L117.216 65.5557H116.382V65.0807H117.393H117.399ZM117.682 68.6362H118.366L117.31 69.6112H116.627L117.682 68.6362ZM119.691 66.4334L121.849 66.0307V65.5557H117.832L117.566 66.0473L119.693 66.4334H119.691ZM122.041 69.6112L120.954 68.6362H121.654L122.727 69.6112H122.043H122.041Z" fill="white"/>
<path d="M90.8987 62.9336H90.0293V70.1086H90.8987V62.9336Z" fill="#DC0000"/>
<path d="M92.485 69.2835C92.485 69.4446 92.6155 69.5752 92.7766 69.5752H93.0683C93.2294 69.5752 93.36 69.4446 93.36 69.2835V65.0029H92.4878V69.2835H92.485Z" fill="black"/>
<path d="M92.7738 63.4365C92.6127 63.4365 92.4822 63.5671 92.4822 63.7282V64.7115H93.3544V63.4365H92.7711H92.7738Z" fill="#DC0000"/>
<path d="M99.6572 69.2835C99.6572 69.4446 99.7878 69.5752 99.9489 69.5752H100.241C100.402 69.5752 100.532 69.4446 100.532 69.2835V65.0029H99.6572V69.2835Z" fill="black"/>
<path d="M94.0767 64.3838H94.3684C94.5295 64.3838 94.66 64.5143 94.66 64.6755V69.2782C94.66 69.4393 94.5295 69.5699 94.3684 69.5699H94.0767C93.9156 69.5699 93.785 69.4393 93.785 69.2782V64.6755C93.785 64.5143 93.9156 64.3838 94.0767 64.3838Z" fill="black"/>
<path d="M98.0711 64.6282C98.0711 64.7643 97.96 64.8755 97.8239 64.8755H94.0295C93.8933 64.8755 93.7822 64.7643 93.7822 64.6282C93.7822 64.4921 93.8933 64.3838 94.0295 64.3838H97.8239C97.96 64.3838 98.0711 64.4949 98.0711 64.6282Z" fill="black"/>
<path d="M98.071 66.3859C98.071 66.522 97.9599 66.6331 97.8238 66.6331H96.7377C96.6016 66.6331 96.4905 66.522 96.4905 66.3859C96.4905 66.2498 96.6016 66.1387 96.7377 66.1387H97.8238C97.9599 66.1387 98.071 66.2498 98.071 66.3859Z" fill="black"/>
<path d="M94.3072 69.3224C94.3072 69.4585 94.1961 69.5696 94.06 69.5696H92.9739C92.8378 69.5696 92.7267 69.4585 92.7267 69.3224C92.7267 69.1863 92.8378 69.0752 92.9739 69.0752H94.06C94.1961 69.0752 94.3072 69.1863 94.3072 69.3224Z" fill="black"/>
<path d="M95.8266 65.6307H94.396V66.1224H94.9516C95.1127 66.1224 95.2432 66.2529 95.2432 66.414V69.2752C95.2432 69.4363 95.3738 69.5668 95.5349 69.5668H95.8266C95.9877 69.5668 96.1182 69.4363 96.1182 69.2752V65.9196C96.1182 65.7585 95.9877 65.6279 95.8266 65.6279V65.6307Z" fill="black"/>
<path d="M97.2265 69.2587C97.2681 69.4199 97.4348 69.5504 97.5959 69.5504H97.8876C98.0487 69.5504 98.1431 69.4199 98.1015 69.2587L96.6209 63.7282C96.5792 63.5671 96.4126 63.4365 96.2515 63.4365H95.9598C95.7987 63.4365 95.7042 63.5671 95.7459 63.7282L97.2265 69.2587Z" fill="black"/>
<path d="M97.1849 64.5837C97.2293 64.7449 97.3932 64.8754 97.5543 64.8754H97.846C98.0071 64.8754 98.1015 64.7449 98.0599 64.5837L97.8321 63.7282C97.7877 63.5671 97.6238 63.4365 97.4627 63.4365H97.171C97.0099 63.4365 96.9154 63.5671 96.9571 63.7282L97.1849 64.5837Z" fill="black"/>
<path d="M104.963 64.172C104.963 64.2887 104.868 64.3832 104.751 64.3832H101.307C101.19 64.3832 101.096 64.2887 101.096 64.172C101.096 64.0554 101.19 63.9609 101.307 63.9609H104.751C104.868 63.9609 104.963 64.0554 104.963 64.172Z" fill="black"/>
<path d="M104.574 65.2892C104.574 65.4059 104.479 65.5003 104.363 65.5003H101.696C101.579 65.5003 101.485 65.4059 101.485 65.2892C101.485 65.1726 101.579 65.0781 101.696 65.0781H104.363C104.479 65.0781 104.574 65.1726 104.574 65.2892Z" fill="black"/>
<path d="M104.574 66.3693C104.574 66.486 104.479 66.5804 104.363 66.5804H101.696C101.579 66.5804 101.485 66.486 101.485 66.3693C101.485 66.2526 101.579 66.1582 101.696 66.1582H104.363C104.479 66.1582 104.574 66.2526 104.574 66.3693Z" fill="black"/>
<path d="M103.418 63.7282C103.377 63.5671 103.21 63.4365 103.049 63.4365H102.757C102.596 63.4365 102.502 63.5671 102.543 63.7282L102.641 64.0921C102.682 64.2532 102.849 64.3837 103.01 64.3837H103.302C103.463 64.3837 103.557 64.2532 103.516 64.0921L103.418 63.7282Z" fill="black"/>
<path d="M99.9488 63.4111H99.1515C99.0349 63.4111 98.9404 63.5056 98.9404 63.6222V63.8334H99.6571V64.6889H100.532V63.4139H99.9488V63.4111Z" fill="#DC0000"/>
<path d="M101.485 67.0252C101.346 67.0252 101.232 67.1364 101.227 67.2752V69.5364H103.54C104.257 69.5364 104.84 68.9558 104.84 68.2363V67.0225H101.488L101.485 67.0252ZM104.379 68.2363C104.379 68.4613 104.29 68.6725 104.132 68.8308C103.974 68.9891 103.763 69.078 103.538 69.078H102.099V67.4836H104.379V68.2363Z" fill="black"/>
<path fill-rule="evenodd" clip-rule="evenodd" d="M59.2044 65.8196C59.2044 65.8196 62.9544 62.5557 70.4128 62.5557C77.8711 62.5557 81.7322 65.9279 81.7322 65.9279C81.7322 65.9279 78.6794 64.8973 76.0739 64.4057C74.1961 64.0529 72.5211 64.0807 72.5211 64.0807C72.5211 64.0807 73.9267 64.6973 73.9628 66.039C73.9933 67.1084 73.3072 67.6807 72.7433 67.9973C71.9072 68.4668 69.5544 69.014 68.8572 69.3029C67.66 69.8057 67.5239 70.064 67.5239 70.064C67.5239 70.064 67.5933 69.5279 68.1905 68.9751C68.635 68.564 69.5628 68.1196 69.9655 67.9946C70.9072 67.7029 72.2961 67.1584 72.2961 66.0362C72.2961 64.914 71.16 64.514 70.3933 64.514C69.6267 64.514 68.6794 64.7084 68.5239 65.3834C68.3267 66.2362 68.9683 66.1446 68.9683 66.1446C68.9683 66.1446 68.885 65.1668 70.0794 65.1668C71.2739 65.1668 71.4211 65.8196 71.41 66.1446C71.3933 66.7057 70.2989 67.2334 70.2989 67.2334C70.2989 67.2334 67.1461 68.0946 66.7489 65.9279C66.5211 64.6918 68.0794 64.0779 68.0794 64.0779C68.0794 64.0779 66.2683 64.1029 64.3072 64.5112C61.8794 65.0168 59.2017 65.8168 59.2017 65.8168L59.2044 65.8196Z" fill="#D7000F"/>
<path fill-rule="evenodd" clip-rule="evenodd" d="M57.2404 66.8896H58.0127C58.2043 66.8896 58.3015 66.9812 58.3015 67.1785V68.8062H58.7849V66.8896C58.7849 66.5201 58.5904 66.4146 58.2488 66.4146H57.2515C56.9071 66.409 56.7571 66.5451 56.7571 66.8896V68.8062H57.2404V66.8896ZM64.0071 66.4146H63.3654L63.5599 66.6979H63.1321V67.1757H63.3238L63.1682 69.4757H60.4265L62.6432 67.3313C62.7543 67.0396 62.7182 66.8368 62.4543 66.7924H61.296L61.0071 66.409H60.3321L60.621 66.7924H59.2682V67.3674L61.6515 67.3729L59.4099 69.4368C59.3904 69.484 59.3765 69.5285 59.3654 69.5701H58.4988C58.4321 69.5701 58.4015 69.5368 58.4015 69.4729V68.9951H58.1127V67.2701H57.4377V68.7062C57.2904 69.1312 57.1071 69.3507 56.7627 69.4729H56.2793V68.5146H56.471V67.9396H56.2793V66.9562L56.5682 66.9812V66.4062H55.3127V66.9812H55.5071C55.6627 66.9812 55.6988 67.0757 55.6988 67.2701V67.9424H55.4099V68.5174H55.5071C55.646 68.5174 55.6988 68.6063 55.6988 68.8035V69.4757H54.7321L54.346 69.0924L54.671 68.4035C54.7543 68.0951 54.6515 67.8451 54.346 67.7507H52.6071L52.7043 67.4618H54.7321V67.4424C54.8432 67.4035 54.9265 67.3007 54.9265 67.1757V66.409H54.2515V66.9868H52.7738L52.996 66.409H52.321L52.1127 66.9896H51.7849L51.9349 66.5063H51.2599L51.121 67.0063C51.1071 67.334 51.2154 67.4646 51.4515 67.4646H51.9349L51.0654 70.0535H51.8377L52.4182 68.3285H53.9627L53.7293 68.8174L53.5238 68.6562C53.1154 68.4618 52.7543 68.4979 52.4377 68.7618C52.2182 68.9868 52.1765 69.284 52.3099 69.6507C52.446 69.8618 52.6182 69.984 52.821 70.0201C53.0265 70.0562 53.2488 70.0396 53.4877 69.9729L53.9599 69.6646L54.7321 70.0479H57.0515C57.4321 69.8785 57.6988 69.6674 57.8238 69.3757V69.6618C57.8238 69.9063 57.8654 70.0451 58.1127 70.0451H63.7127L63.8099 68.1285H64.0043C64.1127 68.1285 64.1043 68.2285 64.1043 68.4118V70.0451L64.2988 70.0313C64.546 70.0313 64.6738 69.9118 64.6765 69.6701V68.0535C64.6821 67.7785 64.546 67.6396 64.2682 67.6396L63.8127 67.6479V67.1701H64.6821V66.6896H64.2071L64.0127 66.4062L64.0071 66.4146ZM53.0515 69.5285C52.9682 69.5285 52.8988 69.5063 52.8432 69.4618C52.7877 69.4174 52.7571 69.3646 52.7571 69.2979C52.7571 69.2313 52.7849 69.1785 52.8432 69.134C52.8988 69.0924 52.9682 69.0701 53.0515 69.0701C53.1988 69.0951 53.3682 69.1563 53.4738 69.284C53.3682 69.4007 53.1988 69.4951 53.0515 69.5285ZM65.5932 67.9424L66.0904 70.0007H66.7238L66.4682 69.034L66.7071 68.8979V68.2257L66.3154 68.4479L66.1793 67.9368H66.7071V67.4562L65.3265 67.409C64.996 67.4174 64.8682 67.5312 64.8738 67.8424V69.6618C64.8738 69.9396 64.9821 70.0424 65.2599 70.0451H65.7432V69.5674H65.5515C65.4599 69.5674 65.4543 69.5312 65.4543 69.4701V67.9368H65.596L65.5932 67.9424ZM65.0627 67.1757H66.7043V66.7924H65.4488L65.546 66.409H64.9654L64.8127 66.8007C64.7821 67.059 64.8349 67.1368 65.0627 67.1757Z" fill="black" fill-opacity="0.4"/>
<path d="M72.9376 69.9499C72.9376 69.9694 72.921 69.9832 72.8876 69.9971C72.8543 70.0082 72.8099 70.0138 72.7571 70.0138H72.0488C71.996 70.0138 71.9515 70.0082 71.921 69.9971C71.8876 69.9832 71.871 69.9694 71.871 69.9499V69.1694C71.871 69.1499 71.8876 69.1332 71.921 69.1221C71.9543 69.111 71.9988 69.1055 72.0488 69.1055H72.7571C72.8099 69.1055 72.8543 69.111 72.8876 69.1221C72.921 69.136 72.9376 69.1499 72.9376 69.1694V69.9499ZM72.7126 69.9444V69.1777H72.096V69.9444H72.7126Z" fill="black" fill-opacity="0.4"/>
<path d="M74.0906 69.9499C74.0906 69.9694 74.0739 69.9832 74.0434 69.9971C74.0128 70.0082 73.9739 70.0138 73.9239 70.0138H73.2934C73.2434 70.0138 73.2045 70.0082 73.1712 69.9971C73.1406 69.9832 73.1267 69.9694 73.1267 69.9499V69.1055H73.3323V69.9444H73.8823V69.1055H74.0906V69.9499Z" fill="black" fill-opacity="0.4"/>
<path d="M75.2433 69.1777H74.8516V70.0166H74.6266V69.1777H74.2322V69.1055H75.2405V69.1777H75.2433Z" fill="black" fill-opacity="0.4"/>
<path d="M76.3348 70.0137H75.3793V69.1025H75.6459V69.9414H76.3348V70.0137Z" fill="black" fill-opacity="0.4"/>
<path d="M78.6015 69.9499C78.6015 69.9694 78.5848 69.9832 78.5515 69.9971C78.5181 70.0082 78.4765 70.0138 78.4237 70.0138H77.7348C77.682 70.0138 77.6404 70.0082 77.6098 69.9971C77.5765 69.9832 77.5598 69.9694 77.5598 69.9499V69.1694C77.5598 69.1499 77.5765 69.1332 77.6098 69.1221C77.6431 69.111 77.6848 69.1055 77.7348 69.1055H78.4237C78.4765 69.1055 78.5181 69.111 78.5515 69.1221C78.5848 69.136 78.6015 69.1499 78.6015 69.1694V69.9499ZM78.382 69.9444V69.1777H77.7793V69.9444H78.382Z" fill="black" fill-opacity="0.4"/>
<path d="M79.8126 70.0137H79.5571L78.9543 69.5775V70.0137H78.7209V69.1025H78.9543V69.5109L79.5015 69.1025H79.7543V69.1081L79.1626 69.5414L79.8126 70.0137Z" fill="black" fill-opacity="0.4"/>
<path fill-rule="evenodd" clip-rule="evenodd" d="M76.7904 68.9863C76.9793 68.9863 77.1099 69.1113 77.1099 69.1113C77.1099 69.1113 77.3238 69.253 77.3293 69.5613C77.3321 69.8086 77.2293 69.9391 77.1432 70.0113C77.0154 70.1197 76.6571 70.2447 76.5515 70.3113C76.3682 70.428 76.3488 70.4863 76.3488 70.4863C76.3488 70.4863 76.3599 70.3641 76.4516 70.2363C76.5182 70.1419 76.6599 70.0391 76.721 70.0113C76.8654 69.9447 77.0738 69.8197 77.0738 69.5613C77.0738 69.303 76.9015 69.2113 76.7849 69.2113C76.6682 69.2113 76.5238 69.2558 76.5016 69.4113C76.471 69.6085 76.5682 69.5863 76.5682 69.5863C76.5682 69.5863 76.5543 69.3613 76.7377 69.3613C76.921 69.3613 76.9404 69.5113 76.9404 69.5863C76.9377 69.7169 76.771 69.8363 76.771 69.8363C76.771 69.8363 76.2904 70.0363 76.2321 69.5363C76.1988 69.253 76.4349 69.1113 76.4349 69.1113C76.4349 69.1113 76.6016 68.9863 76.7904 68.9863Z" fill="#D7000F"/>
<path fill-rule="evenodd" clip-rule="evenodd" d="M29.9544 65.0029H28.235C27.2711 65.0029 26.4822 65.7918 26.4822 66.7557C26.4822 67.7279 27.2711 68.5168 28.235 68.5168H29.9544C30.0572 68.5168 30.1322 68.4363 30.1322 68.3418V67.7307H28.4266C27.8905 67.7307 27.4544 67.289 27.4544 66.7529C27.4544 66.2168 27.8905 65.7807 28.4266 65.7807H30.1322V65.1752C30.1322 65.0807 30.0572 65.0057 29.9544 65.0057V65.0029Z" fill="black"/>
<path fill-rule="evenodd" clip-rule="evenodd" d="M29.8265 63.8193H27.5654C26.0848 63.8527 24.9376 65.3082 25.0043 66.7554V66.7693C24.9376 68.2443 25.9682 69.6721 27.5654 69.7388H29.8265C29.9959 69.7388 30.1321 69.6304 30.1321 69.461V68.9388H28.0598C26.7821 69.0082 25.9876 68.0082 25.9876 66.8666V66.6638C25.9876 65.5221 26.8154 64.5638 28.0598 64.5832H30.1321V64.0943C30.1321 63.9249 29.9959 63.8221 29.8265 63.8221V63.8193Z" fill="black"/>
<path fill-rule="evenodd" clip-rule="evenodd" d="M36.3406 63.7115H41.8711C41.8711 63.7115 42.735 63.6031 43.3934 65.2337L44.0045 66.6809L45.485 63.7115H46.3267L44.1322 68.2253C44.1322 68.2253 43.9628 68.442 43.7795 68.2253L42.4684 65.4309C42.4684 65.4309 42.1489 64.5337 41.5378 64.5003H36.335C36.335 64.5003 36.11 64.4309 36.1045 64.092C36.0989 63.7726 36.3434 63.7115 36.3434 63.7115H36.3406Z" fill="black"/>
<path fill-rule="evenodd" clip-rule="evenodd" d="M36.2932 64.9668H38.6904V69.4474C38.6904 69.4474 38.746 69.7668 38.1932 69.7668C38.1932 69.7668 37.7515 69.814 37.6765 69.4862V65.7224H36.2904C36.2904 65.7224 36.0737 65.6335 36.0737 65.3335C36.046 65.0418 36.2904 64.9668 36.2904 64.9668H36.2932Z" fill="black"/>
<path fill-rule="evenodd" clip-rule="evenodd" d="M39.3154 64.9753H41.2848C41.2848 64.9753 41.7737 64.8587 42.2098 65.892L43.507 68.6865C43.507 68.6865 43.8793 69.2892 44.4376 68.6865L46.8154 63.7031H47.7182L45.0265 69.1003C45.0265 69.1003 44.7487 69.7476 44.0209 69.7531C44.0209 69.7531 43.1654 69.8698 42.8459 69.3726L41.6376 66.8309C41.6376 66.8309 41.2765 65.8531 40.9043 65.7115H40.1626V69.5309C40.1626 69.5309 40.1098 69.7698 39.6876 69.7698C39.6876 69.7698 39.2459 69.8309 39.1987 69.5587V65.1753C39.1987 65.1753 39.1654 65.0198 39.3154 64.9781V64.9753Z" fill="black"/>
<path fill-rule="evenodd" clip-rule="evenodd" d="M35.5182 65.0029H33.7987C32.8349 65.0029 32.0404 65.7918 32.0404 66.7557C32.0404 67.7279 32.8349 68.5168 33.7987 68.5168H35.5182C35.6126 68.5168 35.696 68.4363 35.696 68.3418V67.7307H33.9904C33.4543 67.7307 33.0126 67.289 33.0126 66.7529C33.0126 66.2168 33.4543 65.7807 33.9904 65.7807H35.696V65.1752C35.696 65.0807 35.6154 65.0057 35.5182 65.0057V65.0029Z" fill="#D7000F"/>
<path fill-rule="evenodd" clip-rule="evenodd" d="M35.3821 63.8193H33.1266C31.646 63.8527 30.4905 65.3082 30.5599 66.7554V66.7693C30.4932 68.2443 31.5321 69.6721 33.1266 69.7388H35.3821C35.5516 69.7388 35.696 69.6304 35.696 69.461V68.9388H33.6238C32.346 69.0082 31.546 68.0082 31.546 66.8666V66.6638C31.546 65.5221 32.3821 64.5638 33.6238 64.5832H35.696V64.0943C35.696 63.9249 35.5544 63.8221 35.3821 63.8221V63.8193Z" fill="#D7000F"/>
<path opacity="0.4" fill-rule="evenodd" clip-rule="evenodd" d="M48.9099 63.6475H49.2044V70.0836H48.9099V63.6475Z" fill="black"/>
</g>
<defs>
<linearGradient id="paint0_linear_2760_91980" x1="44.8404" y1="34.1607" x2="52.9515" y2="34.1607" gradientUnits="userSpaceOnUse">
<stop stop-color="#DC0000"/>
<stop offset="1" stop-color="#DC0000" stop-opacity="0"/>
</linearGradient>
<clipPath id="clip0_2760_91980">
<rect width="150" height="100" fill="white"/>
</clipPath>
</defs>
</svg>
