<svg width="180" height="120" viewBox="0 0 180 120" fill="none" xmlns="http://www.w3.org/2000/svg">
<g clip-path="url(#clip0_2890_194100)">
<path d="M180 87.1653V32.8347C180 25.3356 174.792 18.8426 167.471 17.2158L116.032 5.78481C98.8863 1.97474 81.1137 1.97474 63.9684 5.7848L12.5291 17.2158C5.20851 18.8426 0 25.3356 0 32.8347L0 87.1653C0 94.6644 5.2085 101.157 12.5291 102.784L63.9683 114.215C81.1137 118.025 98.8863 118.025 116.032 114.215L167.471 102.784C174.791 101.157 180 94.6644 180 87.1653Z" fill="#E6E6E6"/>
<path fill-rule="evenodd" clip-rule="evenodd" d="M117.437 50.031H111.135V43.7295H117.437V50.031ZM117.35 78.5601H111.215V54.2343H117.35V78.5601ZM63.6978 68.2893C64.4807 66.2572 64.8739 64.079 64.8739 61.7546C64.8739 59.4581 64.4807 57.2868 63.6978 55.2408C62.9114 53.1948 61.8188 51.4168 60.42 49.9032C59.0178 48.393 57.3441 47.1891 55.399 46.2914C53.4539 45.3971 51.3314 44.9482 49.0349 44.9482H35.0017V78.561H49.0349C51.3314 78.561 53.4504 78.1225 55.399 77.2387C57.3441 76.3584 59.0178 75.1545 60.42 73.6269C61.8223 72.0994 62.9149 70.3213 63.6978 68.2893ZM57.5633 57.1337C58.0678 58.536 58.3045 60.0183 58.2766 61.5876V61.5911C58.2488 63.2439 57.9774 64.7644 57.4589 66.1493C56.9405 67.5342 56.2063 68.7381 55.2529 69.7611C54.2995 70.7841 53.1442 71.5809 51.7872 72.1551C50.4302 72.7292 48.8957 73.0145 47.1872 73.0145H41.5155V50.0737H47.1872C48.9235 50.0737 50.4858 50.3764 51.8707 50.9784C53.2556 51.5803 54.4247 52.405 55.3781 53.4558C56.3315 54.5066 57.0588 55.7349 57.5633 57.1337ZM94.0955 67.5922C94.1373 67.1712 94.1582 66.7675 94.1582 66.3744H94.1616C94.1616 64.4989 93.8102 62.7834 93.1108 61.2281C92.4114 59.6727 91.458 58.3365 90.2541 57.2161C89.0501 56.0957 87.6653 55.2188 86.096 54.589C84.5267 53.9592 82.9713 53.6426 81.1793 53.6426C79.3873 53.6426 77.7067 53.9801 76.1374 54.6517C74.5681 55.3232 73.1972 56.2349 72.0211 57.3831C70.845 58.5314 69.9194 59.8815 69.2479 61.4368C68.5763 62.9922 68.2388 64.652 68.2388 66.4161C68.2388 68.1803 68.5763 69.84 69.2479 71.3954C69.9194 72.9508 70.838 74.3008 72.0002 75.4491C73.1624 76.5974 74.5333 77.509 76.1165 78.1806C77.6997 78.8521 79.4291 79.1896 81.2211 79.1896C83.0131 79.1896 84.7146 78.9322 86.3256 78.4137C87.9367 77.8952 89.5825 77.0045 91.2631 75.7449L87.4391 71.9208C86.7084 72.5645 85.8002 73.076 84.7076 73.4553C83.615 73.8346 82.5224 74.0225 81.4299 74.0225C80.5356 74.0225 79.7144 73.8902 78.9733 73.6223C78.2286 73.3579 77.564 72.9925 76.976 72.5297C76.3879 72.0669 75.8904 71.5207 75.4833 70.8908C75.0761 70.2576 74.7595 69.593 74.5368 68.8936H93.9494C94.0051 68.4482 94.0538 68.0132 94.0955 67.5922ZM85.2713 60.3025C86.4926 61.242 87.3382 62.4807 87.8149 64.0222H74.5403C75.0135 62.4807 75.8556 61.242 77.0595 60.3025C78.2634 59.363 79.5961 58.8933 81.1341 58.8933C82.6721 58.8933 84.0535 59.363 85.2713 60.3025ZM138.947 78.5603H144.995V63.7721C144.995 62.0079 144.731 60.4804 144.198 59.1929C143.666 57.902 142.959 56.8547 142.076 56.0404C141.195 55.2297 140.186 54.6277 139.052 54.2345C137.918 53.8413 136.734 53.6465 135.503 53.6465C134.942 53.6465 134.361 53.7022 133.759 53.8135C133.157 53.9248 132.569 54.0884 131.995 54.2972C131.421 54.5059 130.868 54.7669 130.336 55.0731C129.803 55.3828 129.358 55.7168 128.992 56.0822L128.951 54.2763H122.9V78.5603H128.951V60.8701C129.681 60.1707 130.496 59.6592 131.397 59.3356C132.295 59.012 133.21 58.8519 134.139 58.8519C134.755 58.8519 135.353 58.9598 135.931 59.1686C136.508 59.3808 137.023 59.7009 137.472 60.1359C137.921 60.5708 138.279 61.1171 138.547 61.7748C138.815 62.4324 138.947 63.1979 138.947 64.0643V78.5603Z" fill="url(#paint0_linear_2890_194100)"/>
<path d="M101.472 34.5722L101.462 59.9314C101.462 60.5995 102.064 61.1423 102.801 61.1423C103.543 61.1423 104.145 60.5995 104.145 59.9314L104.155 34.5722C104.155 33.9041 103.553 33.3613 102.815 33.3613C102.074 33.3613 101.472 33.9041 101.472 34.5687V34.5722Z" fill="url(#paint1_linear_2890_194100)"/>
<path d="M102.29 58.3505C102.502 58.3748 102.652 58.5488 102.624 58.7367C102.171 62.0214 102.262 65.3305 102.349 68.5317C102.436 71.7573 102.53 75.0942 102.07 78.4311C102.046 78.6225 101.851 78.7582 101.639 78.7339C101.427 78.7095 101.277 78.5355 101.305 78.3476C101.757 75.0629 101.667 71.7538 101.576 68.5526C101.486 65.327 101.395 61.9901 101.855 58.6532C101.879 58.4618 102.074 58.3261 102.286 58.3505H102.29Z" fill="#DAAB71"/>
<path d="M102.461 58.2578C102.673 58.2822 102.822 58.4596 102.795 58.6545C102.363 61.8592 102.621 64.9699 102.896 68.2616C103.174 71.6159 103.463 75.0885 102.972 78.7317C102.944 78.9265 102.753 79.0622 102.541 79.0413C102.328 79.017 102.179 78.8395 102.207 78.6447C102.69 75.0711 102.405 71.6368 102.127 68.3173C101.848 64.9908 101.587 61.8453 102.029 58.571C102.053 58.3761 102.248 58.2404 102.461 58.2648V58.2578Z" fill="url(#paint2_linear_2890_194100)"/>
<path d="M103.616 58.3505C103.828 58.3748 103.978 58.5488 103.95 58.7402C103.497 62.0354 103.776 65.3618 104.04 68.5735C104.308 71.8234 104.587 75.1812 104.127 78.546C104.099 78.7373 103.908 78.873 103.696 78.8487C103.484 78.8243 103.334 78.6503 103.362 78.459C103.814 75.1638 103.539 71.8408 103.271 68.6257C103.003 65.3758 102.725 62.018 103.184 58.6532C103.209 58.4618 103.403 58.3261 103.612 58.3505H103.616Z" fill="url(#paint3_linear_2890_194100)"/>
<path d="M103.491 58.3513C103.703 58.3757 103.849 58.5496 103.825 58.741C103.376 62.0188 104.019 65.3383 104.639 68.5465C105.269 71.8034 105.919 75.1751 105.457 78.5572C105.429 78.7486 105.237 78.8843 105.025 78.8599C104.816 78.8356 104.663 78.6616 104.691 78.4702C105.14 75.1925 104.5 71.8729 103.877 68.6648C103.247 65.4079 102.596 62.0362 103.059 58.654C103.083 58.4626 103.278 58.3269 103.491 58.3478V58.3513Z" fill="url(#paint4_linear_2890_194100)"/>
<path d="M101.907 58.3505C102.116 58.3748 102.266 58.5488 102.241 58.7367C101.789 62.0214 101.88 65.3305 101.967 68.5317C102.057 71.7573 102.148 75.0942 101.688 78.4311C101.66 78.6225 101.469 78.7582 101.257 78.7339C101.044 78.7095 100.895 78.5355 100.919 78.3476C101.372 75.0629 101.281 71.7538 101.194 68.5526C101.104 65.327 101.013 61.9901 101.472 58.6532C101.497 58.4618 101.692 58.3261 101.904 58.3505H101.907Z" fill="url(#paint5_linear_2890_194100)"/>
<path d="M101.423 58.4387C102.593 61.7931 102.081 65.1856 101.59 68.4669C101.107 71.6716 100.609 74.9876 101.726 78.1923C101.789 78.3732 101.677 78.5716 101.476 78.6273C101.274 78.6864 101.055 78.5855 100.992 78.4011C99.8229 75.0468 100.331 71.6542 100.825 68.3729C101.305 65.1682 101.806 61.8522 100.686 58.6475C100.623 58.4666 100.735 58.2717 100.936 58.2126C101.138 58.1569 101.354 58.2578 101.42 58.4387H101.423Z" fill="url(#paint6_linear_2890_194100)"/>
<path d="M101.897 58.4059C103.156 62.0804 102.631 65.6435 102.126 69.0848C101.643 72.4008 101.18 75.5359 102.252 78.6571C102.318 78.845 102.203 79.0433 102.001 79.1025C101.796 79.1616 101.58 79.0572 101.514 78.8693C100.394 75.5951 100.888 72.2338 101.364 68.9873C101.855 65.6191 102.367 62.1395 101.163 58.6182C101.097 58.4303 101.211 58.232 101.413 58.1728C101.618 58.1137 101.834 58.218 101.897 58.4059Z" fill="url(#paint7_linear_2890_194100)"/>
<path d="M102.405 58.3585C103.567 61.7094 103.619 65.0602 103.668 68.3067C103.716 71.4974 103.765 74.7995 104.896 78.0529C104.962 78.2374 104.847 78.4322 104.645 78.4914C104.444 78.5505 104.228 78.4461 104.162 78.2617C103 74.9109 102.947 71.5566 102.899 68.3136C102.853 65.1194 102.801 61.8207 101.67 58.5673C101.608 58.3829 101.719 58.188 101.924 58.1289C102.126 58.0697 102.345 58.1741 102.408 58.3585H102.405Z" fill="url(#paint8_linear_2890_194100)"/>
<path d="M101.448 58.2609C102.617 61.65 102.485 65.053 102.356 68.3447C102.231 71.5737 102.102 74.9141 103.23 78.1884C103.292 78.3763 103.181 78.5712 102.979 78.6303C102.777 78.6895 102.558 78.5851 102.495 78.4007C101.326 75.0116 101.458 71.6085 101.587 68.3168C101.712 65.0878 101.841 61.7439 100.714 58.4731C100.651 58.2887 100.763 58.0904 100.964 58.0312C101.166 57.972 101.382 58.0764 101.448 58.2643V58.2609Z" fill="url(#paint9_linear_2890_194100)"/>
<path d="M100.794 58.8128C100.679 62.1741 101.114 65.4866 101.535 68.6913C101.952 71.8716 102.384 75.1598 102.273 78.4689C102.266 78.6603 102.433 78.8204 102.645 78.8273C102.857 78.8343 103.035 78.6847 103.042 78.4898C103.156 75.1285 102.721 71.816 102.3 68.6113C101.883 65.4309 101.451 62.1427 101.563 58.8371C101.57 58.6458 101.403 58.4857 101.187 58.4787C100.975 58.4718 100.797 58.6214 100.79 58.8163L100.794 58.8128Z" fill="url(#paint10_linear_2890_194100)"/>
<path d="M100.968 58.8031C100.863 62.0913 101.444 65.1812 102.06 68.4555C102.676 71.7228 103.313 75.105 103.198 78.6855C103.191 78.8803 103.358 79.0439 103.574 79.0473C103.786 79.0543 103.964 78.9012 103.971 78.7063C104.089 75.0528 103.445 71.6393 102.822 68.3372C102.213 65.0977 101.636 62.0392 101.74 58.824C101.747 58.6292 101.58 58.4656 101.364 58.4621C101.152 58.4552 100.975 58.6083 100.968 58.8031Z" fill="url(#paint11_linear_2890_194100)"/>
<path d="M102.116 58.7016C102.005 62.0698 102.624 65.3719 103.223 68.5662C103.818 71.7256 104.43 74.993 104.319 78.2951C104.312 78.4865 104.479 78.6465 104.694 78.6535C104.907 78.6604 105.084 78.5073 105.091 78.316C105.206 74.9477 104.587 71.6421 103.985 68.4479C103.39 65.2884 102.777 62.0176 102.889 58.719C102.896 58.5276 102.729 58.3675 102.516 58.3606C102.304 58.3536 102.123 58.5032 102.12 58.6981L102.116 58.7016Z" fill="url(#paint12_linear_2890_194100)"/>
<path d="M100.411 58.8493C100.296 62.2315 100.735 65.5614 101.156 68.787C101.577 71.9847 102.008 75.2904 101.897 78.6203C101.89 78.8152 102.057 78.9752 102.269 78.9822C102.481 78.9891 102.659 78.8395 102.666 78.6447C102.777 75.266 102.339 71.9326 101.918 68.7105C101.5 65.5127 101.065 62.2071 101.177 58.8772C101.184 58.6823 101.017 58.5223 100.804 58.5188C100.592 58.5118 100.415 58.6649 100.408 58.8563L100.411 58.8493Z" fill="url(#paint13_linear_2890_194100)"/>
<path d="M100.296 58.4512C100.091 58.5034 99.9726 58.7017 100.032 58.8861C101.069 62.1639 100.484 65.5147 99.9204 68.7542C99.3428 72.0702 98.7443 75.5011 99.8299 78.9285C99.8891 79.1164 100.101 79.2243 100.307 79.1721C100.512 79.1199 100.63 78.9215 100.568 78.7336C99.5342 75.4559 100.119 72.105 100.682 68.8656C101.26 65.5495 101.859 62.1221 100.773 58.6913C100.714 58.5034 100.501 58.3955 100.296 58.4512Z" fill="url(#paint14_linear_2890_194100)"/>
<path d="M100.766 58.4234C100.561 58.4756 100.446 58.6705 100.501 58.8549C101.604 62.3136 100.996 65.6992 100.407 68.97C99.8368 72.1295 99.2488 75.3968 100.275 78.6085C100.334 78.7929 100.55 78.9007 100.752 78.8451C100.957 78.7929 101.076 78.598 101.016 78.4136C100.039 75.3481 100.588 72.3035 101.169 69.0779C101.775 65.7305 102.398 62.2649 101.246 58.6566C101.187 58.4721 100.975 58.3643 100.769 58.4199L100.766 58.4234Z" fill="url(#paint15_linear_2890_194100)"/>
<path d="M101.277 58.3887C101.072 58.4409 100.954 58.6357 101.013 58.8202C102.053 62.077 102.012 65.3583 101.973 68.5282C101.935 71.7503 101.893 75.0837 102.965 78.438C103.024 78.6224 103.236 78.7303 103.442 78.6746C103.647 78.6224 103.762 78.4276 103.706 78.2467C102.666 74.9898 102.707 71.7085 102.746 68.5351C102.784 65.3131 102.826 61.9796 101.754 58.6253C101.695 58.4409 101.483 58.333 101.277 58.3887Z" fill="url(#paint16_linear_2890_194100)"/>
<path d="M101.862 58.1778C101.657 58.23 101.538 58.4248 101.601 58.6127C102.652 61.9218 103.163 65.21 103.661 68.3903C104.162 71.595 104.68 74.9076 105.745 78.2654C105.804 78.4498 106.02 78.5577 106.222 78.5055C106.427 78.4498 106.545 78.2584 106.486 78.0705C105.436 74.758 104.921 71.4698 104.423 68.2894C103.922 65.0847 103.403 61.7722 102.342 58.4144C102.283 58.23 102.067 58.1221 101.865 58.1743L101.862 58.1778Z" fill="url(#paint17_linear_2890_194100)"/>
<path d="M100.324 58.2715C100.119 58.3272 100 58.5186 100.06 58.7065C101.1 61.9807 100.877 65.3003 100.665 68.505C100.449 71.7723 100.223 75.1475 101.298 78.5401C101.357 78.728 101.57 78.8358 101.775 78.7801C101.977 78.728 102.099 78.5331 102.039 78.3452C100.999 75.0674 101.222 71.7514 101.434 68.5467C101.65 65.2794 101.876 61.9007 100.801 58.5081C100.742 58.3237 100.529 58.2158 100.324 58.268V58.2715Z" fill="url(#paint18_linear_2890_194100)"/>
<path d="M101.911 58.2289C101.709 58.2916 101.604 58.4934 101.671 58.6778C102.892 61.9034 102.499 65.2751 102.123 68.5389C101.737 71.8793 101.333 75.3311 102.61 78.7063C102.68 78.8907 102.899 78.9881 103.101 78.9255C103.302 78.8628 103.407 78.661 103.337 78.4766C102.119 75.251 102.509 71.8758 102.888 68.6155C103.275 65.2786 103.678 61.8233 102.398 58.4481C102.328 58.2637 102.109 58.1663 101.907 58.2289H101.911Z" fill="url(#paint19_linear_2890_194100)"/>
<path d="M102.381 58.1762C102.179 58.2389 102.074 58.4372 102.144 58.6181C103.445 62.0212 103.028 65.4311 102.624 68.7263C102.234 71.9066 101.834 75.1983 103.042 78.3613C103.111 78.5422 103.331 78.6396 103.532 78.577C103.734 78.5144 103.842 78.316 103.769 78.1351C102.617 75.1218 102.993 72.0528 103.39 68.8029C103.8 65.4311 104.228 61.9446 102.871 58.392C102.802 58.211 102.582 58.1136 102.381 58.1762Z" fill="url(#paint20_linear_2890_194100)"/>
<path d="M102.889 58.1215C102.687 58.1842 102.579 58.3825 102.648 58.5634C103.873 61.7681 104.019 65.0459 104.162 68.2158C104.308 71.4344 104.458 74.7678 105.717 78.0665C105.787 78.2474 106.006 78.3449 106.208 78.2822C106.41 78.2196 106.514 78.0212 106.445 77.8403C105.22 74.6356 105.074 71.3579 104.931 68.188C104.788 64.9693 104.635 61.6394 103.376 58.3373C103.306 58.1563 103.087 58.0589 102.885 58.1215H102.889Z" fill="url(#paint21_linear_2890_194100)"/>
<path d="M101.932 58.0448C101.73 58.1074 101.622 58.3058 101.692 58.4902C102.916 61.7123 102.885 65.0353 102.854 68.2504C102.822 71.5212 102.791 74.9068 104.058 78.2437C104.127 78.4282 104.346 78.5256 104.548 78.463C104.747 78.4003 104.854 78.202 104.788 78.0176C103.564 74.7955 103.595 71.4725 103.626 68.2608C103.658 64.9865 103.689 61.6044 102.422 58.2675C102.353 58.0831 102.133 57.9856 101.932 58.0483V58.0448Z" fill="url(#paint22_linear_2890_194100)"/>
<path d="M103.758 58.2289C103.556 58.2916 103.452 58.4934 103.518 58.6778C104.74 61.9034 104.346 65.2751 103.971 68.5389C103.584 71.8793 103.181 75.3311 104.458 78.7063C104.527 78.8907 104.747 78.9881 104.948 78.9255C105.15 78.8628 105.255 78.661 105.185 78.4766C103.967 75.251 104.357 71.8758 104.736 68.6155C105.122 65.2786 105.526 61.8233 104.245 58.4481C104.176 58.2637 103.957 58.1663 103.755 58.2289H103.758Z" fill="url(#paint23_linear_2890_194100)"/>
<path d="M104.228 58.1762C104.026 58.2389 103.922 58.4372 103.992 58.6181C105.293 62.0212 104.875 65.4311 104.472 68.7263C104.082 71.9066 103.682 75.1983 104.889 78.3613C104.959 78.5422 105.178 78.6396 105.38 78.577C105.582 78.5144 105.69 78.316 105.617 78.1351C104.465 75.1218 104.841 72.0528 105.237 68.8029C105.648 65.4311 106.076 61.9446 104.719 58.392C104.649 58.211 104.43 58.1136 104.228 58.1762Z" fill="url(#paint24_linear_2890_194100)"/>
<path d="M103.779 58.0448C103.577 58.1074 103.47 58.3058 103.539 58.4902C104.764 61.7123 104.733 65.0353 104.701 68.2504C104.67 71.5212 104.639 74.9068 105.905 78.2437C105.975 78.4282 106.194 78.5256 106.396 78.463C106.594 78.4003 106.702 78.202 106.636 78.0176C105.411 74.7955 105.443 71.4725 105.47 68.2608C105.502 64.9865 105.533 61.6044 104.266 58.2675C104.197 58.0831 103.978 57.9856 103.776 58.0483L103.779 58.0448Z" fill="url(#paint25_linear_2890_194100)"/>
<path d="M105.453 59.6602H100.157C99.9516 59.6602 99.7811 59.8098 99.7811 59.9977C99.7811 60.1856 99.9482 60.3352 100.153 60.3352H105.449C105.655 60.3352 105.825 60.1856 105.825 60.0012C105.825 59.8133 105.658 59.6636 105.449 59.6636L105.453 59.6602Z" fill="url(#paint26_linear_2890_194100)"/>
<path d="M105.564 61.9727H100.049C99.8405 61.9727 99.6735 62.1223 99.6735 62.3067C99.6735 62.4946 99.8405 62.6442 100.046 62.6442H105.561C105.77 62.6442 105.937 62.4946 105.937 62.3102C105.937 62.1223 105.77 61.9727 105.561 61.9727H105.564Z" fill="url(#paint27_linear_2890_194100)"/>
<path d="M105.599 60.3584L99.9866 60.5185C99.7813 60.5254 99.6178 60.6785 99.6247 60.8664C99.6317 61.0543 99.8022 61.2005 100.007 61.1935L105.62 61.0369C105.829 61.03 105.989 60.8769 105.982 60.689C105.975 60.5045 105.801 60.3549 105.596 60.3619L105.599 60.3584Z" fill="url(#paint28_linear_2890_194100)"/>
<path d="M105.651 61.4333L100.014 61.0888C99.809 61.0749 99.6281 61.2176 99.6141 61.402C99.6002 61.5899 99.7568 61.7499 99.9621 61.7639L105.599 62.1083C105.804 62.1223 105.985 61.9796 105.999 61.7952C106.013 61.6073 105.857 61.4472 105.651 61.4333Z" fill="url(#paint29_linear_2890_194100)"/>
</g>
<defs>
<linearGradient id="paint0_linear_2890_194100" x1="148.88" y1="79.1896" x2="18.2985" y2="43.7295" gradientUnits="userSpaceOnUse">
<stop stop-color="#E47913"/>
<stop offset="0.909835" stop-color="#EFC521"/>
</linearGradient>
<linearGradient id="paint1_linear_2890_194100" x1="101.481" y1="47.2667" x2="104.164" y2="47.2677" gradientUnits="userSpaceOnUse">
<stop stop-color="#765C2F"/>
<stop offset="1" stop-color="#9E7C44"/>
</linearGradient>
<linearGradient id="paint2_linear_2890_194100" x1="103.228" y1="68.5714" x2="101.788" y2="68.5719" gradientUnits="userSpaceOnUse">
<stop stop-color="#D39200"/>
<stop offset="0.13" stop-color="#DB9D00"/>
<stop offset="0.44" stop-color="#EDB300"/>
<stop offset="0.74" stop-color="#F7C100"/>
<stop offset="1" stop-color="#FBC600"/>
</linearGradient>
<linearGradient id="paint3_linear_2890_194100" x1="104.362" y1="68.5245" x2="102.936" y2="68.525" gradientUnits="userSpaceOnUse">
<stop stop-color="#D39200"/>
<stop offset="0.13" stop-color="#DB9D00"/>
<stop offset="0.44" stop-color="#EDB300"/>
<stop offset="0.74" stop-color="#F7C100"/>
<stop offset="1" stop-color="#FBC600"/>
</linearGradient>
<linearGradient id="paint4_linear_2890_194100" x1="105.601" y1="68.5284" x2="102.894" y2="68.5293" gradientUnits="userSpaceOnUse">
<stop stop-color="#D39200"/>
<stop offset="0.13" stop-color="#DB9D00"/>
<stop offset="0.44" stop-color="#EDB300"/>
<stop offset="0.74" stop-color="#F7C100"/>
<stop offset="1" stop-color="#FBC600"/>
</linearGradient>
<linearGradient id="paint5_linear_2890_194100" x1="102.237" y1="68.4661" x2="100.907" y2="68.4666" gradientUnits="userSpaceOnUse">
<stop stop-color="#D39200"/>
<stop offset="0.13" stop-color="#DB9D00"/>
<stop offset="0.44" stop-color="#EDB300"/>
<stop offset="0.74" stop-color="#F7C100"/>
<stop offset="1" stop-color="#FBC600"/>
</linearGradient>
<linearGradient id="paint6_linear_2890_194100" x1="102.716" y1="68.1464" x2="99.7124" y2="68.4287" gradientUnits="userSpaceOnUse">
<stop stop-color="#D39200"/>
<stop offset="0.13" stop-color="#DB9D00"/>
<stop offset="0.44" stop-color="#EDB300"/>
<stop offset="0.74" stop-color="#F7C100"/>
<stop offset="1" stop-color="#FBC600"/>
</linearGradient>
<linearGradient id="paint7_linear_2890_194100" x1="103.24" y1="68.3613" x2="100.233" y2="68.6439" gradientUnits="userSpaceOnUse">
<stop stop-color="#D39200"/>
<stop offset="0.13" stop-color="#DB9D00"/>
<stop offset="0.44" stop-color="#EDB300"/>
<stop offset="0.74" stop-color="#F7C100"/>
<stop offset="1" stop-color="#FBC600"/>
</linearGradient>
<linearGradient id="paint8_linear_2890_194100" x1="103.988" y1="68.1105" x2="102.585" y2="68.2424" gradientUnits="userSpaceOnUse">
<stop stop-color="#D39200"/>
<stop offset="0.13" stop-color="#DB9D00"/>
<stop offset="0.44" stop-color="#EDB300"/>
<stop offset="0.74" stop-color="#F7C100"/>
<stop offset="1" stop-color="#FBC600"/>
</linearGradient>
<linearGradient id="paint9_linear_2890_194100" x1="102.874" y1="68.1137" x2="101.086" y2="68.2817" gradientUnits="userSpaceOnUse">
<stop stop-color="#D39200"/>
<stop offset="0.13" stop-color="#DB9D00"/>
<stop offset="0.44" stop-color="#EDB300"/>
<stop offset="0.74" stop-color="#F7C100"/>
<stop offset="1" stop-color="#FBC600"/>
</linearGradient>
<linearGradient id="paint10_linear_2890_194100" x1="101.362" y1="68.6896" x2="102.488" y2="68.5842" gradientUnits="userSpaceOnUse">
<stop stop-color="#D39200"/>
<stop offset="0.13" stop-color="#DB9D00"/>
<stop offset="0.44" stop-color="#EDB300"/>
<stop offset="0.74" stop-color="#F7C100"/>
<stop offset="1" stop-color="#FBC600"/>
</linearGradient>
<linearGradient id="paint11_linear_2890_194100" x1="101.706" y1="68.812" x2="103.261" y2="68.6664" gradientUnits="userSpaceOnUse">
<stop stop-color="#D39200"/>
<stop offset="0.13" stop-color="#DB9D00"/>
<stop offset="0.44" stop-color="#EDB300"/>
<stop offset="0.74" stop-color="#F7C100"/>
<stop offset="1" stop-color="#FBC600"/>
</linearGradient>
<linearGradient id="paint12_linear_2890_194100" x1="102.836" y1="68.5658" x2="104.381" y2="68.4211" gradientUnits="userSpaceOnUse">
<stop stop-color="#D39200"/>
<stop offset="0.13" stop-color="#DB9D00"/>
<stop offset="0.44" stop-color="#EDB300"/>
<stop offset="0.74" stop-color="#F7C100"/>
<stop offset="1" stop-color="#FBC600"/>
</linearGradient>
<linearGradient id="paint13_linear_2890_194100" x1="100.983" y1="68.7794" x2="102.109" y2="68.6739" gradientUnits="userSpaceOnUse">
<stop stop-color="#D39200"/>
<stop offset="0.13" stop-color="#DB9D00"/>
<stop offset="0.44" stop-color="#EDB300"/>
<stop offset="0.74" stop-color="#F7C100"/>
<stop offset="1" stop-color="#FBC600"/>
</linearGradient>
<linearGradient id="paint14_linear_2890_194100" x1="98.7781" y1="68.9212" x2="101.819" y2="68.7097" gradientUnits="userSpaceOnUse">
<stop stop-color="#D39200"/>
<stop offset="0.13" stop-color="#DB9D00"/>
<stop offset="0.44" stop-color="#EDB300"/>
<stop offset="0.74" stop-color="#F7C100"/>
<stop offset="1" stop-color="#FBC600"/>
</linearGradient>
<linearGradient id="paint15_linear_2890_194100" x1="99.2537" y1="68.7382" x2="102.308" y2="68.5257" gradientUnits="userSpaceOnUse">
<stop stop-color="#D39200"/>
<stop offset="0.13" stop-color="#DB9D00"/>
<stop offset="0.44" stop-color="#EDB300"/>
<stop offset="0.74" stop-color="#F7C100"/>
<stop offset="1" stop-color="#FBC600"/>
</linearGradient>
<linearGradient id="paint16_linear_2890_194100" x1="101.681" y1="68.5834" x2="103.035" y2="68.4892" gradientUnits="userSpaceOnUse">
<stop stop-color="#D39200"/>
<stop offset="0.13" stop-color="#DB9D00"/>
<stop offset="0.44" stop-color="#EDB300"/>
<stop offset="0.74" stop-color="#F7C100"/>
<stop offset="1" stop-color="#FBC600"/>
</linearGradient>
<linearGradient id="paint17_linear_2890_194100" x1="102.273" y1="68.4633" x2="105.803" y2="68.2177" gradientUnits="userSpaceOnUse">
<stop stop-color="#D39200"/>
<stop offset="0.13" stop-color="#DB9D00"/>
<stop offset="0.44" stop-color="#EDB300"/>
<stop offset="0.74" stop-color="#F7C100"/>
<stop offset="1" stop-color="#FBC600"/>
</linearGradient>
<linearGradient id="paint18_linear_2890_194100" x1="100.136" y1="68.5908" x2="101.959" y2="68.464" gradientUnits="userSpaceOnUse">
<stop stop-color="#D39200"/>
<stop offset="0.13" stop-color="#DB9D00"/>
<stop offset="0.44" stop-color="#EDB300"/>
<stop offset="0.74" stop-color="#F7C100"/>
<stop offset="1" stop-color="#FBC600"/>
</linearGradient>
<linearGradient id="paint19_linear_2890_194100" x1="101.027" y1="68.7408" x2="103.973" y2="68.3827" gradientUnits="userSpaceOnUse">
<stop stop-color="#D39200"/>
<stop offset="0.13" stop-color="#DB9D00"/>
<stop offset="0.44" stop-color="#EDB300"/>
<stop offset="0.74" stop-color="#F7C100"/>
<stop offset="1" stop-color="#FBC600"/>
</linearGradient>
<linearGradient id="paint20_linear_2890_194100" x1="101.493" y1="68.5365" x2="104.457" y2="68.1763" gradientUnits="userSpaceOnUse">
<stop stop-color="#D39200"/>
<stop offset="0.13" stop-color="#DB9D00"/>
<stop offset="0.44" stop-color="#EDB300"/>
<stop offset="0.74" stop-color="#F7C100"/>
<stop offset="1" stop-color="#FBC600"/>
</linearGradient>
<linearGradient id="paint21_linear_2890_194100" x1="103.817" y1="68.2761" x2="105.268" y2="68.0997" gradientUnits="userSpaceOnUse">
<stop stop-color="#D39200"/>
<stop offset="0.13" stop-color="#DB9D00"/>
<stop offset="0.44" stop-color="#EDB300"/>
<stop offset="0.74" stop-color="#F7C100"/>
<stop offset="1" stop-color="#FBC600"/>
</linearGradient>
<linearGradient id="paint22_linear_2890_194100" x1="102.36" y1="68.3443" x2="104.108" y2="68.1318" gradientUnits="userSpaceOnUse">
<stop stop-color="#D39200"/>
<stop offset="0.13" stop-color="#DB9D00"/>
<stop offset="0.44" stop-color="#EDB300"/>
<stop offset="0.74" stop-color="#F7C100"/>
<stop offset="1" stop-color="#FBC600"/>
</linearGradient>
<linearGradient id="paint23_linear_2890_194100" x1="102.874" y1="68.7407" x2="105.824" y2="68.3821" gradientUnits="userSpaceOnUse">
<stop stop-color="#D39200"/>
<stop offset="0.13" stop-color="#DB9D00"/>
<stop offset="0.44" stop-color="#EDB300"/>
<stop offset="0.74" stop-color="#F7C100"/>
<stop offset="1" stop-color="#FBC600"/>
</linearGradient>
<linearGradient id="paint24_linear_2890_194100" x1="103.344" y1="68.5359" x2="106.304" y2="68.1761" gradientUnits="userSpaceOnUse">
<stop stop-color="#D39200"/>
<stop offset="0.13" stop-color="#DB9D00"/>
<stop offset="0.44" stop-color="#EDB300"/>
<stop offset="0.74" stop-color="#F7C100"/>
<stop offset="1" stop-color="#FBC600"/>
</linearGradient>
<linearGradient id="paint25_linear_2890_194100" x1="104.207" y1="68.3441" x2="105.955" y2="68.1316" gradientUnits="userSpaceOnUse">
<stop stop-color="#D39200"/>
<stop offset="0.13" stop-color="#DB9D00"/>
<stop offset="0.44" stop-color="#EDB300"/>
<stop offset="0.74" stop-color="#F7C100"/>
<stop offset="1" stop-color="#FBC600"/>
</linearGradient>
<linearGradient id="paint26_linear_2890_194100" x1="102.816" y1="60.3471" x2="102.816" y2="59.6721" gradientUnits="userSpaceOnUse">
<stop stop-color="#765C2F"/>
<stop offset="1" stop-color="#9E7C44"/>
</linearGradient>
<linearGradient id="paint27_linear_2890_194100" x1="102.816" y1="62.6596" x2="102.816" y2="61.9846" gradientUnits="userSpaceOnUse">
<stop stop-color="#765C2F"/>
<stop offset="1" stop-color="#9E7C44"/>
</linearGradient>
<linearGradient id="paint28_linear_2890_194100" x1="102.816" y1="61.2054" x2="102.816" y2="60.3703" gradientUnits="userSpaceOnUse">
<stop stop-color="#765C2F"/>
<stop offset="1" stop-color="#9E7C44"/>
</linearGradient>
<linearGradient id="paint29_linear_2890_194100" x1="102.816" y1="62.1238" x2="102.816" y2="61.1042" gradientUnits="userSpaceOnUse">
<stop stop-color="#765C2F"/>
<stop offset="1" stop-color="#9E7C44"/>
</linearGradient>
<clipPath id="clip0_2890_194100">
<rect width="180" height="120" fill="white"/>
</clipPath>
</defs>
</svg>
