<svg width="150" height="100" viewBox="0 0 150 100" fill="none" xmlns="http://www.w3.org/2000/svg">
<g clip-path="url(#clip0_2760_91768)">
<path d="M150 0H0V100H150V0Z" fill="#E6E6E6"/>
<path style="mix-blend-mode:multiply" d="M137.022 60.8527C137.022 61.7471 109.255 62.4721 74.9999 62.4721C40.7444 62.4721 12.9805 61.7444 12.9805 60.8527C12.9805 59.961 40.7471 59.2305 74.9999 59.2305C109.253 59.2305 137.022 59.9555 137.022 60.8527Z" fill="url(#paint0_radial_2760_91768)"/>
<path style="mix-blend-mode:multiply" opacity="0.4" d="M53.8168 79.4555C53.1918 81.0889 52.3196 82.5083 51.2001 83.7166C50.0807 84.925 48.7446 85.8861 47.1918 86.6C45.6362 87.3139 43.9446 87.6722 42.1112 87.6722H30.9084V60.8389H42.1112C43.9446 60.8389 45.639 61.1916 47.1918 61.8944C48.7446 62.6 50.0807 63.5611 51.2001 64.7778C52.3168 65.9972 53.189 67.4166 53.8168 69.0389C54.4418 70.6611 54.7557 72.3972 54.7557 74.2555C54.7557 76.1139 54.4418 77.8222 53.8168 79.4555ZM48.8362 70.7528C48.4223 69.6472 47.8362 68.6833 47.0751 67.8694C46.314 67.0528 45.3918 66.4166 44.3084 65.9583C43.2223 65.5 42.0001 65.2694 40.6362 65.2694H36.1084V83.5833H40.6362C42.0223 83.5833 43.2696 83.3416 44.3751 82.8611C45.4807 82.3805 46.4168 81.7194 47.1751 80.8833C47.9362 80.0444 48.5168 79.0666 48.9196 77.9472C49.3223 76.8278 49.5112 75.6444 49.489 74.3916C49.4668 73.0722 49.2473 71.8583 48.8362 70.7528Z" fill="url(#paint1_linear_2760_91768)"/>
<path style="mix-blend-mode:multiply" opacity="0.4" d="M77.2945 75.1807C76.7362 76.4223 75.9751 77.489 75.014 78.3835C74.0528 79.2779 72.9445 79.9779 71.6945 80.4807C70.4417 80.9835 69.1334 81.2362 67.7695 81.2362C66.339 81.2362 64.9973 80.9668 63.7445 80.4307C62.4917 79.8946 61.3973 79.1668 60.4584 78.2501C59.5195 77.3335 58.7806 76.2557 58.2445 75.014C57.7084 73.7723 57.439 72.4474 57.439 71.039C57.439 69.6307 57.7084 68.3057 58.2445 67.064C58.7806 65.8224 59.514 64.7446 60.4417 63.8279C61.3695 62.9112 62.464 62.1835 63.7279 61.6474C64.9917 61.1112 66.3501 60.8418 67.8029 60.8418C69.2556 60.8418 70.5917 61.0501 71.8779 61.4612C73.164 61.8751 74.4779 62.5862 75.8195 63.5918L72.7667 66.6446C72.1862 66.1307 71.4584 65.7224 70.5862 65.4196C69.714 65.1168 68.8417 64.9668 67.9695 64.9668C67.2529 64.9668 66.6001 65.0724 66.0084 65.2862C65.4167 65.4974 64.8834 65.789 64.414 66.1585C63.9445 66.5279 63.5473 66.964 63.2223 67.4668C62.8973 67.9696 62.6473 68.5001 62.4667 69.0612H77.964C78.0084 69.4196 78.0473 69.7668 78.0806 70.1001C78.114 70.4362 78.1306 70.7585 78.1306 71.0724C78.1306 72.5696 77.8501 73.939 77.2917 75.1807H77.2945ZM62.4695 72.9501C62.8501 74.1807 63.5195 75.1696 64.4806 75.9196C65.4417 76.6696 66.5279 77.0446 67.7334 77.0446C68.939 77.0446 70.064 76.6696 71.0362 75.9196C72.0084 75.1696 72.6862 74.1807 73.0667 72.9501H62.4667H62.4695Z" fill="url(#paint2_linear_2760_91768)"/>
<path style="mix-blend-mode:multiply" opacity="0.5" d="M96.7166 88.6474H91.686V83.6168H96.7166V88.6474ZM96.6471 80.2612H91.7499V60.8418H96.6471V80.2612Z" fill="url(#paint3_linear_2760_91768)"/>
<path style="mix-blend-mode:multiply" opacity="0.5" d="M118.719 72.6474C118.719 74.0557 118.506 75.2751 118.083 76.3029C117.658 77.3307 117.094 78.1696 116.389 78.8196C115.683 79.4668 114.881 79.9474 113.975 80.2612C113.069 80.5751 112.125 80.7307 111.142 80.7307C110.694 80.7307 110.231 80.6862 109.75 80.5974C109.269 80.5085 108.8 80.3807 108.342 80.2112C107.883 80.0446 107.442 79.8362 107.017 79.5918C106.592 79.3446 106.233 79.0779 105.944 78.7862L105.911 80.2279H101.081V60.8418H105.911V74.964C106.494 75.5224 107.147 75.9307 107.864 76.189C108.583 76.4446 109.311 76.5751 110.053 76.5751C110.547 76.5751 111.025 76.4918 111.483 76.3224C111.944 76.1557 112.353 75.8974 112.714 75.5501C113.072 75.2029 113.358 74.7668 113.572 74.2418C113.786 73.7168 113.892 73.1057 113.892 72.414V60.8418H118.722V72.6474H118.719Z" fill="url(#paint4_linear_2760_91768)"/>
<path style="mix-blend-mode:multiply" opacity="0.5" d="M87.9055 61.6141C87.8749 61.6058 87.8471 61.6002 87.8166 61.6002C87.7999 61.5919 87.7805 61.5863 87.761 61.5808C87.5999 61.5391 87.4277 61.6252 87.3805 61.7725C87.3277 61.9363 87.2777 62.103 87.2277 62.2669C87.2221 62.2002 87.2193 62.1308 87.211 62.0641C87.2332 62.003 87.2555 61.9391 87.2777 61.878C87.3249 61.753 87.2693 61.6197 87.1499 61.553C87.1499 61.5475 87.1499 61.5419 87.1499 61.5363C87.1305 61.3947 86.9944 61.2919 86.8388 61.2947C86.811 61.2752 86.7805 61.2558 86.7444 61.2447C86.5832 61.1947 86.4082 61.2725 86.3527 61.4197C86.3332 61.4725 86.3138 61.5252 86.2971 61.5752C86.2916 61.5836 86.286 61.5919 86.2805 61.6002C86.2138 61.6086 86.1527 61.6391 86.1055 61.6808C86.0999 61.6336 86.0944 61.5891 86.0888 61.5419C86.0777 61.4558 86.0221 61.3863 85.9471 61.3419C85.9082 61.2225 85.786 61.1363 85.6444 61.1391C85.5249 61.1419 85.4249 61.2086 85.3777 61.3002C85.3471 61.2752 85.311 61.2558 85.2694 61.2419C85.2055 61.2225 85.1416 61.2225 85.0832 61.2391C85.0193 61.1752 84.9249 61.1419 84.8221 61.153C84.7693 61.1586 84.7194 61.178 84.6777 61.2058C84.6555 61.203 84.6305 61.2002 84.6082 61.2002C84.5888 61.2002 84.5666 61.203 84.5471 61.2086C84.511 61.1586 84.4555 61.1197 84.3888 61.1002C84.2249 61.053 84.0527 61.1363 83.9999 61.2863C83.9888 61.3197 83.9777 61.353 83.9666 61.3863C83.9555 61.3919 83.9444 61.4002 83.9332 61.4086C83.8888 61.3947 83.8444 61.3891 83.7944 61.3947C83.7166 61.403 83.6471 61.4391 83.5999 61.4891C83.5693 61.403 83.4943 61.3308 83.3916 61.3058C83.3443 61.2947 83.2999 61.2919 83.2555 61.3002C83.2499 61.1836 83.1638 61.078 83.036 61.0447C82.8721 61.0002 82.6999 61.0891 82.6555 61.2391C81.7916 63.978 82.2666 66.7141 82.7277 69.3641C82.9555 70.6669 83.186 71.9947 83.2527 73.3252C83.2249 73.6308 83.2027 73.9363 83.1805 74.2447H82.8277C82.6638 74.2447 82.5305 74.3641 82.5305 74.5141C82.5305 74.6641 82.6638 74.7836 82.8305 74.7836H83.1499C83.1499 74.8308 83.1471 74.878 83.1444 74.9225L82.761 74.9447C82.5971 74.9558 82.4721 75.0836 82.4832 75.2336C82.4888 75.3252 82.5471 75.403 82.6277 75.4474C82.5499 75.4947 82.4944 75.5725 82.4916 75.6641C82.486 75.8113 82.6138 75.9363 82.7805 75.9419L83.1082 75.9502C83.1082 75.9808 83.1082 76.0113 83.1082 76.0419C83.1055 76.0586 83.1027 76.0725 83.0999 76.0891H82.9166C82.7527 76.0891 82.6193 76.2086 82.6193 76.3586C82.6193 76.5086 82.7527 76.628 82.9194 76.628H82.9888C82.9388 76.8336 82.8832 77.0363 82.8193 77.2419C82.7999 77.3058 82.8055 77.3725 82.8332 77.4308C82.8138 77.5669 82.9055 77.6947 83.0527 77.7336C83.161 77.7613 83.2721 77.7336 83.3499 77.6641C83.3527 77.7808 83.436 77.8891 83.5638 77.9252C83.6971 77.9641 83.8388 77.9113 83.9138 77.8086C83.9138 77.8086 83.9166 77.8086 83.9193 77.8086C83.9332 77.8141 83.9499 77.8141 83.9638 77.8169L83.9694 96.6475C83.9694 97.1808 84.4499 97.6141 85.0416 97.6141C85.6332 97.6141 86.111 97.1808 86.111 96.6475L86.1027 77.8613C86.1249 77.8447 86.1416 77.8252 86.1582 77.8058C86.1582 77.8058 86.161 77.8058 86.1638 77.8058C86.3249 77.8558 86.4999 77.778 86.5555 77.6336C86.6832 77.2947 86.7916 76.9586 86.8832 76.6225H87.1416C87.3082 76.6225 87.4416 76.5002 87.4416 76.353C87.4416 76.203 87.3082 76.0836 87.1416 76.0836H87.0138C87.0138 76.0836 87.0166 76.0669 87.0193 76.0586L87.2582 76.0641C87.4221 76.0697 87.561 75.9502 87.5666 75.803C87.5721 75.653 87.4416 75.528 87.2777 75.5252L87.1221 75.5197C87.1388 75.4169 87.1527 75.3141 87.1694 75.2113L87.2999 75.203C87.4638 75.1919 87.5888 75.0641 87.5777 74.9141C87.5721 74.8225 87.5138 74.7447 87.4332 74.703C87.4916 74.653 87.5305 74.5836 87.5305 74.5058C87.5305 74.3669 87.4138 74.2558 87.2666 74.2391C87.3332 73.1641 87.2721 72.0975 87.1666 71.0447C87.1666 70.6141 87.1638 70.1863 87.1582 69.7586C87.1332 67.1947 87.1082 64.5419 88.0888 61.9697C88.1444 61.8225 88.0582 61.6641 87.8971 61.6141H87.9055ZM85.8166 73.7947C85.8499 73.453 85.8888 73.1141 85.936 72.7725C85.9027 73.1169 85.8638 73.4613 85.8166 73.8058C85.8166 73.803 85.8166 73.7975 85.8166 73.7947Z" fill="url(#paint5_linear_2760_91768)"/>
<path d="M54.7557 46.9108C54.7557 48.7664 54.4418 50.5053 53.8168 52.1275C53.1918 53.7497 52.3196 55.1691 51.2001 56.3886C50.0807 57.608 48.7446 58.5691 47.1918 59.2719C45.6362 59.9775 43.9446 60.3275 42.1112 60.3275H30.9084V33.4941H42.1112C43.9446 33.4941 45.639 33.8525 47.1918 34.5664C48.7446 35.283 50.0807 36.2441 51.2001 37.4497C52.3168 38.658 53.189 40.0775 53.8168 41.7108C54.4418 43.3441 54.7557 45.0775 54.7557 46.9108ZM49.489 46.7775C49.5112 45.5247 49.3223 44.3414 48.9196 43.2219C48.5168 42.1053 47.9362 41.1247 47.1751 40.2858C46.414 39.4469 45.4807 38.7886 44.3751 38.308C43.2696 37.8275 42.0223 37.5858 40.6362 37.5858H36.1084V55.8997H40.6362C42.0001 55.8997 43.2251 55.6719 44.3084 55.2136C45.3918 54.7553 46.314 54.1191 47.0751 53.3025C47.8362 52.4858 48.4223 51.5247 48.8362 50.4191C49.2501 49.3136 49.4668 48.0997 49.489 46.7803V46.7775Z" fill="url(#paint6_linear_2760_91768)"/>
<path d="M78.1333 50.6004C78.1333 50.9143 78.1167 51.2365 78.0833 51.5726C78.05 51.9087 78.0111 52.256 77.9666 52.6115H62.4694C62.6472 53.1699 62.9 53.7004 63.225 54.206C63.55 54.7087 63.9472 55.1449 64.4167 55.5143C64.8861 55.8837 65.4167 56.1754 66.0111 56.3865C66.6028 56.6004 67.2583 56.706 67.9722 56.706C68.8444 56.706 69.7167 56.556 70.5889 56.2532C71.4611 55.9504 72.1861 55.5421 72.7694 55.0282L75.8222 58.081C74.4805 59.0865 73.1666 59.7976 71.8805 60.2115C70.5944 60.6254 69.2361 60.831 67.8055 60.831C66.375 60.831 64.9944 60.5615 63.7305 60.0254C62.4667 59.4893 61.3722 58.7615 60.4444 57.8449C59.5167 56.9282 58.7833 55.8504 58.2472 54.6087C57.7111 53.3671 57.4417 52.0421 57.4417 50.6337C57.4417 49.2254 57.7111 47.9004 58.2472 46.6587C58.7833 45.4171 59.5222 44.3393 60.4611 43.4226C61.4 42.506 62.4944 41.7782 63.7472 41.2421C65 40.706 66.3417 40.4365 67.7722 40.4365C69.2028 40.4365 70.4444 40.6893 71.6972 41.1921C72.95 41.6949 74.0555 42.3949 75.0167 43.2893C75.9778 44.1837 76.7389 45.2504 77.2972 46.4921C77.8555 47.7337 78.1361 49.1032 78.1361 50.6004H78.1333ZM73.0694 48.7226C72.6889 47.4921 72.0139 46.5032 71.0389 45.7532C70.0667 45.0032 68.9639 44.6282 67.7361 44.6282C66.5083 44.6282 65.4444 45.0032 64.4833 45.7532C63.5222 46.5032 62.85 47.4921 62.4722 48.7226H73.0722H73.0694Z" fill="url(#paint7_linear_2760_91768)"/>
<path d="M96.7166 37.553H91.686V32.5225H96.7166V37.553ZM96.6471 60.328H91.7499V40.9086H96.6471V60.328Z" fill="url(#paint8_linear_2760_91768)"/>
<path d="M118.72 60.3274H113.889V48.7551C113.889 48.0635 113.783 47.4524 113.57 46.9274C113.356 46.4024 113.07 45.9663 112.711 45.619C112.353 45.2718 111.942 45.0163 111.481 44.8468C111.02 44.6801 110.542 44.594 110.05 44.594C109.308 44.594 108.578 44.7218 107.861 44.9801C107.142 45.2385 106.492 45.6468 105.908 46.2051V60.3274H101.078V40.9413H105.908L105.942 42.3829C106.233 42.0913 106.589 41.8246 107.014 41.5774C107.439 41.3329 107.881 41.1246 108.339 40.9579C108.797 40.7913 109.267 40.6607 109.747 40.5718C110.228 40.4829 110.692 40.4385 111.139 40.4385C112.122 40.4385 113.067 40.594 113.972 40.9079C114.878 41.2218 115.683 41.7024 116.386 42.3496C117.092 42.9996 117.656 43.8357 118.081 44.8663C118.506 45.894 118.717 47.1135 118.717 48.5218V60.3274H118.72Z" fill="url(#paint9_linear_2760_91768)"/>
<path d="M83.9722 25.2108L83.9639 45.4552C83.9639 45.9886 84.4444 46.4219 85.0333 46.4219C85.625 46.4219 86.1055 45.9886 86.1055 45.4552L86.1139 25.2108C86.1139 24.6775 85.6333 24.2441 85.0444 24.2441C84.4528 24.2441 83.9722 24.6775 83.9722 25.208V25.2108Z" fill="url(#paint10_linear_2760_91768)"/>
<path d="M84.6249 44.1946C84.7944 44.2141 84.9138 44.353 84.8916 44.503C84.5305 47.1252 84.6027 49.7669 84.6722 52.3224C84.7416 54.8974 84.8166 57.5613 84.4499 60.2252C84.4305 60.378 84.275 60.4863 84.1055 60.4669C83.9361 60.4474 83.8166 60.3085 83.8388 60.1585C84.2 57.5363 84.1277 54.8946 84.0555 52.3391C83.9833 49.7641 83.9111 47.1002 84.2777 44.4363C84.2972 44.2835 84.4527 44.1752 84.6222 44.1946H84.6249Z" fill="#DAAB71"/>
<path d="M84.7612 44.1191C84.9306 44.1386 85.0501 44.2803 85.0278 44.4358C84.6834 46.9941 84.8889 49.4775 85.1084 52.1053C85.3306 54.783 85.5612 57.5553 85.1695 60.4636C85.1473 60.6191 84.9945 60.7275 84.8251 60.7108C84.6556 60.6914 84.5362 60.5497 84.5584 60.3941C84.9445 57.5414 84.7167 54.7997 84.4945 52.1497C84.2723 49.4941 84.0639 46.983 84.4167 44.3691C84.4362 44.2136 84.5917 44.1053 84.7612 44.1247V44.1191Z" fill="url(#paint11_linear_2760_91768)"/>
<path d="M85.6832 44.1946C85.8527 44.2141 85.9721 44.353 85.9499 44.5057C85.5888 47.1363 85.811 49.7919 86.0221 52.3557C86.236 54.9502 86.4582 57.6307 86.0916 60.3169C86.0693 60.4696 85.9166 60.578 85.7471 60.5585C85.5777 60.5391 85.4582 60.4002 85.4805 60.2474C85.8416 57.6169 85.6221 54.9641 85.4082 52.3974C85.1943 49.803 84.9721 47.1224 85.3388 44.4363C85.3582 44.2835 85.5138 44.1752 85.6805 44.1946H85.6832Z" fill="url(#paint12_linear_2760_91768)"/>
<path d="M85.5834 44.1949C85.7529 44.2143 85.8695 44.3532 85.8501 44.506C85.4917 47.1227 86.0056 49.7727 86.5001 52.3338C87.0029 54.9338 87.5223 57.6255 87.1529 60.3255C87.1306 60.4782 86.9779 60.5866 86.8084 60.5671C86.6417 60.5477 86.5195 60.4088 86.5417 60.256C86.9001 57.6393 86.389 54.9893 85.8917 52.4282C85.389 49.8282 84.8695 47.1366 85.239 44.4366C85.2584 44.2838 85.414 44.1755 85.5834 44.1921V44.1949Z" fill="url(#paint13_linear_2760_91768)"/>
<path d="M84.3195 44.1946C84.4862 44.2141 84.6056 44.353 84.5862 44.503C84.2251 47.1252 84.2973 49.7669 84.3668 52.3224C84.439 54.8974 84.5112 57.5613 84.1445 60.2252C84.1223 60.378 83.9695 60.4863 83.8001 60.4669C83.6306 60.4474 83.5112 60.3085 83.5306 60.1585C83.8917 57.5363 83.8195 54.8946 83.7501 52.3391C83.6779 49.7641 83.6056 47.1002 83.9723 44.4363C83.9917 44.2835 84.1473 44.1752 84.3168 44.1946H84.3195Z" fill="url(#paint14_linear_2760_91768)"/>
<path d="M83.9334 44.2641C84.8667 46.9418 84.4584 49.6502 84.0667 52.2696C83.6806 54.828 83.2834 57.4752 84.175 60.0335C84.225 60.178 84.1362 60.3363 83.975 60.3807C83.8139 60.428 83.6389 60.3474 83.5889 60.2002C82.6556 57.5224 83.0612 54.8141 83.4556 52.1946C83.8389 49.6363 84.2389 46.9891 83.3445 44.4307C83.2945 44.2863 83.3834 44.1307 83.5445 44.0835C83.7056 44.0391 83.8778 44.1196 83.9306 44.2641H83.9334Z" fill="url(#paint15_linear_2760_91768)"/>
<path d="M84.3112 44.2394C85.3167 47.1727 84.8973 50.0171 84.4945 52.7644C84.1084 55.4116 83.739 57.9144 84.5945 60.406C84.6473 60.556 84.5556 60.7144 84.3945 60.7616C84.2306 60.8088 84.0584 60.7255 84.0056 60.5755C83.1112 57.9616 83.5056 55.2783 83.8862 52.6866C84.2778 49.9977 84.6862 47.2199 83.7251 44.4088C83.6723 44.2588 83.764 44.1005 83.9251 44.0533C84.089 44.006 84.2612 44.0894 84.3112 44.2394Z" fill="url(#paint16_linear_2760_91768)"/>
<path d="M84.7167 44.2005C85.6445 46.8755 85.6861 49.5505 85.725 52.1421C85.7639 54.6894 85.8028 57.3255 86.7056 59.9227C86.7584 60.0699 86.6667 60.2255 86.5056 60.2727C86.3445 60.3199 86.1723 60.2366 86.1195 60.0894C85.1917 57.4144 85.15 54.7366 85.1112 52.1477C85.075 49.5977 85.0334 46.9644 84.1306 44.3671C84.0806 44.2199 84.1695 44.0644 84.3334 44.0171C84.4945 43.9699 84.6695 44.0532 84.7195 44.2005H84.7167Z" fill="url(#paint17_linear_2760_91768)"/>
<path d="M83.9528 44.1223C84.8861 46.8279 84.7806 49.5446 84.6778 52.1723C84.5778 54.7501 84.475 57.4168 85.375 60.0307C85.425 60.1807 85.3361 60.3362 85.175 60.3834C85.0139 60.4307 84.8389 60.3473 84.7889 60.2001C83.8556 57.4946 83.9611 54.7779 84.0639 52.1501C84.1639 49.5723 84.2667 46.9029 83.3667 44.2918C83.3167 44.1446 83.4056 43.9862 83.5667 43.939C83.7278 43.8918 83.9 43.9751 83.9528 44.1251V44.1223Z" fill="url(#paint18_linear_2760_91768)"/>
<path d="M83.4304 44.5637C83.3388 47.2471 83.686 49.8915 84.0221 52.4498C84.3554 54.9887 84.6999 57.6137 84.611 60.2554C84.6054 60.4082 84.7388 60.5359 84.9082 60.5415C85.0777 60.5471 85.2193 60.4276 85.2249 60.2721C85.3166 57.5887 84.9693 54.9443 84.6332 52.3859C84.2999 49.8471 83.9554 47.2221 84.0443 44.5832C84.0499 44.4304 83.9166 44.3026 83.7443 44.2971C83.5749 44.2915 83.4332 44.411 83.4277 44.5665L83.4304 44.5637Z" fill="url(#paint19_linear_2760_91768)"/>
<path d="M83.5693 44.5556C83.486 47.1806 83.9499 49.6473 84.4415 52.2612C84.9332 54.8695 85.4416 57.5695 85.3499 60.4278C85.3443 60.5834 85.4777 60.7139 85.6499 60.7167C85.8193 60.7223 85.961 60.6001 85.9666 60.4445C86.061 57.5278 85.5471 54.8028 85.0499 52.1667C84.5638 49.5806 84.1027 47.1389 84.186 44.5723C84.1916 44.4167 84.0582 44.2862 83.886 44.2834C83.7165 44.2778 83.5749 44.4001 83.5693 44.5556Z" fill="url(#paint20_linear_2760_91768)"/>
<path d="M84.486 44.4746C84.3971 47.1634 84.8916 49.7996 85.3694 52.3496C85.8444 54.8718 86.3333 57.4801 86.2444 60.1162C86.2388 60.269 86.3721 60.3968 86.5444 60.4023C86.7138 60.4079 86.8555 60.2857 86.861 60.1329C86.9527 57.444 86.4582 54.8051 85.9777 52.2551C85.5027 49.7329 85.0138 47.1218 85.1027 44.4884C85.1082 44.3357 84.9749 44.2079 84.8055 44.2023C84.636 44.1968 84.4916 44.3162 84.4888 44.4718L84.486 44.4746Z" fill="url(#paint21_linear_2760_91768)"/>
<path d="M83.1249 44.5912C83.0333 47.2912 83.3833 49.9496 83.7194 52.5246C84.0555 55.0773 84.3999 57.7162 84.311 60.3746C84.3055 60.5301 84.4388 60.6579 84.6083 60.6634C84.7777 60.669 84.9194 60.5496 84.9249 60.394C85.0138 57.6968 84.6638 55.0357 84.3277 52.4634C83.9944 49.9107 83.6472 47.2718 83.736 44.6134C83.7416 44.4579 83.6083 44.3301 83.4388 44.3273C83.2694 44.3218 83.1277 44.444 83.1222 44.5968L83.1249 44.5912Z" fill="url(#paint22_linear_2760_91768)"/>
<path d="M83.0333 44.2754C82.8694 44.317 82.7749 44.4754 82.8222 44.6226C83.6499 47.2393 83.1833 49.9143 82.7333 52.5004C82.2722 55.1476 81.7944 57.8865 82.6611 60.6226C82.7083 60.7726 82.8777 60.8587 83.0416 60.817C83.2055 60.7754 83.2999 60.617 83.2499 60.467C82.4249 57.8504 82.8916 55.1754 83.3416 52.5893C83.8027 49.942 84.2805 47.2059 83.4138 44.467C83.3666 44.317 83.1972 44.2309 83.0333 44.2754Z" fill="url(#paint23_linear_2760_91768)"/>
<path d="M83.4083 44.2528C83.2444 44.2944 83.1528 44.45 83.1972 44.5972C84.0778 47.3583 83.5917 50.0611 83.1222 52.6722C82.6667 55.1944 82.1972 57.8028 83.0167 60.3667C83.0639 60.5139 83.2361 60.6 83.3972 60.5556C83.5611 60.5139 83.6555 60.3583 83.6083 60.2111C82.8278 57.7639 83.2667 55.3333 83.7305 52.7583C84.2139 50.0861 84.7111 47.3194 83.7917 44.4389C83.7444 44.2917 83.575 44.2056 83.4111 44.25L83.4083 44.2528Z" fill="url(#paint24_linear_2760_91768)"/>
<path d="M83.8168 44.2246C83.6529 44.2663 83.5584 44.4218 83.6057 44.569C84.4362 47.169 84.4029 49.7885 84.3723 52.319C84.3418 54.8913 84.3084 57.5524 85.164 60.2302C85.2112 60.3774 85.3807 60.4635 85.5446 60.419C85.7084 60.3774 85.8001 60.2218 85.7557 60.0774C84.9251 57.4774 84.9584 54.8579 84.989 52.3246C85.0196 49.7524 85.0529 47.0913 84.1973 44.4135C84.1501 44.2663 83.9807 44.1802 83.8168 44.2246Z" fill="url(#paint25_linear_2760_91768)"/>
<path d="M84.2833 44.0553C84.1194 44.0969 84.0249 44.2525 84.0749 44.4025C84.9138 47.0442 85.3221 49.6692 85.7194 52.208C86.1194 54.7664 86.5332 57.4108 87.3832 60.0914C87.4305 60.2386 87.6027 60.3247 87.7638 60.283C87.9277 60.2386 88.0221 60.0858 87.9749 59.9358C87.136 57.2914 86.7249 54.6664 86.3277 52.1275C85.9277 49.5692 85.5138 46.9247 84.6666 44.2442C84.6194 44.0969 84.4471 44.0108 84.286 44.0525L84.2833 44.0553Z" fill="url(#paint26_linear_2760_91768)"/>
<path d="M83.0556 44.1305C82.8917 44.1749 82.7972 44.3277 82.8444 44.4777C83.675 47.0916 83.4972 49.7416 83.3278 52.2999C83.1556 54.9082 82.975 57.6027 83.8333 60.311C83.8805 60.461 84.05 60.5471 84.2139 60.5027C84.375 60.461 84.4722 60.3055 84.425 60.1555C83.5944 57.5388 83.7722 54.8916 83.9417 52.3332C84.1139 49.7249 84.2944 47.0277 83.4361 44.3194C83.3889 44.1721 83.2194 44.086 83.0556 44.1277V44.1305Z" fill="url(#paint27_linear_2760_91768)"/>
<path d="M84.3222 44.0972C84.1611 44.1472 84.0778 44.3083 84.1305 44.4555C85.1055 47.0305 84.7917 49.7222 84.4917 52.3277C84.1833 54.9944 83.8611 57.75 84.8806 60.4444C84.9361 60.5916 85.1111 60.6694 85.2722 60.6194C85.4333 60.5694 85.5167 60.4083 85.4611 60.2611C84.4889 57.6861 84.8 54.9916 85.1028 52.3888C85.4111 49.725 85.7333 46.9666 84.7111 44.2722C84.6555 44.125 84.4805 44.0472 84.3194 44.0972H84.3222Z" fill="url(#paint28_linear_2760_91768)"/>
<path d="M84.6973 44.0552C84.5362 44.1052 84.4528 44.2635 84.5084 44.408C85.5473 47.1246 85.214 49.8469 84.8917 52.4774C84.5806 55.0163 84.2612 57.6441 85.2251 60.1691C85.2806 60.3135 85.4556 60.3913 85.6167 60.3413C85.7778 60.2913 85.864 60.133 85.8056 59.9885C84.8862 57.583 85.1862 55.133 85.5028 52.5385C85.8306 49.8469 86.1723 47.0635 85.089 44.2274C85.0334 44.083 84.8584 44.0052 84.6973 44.0552Z" fill="url(#paint29_linear_2760_91768)"/>
<path d="M85.1028 44.0113C84.9417 44.0613 84.8556 44.2196 84.9112 44.364C85.8889 46.9224 86.0056 49.539 86.1195 52.0696C86.2362 54.639 86.3556 57.3001 87.3612 59.9335C87.4167 60.0779 87.5917 60.1557 87.7528 60.1057C87.9139 60.0557 87.9973 59.8974 87.9417 59.7529C86.9639 57.1946 86.8473 54.5779 86.7334 52.0474C86.6195 49.4779 86.4973 46.8196 85.4917 44.1835C85.4362 44.039 85.2612 43.9613 85.1001 44.0113H85.1028Z" fill="url(#paint30_linear_2760_91768)"/>
<path d="M84.3389 43.9499C84.1778 43.9999 84.0917 44.1582 84.1473 44.3054C85.125 46.8776 85.1 49.5304 85.075 52.0971C85.05 54.7082 85.025 57.411 86.0361 60.0749C86.0917 60.2221 86.2667 60.2999 86.4278 60.2499C86.5861 60.1999 86.6723 60.0415 86.6195 59.8943C85.6417 57.3221 85.6667 54.6693 85.6917 52.1054C85.7167 49.4915 85.7417 46.7915 84.7306 44.1276C84.675 43.9804 84.5 43.9026 84.3389 43.9526V43.9499Z" fill="url(#paint31_linear_2760_91768)"/>
<path d="M85.7973 44.0972C85.6362 44.1472 85.5529 44.3083 85.6056 44.4555C86.5806 47.0305 86.2668 49.7222 85.9668 52.3277C85.6584 54.9944 85.3362 57.75 86.3556 60.4444C86.4112 60.5916 86.5862 60.6694 86.7473 60.6194C86.9084 60.5694 86.9918 60.4083 86.9362 60.2611C85.964 57.6861 86.2751 54.9916 86.5779 52.3888C86.8862 49.725 87.2084 46.9666 86.1862 44.2722C86.1306 44.125 85.9556 44.0472 85.7945 44.0972H85.7973Z" fill="url(#paint32_linear_2760_91768)"/>
<path d="M86.1721 44.0552C86.011 44.1052 85.9277 44.2635 85.9833 44.408C87.0221 47.1246 86.6888 49.8469 86.3666 52.4774C86.0555 55.0163 85.736 57.6441 86.6999 60.1691C86.7555 60.3135 86.9305 60.3913 87.0916 60.3413C87.2527 60.2913 87.3388 60.133 87.2805 59.9885C86.361 57.583 86.661 55.133 86.9777 52.5385C87.3055 49.8469 87.6471 47.0635 86.5638 44.2274C86.5083 44.083 86.3333 44.0052 86.1721 44.0552Z" fill="url(#paint33_linear_2760_91768)"/>
<path d="M85.8138 43.9499C85.6527 43.9999 85.5665 44.1582 85.6221 44.3054C86.5999 46.8776 86.5749 49.5304 86.5499 52.0971C86.5249 54.7082 86.4999 57.411 87.511 60.0749C87.5666 60.2221 87.7416 60.2999 87.9027 60.2499C88.061 60.1999 88.1471 60.0415 88.0943 59.8943C87.1166 57.3221 87.1416 54.6693 87.1638 52.1054C87.1888 49.4915 87.2138 46.7915 86.2027 44.1276C86.1471 43.9804 85.9721 43.9026 85.811 43.9526L85.8138 43.9499Z" fill="url(#paint34_linear_2760_91768)"/>
<path d="M87.1501 45.2393H82.9223C82.7584 45.2393 82.6223 45.3587 82.6223 45.5087C82.6223 45.6587 82.7556 45.7781 82.9195 45.7781H87.1473C87.3112 45.7781 87.4473 45.6587 87.4473 45.5115C87.4473 45.3615 87.314 45.242 87.1473 45.242L87.1501 45.2393Z" fill="url(#paint35_linear_2760_91768)"/>
<path d="M87.2389 47.0859H82.8361C82.6695 47.0859 82.5361 47.2054 82.5361 47.3526C82.5361 47.5026 82.6695 47.6221 82.8334 47.6221H87.2361C87.4028 47.6221 87.5361 47.5026 87.5361 47.3554C87.5361 47.2054 87.4028 47.0859 87.2361 47.0859H87.2389Z" fill="url(#paint36_linear_2760_91768)"/>
<path d="M87.2667 45.7969L82.7861 45.9247C82.6222 45.9302 82.4917 46.0524 82.4972 46.2024C82.5028 46.3524 82.6389 46.4691 82.8028 46.4635L87.2834 46.3385C87.45 46.333 87.5778 46.2108 87.5722 46.0608C87.5667 45.9135 87.4278 45.7941 87.2639 45.7997L87.2667 45.7969Z" fill="url(#paint37_linear_2760_91768)"/>
<path d="M87.3084 46.6556L82.8084 46.3806C82.6445 46.3695 82.5001 46.4834 82.489 46.6306C82.4779 46.7806 82.6029 46.9084 82.7667 46.9195L87.2667 47.1945C87.4306 47.2056 87.5751 47.0917 87.5862 46.9445C87.5973 46.7945 87.4723 46.6667 87.3084 46.6556Z" fill="url(#paint38_linear_2760_91768)"/>
</g>
<defs>
<radialGradient id="paint0_radial_2760_91768" cx="0" cy="0" r="1" gradientUnits="userSpaceOnUse" gradientTransform="translate(72.4516 62.876) scale(62.1835 1.61097)">
<stop stop-color="#B2B2B3"/>
<stop offset="0.16" stop-color="#CDCDCE"/>
<stop offset="0.32" stop-color="#E3E3E3"/>
<stop offset="0.5" stop-color="#F3F3F3"/>
<stop offset="0.7" stop-color="#FCFCFC"/>
<stop offset="1" stop-color="white"/>
</radialGradient>
<linearGradient id="paint1_linear_2760_91768" x1="42.8307" y1="85.4889" x2="42.8307" y2="64.9389" gradientUnits="userSpaceOnUse">
<stop stop-color="white"/>
<stop offset="0.52" stop-color="#FDFDFD"/>
<stop offset="0.71" stop-color="#F6F6F6"/>
<stop offset="0.85" stop-color="#EAEAEA"/>
<stop offset="0.95" stop-color="#D9DADA"/>
<stop offset="1" stop-color="#D0D1D1"/>
</linearGradient>
<linearGradient id="paint2_linear_2760_91768" x1="67.7862" y1="85.9918" x2="67.7862" y2="65.4418" gradientUnits="userSpaceOnUse">
<stop stop-color="white"/>
<stop offset="0.52" stop-color="#FDFDFD"/>
<stop offset="0.71" stop-color="#F6F6F6"/>
<stop offset="0.85" stop-color="#EAEAEA"/>
<stop offset="0.95" stop-color="#D9DADA"/>
<stop offset="1" stop-color="#D0D1D1"/>
</linearGradient>
<linearGradient id="paint3_linear_2760_91768" x1="94.1999" y1="85.489" x2="94.1999" y2="64.939" gradientUnits="userSpaceOnUse">
<stop stop-color="white"/>
<stop offset="0.52" stop-color="#FDFDFD"/>
<stop offset="0.71" stop-color="#F6F6F6"/>
<stop offset="0.85" stop-color="#EAEAEA"/>
<stop offset="0.95" stop-color="#D9DADA"/>
<stop offset="1" stop-color="#D0D1D1"/>
</linearGradient>
<linearGradient id="paint4_linear_2760_91768" x1="109.897" y1="85.489" x2="109.897" y2="64.939" gradientUnits="userSpaceOnUse">
<stop stop-color="white"/>
<stop offset="0.52" stop-color="#FDFDFD"/>
<stop offset="0.71" stop-color="#F6F6F6"/>
<stop offset="0.85" stop-color="#EAEAEA"/>
<stop offset="0.95" stop-color="#D9DADA"/>
<stop offset="1" stop-color="#D0D1D1"/>
</linearGradient>
<linearGradient id="paint5_linear_2760_91768" x1="85.1471" y1="97.6169" x2="85.1471" y2="61.0308" gradientUnits="userSpaceOnUse">
<stop stop-color="white"/>
<stop offset="0.52" stop-color="#FDFDFD"/>
<stop offset="0.71" stop-color="#F6F6F6"/>
<stop offset="0.85" stop-color="#EAEAEA"/>
<stop offset="0.95" stop-color="#D9DADA"/>
<stop offset="1" stop-color="#D0D1D1"/>
</linearGradient>
<linearGradient id="paint6_linear_2760_91768" x1="72.6112" y1="80.4386" x2="49.739" y2="57.5691" gradientUnits="userSpaceOnUse">
<stop stop-color="#E47913"/>
<stop offset="1" stop-color="#EFC521"/>
</linearGradient>
<linearGradient id="paint7_linear_2760_91768" x1="85.1083" y1="67.9421" x2="62.2361" y2="45.0726" gradientUnits="userSpaceOnUse">
<stop stop-color="#E47913"/>
<stop offset="1" stop-color="#EFC521"/>
</linearGradient>
<linearGradient id="paint8_linear_2760_91768" x1="100.43" y1="52.6197" x2="77.5583" y2="29.7503" gradientUnits="userSpaceOnUse">
<stop stop-color="#E47913"/>
<stop offset="1" stop-color="#EFC521"/>
</linearGradient>
<linearGradient id="paint9_linear_2760_91768" x1="105.222" y1="47.8274" x2="82.3529" y2="24.9551" gradientUnits="userSpaceOnUse">
<stop stop-color="#E47913"/>
<stop offset="1" stop-color="#EFC521"/>
</linearGradient>
<linearGradient id="paint10_linear_2760_91768" x1="83.9794" y1="35.345" x2="86.121" y2="35.3457" gradientUnits="userSpaceOnUse">
<stop stop-color="#765C2F"/>
<stop offset="1" stop-color="#9E7C44"/>
</linearGradient>
<linearGradient id="paint11_linear_2760_91768" x1="85.3739" y1="52.3526" x2="84.2239" y2="52.353" gradientUnits="userSpaceOnUse">
<stop stop-color="#D39200"/>
<stop offset="0.13" stop-color="#DB9D00"/>
<stop offset="0.44" stop-color="#EDB300"/>
<stop offset="0.74" stop-color="#F7C100"/>
<stop offset="1" stop-color="#FBC600"/>
</linearGradient>
<linearGradient id="paint12_linear_2760_91768" x1="86.2793" y1="52.3166" x2="85.1404" y2="52.317" gradientUnits="userSpaceOnUse">
<stop stop-color="#D39200"/>
<stop offset="0.13" stop-color="#DB9D00"/>
<stop offset="0.44" stop-color="#EDB300"/>
<stop offset="0.74" stop-color="#F7C100"/>
<stop offset="1" stop-color="#FBC600"/>
</linearGradient>
<linearGradient id="paint13_linear_2760_91768" x1="87.2684" y1="52.3193" x2="85.1073" y2="52.3201" gradientUnits="userSpaceOnUse">
<stop stop-color="#D39200"/>
<stop offset="0.13" stop-color="#DB9D00"/>
<stop offset="0.44" stop-color="#EDB300"/>
<stop offset="0.74" stop-color="#F7C100"/>
<stop offset="1" stop-color="#FBC600"/>
</linearGradient>
<linearGradient id="paint14_linear_2760_91768" x1="84.5822" y1="52.27" x2="83.5211" y2="52.2704" gradientUnits="userSpaceOnUse">
<stop stop-color="#D39200"/>
<stop offset="0.13" stop-color="#DB9D00"/>
<stop offset="0.44" stop-color="#EDB300"/>
<stop offset="0.74" stop-color="#F7C100"/>
<stop offset="1" stop-color="#FBC600"/>
</linearGradient>
<linearGradient id="paint15_linear_2760_91768" x1="84.9652" y1="52.0138" x2="82.5674" y2="52.2391" gradientUnits="userSpaceOnUse">
<stop stop-color="#D39200"/>
<stop offset="0.13" stop-color="#DB9D00"/>
<stop offset="0.44" stop-color="#EDB300"/>
<stop offset="0.74" stop-color="#F7C100"/>
<stop offset="1" stop-color="#FBC600"/>
</linearGradient>
<linearGradient id="paint16_linear_2760_91768" x1="85.3832" y1="52.1868" x2="82.9827" y2="52.4125" gradientUnits="userSpaceOnUse">
<stop stop-color="#D39200"/>
<stop offset="0.13" stop-color="#DB9D00"/>
<stop offset="0.44" stop-color="#EDB300"/>
<stop offset="0.74" stop-color="#F7C100"/>
<stop offset="1" stop-color="#FBC600"/>
</linearGradient>
<linearGradient id="paint17_linear_2760_91768" x1="85.9809" y1="51.9855" x2="84.8608" y2="52.0908" gradientUnits="userSpaceOnUse">
<stop stop-color="#D39200"/>
<stop offset="0.13" stop-color="#DB9D00"/>
<stop offset="0.44" stop-color="#EDB300"/>
<stop offset="0.74" stop-color="#F7C100"/>
<stop offset="1" stop-color="#FBC600"/>
</linearGradient>
<linearGradient id="paint18_linear_2760_91768" x1="85.0911" y1="51.9879" x2="83.6641" y2="52.122" gradientUnits="userSpaceOnUse">
<stop stop-color="#D39200"/>
<stop offset="0.13" stop-color="#DB9D00"/>
<stop offset="0.44" stop-color="#EDB300"/>
<stop offset="0.74" stop-color="#F7C100"/>
<stop offset="1" stop-color="#FBC600"/>
</linearGradient>
<linearGradient id="paint19_linear_2760_91768" x1="83.8843" y1="52.4485" x2="84.7831" y2="52.3643" gradientUnits="userSpaceOnUse">
<stop stop-color="#D39200"/>
<stop offset="0.13" stop-color="#DB9D00"/>
<stop offset="0.44" stop-color="#EDB300"/>
<stop offset="0.74" stop-color="#F7C100"/>
<stop offset="1" stop-color="#FBC600"/>
</linearGradient>
<linearGradient id="paint20_linear_2760_91768" x1="84.1584" y1="52.5458" x2="85.4002" y2="52.4295" gradientUnits="userSpaceOnUse">
<stop stop-color="#D39200"/>
<stop offset="0.13" stop-color="#DB9D00"/>
<stop offset="0.44" stop-color="#EDB300"/>
<stop offset="0.74" stop-color="#F7C100"/>
<stop offset="1" stop-color="#FBC600"/>
</linearGradient>
<linearGradient id="paint21_linear_2760_91768" x1="85.0607" y1="52.3492" x2="86.2942" y2="52.2337" gradientUnits="userSpaceOnUse">
<stop stop-color="#D39200"/>
<stop offset="0.13" stop-color="#DB9D00"/>
<stop offset="0.44" stop-color="#EDB300"/>
<stop offset="0.74" stop-color="#F7C100"/>
<stop offset="1" stop-color="#FBC600"/>
</linearGradient>
<linearGradient id="paint22_linear_2760_91768" x1="83.5812" y1="52.5185" x2="84.4801" y2="52.4343" gradientUnits="userSpaceOnUse">
<stop stop-color="#D39200"/>
<stop offset="0.13" stop-color="#DB9D00"/>
<stop offset="0.44" stop-color="#EDB300"/>
<stop offset="0.74" stop-color="#F7C100"/>
<stop offset="1" stop-color="#FBC600"/>
</linearGradient>
<linearGradient id="paint23_linear_2760_91768" x1="81.8214" y1="52.6337" x2="84.2489" y2="52.4648" gradientUnits="userSpaceOnUse">
<stop stop-color="#D39200"/>
<stop offset="0.13" stop-color="#DB9D00"/>
<stop offset="0.44" stop-color="#EDB300"/>
<stop offset="0.74" stop-color="#F7C100"/>
<stop offset="1" stop-color="#FBC600"/>
</linearGradient>
<linearGradient id="paint24_linear_2760_91768" x1="82.2011" y1="52.4872" x2="84.6397" y2="52.3175" gradientUnits="userSpaceOnUse">
<stop stop-color="#D39200"/>
<stop offset="0.13" stop-color="#DB9D00"/>
<stop offset="0.44" stop-color="#EDB300"/>
<stop offset="0.74" stop-color="#F7C100"/>
<stop offset="1" stop-color="#FBC600"/>
</linearGradient>
<linearGradient id="paint25_linear_2760_91768" x1="84.139" y1="52.3631" x2="85.2197" y2="52.2879" gradientUnits="userSpaceOnUse">
<stop stop-color="#D39200"/>
<stop offset="0.13" stop-color="#DB9D00"/>
<stop offset="0.44" stop-color="#EDB300"/>
<stop offset="0.74" stop-color="#F7C100"/>
<stop offset="1" stop-color="#FBC600"/>
</linearGradient>
<linearGradient id="paint26_linear_2760_91768" x1="84.611" y1="52.2663" x2="87.4292" y2="52.0702" gradientUnits="userSpaceOnUse">
<stop stop-color="#D39200"/>
<stop offset="0.13" stop-color="#DB9D00"/>
<stop offset="0.44" stop-color="#EDB300"/>
<stop offset="0.74" stop-color="#F7C100"/>
<stop offset="1" stop-color="#FBC600"/>
</linearGradient>
<linearGradient id="paint27_linear_2760_91768" x1="82.9057" y1="52.3685" x2="84.3605" y2="52.2672" gradientUnits="userSpaceOnUse">
<stop stop-color="#D39200"/>
<stop offset="0.13" stop-color="#DB9D00"/>
<stop offset="0.44" stop-color="#EDB300"/>
<stop offset="0.74" stop-color="#F7C100"/>
<stop offset="1" stop-color="#FBC600"/>
</linearGradient>
<linearGradient id="paint28_linear_2760_91768" x1="83.6168" y1="52.4889" x2="85.9689" y2="52.203" gradientUnits="userSpaceOnUse">
<stop stop-color="#D39200"/>
<stop offset="0.13" stop-color="#DB9D00"/>
<stop offset="0.44" stop-color="#EDB300"/>
<stop offset="0.74" stop-color="#F7C100"/>
<stop offset="1" stop-color="#FBC600"/>
</linearGradient>
<linearGradient id="paint29_linear_2760_91768" x1="83.9888" y1="52.3259" x2="86.3548" y2="52.0383" gradientUnits="userSpaceOnUse">
<stop stop-color="#D39200"/>
<stop offset="0.13" stop-color="#DB9D00"/>
<stop offset="0.44" stop-color="#EDB300"/>
<stop offset="0.74" stop-color="#F7C100"/>
<stop offset="1" stop-color="#FBC600"/>
</linearGradient>
<linearGradient id="paint30_linear_2760_91768" x1="85.8439" y1="52.1177" x2="87.002" y2="51.9769" gradientUnits="userSpaceOnUse">
<stop stop-color="#D39200"/>
<stop offset="0.13" stop-color="#DB9D00"/>
<stop offset="0.44" stop-color="#EDB300"/>
<stop offset="0.74" stop-color="#F7C100"/>
<stop offset="1" stop-color="#FBC600"/>
</linearGradient>
<linearGradient id="paint31_linear_2760_91768" x1="84.6808" y1="52.172" x2="86.0761" y2="52.0024" gradientUnits="userSpaceOnUse">
<stop stop-color="#D39200"/>
<stop offset="0.13" stop-color="#DB9D00"/>
<stop offset="0.44" stop-color="#EDB300"/>
<stop offset="0.74" stop-color="#F7C100"/>
<stop offset="1" stop-color="#FBC600"/>
</linearGradient>
<linearGradient id="paint32_linear_2760_91768" x1="85.0915" y1="52.4888" x2="87.4464" y2="52.2025" gradientUnits="userSpaceOnUse">
<stop stop-color="#D39200"/>
<stop offset="0.13" stop-color="#DB9D00"/>
<stop offset="0.44" stop-color="#EDB300"/>
<stop offset="0.74" stop-color="#F7C100"/>
<stop offset="1" stop-color="#FBC600"/>
</linearGradient>
<linearGradient id="paint33_linear_2760_91768" x1="85.4661" y1="52.3254" x2="87.8293" y2="52.0382" gradientUnits="userSpaceOnUse">
<stop stop-color="#D39200"/>
<stop offset="0.13" stop-color="#DB9D00"/>
<stop offset="0.44" stop-color="#EDB300"/>
<stop offset="0.74" stop-color="#F7C100"/>
<stop offset="1" stop-color="#FBC600"/>
</linearGradient>
<linearGradient id="paint34_linear_2760_91768" x1="86.1553" y1="52.1719" x2="87.5506" y2="52.0023" gradientUnits="userSpaceOnUse">
<stop stop-color="#D39200"/>
<stop offset="0.13" stop-color="#DB9D00"/>
<stop offset="0.44" stop-color="#EDB300"/>
<stop offset="0.74" stop-color="#F7C100"/>
<stop offset="1" stop-color="#FBC600"/>
</linearGradient>
<linearGradient id="paint35_linear_2760_91768" x1="85.0453" y1="45.7877" x2="85.0455" y2="45.2488" gradientUnits="userSpaceOnUse">
<stop stop-color="#765C2F"/>
<stop offset="1" stop-color="#9E7C44"/>
</linearGradient>
<linearGradient id="paint36_linear_2760_91768" x1="85.0446" y1="47.6344" x2="85.0448" y2="47.0955" gradientUnits="userSpaceOnUse">
<stop stop-color="#765C2F"/>
<stop offset="1" stop-color="#9E7C44"/>
</linearGradient>
<linearGradient id="paint37_linear_2760_91768" x1="85.045" y1="46.4731" x2="85.0452" y2="45.8064" gradientUnits="userSpaceOnUse">
<stop stop-color="#765C2F"/>
<stop offset="1" stop-color="#9E7C44"/>
</linearGradient>
<linearGradient id="paint38_linear_2760_91768" x1="85.0448" y1="47.2068" x2="85.0451" y2="46.3929" gradientUnits="userSpaceOnUse">
<stop stop-color="#765C2F"/>
<stop offset="1" stop-color="#9E7C44"/>
</linearGradient>
<clipPath id="clip0_2760_91768">
<rect width="150" height="100" fill="white"/>
</clipPath>
</defs>
</svg>
