<svg width="180" height="90" viewBox="0 0 180 90" fill="none" xmlns="http://www.w3.org/2000/svg">
<g clip-path="url(#clip0_2890_194099)">
<rect width="180" height="90" rx="12" fill="#1D34AF"/>
<path d="M56.9295 41.4411C56.0489 41.2343 54.8048 41.8796 54.4234 43.1807C53.2149 40.5855 51.4645 39.263 51.4645 39.263C53.3931 42.122 55.2362 47.4372 52.3807 53.4012C49.6251 58.8376 44.727 61.4292 39.6292 61.5183C30.906 61.4756 24.2433 54.3779 25.1559 45.3981C25.3306 43.8866 25.7584 42.3608 26.5747 40.6889C27.22 39.1703 29.2947 36.2649 32.5423 34.5146C32.5423 34.5146 34.6812 33.1849 38.0857 32.8035C39.312 32.668 40.6131 33.1314 41.8359 33.7874C41.8359 33.7874 42.556 35.1242 41.3867 35.0101C40.2174 34.896 41.3011 34.2044 41.5935 34.2971C41.5935 34.2971 41.8858 34.044 41.4259 34.0191C41.4259 34.0191 39.8289 34.1118 39.9536 35.4236C40.0748 36.7391 40.3707 36.4824 40.6167 36.6C40.8627 36.7141 41.3796 36.8995 41.3546 37.313C41.3297 37.7265 41.9107 37.9832 42.3884 38.0723C42.3884 38.0723 42.1032 36.3897 43.8108 36.019C43.8108 36.019 44.1281 33.9442 48.1278 35.9512C52.124 37.9582 49.486 39.5945 49.486 39.5945C49.486 39.5945 52.042 39.295 51.1223 36.3434C51.1223 36.3434 51.1223 36.3398 51.1223 36.3327C45.8642 33.3489 44.7626 33.413 44.5665 33.4772C45.5433 32.9318 50.3452 35.6126 51.1793 36.0867C51.2293 36.0368 51.3113 35.994 51.4467 35.9726C51.4467 35.9726 54.8262 36.1081 55.4358 33.0993C55.4358 33.0993 55.9669 30.522 53.6712 30.415C53.6712 30.415 52.4199 30.3865 52.4627 31.6128C52.4805 32.1154 52.7657 32.3151 52.9653 32.3365C53.2719 32.3543 53.3076 32.2616 53.3361 32.1475C53.3575 32.0798 53.329 31.9265 53.1864 31.9194C52.9653 31.9122 52.8299 31.4916 53.2363 31.3953C53.607 31.3419 53.7995 31.6235 53.771 31.9194C53.7425 32.3507 53.1864 32.9033 52.2559 32.5325C51.3255 32.1654 51.4075 30.9034 51.6392 30.1655C51.6392 30.1655 50.0742 31.0888 48.1742 30.964C48.1742 30.964 47.9104 25 41.1051 25.1854C41.1051 25.1854 37.1124 25.1248 34.7347 26.7539C34.7347 26.7539 32.6742 27.6166 32.086 27.7984C31.259 28.0551 30.685 27.8376 30.4355 27.2886C30.1752 26.7289 30.4676 26.2299 30.9274 26.2299C31.3873 26.2299 31.4835 26.6612 31.3802 26.843C31.3802 26.843 31.259 27.089 31.644 27.1639C31.8507 27.2066 31.9684 27.089 32.0824 26.8715C32.0824 26.8715 32.528 26.1657 31.9541 25.549C31.9541 25.549 30.6422 24.3833 29.2698 25.4492C28.2716 26.2299 28.3465 27.2779 28.3607 27.6451C28.3928 28.105 29.0095 29.727 30.8347 29.5737C30.8347 29.5737 29.5122 31.0175 27.0382 31.2634C27.0382 31.2634 24.8315 31.4167 24.5749 29.6414C24.5749 29.6414 24.4715 28.3937 25.7049 28.5791C25.7049 28.5791 26.368 28.6718 26.122 29.2707C26.122 29.2707 25.9295 29.4097 25.7192 29.4311C25.5089 29.4561 25.352 29.702 25.4376 29.9979C25.5267 30.3152 25.9117 30.3758 26.6603 30.2368C27.4054 30.0977 28.129 29.2671 27.8046 28.2084C27.4802 27.1496 26.7387 26.4794 25.2344 26.5935C23.73 26.7076 21.6588 27.7235 21.7123 30.0977C21.7658 32.4719 22.8637 33.7161 24.9278 34.2258C24.9278 34.2258 24.9207 34.233 24.9135 34.2437C25.7192 34.265 27.22 34.2151 29.0416 33.2883C29.0416 33.2883 30.3998 32.7571 31.5976 31.5736C32.389 30.7929 33.9112 29.6379 34.7703 29.2208C34.7703 29.2208 34.6384 31.9657 37.3121 30.9034C37.3121 30.9034 34.5493 27.9766 39.7148 27.2387C39.7148 27.2387 39.7683 28.2084 39.8645 28.5078C39.8645 28.5078 38.2568 28.3937 37.3049 28.5078C37.3049 28.5078 36.4244 29.6593 37.8147 30.9747C37.8147 30.9747 34.6919 32.5646 34.5208 29.8446C34.5208 29.8446 32.5316 31.0424 31.5156 32.1261C30.5531 33.1528 28.3429 34.7641 25.4768 34.6964C22.7176 37.6481 21.7943 40.336 21.7943 40.336C21.2809 41.4839 20.7676 43.1308 20.5894 45.2448C19.4949 54.8663 26.8136 65.1794 38.927 64.9976C43.9391 64.8515 49.9317 62.2848 52.8691 57.3047C55.2789 53.3762 55.7744 49.8078 55.4607 46.8953C55.4037 46.382 55.3146 45.8972 55.2041 45.4337C55.2041 45.4123 55.2041 45.3874 55.2041 45.366C55.2041 44.6245 55.6319 44.5675 55.6604 44.7493C55.6604 44.7493 55.5463 44.7849 55.5356 44.8954C55.5106 45.1806 55.9741 45.2234 56.0489 44.8206C56.1452 44.3001 55.5142 44.0541 55.2326 44.432C55.1435 44.5532 55.0829 44.6922 55.0543 44.8598C55.0151 44.7279 54.9759 44.596 54.9331 44.4712C54.9866 44.2288 55.0936 43.9864 55.2754 43.7547C55.7744 43.1166 56.63 43.4552 56.5266 43.9365C56.5266 43.9365 56.2771 43.8331 56.163 44.104C56.0561 44.3536 56.3413 44.7243 56.7298 44.5283C57.3287 44.2252 57.2539 43.0061 56.1737 42.8243C55.5035 42.7102 54.9046 43.1986 54.8012 44.0969C54.7549 43.9721 54.7086 43.8474 54.6586 43.7262C54.8369 42.9562 55.4393 42.1933 56.794 42.318C56.794 42.318 56.794 42.6638 57.2111 42.6425C57.6246 42.6211 57.9134 41.655 56.9188 41.4197L56.9295 41.4411ZM50.035 32.2759C50.035 32.2759 50.1741 31.9515 50.4878 31.734C50.4878 31.734 49.7427 32.6787 50.8086 33.0174C50.8086 33.0174 50.388 33.0423 50.0493 32.4648C50.0493 32.4648 49.2579 32.1404 48.6911 32.2509C48.6911 32.2509 49.4112 32.0691 50.035 32.2759ZM45.7358 30.4827C45.718 30.7323 45.5041 30.939 45.251 30.939C44.9979 30.939 44.809 30.7358 44.8268 30.4827C44.8446 30.2332 45.0585 30.0264 45.3116 30.0264C45.5647 30.0264 45.7537 30.2296 45.7358 30.4827ZM45.1227 29.3705C45.1227 29.3705 43.2012 29.1744 42.6059 28.875C42.6059 28.875 41.5685 28.3403 41.4616 27.0498C41.4616 27.0498 44.7127 26.9001 45.1191 29.3741L45.1227 29.3705Z" fill="white"/>
<path d="M39.3939 56.0688C44.2076 56.0688 48.1099 52.1665 48.1099 47.3528C48.1099 42.539 44.2076 38.6367 39.3939 38.6367C34.5801 38.6367 30.6778 42.539 30.6778 47.3528C30.6778 52.1665 34.5801 56.0688 39.3939 56.0688Z" fill="#F6B100"/>
<path d="M71.7129 50.9232C70.0089 51.8679 67.8023 52.4703 65.0894 52.7199V49.8823L66.6045 49.5971V39.4729H65.1857V36.728H66.6045V33.0383H70.1052V36.728H71.2423V39.4729H70.1052V48.8413L71.7129 48.2745V50.9232ZM77.4844 50.2637V39.0023H75.9693V50.4526C75.9052 51.4615 76.3793 51.9356 77.3882 51.8715H82.4966C83.3165 51.9356 83.6944 51.5863 83.6338 50.8305V49.8858H86.7566V51.4009C86.8172 53.4186 85.8119 54.3954 83.73 54.3348H75.5915C73.3813 54.3954 72.3118 53.3544 72.376 51.212V39.0059H71.524V36.3572H72.376V34.3716H75.9729V36.3572H77.488V32.9492H80.9887V36.3572H86.0971V45.0626C86.1577 47.2728 85.1168 48.3422 82.9743 48.2781H81.4592V45.7221H81.8371C82.4039 45.7863 82.657 45.5011 82.5928 44.8701V39.0023H80.9851V50.2637H77.4844Z" fill="white"/>
<path d="M89.7829 38.3394V35.5017H94.3245V33.042H98.6772V35.5017H103.408V33.5161H107.194V35.5017H111.168V38.3394H103.789V44.2071C104.926 43.5155 105.964 42.3463 106.912 40.7064H110.887C109.436 44.2392 107.069 46.6063 103.789 47.804V50.36C103.725 51.3689 104.199 51.843 105.208 51.7789H106.345C107.165 51.843 107.543 51.4937 107.482 50.7379V49.6007H110.698V51.1158C110.758 53.3866 109.593 54.4881 107.197 54.4275H103.411C100.952 54.4881 99.7537 53.2583 99.8143 50.7379V48.845C99.2475 48.9091 98.5845 49.0018 97.8287 49.1302V46.5742C98.0177 46.5136 98.3028 46.4494 98.6807 46.3852C99.1834 46.2605 99.5648 46.1642 99.8179 46.1V38.3429H98.588C98.4597 45.8505 95.4652 51.3689 89.5975 54.9017V51.9678C92.624 48.2461 94.1712 43.7045 94.2353 38.3429H89.79L89.7829 38.3394Z" fill="white"/>
<path d="M114.954 42.6924H118.455C118.327 45.8473 117.949 48.7491 117.318 51.3978H113.343C114.227 48.7491 114.762 45.8473 114.951 42.6924H114.954ZM117.885 39.288V37.4913H113.532V34.6537H117.885V33.0459H121.952V34.6537H126.968V33.0459H130.943V34.6537H135.392V37.4913H130.943V39.288H126.968V37.4913H121.952V39.288H117.885ZM119.022 40.7995H123.375V50.0716C123.31 51.1447 123.784 51.6509 124.793 51.5867H126.59C127.474 51.6509 127.88 51.2088 127.82 50.2606V49.1234H131.228V50.9201C131.228 53.0625 130.091 54.1356 127.82 54.1356H122.711C120.188 54.1962 118.958 53.0305 119.022 50.6349V40.7959V40.7995ZM128.009 39.6658C128.7 41.5588 129.271 44.0185 129.713 47.0451H125.645C125.517 44.5853 125.139 42.1256 124.508 39.6658H128.009ZM133.688 42.6924C134.696 45.719 135.42 48.5601 135.862 51.2088H131.887C131.57 48.307 130.971 45.4694 130.091 42.6924H133.688Z" fill="white"/>
<path d="M139.174 42.5994V39.9507H158.096V42.5994H150.717V45.3443H157.529V47.993H150.717V51.5899H153.273C153.209 50.77 152.988 49.8574 152.61 48.845H156.207C156.585 49.7291 156.87 50.6417 157.059 51.5899H159.519V54.0497H137.851V51.5899H146.368V47.993H139.744V45.3443H146.368V42.5994H139.178H139.174ZM159.044 34.6497V39.0024H154.881V37.2984H142.39V39.0024H138.226V34.6497H146.268V33.042H151.095V34.6497H159.044Z" fill="white"/>
<path d="M68.6114 61.6539H66.7755V56.0108H68.533C70.6505 55.9751 71.6914 56.902 71.6558 58.7913C71.7592 60.7841 70.7468 61.7395 68.6114 61.6503V61.6539ZM68.508 56.7986H68.0339V60.9196H68.508C69.8021 60.9552 70.4224 60.2458 70.3724 58.7949C70.4259 57.4474 69.8021 56.7843 68.508 56.8021V56.7986Z" fill="white"/>
<path d="M75.3597 61.6539H74.1263V56.0107H75.3597V61.6539Z" fill="white"/>
<path d="M85.8617 61.6539H81.6623V56.0107H82.9207V60.9195H85.8581V61.6539H85.8617Z" fill="white"/>
<path d="M93.4084 58.8701C93.3193 60.6881 92.3853 61.6506 90.5993 61.7576C88.8133 61.6542 87.8793 60.6917 87.7902 58.8701C87.8758 56.9807 88.8133 56.0003 90.5993 55.9326C92.3497 56.036 93.2837 57.0163 93.4084 58.8701ZM92.1215 58.8701C92.0859 57.4869 91.5797 56.7704 90.5993 56.7169C89.619 56.7882 89.1021 57.5047 89.0522 58.8701C89.0878 60.2354 89.6047 60.9519 90.5993 61.0232C91.5975 60.9876 92.1037 60.271 92.1215 58.8701Z" fill="white"/>
<path d="M100.891 61.6544H99.7114L97.1126 57.8507V61.6544H95.8792V55.9863H97.1126L99.6579 59.9504V55.9863H100.891V61.6544Z" fill="white"/>
<path d="M108.741 57.5867H107.429C107.237 57.0092 106.827 56.7204 106.196 56.7204C105.215 56.8096 104.698 57.5154 104.649 58.8451C104.702 60.1926 105.251 60.9091 106.303 60.9983C106.966 61.0161 107.397 60.7273 107.59 60.132V59.1873H105.911V58.3995H108.77V60.4992C108.42 61.3405 107.59 61.7576 106.278 61.7576C104.424 61.6863 103.461 60.7095 103.39 58.8201C103.461 56.9842 104.395 56.0217 106.199 55.9326C107.511 55.9326 108.36 56.4852 108.745 57.5867H108.741Z" fill="white"/>
<path d="M120.316 61.6539H118.769L117.404 59.5792L116.038 61.6539H114.516L116.509 58.8448L114.644 56.0107H116.113L117.4 58.1104L118.633 56.0107H120.102L118.238 58.8448L120.312 61.6539H120.316Z" fill="white"/>
<path d="M123.788 61.6539H122.554V56.0107H123.788V61.6539Z" fill="white"/>
<path d="M131.46 61.6544H130.28L127.681 57.8507V61.6544H126.448V55.9863H127.681L130.226 59.9504V55.9863H131.46V61.6544Z" fill="white"/>
<path d="M140.593 61.6539H137.812V56.0107H140.646C141.855 56.0286 142.465 56.492 142.482 57.401C142.5 58.0498 142.194 58.4847 141.563 58.7129C142.297 58.9232 142.682 59.3617 142.718 60.0248C142.771 61.1441 142.062 61.686 140.593 61.6503V61.6539ZM140.304 56.7986H139.071V58.2958H140.358C140.935 58.2958 141.213 58.0427 141.199 57.5365C141.199 57.0481 140.903 56.8021 140.308 56.8021L140.304 56.7986ZM140.49 59.2369H139.071V60.916H140.49C141.138 60.916 141.452 60.645 141.434 60.1032C141.434 59.5257 141.121 59.2369 140.49 59.2369Z" fill="white"/>
<path d="M150.428 61.6539H149.116L148.642 60.367H146.439L145.965 61.6539H144.653L146.778 56.0107H148.3L150.425 61.6539H150.428ZM147.541 57.1658L146.699 59.5542H148.354L147.541 57.1658Z" fill="white"/>
<path d="M157.832 58.8701C157.743 60.6881 156.809 61.6506 155.023 61.7576C153.237 61.6542 152.303 60.6917 152.214 58.8701C152.3 56.9807 153.237 56.0003 155.023 55.9326C156.774 56.036 157.708 57.0163 157.832 58.8701ZM156.546 58.8701C156.51 57.4869 156.004 56.7704 155.023 56.7169C154.043 56.7882 153.526 57.5047 153.476 58.8701C153.512 60.2354 154.029 60.9519 155.023 61.0232C156.021 60.9876 156.528 60.271 156.546 58.8701Z" fill="white"/>
</g>
<defs>
<clipPath id="clip0_2890_194099">
<rect width="180" height="90" fill="white"/>
</clipPath>
</defs>
</svg>
