<svg width="150" height="100" viewBox="0 0 150 100" fill="none" xmlns="http://www.w3.org/2000/svg">
<g clip-path="url(#clip0_2760_91812)">
<path d="M150 0H0V100H150V0Z" fill="#1D2087"/>
<path d="M49.2278 47.2086C48.5417 47.0475 47.5723 47.5502 47.275 48.5641C46.3334 46.5419 44.9695 45.5113 44.9695 45.5113C46.4723 47.7391 47.9084 51.8808 45.6834 56.528C43.5361 60.7641 39.7195 62.7836 35.7473 62.853C28.95 62.8197 23.7584 57.2891 24.4695 50.2919C24.6056 49.1141 24.9389 47.9252 25.575 46.6225C26.0778 45.4391 27.6945 43.1752 30.225 41.8113C30.225 41.8113 31.8917 40.7752 34.5445 40.478C35.5 40.3725 36.5139 40.7336 37.4667 41.2447C37.4667 41.2447 38.0278 42.2863 37.1167 42.1975C36.2056 42.1086 37.05 41.5697 37.2778 41.6419C37.2778 41.6419 37.5056 41.4447 37.1472 41.4252C37.1472 41.4252 35.9028 41.4975 36 42.5197C36.0945 43.5447 36.325 43.3447 36.5167 43.4363C36.7084 43.5252 37.1111 43.6697 37.0917 43.9919C37.0723 44.3141 37.525 44.5141 37.8972 44.5836C37.8972 44.5836 37.675 43.2725 39.0056 42.9836C39.0056 42.9836 39.2528 41.3669 42.3695 42.9308C45.4834 44.4947 43.4278 45.7697 43.4278 45.7697C43.4278 45.7697 45.4195 45.5363 44.7028 43.2363C44.7028 43.2363 44.7028 43.2336 44.7028 43.228C40.6056 40.903 39.7472 40.953 39.5945 41.003C40.3556 40.578 44.0972 42.6669 44.7473 43.0363C44.7861 42.9975 44.85 42.9641 44.9556 42.9475C44.9556 42.9475 47.5889 43.053 48.0639 40.7086C48.0639 40.7086 48.4778 38.7002 46.6889 38.6169C46.6889 38.6169 45.7139 38.5947 45.7473 39.5502C45.7611 39.9419 45.9834 40.0975 46.1389 40.1141C46.3778 40.128 46.4056 40.0558 46.4278 39.9669C46.4445 39.9141 46.4223 39.7947 46.3111 39.7891C46.1389 39.7836 46.0334 39.4558 46.35 39.3808C46.6389 39.3391 46.7889 39.5586 46.7667 39.7891C46.7445 40.1252 46.3111 40.5558 45.5861 40.2669C44.8611 39.9808 44.925 38.9975 45.1056 38.4225C45.1056 38.4225 43.8861 39.1419 42.4056 39.0447C42.4056 39.0447 42.2 34.3975 36.8973 34.5419C36.8973 34.5419 33.7861 34.4947 31.9334 35.7641C31.9334 35.7641 30.3278 36.4363 29.8695 36.578C29.225 36.778 28.7778 36.6086 28.5834 36.1808C28.3806 35.7447 28.6084 35.3558 28.9667 35.3558C29.325 35.3558 29.4 35.6919 29.3195 35.8336C29.3195 35.8336 29.225 36.0252 29.525 36.0836C29.6861 36.1169 29.7778 36.0252 29.8667 35.8558C29.8667 35.8558 30.2139 35.3058 29.7667 34.8252C29.7667 34.8252 28.7445 33.9169 27.675 34.7475C26.8973 35.3558 26.9556 36.1725 26.9667 36.4586C26.9917 36.8169 27.4723 38.0808 28.8945 37.9613C28.8945 37.9613 27.8639 39.0863 25.9361 39.278C25.9361 39.278 24.2167 39.3975 24.0167 38.0141C24.0167 38.0141 23.9361 37.0419 24.8973 37.1863C24.8973 37.1863 25.4139 37.2586 25.2223 37.7252C25.2223 37.7252 25.0723 37.8336 24.9084 37.8502C24.7445 37.8697 24.6223 38.0613 24.6889 38.2919C24.7584 38.5391 25.0584 38.5863 25.6417 38.478C26.2223 38.3697 26.7861 37.7225 26.5334 36.8975C26.2806 36.0725 25.7028 35.5502 24.5306 35.6391C23.3584 35.728 21.7445 36.5197 21.7861 38.3697C21.8278 40.2197 22.6834 41.1891 24.2917 41.5863C24.2917 41.5863 24.2861 41.5919 24.2806 41.6002C24.9084 41.6169 26.0778 41.578 27.4973 40.8558C27.4973 40.8558 28.5556 40.4419 29.4889 39.5197C30.1056 38.9113 31.2917 38.0113 31.9611 37.6863C31.9611 37.6863 31.8584 39.8252 33.9417 38.9975C33.9417 38.9975 31.7889 36.7169 35.8139 36.1419C35.8139 36.1419 35.8556 36.8975 35.9306 37.1308C35.9306 37.1308 34.6778 37.0419 33.9361 37.1308C33.9361 37.1308 33.25 38.028 34.3334 39.053C34.3334 39.053 31.9 40.2919 31.7667 38.1725C31.7667 38.1725 30.2167 39.1058 29.425 39.9502C28.675 40.7502 26.9528 42.0058 24.7195 41.953C22.5695 44.253 21.85 46.3475 21.85 46.3475C21.45 47.2419 21.05 48.5252 20.9111 50.1725C20.0584 57.6697 25.7611 65.7058 35.2 65.5641C39.1056 65.4502 43.775 63.4502 46.0639 59.5697C47.9417 56.5086 48.3278 53.728 48.0834 51.4586C48.0389 51.0586 47.9695 50.6808 47.8834 50.3197C47.8834 50.303 47.8834 50.2836 47.8834 50.2669C47.8834 49.6891 48.2167 49.6447 48.2389 49.7863C48.2389 49.7863 48.15 49.8141 48.1417 49.9002C48.1223 50.1225 48.4834 50.1558 48.5417 49.8419C48.6167 49.4363 48.125 49.2447 47.9056 49.5391C47.8361 49.6336 47.7889 49.7419 47.7667 49.8725C47.7361 49.7697 47.7056 49.6669 47.6723 49.5697C47.7139 49.3808 47.7973 49.1919 47.9389 49.0113C48.3278 48.5141 48.9945 48.778 48.9139 49.153C48.9139 49.153 48.7195 49.0725 48.6306 49.2836C48.5473 49.478 48.7695 49.7669 49.0723 49.6141C49.5389 49.378 49.4806 48.428 48.6389 48.2863C48.1167 48.1975 47.65 48.578 47.5695 49.278C47.5334 49.1808 47.4973 49.0836 47.4584 48.9891C47.5973 48.3891 48.0667 47.7947 49.1222 47.8919C49.1222 47.8919 49.1222 48.1613 49.4473 48.1447C49.7695 48.128 49.9945 47.3752 49.2195 47.1919L49.2278 47.2086ZM43.8556 40.0669C43.8556 40.0669 43.9639 39.8141 44.2084 39.6447C44.2084 39.6447 43.6278 40.3808 44.4584 40.6447C44.4584 40.6447 44.1306 40.6641 43.8667 40.2141C43.8667 40.2141 43.25 39.9613 42.8084 40.0475C42.8084 40.0475 43.3695 39.9058 43.8556 40.0669ZM40.5056 38.6697C40.4917 38.8641 40.325 39.0252 40.1278 39.0252C39.9306 39.0252 39.7834 38.8669 39.7973 38.6697C39.8111 38.4752 39.9778 38.3141 40.175 38.3141C40.3723 38.3141 40.5195 38.4725 40.5056 38.6697ZM40.0278 37.803C40.0278 37.803 38.5306 37.6502 38.0667 37.4169C38.0667 37.4169 37.2584 37.0002 37.175 35.9947C37.175 35.9947 39.7084 35.878 40.025 37.8058L40.0278 37.803Z" fill="white"/>
<path d="M35.5639 58.6058C39.3148 58.6058 42.3555 55.5651 42.3555 51.8141C42.3555 48.0632 39.3148 45.0225 35.5639 45.0225C31.8129 45.0225 28.7722 48.0632 28.7722 51.8141C28.7722 55.5651 31.8129 58.6058 35.5639 58.6058Z" fill="#F6C900"/>
<path d="M60.7473 54.5974C59.4195 55.3335 57.7001 55.8029 55.5862 55.9974V53.7862L56.7667 53.564V45.6751H55.6612V43.5362H56.7667V40.6612H59.4945V43.5362H60.3806V45.6751H59.4945V52.9751L60.7473 52.5335V54.5974ZM65.2445 54.0835V45.3085H64.064V54.2307C64.014 55.0168 64.3834 55.3862 65.1695 55.3362H69.1501C69.789 55.3862 70.0834 55.114 70.0362 54.5251V53.789H72.4695V54.9696C72.5167 56.5418 71.7334 57.3029 70.1112 57.2557H63.7695C62.0473 57.3029 61.214 56.4918 61.264 54.8224V45.3112H60.6001V43.2474H61.264V41.7001H64.0667V43.2474H65.2473V40.5918H67.9751V43.2474H71.9556V50.0307C72.0029 51.7529 71.1917 52.5862 69.5223 52.5362H68.3417V50.5446H68.6362C69.0778 50.5946 69.2751 50.3724 69.2251 49.8807V45.3085H67.9723V54.0835H65.2445Z" fill="white"/>
<path d="M74.8278 44.7918V42.5807H78.3667V40.6641H81.7584V42.5807H85.4445V41.0335H88.3945V42.5807H91.4917V44.7918H85.7417V49.3641C86.6278 48.8252 87.4361 47.9141 88.175 46.6363H91.2722C90.1417 49.3891 88.2972 51.2335 85.7417 52.1668V54.1585C85.6917 54.9446 86.0611 55.3141 86.8472 55.2641H87.7334C88.3722 55.3141 88.6667 55.0418 88.6195 54.453V53.5668H91.125V54.7474C91.1722 56.5168 90.2639 57.3752 88.3972 57.328H85.4472C83.5306 57.3752 82.5972 56.4168 82.6445 54.453V52.978C82.2028 53.028 81.6861 53.1002 81.0972 53.2002V51.2085C81.2445 51.1613 81.4667 51.1113 81.7611 51.0613C82.1528 50.9641 82.45 50.8891 82.6472 50.8391V44.7946H81.6889C81.5889 50.6446 79.2556 54.9446 74.6833 57.6974V55.4113C77.0417 52.5113 78.2472 48.9724 78.2972 44.7946H74.8334L74.8278 44.7918Z" fill="white"/>
<path d="M94.4416 48.1837H97.1694C97.0694 50.642 96.7749 52.9031 96.2833 54.967H93.186C93.8749 52.9031 94.2916 50.642 94.4388 48.1837H94.4416ZM96.7249 45.5309V44.1309H93.3333V41.9198H96.7249V40.667H99.8944V41.9198H103.803V40.667H106.9V41.9198H110.367V44.1309H106.9V45.5309H103.803V44.1309H99.8944V45.5309H96.7249ZM97.611 46.7087H101.003V53.9337C100.953 54.7698 101.322 55.1642 102.108 55.1142H103.508C104.197 55.1642 104.514 54.8198 104.467 54.0809V53.1948H107.122V54.5948C107.122 56.2642 106.236 57.1003 104.467 57.1003H100.486C98.5194 57.1475 97.561 56.2392 97.611 54.3726V46.7059V46.7087ZM104.614 45.8253C105.153 47.3003 105.597 49.217 105.942 51.5753H102.772C102.672 49.6587 102.378 47.742 101.886 45.8253H104.614ZM109.039 48.1837C109.825 50.542 110.389 52.7559 110.733 54.8198H107.636C107.389 52.5587 106.922 50.3476 106.236 48.1837H109.039Z" fill="white"/>
<path d="M113.314 48.1113V46.0474H128.058V48.1113H122.308V50.2502H127.617V52.3141H122.308V55.1168H124.3C124.25 54.478 124.078 53.7668 123.783 52.978H126.586C126.881 53.6668 127.103 54.378 127.25 55.1168H129.167V57.0335H112.283V55.1168H118.92V52.3141H113.758V50.2502H118.92V48.1113H113.317H113.314ZM128.797 41.9168V45.3085H125.553V43.9807H115.82V45.3085H112.575V41.9168H118.842V40.6641H122.603V41.9168H128.797Z" fill="white"/>
<path d="M58.3305 62.9585H56.8999V58.5613H58.2693C59.9193 58.5335 60.7305 59.2558 60.7027 60.728C60.7832 62.2808 59.9943 63.0252 58.3305 62.9558V62.9585ZM58.2499 59.1752H57.8805V62.3863H58.2499C59.2582 62.4141 59.7416 61.8613 59.7027 60.7308C59.7443 59.6808 59.2582 59.1641 58.2499 59.178V59.1752Z" fill="white"/>
<path d="M63.5888 62.9587H62.6277V58.5615H63.5888V62.9587Z" fill="white"/>
<path d="M71.7722 62.9587H68.5V58.5615H69.4806V62.3865H71.7694V62.9587H71.7722Z" fill="white"/>
<path d="M77.6527 60.7889C77.5832 62.2056 76.8555 62.9556 75.4638 63.0389C74.0721 62.9583 73.3443 62.2083 73.2749 60.7889C73.3416 59.3167 74.0721 58.5528 75.4638 58.5C76.8277 58.5806 77.5555 59.3444 77.6527 60.7889ZM76.6499 60.7889C76.6221 59.7111 76.2277 59.1528 75.4638 59.1111C74.6999 59.1667 74.2971 59.725 74.2582 60.7889C74.286 61.8528 74.6888 62.4111 75.4638 62.4667C76.2416 62.4389 76.636 61.8806 76.6499 60.7889Z" fill="white"/>
<path d="M83.4834 62.9587H82.564L80.539 59.9948V62.9587H79.5779V58.542H80.539L82.5223 61.6309V58.542H83.4834V62.9587Z" fill="white"/>
<path d="M89.6001 59.7889H88.5779C88.4279 59.3389 88.1084 59.1139 87.6168 59.1139C86.8529 59.1833 86.4501 59.7333 86.4112 60.7694C86.4529 61.8194 86.8807 62.3778 87.7001 62.4472C88.2168 62.4611 88.5529 62.2361 88.7029 61.7722V61.0361H87.3946V60.4222H89.6223V62.0583C89.3501 62.7139 88.7029 63.0389 87.6807 63.0389C86.2362 62.9833 85.4862 62.2222 85.4307 60.75C85.4862 59.3194 86.214 58.5694 87.6196 58.5C88.6418 58.5 89.3029 58.9306 89.6029 59.7889H89.6001Z" fill="white"/>
<path d="M98.6195 62.9587H97.414L96.3501 61.3421L95.2862 62.9587H94.1001L95.6529 60.7699L94.2001 58.5615H95.3445L96.3473 60.1976L97.3084 58.5615H98.4529L97.0001 60.7699L98.6168 62.9587H98.6195Z" fill="white"/>
<path d="M101.325 62.9587H100.364V58.5615H101.325V62.9587Z" fill="white"/>
<path d="M107.303 62.9587H106.383L104.358 59.9948V62.9587H103.397V58.542H104.358L106.342 61.6309V58.542H107.303V62.9587Z" fill="white"/>
<path d="M114.419 62.9587H112.253V58.5615H114.461C115.403 58.5754 115.878 58.9365 115.892 59.6449C115.905 60.1504 115.667 60.4893 115.175 60.6671C115.747 60.831 116.047 61.1726 116.075 61.6893C116.117 62.5615 115.564 62.9837 114.419 62.956V62.9587ZM114.194 59.1754H113.233V60.3421H114.236C114.686 60.3421 114.903 60.1449 114.892 59.7504C114.892 59.3699 114.661 59.1782 114.197 59.1782L114.194 59.1754ZM114.339 61.0754H113.233V62.3837H114.339C114.844 62.3837 115.089 62.1726 115.075 61.7504C115.075 61.3004 114.83 61.0754 114.339 61.0754Z" fill="white"/>
<path d="M122.083 62.9587H121.061L120.692 61.956H118.975L118.605 62.9587H117.583L119.239 58.5615H120.425L122.08 62.9587H122.083ZM119.833 59.4615L119.178 61.3226H120.467L119.833 59.4615Z" fill="white"/>
<path d="M127.853 60.7889C127.783 62.2056 127.056 62.9556 125.664 63.0389C124.272 62.9583 123.545 62.2083 123.475 60.7889C123.542 59.3167 124.272 58.5528 125.664 58.5C127.028 58.5806 127.756 59.3444 127.853 60.7889ZM126.85 60.7889C126.822 59.7111 126.428 59.1528 125.664 59.1111C124.9 59.1667 124.497 59.725 124.458 60.7889C124.486 61.8528 124.889 62.4111 125.664 62.4667C126.442 62.4389 126.836 61.8806 126.85 60.7889Z" fill="white"/>
</g>
<defs>
<clipPath id="clip0_2760_91812">
<rect width="150" height="100" fill="white"/>
</clipPath>
</defs>
</svg>
