<svg width="140" height="140" viewBox="0 0 140 140" fill="none" xmlns="http://www.w3.org/2000/svg">
<g clip-path="url(#clip0_2890_194093)">
<path d="M0 70C0 108.66 31.3401 140 70 140C108.66 140 140 108.66 140 70C140 31.3401 108.66 0 70 0C31.3401 0 0 31.3401 0 70Z" fill="#94DD67"/>
<path d="M29.4804 56.3682H33.1022L33.6881 54.1826H40.53L39.9441 56.3682H46.3244L46.9104 54.1826H53.7522L53.1663 56.3682H56.7596L56.1737 58.5537H52.5804L51.9944 60.7393H45.1526L45.7385 58.5537H39.3581L38.7722 60.7393H31.9304L32.5163 58.5537H28.8944L29.4804 56.3682ZM23.3333 81.0289L28.5626 61.5119H54.9474L50.4492 78.2963C50.0344 79.8493 48.4815 81.0263 46.9881 81.0263H23.3333V81.0289ZM48.4996 63.6974H33.8411L29.7837 78.846H43.6074C44.0663 78.846 44.5329 78.5011 44.6574 78.0423L48.4996 63.7V63.6974ZM34.8263 64.8485H46.8974L46.3115 67.0341H42.3733L41.9818 68.4989H46.5811L45.9952 70.6845H45.22L44.0248 78.0423H40.46L41.6837 70.6845H41.3959L39.4255 78.0423H35.1996L37.17 70.6845H36.8537L34.1341 78.0423H30.5692L33.3174 70.6845H32.5707L33.1566 68.4989H37.7559L38.1474 67.0341H34.2378L34.8237 64.8485H34.8263Z" fill="#0E0E0F"/>
<path d="M65.2426 60.1045L60.9363 72.9534H55.7355L60.0107 60.1045H65.2426Z" fill="#0E0E0F"/>
<path d="M77.4744 67.9805L75.25 80.1371H80.8267L83.0511 67.9805H77.4744Z" fill="#0E0E0F"/>
<path d="M79.9737 63.2459C82.5811 63.2459 84.6948 61.1322 84.6948 58.5248C84.6948 55.9174 82.5811 53.8037 79.9737 53.8037C77.3663 53.8037 75.2526 55.9174 75.2526 58.5248C75.2526 61.1322 77.3663 63.2459 79.9737 63.2459Z" fill="#C74B05"/>
<path d="M73.3755 57.001H66.7359L62.8989 71.3225L70.9929 65.891L73.3755 57.001ZM67.4515 79.1028L69.0096 73.2928L60.9155 78.7243L60.2363 81.2599H74.0911L74.6692 79.1054H67.454L67.4515 79.1028Z" fill="#0E0E0F"/>
<path d="M97.1056 54.7868H96.5922L90.6137 58.7975L89.6804 65.0171H95.5137L97.1056 54.7842V54.7868ZM112.954 61.7142L116.667 55.4764H107.152L108.07 53.9805H101.718L97.9845 60.1897H104.336L105.84 57.6879H109.203L106.745 61.7116H97.9793L97.3934 63.8971H102.107L101.267 67.029H95.8067L95.2208 69.2145H100.681L99.8485 72.3179H95.1352L94.5493 74.5034H99.2626L98.2463 78.2964C98.1297 78.7268 97.6578 79.1001 97.1393 79.1001H95.2985L94.7126 81.2857H100.634C102.216 81.2857 103.839 80.049 104.24 78.5557L105.327 74.5034H109.12C110.613 74.5034 112.202 73.2953 112.612 71.7734L113.296 69.2145H114.16L114.746 67.029H113.882L115.308 61.7116H112.952L112.954 61.7142ZM107.655 71.5168C107.53 71.9757 107.095 72.3205 106.633 72.3205H105.915L106.747 69.2171H108.272L107.655 71.5168ZM108.858 67.0316H107.333L108.173 63.8997H109.698L108.858 67.0316ZM89.3097 66.399L83.8782 81.2001H89.7141L95.1456 66.399H89.3122H89.3097Z" fill="#0E0E0F"/>
<path d="M76.7433 63.0855L69.3933 68.0166L42.2333 86.24V90.2066L69.3933 71.9833L81.3996 63.9281C80.9433 64.0474 80.4663 64.12 79.9737 64.12C78.7707 64.12 77.6585 63.7337 76.7433 63.0855ZM85.4207 57.2652C85.5141 57.6696 85.5685 58.0922 85.5685 58.5252C85.5685 59.7929 85.1407 60.9596 84.4278 61.8981L96.5533 53.7626V49.7959L85.4182 57.2652H85.4207Z" fill="#C74B05"/>
<path d="M57.5763 83.2373H58.6782L57.75 86.7036C57.6282 87.1573 57.4959 87.5047 57.3508 87.751C57.1589 88.0699 56.8945 88.3266 56.5626 88.5184C56.2308 88.7103 55.8315 88.8088 55.3726 88.8088C54.8308 88.8088 54.4574 88.6584 54.2474 88.3551C54.0374 88.0518 54.0089 87.6084 54.1645 87.0225L55.2378 86.9032C55.1652 87.2169 55.1522 87.4399 55.1989 87.5669C55.2663 87.764 55.4219 87.8625 55.6656 87.8625C55.9093 87.8625 56.1063 87.7925 56.2463 87.6525C56.3863 87.5125 56.5159 87.2195 56.6352 86.7762L57.5841 83.2373H57.5763Z" fill="#0E0E0F"/>
<path d="M60.6122 83.2379H61.7193L60.9233 86.2039C60.7963 86.6757 60.7289 86.9791 60.7185 87.1191C60.7056 87.342 60.7704 87.5235 60.913 87.6583C61.0556 87.7931 61.2811 87.8631 61.5896 87.8631C61.8982 87.8631 62.1574 87.7983 62.3519 87.6713C62.5463 87.5442 62.6837 87.3861 62.7667 87.1994C62.8496 87.0128 62.9482 86.7016 63.0648 86.2687L63.8763 83.2379H64.9833L64.2133 86.1157C64.037 86.7742 63.8815 87.2383 63.7493 87.5079C63.617 87.7802 63.4459 88.0083 63.2333 88.195C63.0233 88.3816 62.7693 88.5294 62.4685 88.6409C62.1704 88.7524 61.8048 88.8068 61.3693 88.8068C60.8456 88.8068 60.4645 88.7472 60.2285 88.6254C59.99 88.5035 59.8189 88.3479 59.7126 88.1535C59.6063 87.9616 59.557 87.7568 59.5648 87.5468C59.5778 87.2331 59.6633 86.7691 59.8293 86.1572L60.6122 83.2354V83.2379Z" fill="#0E0E0F"/>
<path d="M65.4526 88.7129L66.92 83.2373H67.9959L69.2559 86.8955L70.2359 83.2373H71.2626L69.7952 88.7129H68.6856L67.4333 85.1403L66.4767 88.7129H65.45H65.4526Z" fill="#0E0E0F"/>
<path d="M73.2044 83.2379H75.3926C75.8255 83.2379 76.1444 83.2561 76.3467 83.2924C76.5489 83.3287 76.72 83.4039 76.8574 83.5179C76.9948 83.632 77.0933 83.785 77.1555 83.9742C77.2152 84.1661 77.2152 84.3787 77.153 84.6146C77.083 84.8713 76.9533 85.1072 76.7563 85.3198C76.5592 85.5324 76.3311 85.6957 76.0641 85.802C76.3726 85.8979 76.5852 86.0639 76.6992 86.2998C76.8159 86.5331 76.8315 86.8079 76.7459 87.1242C76.6785 87.3731 76.5567 87.6142 76.3778 87.8502C76.1989 88.0861 75.9915 88.2728 75.753 88.4154C75.5144 88.5554 75.2448 88.6435 74.9415 88.6746C74.7522 88.6954 74.3037 88.7083 73.5985 88.7109H71.7344L73.2018 83.2354L73.2044 83.2379ZM74.0652 84.1505L73.7255 85.4157H74.4515C74.8818 85.4157 75.1515 85.4105 75.2604 85.3976C75.4548 85.3742 75.6233 85.3094 75.7581 85.2005C75.8955 85.0916 75.9889 84.9491 76.0355 84.7728C76.0822 84.6042 76.0718 84.4668 76.007 84.3605C75.9422 84.2542 75.8204 84.1894 75.6415 84.1687C75.5352 84.1557 75.2215 84.1505 74.7004 84.1505H74.0652ZM73.4818 86.3283L73.0904 87.7931H74.1144C74.5137 87.7931 74.7678 87.7828 74.8818 87.7594C75.053 87.7283 75.2085 87.6557 75.3407 87.5416C75.4755 87.425 75.5689 87.2694 75.6207 87.0776C75.6648 86.9142 75.6622 86.7742 75.613 86.6602C75.5637 86.5461 75.4704 86.4631 75.3355 86.4087C75.1981 86.3568 74.8793 86.3309 74.3763 86.3309H73.4844L73.4818 86.3283Z" fill="#0E0E0F"/>
<path d="M77.9904 88.7129L79.4578 83.2373H80.5648L79.0974 88.7129H77.9904Z" fill="#0E0E0F"/>
<path d="M84.3578 83.2373H85.4597L84.5315 86.7036C84.4097 87.1573 84.2774 87.5047 84.1323 87.751C83.9404 88.0699 83.676 88.3266 83.3441 88.5184C83.0097 88.7103 82.613 88.8088 82.1541 88.8088C81.6123 88.8088 81.2389 88.6584 81.0289 88.3551C80.8189 88.0518 80.7904 87.6084 80.946 87.0225L82.0193 86.9032C81.9467 87.2169 81.9337 87.4399 81.9804 87.5669C82.0478 87.764 82.2034 87.8625 82.4471 87.8625C82.6908 87.8625 82.8878 87.7925 83.0278 87.6525C83.1678 87.5125 83.2974 87.2195 83.4167 86.7762L84.3656 83.2373H84.3578Z" fill="#0E0E0F"/>
<path d="M85.9004 88.7129L87.3678 83.2373H88.4748L87.0074 88.7129H85.9004Z" fill="#0E0E0F"/>
<path d="M88.8378 88.7129L90.3052 83.2373H91.3811L92.6411 86.8955L93.6211 83.2373H94.6478L93.1804 88.7129H92.0708L90.8185 85.1403L89.8619 88.7129H88.8352H88.8378Z" fill="#0E0E0F"/>
<path d="M98.2022 86.7016L98.4485 85.7786H100.831L100.248 87.9616C99.9548 88.1845 99.5685 88.3842 99.0811 88.5527C98.5963 88.7238 98.127 88.8093 97.6759 88.8093C97.1029 88.8093 96.6363 88.6901 96.2733 88.449C95.9129 88.2079 95.6848 87.8656 95.5889 87.4171C95.4929 86.9686 95.5189 86.4838 95.6589 85.9575C95.8118 85.3871 96.0659 84.879 96.4263 84.4356C96.784 83.9923 97.2248 83.6527 97.7485 83.4168C98.1477 83.2353 98.6092 83.1445 99.1329 83.1445C99.8122 83.1445 100.305 83.2871 100.611 83.5723C100.917 83.8575 101.057 84.2516 101.031 84.7545L99.877 84.9593C99.8718 84.6897 99.7837 84.4771 99.6126 84.3216C99.4414 84.166 99.1952 84.0882 98.8789 84.0882C98.3966 84.0882 97.9714 84.2412 97.6033 84.5471C97.2352 84.8531 96.9707 85.3068 96.81 85.9108C96.6363 86.5616 96.6492 87.049 96.8515 87.373C97.0537 87.6971 97.3881 87.8605 97.8574 87.8605C98.0881 87.8605 98.3344 87.8138 98.5911 87.7231C98.8477 87.6323 99.0785 87.5208 99.2781 87.3938L99.4648 86.699H98.197L98.2022 86.7016Z" fill="#0E0E0F"/>
</g>
<defs>
<clipPath id="clip0_2890_194093">
<rect width="140" height="140" fill="white"/>
</clipPath>
</defs>
</svg>
