<svg width="150" height="100" viewBox="0 0 150 100" fill="none" xmlns="http://www.w3.org/2000/svg">
<g clip-path="url(#clip0_2760_92141)">
<path d="M150 0H0V100H150V0Z" fill="#02983B"/>
<path d="M31.5861 35.3944H35.4667L36.0944 33.0527H43.425L42.7972 35.3944H49.6333L50.2611 33.0527H57.5917L56.9639 35.3944H60.8139L60.1861 37.7361H56.3361L55.7083 40.0777H48.3778L49.0056 37.7361H42.1694L41.5417 40.0777H34.2111L34.8389 37.7361H30.9583L31.5861 35.3944ZM25 61.8166L30.6028 40.9055H58.8722L54.0528 58.8888C53.6083 60.5527 51.9444 61.8138 50.3444 61.8138H25V61.8166ZM51.9639 43.2472H36.2583L31.9111 59.4777H46.7222C47.2139 59.4777 47.7139 59.1083 47.8472 58.6166L51.9639 43.25V43.2472ZM37.3139 44.4805H50.2472L49.6194 46.8222H45.4L44.9806 48.3916H49.9083L49.2806 50.7333H48.45L47.1694 58.6166H43.35L44.6611 50.7333H44.3528L42.2417 58.6166H37.7139L39.825 50.7333H39.4861L36.5722 58.6166H32.7528L35.6972 50.7333H34.8972L35.525 48.3916H40.4528L40.8722 46.8222H36.6833L37.3111 44.4805H37.3139Z" fill="white"/>
<path d="M69.9027 39.3975L65.2888 53.1641H59.7166L64.2971 39.3975H69.9027Z" fill="white"/>
<path d="M83.0083 47.8359L80.625 60.8609H86.6L88.9833 47.8359H83.0083Z" fill="white"/>
<path d="M85.686 42.7641C88.4797 42.7641 90.7443 40.4994 90.7443 37.7058C90.7443 34.9122 88.4797 32.6475 85.686 32.6475C82.8924 32.6475 80.6277 34.9122 80.6277 37.7058C80.6277 40.4994 82.8924 42.7641 85.686 42.7641Z" fill="#FFDC00"/>
<path d="M78.6166 36.0723H71.5027L67.3916 51.4167L76.0638 45.5973L78.6166 36.0723ZM72.2694 59.7528L73.9388 53.5278L65.2666 59.3473L64.5388 62.0639H79.3833L80.0027 59.7556H72.2722L72.2694 59.7528Z" fill="white"/>
<path d="M104.042 33.6998H103.492L97.0861 37.997L96.0861 44.6609H102.336L104.042 33.697V33.6998ZM121.022 41.122L125 34.4387H114.805L115.789 32.8359H108.983L104.983 39.4887H111.789L113.4 36.8082H117.003L114.369 41.1193H104.978L104.35 43.4609H109.4L108.5 46.8165H102.65L102.022 49.1582H107.872L106.98 52.4832H101.93L101.303 54.8248H106.353L105.264 58.8887C105.139 59.3498 104.633 59.7498 104.078 59.7498H102.105L101.478 62.0915H107.822C109.517 62.0915 111.255 60.7665 111.686 59.1665L112.85 54.8248H116.914C118.514 54.8248 120.217 53.5304 120.655 51.8998L121.389 49.1582H122.314L122.942 46.8165H122.017L123.544 41.1193H121.019L121.022 41.122ZM115.344 51.6248C115.211 52.1165 114.744 52.4859 114.25 52.4859H113.48L114.372 49.1609H116.005L115.344 51.6248ZM116.633 46.8193H115L115.9 43.4637H117.533L116.633 46.8193ZM95.6888 46.1415L89.8694 61.9998H96.1222L101.942 46.1415H95.6916H95.6888Z" fill="white"/>
<path d="M82.225 42.5914L74.35 47.8748L45.25 67.3998V71.6498L74.35 52.1248L87.2139 43.4942C86.725 43.622 86.2139 43.6998 85.6861 43.6998C84.3972 43.6998 83.2056 43.2859 82.225 42.5914ZM91.5222 36.3553C91.6222 36.7887 91.6805 37.2414 91.6805 37.7053C91.6805 39.0637 91.2222 40.3137 90.4583 41.3192L103.45 32.6025V28.3525L91.5194 36.3553H91.5222Z" fill="#FFDC00"/>
<path d="M61.6889 64.1836H62.8694L61.875 67.8975C61.7444 68.3836 61.6028 68.7558 61.4472 69.0197C61.2417 69.3614 60.9583 69.6364 60.6028 69.8419C60.2472 70.0475 59.8194 70.153 59.3278 70.153C58.7472 70.153 58.3472 69.9919 58.1222 69.6669C57.8972 69.3419 57.8667 68.8669 58.0333 68.2392L59.1833 68.1114C59.1056 68.4475 59.0917 68.6864 59.1417 68.8225C59.2139 69.0336 59.3806 69.1391 59.6417 69.1391C59.9028 69.1391 60.1139 69.0641 60.2639 68.9141C60.4139 68.7641 60.5528 68.4503 60.6806 67.9753L61.6972 64.1836H61.6889Z" fill="white"/>
<path d="M64.9417 64.1834H66.1278L65.275 67.3612C65.1389 67.8668 65.0667 68.1918 65.0556 68.3418C65.0417 68.5807 65.1111 68.7751 65.2639 68.9196C65.4167 69.064 65.6583 69.139 65.9889 69.139C66.3195 69.139 66.5972 69.0696 66.8056 68.9334C67.0139 68.7973 67.1611 68.6279 67.25 68.4279C67.3389 68.2279 67.4445 67.8946 67.5695 67.4307L68.4389 64.1834H69.625L68.8 67.2668C68.6111 67.9723 68.4445 68.4696 68.3028 68.7584C68.1611 69.0501 67.9778 69.2946 67.75 69.4946C67.525 69.6946 67.2528 69.8529 66.9306 69.9723C66.6111 70.0918 66.2195 70.1501 65.7528 70.1501C65.1917 70.1501 64.7833 70.0862 64.5306 69.9557C64.275 69.8251 64.0917 69.6584 63.9778 69.4501C63.8639 69.2446 63.8111 69.0251 63.8195 68.8001C63.8333 68.464 63.925 67.9668 64.1028 67.3112L64.9417 64.1807V64.1834Z" fill="white"/>
<path d="M70.1278 70.0503L71.7 64.1836H72.8528L74.2028 68.103L75.2528 64.1836H76.3528L74.7806 70.0503H73.5917L72.25 66.2225L71.225 70.0503H70.125H70.1278Z" fill="white"/>
<path d="M78.4334 64.1834H80.7778C81.2417 64.1834 81.5834 64.2029 81.8001 64.2418C82.0167 64.2807 82.2001 64.3612 82.3473 64.4834C82.4945 64.6057 82.6001 64.7696 82.6667 64.9723C82.7306 65.1779 82.7306 65.4057 82.664 65.6584C82.589 65.9334 82.4501 66.1862 82.239 66.414C82.0278 66.6418 81.7834 66.8168 81.4973 66.9307C81.8278 67.0334 82.0556 67.2112 82.1778 67.464C82.3028 67.714 82.3195 68.0084 82.2278 68.3473C82.1556 68.614 82.0251 68.8723 81.8334 69.1251C81.6417 69.3779 81.4195 69.5779 81.164 69.7307C80.9084 69.8807 80.6195 69.9751 80.2945 70.0084C80.0917 70.0307 79.6112 70.0446 78.8556 70.0473H76.8584L78.4306 64.1807L78.4334 64.1834ZM79.3556 65.1612L78.9917 66.5168H79.7695C80.2306 66.5168 80.5195 66.5112 80.6362 66.4973C80.8445 66.4723 81.0251 66.4029 81.1695 66.2862C81.3167 66.1696 81.4167 66.0168 81.4667 65.8279C81.5167 65.6473 81.5056 65.5001 81.4362 65.3862C81.3667 65.2723 81.2362 65.2029 81.0445 65.1807C80.9306 65.1668 80.5945 65.1612 80.0362 65.1612H79.3556ZM78.7306 67.4946L78.3112 69.064H79.4084C79.8362 69.064 80.1084 69.0529 80.2306 69.0279C80.4139 68.9946 80.5806 68.9168 80.7223 68.7946C80.8667 68.6696 80.9667 68.5029 81.0223 68.2973C81.0695 68.1223 81.0667 67.9723 81.014 67.8501C80.9612 67.7279 80.8612 67.639 80.7167 67.5807C80.5695 67.5251 80.2278 67.4973 79.689 67.4973H78.7334L78.7306 67.4946Z" fill="white"/>
<path d="M83.561 70.0503L85.1333 64.1836H86.3194L84.7471 70.0503H83.561Z" fill="white"/>
<path d="M90.3832 64.1836H91.5638L90.5693 67.8975C90.4388 68.3836 90.2971 68.7558 90.1416 69.0197C89.936 69.3614 89.6527 69.6364 89.2971 69.8419C88.9388 70.0475 88.5138 70.153 88.0221 70.153C87.4416 70.153 87.0416 69.9919 86.8166 69.6669C86.5916 69.3419 86.561 68.8669 86.7277 68.2392L87.8777 68.1114C87.7999 68.4475 87.786 68.6864 87.836 68.8225C87.9082 69.0336 88.0749 69.1391 88.336 69.1391C88.5971 69.1391 88.8082 69.0641 88.9582 68.9141C89.1082 68.7641 89.2471 68.4503 89.3749 67.9753L90.3916 64.1836H90.3832Z" fill="white"/>
<path d="M92.0361 70.0503L93.6084 64.1836H94.7945L93.2222 70.0503H92.0361Z" fill="white"/>
<path d="M95.1834 70.0503L96.7557 64.1836H97.9084L99.2584 68.103L100.308 64.1836H101.408L99.8362 70.0503H98.6473L97.3057 66.2225L96.2807 70.0503H95.1807H95.1834Z" fill="white"/>
<path d="M105.217 67.8941L105.481 66.9052H108.033L107.408 69.2441C107.094 69.483 106.681 69.6969 106.158 69.8775C105.639 70.0608 105.136 70.1525 104.653 70.1525C104.039 70.1525 103.539 70.0247 103.15 69.7663C102.764 69.508 102.519 69.1413 102.417 68.6608C102.314 68.1802 102.342 67.6608 102.492 67.0969C102.656 66.4858 102.928 65.9413 103.314 65.4663C103.697 64.9913 104.169 64.6275 104.731 64.3747C105.158 64.1802 105.653 64.083 106.214 64.083C106.942 64.083 107.469 64.2358 107.797 64.5413C108.125 64.8469 108.275 65.2691 108.247 65.808L107.011 66.0275C107.006 65.7386 106.911 65.5108 106.728 65.3441C106.544 65.1775 106.281 65.0941 105.942 65.0941C105.425 65.0941 104.969 65.258 104.575 65.5858C104.181 65.9136 103.897 66.3997 103.725 67.0469C103.539 67.7441 103.553 68.2663 103.769 68.6136C103.986 68.9608 104.344 69.1358 104.847 69.1358C105.094 69.1358 105.358 69.0858 105.633 68.9886C105.908 68.8913 106.156 68.7719 106.369 68.6358L106.569 67.8913H105.211L105.217 67.8941Z" fill="white"/>
</g>
<defs>
<clipPath id="clip0_2760_92141">
<rect width="150" height="100" fill="white"/>
</clipPath>
</defs>
</svg>
