<svg width="140" height="140" viewBox="0 0 140 140" fill="none" xmlns="http://www.w3.org/2000/svg">
<path d="M120 0H20C8.95431 0 0 8.9543 0 20V120C0 131.046 8.9543 140 20 140H120C131.046 140 140 131.046 140 120V20C140 8.95431 131.046 0 120 0Z" fill="#4684E2"/>
<path fill-rule="evenodd" clip-rule="evenodd" d="M23.3333 67.6127H28.4822V55.7023C28.5963 55.7879 28.6507 55.8993 28.7648 56.0419L31.9615 60.1149C32.1585 60.369 32.3296 60.623 32.5552 60.8797L34.2818 63.086C34.6785 63.5941 37.7326 67.4416 37.7611 67.6127H42.9385V48.1786C42.9385 48.036 42.91 48.0101 42.7959 48.0101H37.8181V59.9775C37.7041 59.8634 37.6496 59.7804 37.5355 59.6379L35.4692 56.9779C34.5359 55.7619 33.4315 54.4319 32.5266 53.2445L30.7715 50.9812C30.3748 50.5016 30.0066 49.9908 29.6126 49.4827C29.387 49.2286 29.2444 49.003 29.0189 48.7464C28.9048 48.6038 28.8504 48.4923 28.7078 48.3497C28.5652 48.1527 28.5107 48.0101 28.3681 48.0101H23.3333V67.6153V67.6127ZM61.1567 89.3386C61.0996 89.3101 61.2422 89.3386 61.0426 89.3101H54.4807V92.1956H59.7152C59.8837 92.1386 59.8007 92.1956 59.8837 92.0816C60.4774 92.2501 60.9026 91.6564 61.0426 91.2623C61.2111 90.7827 61.1567 89.9893 61.1567 89.3386ZM100.421 89.3956L100.647 87.9516H97.9585C97.8444 88.4882 97.7329 88.999 97.6189 89.5641C97.4763 90.2719 96.8255 92.4497 98.0726 92.4497C98.9774 92.4497 99.6567 92.5923 100.222 91.996L101.72 90.2693C102.457 89.336 102.286 89.4501 102.993 89.4501C103.361 89.4501 103.39 89.7327 103.476 90.0153C103.59 90.2979 103.673 90.4949 103.815 90.7801C103.929 91.0341 104.012 91.2597 104.126 91.5164C104.212 91.7419 104.409 92.1386 104.437 92.3356H107.323C107.266 92.1386 107.154 91.939 107.069 91.7134L106.361 89.8753C106.276 89.6497 106.219 89.4786 106.107 89.253C105.428 87.5549 105.796 87.866 102.402 87.866C102.12 87.866 101.977 88.0345 101.866 88.1771C101.847 88.1771 101.837 88.1866 101.837 88.2056C101.837 88.2056 101.809 88.2056 101.809 88.2341L100.932 88.999C100.764 89.1416 100.65 89.3386 100.424 89.3956H100.421ZM54.2241 78.8153C54.2241 79.523 54.5637 80.0597 55.1574 80.3423C55.8081 80.6534 56.4589 80.5964 57.3637 80.5964C57.3352 80.7649 56.4018 82.266 56.2333 82.5486L55.0174 84.5008C54.9318 84.6693 54.8489 84.8119 54.7348 84.983C54.6778 85.0971 54.5092 85.3512 54.4522 85.4627C54.3381 85.8308 54.3381 86.453 54.3952 86.8212C54.5092 87.669 55.2144 88.1797 56.2048 88.1797H60.8455V85.4653H57.96C57.9885 85.2967 58.2141 84.9856 58.3281 84.786C58.6107 84.2779 60.9596 80.3734 60.9596 80.1193V77.8275H58.0741C58.1311 77.5734 58.2711 77.4023 58.3852 77.1767L60.4229 73.4434C60.537 73.3008 60.7341 72.9612 60.7341 72.7927H57.3118C57.0292 73.2464 56.7466 73.726 56.4641 74.2082C56.1815 74.6879 55.9274 75.1416 55.6163 75.6497C55.3337 76.1293 55.0226 76.583 54.7685 77.0653C54.6259 77.3193 54.4859 77.519 54.4004 77.8301C54.3433 78.0841 54.2318 78.5664 54.2318 78.8204L54.2241 78.8153ZM39.4307 90.2719C39.4307 91.6304 40.3355 92.4497 41.7796 92.4497H50.3222C51.5096 92.4497 52.557 91.9701 52.557 90.7801V89.6756H43.4207C42.9955 89.6756 42.9411 89.279 42.9411 88.8564V86.6786C43.96 86.6786 51.2866 85.4912 52.3055 85.4912V82.6627C51.2581 82.7482 48.7978 83.1708 47.6389 83.3134C47.0452 83.3704 43.3948 83.9071 42.9437 83.9071V82.0404H39.4359V90.2719H39.4307ZM67.5215 48.176V67.6101H72.6418V48.0049H67.69C67.5474 48.0049 67.5215 48.0334 67.5215 48.1734V48.176ZM101.072 83.6245C101.609 83.6245 102.713 83.539 103.11 83.8501C103.364 84.0186 103.364 84.3867 103.364 84.6978H101.072V83.6219V83.6245ZM101.072 80.1167H102.514C102.768 80.1167 103.05 80.2308 103.193 80.3993C103.336 80.5679 103.361 80.9075 103.361 81.2186H101.07V80.1141L101.072 80.1167ZM103.193 77.7108H101.072V76.5234C102.431 76.5234 103.364 76.3264 103.364 77.5423C103.364 77.6849 103.336 77.7108 103.196 77.7108H103.193ZM97.79 73.8064H97.1107V76.5234C97.5904 76.5234 97.79 76.4664 97.79 76.6919V84.6978H96.9422V87.4149H107.326V84.6978H106.561V76.5234H107.269V73.8064H106.561V72.7304H103.364V73.8064H101.072V72.7304H97.79V73.8064ZM108.059 74.7682V92.4497H109.814C110.805 92.4497 111.484 91.6304 111.484 90.6401V81.1356C112.22 81.1356 113.294 80.993 113.294 81.929V92.4523H115.529C115.982 92.4523 116.208 92.3953 116.659 92.3953V81.2212C116.659 79.8056 116.913 78.3927 114.367 78.3927H111.481V75.6756H114.989C115.837 75.6756 116.602 75.196 116.602 74.4027V72.9586H109.755C108.679 72.9586 108.057 73.6664 108.057 74.7682H108.059ZM36.4881 77.8534V75.5045H46.8429C48.7096 75.5045 48.5696 76.9745 48.5696 78.0219H36.6592C36.5166 78.0219 36.4881 77.9934 36.4881 77.8534ZM32.8378 92.4497C34.2792 92.4497 36.1485 92.7608 36.4596 90.9227C36.5452 90.469 36.4881 83.0593 36.4881 81.5012C36.4881 81.2471 36.3741 80.7364 36.6592 80.7364H52.1344V75.0793C52.1344 73.7208 51.3981 72.7304 49.9566 72.7304H35.7259C33.9163 72.7304 32.8974 73.6638 32.8974 75.5019C32.9259 81.159 32.8404 86.7901 32.8404 92.4471L32.8378 92.4497ZM97.4789 53.9756C97.4789 56.493 98.3837 58.2482 100.761 59.039L103.815 60.0008C104.834 60.3404 105.881 60.8486 105.881 62.0671C105.881 62.4638 105.684 62.8864 105.402 63.143C104.243 64.3019 102.008 63.9079 100.818 63.1716C100.621 63.0575 100.479 62.9745 100.31 62.889L99.3767 62.2097C99.2341 62.0671 99.037 61.8986 98.8685 61.8416C98.783 62.0101 98.7259 62.1527 98.6144 62.3497L97.7952 63.8767C97.7096 64.0453 97.6267 64.1879 97.5411 64.3564C97.4555 64.5275 97.3726 64.696 97.287 64.893C97.1185 65.1756 96.8074 65.6293 96.7504 65.9404L98.0804 66.7597C98.5055 67.0138 99.0707 67.2679 99.5789 67.439C101.249 68.0041 101.928 68.1467 103.851 68.1467C105.239 68.1467 106.991 67.693 108.096 67.0423C109.737 66.0804 110.699 64.779 111.067 62.8553C111.349 61.1856 111.292 59.516 110.33 58.1316C110.245 57.989 110.216 57.989 110.105 57.8775C110.019 57.7634 110.019 57.709 109.908 57.5949C108.663 56.2934 106.654 55.8397 105.099 55.3316C104.391 55.106 102.835 54.6238 102.835 53.6049V53.3508C102.835 52.5316 103.883 51.8523 104.702 51.8523C105.692 51.8523 106.117 51.8523 107.022 52.306C107.673 52.5886 107.984 52.9282 108.381 53.1253L110.419 49.1353L109.06 48.513C108.552 48.316 108.098 48.1734 107.59 48.0049C107.025 47.8623 106.571 47.7793 105.949 47.6653C104.336 47.4112 102.895 47.4967 101.394 48.0619C99.1304 48.8553 97.4892 51.4271 97.4892 53.9756H97.4789ZM53.1507 67.6127H57.1952C57.2237 67.3871 59.1189 63.0575 59.2615 62.7179L63.42 52.9567C63.7881 52.109 64.1278 51.3156 64.4674 50.5249C64.5815 50.2423 65.4578 48.2616 65.4863 48.0075H59.9978L59.4041 49.506C59.207 49.9856 59.0074 50.4679 58.8104 50.976L55.5281 59.1504C55.4426 59.376 55.3311 59.7442 55.1885 59.8582C55.16 59.6042 51.3126 50.0427 50.8044 48.7982C50.7189 48.5441 50.5789 48.233 50.5218 48.0049H44.9763C45.0048 48.2019 45.1189 48.4586 45.2018 48.6271L52.1604 65.1471C52.2459 65.3441 52.3029 65.5438 52.3859 65.7408C52.5 65.9379 52.5544 66.109 52.64 66.3345C52.7541 66.5886 53.1196 67.4104 53.1481 67.6075L53.1507 67.6127ZM65.4837 87.5264H67.2933C68.2552 87.5264 68.3692 88.1486 68.3692 89.0819V89.7327H65.4837V87.5264ZM65.4837 82.6627H67.1533C68.1722 82.6627 68.3692 83.0878 68.3692 84.1041V84.8119H65.4837V82.6627ZM65.4837 77.8249H67.1533C68.1437 77.8249 68.3692 78.2501 68.3692 79.2664V79.9456H65.4837V77.8249ZM68.3692 75.0793H65.7948C65.8804 74.9653 66.3315 72.9871 66.3315 72.7875H62.9663C62.7692 73.7493 62.3155 74.7967 61.7789 75.5875C61.6104 75.8701 61.4678 75.9271 61.4678 76.3238L61.4963 79.3519C61.6933 79.2379 61.8929 79.0979 62.1185 78.9838V92.4497H72.3307C73.3211 92.4497 73.9148 91.8275 73.9148 90.7516V89.7327H71.68V87.5264H73.4067V84.8119H71.68V82.8312C71.68 82.7171 71.7085 82.6627 71.8485 82.6627H73.4041V79.9456H71.6774V77.9649C71.6774 77.8508 71.7059 77.8223 71.8459 77.8223H73.8267V75.0793H71.6774V72.7304H68.3667V75.0793H68.3692ZM82.3174 57.1438C82.2604 57.3408 82.0063 57.6234 81.8637 57.823L79.9685 60.3975C79.8 60.623 79.6574 60.8227 79.4889 61.0482C79.1207 61.5564 74.7937 67.413 74.7366 67.6101H80.8759L82.2059 65.6293C82.6026 65.0927 85.0915 61.4138 85.26 61.3023L89.3615 67.6101H95.5578C95.4437 67.413 95.2752 67.1849 95.1326 66.9879L88.3426 57.3693C88.2855 57.3123 88.2285 57.2553 88.2 57.2008L88.9933 56.0704C90.1237 54.3723 91.4537 52.5912 92.5581 50.9216L94.1707 48.6297C94.3133 48.4327 94.4818 48.2616 94.5389 48.0075H88.2881C87.7515 49.0834 86.3644 51.2327 85.6567 52.4201C85.5426 52.6171 85.3455 52.8997 85.317 53.0708C85.1744 52.9853 84.6663 52.0519 84.5522 51.8549L83.8159 50.5534C83.5618 50.1282 83.3363 49.7601 83.1081 49.309C82.8541 48.8553 82.6 48.4612 82.3718 48.0075H76.0641L82.3148 57.1438H82.3174ZM90.8029 84.6408H79.7974V81.4441H89.6415C91.2255 81.4441 90.9715 83.1423 90.9715 84.4982C90.9715 84.6123 90.9144 84.6408 90.8029 84.6408ZM83.7589 74.0604H75.5844V76.8034H82.0348C82.8826 76.8034 83.7615 77.2571 83.7615 78.1334V78.7271H79.3774C78.4726 78.7271 77.8218 78.8956 77.2852 79.2923C76.8055 79.6319 76.4374 80.3112 76.4374 81.1304V87.3267H78.8407C78.8407 87.5238 78.4441 88.3456 78.3611 88.5712C78.1355 89.0249 77.993 89.3904 77.7959 89.8442C77.6533 90.2123 76.777 92.079 76.72 92.3901C77.4278 92.3901 77.9644 92.4471 78.6722 92.4471H80.71C80.7385 92.193 81.1066 91.4282 81.2181 91.1456L82.6881 87.5808C82.7452 87.4382 82.7452 87.3267 82.9137 87.3267H87.0152C87.2692 87.3267 87.1837 87.7519 87.1837 88.006V90.6375C87.1837 91.2027 87.3522 91.5708 87.6374 91.8819C87.92 92.1645 88.3452 92.3901 88.8818 92.3901H95.3037V89.6756H90.9767C90.6655 89.6756 90.5515 89.4501 90.5515 89.139V87.3293H94.3418V81.2186C94.3418 80.5679 94.0878 79.7201 93.6055 79.3234C93.1259 78.8982 92.5011 78.7297 91.5963 78.7297H87.1267V76.806H95.0755C95.2181 76.806 95.2441 76.749 95.2441 76.6375V74.063H87.2667C87.0126 74.063 87.1241 73.4979 87.1241 72.733H83.7589V74.063V74.0604Z" fill="white"/>
</svg>
