<svg width="150" height="100" viewBox="0 0 150 100" fill="none" xmlns="http://www.w3.org/2000/svg">
<g clip-path="url(#clip0_2760_92159)">
<path d="M150 0H0V100H150V0Z" fill="#1F286F"/>
<path fill-rule="evenodd" clip-rule="evenodd" d="M25 47.4417H30.5167V34.6806C30.6389 34.7723 30.6972 34.8917 30.8194 35.0445L34.2444 39.4084C34.4556 39.6806 34.6389 39.9528 34.8806 40.2278L36.7306 42.5917C37.1556 43.1362 40.4278 47.2584 40.4583 47.4417H46.0056V26.6195C46.0056 26.4667 45.975 26.4389 45.8528 26.4389H40.5194V39.2612C40.3972 39.1389 40.3389 39.0501 40.2167 38.8973L38.0028 36.0473C37.0028 34.7445 35.8194 33.3195 34.85 32.0473L32.9694 29.6223C32.5444 29.1084 32.15 28.5612 31.7278 28.0167C31.4861 27.7445 31.3333 27.5028 31.0917 27.2278C30.9694 27.0751 30.9111 26.9556 30.7583 26.8028C30.6056 26.5917 30.5472 26.4389 30.3944 26.4389H25V47.4445V47.4417ZM65.525 70.7195C65.4639 70.6889 65.6167 70.7195 65.4028 70.6889H58.3722V73.7806H63.9806C64.1611 73.7195 64.0722 73.7806 64.1611 73.6584C64.7972 73.839 65.2528 73.2028 65.4028 72.7806C65.5833 72.2667 65.525 71.4167 65.525 70.7195ZM107.594 70.7806L107.836 69.2334H104.956C104.833 69.8084 104.714 70.3556 104.592 70.9612C104.439 71.7195 103.742 74.0528 105.078 74.0528C106.047 74.0528 106.775 74.2056 107.381 73.5667L108.986 71.7167C109.775 70.7167 109.592 70.8389 110.35 70.8389C110.744 70.8389 110.775 71.1417 110.867 71.4445C110.989 71.7473 111.078 71.9584 111.231 72.2639C111.353 72.5362 111.442 72.7778 111.564 73.0528C111.656 73.2945 111.867 73.7195 111.897 73.9306H114.989C114.928 73.7195 114.808 73.5056 114.717 73.2639L113.958 71.2945C113.867 71.0528 113.806 70.8695 113.686 70.6278C112.958 68.8084 113.353 69.1417 109.717 69.1417C109.414 69.1417 109.261 69.3223 109.142 69.4751C109.121 69.4751 109.111 69.4852 109.111 69.5056C109.111 69.5056 109.081 69.5056 109.081 69.5362L108.142 70.3556C107.961 70.5084 107.839 70.7195 107.597 70.7806H107.594ZM58.0972 59.4445C58.0972 60.2028 58.4611 60.7778 59.0972 61.0806C59.7944 61.4139 60.4917 61.3528 61.4611 61.3528C61.4306 61.5334 60.4306 63.1417 60.25 63.4445L58.9472 65.5362C58.8556 65.7167 58.7667 65.8695 58.6444 66.0528C58.5833 66.1751 58.4028 66.4473 58.3417 66.5667C58.2194 66.9612 58.2194 67.6278 58.2806 68.0223C58.4028 68.9306 59.1583 69.4778 60.2194 69.4778H65.1917V66.5695H62.1C62.1306 66.3889 62.3722 66.0556 62.4944 65.8417C62.7972 65.2973 65.3139 61.1139 65.3139 60.8417V58.3862H62.2222C62.2833 58.1139 62.4333 57.9306 62.5556 57.6889L64.7389 53.6889C64.8611 53.5362 65.0722 53.1723 65.0722 52.9917H61.4056C61.1028 53.4778 60.8 53.9917 60.4972 54.5084C60.1944 55.0223 59.9222 55.5084 59.5889 56.0528C59.2861 56.5667 58.9528 57.0528 58.6806 57.5695C58.5278 57.8417 58.3778 58.0556 58.2861 58.389C58.225 58.6612 58.1056 59.1778 58.1056 59.4501L58.0972 59.4445ZM42.2472 71.7195C42.2472 73.1751 43.2167 74.0528 44.7639 74.0528H53.9167C55.1889 74.0528 56.3111 73.5389 56.3111 72.2639V71.0806H46.5222C46.0667 71.0806 46.0083 70.6556 46.0083 70.2028V67.8695C47.1 67.8695 54.95 66.5973 56.0417 66.5973V63.5667C54.9194 63.6584 52.2833 64.1112 51.0417 64.264C50.4056 64.3251 46.4944 64.9001 46.0111 64.9001V62.9001H42.2528V71.7195H42.2472ZM72.3444 26.6167V47.4389H77.8306V26.4334H72.525C72.3722 26.4334 72.3444 26.4639 72.3444 26.6139V26.6167ZM108.292 64.5973C108.867 64.5973 110.05 64.5056 110.475 64.8389C110.747 65.0195 110.747 65.4139 110.747 65.7473H108.292V64.5945V64.5973ZM108.292 60.839H109.836C110.108 60.839 110.411 60.9612 110.564 61.1417C110.717 61.3223 110.744 61.6862 110.744 62.0195H108.289V60.8362L108.292 60.839ZM110.564 58.2612H108.292V56.989C109.747 56.989 110.747 56.7778 110.747 58.0806C110.747 58.2334 110.717 58.2612 110.567 58.2612H110.564ZM104.775 54.0778H104.047V56.989C104.561 56.989 104.775 56.9278 104.775 57.1695V65.7473H103.867V68.6584H114.992V65.7473H114.172V56.989H114.931V54.0778H114.172V52.9251H110.747V54.0778H108.292V52.9251H104.775V54.0778ZM115.778 55.1084V74.0528H117.658C118.719 74.0528 119.447 73.1751 119.447 72.1139V61.9306C120.236 61.9306 121.386 61.7778 121.386 62.7806V74.0556H123.781C124.267 74.0556 124.508 73.9945 124.992 73.9945V62.0223C124.992 60.5056 125.264 58.9917 122.536 58.9917H119.444V56.0806H123.203C124.111 56.0806 124.931 55.5667 124.931 54.7167V53.1695H117.594C116.442 53.1695 115.775 53.9278 115.775 55.1084H115.778ZM39.0944 58.4139V55.8973H50.1889C52.1889 55.8973 52.0389 57.4723 52.0389 58.5945H39.2778C39.125 58.5945 39.0944 58.5639 39.0944 58.4139ZM35.1833 74.0528C36.7278 74.0528 38.7306 74.3862 39.0639 72.4167C39.1556 71.9306 39.0944 63.9917 39.0944 62.3223C39.0944 62.0501 38.9722 61.5028 39.2778 61.5028H55.8583V55.4417C55.8583 53.9862 55.0694 52.9251 53.525 52.9251H38.2778C36.3389 52.9251 35.2472 53.9251 35.2472 55.8945C35.2778 61.9556 35.1861 67.9889 35.1861 74.0501L35.1833 74.0528ZM104.442 32.8306C104.442 35.5278 105.411 37.4084 107.958 38.2556L111.231 39.2862C112.322 39.6501 113.444 40.1945 113.444 41.5001C113.444 41.9251 113.233 42.3778 112.931 42.6528C111.689 43.8945 109.294 43.4723 108.019 42.6834C107.808 42.5612 107.656 42.4723 107.475 42.3806L106.475 41.6528C106.322 41.5001 106.111 41.3195 105.931 41.2584C105.839 41.4389 105.778 41.5917 105.658 41.8028L104.781 43.4389C104.689 43.6195 104.6 43.7723 104.508 43.9528C104.417 44.1362 104.328 44.3167 104.236 44.5278C104.056 44.8306 103.722 45.3167 103.661 45.6501L105.086 46.5278C105.542 46.8001 106.147 47.0723 106.692 47.2556C108.481 47.8612 109.208 48.014 111.269 48.014C112.756 48.014 114.633 47.5278 115.817 46.8306C117.575 45.8001 118.606 44.4056 119 42.3445C119.303 40.5556 119.242 38.7667 118.211 37.2834C118.119 37.1306 118.089 37.1306 117.969 37.0112C117.878 36.8889 117.878 36.8306 117.758 36.7084C116.425 35.3139 114.272 34.8278 112.606 34.2834C111.847 34.0417 110.181 33.5251 110.181 32.4334V32.1612C110.181 31.2834 111.303 30.5556 112.181 30.5556C113.242 30.5556 113.697 30.5556 114.667 31.0417C115.364 31.3445 115.697 31.7084 116.122 31.9195L118.306 27.6445L116.85 26.9778C116.306 26.7667 115.819 26.6139 115.275 26.4334C114.669 26.2806 114.183 26.1917 113.517 26.0695C111.789 25.7973 110.244 25.8889 108.636 26.4945C106.211 27.3445 104.453 30.1001 104.453 32.8306H104.442ZM56.9472 47.4417H61.2806C61.3111 47.2001 63.3417 42.5612 63.4944 42.1973L67.95 31.7389C68.3444 30.8306 68.7083 29.9806 69.0722 29.1334C69.1944 28.8306 70.1333 26.7084 70.1639 26.4362H64.2833L63.6472 28.0417C63.4361 28.5556 63.2222 29.0723 63.0111 29.6167L59.4944 38.3751C59.4028 38.6167 59.2833 39.0112 59.1306 39.1334C59.1 38.8612 54.9778 28.6167 54.4333 27.2834C54.3417 27.0112 54.1917 26.6778 54.1306 26.4334H48.1889C48.2194 26.6445 48.3417 26.9195 48.4306 27.1001L55.8861 44.8001C55.9778 45.0112 56.0389 45.2251 56.1278 45.4362C56.25 45.6473 56.3083 45.8306 56.4 46.0723C56.5222 46.3445 56.9139 47.2251 56.9444 47.4362L56.9472 47.4417ZM70.1611 68.7778H72.1C73.1306 68.7778 73.2528 69.4445 73.2528 70.4445V71.1417H70.1611V68.7778ZM70.1611 63.5667H71.95C73.0417 63.5667 73.2528 64.0223 73.2528 65.1112V65.8695H70.1611V63.5667ZM70.1611 58.3834H71.95C73.0111 58.3834 73.2528 58.839 73.2528 59.9278V60.6556H70.1611V58.3834ZM73.2528 55.4417H70.4944C70.5861 55.3195 71.0694 53.2001 71.0694 52.9862H67.4639C67.2528 54.0167 66.7667 55.139 66.1917 55.9862C66.0111 56.2889 65.8583 56.3501 65.8583 56.7751L65.8889 60.0195C66.1 59.8973 66.3139 59.7473 66.5556 59.6251V74.0528H77.4972C78.5583 74.0528 79.1945 73.3862 79.1945 72.2334V71.1417H76.8V68.7778H78.65V65.8695H76.8V63.7473C76.8 63.6251 76.8306 63.5667 76.9806 63.5667H78.6472V60.6556H76.7972V58.5334C76.7972 58.4112 76.8278 58.3806 76.9778 58.3806H79.1V55.4417H76.7972V52.9251H73.25V55.4417H73.2528ZM88.1972 36.2251C88.1361 36.4362 87.8639 36.7389 87.7111 36.9528L85.6806 39.7112C85.5 39.9528 85.3472 40.1667 85.1667 40.4084C84.7722 40.9528 80.1361 47.2278 80.075 47.4389H86.6528L88.0778 45.3167C88.5028 44.7417 91.1694 40.8001 91.35 40.6806L95.7444 47.4389H102.383C102.261 47.2278 102.081 46.9834 101.928 46.7723L94.6528 36.4667C94.5917 36.4056 94.5306 36.3445 94.5 36.2862L95.35 35.0751C96.5611 33.2556 97.9861 31.3473 99.1694 29.5584L100.897 27.1028C101.05 26.8917 101.231 26.7084 101.292 26.4362H94.5945C94.0194 27.5889 92.5333 29.8917 91.775 31.1639C91.6528 31.3751 91.4417 31.6778 91.4111 31.8612C91.2583 31.7695 90.7139 30.7695 90.5917 30.5584L89.8028 29.1639C89.5306 28.7084 89.2889 28.3139 89.0444 27.8306C88.7722 27.3445 88.5 26.9223 88.2556 26.4362H81.4972L88.1944 36.2251H88.1972ZM97.2889 65.6862H85.4972V62.2612H96.0444C97.7417 62.2612 97.4695 64.0806 97.4695 65.5334C97.4695 65.6556 97.4083 65.6862 97.2889 65.6862ZM89.7417 54.3501H80.9833V57.2889H87.8945C88.8028 57.2889 89.7444 57.7751 89.7444 58.7139V59.3501H85.0472C84.0778 59.3501 83.3806 59.5306 82.8056 59.9556C82.2917 60.3195 81.8972 61.0473 81.8972 61.9251V68.5639H84.4722C84.4722 68.7751 84.0472 69.6556 83.9583 69.8973C83.7167 70.3834 83.5639 70.7751 83.3528 71.2612C83.2 71.6556 82.2611 73.6556 82.2 73.9889C82.9583 73.9889 83.5333 74.0501 84.2917 74.0501H86.475C86.5056 73.7778 86.9 72.9584 87.0194 72.6556L88.5944 68.8362C88.6556 68.6834 88.6556 68.5639 88.8361 68.5639H93.2306C93.5028 68.5639 93.4111 69.0195 93.4111 69.2917V72.1112C93.4111 72.7167 93.5917 73.1112 93.8972 73.4445C94.2 73.7473 94.6556 73.9889 95.2306 73.9889H102.111V71.0806H97.475C97.1417 71.0806 97.0194 70.839 97.0194 70.5056V68.5667H101.081V62.0195C101.081 61.3223 100.808 60.414 100.292 59.989C99.7778 59.5334 99.1083 59.3528 98.1389 59.3528H93.35V57.2917H101.867C102.019 57.2917 102.047 57.2306 102.047 57.1112V54.3528H93.5C93.2278 54.3528 93.3472 53.7473 93.3472 52.9278H89.7417V54.3528V54.3501Z" fill="white"/>
</g>
<defs>
<clipPath id="clip0_2760_92159">
<rect width="150" height="100" fill="white"/>
</clipPath>
</defs>
</svg>
