<svg width="150" height="100" viewBox="0 0 150 100" fill="none" xmlns="http://www.w3.org/2000/svg">
<g clip-path="url(#clip0_2760_92183)">
<path d="M150 0H0V100H150V0Z" fill="#003705"/>
<path d="M74.9973 85.8337C55.239 85.8337 39.1667 69.7587 39.1667 50.0003C39.1667 30.242 55.239 14.167 74.9973 14.167C94.7556 14.167 110.833 30.242 110.833 50.0003C110.833 69.7587 94.7556 85.8337 74.9973 85.8337ZM74.9973 14.5864C55.4695 14.5864 39.5834 30.4725 39.5834 50.0003C39.5834 69.5281 55.4723 85.417 74.9973 85.417C94.5223 85.417 110.411 69.5281 110.411 50.0003C110.411 30.4725 94.5223 14.5864 74.9973 14.5864Z" fill="white"/>
<path d="M79.661 71.6165C79.1194 71.6054 78.5833 71.5554 78.0527 71.4026C77.9666 71.3776 77.8832 71.3637 77.7916 71.3637C77.7916 71.3081 77.5221 70.9637 77.3832 70.547C76.8805 69.0415 77.2749 68.1081 77.4583 66.6498C77.4971 66.3304 77.5221 65.5387 77.311 65.2359C77.211 65.1054 77.1166 63.7942 76.4916 63.347C76.1166 63.0748 76.361 63.5609 75.8999 62.6387C75.7138 62.2637 74.9999 62.047 74.8583 62.047C74.8583 61.6081 73.7944 61.3276 73.3749 61.1581C73.1138 61.0498 72.911 61.0026 72.7138 60.9248C72.6999 61.0165 72.6916 61.1026 72.6916 61.1887C72.9471 61.2609 73.2638 61.3581 73.4499 61.4887C73.8027 61.747 74.0971 61.647 73.8916 62.4526C73.7916 62.9526 73.6944 63.5109 73.411 63.9387C73.1583 64.3165 72.4888 67.422 72.2888 66.9415C72.1805 66.6804 71.536 65.7248 71.5888 65.2748C71.6027 65.1776 71.6305 65.0831 71.6527 64.9859C71.5055 65.0692 71.3471 65.147 71.1888 65.2165L71.211 65.2942C71.1888 65.2748 71.1721 65.2554 71.1499 65.2359C71.086 65.2637 71.0194 65.2942 70.9527 65.3192C71.0499 65.4054 71.1416 65.4804 71.2166 65.5359C71.3666 65.6415 72.1138 67.0331 72.0721 67.1304C71.9471 67.4331 70.8221 66.8442 70.5138 66.5387C70.3916 66.4192 70.1388 66.3165 69.9555 66.1304C69.8027 65.9776 69.6833 65.8415 69.5749 65.6998C69.4555 65.7193 69.3444 65.7331 69.2305 65.7415C69.3305 65.8998 69.4277 66.0526 69.6555 66.2804C69.8194 66.4442 70.2083 66.5026 70.8055 67.097C70.9499 67.2415 71.7471 67.4304 71.9555 67.4304H72.2166C72.4444 67.6581 73.4055 68.697 73.4055 68.9526C73.0194 69.3359 71.6194 69.4359 71.1055 69.0665C70.7888 68.8387 70.1333 68.5192 69.7694 68.397C69.4249 68.2859 68.9444 67.6526 68.8027 67.322C68.5694 66.7554 68.5471 66.3443 68.5471 65.7692C68.4694 65.7637 68.386 65.7554 68.2777 65.7387C68.2555 66.6109 68.4666 67.4359 69.0277 68.2137C69.2055 68.4609 69.1749 68.3304 69.2888 68.6581C69.3666 68.8915 70.0249 70.0054 70.2166 70.1442C70.7221 70.5109 71.1499 70.7804 71.7749 70.9609C72.2166 71.0859 72.036 71.3693 72.7777 71.7387C73.5277 72.1137 74.8333 72.1081 75.636 71.9998C75.9749 71.9526 77.6166 71.4942 77.7527 71.5165C78.5138 71.6415 78.8194 71.8109 79.6749 71.8276C79.6638 71.7581 79.6583 71.6887 79.6555 71.622L79.661 71.6165ZM76.2305 63.5304C76.7249 63.7776 76.7277 64.4526 76.7527 64.9415C76.7694 65.3081 76.8027 65.7387 76.7138 66.0942C76.4194 67.5748 75.0916 68.9526 75.7805 70.5192C75.6416 70.4359 75.036 70.0887 74.9666 69.9915C74.7221 69.647 74.0777 69.4637 74.0777 68.9526C74.3305 68.697 74.561 68.0415 74.5971 67.6915C74.6999 66.6526 74.3305 65.5859 74.8194 64.6081C75.2805 63.6859 75.2277 63.6248 75.2277 62.4526C75.786 62.6109 75.7416 63.2915 76.2305 63.5331V63.5304ZM72.7416 67.6498C72.3444 67.0942 72.6083 67.0859 72.9277 65.9804C73.1333 65.2859 73.1833 64.9137 73.5249 64.2387C73.9249 63.4331 74.211 62.6248 74.2305 61.7081C74.4999 61.8665 74.9221 62.5609 74.9721 62.8637C75.0166 63.1331 74.9805 63.447 74.936 63.7165C74.5555 64.8581 74.3388 64.5692 74.3388 66.0526C74.3388 67.0248 74.4388 67.9581 73.8583 68.7637C73.8249 68.8137 73.7666 68.822 73.7083 68.8387C73.7083 68.7109 72.886 67.8442 72.7444 67.6498H72.7416ZM71.9999 70.8054C71.911 70.7581 71.586 70.7109 71.4083 70.6192C70.5249 70.1776 70.3583 70.072 69.836 69.2248C69.1666 68.1443 70.5499 69.0998 70.8166 69.2081C71.0138 69.2887 71.1916 69.4692 71.4083 69.5054C71.8666 69.5776 72.5277 69.4748 73.0082 69.3915C73.7777 69.2581 74.736 70.1109 75.4166 70.5415C75.4166 70.6276 74.0055 70.9526 73.786 70.9859C73.3916 71.0498 72.4277 71.0193 71.9999 70.7998V70.8054ZM73.7444 71.8081C73.2416 71.7581 72.7638 71.5692 72.4083 71.2137C72.3694 71.1776 72.3527 71.1442 72.3333 71.097L72.4805 71.1415C75.0833 71.2192 73.7777 71.0248 75.2277 70.8804C76.1305 70.7942 76.4888 71.2554 77.3138 71.3442C75.6944 71.7581 75.6444 72.0081 73.7444 71.8109V71.8081ZM76.0499 70.547C76.0499 70.1554 75.3971 69.6942 76.1249 68.2442C76.3916 67.7137 76.9471 66.4915 77.0138 65.9442V64.9054C77.161 64.9054 77.2444 66.3859 77.236 66.4665C77.0499 67.7804 76.7027 68.4137 76.9749 69.9165C77.0582 70.3665 77.2555 70.8554 77.4527 71.2581C76.8888 71.2887 76.1388 70.8442 76.0499 70.5498V70.547Z" fill="white"/>
<path d="M79.2861 70.7748C79.4167 70.7443 79.5472 70.7248 79.6806 70.7054V70.4609C79.5167 70.497 79.35 70.5359 79.1833 70.5748C79.2056 70.6665 79.2028 70.722 79.2861 70.7776V70.7748Z" fill="white"/>
<path d="M70.3388 64.7108C69.9027 64.8302 69.4555 64.9025 69.0388 64.933C69.0999 65.0358 69.1777 65.1552 69.2916 65.3108C69.3972 65.458 69.486 65.5775 69.5805 65.6969C70.0305 65.6247 70.5055 65.4941 70.9583 65.3163C70.761 65.1441 70.5333 64.9247 70.3416 64.708L70.3388 64.7108Z" fill="white"/>
<path d="M70.9362 64.5059C70.814 64.5559 70.6917 64.6003 70.564 64.642C70.7501 64.8364 70.9473 65.0309 71.1529 65.2364C71.164 65.2281 71.1779 65.2253 71.1917 65.2197L71.1501 65.0531C71.114 64.9142 71.0279 64.7281 70.9362 64.5059Z" fill="white"/>
<path d="M71.3916 65.0227C71.4332 64.7366 71.4971 64.4533 71.5582 64.1699C71.4332 64.256 71.2971 64.3366 71.1499 64.406C71.2638 64.6949 71.3666 64.9338 71.3916 65.0227Z" fill="white"/>
<path d="M72.2361 61.3721C72.2556 61.2888 72.2723 61.2027 72.3028 61.1193C72.2778 61.1054 72.2584 61.086 72.2334 61.0693C72.2278 61.1721 72.2278 61.2749 72.2361 61.3721Z" fill="white"/>
<path d="M68.5527 65.4972V65.7638C68.6027 65.7694 68.6638 65.7777 68.7 65.7777C68.8694 65.7777 69.0527 65.7638 69.2388 65.7416C69.1194 65.5527 69.0027 65.3555 68.6611 65.0166C68.6194 65.186 68.5722 65.3194 68.5527 65.4972Z" fill="white"/>
<path d="M83.0001 57.5163C82.8807 57.7052 82.8251 57.9246 82.8057 58.1579C84.0946 58.1191 84.1696 57.8996 84.6029 56.6441V56.6302C84.5557 56.4441 84.5029 56.2357 84.4446 55.9746C84.064 56.6135 83.7807 57.2246 83.0001 57.5191V57.5163Z" fill="white"/>
<path d="M72.3361 61.7115C72.3361 61.7115 72.3333 61.7282 72.3305 61.7337C72.35 61.7754 72.3527 61.8143 72.3777 61.8532C72.6472 62.8004 72.3666 63.4809 71.8333 63.9559C71.8166 64.0948 71.8 64.2448 71.7777 64.4226C71.7555 64.6143 71.7055 64.8004 71.6555 64.9893C72.9083 64.2893 73.7139 63.1337 72.775 61.6087C72.7055 61.4948 72.6861 61.3476 72.6916 61.1893C72.6472 61.1754 72.6 61.1643 72.5611 61.1504C72.5583 61.3504 72.3916 61.5198 72.3361 61.7087V61.7115Z" fill="white"/>
<path d="M70.5639 64.6416C70.4889 64.6666 70.4166 64.6888 70.3389 64.711C70.5305 64.9277 70.7583 65.1499 70.9555 65.3194C71.0194 65.2944 71.0889 65.2638 71.1528 65.236C70.9472 65.0305 70.75 64.836 70.5639 64.6416Z" fill="white"/>
<path d="M72.2334 61.069C72.2584 61.0857 72.2778 61.1051 72.3028 61.119C72.2723 61.2023 72.2556 61.2885 72.2362 61.3718C72.2445 61.4968 72.2778 61.6162 72.3306 61.7329C72.3306 61.7273 72.3306 61.719 72.3362 61.7107C72.3917 61.5218 72.5584 61.3523 72.5612 61.1523C72.6001 61.1635 72.6473 61.1773 72.6917 61.1912C72.6917 61.1051 72.7028 61.019 72.7139 60.9273C72.5723 60.869 72.4334 60.7885 72.2889 60.6523C72.2667 60.794 72.2473 60.9357 72.2334 61.0718V61.069Z" fill="white"/>
<path d="M71.8333 63.9551C71.7499 64.0329 71.6555 64.1023 71.5583 64.169C71.4971 64.4523 71.4333 64.7329 71.3916 65.0217C71.3694 64.9329 71.2638 64.694 71.1499 64.4051C71.0805 64.4412 71.011 64.4745 70.936 64.5051C71.0277 64.7273 71.1138 64.9134 71.1499 65.0523L71.1916 65.219C71.3499 65.1495 71.5083 65.0717 71.6555 64.9884C71.7055 64.8023 71.7555 64.6162 71.7777 64.4217C71.7999 64.244 71.8166 64.094 71.8333 63.9551Z" fill="white"/>
<path d="M68.5528 65.4976C68.5722 65.3199 68.6195 65.1865 68.6611 65.0171C69 65.356 69.1195 65.5532 69.2389 65.7421C69.3528 65.7337 69.4639 65.7199 69.5834 65.7004C69.4889 65.581 69.4 65.4615 69.2945 65.3143C69.1806 65.156 69.1028 65.0393 69.0417 64.9365C68.8528 64.9476 68.6695 64.9587 68.5 64.9587C68.4639 64.9587 68.4111 64.9587 68.3611 64.956C68.3167 65.2226 68.2917 65.481 68.2861 65.7393C68.3945 65.756 68.4778 65.7643 68.5556 65.7699V65.5032L68.5528 65.4976Z" fill="white"/>
<path d="M84.8805 55.3418C84.7111 55.5474 84.5667 55.7612 84.4417 55.9724C84.5028 56.2335 84.5528 56.4418 84.6055 56.6279C84.6666 56.4501 84.7333 56.2529 84.8 56.0696C84.8111 56.0446 84.825 56.0279 84.8361 56.0057C84.8333 55.9612 84.8222 55.914 84.8194 55.8696C84.8111 55.739 84.8361 55.5501 84.8805 55.3418Z" fill="white"/>
<path d="M82.4722 57.6499C82.4139 57.8138 82.3666 57.986 82.3389 58.1638C82.5083 58.1638 82.6666 58.1638 82.8055 58.1583C82.825 57.9277 82.8805 57.7055 83 57.5166C82.8472 57.5749 82.6694 57.6194 82.4722 57.6499Z" fill="white"/>
<path d="M94.7557 55.9303C94.4279 55.3081 93.4529 53.3109 93.0445 52.9831C92.7501 52.7998 92.8279 52.0664 92.4362 51.822C92.2334 51.6998 92.0112 50.3748 91.9112 50.072C91.7501 49.5776 91.4501 49.172 91.1529 48.7637C91.0445 48.7914 90.9307 48.8164 90.8112 48.8331C91.2668 49.4192 91.4446 50.0915 91.6334 50.822C91.9973 52.2303 92.0362 52.9887 91.289 54.1914C91.1918 53.7887 91.2196 53.3192 91.214 52.9053C91.2029 51.8053 90.8862 50.7248 90.9029 49.6303C90.8418 49.3692 90.8112 49.1053 90.7695 48.8414C90.7057 48.8498 90.6362 48.8553 90.5668 48.8609C90.5696 49.0026 90.564 49.1998 90.5695 49.4248C90.6112 51.047 90.989 52.6387 90.9668 54.2664C90.7446 54.0053 90.7446 53.5831 90.6168 53.2692C90.4418 52.8248 90.0001 52.5581 89.8334 52.0942C89.3946 50.897 89.7112 50.9498 89.7973 50.0026C89.8279 49.7192 90.0557 49.2026 90.2612 48.8914C90.1418 48.9026 90.0196 48.9192 89.9029 48.9414C89.5584 49.4831 89.4168 49.6887 89.2279 50.4748C89.1668 50.7303 88.9918 50.8637 88.7807 50.9998C88.6945 51.3192 88.6029 51.6276 88.514 51.922C88.6723 51.7026 88.8473 51.5164 89.189 51.5053C89.3918 51.8331 89.5057 52.1942 89.7084 52.5192C90.1001 53.1498 90.5223 54.3053 90.789 54.7053C91.239 55.3914 90.7473 57.4248 90.7418 57.7887C90.3501 56.7859 89.8084 55.8526 89.4057 54.8581C89.1195 54.1414 88.714 53.4998 88.314 52.847C88.2945 52.8053 88.2696 52.7692 88.2501 52.7276C88.2029 52.8637 88.1501 52.9887 88.1001 53.1081C88.1612 53.1748 88.214 53.2387 88.2529 53.3137C89.2307 55.0498 89.2834 55.122 89.9751 57.0526C90.1223 57.4609 90.3834 57.8192 90.5362 58.2276C90.7668 58.8581 90.1557 60.4637 90.089 60.8776C89.964 61.6414 87.9418 57.372 87.4473 56.9081C86.8918 56.3859 86.5612 55.6053 86.2473 54.9192C86.2418 54.9109 86.2418 54.9053 86.239 54.8942C86.2334 54.897 86.2223 54.8998 86.2196 54.9026C86.1112 54.9526 86.0084 55.0053 85.9057 55.0553C86.2779 55.897 86.789 56.6498 87.3862 57.3748C88.1112 58.2387 88.314 58.7609 88.8418 59.6998C89.6807 61.1942 90.0668 61.1164 89.6751 62.0581C89.5418 62.3831 88.6362 63.9192 88.6779 64.1081C88.5945 64.097 88.5057 64.1081 88.4362 64.0498C87.3279 63.0803 87.1473 61.6914 86.8223 60.2859C86.3196 58.1359 86.1084 58.6248 85.1723 57.097C85.0307 56.7664 84.8946 56.3776 84.8446 56.0109C84.8362 56.0331 84.8196 56.0498 84.8084 56.0748C84.7418 56.2581 84.6751 56.4553 84.614 56.6331C84.7862 57.2498 84.9834 57.5692 85.6307 58.3526C86.6695 59.5998 86.4946 61.2692 86.9973 62.7414C87.164 63.2359 87.7168 64.1081 88.1751 64.3942C88.3473 65.1331 87.4779 65.622 87.2362 66.2026C87.1668 66.3637 86.4112 67.0748 86.2362 67.2387C86.7057 64.7359 84.3195 63.1914 83.3918 61.1442C83.1418 60.6553 83.0445 60.0248 82.9473 59.4887C82.8723 59.0859 82.7779 58.5998 82.814 58.1609C82.6751 58.1664 82.5168 58.1664 82.3473 58.1664C82.1973 59.0248 82.3084 59.9526 82.2445 60.1053C82.0334 60.6137 82.339 61.7526 82.5057 62.1998C83.2584 64.2526 84.1501 65.4664 83.9307 67.822C83.8723 68.4692 83.5946 69.0637 83.614 69.1442C83.4834 69.1748 83.3723 69.2164 83.2501 69.2859C82.4057 69.7609 81.5029 70.022 80.5779 70.247C80.614 70.3414 80.6446 70.4331 80.6723 70.5276C82.2084 70.1942 82.5529 69.8192 83.7168 69.3442C83.9029 69.2664 86.439 69.3748 86.9446 69.3248C88.1418 69.2164 90.0334 68.7831 90.9945 67.9831C91.9418 67.197 91.5918 66.847 92.1834 66.5137C93.0279 66.0387 93.5557 65.5026 94.1668 64.8053C94.4001 64.5359 94.9751 62.6998 95.0057 62.3387C95.0612 61.8276 95.0557 62.0248 95.2334 61.6053C96.0501 59.6498 95.7334 57.797 94.7584 55.9331L94.7557 55.9303ZM91.0973 57.7498C91.0973 57.3414 91.3362 56.6026 91.314 55.772C91.2862 54.5942 92.4223 53.2359 92.1723 52.1692C92.314 52.1998 92.3612 52.2748 92.4529 52.3859L92.7696 53.7276C92.764 55.6248 91.9584 56.7137 91.0807 58.1192L91.0973 57.747V57.7498ZM91.1557 58.4748C91.5862 57.9803 92.3862 56.7248 92.5334 56.097C92.7029 55.9303 93.1973 53.5748 93.1862 53.5803C93.4612 54.0303 93.6946 54.4498 93.9001 54.9414C94.239 56.4026 94.364 56.3248 93.8751 57.5026C93.6446 58.0498 93.4945 58.4109 93.1834 58.9081C92.9779 59.2415 92.6445 59.4748 92.514 59.6914C92.1751 60.2414 90.739 61.472 90.4584 61.0776C90.364 60.947 90.9779 58.6831 91.1557 58.4776V58.4748ZM82.7584 61.8526C82.7195 61.7387 82.339 59.5692 82.5501 59.5164L82.9057 61.022C83.1862 61.7914 84.4084 63.3748 84.9723 64.0553C86.514 65.9081 85.7251 66.7942 85.8612 67.3609C85.8279 67.822 84.8973 68.7164 84.064 68.8637C84.2168 68.2164 84.3362 67.4387 84.3057 66.7609C84.1973 64.4914 83.4807 63.6914 82.7612 61.8498L82.7584 61.8526ZM91.3529 67.1053C90.9584 67.7414 90.3279 68.172 89.6196 68.4164C86.939 69.347 86.7807 69.0026 84.2945 68.9498C85.4501 68.5414 85.8168 67.7498 87.1557 67.5748C89.3057 67.2914 87.4807 68.0164 91.2223 67.022L91.4223 66.9109C91.4084 66.9831 91.3973 67.0387 91.3529 67.1053ZM94.414 63.3498C93.9446 64.7526 93.7418 64.9609 92.6084 65.9026C92.3807 66.0914 91.9279 66.2748 91.8112 66.372C91.2695 66.8303 89.8862 67.2026 89.2918 67.2442C88.9612 67.2664 86.8057 67.2748 86.7779 67.1498C87.6195 66.2914 88.7223 64.7331 89.8834 64.6664C90.6084 64.6248 91.5973 64.5498 92.2334 64.2887C92.539 64.1609 92.7362 63.8414 92.989 63.6553C93.339 63.4053 95.0168 61.5553 94.414 63.347V63.3498ZM94.2196 62.1248C93.7307 62.4248 92.889 63.1053 92.5084 63.5442C91.8862 64.2581 89.8251 64.5859 89.139 64.1609C89.0529 63.7942 90.0918 61.9581 90.3473 61.5553L90.7223 61.4664C91.0279 61.397 92.1168 60.8498 92.2751 60.5942C92.9362 59.5303 93.4834 59.3137 93.6668 59.022C94.2251 58.1248 94.0057 57.9553 94.6918 56.8553C94.8112 57.0831 94.9223 57.2664 95.0112 57.5164C95.2612 58.5748 95.4251 59.2026 95.2557 60.2387C95.1696 60.7664 94.6751 61.847 94.2196 62.1276V62.1248Z" fill="white"/>
<path d="M90.8638 48.3474C90.8193 48.278 90.7693 48.2141 90.7249 48.1419L90.4804 47.5752C90.4277 47.7141 90.3054 48.1474 90.1943 48.4335C90.2638 48.428 90.3388 48.4141 90.4054 48.4113C90.5721 48.3946 90.7277 48.378 90.8638 48.3474Z" fill="white"/>
<path d="M88.2416 52.7247C88.2777 52.6302 88.311 52.5358 88.3471 52.4358C88.4027 52.2747 88.4554 52.0969 88.511 51.9219C88.3832 52.0997 88.2693 52.2969 88.0916 52.4413C88.1527 52.533 88.1971 52.6302 88.2416 52.7247Z" fill="white"/>
<path d="M87.575 53.1446C87.4723 53.3696 87.375 53.5446 87.2889 53.6474C86.9667 54.028 86.5028 54.2502 86.05 54.4641C86.0889 54.5835 86.1417 54.7196 86.2334 54.8918C86.7389 54.6557 87.2584 54.4057 87.6473 53.9502C87.7973 53.803 87.9167 53.528 88.0028 53.3363C88.0362 53.2696 88.0667 53.1863 88.0945 53.1085C87.9751 52.9668 87.8473 52.8307 87.775 52.6641C87.7084 52.8391 87.6445 53.0057 87.5778 53.1474L87.575 53.1446Z" fill="white"/>
<path d="M84.8806 55.3421C84.8361 55.5505 84.8111 55.7393 84.8195 55.8699C84.8222 55.9143 84.8334 55.9616 84.8361 56.006C85.0334 55.5449 85.4389 55.2782 85.8972 55.0532C85.8361 54.9199 85.7834 54.7727 85.7306 54.6338C85.3667 54.8449 85.1 55.0893 84.8806 55.3449V55.3421Z" fill="white"/>
<path d="M90.7666 48.8393C90.7832 48.8366 90.7916 48.8338 90.8082 48.8338C90.7888 48.8088 90.7721 48.781 90.7527 48.7588C90.7555 48.7866 90.7638 48.8143 90.7638 48.8421L90.7666 48.8393Z" fill="white"/>
<path d="M81.8251 57.6998C78.5251 57.6998 75.2417 57.4526 71.9306 57.4776C71.9195 57.4776 71.9084 57.472 71.9001 57.472C73.0529 56.9192 74.4029 55.9748 75.7723 55.0192C76.5445 54.4776 77.3279 53.9331 78.0834 53.4526C78.2251 53.4053 78.3445 53.3331 78.4334 53.2359C79.3417 52.6748 80.2001 52.2276 80.9445 52.0192H80.9473C83.1334 51.4109 81.8556 45.1331 81.0779 41.2776C80.8362 40.1026 80.6501 39.1581 80.6167 38.6998V38.6887C80.5501 37.5553 80.0695 36.222 79.4001 35.3498C79.2667 35.1776 79.1251 35.0192 78.9695 34.8859C78.9251 34.8414 78.8751 34.7998 78.8251 34.7637C78.989 34.7915 79.2001 34.8637 79.4501 35.0164C80.8806 35.897 81.5112 36.9026 82.114 37.8692C82.4973 38.4803 82.8723 39.0748 83.414 39.6192C84.2723 40.4748 85.2334 41.1498 86.1945 41.8248C87.1306 42.4803 88.0584 43.1331 88.8667 43.9415C89.5473 44.6192 89.5362 44.6359 89.439 44.8498C89.2945 45.1498 89.0501 45.6692 89.0501 46.972C89.0501 47.8359 88.639 49.8609 88.1556 51.497C88.3556 51.2637 88.5779 51.1303 88.7779 51.0026C88.9362 50.4026 89.0834 49.7859 89.2029 49.1998C89.4279 49.0581 89.664 48.9859 89.9029 48.9442C89.9529 48.8692 90.0029 48.7859 90.0612 48.6942C90.0973 48.6859 90.1445 48.5776 90.1945 48.4359C89.914 48.4637 89.6167 48.5053 89.3167 48.6248C89.4417 47.9415 89.514 47.3498 89.514 46.972C89.514 45.7748 89.7306 45.3164 89.8529 45.0498C90.0862 44.5609 90.1028 44.522 89.1973 43.6137C88.364 42.7803 87.4667 41.7331 86.5167 41.0637C85.5723 40.4026 84.5751 39.8637 83.7445 39.0359C82.5779 37.8637 81.8779 36.3414 80.6167 35.2831C80.739 35.2359 80.8667 35.1859 80.9945 35.1387C81.2695 35.0387 81.5612 34.9387 81.864 34.8442C83.3973 34.3609 85.164 33.997 86.5723 33.997H86.5751C87.0001 34.0026 87.6306 37.0859 88.3612 39.7803C88.8195 41.4803 89.4417 43.0303 89.7445 43.6442H89.7473C89.9251 44.0053 90.1501 44.372 90.3834 44.747C90.914 45.6109 91.4751 46.5276 91.4751 47.3609C91.4751 48.0526 91.2251 48.2609 90.8584 48.347C90.9556 48.4859 91.0473 48.6248 91.1473 48.7637C91.6167 48.6303 91.9417 48.3137 91.9417 47.3609C91.9417 46.3942 91.3445 45.422 90.7806 44.5026C90.5529 44.1331 90.3334 43.772 90.164 43.4359C89.8778 42.8637 89.464 41.3359 89.014 39.6609C88.2417 36.8026 87.3584 33.5359 86.5751 33.5331H86.5723C85.114 33.5331 83.2973 33.9053 81.7223 34.4026C81.4167 34.497 81.1195 34.5998 80.8334 34.7026C80.6112 34.7859 80.3973 34.8692 80.1917 34.9526C80.0334 34.8415 79.8667 34.7303 79.689 34.6192C79.1362 34.2748 78.6778 34.2498 78.4251 34.3192C78.389 34.3276 78.3556 34.3414 78.3223 34.3553C78.1695 34.1387 78.0556 33.8998 77.9556 33.6998C77.889 33.5664 77.8306 33.447 77.7723 33.3526C77.2751 32.5442 76.8306 31.9164 76.2306 31.3748C75.6306 30.8359 74.8834 30.3831 73.7862 29.9137C73.2195 29.6665 72.7001 29.6165 72.1917 29.5637C71.5251 29.497 70.8779 29.4331 70.1862 28.8831C69.8723 28.6331 69.2417 29.1609 68.5723 29.722C68.0862 30.1331 67.5723 30.5609 67.3084 30.6609C67.2529 30.6387 67.1779 30.6248 67.0834 30.6248C66.9529 30.6248 66.8612 30.6248 66.7751 30.6248C66.4112 30.6165 65.9862 30.6053 65.6667 30.672H65.6612C65.314 30.7442 64.9806 30.8498 64.664 30.9526C63.6806 31.2637 62.864 31.5248 62.2862 30.3748H62.289C62.2334 30.2692 62.1556 30.1914 62.0473 30.147C61.8973 30.0776 61.6973 30.0803 61.4806 30.1359C61.2917 30.1831 61.0806 30.2692 60.8556 30.3803C59.9723 30.8192 58.8945 31.6998 58.7334 32.0637L58.7223 32.0831L58.7167 32.1053C58.5779 32.6637 57.9056 33.5498 57.1751 34.5137C56.1251 35.8942 54.9612 37.4276 54.9612 38.5637C54.9612 41.1192 55.5945 42.0526 56.3917 43.2387C56.589 43.522 56.789 43.8192 56.9945 44.1637C56.689 44.9442 56.0278 45.2748 55.3806 45.5998C54.1806 46.1998 53.9779 46.4109 53.564 47.4498C53.3029 48.097 52.2695 50.4998 52.6862 51.1637L52.6945 51.1831L52.7056 51.1942C53.2112 51.7998 55.6501 52.2359 56.4084 52.2692C56.7445 53.9831 58.514 63.9137 61.6667 63.2776C61.7223 63.2664 61.7695 63.247 61.8167 63.2276C62.3112 63.0276 62.3973 63.2081 62.5556 63.5414C62.6167 63.6692 62.6862 63.8109 62.7779 63.9748L62.7806 63.9803C62.8612 64.1164 63.0334 64.247 63.264 64.3776C63.4751 64.4887 63.7445 64.5998 64.0528 64.7109C65.3473 65.1803 67.3501 65.6109 68.2834 65.7387C68.289 65.4831 68.314 65.222 68.3584 64.9553C67.6723 64.9359 65.614 64.7831 64.2056 64.2748C63.9195 64.172 63.6723 64.0664 63.4862 63.9664C63.3223 63.8803 63.214 63.8026 63.1779 63.7442C63.0973 63.6053 63.0334 63.4637 62.9751 63.3442C62.6945 62.7498 62.539 62.4331 61.639 62.7998C61.6112 62.8109 61.5862 62.8192 61.5612 62.8248C61.2223 62.9026 60.839 62.597 60.439 62.047C59.9973 61.4331 59.5556 60.5331 59.139 59.5026C57.9528 56.5914 56.9695 52.6803 56.6417 51.2387C56.3751 50.0942 57.3167 49.6303 58.3556 49.3914C58.739 49.3026 59.1417 49.2442 59.5001 49.1914C59.7334 49.5192 59.9862 49.8137 60.2584 50.0581C60.8778 50.6109 61.614 50.6553 62.2862 50.6942C62.789 50.722 63.2501 50.7498 63.5251 51.0081C64.2084 53.0859 65.3001 55.2664 67.089 55.8387H67.0945C69.7029 56.6665 72.2056 56.4664 74.3445 55.3609C74.764 55.1442 75.164 54.8914 75.5528 54.6081C75.939 54.3248 76.3084 54.0081 76.6584 53.6553H76.664H76.6612C76.6945 53.6248 76.8362 53.6109 77.0251 53.597C76.5195 53.9359 76.0084 54.2914 75.5029 54.647C73.9973 55.697 72.5223 56.7248 71.3306 57.222L71.2223 57.2692L71.1945 57.3831C71.1334 57.6526 71.3667 57.8276 71.8223 57.9359C72.0667 57.9915 72.3917 58.0359 72.7779 58.072C72.4612 58.4414 72.0029 59.1053 72.3001 59.7081H72.3029C72.4084 59.9248 72.3501 60.2581 72.2945 60.5887C72.2917 60.6109 72.289 60.6331 72.2834 60.6526C72.4306 60.7887 72.5695 60.8692 72.7084 60.9276C72.7195 60.8414 72.7334 60.7553 72.7501 60.6664C72.8195 60.2609 72.889 59.8553 72.714 59.5026C72.4917 59.0526 73.0862 58.4081 73.289 58.1887C73.4667 58.147 73.7445 58.1303 74.0056 58.1637C74.2417 58.1942 74.4612 58.2581 74.5445 58.3692C74.5528 58.3803 74.5612 58.397 74.5667 58.4137C74.6029 58.5609 74.6251 58.6914 74.6362 58.8303C74.6501 58.9692 74.6501 59.1164 74.6501 59.2942C74.6501 59.5192 74.7501 59.6553 74.914 59.7137C75.0473 59.7664 75.214 59.747 75.3834 59.6803C75.5251 59.6303 75.6723 59.547 75.8029 59.4498C76.0917 59.2359 76.2917 58.9359 76.189 58.7192C76.189 58.7192 76.3834 58.4998 76.5334 58.3498C76.5834 58.297 76.6334 58.2498 76.6751 58.2053C78.0362 58.2109 79.4112 58.1914 80.4556 58.1803C80.9945 58.1748 81.439 58.1692 81.8195 58.1692C82.0056 58.1692 82.1723 58.1692 82.3334 58.1664C82.3612 57.9887 82.4084 57.8165 82.4667 57.6526C82.2695 57.6831 82.0667 57.7026 81.8195 57.7026L81.8251 57.6998ZM78.4279 50.0248C78.0556 49.2553 77.5001 48.5803 76.964 48.1942H76.9612C76.7917 48.0748 76.6223 47.9776 76.4556 47.9192C76.4028 47.8303 76.2973 47.7581 76.1445 47.7081C75.3084 47.4137 72.089 47.447 69.7584 47.5026L69.5751 47.5081C69.2001 46.5887 69.4195 46.1776 69.8806 45.972C70.2529 45.8081 70.7695 45.7414 71.2862 45.672C71.7695 45.6109 73.0973 45.0637 73.3445 45.272C73.5667 45.0887 73.6056 44.6998 73.814 44.4248C74.5695 43.4526 75.114 42.2914 75.5334 41.1442C75.7779 42.1859 76.5251 43.2664 77.2945 44.3887C78.5695 46.4415 79.9084 48.4053 78.6306 50.5831C78.5556 50.3137 78.5529 50.2776 78.4279 50.0248ZM64.0306 48.3331C63.6556 47.8192 62.8529 47.3998 62.0667 46.9803C61.2473 46.5442 60.4473 46.122 60.3084 45.7053C60.039 44.8914 59.689 44.3303 59.3834 43.8303C58.7834 42.8526 58.3278 42.1137 58.9917 40.0859C59.2473 39.3081 60.7584 38.522 61.6084 38.1498C61.6584 38.1276 61.7112 38.1053 61.7556 38.0859C61.7223 38.2942 61.6917 38.5609 61.6695 38.8692C61.5473 40.4581 61.564 43.1526 61.6751 43.697C61.7556 44.0859 61.8723 44.4442 62.014 44.7803C62.1584 45.1137 62.3334 45.4276 62.539 45.7164C63.589 47.197 65.3556 48.0164 67.414 48.0164H67.4167C68.214 48.0164 68.6751 47.9887 69.7584 47.9664C70.8612 47.9414 72.164 47.9192 73.3056 47.9303C72.7084 48.0692 72.0029 48.1581 71.4251 48.3526C70.7112 48.5887 70.1167 48.9276 69.3778 49.0581H69.3751H69.3723C69.1056 49.1053 68.8973 49.0192 68.689 49.0581C66.8695 49.4081 65.1473 49.8664 64.0306 48.3331ZM69.0779 47.5164C68.2306 47.5359 67.4695 47.5498 67.4223 47.5498H67.4195C66.9834 47.5498 66.5612 47.5109 66.1612 47.4331C65.9806 46.8692 66.039 46.2637 66.1001 45.6553C66.1695 44.897 66.2445 44.1331 65.9223 43.372C66.9001 43.9053 67.3473 44.6748 68.5029 44.7748C68.8806 44.7748 70.2501 44.622 70.739 44.6192C71.0362 44.6192 71.3251 44.6331 71.5612 44.6942C71.3445 44.7887 71.0834 44.8887 70.8223 44.9914C70.2112 45.2276 69.5973 45.4664 69.4112 45.697C68.9334 46.022 68.7306 46.5581 69.0806 47.5137L69.0779 47.5164ZM67.314 38.8803V38.9859C67.314 39.1331 67.3167 39.2053 67.2556 39.2859C67.2473 39.2692 67.2362 39.2581 67.2279 39.2415H67.2251L67.2223 39.2303C67.1862 38.9609 67.2112 38.5581 67.2806 38.2387C67.3029 38.147 67.3251 38.0664 67.3501 37.997C67.3695 37.9387 67.3945 37.8942 67.4167 37.8609H67.4195C67.6723 37.547 68.0084 37.5276 68.3667 37.6498H68.3556C67.8973 37.6498 67.6362 37.7498 67.4862 37.9692C67.3417 38.1748 67.314 38.472 67.314 38.8803ZM64.9473 40.1998L64.9251 40.1748C64.889 40.0498 64.8667 39.9414 64.8779 39.8609C64.8862 39.7914 64.9306 39.7331 65.0417 39.6887C65.3334 39.5748 65.6695 39.5748 66.0584 39.5748H66.139C66.2529 39.5748 66.6917 39.5692 66.9473 39.5442H66.9667C66.989 39.6081 67.0112 39.6581 67.0417 39.697C67.2501 39.972 67.1862 40.9748 67.2834 41.3803C67.0029 41.3303 66.6167 41.0887 66.3556 40.9776C66.1834 40.9053 66.014 40.8331 65.8473 40.7803C65.6362 40.7164 65.4723 40.647 65.3306 40.5553C65.1917 40.4637 65.0695 40.3498 64.9529 40.1998H64.9473ZM67.6445 38.9831V38.8803C67.6445 38.5303 67.664 38.2942 67.7556 38.1581C67.839 38.0359 68.0195 37.9803 68.3556 37.9803C68.3806 37.9803 68.4667 37.9748 68.5417 37.972C68.5862 37.972 68.5695 37.922 68.5973 37.947C68.6917 38.0248 68.7612 38.0609 68.8445 38.1109C68.8806 38.1331 68.9251 38.1581 68.9584 38.1776H68.9612L68.964 38.1831H68.9667C69.0473 38.2248 69.2084 38.2665 69.339 38.2998C69.3667 38.3081 69.3779 38.2859 69.3834 38.2692C69.5029 38.3637 69.614 38.4553 69.7167 38.5414C69.8945 38.6914 70.0501 38.8164 70.1723 38.8914C70.9001 39.347 70.8834 39.7859 70.8584 40.5637C70.8528 40.7137 70.8501 40.8748 70.8473 41.0303L70.8279 41.047C70.7417 40.9692 70.6056 40.9081 70.4556 40.8609C70.4723 40.822 70.489 40.7859 70.5029 40.7526C70.5612 40.6442 70.6112 40.5414 70.6112 40.3331C70.6112 40.0303 70.4279 39.8442 70.2417 39.647C70.0945 39.4914 69.9362 39.3303 69.9334 39.1137H69.9251C69.9195 39.0914 69.9112 39.0692 69.9056 39.047C69.8556 38.9192 69.7612 38.8359 69.5723 38.8359H69.5667C69.2501 38.8359 68.9806 38.8192 68.7584 38.8692C68.4917 38.9276 68.3056 39.0609 68.2306 39.372C68.2056 39.4748 68.0779 39.5359 67.9612 39.5942C67.8779 39.6359 67.7973 39.6748 67.7279 39.7331C67.6251 39.8192 67.564 39.9248 67.589 40.0776C67.5473 40.047 67.5084 40.022 67.4695 39.9942C67.4556 39.8664 67.4306 39.7442 67.3834 39.6387C67.6501 39.4053 67.6501 39.3192 67.6445 38.9859V38.9831ZM69.8529 38.0442C70.0056 38.0442 70.1667 38.0359 70.3306 38.0276C70.4779 38.022 70.6279 38.0109 70.7945 38.0109C71.0112 38.0109 71.2251 38.0331 71.4001 38.1081C71.5612 38.172 71.6945 38.2859 71.7667 38.4692C71.8112 38.5831 71.8528 38.922 71.8362 39.2387C71.8334 39.3137 71.8251 39.3831 71.814 39.4498C71.7584 39.272 71.5973 39.1026 71.4334 38.9831C71.3945 38.9581 71.3612 38.9331 71.3251 38.9137C71.2862 38.8914 71.2556 38.872 71.2195 38.8553L71.2084 38.8498C71.1529 38.8248 71.0779 38.7359 71.0001 38.647C70.9445 38.5859 70.8917 38.5248 70.8334 38.4692C70.6279 38.2803 70.4056 38.1803 70.139 38.447C70.0751 38.3942 70.0084 38.3414 69.9334 38.2803C69.8501 38.2109 69.7612 38.1331 69.664 38.0581C69.7473 38.047 69.8223 38.0387 69.8556 38.0359L69.8529 38.0442ZM71.4195 40.6442L71.2806 40.7387L71.1862 40.7998L71.1917 40.5748C71.2167 39.6998 71.2334 39.1942 70.4167 38.6553C70.4834 38.6303 70.5445 38.6637 70.6001 38.7192C70.6501 38.7637 70.6973 38.8192 70.7445 38.872C70.8445 38.9887 70.9417 39.0998 71.0695 39.1553L71.0806 39.1609C71.1001 39.1692 71.1251 39.1859 71.1501 39.1998C71.1751 39.2164 71.2056 39.2359 71.2334 39.2553C71.364 39.3498 71.4945 39.4803 71.5001 39.5803V39.5859C71.5001 39.6276 71.4806 39.7164 71.4612 39.8248C71.4112 40.0887 71.3473 40.4331 71.4167 40.647L71.4195 40.6442ZM68.6167 40.1915C68.7112 40.1109 68.8973 40.0776 69.1667 40.0776C69.364 40.0776 69.5334 40.0664 69.6695 39.9942C69.7695 39.9387 69.8473 39.8637 69.889 39.7526C69.9279 39.7942 69.964 39.8359 70.0084 39.8776C70.1445 40.0248 70.2806 40.1637 70.2806 40.3331C70.2806 40.4637 70.2473 40.5303 70.2112 40.6053C70.1862 40.6609 70.1556 40.7137 70.1306 40.7859C69.9251 40.747 69.7278 40.7248 69.6251 40.7164C69.2917 40.6803 68.9306 40.6137 68.5806 40.5109H68.5834C68.5362 40.3553 68.5473 40.2498 68.6195 40.1942L68.6167 40.1915ZM69.5751 39.1692C69.5917 39.1692 69.5945 39.1609 69.5973 39.1637V39.1859H69.6029C69.6279 39.3637 69.5973 39.3859 69.5973 39.4998C69.5973 39.6137 69.5667 39.6748 69.5167 39.697C69.4417 39.7359 69.3167 39.7415 69.1667 39.7415C68.8167 39.7415 68.5612 39.8026 68.4056 39.9331C68.2667 40.0442 68.2112 40.1942 68.2223 40.3831C68.1806 40.3692 68.1445 40.3526 68.1029 40.3359C67.914 40.1026 67.8973 40.0192 67.9445 39.9803C67.9806 39.9498 68.039 39.9192 68.1056 39.8887C68.289 39.8026 68.489 39.7053 68.5501 39.447C68.5917 39.2887 68.6834 39.222 68.8223 39.1914C69.0028 39.1526 69.264 39.1664 69.5667 39.1664H69.5723L69.5751 39.1692ZM67.4667 40.5387L67.4723 40.3887L67.5028 40.4053C67.6056 40.4692 67.714 40.5248 67.8195 40.5748C67.8473 40.5887 67.8751 40.5998 67.9001 40.6109L67.9084 40.6248L67.914 40.6192C68.4501 40.8553 69.0473 40.9914 69.5862 41.0442C69.714 41.0581 70.0167 41.0887 70.2723 41.1553C70.4001 41.1887 70.5167 41.222 70.5667 41.2414C70.3806 41.3942 70.1973 41.5665 70.0195 41.772C69.5751 41.6026 69.2084 41.4803 68.8279 41.3998C68.4362 41.3192 68.0362 41.4164 67.514 41.4137C67.4362 41.2331 67.4501 40.8164 67.464 40.5359L67.4667 40.5387ZM70.2056 42.0776C70.5917 41.5942 71.0445 41.2914 71.4612 41.0137C71.9223 40.7053 72.3473 40.422 72.639 39.9637C72.589 40.2776 72.5112 40.5359 72.389 40.6164C72.0945 40.8109 71.8223 41.047 71.5529 41.2776C71.2251 41.5637 70.9056 41.8442 70.564 42.0137C70.3723 42.1109 70.189 42.1859 70.0195 42.2553C70.0862 42.2053 70.1501 42.147 70.2056 42.0776ZM70.1445 42.5609C70.3279 42.4859 70.5195 42.4081 70.7112 42.3109H70.714C71.0917 42.1192 71.4279 41.8276 71.7695 41.5276C72.0251 41.3053 72.289 41.0776 72.5695 40.8942C72.7862 40.7526 72.9084 40.3276 72.9723 39.8609L72.9834 39.9026C73.0084 39.997 73.039 40.0914 73.064 40.1887V40.1942C73.1223 40.3831 73.2501 40.5415 73.3695 40.6831C73.4306 40.7609 73.4917 40.8331 73.5195 40.8887C73.6056 41.0637 73.5278 41.5192 73.4529 41.9748C73.3723 42.4637 73.289 42.9526 73.3945 43.2803C73.1362 43.5414 72.8362 43.7831 72.5334 44.0248C72.3806 44.1498 72.2223 44.272 72.0695 44.4053C71.7195 44.2026 71.2306 44.1526 70.7278 44.1553C70.2417 44.1553 69.7362 44.2053 69.3556 44.2053H69.3529C69.214 44.2053 69.0556 44.1859 68.8862 44.147C68.9056 43.9998 68.914 43.8553 68.9251 43.7165C69.1084 42.9831 69.5667 42.7942 70.1417 42.5553L70.1445 42.5609ZM72.3167 44.8081H72.3195C72.4862 44.6637 72.6584 44.5248 72.8279 44.3887C73.2584 44.047 74.0167 43.2414 74.3529 42.8331C74.1695 43.1414 73.6362 43.8914 73.4445 44.1414C73.4251 44.897 72.4917 45.0303 71.3223 45.2553C71.6029 45.1359 72.1862 44.9192 72.314 44.8109L72.3167 44.8081ZM74.1112 42.2359C74.0306 42.4387 73.9334 42.622 73.814 42.7915C73.8306 42.5748 73.8751 42.3137 73.9195 42.0526C74.0084 41.522 74.0945 40.9915 73.9417 40.6831H73.939C73.889 40.5803 73.8112 40.4859 73.7334 40.3914C73.6445 40.2803 73.5445 40.1637 73.5167 40.0665V40.0609C73.4945 39.9831 73.4695 39.8887 73.4362 39.7776C73.4112 39.6776 73.3834 39.572 73.3529 39.4637C73.2334 39.0192 73.0279 38.6942 72.9529 38.3248C73.014 37.5081 72.8223 37.7803 72.4112 37.2692C72.2862 37.1164 72.1778 36.9776 72.064 36.8998C73.1528 36.6387 74.4417 37.0553 74.7362 38.6859C74.9028 39.4831 74.714 40.6581 74.1112 42.2387V42.2359ZM75.114 38.6387C75.0001 38.0859 74.764 37.6664 74.4667 37.347C74.1723 37.0276 73.8112 36.8137 73.4445 36.6748C72.9473 36.4831 72.0945 36.4776 71.6945 36.4859C71.939 36.2831 72.5723 36.022 72.8056 35.9414C73.0029 35.8748 73.2167 35.8414 73.4306 35.8414C73.9001 35.8414 74.5667 35.8887 74.9779 36.1526C75.3834 36.4081 75.5362 36.8803 75.6862 37.322C75.7473 37.4942 75.7806 37.6831 75.7806 37.8803C75.7806 38.9553 75.3417 40.5303 74.7056 41.9498C75.2029 40.5081 75.2834 39.4359 75.1112 38.6387H75.114ZM71.814 37.2859H71.8195C71.8362 37.2914 71.9334 37.4164 72.0473 37.5553C72.1945 37.7442 72.364 37.9526 72.5501 38.0831C72.5834 38.2526 72.6251 38.4609 72.6806 38.6859C72.6056 39.6192 72.2056 40.0692 71.6945 40.447C71.7056 40.3609 71.7306 40.2026 71.7584 40.047C71.7806 40.0442 71.8029 40.0387 71.8251 40.0303C71.9584 39.9803 72.039 39.8581 72.0917 39.7026C72.1362 39.5748 72.1584 39.4165 72.164 39.2553C72.1806 38.897 72.1278 38.4914 72.0723 38.3498C71.9667 38.0692 71.764 37.8998 71.5279 37.8026H71.5251C71.3001 37.7109 71.0445 37.6803 70.7945 37.6803C70.6417 37.6803 70.4778 37.6887 70.3112 37.697C70.164 37.7053 70.0167 37.7137 69.8529 37.7137H69.8501C69.7834 37.7137 69.7001 37.7248 69.6084 37.7359C69.4945 37.7526 69.3584 37.7665 69.2695 37.7665C68.5779 37.2776 67.7612 36.9137 67.164 37.647C67.1167 37.7109 67.0751 37.7887 67.0417 37.8803C67.0112 37.9664 66.9834 38.0637 66.9612 38.1637C66.8917 38.4831 66.8695 38.8914 66.9001 39.2137C66.6667 39.2359 66.2501 39.2387 66.139 39.2387H66.0584C65.6362 39.2387 65.2695 39.2387 64.9195 39.372C63.8251 39.7748 65.7501 42.047 65.414 42.5553L65.2612 42.4692L65.064 42.3581C64.6751 42.1359 64.4667 41.9331 64.3584 41.7359C64.2556 41.5498 64.2445 41.3553 64.2445 41.1553C64.2445 40.5359 64.0556 40.0164 64.2167 39.5998C64.364 39.2053 64.8501 38.8942 65.2473 38.7081C65.8501 38.422 66.0973 38.072 66.3167 37.7553C66.8806 36.9581 67.2667 36.6526 68.5306 36.9498C68.7667 36.5303 70.0806 36.7387 70.7417 36.8776C70.9029 36.9081 71.0279 36.9387 71.1029 36.947H71.1084H71.114C71.2529 36.9609 71.3862 37.0442 71.5029 37.1192C71.6056 37.1831 71.7056 37.2442 71.814 37.2776V37.2859ZM65.3112 41.3581C65.2695 41.2887 65.1445 40.9303 65.0445 40.672C65.2751 40.8442 65.4001 40.997 65.7445 41.1026C65.8945 41.1498 66.0973 41.1859 66.2612 41.2553C66.6334 41.4137 66.9862 41.6109 67.414 41.6109C67.9612 41.6109 68.3695 41.647 68.7612 41.7303C69.0806 41.7998 69.3917 41.8998 69.7529 42.0359C69.6667 42.0914 69.564 42.1442 69.4667 42.1942C69.1362 42.3581 68.8084 42.5248 68.6945 42.9359C68.6195 43.197 68.6056 43.4498 68.5917 43.7053C68.5862 43.8276 68.5779 43.9526 68.5667 44.0748C67.6834 43.8081 66.6945 43.3192 65.8667 42.8553C65.9084 42.3776 65.5584 41.7692 65.3084 41.3609L65.3112 41.3581ZM65.089 31.7553C65.2862 31.6526 65.5001 31.5637 65.7251 31.497H65.7334C65.789 31.4776 65.9834 31.4359 66.2112 31.3859C66.5279 31.3164 66.9056 31.2387 67.164 31.1359V31.1442H67.1723C67.5667 31.172 68.239 30.6081 68.8723 30.0776C69.3945 29.6414 69.8862 29.2331 69.8973 29.2442C70.6945 29.8803 71.414 29.9526 72.1501 30.0276C72.6195 30.0748 73.1056 30.122 73.6112 30.3387C74.6556 30.7859 75.364 31.2137 75.9251 31.7192C76.4834 32.2248 76.9084 32.8164 77.3806 33.5914C77.4306 33.6748 77.4834 33.7831 77.5445 33.8998C77.7806 34.3831 78.1112 35.0553 78.7834 35.3415C78.8695 35.4276 78.9528 35.5248 79.0334 35.6276C79.6501 36.4331 80.0917 37.6609 80.1556 38.7109V38.7248C80.189 39.2081 80.0751 40.3192 80.3195 41.5165C81.0695 45.2137 82.5917 51.0748 80.8251 51.5664H80.8223C80.2001 51.7387 79.514 52.0637 78.7973 52.4748L78.8029 52.4442C78.9001 52.0609 78.9001 51.6498 78.8279 51.2387C82.2362 46.3776 75.7779 43.1748 75.8806 40.1859C76.3695 38.5998 76.7251 36.9248 75.0473 35.8581C74.564 35.5498 74.2362 35.5053 73.6806 35.5053C72.8779 35.5053 71.7417 35.8192 71.2973 36.5081L71.2945 36.5137C71.2529 36.5026 71.2084 36.4942 71.164 36.4914H71.1556C71.0945 36.4831 70.9778 36.4581 70.8362 36.4276C69.2362 35.9914 68.5195 36.7276 68.2473 36.6192C67.0917 36.4581 66.2779 37.0137 65.9334 37.4942C65.7473 37.7637 65.5362 38.0581 65.0445 38.2942C64.5279 38.5387 64.2112 38.922 64.0195 39.4276C63.8362 39.9053 63.7779 40.4887 63.7779 41.1581C63.7779 41.4192 63.7973 41.6831 63.9501 41.9581C64.0917 42.2248 64.3528 42.4914 64.8334 42.7637L65.0279 42.8748L65.0751 42.9026C65.8056 43.7664 65.7195 44.6915 65.6306 45.6081C65.5751 46.1803 65.5223 46.747 65.6473 47.3081C64.514 46.9914 63.5612 46.3553 62.9167 45.4442C62.7334 45.1859 62.5723 44.8998 62.4417 44.5887C62.3084 44.2803 62.2001 43.9526 62.1279 43.5998C62.0195 43.0803 62.0084 40.4581 62.1306 38.897C62.1529 38.5942 62.1806 38.3359 62.214 38.1414C62.239 37.9942 62.2584 37.8998 62.2695 37.8803C62.3056 37.847 62.3306 37.8053 62.3445 37.7692V37.7553C62.364 37.6748 62.3556 37.6081 62.3306 37.5637L62.464 36.5914C62.5195 36.2192 62.5334 35.9553 62.5473 35.7359C62.564 35.4526 62.5751 35.247 62.6584 34.9748C62.9973 33.8526 63.6001 32.7942 64.5167 32.1026C64.6917 31.9692 64.8862 31.8498 65.0834 31.7498L65.089 31.7553ZM58.2556 48.9359C56.9862 49.2276 55.8362 49.8192 56.189 51.3387C56.2195 51.472 56.2556 51.6248 56.2973 51.797C55.3167 51.7026 53.7556 51.0414 53.089 50.897C53.0084 48.7248 54.0473 46.9192 55.5862 46.0109C56.2306 45.6914 56.8806 45.3692 57.2779 44.6581C57.4612 44.9998 57.6417 45.3887 57.8223 45.8442C58.0917 46.522 58.4223 47.3192 58.8223 48.0776C58.9473 48.3109 59.0778 48.5415 59.2167 48.7637C58.9056 48.8081 58.5751 48.8637 58.2556 48.9387V48.9359ZM62.314 50.2276C61.7167 50.1915 61.0667 50.1553 60.5723 49.7081C60.0584 49.2526 59.614 48.5803 59.2334 47.8581C58.8473 47.1276 58.5251 46.3414 58.2584 45.672C57.7695 44.4359 57.2473 43.6637 56.7806 42.9776C56.0251 41.8581 55.4278 40.9776 55.4278 38.5664L55.4251 38.5637C55.4279 37.5831 56.5445 36.1165 57.5473 34.7942C58.3001 33.8026 58.9917 32.8914 59.1667 32.2415C59.3251 31.9359 60.2723 31.1915 61.0667 30.7942C61.264 30.697 61.4417 30.6248 61.6001 30.5859C61.7195 30.5581 61.8167 30.547 61.864 30.5748C61.8695 30.5748 61.8751 30.5803 61.8806 30.5859C62.6195 32.0637 63.5917 31.7831 64.7501 31.4164C64.5751 31.5109 64.4084 31.6248 64.2501 31.7414C63.2445 32.497 62.5917 33.6414 62.2223 34.8498C62.1223 35.1776 62.1112 35.4053 62.0917 35.7137C62.0806 35.9276 62.064 36.1803 62.0112 36.5331L61.8695 37.5442C61.764 37.5831 61.6112 37.647 61.4279 37.7276C60.5084 38.1276 58.864 38.9998 58.5556 39.9442C57.8251 42.1776 58.3278 42.9942 58.9917 44.0748C59.289 44.5609 59.6223 45.0998 59.8723 45.8526C60.0723 46.447 60.9528 46.9137 61.8556 47.3914C62.1501 47.547 62.4445 47.7026 62.7112 47.8581C62.8556 48.5137 63.0528 49.4081 63.3362 50.3665C63.0306 50.2637 62.6862 50.2442 62.3195 50.2276H62.314ZM76.339 53.322H76.3362C75.8779 53.7803 74.5695 54.5665 73.9862 54.8664C71.9584 55.9192 69.7279 56.1803 67.2417 55.3942C64.6945 54.1887 63.8334 50.7359 63.2667 48.2303C63.4334 48.3553 63.5667 48.4803 63.6612 48.6109H63.664C64.9584 50.3831 66.1862 50.3831 68.1501 50.0053C68.3945 49.9553 69.2751 49.5526 69.464 49.5192H69.4667C70.239 49.3831 71.3028 49.2665 72.0362 49.0248C73.4723 48.5498 74.5723 47.9498 76.2001 48.3248H76.2084C76.3556 48.3637 76.5251 48.4498 76.6945 48.572H76.6917C77.5001 49.3776 78.7806 51.5776 78.114 52.8887C78.039 52.9331 77.9612 52.9831 77.8834 53.0331C77.7001 53.0803 77.439 53.0998 77.1973 53.1164C76.8362 53.1414 76.5056 53.1609 76.3417 53.322H76.339ZM73.0695 58.0942H73.0751L73.0973 58.1248L73.0695 58.0942ZM75.0862 59.2803C75.0862 59.2803 75.0834 59.2776 75.0917 59.2803C75.0834 59.2776 75.0751 59.2776 75.0862 59.2803ZM75.7723 58.9248C75.7723 58.9248 75.6501 58.9859 75.5306 59.0776C75.4362 59.147 75.3251 59.2109 75.2223 59.2498C75.1806 59.2664 75.1473 59.2776 75.1167 59.2803C75.1167 59.0998 75.114 58.9442 75.1001 58.7887C75.0862 58.6303 75.0612 58.4748 75.0167 58.2942C75.0056 58.2553 74.9917 58.2192 74.9723 58.1831C75.3195 58.1887 75.6751 58.197 76.0362 58.1998C75.8362 58.422 75.6528 58.6831 75.7695 58.9248H75.7723Z" fill="white"/>
<path d="M87.9111 52.2861C87.8667 52.4194 87.8194 52.5417 87.7722 52.6611C87.8472 52.8278 87.975 52.9611 88.0917 53.1056C88.1417 52.9861 88.1944 52.8611 88.2417 52.725C88.1972 52.6306 88.1528 52.5333 88.0917 52.4417C88.2694 52.2972 88.3833 52.0972 88.5111 51.9222C88.6 51.6278 88.6917 51.3194 88.7778 51C88.5778 51.1278 88.3555 51.2611 88.1555 51.4944C88.075 51.7722 87.9917 52.0417 87.9083 52.2889L87.9111 52.2861Z" fill="white"/>
<path d="M90.4056 48.4115C90.3389 48.4171 90.2667 48.4282 90.1945 48.4338C90.1445 48.5754 90.0945 48.6838 90.0612 48.6921C90.0028 48.7838 89.9528 48.8671 89.9028 48.9421C90.0223 48.9171 90.1445 48.9032 90.2612 48.8921C90.3556 48.7532 90.4417 48.6504 90.5028 48.6393C90.5501 48.6282 90.5639 48.7143 90.5667 48.8615C90.6334 48.856 90.7056 48.8504 90.7695 48.8421C90.7695 48.8143 90.7612 48.7865 90.7584 48.7588C90.7778 48.781 90.7945 48.8088 90.8139 48.8338C90.9362 48.8171 91.0473 48.7921 91.1556 48.7643C91.0556 48.6254 90.9639 48.4893 90.8667 48.3477C90.7306 48.3782 90.5751 48.3949 90.4084 48.4115H90.4056Z" fill="white"/>
<path d="M86.0139 54.4776C85.9112 54.5248 85.8223 54.5804 85.7334 54.6304C85.7862 54.772 85.8389 54.9165 85.9001 55.0498C86.0028 54.9998 86.1056 54.9471 86.2139 54.8971C86.2167 54.8943 86.2278 54.8915 86.2334 54.8887C86.1445 54.7165 86.0889 54.5832 86.0501 54.4609C86.0362 54.4665 86.0278 54.472 86.0139 54.4776Z" fill="white"/>
<path d="M79.6806 70.7023L79.6667 71.3523C79.6556 71.4357 79.6556 71.5246 79.6611 71.6162C80.0722 71.6273 80.4861 71.6218 80.9111 71.6218C80.9111 71.6885 80.9222 71.7246 80.8722 71.769C80.6861 71.769 80.5028 71.7968 80.3167 71.8079C80.0667 71.8218 79.8667 71.8246 79.6806 71.8218C79.725 72.1107 79.8222 72.4301 79.9361 72.7468C80.325 72.6162 80.7083 72.4746 81.0861 72.3218C81.0222 71.6857 80.8583 71.0912 80.6695 70.5273C80.4945 70.5662 80.3139 70.6051 80.1056 70.6412C79.9611 70.6662 79.8195 70.6857 79.6806 70.7051V70.7023Z" fill="white"/>
<path d="M78.986 58.8028C78.6638 58.6611 78.2416 58.7417 77.8527 58.7611C77.461 58.7861 77.1055 58.7472 77.2138 59.1306C78.0777 59.4444 79.911 68.8194 79.686 70.1528L79.6805 70.4583C79.9833 70.3889 80.2805 70.3167 80.5721 70.2444C80.4666 69.9389 80.361 69.6417 80.2555 69.3556L78.986 58.8028Z" fill="white"/>
<path d="M80.3167 71.8079C80.5028 71.7968 80.6861 71.769 80.8722 71.769C80.9195 71.7245 80.9111 71.6884 80.9111 71.6218C80.4889 71.6218 80.0722 71.6273 79.6611 71.6162C79.6639 71.6829 79.6695 71.7495 79.6806 71.8218C79.8667 71.8245 80.0695 71.8218 80.3167 71.8079Z" fill="white"/>
<path d="M79.6807 70.458V70.7025C79.8196 70.683 79.9612 70.6636 80.1057 70.6386C80.314 70.6025 80.4918 70.5636 80.6696 70.5247C80.6418 70.4303 80.6084 70.3358 80.5751 70.2441C80.2834 70.3164 79.9862 70.3886 79.6834 70.458H79.6807Z" fill="white"/>
<path d="M75.2777 74.7557C61.575 74.7557 50.4277 63.6084 50.4277 49.9057C50.4277 36.2029 61.575 25.0557 75.2777 25.0557C88.9805 25.0557 100.125 36.2029 100.125 49.9057C100.125 63.6084 88.975 74.7557 75.2777 74.7557ZM75.2777 26.5446C62.3944 26.5446 51.9194 37.0251 51.9194 49.9057C51.9194 62.7862 62.3944 73.2696 75.2777 73.2696C88.1611 73.2696 98.6389 62.789 98.6389 49.9057C98.6389 37.0223 88.1583 26.5446 75.2777 26.5446Z" fill="white"/>
<path fill-rule="evenodd" clip-rule="evenodd" d="M44.7361 45.5889L46.05 48.2472L48.9833 48.675L46.8583 50.7472L47.3611 53.6694L44.7361 52.2889L42.1083 53.6694L42.6111 50.7472L40.4861 48.675L43.4222 48.2472L44.7361 45.5889Z" fill="white"/>
<path fill-rule="evenodd" clip-rule="evenodd" d="M105.208 45.5889L106.519 48.2472L109.456 48.675L107.331 50.7472L107.833 53.6694L105.208 52.2889L102.581 53.6694L103.083 50.7472L100.956 48.675L103.894 48.2472L105.208 45.5889Z" fill="white"/>
<path d="M50.9499 35.0276L53.3249 36.5803L52.7888 37.3998L46.436 33.2442L47.6194 31.4387C48.0694 30.7553 48.5833 30.3276 49.161 30.1692C49.7388 30.0053 50.336 30.1276 50.9527 30.5276C51.5749 30.9359 51.9388 31.4887 52.0333 32.1859C52.1277 32.8803 51.9499 33.5526 51.4944 34.2026L50.9527 35.0276H50.9499ZM47.6944 32.897L50.2277 34.5553L50.7249 33.7942C51.0499 33.2942 51.1888 32.8415 51.1305 32.4331C51.0749 32.0248 50.8388 31.6859 50.4166 31.4109C49.5999 30.8748 48.8749 31.0915 48.2416 32.0581L47.6944 32.897Z" fill="white"/>
<path d="M60.0333 28.7806L59.2611 29.5418L57.25 28.6029L54.9972 30.8195L55.9333 32.8112L55.1639 33.5695L51.8972 26.1306L52.6444 25.3945L60.0333 28.7779V28.7806ZM56.4333 28.2056L53.4028 26.7612C53.3055 26.714 53.1555 26.614 52.9472 26.464L52.9306 26.4834C53.0639 26.6723 53.1583 26.8279 53.2111 26.9445L54.6139 29.9945L56.4305 28.2056H56.4333Z" fill="white"/>
<path d="M65.7945 25.5L64.7918 26.0723L62.6557 24.8611C62.2251 24.6195 61.8862 24.4834 61.6307 24.4528C61.3751 24.4278 61.1195 24.4834 60.8668 24.6278L60.2501 24.975L61.8334 27.7528L60.9807 28.2389L57.2251 21.6417L59.239 20.4973C59.8807 20.1334 60.4723 20.0028 61.0112 20.1028C61.5529 20.2056 61.9834 20.5361 62.2945 21.0917C62.814 22.0056 62.664 22.8778 61.8445 23.7056L61.8529 23.725C62.0807 23.7 62.2973 23.7195 62.514 23.7861C62.7251 23.8528 63.0334 24 63.439 24.225L65.7973 25.4973L65.7945 25.5ZM58.5029 21.9L59.8251 24.2334L60.8307 23.6611C61.2195 23.4389 61.4723 23.1473 61.5834 22.7834C61.6973 22.4167 61.6473 22.05 61.439 21.6806C61.2445 21.3361 60.9807 21.1306 60.6501 21.0639C60.3168 20.9973 59.9418 21.0834 59.5168 21.325L58.5001 21.9028L58.5029 21.9Z" fill="white"/>
<path d="M66.3695 18.3387L65.6751 18.5692L67.5668 24.1942L68.2584 23.9637L68.5223 24.7498L66.2084 25.5248L65.9473 24.7415L66.639 24.5054L64.7501 18.8804L64.0584 19.1109L63.7917 18.3248L66.1084 17.5498L66.3751 18.3359L66.3695 18.3387Z" fill="white"/>
<path d="M69.2529 23.0162C69.514 23.1829 69.8418 23.3051 70.2445 23.3801C70.6501 23.4523 71.0251 23.469 71.3695 23.4162C72.4251 23.2662 72.8945 22.8134 72.789 22.0634C72.7584 21.8523 72.6779 21.6718 72.5362 21.5218C72.4001 21.369 72.2251 21.244 72.0084 21.1412C71.7945 21.0412 71.3945 20.894 70.814 20.7023C70.0056 20.4357 69.4584 20.1579 69.1751 19.8718C68.889 19.5829 68.7168 19.2301 68.6584 18.8162C68.5695 18.194 68.7473 17.6634 69.1973 17.2245C69.6473 16.7884 70.2529 16.5162 71.0168 16.4051C71.764 16.2995 72.3251 16.3107 72.7001 16.444L72.8529 17.4995C72.3529 17.2495 71.7557 17.1745 71.064 17.2745C70.6057 17.3384 70.2445 17.4912 69.9806 17.7245C69.7223 17.9579 69.6168 18.2468 69.664 18.5884C69.7056 18.894 69.8418 19.1273 70.0695 19.2884C70.2973 19.4523 70.7723 19.6495 71.4862 19.8829C72.2751 20.1301 72.8445 20.4079 73.189 20.719C73.5334 21.0301 73.7362 21.4051 73.8001 21.844C73.8918 22.5051 73.7251 23.044 73.2973 23.4662C72.8723 23.8857 72.2334 24.1579 71.3834 24.2801C71.0834 24.3246 70.7334 24.3301 70.3223 24.3051C69.9168 24.2801 69.6112 24.219 69.414 24.1218L69.2557 23.0162H69.2529Z" fill="white"/>
<path d="M81.4612 24.4171L80.3889 24.2921L79.8556 22.1366L76.7195 21.7727L75.7528 23.7533L74.675 23.6283L78.425 16.4199L79.4695 16.5394L81.4612 24.4144V24.4171ZM79.6528 21.2505L78.8806 17.9838C78.8556 17.8783 78.8362 17.7005 78.8223 17.4421H78.7973C78.7362 17.6644 78.6778 17.8338 78.6139 17.9533L77.1223 20.9533L79.6528 21.2477V21.2505Z" fill="white"/>
<path d="M88.6138 27.6085L90.8083 23.0835C90.986 22.7085 91.2277 22.2696 91.5222 21.7696L91.4999 21.7585C91.2666 22.0502 91.086 22.2474 90.9638 22.3474L86.1999 26.4418L85.7138 26.2057L85.9527 19.9724C85.9555 19.828 86.0027 19.553 86.0999 19.1474L86.0749 19.1363C85.9499 19.4668 85.7416 19.9363 85.4471 20.5418L83.2749 25.028L82.436 24.6224L85.7416 17.7891L86.936 18.3696L86.6833 24.028C86.6638 24.4613 86.6277 24.7918 86.5833 25.0141L86.6166 25.0307C86.9722 24.6835 87.2166 24.4502 87.3499 24.3307L91.6583 20.6557L92.7999 21.2057L89.4916 28.0391L88.6138 27.6141V27.6085Z" fill="white"/>
<path d="M93.1917 26.2747C94.0611 25.4164 94.9889 24.9664 95.9695 24.9275C96.9556 24.8886 97.8445 25.2747 98.6417 26.0803C99.3834 26.8303 99.725 27.683 99.6723 28.6414C99.6223 29.5969 99.1917 30.4747 98.3834 31.2719C97.5056 32.1386 96.5806 32.5914 95.6028 32.6275C94.625 32.6664 93.7473 32.2914 92.9695 31.508C92.2139 30.7386 91.8611 29.8775 91.9056 28.9164C91.9528 27.9553 92.3834 27.0747 93.1889 26.2747H93.1917ZM93.9723 26.9497C93.3195 27.5969 92.9611 28.2803 92.8973 29.0025C92.8334 29.7247 93.0667 30.3553 93.5973 30.8941C94.1667 31.4691 94.8056 31.7358 95.5056 31.6886C96.2111 31.6441 96.9 31.2858 97.5778 30.6164C98.2778 29.9275 98.6556 29.2358 98.7167 28.5386C98.775 27.8441 98.5306 27.2164 97.9723 26.6553C97.4306 26.1053 96.7889 25.858 96.0528 25.908C95.3167 25.9636 94.625 26.3108 93.975 26.9497H93.9723Z" fill="white"/>
<path d="M99.0528 40.1L98.4889 39.0916L99.7139 36.9638C99.9584 36.5361 100.092 36.1972 100.125 35.9388C100.156 35.6833 100.1 35.425 99.9584 35.175L99.6112 34.5583L96.825 36.1222L96.3445 35.2666L102.967 31.5527L104.097 33.5722C104.458 34.2166 104.586 34.8083 104.478 35.3472C104.372 35.8861 104.042 36.3111 103.481 36.625C102.564 37.1388 101.692 36.9833 100.872 36.1555L100.85 36.1666C100.875 36.3944 100.853 36.6111 100.786 36.825C100.717 37.0388 100.569 37.3472 100.344 37.75L99.0528 40.1027V40.1ZM102.694 32.8277L100.356 34.1361L100.922 35.1472C101.139 35.5361 101.431 35.7916 101.797 35.9055C102.164 36.0194 102.531 35.975 102.9 35.7666C103.244 35.575 103.453 35.3111 103.522 34.9805C103.592 34.65 103.506 34.2722 103.269 33.8472L102.697 32.825L102.694 32.8277Z" fill="white"/>
<path d="M61.2666 75.0167C61.2472 74.9779 61.2305 74.9334 61.2194 74.889C61.1583 74.6668 61.2138 74.3529 61.2972 74.1445C60.8472 74.464 60.7055 75.1779 60.9888 75.8501C61.3027 76.6001 62.0333 77.0112 62.6138 76.7667C62.8694 76.6612 62.8611 76.4001 62.7472 76.1918C62.45 75.6251 61.5388 75.5806 61.2666 75.0167Z" fill="white"/>
<path d="M62.8806 75.8079C62.9001 75.8468 62.9167 75.8912 62.9278 75.9357C62.989 76.1579 62.9306 76.4718 62.8473 76.6829C63.2973 76.3634 63.439 75.6468 63.1584 74.9745C62.8417 74.2245 62.114 73.8134 61.5334 74.0579C61.2806 74.1662 61.2862 74.4218 61.4001 74.6357C61.6973 75.1995 62.6084 75.244 62.8806 75.8107V75.8079Z" fill="white"/>
<path d="M62.7472 77.4865C62.7305 77.5254 62.6972 77.5838 62.6361 77.6588C62.5861 77.7282 62.5138 77.8227 62.4138 77.9338C62.2666 78.1254 62.0583 78.3671 61.7972 78.656L60.8305 79.731C60.4749 80.1115 60.2222 80.3504 60.0666 80.4449C59.9222 80.5365 59.7777 80.556 59.6361 80.4977C59.2833 80.356 59.1777 80.1032 59.3249 79.7477C59.3555 79.6643 59.5722 79.4921 59.9694 79.2199C60.3249 78.981 60.7333 78.6727 61.1944 78.2893L62.3888 77.231C62.4611 77.1699 62.5416 77.156 62.6222 77.1865C62.7638 77.2449 62.8055 77.3449 62.7472 77.4838V77.4865Z" fill="white"/>
<path d="M63.6194 74.2558C63.4888 74.203 63.3971 74.0724 63.3443 73.8641C63.2443 73.4613 63.0527 72.978 62.7805 72.4141C62.7666 72.3891 62.761 72.3585 62.761 72.328C62.7499 72.2974 62.7499 72.2669 62.761 72.2335C62.8194 72.0919 62.9221 72.0502 63.0721 72.1085C63.0944 72.1196 63.1416 72.153 63.2055 72.2058L63.3888 72.3891C63.5194 72.5308 63.6444 72.6669 63.7638 72.803C64.0582 73.1363 64.2444 73.3863 64.3249 73.5474C64.3832 73.6891 64.386 73.8196 64.3388 73.9419C64.1999 74.2863 63.9582 74.3919 63.6194 74.2558Z" fill="white"/>
<path d="M65.6973 76.5246C65.4417 76.4496 65.2167 76.3746 65.025 76.294L64.775 76.9051C64.4362 77.7468 64.0584 78.4496 63.6473 79.019C63.2667 79.5329 62.8112 79.994 62.2862 80.4079C62.0445 80.5912 61.7973 80.7551 61.55 80.894C61.2389 81.0718 61.0362 81.1412 60.9445 81.1051C60.8028 81.0468 60.7584 80.9523 60.8167 80.8134C60.8223 80.7968 60.8528 80.7634 60.9112 80.7107C60.95 80.669 61.0112 80.6246 61.0862 80.5662L61.3917 80.3273C61.5806 80.1634 61.7612 79.9829 61.9334 79.7884C62.1362 79.569 62.3362 79.3273 62.525 79.0551C62.7278 78.7496 62.9334 78.4218 63.1278 78.069C63.3389 77.6773 63.5306 77.2579 63.7167 76.8079L64.5917 74.6579C64.7695 74.219 65.0056 73.9829 65.3 73.9412C65.4195 73.9273 65.5612 73.944 65.7223 73.994L65.9528 74.0634L66.175 74.1551C66.5584 74.3107 67.0806 74.469 67.7417 74.6301C68.1028 74.7162 68.4362 74.7857 68.75 74.8357C69.1028 74.8884 69.4056 74.919 69.6639 74.9246L69.8973 74.9329C69.975 74.9412 70.0389 74.9579 70.0973 74.9801C70.3889 75.0996 70.4723 75.2996 70.3584 75.5829C70.2806 75.769 70.0834 75.8357 69.7584 75.7829C68.9556 75.669 67.8056 75.3218 66.3056 74.7357C66.0917 74.6468 65.9417 74.6079 65.8667 74.6218C65.7528 74.6412 65.6556 74.744 65.575 74.9357L65.2084 75.844C65.4195 75.9246 65.6584 76.0023 65.9306 76.0829C66.25 76.1773 66.5778 76.2579 66.9 76.3246C67.2806 76.4134 67.6445 76.4801 67.9834 76.5273C68.3806 76.5746 68.7389 76.5912 69.0528 76.5829C69.2056 76.5746 69.3223 76.5829 69.3945 76.6134C69.7139 76.7412 69.8167 76.9579 69.6945 77.2551C69.6389 77.3912 69.5361 77.4635 69.3862 77.4773C69.1834 77.4968 68.8195 77.4384 68.2917 77.3023C68.1334 77.6912 67.9917 78.0634 67.875 78.4162L67.7334 78.8135L67.6584 79.0746C67.7862 79.0412 67.9528 78.9801 68.1528 78.8968L68.5084 78.7384C68.75 78.619 68.9278 78.5857 69.0362 78.6301C69.3362 78.7523 69.425 78.9801 69.2889 79.3134C69.225 79.4634 69.1167 79.5523 68.95 79.5884C68.6778 79.644 68.1889 79.6801 67.4862 79.7079C67.3362 80.3635 67.2639 80.9801 67.2778 81.5551C67.2862 82.2079 67.3973 82.7996 67.6195 83.3357C67.6389 83.3801 67.65 83.4134 67.6584 83.4384C67.6612 83.4829 67.6556 83.5246 67.6389 83.5607C67.5806 83.7023 67.4862 83.7468 67.35 83.6912C67.2806 83.6634 67.1806 83.5246 67.0528 83.2773C66.9473 83.0746 66.8528 82.8746 66.7806 82.6718C66.6 82.1884 66.4889 81.6884 66.4473 81.1773C66.4084 80.7218 66.425 80.244 66.4889 79.7468C66.55 79.3162 66.6528 78.8579 66.8028 78.3634C66.8639 78.1579 66.9362 77.9357 67.0195 77.6968L67.2667 77.0329L66.6945 76.8523L64.6056 81.9968C64.5389 82.1579 64.4584 82.2773 64.3639 82.3523C64.2306 82.4523 64.0695 82.4607 63.875 82.3829C63.6723 82.2996 63.5667 82.1607 63.5612 81.9634C63.55 81.8968 63.5612 81.8218 63.5862 81.7468C63.5862 81.7218 63.5973 81.6912 63.6084 81.6607L65.6945 76.5246H65.6973Z" fill="white"/>
<path d="M80.9277 75.2C80.8611 74.9666 80.8889 74.7833 81.0111 74.6472C81.0527 74.6 81.1027 74.5611 81.1638 74.5277C81.1888 74.5139 81.2138 74.5027 81.2416 74.4944L81.2889 74.4805C81.4194 74.4444 81.5388 74.4444 81.6472 74.4833C81.8055 74.5416 81.9166 74.6777 81.9777 74.8916L82.05 75.1444L84.1416 74.5361L84.0666 74.2722C84 74.0444 84.0277 73.8639 84.1527 73.7278C84.1944 73.6833 84.2472 73.6416 84.3083 73.6083C84.325 73.5972 84.3472 73.5861 84.375 73.5805L84.425 73.5639C84.5527 73.5277 84.6666 73.5277 84.775 73.5666C84.9333 73.6222 85.0388 73.7555 85.1027 73.9666L85.1833 74.2305L87.2722 73.6194C87.3027 73.6111 87.3333 73.6055 87.3611 73.6055C87.3944 73.6055 87.4277 73.6055 87.4555 73.6111C87.5333 73.6305 87.5833 73.6833 87.6055 73.7666C87.6333 73.8583 87.6139 73.9305 87.5555 73.9833C87.5333 74.0027 87.5083 74.0222 87.475 74.0389C87.4527 74.0527 87.4277 74.0639 87.3972 74.0722L85.3083 74.6833L85.3388 74.7805C85.3472 74.8194 85.3583 74.8555 85.3611 74.8889C85.3777 74.975 85.3777 75.0527 85.3611 75.1194C85.3388 75.3083 85.2139 75.4361 84.9861 75.5055C84.7583 75.5694 84.5861 75.5333 84.4666 75.3889C84.4166 75.3444 84.3777 75.275 84.3416 75.1833C84.325 75.1555 84.3138 75.1194 84.3 75.0805L84.275 74.9833L82.1833 75.5916L82.2111 75.6916C82.2222 75.7222 82.225 75.7555 82.2305 75.7916C82.25 75.8833 82.25 75.9639 82.2361 76.0305C82.2055 76.2222 82.0777 76.3527 81.8611 76.4166C81.6277 76.4833 81.4472 76.4472 81.3222 76.3083C81.2722 76.2583 81.2333 76.1916 81.2027 76.1C81.1833 76.0666 81.1694 76.0361 81.1611 75.9972L81.1333 75.9L78.9916 76.5222C78.9555 76.5305 78.9277 76.5361 78.9 76.5389C78.8666 76.5472 78.8361 76.5472 78.8055 76.5333C78.7305 76.5194 78.6805 76.4722 78.6583 76.3861C78.6277 76.3 78.6444 76.2277 78.6972 76.1639C78.7194 76.1416 78.7444 76.125 78.7722 76.1111C78.8055 76.0944 78.8333 76.0833 78.8583 76.075L81 75.45L80.925 75.1972L80.9277 75.2Z" fill="white"/>
<path d="M89.4693 80.0168C89.4499 80.0001 89.4277 79.9918 89.3943 79.9946L89.3277 79.9835C89.0721 79.964 88.8332 79.9446 88.6138 79.914C88.3443 79.8807 88.0999 79.839 87.8666 79.7862C87.3166 79.6529 86.8666 79.4529 86.5277 79.1946L88.6943 78.564C88.7193 78.5585 88.7416 78.5473 88.7693 78.5307C88.7999 78.514 88.8277 78.4973 88.8443 78.4751C88.9082 78.4196 88.9277 78.3501 88.9027 78.2585C88.8749 78.1696 88.8193 78.1168 88.7388 78.1085C88.7082 78.1029 88.6777 78.1029 88.6443 78.1057C88.6138 78.1057 88.5888 78.1085 88.5638 78.1168L84.1082 79.414C84.2082 79.2029 84.2971 78.9696 84.3804 78.7251L86.561 78.089C87.1527 77.9168 87.3721 77.5723 87.2221 77.0612L86.8888 75.9223C86.8138 75.6668 86.7054 75.5001 86.561 75.4168C86.386 75.3112 86.1221 75.3112 85.7832 75.4112L81.0999 76.7751C80.5082 76.9473 80.2888 77.289 80.4388 77.8001L80.7721 78.939C80.9193 79.4501 81.2888 79.6251 81.8804 79.4501L83.0832 79.0973L83.0221 79.3612C82.9832 79.4918 82.9332 79.6307 82.8693 79.7751L80.1666 80.564C80.1416 80.5696 80.1165 80.5807 80.0915 80.5946C80.0582 80.6112 80.0304 80.6307 80.011 80.6501C79.9471 80.7057 79.9304 80.7779 79.9554 80.8668C79.9804 80.9501 80.0304 81.0029 80.1054 81.0223C80.136 81.0279 80.1693 81.0307 80.2027 81.0279C80.2304 81.0279 80.2638 81.0196 80.2943 81.0112L82.5915 80.3418C82.2943 80.8223 81.9888 81.2223 81.686 81.5446C81.5443 81.6918 81.3721 81.8501 81.1693 82.0223C81.036 82.1418 80.8193 82.3168 80.5332 82.5557L80.4471 82.6557C80.4193 82.7085 80.4138 82.7612 80.4332 82.8279C80.4749 82.9696 80.5638 83.0196 80.7082 82.9779C80.7471 82.9696 80.8749 82.889 81.0832 82.7418C81.3499 82.5668 81.6193 82.3668 81.8888 82.139C82.2443 81.839 82.5749 81.5223 82.8721 81.1973C83.2416 80.8029 83.5527 80.3973 83.7971 79.989L85.2471 79.5668C85.6582 79.814 86.1221 80.0112 86.6471 80.164C87.061 80.2835 87.5054 80.3696 87.9777 80.4196C88.3166 80.4557 88.6582 80.4723 88.9943 80.464C89.0527 80.4696 89.1082 80.4696 89.1638 80.464L89.4304 80.439C89.5749 80.3973 89.6277 80.3057 89.5832 80.1612C89.561 80.0918 89.5221 80.0418 89.4693 80.0168ZM81.4971 77.589C81.4166 77.3168 81.511 77.1418 81.7777 77.064L85.361 76.0196C85.6277 75.9446 85.7999 76.0418 85.8804 76.314L85.9471 76.5473L81.5666 77.8223L81.4999 77.5862L81.4971 77.589ZM82.2971 78.8446C82.0304 78.9223 81.8582 78.8251 81.7777 78.5529L81.6971 78.2696L86.0777 76.9973L86.1582 77.2779C86.2388 77.5501 86.1471 77.7251 85.8804 77.8029L82.2971 78.8473V78.8446Z" fill="white"/>
<path d="M85.2417 82.1333C85.3139 82.3944 85.3167 82.5972 85.25 82.7417C85.1667 82.9417 84.95 83.0917 84.6083 83.1944L83.6611 83.4667C83.6194 83.4722 83.5861 83.4722 83.5555 83.4667C83.5194 83.4667 83.4889 83.45 83.4611 83.4222C83.4222 83.4 83.4 83.3583 83.3833 83.3083C83.3667 83.2556 83.3722 83.2083 83.3861 83.1694C83.3944 83.1333 83.4139 83.1028 83.4444 83.0806C83.4667 83.0611 83.4944 83.0389 83.5333 83.0222L83.9694 82.8944C84.2361 82.8194 84.3278 82.6417 84.2528 82.3694L83.8444 80.9778C83.7944 80.8139 83.7861 80.6833 83.8111 80.5778C83.85 80.425 83.9667 80.3222 84.1555 80.2667C84.4861 80.1694 84.7083 80.3139 84.8194 80.6972L85.2389 82.1361L85.2417 82.1333Z" fill="white"/>
<path d="M85.4195 80.7305C85.4418 80.7305 85.4695 80.736 85.5001 80.7499C85.564 80.7721 85.6779 80.8388 85.8445 80.9471L86.1417 81.136C86.2806 81.2249 86.3973 81.3082 86.5001 81.3916C86.789 81.6027 86.9501 81.7694 86.9834 81.8944C87.0723 82.2055 86.939 82.4138 86.5751 82.5194C86.389 82.5749 86.1584 82.386 85.8834 81.9527C85.6973 81.6527 85.4973 81.386 85.2779 81.1444C85.2362 81.0999 85.214 81.0666 85.2084 81.0388C85.164 80.8916 85.2195 80.7916 85.3751 80.7471L85.4223 80.736L85.4195 80.7305Z" fill="white"/>
<path d="M86.8917 80.4495C86.9473 80.469 87.0751 80.5245 87.2751 80.6134L87.6168 80.7662C87.7612 80.8301 87.8917 80.894 88.0112 80.9579C88.3056 81.1245 88.4723 81.2745 88.5056 81.4023C88.6029 81.7329 88.4667 81.9495 88.0973 82.0579C87.9362 82.1079 87.7723 82.0245 87.614 81.8079C87.3529 81.4717 87.0445 81.1551 86.6862 80.8662C86.6251 80.8217 86.5862 80.7745 86.5751 80.7301C86.5306 80.5801 86.5834 80.4828 86.7306 80.4384C86.7806 80.4273 86.8306 80.4273 86.8917 80.444V80.4495Z" fill="white"/>
<path d="M82.5583 82.2414C82.5583 82.2414 82.1278 81.9775 81.8722 82.2831C81.6222 82.5859 81.9861 83.2498 82.8 83.2442C82.8 83.2442 83.4722 82.9025 83.3195 82.2137C83.2056 81.6859 82.5056 81.8887 82.5611 82.2387L82.5583 82.2414Z" fill="white"/>
<path fill-rule="evenodd" clip-rule="evenodd" d="M50.7972 67.2058C50.7556 67.1753 50.6056 67.0781 50.5556 67.0864C50.5445 67.0308 50.4695 66.9531 50.5361 66.7864C50.5556 66.7392 50.5722 66.6836 50.6028 66.6142C50.6722 66.4697 50.5611 66.017 50.425 66.0392C50.4139 65.9975 50.1945 65.6725 50.15 65.6447C49.9833 65.5281 49.8389 65.3781 49.675 65.2642C49.6722 65.2614 49.4778 65.1836 49.4389 65.1725C49.3333 65.1419 49.0972 64.9836 49 65.0003C48.9945 64.9642 48.8445 64.8781 48.8084 64.8753C48.7056 64.867 48.725 64.9003 48.6306 64.8336C48.4778 64.7253 48.4472 64.6308 48.3778 64.4697C48.3695 64.5808 48.3472 64.6586 48.2945 64.7614C48.2445 64.8725 48.25 65.3058 48.2445 65.3142C48.2195 65.3586 48.175 65.3419 48.1806 65.5114C48.1861 65.6975 48.1361 65.6169 48.0945 65.7669C48.05 65.9086 48.1695 66.0475 48.15 66.1864C48.1167 66.392 48.2167 66.3975 48.2556 66.5336C48.2972 66.6836 48.2972 66.7364 48.4222 66.8225C48.4445 66.9392 48.6111 67.0447 48.7111 67.0864C48.8806 67.1531 48.9611 67.3558 49.2306 67.367C49.4389 67.3781 50.025 67.4086 50.15 67.2781C50.1667 67.2614 50.4611 67.1697 50.5056 67.1642C50.5417 67.1892 50.6778 67.2225 50.7778 67.2864C50.7722 67.2614 50.7778 67.2308 50.7972 67.2114V67.2058ZM50.1028 65.6697C50.1417 65.6947 50.1917 65.7808 50.25 65.8669C50.2556 65.8836 50.2695 65.8975 50.275 65.9114C50.3389 66.0031 50.4 66.0892 50.4417 66.0781C50.4861 66.1058 50.5 66.1419 50.5111 66.1808C50.5222 66.2364 50.5195 66.2947 50.5361 66.3336C50.5639 66.5031 50.4861 66.6503 50.425 66.8086C50.4083 66.8586 50.3889 66.9114 50.3834 66.967C50.225 66.9947 50.0389 66.8975 49.8584 66.9308V66.8892C49.8695 66.7808 49.9695 66.6031 50.0111 66.542C50.0556 66.4808 50.0583 66.3753 50.0917 66.3308C50.1722 66.2169 50.1195 65.8031 50.1028 65.6697ZM50.0528 65.6892C50.1195 66.0058 50.0861 66.2558 49.95 66.5447C49.9334 66.5781 49.9195 66.6031 49.9083 66.6281C49.8861 66.6614 49.8722 66.6864 49.8611 66.7086C49.8417 66.7447 49.8278 66.7892 49.8139 66.9142C49.7972 66.9086 49.7722 66.8753 49.7556 66.867C49.6417 66.8086 49.5306 66.7586 49.5417 66.6308C49.5417 66.6114 49.5472 66.5892 49.5528 66.5697C49.6 66.4086 49.725 66.2753 49.7806 66.1753C49.7917 66.1586 49.8 66.1447 49.8056 66.1281C49.8695 65.9114 49.8556 65.6642 49.7945 65.4281C49.8195 65.4447 49.8528 65.467 49.8861 65.492C49.9639 65.5503 50.0472 65.6253 50.0528 65.6947V65.6892ZM49.5889 65.2753C49.6889 65.3197 49.7333 65.4475 49.7556 65.5419C49.7945 65.7475 49.875 66.0086 49.7 66.1836C49.65 66.2364 49.6167 66.2892 49.5806 66.3475C49.5639 66.3725 49.5389 66.4586 49.5167 66.5308C49.5 66.5808 49.4806 66.6253 49.4695 66.6253C49.4278 66.5975 49.3639 66.5642 49.3028 66.5253C49.2111 66.4725 49.1195 66.4114 49.0972 66.342C49.0695 66.2392 49.1111 66.1447 49.1722 66.0614C49.2 66.0281 49.2306 65.9947 49.2556 65.9669C49.275 65.9475 49.2917 65.9308 49.3028 65.917C49.3278 65.892 49.3417 65.8725 49.3472 65.8586C49.3611 65.8281 49.3583 65.8086 49.3917 65.7364C49.5445 65.4225 49.4528 65.4308 49.4778 65.2586C49.5222 65.2531 49.5584 65.2558 49.5889 65.2725V65.2753ZM49.3833 65.2531L49.4083 65.392C49.425 65.5225 49.3667 65.6364 49.3417 65.7614C49.3028 65.9336 49.0056 66.1392 49.0361 66.3197C49.0195 66.3142 49.0139 66.2947 49.0056 66.2781C49 66.2586 48.9917 66.2392 48.9861 66.2308C48.9056 66.1058 48.8639 65.9892 48.8611 65.8753C48.8611 65.7614 48.9 65.6503 48.9861 65.5253C49.0334 65.4614 49.0556 65.3947 49.0695 65.3253C49.075 65.2558 49.075 65.1836 49.0722 65.1003C49.0834 65.1003 49.0917 65.1003 49.1056 65.1003C49.1945 65.1142 49.3611 65.2058 49.3833 65.2503V65.2531ZM48.9639 65.0169C48.9861 65.0392 49.0056 65.0614 49.0111 65.0781C49.0167 65.1142 49.025 65.1781 49.025 65.2308V65.2808C48.9972 65.5281 48.7833 65.6364 48.7917 65.8503C48.7861 65.8253 48.7806 65.8003 48.7722 65.7725C48.7667 65.7531 48.7611 65.7336 48.7528 65.7142C48.7195 65.6336 48.7056 65.5614 48.6945 65.492C48.6583 65.2225 48.7583 65.0336 48.7417 64.9392C48.8 64.9114 48.9 64.9642 48.9639 65.0197V65.0169ZM48.4806 64.8308C48.5195 64.8253 48.5667 64.8808 48.625 64.9058C48.6389 64.9142 48.6583 64.917 48.675 64.9142C48.6945 65.017 48.6778 65.3058 48.6111 65.3614C48.5945 65.2781 48.5445 65.1614 48.5167 65.0114V64.9947L48.5111 64.992C48.4945 64.9503 48.475 64.8947 48.4806 64.8503V64.8281V64.8308ZM48.3361 64.9558C48.3417 64.9197 48.3445 64.8975 48.3445 64.8781C48.3445 64.8669 48.3472 64.8586 48.3472 64.8503C48.3528 64.8281 48.3583 64.8058 48.3889 64.7642L48.4056 64.7975C48.4167 64.8725 48.4278 64.9475 48.4417 65.0197C48.4583 65.1308 48.4722 65.2392 48.5111 65.3419C48.5445 65.4475 48.6389 65.5642 48.6222 65.6781C48.6167 65.6781 48.6083 65.6781 48.6028 65.6781C48.5556 65.6503 48.4611 65.5253 48.4361 65.5003C48.4195 65.4836 48.4056 65.4642 48.3917 65.4447C48.2972 65.3058 48.2972 65.1114 48.3333 64.9558H48.3361ZM48.4917 65.6586C48.5111 65.6753 48.5222 65.6919 48.5278 65.6975C48.5917 65.7836 48.6167 65.7892 48.6556 65.8392C48.6806 65.8697 48.7139 65.9253 48.7667 66.0475C48.7667 66.0475 48.7334 66.0308 48.7 66.0086C48.6472 65.9753 48.575 65.9308 48.55 65.9225C48.3722 65.8836 48.3833 65.8253 48.275 65.6753C48.2445 65.6225 48.2361 65.4503 48.2722 65.4003C48.2833 65.4086 48.4278 65.5725 48.4917 65.6531V65.6586ZM48.1583 65.7586C48.1778 65.7447 48.2028 65.7447 48.2417 65.7753C48.3056 65.8669 48.4389 65.9447 48.55 65.9781C48.6889 66.017 48.6 66.0336 48.7167 66.0864C48.7222 66.0864 48.7278 66.0919 48.7333 66.0919C48.8667 66.1558 48.9056 66.1947 48.9583 66.3336C48.8306 66.3558 48.7611 66.3586 48.6361 66.3336C48.4556 66.2947 48.4056 66.2114 48.3528 66.2197C48.3445 66.2197 48.3306 66.2197 48.3167 66.2142C48.1833 66.1642 48.0945 65.8197 48.1611 65.7558L48.1583 65.7586ZM48.2611 66.417C48.2028 66.3586 48.1722 66.2392 48.1972 66.1892C48.2195 66.1947 48.2611 66.2281 48.2778 66.242C48.3889 66.3225 48.6139 66.3808 48.7861 66.4031C48.8334 66.4114 48.8861 66.4142 48.9195 66.4142C49.0445 66.4142 49.0861 66.4364 49.1278 66.4697C49.1472 66.4864 49.1667 66.5003 49.1889 66.5197C49.2 66.5642 49.0917 66.5697 48.9778 66.5642C48.8556 66.5586 48.725 66.5392 48.6917 66.5336C48.5306 66.5114 48.5195 66.4975 48.4833 66.4808C48.475 66.4753 48.4611 66.4697 48.4389 66.4614C48.4139 66.4558 48.3889 66.4447 48.3611 66.442C48.3111 66.4281 48.2695 66.417 48.2583 66.417H48.2611ZM48.3695 66.6697C48.3584 66.6447 48.3528 66.6225 48.35 66.5947C48.3472 66.5781 48.3445 66.567 48.3417 66.5503C48.3472 66.5447 48.3583 66.5392 48.3667 66.5392C48.375 66.5392 48.3861 66.5364 48.3861 66.5364H48.4028C48.4583 66.5364 48.5333 66.5558 48.5889 66.5697C48.6056 66.5753 48.6222 66.5781 48.6333 66.5808C48.7278 66.6058 49.0278 66.617 49.0306 66.6197C49.0778 66.6336 49.1333 66.5808 49.1778 66.5892C49.3389 66.617 49.4445 66.6697 49.4917 66.8031C49.4639 66.8086 49.4306 66.817 49.4028 66.8253C49.2806 66.8503 49.1584 66.8836 49.0334 66.8919C48.9306 66.9031 48.7361 66.8697 48.5778 66.8058C48.4889 66.7697 48.4111 66.7253 48.3695 66.6725V66.6697ZM48.55 66.8864C48.55 66.8864 48.5333 66.8753 48.5278 66.8642C48.6195 66.8642 48.7111 66.8864 48.8028 66.9142C48.9611 66.9614 49.1056 66.9392 49.2556 66.9142C49.3472 66.8947 49.4445 66.8753 49.5417 66.8753C49.5556 66.8753 49.5722 66.8753 49.5917 66.8808C49.6556 66.8947 49.7445 66.9364 49.7695 66.9781C49.7583 66.9799 49.75 66.9836 49.7445 66.9892C49.6611 67.0725 49.3083 67.1281 49.2222 67.1253C49.0417 67.1197 48.9195 67.1031 48.7611 67.0281C48.5306 66.917 48.6528 66.9614 48.55 66.8864ZM49.8611 67.3086C49.6389 67.3086 49.4028 67.3281 49.1861 67.2892C49.0695 67.2697 48.9556 67.2308 48.8528 67.1586C48.8306 67.142 48.8195 67.1308 48.8167 67.1253V67.1197C48.8167 67.1197 48.8722 67.1364 48.9 67.1447C49.1611 67.2308 49.3889 67.1864 49.6556 67.0947C49.7806 67.0503 49.8611 66.9725 49.975 66.9642C50.0139 66.9586 50.0556 66.9642 50.1028 66.9781C50.1167 66.9808 50.1278 66.9836 50.1445 66.9864C50.2528 67.0086 50.4084 67.0086 50.475 67.1169C50.2667 67.1586 50.0695 67.3086 49.8611 67.3086Z" fill="white"/>
<path fill-rule="evenodd" clip-rule="evenodd" d="M50.2446 63.6028C49.6334 61.9305 48.6251 60.2722 47.0918 59.2778C45.3584 58.1444 42.7307 58.8389 43.1834 61.1778C43.3084 61.8305 43.9057 62.9944 44.6696 63.0472C45.3751 63.0944 45.5001 61.6694 44.8473 61.725C44.5362 61.75 44.6334 62.2028 44.4168 62.3055C43.614 62.6944 43.3307 61.2333 43.439 60.7639C43.5918 60.0583 44.1196 59.5333 44.7584 59.2944C45.8334 58.8944 46.939 59.4722 47.8779 60.2611C49.1057 61.2944 49.8779 62.7472 50.2723 64.2278C50.7723 66.0889 50.7668 70.0333 51.8584 71.15C50.5946 68.85 51.1473 66.0917 50.239 63.6028H50.2446Z" fill="white"/>
<path fill-rule="evenodd" clip-rule="evenodd" d="M56.1333 75.4247C56.0805 75.2859 55.9333 74.9414 55.8028 74.8831C55.8639 74.7442 55.8139 74.4497 56.2222 74.172C56.3361 74.097 56.4583 73.9886 56.6417 73.8831C57.0222 73.6609 57.4611 72.4497 57.1055 72.2942C57.1555 72.1803 57.1444 71.1053 57.0889 70.9636C56.8861 70.4497 56.7889 69.8803 56.5889 69.3664C56.5833 69.3553 56.2639 68.8775 56.2 68.7997C56.0028 68.5636 55.7111 67.8414 55.4555 67.7331C55.4972 67.6414 55.2917 67.2192 55.2111 67.1525C54.9944 66.9664 54.9833 67.0775 54.8694 66.7914C54.6861 66.3053 54.7694 66.047 54.8528 65.5664C54.6639 65.8081 54.4972 65.9442 54.225 66.1053C53.9305 66.2775 53.2778 67.2747 53.2528 67.2859C53.125 67.3442 53.0472 67.2497 52.8 67.6442C52.5333 68.0775 52.5444 67.8136 52.2028 68.0914C51.8944 68.347 51.9528 68.8442 51.6917 69.1331C51.3055 69.5525 51.525 69.7192 51.4028 70.0886C51.2667 70.4942 51.1861 70.6164 51.3361 71.0109C51.2028 71.3081 51.4222 71.8025 51.5889 72.047C51.875 72.4664 51.7472 73.0497 52.35 73.4914C52.8083 73.8359 54.0972 74.7997 54.5889 74.697C54.6472 74.6831 55.4611 74.9247 55.5722 74.9747C55.6167 75.0831 55.9889 75.4886 56.1194 75.7942C56.1472 75.7192 56.0528 75.447 56.125 75.4275L56.1333 75.4247ZM56.6278 69.9109C56.65 69.9692 56.675 70.0414 56.7055 70.1192C56.8 70.3831 56.9 70.7247 56.8 70.9053C56.7972 70.9081 56.7972 70.9109 56.7972 70.9109C56.7972 70.9109 56.7972 70.9164 56.7972 70.922C56.6583 71.272 56.4944 71.5636 56.3 71.822C56.0305 72.1747 55.6972 72.4581 55.2611 72.7164C54.7528 73.0136 54.8472 72.8303 54.3833 73.3414C54.3528 73.3025 54.3528 73.1886 54.3333 73.1497C54.2555 73.0247 54.1861 72.8997 54.1417 72.7803C54.0611 72.5664 54.075 72.3609 54.325 72.1525C54.3555 72.1247 54.3944 72.1025 54.4305 72.0775C54.8389 71.797 55.3694 71.7053 55.5778 71.5331C56.0639 71.1331 56.4111 70.5442 56.6278 69.9136H56.6333L56.6278 69.9109ZM56.1361 69.0636C56.5805 69.2609 56.4694 69.7997 56.3472 70.1331C56.1167 70.6581 55.8972 71.3747 55.2333 71.5136C55.0805 71.5497 54.9472 71.6025 54.8083 71.6609C54.775 71.6747 54.7417 71.6914 54.7055 71.7025C54.6639 71.7192 54.5861 71.7775 54.4972 71.847C54.3305 71.9803 54.1222 72.1525 54.0417 72.1692C54.0361 72.1692 54.0305 72.1692 54.0222 72.1692C53.9222 71.9136 53.6639 71.5025 53.6083 71.1831C53.5917 71.0997 53.5889 71.022 53.6083 70.9553C53.6305 70.8831 53.6667 70.822 53.7028 70.7692C53.8861 70.5136 54.2305 70.4053 54.5389 70.3414C54.6778 70.3109 54.7667 70.2886 54.825 70.272C54.8667 70.2581 54.8917 70.247 54.9139 70.2331C54.9917 70.1886 55.0139 70.1414 55.2083 70.0303C55.4639 69.8775 55.6222 69.7636 55.725 69.6636C55.9472 69.4442 55.9083 69.3136 56.1333 69.0664L56.1361 69.0636ZM55.4639 68.0747C55.4861 68.0859 55.5111 68.1025 55.5389 68.1275C55.5639 68.1525 55.5889 68.1831 55.6194 68.2164C55.6472 68.2525 55.675 68.2859 55.7 68.3275C55.7028 68.3275 55.7028 68.3275 55.7028 68.3331C55.7305 68.372 55.7528 68.4136 55.7778 68.4553V68.4609C55.8028 68.5025 55.8278 68.5442 55.8472 68.5859C55.8472 68.5859 55.8472 68.5914 55.85 68.5942C55.8667 68.6331 55.8861 68.6692 55.8972 68.7081C55.8972 68.7081 55.9 68.7136 55.9028 68.7192C55.9139 68.7525 55.925 68.7859 55.9305 68.8136V68.8275C55.9361 68.8525 55.9417 68.8747 55.9417 68.8942V68.8997L55.8639 69.0747L55.7833 69.2525C55.7555 69.3136 55.7167 69.3692 55.675 69.4192C55.5222 69.6164 55.3222 69.7581 55.1389 69.922C55.1139 69.9414 55.0889 69.9664 55.0611 69.9914C54.7083 70.3275 53.7139 70.3442 53.5083 70.8053C53.4917 70.7859 53.4889 70.7553 53.4972 70.722C53.5028 70.6581 53.5333 70.5775 53.5333 70.5303C53.5417 70.1692 53.6028 69.8747 53.7305 69.6303C53.8972 69.3164 54.1805 69.0886 54.6111 68.9192C55.0417 68.7553 55.2278 68.4525 55.4611 68.0775L55.4639 68.0747ZM55.2389 67.4497C55.3333 67.622 55.3861 67.8331 55.3639 67.9303C55.3167 68.0331 55.1944 68.2525 55.1111 68.3692C55.1 68.3831 55.0889 68.397 55.0805 68.4081C54.7111 68.847 54.1917 68.8609 53.85 69.1497C53.7861 69.2053 53.725 69.2692 53.6778 69.347C53.6944 69.3053 53.7055 69.2609 53.7222 69.2192C53.7528 69.1386 53.7861 69.0581 53.8028 68.9775C54.05 67.847 54.8333 67.4914 54.9667 67.197C55.0722 67.2081 55.1722 67.3164 55.2444 67.4497H55.2389ZM54.5278 66.5553C54.6222 66.5997 54.6528 66.8303 54.7555 66.9664C54.7639 66.9747 54.775 66.9886 54.7805 66.9997H54.7833C54.8028 67.0192 54.8222 67.0303 54.8444 67.0442C54.7305 67.3081 54.25 67.9414 54.0083 67.972C54.0305 67.9136 54.0528 67.8497 54.0722 67.7803H54.075V67.7692C54.1333 67.5859 54.1889 67.3581 54.2861 67.1164C54.3055 67.072 54.3194 67.0247 54.3389 66.9775C54.3444 66.9497 54.3528 66.9136 54.3611 66.8831C54.3861 66.7775 54.4305 66.6609 54.5 66.5886C54.5055 66.5803 54.5139 66.5692 54.5222 66.5609L54.5278 66.5553ZM53.625 67.0692C53.7305 66.8997 53.8639 66.7442 54 66.6109C54.2167 66.4081 54.1444 66.372 54.4194 66.2664L54.4 66.3636C54.2917 66.6109 54.1667 66.8581 54.0528 67.1081C53.9583 67.322 53.8667 67.5442 53.8028 67.7636C53.7389 67.9997 53.7528 68.3053 53.65 68.5386C53.625 68.5997 53.5917 68.6581 53.5472 68.7053C53.5417 68.7053 53.5333 68.6997 53.5305 68.6942C53.45 68.6053 53.4305 68.1497 53.4083 68.0247V68.0136C53.3389 67.6886 53.4444 67.3581 53.625 67.072V67.0692ZM53.1667 67.5359C53.1667 67.5359 53.1722 67.5664 53.1805 67.5997C53.2111 67.7942 53.2805 68.3609 53.3 68.5497C53.3 68.572 53.3 68.5886 53.3 68.5997C53.3167 68.9109 53.375 68.9497 53.3805 69.1525C53.3833 69.272 53.3694 69.447 53.3111 69.7664C53.3111 69.7664 53.3083 69.7581 53.3055 69.7553C53.3 69.7525 53.3 69.7497 53.2944 69.7386C53.2944 69.7386 53.2889 69.7331 53.2889 69.7275C53.225 69.6053 53.0805 69.2331 53.0083 69.1553C52.6583 68.7914 52.7805 68.6831 52.7555 68.172C52.7722 68.0081 53.0111 67.597 53.1694 67.5359H53.1667ZM52.3055 68.1997C52.3917 68.1414 52.4694 68.1692 52.5222 68.3303H52.525C52.525 68.3442 52.525 68.3553 52.525 68.372C52.5417 68.5553 52.6083 68.7609 52.7083 68.9442C52.7694 69.0636 52.8417 69.1747 52.9194 69.2692C52.9333 69.2859 52.9444 69.297 52.9555 69.3109C53.15 69.5664 52.9555 69.4942 53.1278 69.772C53.1444 69.7942 53.1528 69.8164 53.1694 69.8414C53.2917 70.0414 53.35 70.1803 53.3528 70.3414C53.3528 70.4442 53.3333 70.5609 53.2944 70.7109C52.975 70.572 52.8 70.4692 52.5555 70.2109C52.2139 69.8497 52.2194 69.5803 52.0861 69.5247C52.0639 69.5109 52.0444 69.4914 52.0278 69.4692C52.0278 69.4664 52.0222 69.4636 52.0167 69.4581C52.0167 69.4581 52.0167 69.4525 52.0139 69.4497C51.8139 69.1497 52.0722 68.3553 52.3028 68.1997H52.3055ZM51.7944 69.2109C51.8167 69.2359 51.8361 69.2914 51.8555 69.3414C51.8722 69.3859 51.8833 69.4303 51.8944 69.4553C52.0028 69.7275 52.2722 70.0747 52.5583 70.3664C52.7472 70.5609 52.9444 70.7303 53.1055 70.8359C53.425 71.047 53.4611 71.1664 53.5083 71.3303C53.5222 71.3775 53.5333 71.4247 53.5555 71.4859C53.5083 71.5997 53.25 71.447 52.9889 71.2497C52.725 71.0581 52.4611 70.8164 52.4 70.7609C52.2333 70.6081 52.1472 70.5192 52.1 70.4581C52.0167 70.3553 52.0305 70.3275 51.9305 70.2109C51.9194 70.197 51.9111 70.1831 51.8972 70.172C51.7667 70.0164 51.6222 69.8442 51.5833 69.8303C51.5472 69.6136 51.6583 69.2914 51.7944 69.2136V69.2109ZM51.45 70.5775C51.4694 70.4775 51.5083 70.3886 51.5528 70.2942C51.5555 70.2831 51.5639 70.2692 51.5639 70.2609H51.5667C51.5833 70.2581 51.6055 70.2636 51.6305 70.2692C51.6333 70.272 51.6361 70.2692 51.6417 70.272C51.6667 70.2831 51.6917 70.297 51.7222 70.3136H51.725C51.8472 70.397 51.9778 70.5359 52.0805 70.6525C52.1194 70.697 52.1583 70.7386 52.1861 70.7664C52.2444 70.8303 52.35 70.9192 52.4611 71.0136C52.6861 71.1942 52.9472 71.3942 53.0194 71.447C53.0305 71.4581 53.0389 71.4636 53.0389 71.4636C53.0528 71.4775 53.0639 71.4886 53.0805 71.497C53.1472 71.5414 53.2528 71.5442 53.3361 71.572C53.3667 71.5831 53.3972 71.5942 53.4194 71.6164C53.4278 71.6247 53.4361 71.6331 53.4417 71.6386C53.7028 71.9025 53.8583 72.147 53.8305 72.4553C53.8278 72.4997 53.8194 72.547 53.8083 72.5942C53.6555 72.5275 53.4917 72.4664 53.3278 72.4053C53.1222 72.3275 52.9222 72.247 52.7278 72.147C52.6944 72.1275 52.6583 72.1164 52.625 72.097C52.6055 72.0858 52.5833 72.072 52.5611 72.0581C52.5555 72.0581 52.5555 72.0525 52.5472 72.0497C52.5417 72.047 52.5389 72.0414 52.5278 72.0358C52.275 71.8636 51.9305 71.5164 51.6944 71.1692C51.5555 70.9581 51.4583 70.7497 51.4472 70.572L51.45 70.5775ZM51.8 71.9997C51.7444 71.9109 51.7028 71.8386 51.675 71.7831C51.5917 71.6303 51.5805 71.5886 51.575 71.5553C51.575 71.5303 51.5805 71.5081 51.5583 71.4331C51.5528 71.4136 51.5417 71.3859 51.5305 71.3525C51.5222 71.3247 51.5139 71.2997 51.5111 71.2664C51.6583 71.3609 51.7861 71.4859 51.9083 71.6164C51.9639 71.6775 52.0194 71.7386 52.0694 71.8053C52.1333 71.8803 52.2 71.9497 52.275 72.0108C52.5944 72.2914 52.9833 72.4331 53.375 72.6081C53.5278 72.6775 53.6778 72.7525 53.8305 72.8442C53.85 72.8581 53.8722 72.8747 53.8944 72.8942C53.9694 72.9636 54.0583 73.0803 54.1167 73.1914C54.1611 73.2775 54.1917 73.3608 54.1861 73.4247H54.1833L54.1778 73.4192C54.15 73.4081 54.1389 73.4081 54.1083 73.4164C53.9722 73.4442 53.7194 73.3831 53.4722 73.2886C53.1472 73.1692 52.8222 73.0025 52.7167 72.9303C52.6222 72.8608 52.5361 72.7997 52.4555 72.7386C52.1889 72.5303 51.9972 72.3247 51.8055 71.997L51.8 71.9997ZM53.8778 74.322C53.8305 74.2914 53.7805 74.2581 53.7305 74.2275C52.9917 73.7414 52.1333 73.2997 51.8028 72.4414C51.7833 72.3775 51.7778 72.3414 51.7778 72.3192V72.3109C51.7778 72.2831 51.8083 72.3136 51.8417 72.3609C51.8694 72.3997 51.9028 72.4497 51.9305 72.4831C51.9639 72.522 51.9944 72.5553 52.025 72.5942C52.0528 72.6275 52.0833 72.6636 52.1111 72.6914C52.1555 72.7386 52.2055 72.7831 52.2583 72.8275C52.275 72.8414 52.2889 72.8581 52.3028 72.872C52.325 72.8914 52.3472 72.9053 52.3694 72.922C52.7555 73.2192 53.2055 73.3859 53.7389 73.5247C53.9417 73.5775 54.1305 73.5803 54.3055 73.6053C54.5305 73.6359 54.7389 73.6997 54.9417 73.9442C55 74.0109 55.075 74.0803 55.1555 74.1525C55.2333 74.222 55.3167 74.2997 55.3861 74.3831C55.4667 74.4775 55.5333 74.5775 55.5583 74.6942C55.5694 74.7386 55.5778 74.7886 55.575 74.8414C55.3944 74.7636 55.1972 74.7164 54.9972 74.6775C54.6 74.5997 54.1889 74.547 53.875 74.3275L53.8778 74.322ZM55.5944 74.3414C55.55 74.322 55.5083 74.297 55.4694 74.272C55.1305 74.0553 54.8667 73.6359 54.4528 73.4525C54.5083 73.3275 54.6889 73.1859 54.8861 73.0664C55.0805 72.9442 55.2944 72.847 55.4055 72.8025C55.5917 72.7303 55.7667 72.497 55.9055 72.4442C55.95 72.4275 55.9972 72.397 56.0472 72.3553C56.0583 72.3442 56.0722 72.3303 56.0833 72.3192C56.4194 71.9997 56.8111 71.2247 56.95 70.9553C57.0528 71.2192 56.8694 72.3053 57.1028 72.4081C57.1083 72.4275 57.1139 72.4442 57.1194 72.4636C57.1611 72.6053 57.1167 72.7331 57.0555 72.8525C57.0055 72.9525 56.9444 73.0497 56.925 73.1331C56.6639 73.7136 56.0083 73.8886 55.5972 74.3414H55.5944Z" fill="white"/>
<path fill-rule="evenodd" clip-rule="evenodd" d="M99.7111 67.2805C99.8139 67.2166 99.9472 67.1833 99.9861 67.1583C100.028 67.1639 100.322 67.2583 100.339 67.2722C100.464 67.4055 101.05 67.3722 101.256 67.3611C101.528 67.35 101.608 67.1472 101.778 67.0805C101.881 67.0389 102.044 66.9333 102.067 66.8166C102.192 66.7305 102.194 66.6778 102.233 66.5278C102.272 66.3889 102.372 66.3861 102.339 66.1805C102.319 66.0416 102.439 65.9 102.397 65.7611C102.353 65.6111 102.303 65.6916 102.311 65.5055C102.314 65.3361 102.272 65.3528 102.244 65.3083C102.239 65.3 102.244 64.8666 102.194 64.7555C102.144 64.6528 102.119 64.5778 102.111 64.4639C102.042 64.625 102.011 64.7222 101.858 64.8278C101.769 64.8916 101.783 64.8611 101.681 64.8694C101.642 64.8722 101.494 64.9583 101.489 64.9944C101.389 64.9778 101.156 65.1361 101.05 65.1666C101.017 65.1805 100.819 65.2555 100.819 65.2583C100.653 65.3722 100.508 65.525 100.344 65.6389C100.297 65.6694 100.075 65.9916 100.069 66.0333C99.9278 66.0083 99.8166 66.4639 99.8861 66.6083C99.9194 66.6778 99.9333 66.7333 99.9528 66.7805C100.019 66.9472 99.9472 67.025 99.9361 67.0805C99.8861 67.0722 99.7389 67.1694 99.6917 67.2C99.7111 67.2194 99.7166 67.25 99.7111 67.275V67.2805ZM100.386 65.6694C100.369 65.8 100.319 66.2166 100.4 66.3305C100.431 66.375 100.439 66.4805 100.481 66.5416C100.522 66.6028 100.622 66.7778 100.633 66.8889C100.636 66.9055 100.636 66.9194 100.633 66.9305C100.456 66.8972 100.264 66.9944 100.111 66.9666C100.1 66.9139 100.086 66.8611 100.067 66.8083C100.008 66.65 99.9222 66.5028 99.9528 66.3333C99.9694 66.2944 99.9639 66.2333 99.9778 66.1805C99.9861 66.1416 100.003 66.1055 100.042 66.0778C100.086 66.0889 100.15 66.0028 100.208 65.9111C100.219 65.9 100.231 65.8833 100.239 65.8666C100.294 65.7805 100.344 65.6944 100.383 65.6694H100.386ZM100.606 65.4833C100.639 65.4583 100.669 65.4361 100.694 65.4194C100.631 65.6555 100.617 65.9028 100.686 66.1194C100.689 66.1361 100.703 66.15 100.708 66.1666C100.764 66.2666 100.889 66.4 100.936 66.5611C100.942 66.5805 100.95 66.6028 100.95 66.6222C100.961 66.75 100.856 66.8 100.733 66.8583C100.717 66.8666 100.697 66.9 100.683 66.9055C100.664 66.7805 100.653 66.7361 100.633 66.7C100.619 66.6778 100.608 66.6555 100.586 66.6194C100.575 66.5972 100.561 66.5722 100.544 66.5361C100.406 66.25 100.372 65.9972 100.444 65.6805C100.447 65.6111 100.531 65.5361 100.611 65.4778L100.606 65.4833ZM101.014 65.2639C101.042 65.4361 100.944 65.4278 101.1 65.7416C101.136 65.8139 101.133 65.8333 101.15 65.8639C101.156 65.875 101.167 65.8944 101.192 65.9222C101.206 65.9361 101.219 65.9528 101.239 65.9722C101.264 66.0028 101.297 66.0333 101.322 66.0666C101.383 66.15 101.425 66.2444 101.397 66.3472C101.375 66.4166 101.286 66.475 101.192 66.5305C101.131 66.5694 101.067 66.6 101.028 66.6305C101.011 66.6305 100.992 66.5861 100.978 66.5361C100.956 66.4666 100.931 66.3778 100.914 66.3528C100.875 66.2944 100.844 66.2416 100.792 66.1889C100.619 66.0139 100.703 65.7528 100.733 65.5472C100.758 65.4528 100.808 65.325 100.903 65.2805C100.933 65.2639 100.972 65.2611 101.017 65.2666L101.014 65.2639ZM101.386 65.1028C101.386 65.1028 101.408 65.1028 101.417 65.1028C101.417 65.1861 101.414 65.2583 101.422 65.3278C101.433 65.3972 101.456 65.4611 101.503 65.5278C101.589 65.6528 101.628 65.7639 101.628 65.8778C101.625 65.9916 101.583 66.1055 101.503 66.2333C101.497 66.2416 101.489 66.2611 101.483 66.2805C101.478 66.2972 101.467 66.3166 101.456 66.3222C101.483 66.1389 101.186 65.9333 101.15 65.7639C101.122 65.6389 101.064 65.5278 101.081 65.3944L101.103 65.2555C101.133 65.2111 101.294 65.1194 101.386 65.1055V65.1028ZM101.747 64.9361C101.733 65.0305 101.831 65.2194 101.792 65.4889C101.786 65.5583 101.769 65.6305 101.739 65.7111C101.733 65.7305 101.725 65.75 101.722 65.7694C101.714 65.7972 101.711 65.8222 101.7 65.8472C101.706 65.6333 101.494 65.525 101.467 65.2778V65.2278C101.467 65.175 101.472 65.1111 101.478 65.075C101.483 65.0583 101.503 65.0361 101.528 65.0139C101.589 64.9611 101.686 64.9055 101.744 64.9333L101.747 64.9361ZM102.011 64.8305V64.8528C102.017 64.8972 101.997 64.9528 101.981 64.9944L101.978 65.0139C101.953 65.1611 101.897 65.2805 101.881 65.3639C101.814 65.3055 101.797 65.0166 101.817 64.9166C101.836 64.9194 101.853 64.9166 101.872 64.9083C101.928 64.8833 101.975 64.825 102.014 64.8333L102.011 64.8305ZM102.097 65.4444C102.083 65.4639 102.067 65.4833 102.053 65.5C102.028 65.525 101.933 65.65 101.886 65.6778C101.881 65.6778 101.875 65.6833 101.867 65.6778C101.85 65.5639 101.947 65.4472 101.981 65.3416C102.017 65.2389 102.036 65.1305 102.05 65.0194C102.058 64.9472 102.069 64.8722 102.083 64.7972L102.1 64.7639C102.131 64.8055 102.139 64.8278 102.142 64.85C102.142 64.8583 102.142 64.8666 102.144 64.8778C102.144 64.8972 102.144 64.9194 102.153 64.9555C102.192 65.1139 102.189 65.3083 102.094 65.4444H102.097ZM102.217 65.4028C102.253 65.4528 102.242 65.625 102.217 65.6778C102.108 65.825 102.119 65.8861 101.944 65.925C101.917 65.9305 101.847 65.9778 101.792 66.0111C101.761 66.0333 101.733 66.05 101.728 66.05C101.778 65.9278 101.811 65.8722 101.836 65.8416C101.875 65.7916 101.903 65.7861 101.964 65.7C101.969 65.6944 101.983 65.6778 101.997 65.6611C102.067 65.5805 102.206 65.4166 102.219 65.4083L102.217 65.4028ZM102.178 66.2166C102.178 66.2166 102.156 66.2222 102.142 66.2222C102.092 66.2139 102.039 66.2944 101.861 66.3361C101.733 66.3639 101.658 66.3611 101.536 66.3361C101.583 66.1944 101.625 66.1555 101.758 66.0944C101.764 66.0944 101.772 66.0889 101.775 66.0889C101.894 66.0333 101.806 66.0194 101.942 65.9805C102.056 65.9444 102.186 65.8694 102.253 65.7778C102.292 65.75 102.314 65.7472 102.331 65.7611C102.397 65.825 102.311 66.1694 102.178 66.2194V66.2166ZM102.128 66.4389C102.103 66.4444 102.078 66.4528 102.05 66.4583C102.028 66.4639 102.014 66.4722 102.006 66.4778C101.969 66.4944 101.958 66.5083 101.794 66.5305C101.767 66.5361 101.636 66.5555 101.517 66.5611C101.403 66.5666 101.294 66.5611 101.3 66.5166C101.325 66.4972 101.342 66.4833 101.361 66.4666C101.403 66.4333 101.442 66.4083 101.569 66.4111C101.608 66.4111 101.656 66.4111 101.703 66.4C101.881 66.3778 102.1 66.3166 102.214 66.2389C102.231 66.2278 102.272 66.1916 102.294 66.1861C102.319 66.2361 102.289 66.3583 102.233 66.4139C102.219 66.4139 102.175 66.425 102.128 66.4389ZM101.917 66.8028C101.758 66.8666 101.561 66.9 101.458 66.8889C101.336 66.8805 101.211 66.8472 101.089 66.8222C101.061 66.8139 101.031 66.8055 101 66.8028C101.047 66.6666 101.158 66.6139 101.314 66.5861C101.358 66.5778 101.417 66.6305 101.461 66.6166C101.464 66.6166 101.761 66.6028 101.861 66.5778C101.872 66.5778 101.886 66.5722 101.903 66.5666C101.958 66.5528 102.033 66.5333 102.092 66.5333H102.094C102.094 66.5333 102.117 66.5333 102.125 66.5361C102.131 66.5361 102.142 66.5416 102.147 66.5472C102.144 66.5639 102.142 66.575 102.139 66.5916C102.136 66.6166 102.128 66.6416 102.119 66.6666C102.081 66.7222 102.006 66.7666 101.914 66.8L101.917 66.8028ZM101.728 67.0278C101.569 67.1055 101.447 67.1194 101.267 67.125C101.181 67.125 100.828 67.0722 100.744 66.9889C100.744 66.9889 100.736 66.9852 100.719 66.9778C100.744 66.9361 100.833 66.8944 100.897 66.8805C100.917 66.875 100.933 66.875 100.944 66.875C101.044 66.875 101.142 66.8944 101.233 66.9139C101.386 66.9389 101.528 66.9611 101.686 66.9139C101.775 66.8889 101.872 66.8639 101.961 66.8639C101.956 66.875 101.947 66.8805 101.942 66.8861C101.836 66.9611 101.958 66.9166 101.728 67.0278ZM100.014 67.1166C100.083 67.0083 100.236 67.0083 100.344 66.9861C100.361 66.9833 100.372 66.9805 100.386 66.9778C100.439 66.9639 100.475 66.9611 100.514 66.9639C100.628 66.9722 100.708 67.05 100.833 67.0944C101.1 67.1861 101.328 67.2333 101.592 67.1444C101.617 67.1361 101.661 67.1139 101.672 67.1194V67.125C101.672 67.125 101.658 67.1416 101.639 67.1583C101.536 67.2333 101.422 67.2694 101.306 67.2889C101.089 67.3278 100.853 67.3055 100.631 67.3083C100.422 67.3083 100.222 67.1583 100.014 67.1166Z" fill="white"/>
<path fill-rule="evenodd" clip-rule="evenodd" d="M100.247 63.6028C100.855 61.9305 101.864 60.2722 103.397 59.2778C105.13 58.1444 107.758 58.8389 107.305 61.1778C107.18 61.8305 106.586 62.9944 105.819 63.0472C105.114 63.0944 104.989 61.6694 105.647 61.725C105.955 61.75 105.858 62.2028 106.072 62.3055C106.875 62.6944 107.155 61.2333 107.053 60.7639C106.894 60.0583 106.369 59.5333 105.73 59.2944C104.661 58.8944 103.55 59.4722 102.608 60.2611C101.383 61.2944 100.608 62.7472 100.214 64.2278C99.7138 66.0889 99.7249 70.0333 98.6277 71.15C99.886 68.85 99.3388 66.0917 100.25 63.6028H100.247Z" fill="white"/>
<path fill-rule="evenodd" clip-rule="evenodd" d="M94.361 75.7913C94.4915 75.4857 94.8638 75.0801 94.9082 74.9718C95.0193 74.9218 95.8332 74.6801 95.8915 74.694C96.3832 74.7968 97.6721 73.8301 98.1332 73.4885C98.7332 73.0468 98.6027 72.4635 98.8943 72.044C99.061 71.7996 99.2777 71.3051 99.1471 71.0079C99.2971 70.6135 99.2165 70.494 99.0832 70.0857C98.9582 69.7163 99.1777 69.5496 98.7915 69.1301C98.5277 68.8413 98.586 68.344 98.2777 68.0885C97.9415 67.8107 97.9499 68.0746 97.6777 67.6413C97.436 67.2468 97.3582 67.344 97.2332 67.2829C97.2082 67.2718 96.5527 66.2746 96.2582 66.1024C95.9888 65.9413 95.8193 65.8024 95.6304 65.5635C95.7138 66.044 95.7971 66.3024 95.6138 66.7885C95.5027 67.0774 95.4888 66.9663 95.2693 67.1496C95.186 67.2163 94.9832 67.6385 95.0277 67.7301C94.7749 67.8413 94.4804 68.5635 94.2832 68.7968C94.2221 68.8746 93.8999 69.3551 93.8971 69.3635C93.6999 69.8774 93.5971 70.4468 93.3943 70.9607C93.3388 71.1024 93.3277 72.1774 93.3777 72.2913C93.0249 72.4468 93.4638 73.6579 93.8415 73.8801C94.0249 73.9885 94.1443 74.094 94.261 74.169C94.6665 74.4496 94.6193 74.7413 94.6804 74.8801C94.5499 74.9385 94.4054 75.2829 94.3499 75.4218C94.4249 75.4413 94.3277 75.7135 94.3554 75.7885L94.361 75.7913ZM93.8638 69.9107C94.086 70.5413 94.4304 71.1274 94.9193 71.5301C95.1249 71.7024 95.6554 71.794 96.0638 72.0746C96.0999 72.0996 96.1332 72.1218 96.1693 72.1496C96.4221 72.3579 96.4304 72.5635 96.3527 72.7774C96.3082 72.8968 96.236 73.019 96.1638 73.1468C96.1415 73.1857 96.1415 73.3024 96.1082 73.3385C95.6443 72.8274 95.7443 73.0107 95.2304 72.7135C94.7943 72.4579 94.4638 72.1718 94.1915 71.819C93.9971 71.5579 93.8332 71.269 93.6943 70.919V70.9135C93.6943 70.9135 93.6915 70.9079 93.6888 70.9024C93.586 70.7246 93.686 70.3801 93.7832 70.1163C93.811 70.0385 93.8388 69.9663 93.8638 69.9079V69.9107ZM94.7665 69.6579C94.8665 69.7579 95.0221 69.8718 95.2804 70.0246C95.4777 70.1385 95.5027 70.1857 95.5749 70.2274C95.5971 70.2385 95.6277 70.2524 95.661 70.2663C95.7221 70.2857 95.8082 70.3079 95.9499 70.3357C96.2554 70.3996 96.6027 70.5079 96.786 70.7635C96.8249 70.819 96.861 70.8774 96.8804 70.9496C96.8999 71.0163 96.8999 71.094 96.8832 71.1774C96.8249 71.4968 96.5665 71.9079 96.4665 72.1635C96.461 72.1635 96.4554 72.1663 96.4471 72.1635C96.3665 72.1496 96.1582 71.9746 95.9915 71.8413C95.9027 71.7718 95.8249 71.7135 95.786 71.6968C95.7471 71.6857 95.711 71.669 95.6804 71.6551C95.536 71.5968 95.4082 71.544 95.2554 71.5079C94.5888 71.369 94.3721 70.6524 94.1415 70.1274C94.0221 69.794 93.9082 69.2551 94.3527 69.0579C94.5749 69.3051 94.536 69.4357 94.7665 69.6551V69.6579ZM95.8749 68.9163C96.3082 69.0829 96.5888 69.3107 96.7554 69.6274C96.886 69.869 96.9471 70.1663 96.9582 70.5274C96.9582 70.5718 96.9832 70.6524 96.9915 70.719C96.9943 70.7524 96.9943 70.7857 96.9804 70.8024C96.7749 70.3413 95.7804 70.3246 95.4249 69.9885C95.3999 69.9635 95.3749 69.9413 95.3499 69.919C95.1665 69.7579 94.9665 69.6135 94.8165 69.4163C94.7749 69.3663 94.736 69.3107 94.7082 69.2496L94.6304 69.0718L94.5499 68.8968V68.8913C94.5499 68.8718 94.5527 68.8496 94.5554 68.8246C94.5582 68.8218 94.5582 68.8135 94.5582 68.8135C94.5638 68.7801 94.5777 68.7496 94.5888 68.7163C94.5888 68.7107 94.5888 68.7107 94.5915 68.7051C94.6082 68.6663 94.6249 68.6301 94.6415 68.5913C94.6471 68.5885 94.6471 68.5857 94.6471 68.5857C94.6665 68.5413 94.6888 68.5024 94.711 68.4579C94.736 68.4135 94.7638 68.3718 94.7888 68.3329C94.7915 68.3329 94.7915 68.3301 94.7915 68.3301C94.8165 68.2885 94.8415 68.2551 94.8665 68.2218H94.8693C94.8971 68.1829 94.9249 68.1524 94.9499 68.1329C94.9777 68.1079 94.9999 68.0885 95.0249 68.0774C95.2582 68.4524 95.4443 68.7551 95.8749 68.919V68.9163ZM95.5304 67.1968C95.6582 67.4885 96.4443 67.844 96.6943 68.9774C96.711 69.0579 96.7415 69.1385 96.7721 69.219C96.7888 69.2607 96.8027 69.3051 96.8138 69.3468C96.7665 69.2663 96.7054 69.2051 96.6415 69.1496C96.2999 68.8607 95.7832 68.8468 95.411 68.4079C95.4027 68.3968 95.3915 68.3829 95.3776 68.369C95.2943 68.2496 95.1721 68.0329 95.1277 67.9301C95.1054 67.8329 95.1554 67.619 95.2499 67.4496C95.3221 67.3163 95.4221 67.2079 95.5304 67.1968ZM95.9832 66.5829C96.0582 66.6579 96.0971 66.7718 96.1249 66.8774C96.1332 66.9107 96.1415 66.944 96.1499 66.9718C96.1693 67.019 96.1804 67.0663 96.2026 67.1107C96.2971 67.3524 96.3582 67.5801 96.411 67.7635C96.4138 67.7635 96.4138 67.769 96.4165 67.7718C96.436 67.844 96.4582 67.9107 96.4804 67.969C96.2388 67.9385 95.761 67.3051 95.6443 67.0413C95.6665 67.0301 95.686 67.0163 95.7054 66.9996C95.7054 66.9996 95.7221 66.9746 95.7304 66.9663C95.836 66.8329 95.861 66.5996 95.9582 66.5551C95.9582 66.5551 95.9749 66.5746 95.9804 66.5829H95.9832ZM97.0804 68.0107C97.0804 68.0107 97.0804 68.019 97.0804 68.0218C97.061 68.1468 97.0388 68.6024 96.961 68.6913C96.9554 68.6968 96.9471 68.7024 96.9415 68.7024C96.8971 68.6524 96.8638 68.5968 96.8388 68.5357C96.736 68.3024 96.7499 67.9968 96.6804 67.7607C96.6193 67.5385 96.5304 67.319 96.4332 67.1051C96.3193 66.8551 96.1971 66.6079 96.086 66.3607L96.0693 66.2635C96.3415 66.369 96.2721 66.4051 96.486 66.6079C96.6193 66.7413 96.7582 66.8968 96.8638 67.0663C97.0443 67.3551 97.1471 67.6857 97.0777 68.0079L97.0804 68.0107ZM97.736 68.1718C97.711 68.6829 97.8304 68.7913 97.486 69.1551C97.4082 69.2329 97.2693 69.6051 97.1999 69.7274C97.1999 69.7329 97.1999 69.7357 97.1943 69.7385C97.1888 69.7468 97.1832 69.7496 97.1804 69.7551C97.1777 69.7607 97.1749 69.7663 97.1749 69.7663C97.1165 69.4468 97.0999 69.2718 97.1054 69.1524C97.111 68.9496 97.1693 68.9107 97.186 68.5996C97.186 68.5857 97.186 68.5718 97.1888 68.5496C97.2082 68.3607 97.2749 67.794 97.311 67.5996C97.3138 67.5663 97.3165 67.5413 97.3193 67.5357C97.4804 67.5968 97.7193 68.0051 97.736 68.1718ZM98.4721 69.4496V69.4551C98.4693 69.4607 98.461 69.4663 98.4582 69.469C98.4415 69.4913 98.4249 69.5107 98.3971 69.5246C98.2693 69.5801 98.2749 69.8496 97.9332 70.2107C97.6832 70.469 97.5138 70.569 97.1943 70.7107C97.1554 70.5607 97.136 70.444 97.1388 70.3413C97.1415 70.1801 97.1999 70.0413 97.3193 69.8413C97.3304 69.8163 97.3443 69.7968 97.361 69.7718C97.5332 69.494 97.3388 69.5663 97.5332 69.3107C97.5415 69.2996 97.5554 69.2857 97.5693 69.269C97.6471 69.1746 97.7193 69.0635 97.7804 68.944C97.8804 68.7579 97.9527 68.5551 97.9665 68.3718C97.9665 68.3579 97.9665 68.3468 97.9665 68.3329C98.0221 68.169 98.0999 68.144 98.186 68.1996C98.4165 68.3579 98.6777 69.1496 98.4721 69.4496ZM98.9054 69.8274C98.8665 69.844 98.7221 70.0135 98.5888 70.169C98.5777 70.1829 98.5693 70.194 98.5582 70.2079C98.4582 70.3274 98.4749 70.3551 98.3888 70.4551C98.3415 70.519 98.2554 70.6051 98.0888 70.7579C98.0277 70.8135 97.761 71.0551 97.5027 71.2468C97.2415 71.444 96.9804 71.5968 96.9304 71.4829C96.9527 71.4246 96.9665 71.3746 96.9777 71.3274C97.0277 71.1635 97.061 71.0468 97.3832 70.8329C97.5415 70.7246 97.7388 70.5579 97.9304 70.3635C98.2165 70.0718 98.4888 69.7274 98.5943 69.4524C98.6054 69.4274 98.6165 69.3829 98.6332 69.3385C98.6526 69.2885 98.6721 69.2329 98.6943 69.2079C98.8332 69.2885 98.9415 69.6079 98.9054 69.8246V69.8274ZM98.7943 71.1746C98.5638 71.5246 98.2138 71.869 97.961 72.0413C97.9554 72.044 97.9499 72.0496 97.9415 72.0551C97.9388 72.0579 97.936 72.0607 97.9277 72.0635C97.9054 72.0774 97.886 72.0885 97.8638 72.1024C97.8332 72.1218 97.7971 72.1357 97.761 72.1524C97.5721 72.2496 97.3665 72.3329 97.1582 72.4107C96.9999 72.4718 96.8332 72.5329 96.6804 72.5996C96.6693 72.5524 96.661 72.5051 96.6554 72.4607C96.6304 72.1551 96.7832 71.9079 97.0499 71.644C97.0554 71.6385 97.0638 71.6329 97.0693 71.6218C97.0915 71.5996 97.1249 71.5857 97.1527 71.5774C97.236 71.5496 97.3415 71.544 97.4138 71.5024C97.4249 71.494 97.4415 71.4829 97.4526 71.469C97.4526 71.469 97.461 71.4635 97.4721 71.4524C97.5415 71.3996 97.8082 71.2024 98.0304 71.019C98.1443 70.9246 98.2471 70.8357 98.3082 70.7718C98.3332 70.744 98.3721 70.7024 98.411 70.6579C98.5138 70.5413 98.6443 70.3996 98.7665 70.319H98.7693C98.7971 70.3024 98.8249 70.2857 98.8499 70.2746C98.8526 70.2718 98.8554 70.2746 98.861 70.2718C98.8832 70.2663 98.9054 70.2579 98.9221 70.2635C98.9221 70.2635 98.9332 70.2857 98.9415 70.2968C98.9804 70.3913 99.0221 70.4801 99.0415 70.5801C99.0332 70.7579 98.9332 70.969 98.7943 71.1774V71.1746ZM98.0415 72.7413C97.961 72.8024 97.8777 72.8635 97.786 72.9329C97.6777 73.0079 97.3499 73.1746 97.0277 73.2913C96.7777 73.3829 96.5277 73.444 96.3888 73.419C96.3554 73.4107 96.3471 73.4107 96.3249 73.419C96.3249 73.419 96.3165 73.419 96.3082 73.4246C96.3082 73.3607 96.3332 73.2774 96.3777 73.1913C96.436 73.0801 96.5221 72.9663 96.6027 72.894C96.6221 72.8718 96.6443 72.8551 96.6638 72.844C96.811 72.7524 96.9638 72.6774 97.1221 72.6079C97.5082 72.4329 97.8971 72.2913 98.2221 72.0107C98.2915 71.9496 98.361 71.8801 98.4193 71.8051C98.4749 71.7385 98.5277 71.6774 98.586 71.6163C98.7054 71.4857 98.8332 71.3607 98.9777 71.2663C98.9777 71.2996 98.9693 71.3246 98.9582 71.3524C98.9443 71.3857 98.936 71.4135 98.9277 71.4329C98.9082 71.5079 98.911 71.5274 98.911 71.5551C98.911 71.5885 98.8943 71.6274 98.811 71.7829C98.7804 71.8385 98.7415 71.9107 98.686 71.9996C98.4971 72.3274 98.2999 72.5329 98.036 72.7413H98.0415ZM95.4915 74.6718C95.2888 74.7107 95.0915 74.7579 94.9138 74.8357C94.9138 74.7829 94.9138 74.7357 94.9304 74.6885C94.9582 74.569 95.0221 74.469 95.1027 74.3774C95.1777 74.294 95.2554 74.219 95.336 74.1468C95.4165 74.0746 95.4943 74.0051 95.5443 73.9385C95.7499 73.694 95.9582 73.6329 96.1804 73.5996C96.3582 73.5746 96.5471 73.5718 96.7471 73.519C97.2832 73.3829 97.7304 73.2135 98.1193 72.9163C98.1388 72.8968 98.161 72.8857 98.1832 72.8663C98.1999 72.8551 98.211 72.8385 98.2304 72.8218C98.2777 72.7774 98.3304 72.7329 98.3749 72.6857C98.4027 72.6551 98.4332 72.619 98.4638 72.5885C98.4915 72.5496 98.5277 72.5163 98.5582 72.4774C98.5832 72.4413 98.6193 72.394 98.6443 72.3551C98.6804 72.3079 98.7082 72.2774 98.711 72.3051C98.711 72.3079 98.7082 72.3135 98.7082 72.3135C98.7082 72.3357 98.7027 72.3718 98.686 72.4357C98.3527 73.294 97.4943 73.7357 96.7527 74.2218C96.7027 74.2524 96.6554 74.2857 96.6054 74.3163C96.2915 74.5329 95.886 74.5885 95.486 74.6663L95.4915 74.6718ZM93.5665 73.1329C93.5471 73.0468 93.486 72.9524 93.436 72.8524C93.3749 72.7329 93.3304 72.6051 93.3721 72.4635C93.3777 72.444 93.3777 72.4274 93.3888 72.4079C93.6221 72.3051 93.436 71.219 93.5388 70.9524C93.6804 71.2246 94.0721 71.9996 94.4054 72.319C94.4165 72.3301 94.4304 72.344 94.4443 72.3551C94.4888 72.3968 94.536 72.4274 94.5832 72.444C94.7249 72.4996 94.8971 72.7301 95.086 72.8024C95.1943 72.8468 95.4027 72.944 95.6027 73.0663C95.7971 73.1857 95.9804 73.3274 96.0388 73.4524C95.6249 73.6357 95.3582 74.0551 95.0193 74.2718C94.9804 74.2968 94.9388 74.3218 94.8999 74.3413C94.486 73.8913 93.8249 73.7135 93.5693 73.1329H93.5665Z" fill="white"/>
<path d="M74.6112 16.25L74.5779 17.9306L75.7584 16.3139L74.6112 16.25Z" fill="white"/>
</g>
<defs>
<clipPath id="clip0_2760_92183">
<rect width="150" height="100" fill="white"/>
</clipPath>
</defs>
</svg>
