<svg width="120" height="120" viewBox="0 0 120 120" fill="none" xmlns="http://www.w3.org/2000/svg">
<g clip-path="url(#clip0_2890_194096)">
<path d="M0 60C0 93.1371 26.8629 120 60 120C93.1371 120 120 93.1371 120 60C120 26.8629 93.1371 0 60 0C26.8629 0 0 26.8629 0 60Z" fill="#53C65E"/>
<path d="M66.5039 90.1627C65.7481 90.1472 65 90.0775 64.2597 89.8643C64.1396 89.8294 64.0233 89.81 63.8954 89.81C63.8954 89.7325 63.5194 89.2519 63.3256 88.6705C62.624 86.5697 63.1744 85.2674 63.4303 83.2325C63.4845 82.7868 63.5194 81.6821 63.2248 81.2596C63.0853 81.0775 62.9535 79.248 62.0814 78.624C61.5582 78.2441 61.8992 78.9224 61.2558 77.6356C60.9961 77.1124 60 76.81 59.8023 76.81C59.8023 76.1976 58.3179 75.8062 57.7326 75.5697C57.3682 75.4186 57.0853 75.3527 56.8101 75.2441C56.7907 75.372 56.7791 75.4922 56.7791 75.6124C57.1357 75.7131 57.5775 75.8488 57.8372 76.031C58.3295 76.3914 58.7403 76.2519 58.4535 77.3759C58.314 78.0736 58.1783 78.8527 57.783 79.4496C57.4303 79.9767 56.4961 84.31 56.2171 83.6395C56.0659 83.2752 55.1667 81.9418 55.2403 81.3139C55.2597 81.1783 55.2985 81.0465 55.3295 80.9108C55.1241 81.0271 54.9031 81.1356 54.6822 81.2325L54.7132 81.341C54.6822 81.3139 54.6589 81.2868 54.6279 81.2596C54.5388 81.2984 54.4458 81.341 54.3527 81.3759C54.4884 81.4961 54.6163 81.6007 54.721 81.6782C54.9303 81.8255 55.9729 83.7674 55.9147 83.9031C55.7403 84.3255 54.1706 83.5038 53.7403 83.0775C53.5698 82.9108 53.2171 82.7674 52.9613 82.5077C52.7481 82.2945 52.5814 82.1046 52.4303 81.9069C52.2636 81.9341 52.1085 81.9534 51.9496 81.9651C52.0892 82.186 52.2248 82.3992 52.5427 82.717C52.7713 82.9457 53.314 83.0271 54.1473 83.8565C54.3489 84.0581 55.4613 84.3217 55.752 84.3217H56.1163C56.4341 84.6395 57.7752 86.0891 57.7752 86.4457C57.2365 86.9806 55.283 87.1201 54.5659 86.6046C54.1241 86.2868 53.2093 85.841 52.7016 85.6705C52.221 85.5155 51.5504 84.6317 51.3527 84.1705C51.0272 83.3798 50.9961 82.8062 50.9961 82.0038C50.8876 81.9961 50.7713 81.9845 50.6202 81.9612C50.5892 83.1783 50.8837 84.3294 51.6667 85.4147C51.9148 85.7596 51.8721 85.5775 52.031 86.0348C52.1396 86.3604 53.0582 87.9147 53.3256 88.1085C54.031 88.6201 54.6279 88.9961 55.5 89.248C56.1163 89.4224 55.8644 89.8178 56.8992 90.3333C57.9458 90.8565 59.7675 90.8488 60.8876 90.6976C61.3605 90.6317 63.6512 89.9922 63.8411 90.0232C64.9031 90.1976 65.3295 90.4341 66.5233 90.4573C66.5078 90.3604 66.5 90.2635 66.4962 90.1705L66.5039 90.1627ZM61.7171 78.8798C62.407 79.2248 62.4109 80.1666 62.4458 80.8488C62.469 81.3604 62.5155 81.9612 62.3915 82.4573C61.9806 84.5232 60.1279 86.4457 61.0892 88.6317C60.8954 88.5155 60.0504 88.031 59.9535 87.8953C59.6124 87.4147 58.7132 87.1589 58.7132 86.4457C59.0659 86.0891 59.3876 85.1744 59.438 84.686C59.5814 83.2364 59.0659 81.748 59.7481 80.3837C60.3915 79.0969 60.3179 79.0116 60.3179 77.3759C61.0969 77.5969 61.0349 78.5465 61.7171 78.8837V78.8798ZM56.8489 84.6279C56.2946 83.8527 56.6628 83.841 57.1086 82.2984C57.3954 81.3294 57.4651 80.81 57.9419 79.8682C58.5 78.7441 58.8993 77.6162 58.9264 76.3372C59.3024 76.5581 59.8915 77.5271 59.9613 77.9496C60.0233 78.3255 59.9729 78.7635 59.9109 79.1395C59.3799 80.7325 59.0775 80.3294 59.0775 82.3992C59.0775 83.7558 59.2171 85.0581 58.407 86.1821C58.3605 86.2519 58.2791 86.2635 58.1977 86.2868C58.1977 86.1085 57.0504 84.8992 56.8527 84.6279H56.8489ZM55.814 89.031C55.6899 88.9651 55.2365 88.8992 54.9884 88.7713C53.7558 88.155 53.5233 88.0077 52.7946 86.8255C51.8605 85.3178 53.7907 86.6511 54.1628 86.8023C54.438 86.9147 54.6861 87.1666 54.9884 87.217C55.6279 87.3178 56.5504 87.1744 57.2209 87.0581C58.2946 86.872 59.6318 88.062 60.5814 88.6627C60.5814 88.7829 58.6124 89.2364 58.3062 89.2829C57.7558 89.372 56.4109 89.3294 55.814 89.0232V89.031ZM58.2481 90.4302C57.5465 90.3604 56.8799 90.0969 56.3837 89.6007C56.3295 89.5503 56.3062 89.5038 56.2791 89.4379L56.4845 89.4999C60.1163 89.6085 58.2946 89.3372 60.3179 89.1356C61.5775 89.0155 62.0775 89.6589 63.2287 89.7829C60.969 90.3604 60.8993 90.7093 58.2481 90.4341V90.4302ZM61.4651 88.6705C61.4651 88.124 60.5543 87.4806 61.5698 85.4573C61.9419 84.717 62.7171 83.0116 62.8101 82.248V80.7984C63.0155 80.7984 63.1318 82.8643 63.1202 82.9767C62.8605 84.81 62.376 85.6938 62.7558 87.7907C62.8721 88.4186 63.1473 89.1007 63.4225 89.6627C62.6357 89.7054 61.5892 89.0852 61.4651 88.6744V88.6705Z" fill="#0E0E0F"/>
<path d="M65.9805 88.9878C66.1627 88.9451 66.3449 88.918 66.5309 88.8909V88.5498C66.3022 88.6002 66.0697 88.6545 65.8371 88.7087C65.8681 88.8366 65.8642 88.9141 65.9805 88.9917V88.9878Z" fill="#0E0E0F"/>
<path d="M53.4961 80.5263C52.8876 80.693 52.2635 80.7938 51.6821 80.8364C51.7674 80.9798 51.8759 81.1465 52.0348 81.3635C52.1821 81.569 52.3062 81.7356 52.4379 81.9023C53.0659 81.8015 53.7286 81.6194 54.3604 81.3713C54.0852 81.131 53.7674 80.8248 53.5 80.5225L53.4961 80.5263Z" fill="#0E0E0F"/>
<path d="M54.3293 80.2393C54.1588 80.309 53.9882 80.371 53.8099 80.4292C54.0696 80.7005 54.3448 80.9718 54.6316 81.2586C54.6471 81.247 54.6665 81.2431 54.6859 81.2354L54.6278 81.0028C54.5774 80.809 54.4572 80.5493 54.3293 80.2393Z" fill="#0E0E0F"/>
<path d="M54.965 80.9614C55.0232 80.5622 55.1123 80.1668 55.1976 79.7715C55.0231 79.8916 54.8332 80.004 54.6278 80.1009C54.7867 80.504 54.9301 80.8374 54.965 80.9614Z" fill="#0E0E0F"/>
<path d="M56.1433 75.8668C56.1704 75.7505 56.1937 75.6304 56.2363 75.5141C56.2015 75.4947 56.1743 75.4676 56.1394 75.4443C56.1317 75.5877 56.1317 75.7312 56.1433 75.8668Z" fill="#0E0E0F"/>
<path d="M51.0037 81.6246V81.9967C51.0735 82.0045 51.1588 82.0161 51.2092 82.0161C51.4456 82.0161 51.7014 81.9967 51.9611 81.9657C51.7944 81.7022 51.6316 81.427 51.1549 80.9541C51.0967 81.1905 51.0309 81.3766 51.0037 81.6246Z" fill="#0E0E0F"/>
<path d="M71.1627 70.4881C70.9961 70.7516 70.9186 71.0578 70.8914 71.3834C72.6899 71.3292 72.7945 71.023 73.3992 69.271V69.2516C73.3333 68.992 73.2596 68.7013 73.1782 68.3369C72.6472 69.2284 72.2519 70.0811 71.1627 70.492V70.4881Z" fill="#0E0E0F"/>
<path d="M56.283 76.3396C56.283 76.3396 56.2791 76.3628 56.2752 76.3706C56.3024 76.4287 56.3062 76.483 56.3411 76.5373C56.7171 77.859 56.3256 78.8086 55.5814 79.4714C55.5582 79.6652 55.5349 79.8745 55.5039 80.1225C55.4729 80.39 55.4031 80.6497 55.3334 80.9132C57.0814 79.9365 58.2055 78.3241 56.8954 76.1962C56.7985 76.0373 56.7714 75.8318 56.7791 75.6109C56.7171 75.5915 56.6512 75.576 56.5969 75.5566C56.5931 75.8357 56.3605 76.0721 56.283 76.3357V76.3396Z" fill="#0E0E0F"/>
<path d="M53.8102 80.4307C53.7055 80.4655 53.6047 80.4966 53.4962 80.5276C53.7637 80.8299 54.0815 81.14 54.3567 81.3764C54.4458 81.3415 54.5427 81.2989 54.6319 81.2601C54.3451 80.9733 54.0699 80.702 53.8102 80.4307Z" fill="#0E0E0F"/>
<path d="M56.1395 75.4457C56.1744 75.4689 56.2015 75.496 56.2364 75.5154C56.1938 75.6317 56.1705 75.7519 56.1434 75.8681C56.155 76.0426 56.2015 76.2092 56.2752 76.372C56.2752 76.3643 56.2752 76.3526 56.2829 76.341C56.3605 76.0774 56.593 75.841 56.5969 75.5619C56.6512 75.5774 56.717 75.5968 56.7791 75.6162C56.7791 75.496 56.7946 75.3759 56.8101 75.248C56.6124 75.1666 56.4186 75.0542 56.217 74.8643C56.186 75.0619 56.1589 75.2596 56.1395 75.4495V75.4457Z" fill="#0E0E0F"/>
<path d="M55.5815 79.4727C55.4652 79.5812 55.3334 79.6781 55.1977 79.7711C55.1125 80.1665 55.0233 80.5579 54.9652 80.961C54.9342 80.837 54.7869 80.5037 54.628 80.1006C54.5311 80.1509 54.4342 80.1975 54.3295 80.2401C54.4574 80.5502 54.5776 80.8099 54.628 81.0037L54.6861 81.2362C54.9071 81.1393 55.128 81.0308 55.3334 80.9145C55.4032 80.6548 55.4729 80.3951 55.5039 80.1238C55.535 79.8758 55.5582 79.6665 55.5815 79.4727Z" fill="#0E0E0F"/>
<path d="M51.0041 81.6238C51.0312 81.3757 51.0971 81.1897 51.1553 80.9532C51.6281 81.4261 51.7948 81.7013 51.9615 81.9648C52.1204 81.9532 52.2754 81.9338 52.4421 81.9067C52.3103 81.74 52.1863 81.5734 52.039 81.368C51.8801 81.147 51.7716 80.9842 51.6863 80.8408C51.4227 80.8563 51.1669 80.8718 50.9305 80.8718C50.8801 80.8718 50.8064 80.8718 50.7367 80.8679C50.6747 81.24 50.6398 81.6005 50.632 81.961C50.7832 81.9842 50.8995 81.9959 51.008 82.0036V81.6315L51.0041 81.6238Z" fill="#0E0E0F"/>
<path d="M73.7868 67.4531C73.5504 67.7399 73.3489 68.0384 73.1744 68.333C73.2597 68.6973 73.3295 68.988 73.4031 69.2477C73.4884 68.9996 73.5814 68.7244 73.6744 68.4686C73.6899 68.4337 73.7093 68.4105 73.7248 68.3795C73.721 68.3175 73.7055 68.2516 73.7016 68.1896C73.6899 68.0074 73.7248 67.7438 73.7868 67.4531Z" fill="#0E0E0F"/>
<path d="M70.4264 70.6743C70.345 70.903 70.2791 71.1433 70.2404 71.3914C70.4768 71.3914 70.6977 71.3914 70.8915 71.3836C70.9186 71.0619 70.9962 70.7518 71.1628 70.4883C70.9496 70.5697 70.7016 70.6317 70.4264 70.6743Z" fill="#0E0E0F"/>
<path d="M87.566 68.2764C87.1087 67.4082 85.7482 64.6213 85.1784 64.164C84.7676 63.9082 84.8761 62.8849 84.3296 62.5438C84.0466 62.3733 83.7366 60.5244 83.597 60.1019C83.3722 59.412 82.9536 58.8461 82.5389 58.2764C82.3877 58.3151 82.2288 58.35 82.0622 58.3733C82.6978 59.1911 82.9459 60.1291 83.2094 61.1485C83.7172 63.1136 83.7715 64.1717 82.7288 65.85C82.5932 65.288 82.6319 64.633 82.6242 64.0554C82.6087 62.5206 82.1668 61.0128 82.1901 59.4857C82.1048 59.1213 82.0622 58.7531 82.004 58.3849C81.9149 58.3965 81.818 58.4043 81.7211 58.412C81.7249 58.6097 81.7172 58.8849 81.7249 59.1988C81.7831 61.4624 82.3102 63.6833 82.2792 65.9547C81.9691 65.5903 81.9691 65.0012 81.7908 64.5632C81.5467 63.943 80.9304 63.5709 80.6978 62.9237C80.0854 61.2531 80.5273 61.3268 80.6474 60.005C80.6901 59.6097 81.0079 58.8888 81.2947 58.4547C81.128 58.4702 80.9575 58.4934 80.7947 58.5244C80.3141 59.2802 80.1164 59.5671 79.8529 60.664C79.7676 61.0206 79.5234 61.2066 79.2288 61.3965C79.1087 61.8423 78.9808 62.2725 78.8567 62.6833C79.0777 62.3771 79.3218 62.1175 79.7986 62.1019C80.0815 62.5593 80.2405 63.0632 80.5234 63.5167C81.0699 64.3965 81.6591 66.0089 82.0311 66.5671C82.6591 67.5244 81.973 70.3616 81.9653 70.8694C81.4188 69.4702 80.6629 68.1678 80.1009 66.7802C79.7017 65.7802 79.1358 64.8849 78.5777 63.974C78.5505 63.9159 78.5156 63.8655 78.4885 63.8074C78.4226 63.9973 78.349 64.1717 78.2792 64.3384C78.3645 64.4314 78.4381 64.5205 78.4924 64.6252C79.8567 67.0477 79.9304 67.1485 80.8955 69.8423C81.1009 70.412 81.4653 70.912 81.6784 71.4818C82.0001 72.3616 81.1474 74.6019 81.0544 75.1795C80.88 76.2454 78.0583 70.288 77.3684 69.6407C76.5932 68.912 76.1319 67.8229 75.6939 66.8655C75.6862 66.8539 75.6862 66.8461 75.6823 66.8306C75.6746 66.8345 75.6591 66.8384 75.6552 66.8423C75.504 66.912 75.3606 66.9857 75.2172 67.0554C75.7366 68.2299 76.4498 69.2802 77.2831 70.2919C78.2947 71.4973 78.5777 72.226 79.3141 73.5361C80.4846 75.6213 81.0234 75.5128 80.4769 76.8268C80.2908 77.2802 79.0273 79.4237 79.0854 79.6872C78.9691 79.6717 78.8451 79.6872 78.7482 79.6058C77.2017 78.2531 76.9498 76.3151 76.4963 74.3539C75.7947 71.3539 75.5001 72.0361 74.1939 69.9043C73.9963 69.443 73.8063 68.9004 73.7366 68.3888C73.7249 68.4198 73.7017 68.443 73.6862 68.4779C73.5932 68.7337 73.5001 69.0089 73.4149 69.257C73.6552 70.1175 73.9304 70.5632 74.8335 71.6562C76.2831 73.3965 76.0389 75.726 76.7405 77.7802C76.973 78.4702 77.7443 79.6872 78.3839 80.0864C78.6242 81.1175 77.411 81.7996 77.0738 82.6097C76.9769 82.8345 75.9226 83.8268 75.6784 84.0554C76.3335 80.5632 73.004 78.4081 71.7094 75.5516C71.3606 74.8694 71.2249 73.9895 71.0893 73.2415C70.9846 72.6795 70.8529 72.0012 70.9032 71.3888C70.7094 71.3965 70.4885 71.3965 70.2521 71.3965C70.0428 72.5942 70.1978 73.8888 70.1087 74.1019C69.8141 74.8113 70.2404 76.4004 70.473 77.0244C71.5234 79.8888 72.7676 81.5826 72.4614 84.8694C72.38 85.7725 71.9924 86.6019 72.0195 86.7143C71.8374 86.757 71.6823 86.8151 71.5118 86.912C70.3335 87.5748 69.0738 87.9392 67.7831 88.2531C67.8335 88.3849 67.8761 88.5128 67.9149 88.6446C70.0583 88.1795 70.5389 87.6562 72.1629 86.9934C72.4226 86.8849 75.9614 87.0361 76.6668 86.9663C78.3373 86.8151 80.9769 86.2105 82.318 85.0942C83.6397 83.9973 83.1513 83.5089 83.9769 83.0438C85.1552 82.381 85.8916 81.633 86.7443 80.6601C87.0699 80.2841 87.8722 77.7221 87.9149 77.2182C87.9924 76.505 87.9846 76.7802 88.2327 76.195C89.3722 73.4663 88.9304 70.881 87.5699 68.2802L87.566 68.2764ZM82.4614 70.8151C82.4614 70.2454 82.7947 69.2143 82.7637 68.0554C82.725 66.412 84.3102 64.5167 83.9614 63.0283C84.1591 63.0709 84.2249 63.1756 84.3528 63.3306L84.7947 65.2027C84.787 67.85 83.6629 69.3694 82.4381 71.3306L82.4614 70.8112V70.8151ZM82.5428 71.8268C83.1436 71.1368 84.2598 69.3849 84.4653 68.5089C84.7017 68.2764 85.3916 64.9895 85.3761 64.9973C85.7598 65.6252 86.0854 66.2105 86.3722 66.8965C86.8451 68.9353 87.0195 68.8268 86.3374 70.4702C86.0156 71.2337 85.8063 71.7376 85.3722 72.4314C85.0854 72.8965 84.6203 73.2221 84.4381 73.5244C83.9653 74.2919 81.9614 76.0089 81.5699 75.4585C81.4381 75.2764 82.2947 72.1175 82.5428 71.8306V71.8268ZM70.8257 76.5399C70.7715 76.381 70.2404 73.3539 70.535 73.2802L71.0311 75.381C71.4226 76.4547 73.128 78.664 73.9149 79.6136C76.066 82.1988 74.9653 83.4353 75.1552 84.226C75.1087 84.8694 73.8102 86.1175 72.6474 86.3229C72.8606 85.4198 73.0273 84.3345 72.9846 83.3888C72.8335 80.2221 71.8335 79.1058 70.8296 76.5361L70.8257 76.5399ZM82.818 83.8694C82.2676 84.757 81.3877 85.3578 80.3994 85.6988C76.6591 86.9973 76.4381 86.5167 72.9691 86.443C74.5815 85.8733 75.0932 84.7686 76.9614 84.5244C79.9614 84.1291 77.4149 85.1407 82.6358 83.7531L82.9149 83.5981C82.8955 83.6988 82.88 83.7764 82.818 83.8694ZM87.0893 78.6291C86.4343 80.5864 86.1513 80.8771 84.5699 82.1911C84.2521 82.4547 83.6203 82.7105 83.4575 82.8461C82.7017 83.4857 80.7715 84.005 79.942 84.0632C79.4808 84.0942 76.473 84.1058 76.4342 83.9314C77.6087 82.7337 79.1474 80.5593 80.7676 80.4663C81.7792 80.4081 83.1591 80.3035 84.0467 79.9392C84.473 79.7609 84.7482 79.3151 85.1009 79.0554C85.5893 78.7066 87.9304 76.1252 87.0893 78.6252V78.6291ZM86.818 76.9198C86.1358 77.3384 84.9614 78.288 84.4304 78.9004C83.5622 79.8965 80.6862 80.3539 79.7288 79.7609C79.6087 79.2492 81.0583 76.6872 81.4149 76.1252L81.9381 76.0012C82.3645 75.9043 83.8839 75.1407 84.1048 74.7841C85.0273 73.2996 85.7908 72.9973 86.0467 72.5903C86.8257 71.3384 86.5195 71.1019 87.4769 69.5671C87.6436 69.8849 87.7986 70.1407 87.9226 70.4895C88.2715 71.9663 88.5001 72.8423 88.2637 74.288C88.1436 75.0244 87.4536 76.5322 86.818 76.9237V76.9198Z" fill="#0E0E0F"/>
<path d="M82.1358 57.6937C82.0737 57.5968 82.004 57.5077 81.942 57.4069L81.6009 56.6162C81.5272 56.81 81.3567 57.4147 81.2017 57.8139C81.2986 57.8061 81.4032 57.7868 81.4962 57.7829C81.7288 57.7596 81.9458 57.7364 82.1358 57.6937Z" fill="#0E0E0F"/>
<path d="M78.4768 63.8018C78.5272 63.67 78.5737 63.5382 78.6241 63.3987C78.7016 63.1739 78.7753 62.9258 78.8528 62.6816C78.6745 62.9297 78.5156 63.2049 78.2675 63.4064C78.3528 63.5344 78.4148 63.67 78.4768 63.8018Z" fill="#0E0E0F"/>
<path d="M77.5466 64.3864C77.4032 64.7003 77.2675 64.9445 77.1474 65.0879C76.6978 65.6189 76.0505 65.929 75.4187 66.2275C75.473 66.3941 75.5466 66.584 75.6745 66.8243C76.3799 66.4949 77.1047 66.1461 77.6474 65.5104C77.8567 65.305 78.0234 64.9212 78.1435 64.6538C78.19 64.5608 78.2327 64.4445 78.2714 64.336C78.1048 64.1383 77.9264 63.9484 77.8257 63.7158C77.7327 63.96 77.6435 64.1926 77.5505 64.3902L77.5466 64.3864Z" fill="#0E0E0F"/>
<path d="M73.7868 67.4532C73.7248 67.7439 73.6899 68.0075 73.7016 68.1897C73.7054 68.2517 73.7209 68.3176 73.7248 68.3796C74 67.7362 74.5659 67.3641 75.2054 67.0501C75.1202 66.8641 75.0465 66.6586 74.9729 66.4648C74.4651 66.7594 74.093 67.1005 73.7868 67.4571V67.4532Z" fill="#0E0E0F"/>
<path d="M82.0001 58.379C82.0234 58.3751 82.035 58.3713 82.0582 58.3713C82.0311 58.3364 82.0078 58.2976 81.9807 58.2666C81.9846 58.3054 81.9962 58.3441 81.9962 58.3829L82.0001 58.379Z" fill="#0E0E0F"/>
<path d="M69.5231 70.7436C64.9185 70.7436 60.3371 70.3987 55.7169 70.4335C55.7014 70.4335 55.6859 70.4258 55.6743 70.4258C57.2828 69.6545 59.1665 68.3366 61.0774 67.0033C62.1549 66.2475 63.2479 65.4878 64.3022 64.8173C64.4999 64.7514 64.6665 64.6506 64.7906 64.5149C66.058 63.732 67.2557 63.108 68.2944 62.8173H68.2983C71.3487 61.9684 69.5658 53.2087 68.4805 47.8289C68.1433 46.1894 67.8836 44.8715 67.8371 44.232V44.2165C67.744 42.6351 67.0735 40.7746 66.1394 39.5576C65.9533 39.3173 65.7557 39.0963 65.5386 38.9103C65.4766 38.8483 65.4068 38.7901 65.3371 38.7397C65.5657 38.7785 65.8603 38.8793 66.2092 39.0924C68.2053 40.3211 69.0851 41.7242 69.9262 43.0731C70.4611 43.9258 70.9844 44.7552 71.7402 45.5149C72.9378 46.7087 74.2789 47.6506 75.62 48.5925C76.9262 49.5072 78.2208 50.418 79.3487 51.5459C80.2983 52.4917 80.2828 52.5149 80.1471 52.8134C79.9456 53.232 79.6045 53.9568 79.6045 55.7746C79.6045 56.98 79.0309 59.8056 78.3564 62.0886C78.6355 61.763 78.9456 61.5769 79.2247 61.3987C79.4456 60.5614 79.651 59.701 79.8177 58.8831C80.1316 58.6855 80.4611 58.5847 80.7944 58.5266C80.8642 58.4219 80.934 58.3056 81.0154 58.1777C81.0658 58.1661 81.1316 58.0149 81.2014 57.8173C80.8099 57.856 80.3952 57.9142 79.9766 58.0808C80.151 57.1273 80.2518 56.3018 80.2518 55.7746C80.2518 54.1041 80.5541 53.4645 80.7247 53.0924C81.0502 52.4103 81.0735 52.356 79.8099 51.0886C78.6471 49.9258 77.3952 48.4645 76.0696 47.5304C74.7518 46.608 73.3603 45.856 72.2014 44.701C70.5735 43.0653 69.5968 40.9413 67.8371 39.4645C68.0076 39.3986 68.1859 39.3289 68.3642 39.263C68.7479 39.1235 69.1549 38.9839 69.5774 38.8521C71.7169 38.1777 74.182 37.67 76.1471 37.67H76.151C76.744 37.6777 77.6239 41.98 78.6433 45.7397C79.2828 48.1118 80.151 50.2746 80.5735 51.1312H80.5774C80.8254 51.6351 81.1394 52.1467 81.465 52.67C82.2053 53.8754 82.9882 55.1545 82.9882 56.3173C82.9882 57.2824 82.6394 57.5731 82.1278 57.6932C82.2634 57.887 82.3913 58.0808 82.5309 58.2746C83.1859 58.0886 83.6394 57.6467 83.6394 56.3173C83.6394 54.9684 82.8061 53.6118 82.0192 52.3289C81.7014 51.8134 81.3952 51.3095 81.1588 50.8405C80.7595 50.0421 80.182 47.9103 79.5541 45.5731C78.4766 41.5847 77.244 37.0266 76.151 37.0227H76.1471C74.1123 37.0227 71.5774 37.5421 69.3797 38.2359C68.9534 38.3676 68.5386 38.5111 68.1394 38.6545C67.8293 38.7707 67.5309 38.887 67.244 39.0033C67.0231 38.8483 66.7906 38.6932 66.5425 38.5382C65.7712 38.0576 65.1316 38.0227 64.7789 38.1196C64.7285 38.1312 64.682 38.1506 64.6355 38.17C64.4223 37.8676 64.2634 37.5343 64.1239 37.2552C64.0309 37.0692 63.9495 36.9025 63.8681 36.7707C63.1743 35.6428 62.5541 34.7669 61.7169 34.0111C60.8797 33.2591 59.8371 32.6273 58.3061 31.9723C57.5154 31.6273 56.7906 31.5576 56.0813 31.4839C55.151 31.3909 54.2479 31.3018 53.2828 30.5343C52.8448 30.1855 51.965 30.9219 51.0309 31.7049C50.3526 32.2785 49.6355 32.8754 49.2673 33.0149C49.1898 32.9839 49.0851 32.9645 48.9533 32.9645C48.7712 32.9645 48.6433 32.9645 48.5231 32.9645C48.0154 32.9529 47.4223 32.9374 46.9766 33.0304H46.9688C46.4844 33.1312 46.0192 33.2785 45.5774 33.4219C44.2053 33.856 43.0657 34.2204 42.2595 32.6157H42.2634C42.1859 32.4684 42.0774 32.3599 41.9262 32.2979C41.7169 32.201 41.4378 32.2049 41.1355 32.2824C40.8719 32.3483 40.5774 32.4684 40.2634 32.6235C39.0309 33.2359 37.527 34.4645 37.3022 34.9723L37.2867 34.9994L37.2789 35.0304C37.0851 35.8095 36.1471 37.0459 35.1278 38.3909C33.6626 40.3173 32.0386 42.4568 32.0386 44.0421C32.0386 47.608 32.9223 48.9103 34.0347 50.5653C34.3099 50.9607 34.589 51.3754 34.8758 51.856C34.4495 52.9452 33.527 53.4064 32.6239 53.8599C30.9495 54.6971 30.6665 54.9917 30.089 56.4413C29.7247 57.3444 28.2828 60.6971 28.8642 61.6235L28.8758 61.6506L28.8913 61.6661C29.5968 62.5111 32.9999 63.1196 34.058 63.1661C34.527 65.5576 36.996 79.4142 41.3952 78.5266C41.4727 78.5111 41.5386 78.4839 41.6045 78.4568C42.2944 78.1777 42.4146 78.4297 42.6355 78.8948C42.7208 79.0731 42.8177 79.2707 42.9456 79.4994L42.9495 79.5072C43.0619 79.6971 43.3022 79.8793 43.6239 80.0614C43.9185 80.2165 44.2944 80.3715 44.7247 80.5266C46.5309 81.1816 49.3254 81.7824 50.6278 81.9607C50.6355 81.6041 50.6704 81.2397 50.7324 80.8676C49.775 80.8405 46.903 80.6273 44.9378 79.918C44.5386 79.7746 44.1937 79.6273 43.934 79.4878C43.7053 79.3676 43.5541 79.2591 43.5037 79.1777C43.3913 78.9839 43.3022 78.7862 43.2208 78.6196C42.8293 77.7901 42.6123 77.3483 41.3564 77.8599C41.3177 77.8754 41.2828 77.887 41.2479 77.8948C40.775 78.0033 40.2402 77.5769 39.682 76.8095C39.0657 75.9529 38.4495 74.6971 37.8681 73.2591C36.213 69.1971 34.8409 63.7397 34.3836 61.7281C34.0115 60.1312 35.3254 59.4839 36.775 59.1506C37.3099 59.0266 37.8719 58.9452 38.3719 58.8715C38.6975 59.3289 39.0502 59.7397 39.4301 60.0808C40.2944 60.8521 41.3216 60.9142 42.2595 60.9684C42.9611 61.0072 43.6045 61.0459 43.9882 61.4064C44.9417 64.3056 46.465 67.3483 48.9611 68.1467H48.9688C52.6084 69.3018 56.1006 69.0227 59.0851 67.48C59.6704 67.1777 60.2285 66.825 60.7712 66.4297C61.3099 66.0343 61.8254 65.5924 62.3138 65.1002H62.3216H62.3177C62.3642 65.0576 62.5619 65.0382 62.8254 65.0188C62.12 65.4917 61.4068 65.9878 60.7014 66.4839C58.6006 67.949 56.5425 69.3831 54.8797 70.0769L54.7285 70.1428L54.6898 70.3018C54.6045 70.6777 54.9301 70.9219 55.5657 71.0731C55.9068 71.1506 56.3603 71.2126 56.8991 71.263C56.4572 71.7785 55.8177 72.7048 56.2324 73.5459H56.2363C56.3836 73.8483 56.3022 74.3134 56.2247 74.7746C56.2208 74.8056 56.2169 74.8366 56.2092 74.8638C56.4146 75.0537 56.6084 75.1661 56.8022 75.2475C56.8177 75.1273 56.8371 75.0072 56.8603 74.8831C56.9572 74.3173 57.0541 73.7514 56.8099 73.2591C56.4999 72.6312 57.3293 71.732 57.6123 71.4258C57.8603 71.3676 58.2479 71.3444 58.6123 71.3909C58.9417 71.4335 59.2479 71.5227 59.3642 71.6777C59.3758 71.6932 59.3875 71.7165 59.3952 71.7397C59.4456 71.9452 59.4766 72.1273 59.4921 72.3211C59.5115 72.5149 59.5115 72.7204 59.5115 72.9684C59.5115 73.2824 59.651 73.4723 59.8797 73.5537C60.0657 73.6273 60.2983 73.6002 60.5347 73.5072C60.7324 73.4374 60.9378 73.3211 61.12 73.1855C61.5231 72.887 61.8022 72.4684 61.6588 72.1661C61.6588 72.1661 61.9301 71.8599 62.1394 71.6506C62.2092 71.5769 62.2789 71.5111 62.3371 71.449C64.2363 71.4568 66.1549 71.4297 67.6123 71.4142C68.3642 71.4064 68.9843 71.3987 69.5154 71.3987C69.775 71.3987 70.0076 71.3986 70.2324 71.3948C70.2712 71.1467 70.3371 70.9064 70.4185 70.6777C70.1433 70.7204 69.8603 70.7475 69.5154 70.7475L69.5231 70.7436ZM64.7828 60.0343C64.2634 58.9607 63.4882 58.0188 62.7402 57.48H62.7363C62.4999 57.3134 62.2634 57.1777 62.0309 57.0963C61.9572 56.9723 61.8099 56.8715 61.5968 56.8018C60.4301 56.3909 55.9378 56.4374 52.6859 56.5149L52.4301 56.5227C51.9068 55.2397 52.213 54.6661 52.8564 54.3793C53.3758 54.1506 54.0968 54.0576 54.8177 53.9607C55.4921 53.8754 57.3448 53.1118 57.6898 53.4025C57.9999 53.1467 58.0541 52.6041 58.3448 52.2204C59.3991 50.8638 60.1588 49.2436 60.744 47.6428C61.0851 49.0963 62.1278 50.6041 63.2014 52.17C64.9805 55.0343 66.8487 57.7746 65.0658 60.8134C64.9611 60.4374 64.9572 60.387 64.7828 60.0343ZM44.6937 57.6738C44.1704 56.9568 43.0502 56.3715 41.9533 55.7862C40.8099 55.1777 39.6937 54.5886 39.4999 54.0072C39.1239 52.8715 38.6355 52.0886 38.2092 51.3909C37.3719 50.0266 36.7363 48.9955 37.6626 46.1661C38.0192 45.0808 40.1278 43.9839 41.3138 43.4645C41.3836 43.4335 41.4572 43.4025 41.5192 43.3754C41.4727 43.6661 41.4301 44.0382 41.3991 44.4684C41.2285 46.6855 41.2518 50.4452 41.4068 51.2049C41.5192 51.7475 41.682 52.2475 41.8797 52.7165C42.0813 53.1816 42.3254 53.6196 42.6123 54.0227C44.0774 56.0886 46.5425 57.232 49.4146 57.232H49.4185C50.5309 57.232 51.1743 57.1932 52.6859 57.1622C54.2247 57.1273 56.0425 57.0963 57.6355 57.1118C56.8022 57.3056 55.8177 57.4297 55.0115 57.701C54.0154 58.0304 53.1859 58.5033 52.1549 58.6855H52.151H52.1471C51.7751 58.7514 51.4844 58.6312 51.1937 58.6855C48.6549 59.1738 46.2518 59.8134 44.6937 57.6738ZM51.7363 56.5343C50.5541 56.5614 49.4921 56.5808 49.4262 56.5808H49.4223C48.8138 56.5808 48.2247 56.5266 47.6665 56.418C47.4146 55.6312 47.496 54.7862 47.5813 53.9374C47.6782 52.8793 47.7828 51.8134 47.3332 50.7514C48.6975 51.4956 49.3216 52.5692 50.934 52.7087C51.4611 52.7087 53.372 52.4956 54.0541 52.4917C54.4688 52.4917 54.8719 52.5111 55.2014 52.5963C54.8991 52.7281 54.5347 52.8676 54.1704 53.0111C53.3177 53.3405 52.4611 53.6738 52.2014 53.9955C51.5347 54.449 51.2518 55.1971 51.7402 56.5304L51.7363 56.5343ZM49.275 44.4839V44.6312C49.275 44.8366 49.2789 44.9374 49.1937 45.0498C49.182 45.0266 49.1665 45.0111 49.1549 44.9878H49.151L49.1471 44.9723C49.0968 44.5963 49.1316 44.0343 49.2285 43.5886C49.2595 43.4607 49.2906 43.3483 49.3254 43.2514C49.3526 43.17 49.3875 43.108 49.4185 43.0614H49.4223C49.7751 42.6235 50.244 42.5963 50.744 42.7669H50.7285C50.089 42.7669 49.7247 42.9064 49.5154 43.2126C49.3138 43.4994 49.275 43.9142 49.275 44.4839ZM45.9727 46.325L45.9417 46.2901C45.8913 46.1157 45.8603 45.9645 45.8758 45.8521C45.8875 45.7552 45.9495 45.6738 46.1045 45.6118C46.5115 45.4529 46.9805 45.4529 47.5231 45.4529H47.6355C47.7944 45.4529 48.4068 45.4452 48.7634 45.4103H48.7906C48.8216 45.4994 48.8526 45.5692 48.8952 45.6235C49.1859 46.0072 49.0968 47.4064 49.2324 47.9723C48.8409 47.9025 48.3022 47.5653 47.9378 47.4103C47.6975 47.3095 47.4611 47.2087 47.2285 47.1351C46.934 47.0459 46.7053 46.949 46.5076 46.8211C46.3138 46.6932 46.1433 46.5343 45.9805 46.325H45.9727ZM49.7363 44.6273V44.4839C49.7363 43.9956 49.7634 43.6661 49.8913 43.4762C50.0076 43.3056 50.2595 43.2281 50.7285 43.2281C50.7634 43.2281 50.8836 43.2204 50.9882 43.2165C51.0502 43.2165 51.027 43.1467 51.0657 43.1816C51.1975 43.2901 51.2944 43.3405 51.4107 43.4103C51.4611 43.4413 51.5231 43.4762 51.5696 43.5033H51.5735L51.5774 43.5111H51.5813C51.6937 43.5692 51.9185 43.6273 52.1006 43.6738C52.1394 43.6855 52.1549 43.6545 52.1626 43.6312C52.3293 43.763 52.4844 43.8909 52.6278 44.0111C52.8758 44.2204 53.0929 44.3948 53.2634 44.4994C54.2789 45.1351 54.2557 45.7475 54.2208 46.8328C54.213 47.0421 54.2092 47.2669 54.2053 47.4839L54.1781 47.5072C54.058 47.3987 53.8681 47.3134 53.6588 47.2475C53.682 47.1932 53.7053 47.1428 53.7247 47.0963C53.8061 46.9452 53.8758 46.8018 53.8758 46.5111C53.8758 46.0886 53.62 45.8289 53.3603 45.5537C53.1549 45.3366 52.934 45.1118 52.9301 44.8095H52.9185C52.9107 44.7785 52.8991 44.7475 52.8913 44.7165C52.8216 44.5382 52.6898 44.4219 52.4262 44.4219H52.4185C51.9766 44.4219 51.6006 44.3986 51.2906 44.4684C50.9185 44.5498 50.6588 44.7359 50.5541 45.17C50.5192 45.3134 50.3409 45.3986 50.1782 45.48C50.0619 45.5382 49.9495 45.5924 49.8526 45.6738C49.7092 45.794 49.6239 45.9413 49.6588 46.1545C49.6006 46.1118 49.5464 46.0769 49.4921 46.0382C49.4727 45.8599 49.4378 45.6893 49.3719 45.5421C49.744 45.2165 49.744 45.0963 49.7363 44.6312V44.6273ZM52.8177 43.3173C53.0309 43.3173 53.2557 43.3056 53.4844 43.294C53.6898 43.2862 53.8991 43.2707 54.1316 43.2707C54.434 43.2707 54.7324 43.3018 54.9766 43.4064C55.2014 43.4956 55.3874 43.6545 55.4882 43.9103C55.5502 44.0692 55.6084 44.5421 55.5851 44.9839C55.5812 45.0886 55.5696 45.1855 55.5541 45.2785C55.4766 45.0304 55.2518 44.794 55.0231 44.6273C54.9688 44.5924 54.9223 44.5576 54.8719 44.5304C54.8177 44.4994 54.7751 44.4723 54.7247 44.449L54.7092 44.4413C54.6316 44.4064 54.527 44.2824 54.4185 44.1583C54.3409 44.0731 54.2673 43.9878 54.1859 43.9103C53.8991 43.6467 53.589 43.5072 53.2169 43.8793C53.1278 43.8056 53.0347 43.732 52.9301 43.6467C52.8138 43.5498 52.6898 43.4413 52.5541 43.3366C52.6704 43.3211 52.775 43.3095 52.8216 43.3056L52.8177 43.3173ZM55.0037 46.9452L54.8099 47.0769L54.6781 47.1622L54.6859 46.8483C54.7208 45.6273 54.744 44.9219 53.6045 44.17C53.6975 44.1351 53.7828 44.1816 53.8603 44.2591C53.9301 44.3211 53.996 44.3987 54.0619 44.4723C54.2014 44.6351 54.3371 44.7901 54.5154 44.8676L54.5309 44.8754C54.558 44.887 54.5929 44.9103 54.6278 44.9297C54.6627 44.9529 54.7053 44.98 54.744 45.0072C54.9262 45.139 55.1084 45.3211 55.1161 45.4607V45.4684C55.1161 45.5266 55.089 45.6506 55.0619 45.8017C54.9921 46.17 54.903 46.6506 54.9999 46.949L55.0037 46.9452ZM51.0929 46.3134C51.2247 46.201 51.4844 46.1545 51.8603 46.1545C52.1355 46.1545 52.3719 46.139 52.5619 46.0382C52.7014 45.9607 52.8099 45.856 52.8681 45.701C52.9223 45.7591 52.9727 45.8173 53.0347 45.8754C53.2247 46.0808 53.4146 46.2746 53.4146 46.5111C53.4146 46.6932 53.3681 46.7862 53.3177 46.8909C53.2828 46.9684 53.2402 47.0421 53.2053 47.1428C52.9185 47.0886 52.6433 47.0576 52.4999 47.0459C52.0347 46.9956 51.5309 46.9025 51.0425 46.7591H51.0464C50.9805 46.5421 50.996 46.3948 51.0968 46.3173L51.0929 46.3134ZM52.4301 44.887C52.4533 44.887 52.4572 44.8754 52.4611 44.8793V44.9103H52.4689C52.5037 45.1583 52.4611 45.1893 52.4611 45.3483C52.4611 45.5072 52.4185 45.5925 52.3487 45.6235C52.244 45.6777 52.0696 45.6855 51.8603 45.6855C51.3719 45.6855 51.0154 45.7707 50.7983 45.9529C50.6045 46.108 50.527 46.3173 50.5425 46.5808C50.4844 46.5614 50.434 46.5382 50.3758 46.5149C50.1123 46.1894 50.089 46.0731 50.1549 46.0188C50.2053 45.9762 50.2867 45.9335 50.3797 45.8909C50.6355 45.7707 50.9146 45.6351 50.9999 45.2746C51.058 45.0537 51.1859 44.9607 51.3797 44.918C51.6316 44.8638 51.996 44.8831 52.4185 44.8831H52.4262L52.4301 44.887ZM49.4882 46.7979L49.496 46.5886L49.5386 46.6118C49.682 46.701 49.8332 46.7785 49.9805 46.8483C50.0192 46.8676 50.058 46.8831 50.0929 46.8986L50.1045 46.918L50.1123 46.9103C50.8603 47.2397 51.6937 47.4297 52.4456 47.5033C52.6239 47.5227 53.0464 47.5653 53.403 47.6583C53.5812 47.7049 53.744 47.7514 53.8138 47.7785C53.5541 47.9917 53.2983 48.232 53.0502 48.5188C52.4301 48.2824 51.9185 48.1118 51.3875 47.9994C50.8409 47.887 50.2828 48.0227 49.5541 48.0188C49.4456 47.7669 49.465 47.1855 49.4844 46.794L49.4882 46.7979ZM53.3099 48.9452C53.8487 48.2707 54.4805 47.8483 55.0619 47.4607C55.7053 47.0304 56.2983 46.6351 56.7053 45.9955C56.6355 46.4335 56.527 46.794 56.3564 46.9064C55.9456 47.1777 55.5657 47.5072 55.1898 47.8289C54.7324 48.2281 54.2867 48.6196 53.8099 48.856C53.5425 48.9917 53.2867 49.0963 53.0502 49.1932C53.1433 49.1235 53.2324 49.0421 53.3099 48.9452ZM53.2247 49.6196C53.4805 49.5149 53.7479 49.4064 54.0154 49.2707H54.0192C54.5464 49.0033 55.0154 48.5963 55.4921 48.1777C55.8487 47.8676 56.2169 47.5498 56.6084 47.294C56.9107 47.0963 57.0813 46.5033 57.1704 45.8521L57.1859 45.9103C57.2208 46.0421 57.2634 46.1738 57.2983 46.3095V46.3173C57.3797 46.5808 57.558 46.8018 57.7247 46.9994C57.8099 47.108 57.8952 47.2087 57.934 47.2862C58.0541 47.5304 57.9456 48.1661 57.8409 48.8018C57.7285 49.4839 57.6123 50.1661 57.7595 50.6235C57.3991 50.9878 56.9805 51.325 56.558 51.6622C56.3448 51.8366 56.1239 52.0072 55.9107 52.1932C55.4223 51.9103 54.7402 51.8405 54.0386 51.8444C53.3603 51.8444 52.6549 51.9142 52.1239 51.9142H52.12C51.9262 51.9142 51.7053 51.887 51.4688 51.8328C51.496 51.6273 51.5076 51.4258 51.5231 51.232C51.7789 50.2087 52.4185 49.9452 53.2208 49.6118L53.2247 49.6196ZM56.2557 52.7552H56.2595C56.4921 52.5537 56.7324 52.3599 56.9688 52.17C57.5696 51.6932 58.6278 50.5692 59.0968 49.9994C58.8409 50.4297 58.0968 51.4762 57.8293 51.825C57.8022 52.8793 56.4999 53.0653 54.8681 53.3793C55.2596 53.2126 56.0735 52.9103 56.2518 52.7591L56.2557 52.7552ZM58.7595 49.1661C58.6471 49.449 58.5115 49.7049 58.3448 49.9413C58.3681 49.639 58.4301 49.2746 58.4921 48.9103C58.6161 48.17 58.7363 47.4297 58.5231 46.9994H58.5192C58.4495 46.856 58.3409 46.7242 58.2324 46.5925C58.1084 46.4374 57.9688 46.2746 57.9301 46.139V46.1312C57.8991 46.0227 57.8642 45.8909 57.8177 45.7359C57.7828 45.5963 57.744 45.449 57.7014 45.2979C57.5347 44.6777 57.2479 44.2242 57.1433 43.7087C57.2285 42.5692 56.9611 42.949 56.3874 42.2359C56.213 42.0227 56.0619 41.8289 55.903 41.7204C57.4223 41.356 59.2208 41.9374 59.6316 44.2126C59.8642 45.325 59.6006 46.9645 58.7595 49.17V49.1661ZM60.1588 44.1467C59.9999 43.3754 59.6704 42.7901 59.2557 42.3444C58.8448 41.8986 58.3409 41.6002 57.8293 41.4064C57.1355 41.139 55.9456 41.1312 55.3875 41.1428C55.7285 40.8599 56.6123 40.4955 56.9378 40.3831C57.213 40.2901 57.5115 40.2436 57.8099 40.2436C58.465 40.2436 59.3952 40.3095 59.9689 40.6777C60.5347 41.0343 60.7479 41.6932 60.9572 42.3095C61.0425 42.5498 61.089 42.8134 61.089 43.0886C61.089 44.5886 60.4766 46.7862 59.589 48.7669C60.2828 46.7552 60.3952 45.2591 60.1549 44.1467H60.1588ZM55.5541 42.2591H55.5619C55.5851 42.2669 55.7208 42.4413 55.8797 42.6351C56.0851 42.8986 56.3216 43.1894 56.5812 43.3715C56.6278 43.608 56.6859 43.8987 56.7634 44.2126C56.6588 45.5149 56.1006 46.1428 55.3875 46.67C55.403 46.5498 55.4378 46.3289 55.4766 46.1118C55.5076 46.108 55.5386 46.1002 55.5696 46.0886C55.7557 46.0188 55.8681 45.8483 55.9417 45.6312C56.0037 45.4529 56.0347 45.232 56.0425 45.0072C56.0658 44.5072 55.9921 43.9413 55.9146 43.7436C55.7673 43.3521 55.4844 43.1157 55.1549 42.98H55.151C54.8371 42.8521 54.4805 42.8095 54.1316 42.8095C53.9185 42.8095 53.6898 42.8211 53.4572 42.8328C53.2518 42.8444 53.0464 42.856 52.8177 42.856H52.8138C52.7208 42.856 52.6045 42.8715 52.4766 42.887C52.3177 42.9103 52.1278 42.9297 52.0037 42.9297C51.0386 42.2475 49.8991 41.7397 49.0657 42.763C48.9999 42.8521 48.9417 42.9607 48.8952 43.0886C48.8526 43.2087 48.8138 43.3444 48.7828 43.4839C48.6859 43.9297 48.6549 44.4994 48.6975 44.949C48.3719 44.98 47.7906 44.9839 47.6355 44.9839H47.5231C46.934 44.9839 46.4223 44.9839 45.934 45.17C44.4068 45.732 47.0929 48.9025 46.6239 49.6118L46.4107 49.4917L46.1355 49.3366C45.5929 49.0266 45.3022 48.7436 45.151 48.4684C45.0076 48.2087 44.9921 47.9374 44.9921 47.6583C44.9921 46.794 44.7285 46.0692 44.9533 45.4878C45.1588 44.9374 45.8371 44.5033 46.3913 44.2436C47.2324 43.8444 47.5774 43.356 47.8836 42.9142C48.6704 41.8018 49.2092 41.3754 50.9727 41.7901C51.3022 41.2049 53.1355 41.4955 54.058 41.6893C54.2828 41.732 54.4572 41.7746 54.5619 41.7862H54.5696H54.5774C54.7712 41.8056 54.9572 41.9219 55.12 42.0266C55.2634 42.1157 55.403 42.201 55.5541 42.2475V42.2591ZM46.4805 47.9413C46.4223 47.8444 46.2479 47.3444 46.1084 46.9839C46.4301 47.2242 46.6045 47.4374 47.0851 47.5847C47.2944 47.6506 47.5774 47.701 47.8061 47.7979C48.3254 48.0188 48.8177 48.294 49.4146 48.294C50.1782 48.294 50.7479 48.3444 51.2944 48.4607C51.7402 48.5576 52.1743 48.6971 52.6782 48.887C52.558 48.9645 52.4146 49.0382 52.2789 49.108C51.8177 49.3366 51.3603 49.5692 51.2014 50.1428C51.0968 50.5072 51.0774 50.8599 51.058 51.2165C51.0502 51.387 51.0386 51.5614 51.0231 51.732C49.7906 51.3599 48.4107 50.6777 47.2557 50.0304C47.3138 49.3638 46.8254 48.5149 46.4766 47.9452L46.4805 47.9413ZM46.1704 34.5421C46.4456 34.3987 46.744 34.2746 47.058 34.1816H47.0696C47.1471 34.1545 47.4185 34.0963 47.7363 34.0266C48.1782 33.9297 48.7053 33.8211 49.0657 33.6777V33.6893H49.0774C49.6278 33.7281 50.5657 32.9413 51.4495 32.201C52.1782 31.5924 52.8642 31.0227 52.8797 31.0382C53.9921 31.9258 54.996 32.0266 56.0231 32.1312C56.6781 32.1971 57.3564 32.263 58.0619 32.5653C59.5192 33.1893 60.5076 33.7862 61.2906 34.4917C62.0696 35.1971 62.6627 36.0227 63.3216 37.1041C63.3913 37.2204 63.465 37.3715 63.5502 37.5343C63.8797 38.2087 64.3409 39.1467 65.2789 39.5459C65.3991 39.6661 65.5154 39.8017 65.6278 39.9452C66.4882 41.0692 67.1045 42.7824 67.1937 44.2475V44.2669C67.2402 44.9413 67.0812 46.4917 67.4223 48.1622C68.4688 53.3211 70.5929 61.4994 68.1278 62.1855H68.1239C67.2557 62.4258 66.2983 62.8793 65.2983 63.4529L65.3061 63.4103C65.4417 62.8754 65.4417 62.3018 65.3409 61.7281C70.0968 54.9452 61.0851 50.4762 61.2285 46.3056C61.9107 44.0924 62.4068 41.7552 60.0658 40.2669C59.3913 39.8366 58.934 39.7746 58.1588 39.7746C57.0386 39.7746 55.4534 40.2126 54.8332 41.1738L54.8293 41.1816C54.7712 41.1661 54.7092 41.1545 54.6471 41.1506H54.6355C54.5502 41.139 54.3875 41.1041 54.1898 41.0614C51.9572 40.4529 50.9572 41.48 50.5774 41.3289C48.965 41.1041 47.8293 41.8793 47.3487 42.5498C47.089 42.9258 46.7944 43.3366 46.1084 43.6661C45.3875 44.0072 44.9456 44.5421 44.6782 45.2475C44.4223 45.9142 44.3409 46.7281 44.3409 47.6622C44.3409 48.0266 44.3681 48.3948 44.5813 48.7785C44.7789 49.1506 45.1433 49.5227 45.8138 49.9025L46.0851 50.0576L46.151 50.0963C47.1704 51.3018 47.0502 52.5924 46.9262 53.8715C46.8487 54.67 46.775 55.4607 46.9495 56.2436C45.3681 55.8018 44.0386 54.9142 43.1394 53.6428C42.8836 53.2824 42.6588 52.8831 42.4766 52.449C42.2905 52.0188 42.1394 51.5614 42.0386 51.0692C41.8875 50.3444 41.8719 46.6855 42.0425 44.5072C42.0735 44.0847 42.1123 43.7242 42.1588 43.4529C42.1937 43.2475 42.2208 43.1157 42.2363 43.0886C42.2867 43.0421 42.3216 42.9839 42.3409 42.9335V42.9142C42.3681 42.8018 42.3564 42.7087 42.3216 42.6467L42.5076 41.2901C42.5851 40.7707 42.6045 40.4025 42.6239 40.0963C42.6471 39.701 42.6626 39.4142 42.7789 39.0343C43.2518 37.4684 44.0929 35.9917 45.3719 35.0266C45.6161 34.8405 45.8875 34.6738 46.1626 34.5343L46.1704 34.5421ZM36.6355 58.5149C34.8642 58.9219 33.2595 59.7475 33.7518 61.8676C33.7944 62.0537 33.8448 62.2669 33.903 62.5072C32.5347 62.3754 30.3564 61.4529 29.4262 61.2514C29.3138 58.2204 30.7634 55.701 32.9107 54.4335C33.8099 53.9878 34.7169 53.5382 35.2712 52.5459C35.527 53.0227 35.7789 53.5653 36.0309 54.201C36.4068 55.1467 36.8681 56.2591 37.4262 57.3173C37.6006 57.6428 37.7828 57.9645 37.9766 58.2746C37.5425 58.3366 37.0813 58.4142 36.6355 58.5188V58.5149ZM42.2983 60.3173C41.465 60.2669 40.558 60.2165 39.8681 59.5924C39.151 58.9568 38.5309 58.0188 37.9999 57.0111C37.4611 55.9917 37.0115 54.8948 36.6394 53.9607C35.9572 52.2359 35.2285 51.1583 34.5774 50.201C33.5231 48.639 32.6898 47.4103 32.6898 44.0459L32.6859 44.0421C32.6898 42.6738 34.2479 40.6273 35.6471 38.7824C36.6975 37.3987 37.6626 36.1273 37.9068 35.2204C38.1278 34.794 39.4495 33.7552 40.558 33.201C40.8332 33.0653 41.0812 32.9645 41.3022 32.9103C41.4688 32.8715 41.6045 32.856 41.6704 32.8948C41.6782 32.8948 41.6859 32.9025 41.6937 32.9103C42.7247 34.9723 44.0813 34.5808 45.6975 34.0692C45.4533 34.201 45.2208 34.3599 44.9999 34.5227C43.5968 35.5769 42.6859 37.1738 42.1704 38.8599C42.0309 39.3173 42.0154 39.6351 41.9882 40.0653C41.9727 40.3638 41.9495 40.7165 41.8758 41.2087L41.6781 42.6196C41.5309 42.6738 41.3177 42.763 41.0619 42.8754C39.7789 43.4335 37.4844 44.6506 37.0541 45.9684C36.0347 49.0847 36.7363 50.2242 37.6626 51.732C38.0774 52.4103 38.5425 53.1622 38.8913 54.2126C39.1704 55.0421 40.3991 55.6932 41.6588 56.3599C42.0696 56.5769 42.4805 56.794 42.8526 57.0111C43.0541 57.9258 43.3293 59.1738 43.7247 60.5111C43.2983 60.3676 42.8177 60.3405 42.3061 60.3173H42.2983ZM61.8681 64.6351H61.8642C61.2247 65.2746 59.3991 66.3715 58.5851 66.7901C55.7557 68.2591 52.6433 68.6235 49.1743 67.5266C45.62 65.8444 44.4185 61.0266 43.6278 57.5304C43.8603 57.7049 44.0464 57.8793 44.1781 58.0614H44.182C45.9882 60.5343 47.7014 60.5343 50.4417 60.0072C50.7828 59.9374 52.0115 59.3754 52.2751 59.3289H52.2789C53.3564 59.139 54.8409 58.9762 55.8642 58.639C57.8681 57.9762 59.403 57.139 61.6743 57.6622H61.6859C61.8913 57.7165 62.1278 57.8366 62.3642 58.0072H62.3603C63.4882 59.1312 65.275 62.201 64.3448 64.0304C64.2402 64.0924 64.1316 64.1622 64.0231 64.232C63.7673 64.2979 63.403 64.325 63.0658 64.3483C62.5619 64.3831 62.1006 64.4103 61.8719 64.6351H61.8681ZM57.3061 71.294H57.3138L57.3448 71.3366L57.3061 71.294ZM60.12 72.949C60.12 72.949 60.1161 72.9452 60.1278 72.949C60.1161 72.9452 60.1045 72.9452 60.12 72.949ZM61.0774 72.4529C61.0774 72.4529 60.9068 72.5382 60.7402 72.6661C60.6084 72.763 60.4533 72.8521 60.3099 72.9064C60.2518 72.9297 60.2053 72.9452 60.1627 72.949C60.1627 72.6971 60.1588 72.48 60.1394 72.263C60.12 72.0421 60.0851 71.825 60.0231 71.5731C60.0076 71.5188 59.9882 71.4684 59.9611 71.418C60.4456 71.4258 60.9417 71.4374 61.4456 71.4413C61.1665 71.7514 60.9107 72.1157 61.0735 72.4529H61.0774Z" fill="#0E0E0F"/>
<path d="M78.0156 63.1891C77.9536 63.3751 77.8877 63.5457 77.8218 63.7124C77.9264 63.9449 78.1047 64.131 78.2675 64.3325C78.3373 64.1658 78.4109 63.9914 78.4768 63.8015C78.4148 63.6697 78.3528 63.5341 78.2675 63.4062C78.5156 63.2046 78.6745 62.9255 78.8528 62.6813C78.9768 62.2705 79.1047 61.8403 79.2249 61.3945C78.9458 61.5728 78.6357 61.7589 78.3567 62.0845C78.2442 62.4721 78.128 62.848 78.0117 63.193L78.0156 63.1891Z" fill="#0E0E0F"/>
<path d="M81.4962 57.7815C81.4032 57.7893 81.3024 57.8048 81.2017 57.8125C81.1319 58.0102 81.0621 58.1614 81.0156 58.173C80.9342 58.3009 80.8644 58.4172 80.7947 58.5218C80.9613 58.487 81.1319 58.4676 81.2947 58.4521C81.4265 58.2583 81.5466 58.1149 81.6319 58.0994C81.6978 58.0839 81.7172 58.204 81.721 58.4094C81.8141 58.4017 81.9148 58.3939 82.004 58.3823C82.004 58.3435 81.9924 58.3048 81.9885 58.266C82.0156 58.297 82.0389 58.3358 82.066 58.3707C82.2365 58.3474 82.3916 58.3125 82.5427 58.2738C82.4032 58.08 82.2753 57.8901 82.1396 57.6924C81.9497 57.735 81.7327 57.7583 81.5001 57.7815H81.4962Z" fill="#0E0E0F"/>
<path d="M75.3683 66.2488C75.2249 66.3147 75.1008 66.3923 74.9768 66.462C75.0505 66.6597 75.1241 66.8612 75.2094 67.0473C75.3528 66.9775 75.4962 66.9039 75.6473 66.8341C75.6512 66.8302 75.6667 66.8264 75.6745 66.8225C75.5504 66.5822 75.4729 66.3961 75.4187 66.2256C75.3993 66.2333 75.3877 66.2411 75.3683 66.2488Z" fill="#0E0E0F"/>
<path d="M66.5309 88.8868L66.5116 89.7937C66.4961 89.91 66.4961 90.0341 66.5038 90.162C67.0775 90.1775 67.655 90.1697 68.248 90.1697C68.248 90.2627 68.2635 90.3131 68.1937 90.3751C67.9341 90.3751 67.6782 90.4139 67.4185 90.4294C67.0697 90.4488 66.7906 90.4527 66.5309 90.4488C66.593 90.8519 66.7286 91.2976 66.8875 91.7395C67.4302 91.5573 67.9651 91.3596 68.4922 91.1465C68.403 90.2589 68.1744 89.4294 67.9108 88.6426C67.6666 88.6968 67.4147 88.7511 67.124 88.8015C66.9224 88.8364 66.7247 88.8635 66.5309 88.8906V88.8868Z" fill="#0E0E0F"/>
<path d="M65.5619 72.2835C65.1123 72.0858 64.5231 72.1982 63.9805 72.2253C63.434 72.2602 62.9379 72.2059 63.089 72.7408C64.2945 73.1788 66.8526 86.2602 66.5386 88.1207L66.5309 88.547C66.9534 88.4501 67.3681 88.3494 67.7751 88.2486C67.6278 87.8222 67.4805 87.4075 67.3332 87.0083L65.5619 72.2835Z" fill="#0E0E0F"/>
<path d="M67.4185 90.4305C67.6782 90.415 67.934 90.3763 68.1937 90.3763C68.2596 90.3142 68.248 90.2639 68.248 90.1708C67.6588 90.1708 67.0774 90.1786 66.5038 90.1631C66.5077 90.2561 66.5154 90.3491 66.5309 90.4499C66.7906 90.4538 67.0736 90.4499 67.4185 90.4305Z" fill="#0E0E0F"/>
<path d="M66.5311 88.5455V88.8866C66.7249 88.8595 66.9225 88.8323 67.1241 88.7975C67.4148 88.7471 67.6628 88.6928 67.9109 88.6385C67.8722 88.5068 67.8256 88.375 67.7791 88.2471C67.3722 88.3478 66.9574 88.4486 66.5349 88.5455H66.5311Z" fill="#0E0E0F"/>
<path d="M60.3876 94.5422C41.2675 94.5422 25.7132 78.9879 25.7132 59.8678C25.7132 40.7476 41.2675 25.1934 60.3876 25.1934C79.5078 25.1934 95.0582 40.7476 95.0582 59.8678C95.0582 78.9879 79.5 94.5422 60.3876 94.5422ZM60.3876 27.2709C42.4109 27.2709 27.7946 41.8949 27.7946 59.8678C27.7946 77.8407 42.4109 92.4686 60.3876 92.4686C78.3644 92.4686 92.9845 77.8445 92.9845 59.8678C92.9845 41.891 78.3605 27.2709 60.3876 27.2709Z" fill="#0E0E0F"/>
<path fill-rule="evenodd" clip-rule="evenodd" d="M17.7714 53.8447L19.6047 57.554L23.6977 58.1509L20.7326 61.0424L21.4342 65.1199L17.7714 63.1936L14.1047 65.1199L14.8062 61.0424L11.8411 58.1509L15.938 57.554L17.7714 53.8447Z" fill="#0E0E0F"/>
<path fill-rule="evenodd" clip-rule="evenodd" d="M102.151 53.8447L103.981 57.554L108.078 58.1509L105.112 61.0424L105.814 65.1199L102.151 63.1936L98.4845 65.1199L99.186 61.0424L96.217 58.1509L100.318 57.554L102.151 53.8447Z" fill="#0E0E0F"/>
<path d="M26.4419 39.109L29.7558 41.2757L29.0078 42.4191L20.1434 36.6207L21.7946 34.1013C22.4225 33.1478 23.1396 32.5509 23.9458 32.33C24.752 32.1013 25.5853 32.2718 26.4458 32.83C27.314 33.3997 27.8217 34.1711 27.9535 35.1439C28.0853 36.1129 27.8372 37.0509 27.2016 37.9579L26.4458 39.109H26.4419ZM21.8992 36.1362L25.4341 38.4501L26.1279 37.3881C26.5814 36.6904 26.7752 36.0586 26.6938 35.4889C26.6163 34.9191 26.2868 34.4462 25.6977 34.0625C24.5582 33.3145 23.5465 33.6168 22.6628 34.9656L21.8992 36.1362Z" fill="#0E0E0F"/>
<path d="M39.1164 30.3908L38.0389 31.4528L35.2327 30.1428L32.0893 33.2358L33.3955 36.0149L32.3218 37.073L27.7637 26.6931L28.8063 25.666L39.1164 30.3869V30.3908ZM34.0931 29.5885L29.8644 27.573C29.7288 27.5071 29.5195 27.3676 29.2288 27.1583L29.2055 27.1854C29.3916 27.449 29.5234 27.666 29.597 27.8288L31.5544 32.0846L34.0893 29.5885H34.0931Z" fill="#0E0E0F"/>
<path d="M47.1551 25.8137L45.7559 26.6121L42.7753 24.9222C42.1745 24.585 41.7016 24.3951 41.345 24.3524C40.9885 24.3175 40.6319 24.3951 40.2792 24.5966L39.4187 25.0811L41.628 28.9571L40.4381 29.6354L35.1978 20.4299L38.0078 18.833C38.9032 18.3253 39.7288 18.1431 40.4807 18.2827C41.2365 18.4261 41.8373 18.8873 42.2714 19.6625C42.9962 20.9377 42.7869 22.1547 41.6435 23.3098L41.6551 23.3369C41.9729 23.302 42.2753 23.3292 42.5776 23.4222C42.8722 23.5152 43.3024 23.7206 43.8683 24.0346L47.159 25.8098L47.1551 25.8137ZM36.9807 20.7904L38.8257 24.0462L40.2288 23.2478C40.7714 22.9377 41.1241 22.5307 41.2792 22.023C41.4381 21.5113 41.3683 20.9997 41.0776 20.4842C40.8063 20.0036 40.4381 19.7168 39.9768 19.6237C39.5117 19.5307 38.9885 19.6509 38.3954 19.9881L36.9768 20.7943L36.9807 20.7904Z" fill="#0E0E0F"/>
<path d="M47.9576 15.8215L46.9886 16.1432L49.6281 23.992L50.5932 23.6703L50.9614 24.7672L47.7328 25.8486L47.3684 24.7556L48.3335 24.4261L45.6979 16.5773L44.7328 16.899L44.3607 15.8021L47.5932 14.7207L47.9653 15.8176L47.9576 15.8215Z" fill="#0E0E0F"/>
<path d="M51.9807 22.3485C52.3451 22.581 52.8024 22.7516 53.3645 22.8562C53.9303 22.957 54.4536 22.9802 54.9342 22.9066C56.4071 22.6973 57.0621 22.0655 56.9148 21.019C56.8722 20.7244 56.7598 20.4725 56.5621 20.2632C56.3722 20.05 56.128 19.8756 55.8257 19.7322C55.5272 19.5926 54.9691 19.3872 54.159 19.1198C53.0311 18.7477 52.2676 18.3601 51.8722 17.9609C51.473 17.5578 51.2327 17.0655 51.1513 16.488C51.0272 15.6198 51.2753 14.8795 51.9032 14.2671C52.5311 13.6585 53.3761 13.2787 54.442 13.1237C55.4846 12.9764 56.2676 12.9919 56.7908 13.1779L57.004 14.6508C56.3063 14.3019 55.473 14.1973 54.5079 14.3368C53.8683 14.426 53.3644 14.6392 52.9962 14.9647C52.6358 15.2903 52.4885 15.6934 52.5544 16.1702C52.6125 16.5965 52.8024 16.9221 53.1203 17.1469C53.4381 17.3756 54.1009 17.6508 55.097 17.9764C56.1978 18.3213 56.9924 18.7089 57.473 19.143C57.9536 19.5771 58.2365 20.1004 58.3257 20.7128C58.4536 21.6353 58.221 22.3872 57.6241 22.9764C57.0311 23.5616 56.1396 23.9415 54.9536 24.112C54.535 24.174 54.0466 24.1818 53.473 24.1469C52.9071 24.112 52.4807 24.0268 52.2055 23.8911L51.9846 22.3485H51.9807Z" fill="#0E0E0F"/>
<path d="M69.0155 24.3034L67.5194 24.129L66.7752 21.1213L62.3992 20.6135L61.0504 23.3771L59.5465 23.2027L64.7791 13.1445L66.2364 13.3112L69.0155 24.2996V24.3034ZM66.4923 19.8848L65.4147 15.3267C65.3798 15.1794 65.3527 14.9314 65.3333 14.5709H65.2985C65.2132 14.881 65.1318 15.1174 65.0426 15.2841L62.9612 19.4701L66.4923 19.881V19.8848Z" fill="#0E0E0F"/>
<path d="M78.9963 28.7562L82.0583 22.4423C82.3063 21.919 82.6435 21.3066 83.0544 20.609L83.0234 20.5934C82.6978 21.0004 82.4459 21.2756 82.2753 21.4152L75.628 27.1283L74.9497 26.7989L75.2831 18.1012C75.287 17.8996 75.3528 17.5159 75.4885 16.95L75.4536 16.9345C75.2792 17.3958 74.9885 18.0508 74.5776 18.8958L71.5466 25.1555L70.3761 24.5896L74.9885 15.0547L76.6552 15.8648L76.3025 23.7601C76.2753 24.3648 76.2249 24.826 76.1629 25.1361L76.2094 25.1593C76.7056 24.6748 77.0466 24.3493 77.2327 24.1826L83.2443 19.0547L84.8373 19.8221L80.2211 29.357L78.9963 28.764V28.7562Z" fill="#0E0E0F"/>
<path d="M85.3838 26.8953C86.5969 25.6976 87.8915 25.0697 89.2597 25.0154C90.6357 24.9612 91.876 25.4999 92.9884 26.624C94.0233 27.6705 94.5 28.8604 94.4264 30.1976C94.3566 31.5309 93.7559 32.7558 92.6279 33.8682C91.4031 35.0775 90.1125 35.7092 88.7481 35.7596C87.3838 35.8139 86.159 35.2906 85.0737 34.1976C84.0194 33.124 83.5272 31.9224 83.5892 30.5813C83.6551 29.2402 84.2559 28.0116 85.3799 26.8953H85.3838ZM86.4729 27.8371C85.5621 28.7402 85.0621 29.6937 84.9729 30.7015C84.8838 31.7092 85.2094 32.5891 85.9497 33.341C86.7442 34.1434 87.6357 34.5154 88.6125 34.4496C89.5969 34.3875 90.5582 33.8875 91.5039 32.9534C92.4807 31.9922 93.0078 31.0271 93.0931 30.0542C93.1745 29.0852 92.8334 28.2092 92.0543 27.4263C91.2985 26.6589 90.4032 26.3139 89.376 26.3837C88.3489 26.4612 87.3838 26.9457 86.4768 27.8371H86.4729Z" fill="#0E0E0F"/>
<path d="M93.5621 46.1851L92.7753 44.7782L94.4846 41.8092C94.8257 41.2123 95.0117 40.7394 95.0582 40.3789C95.1009 40.0224 95.0233 39.6619 94.8257 39.3131L94.3412 38.4526L90.4536 40.6348L89.783 39.441L99.0233 34.2588L100.601 37.0766C101.105 37.9758 101.283 38.8014 101.132 39.5534C100.985 40.3053 100.523 40.8983 99.7404 41.3363C98.4613 42.0534 97.2443 41.8363 96.1009 40.6813L96.0698 40.6968C96.1047 41.0146 96.0737 41.3169 95.9807 41.6154C95.8838 41.9138 95.6784 42.3441 95.3644 42.9061L93.5621 46.189V46.1851ZM98.6435 36.0379L95.3799 37.8634L96.1706 39.2743C96.4729 39.8169 96.8799 40.1735 97.3915 40.3324C97.9032 40.4913 98.4148 40.4293 98.9303 40.1386C99.4109 39.8712 99.7016 39.503 99.7985 39.0417C99.8954 38.5805 99.7753 38.0534 99.4458 37.4603L98.6474 36.034L98.6435 36.0379Z" fill="#0E0E0F"/>
<path d="M40.8372 94.9065C40.8101 94.8522 40.7869 94.7902 40.7713 94.7282C40.6861 94.4181 40.7636 93.9802 40.8799 93.6895C40.252 94.1352 40.0543 95.1313 40.4496 96.0693C40.8876 97.1158 41.907 97.6894 42.7171 97.3484C43.0737 97.2011 43.062 96.8367 42.9031 96.546C42.4884 95.7553 41.2171 95.6933 40.8372 94.9065Z" fill="#0E0E0F"/>
<path d="M43.0893 96.012C43.1164 96.0663 43.1397 96.1283 43.1552 96.1903C43.2404 96.5004 43.159 96.9384 43.0428 97.2329C43.6707 96.7872 43.8683 95.7872 43.4769 94.8492C43.035 93.8027 42.0195 93.2291 41.2094 93.5701C40.8567 93.7213 40.8645 94.0779 41.0234 94.3764C41.4381 95.1632 42.7094 95.2252 43.0893 96.0159V96.012Z" fill="#0E0E0F"/>
<path d="M42.9031 98.3525C42.8799 98.4068 42.8334 98.4882 42.7481 98.5929C42.6783 98.6898 42.5776 98.8215 42.438 98.9766C42.2326 99.244 41.9419 99.5812 41.5776 99.9843L40.2287 101.484C39.7326 102.015 39.3799 102.349 39.1628 102.48C38.9613 102.608 38.7597 102.635 38.5621 102.554C38.0698 102.356 37.9225 102.004 38.128 101.508C38.1706 101.391 38.4729 101.151 39.0272 100.771C39.5233 100.438 40.0931 100.008 40.7365 99.4727L42.4031 97.996C42.5039 97.9107 42.6163 97.8913 42.7287 97.9339C42.9264 98.0153 42.9845 98.1549 42.9031 98.3487V98.3525Z" fill="#0E0E0F"/>
<path d="M44.1201 93.8442C43.9379 93.7706 43.81 93.5884 43.7363 93.2977C43.5968 92.7357 43.3294 92.0613 42.9495 91.2745C42.9301 91.2396 42.9224 91.197 42.9224 91.1543C42.9069 91.1117 42.9069 91.069 42.9224 91.0225C43.0038 90.8249 43.1472 90.7667 43.3565 90.8481C43.3875 90.8636 43.4534 90.9101 43.5425 90.9838L43.7984 91.2396C43.9805 91.4373 44.155 91.6272 44.3216 91.8171C44.7325 92.2822 44.9922 92.6311 45.1046 92.8559C45.186 93.0535 45.1898 93.2357 45.1239 93.4063C44.9301 93.8869 44.5929 94.0342 44.1201 93.8442Z" fill="#0E0E0F"/>
<path d="M47.0193 97.0106C46.6628 96.906 46.3488 96.8013 46.0814 96.6889L45.7325 97.5416C45.2597 98.716 44.7325 99.6967 44.1589 100.491C43.6279 101.208 42.9922 101.852 42.2597 102.429C41.9224 102.685 41.5775 102.914 41.2325 103.108C40.7984 103.356 40.5155 103.452 40.3876 103.402C40.1899 103.321 40.1279 103.189 40.2093 102.995C40.217 102.972 40.2597 102.925 40.341 102.852C40.3953 102.794 40.4806 102.732 40.5852 102.65L41.0116 102.317C41.2752 102.088 41.5271 101.836 41.7674 101.565C42.0504 101.259 42.3294 100.921 42.593 100.542C42.8759 100.115 43.1628 99.6579 43.4341 99.1657C43.7286 98.6191 43.9961 98.0339 44.2558 97.406L45.4767 94.406C45.7248 93.7936 46.0542 93.4641 46.4651 93.406C46.6317 93.3866 46.8294 93.4099 47.0542 93.4796L47.3759 93.5765L47.686 93.7044C48.2209 93.9215 48.9496 94.1424 49.8721 94.3672C50.3759 94.4874 50.841 94.5843 51.279 94.654C51.7713 94.7277 52.1938 94.7703 52.5542 94.7781L52.8798 94.7897C52.9883 94.8013 53.0775 94.8246 53.1589 94.8556C53.5659 95.0223 53.6821 95.3013 53.5232 95.6967C53.4147 95.9564 53.1395 96.0494 52.686 95.9757C51.5659 95.8168 49.9612 95.3323 47.8682 94.5145C47.5697 94.3905 47.3604 94.3362 47.2558 94.3556C47.0969 94.3827 46.9612 94.5261 46.8488 94.7936L46.3372 96.061C46.6317 96.1734 46.9651 96.2819 47.3449 96.3943C47.7907 96.5261 48.248 96.6385 48.6976 96.7316C49.2286 96.8556 49.7364 96.9486 50.2093 97.0145C50.7635 97.0804 51.2635 97.1037 51.7015 97.092C51.9147 97.0804 52.0775 97.092 52.1783 97.1347C52.624 97.313 52.7674 97.6153 52.5969 98.03C52.5193 98.2199 52.3759 98.3207 52.1666 98.3401C51.8837 98.3672 51.3759 98.2858 50.6395 98.0959C50.4186 98.6385 50.2209 99.1579 50.0581 99.6502L49.8604 100.204L49.7558 100.569C49.9341 100.522 50.1666 100.437 50.4457 100.321L50.9418 100.1C51.279 99.9331 51.5271 99.8866 51.6783 99.9486C52.0969 100.119 52.2209 100.437 52.031 100.902C51.9418 101.111 51.7907 101.235 51.5581 101.286C51.1783 101.363 50.4961 101.414 49.5155 101.452C49.3062 102.367 49.2054 103.228 49.2248 104.03C49.2364 104.941 49.3914 105.766 49.7015 106.515C49.7286 106.577 49.7442 106.623 49.7558 106.658C49.7597 106.72 49.7519 106.778 49.7286 106.828C49.6473 107.026 49.5155 107.088 49.3255 107.011C49.2286 106.972 49.0891 106.778 48.9108 106.433C48.7635 106.15 48.6317 105.871 48.531 105.588C48.279 104.914 48.124 104.216 48.0659 103.503C48.0116 102.867 48.0348 102.201 48.124 101.507C48.2093 100.906 48.3527 100.266 48.562 99.5765C48.6473 99.2897 48.748 98.9796 48.8643 98.6463L49.2093 97.7199L48.4108 97.468L45.4961 104.646C45.4031 104.871 45.2907 105.038 45.1589 105.142C44.9728 105.282 44.748 105.294 44.4767 105.185C44.1938 105.069 44.0465 104.875 44.0387 104.6C44.0232 104.507 44.0387 104.402 44.0736 104.297C44.0736 104.263 44.0891 104.22 44.1046 104.177L47.0155 97.0106H47.0193Z" fill="#0E0E0F"/>
<path d="M68.2715 95.1621C68.1785 94.8365 68.2173 94.5807 68.3878 94.3908C68.446 94.3249 68.5157 94.2706 68.601 94.2241C68.6359 94.2047 68.6708 94.1892 68.7095 94.1776L68.7754 94.1582C68.9576 94.1078 69.1242 94.1078 69.2754 94.1621C69.4963 94.2435 69.6514 94.4334 69.7366 94.7318L69.8374 95.0845L72.756 94.2357L72.6514 93.8675C72.5584 93.5497 72.5971 93.2977 72.7715 93.1078C72.8297 93.0458 72.9033 92.9876 72.9886 92.9411C73.0118 92.9256 73.0428 92.9101 73.0816 92.9024L73.1514 92.8791C73.3297 92.8287 73.4886 92.8287 73.6397 92.883C73.8607 92.9605 74.008 93.1466 74.0971 93.4411L74.2095 93.8094L77.1242 92.9566C77.1669 92.945 77.2095 92.9373 77.2483 92.9373C77.2948 92.9373 77.3413 92.9373 77.3801 92.945C77.4886 92.9721 77.5584 93.0458 77.5894 93.1621C77.6281 93.29 77.601 93.3907 77.5196 93.4644C77.4886 93.4915 77.4537 93.5187 77.4072 93.5419C77.3762 93.5613 77.3413 93.5768 77.2987 93.5884L74.3839 94.4411L74.4266 94.5768C74.4382 94.6311 74.4537 94.6814 74.4576 94.728C74.4808 94.8481 74.4808 94.9566 74.4576 95.0497C74.4266 95.3132 74.2522 95.4915 73.9343 95.5884C73.6165 95.6776 73.3762 95.6272 73.2095 95.4256C73.1397 95.3636 73.0855 95.2667 73.0351 95.1388C73.0118 95.1001 72.9963 95.0497 72.977 94.9954L72.9421 94.8597L70.0235 95.7086L70.0622 95.8481C70.0777 95.8907 70.0816 95.9373 70.0894 95.9876C70.1165 96.1156 70.1165 96.228 70.0971 96.321C70.0545 96.5884 69.8762 96.7706 69.5739 96.8597C69.2483 96.9528 68.9963 96.9024 68.8219 96.7086C68.7522 96.6388 68.6979 96.5458 68.6552 96.4179C68.6281 96.3714 68.6087 96.3287 68.5971 96.2745L68.5583 96.1388L65.57 97.007C65.5196 97.0187 65.4808 97.0264 65.4421 97.0303C65.3956 97.0419 65.3529 97.0419 65.3103 97.0225C65.2056 97.0031 65.1359 96.9373 65.1049 96.8171C65.0622 96.6969 65.0855 96.5962 65.1591 96.507C65.1901 96.476 65.225 96.4528 65.2638 96.4334C65.3103 96.4101 65.3491 96.3946 65.3839 96.383L68.3723 95.5109L68.2676 95.1582L68.2715 95.1621Z" fill="#0E0E0F"/>
<path d="M80.1901 101.883C80.163 101.859 80.132 101.848 80.0855 101.852L79.9924 101.836C79.6358 101.809 79.3025 101.782 78.9963 101.739C78.6203 101.693 78.2793 101.635 77.9537 101.561C77.1862 101.375 76.5583 101.096 76.0855 100.735L79.1087 99.8555C79.1436 99.8477 79.1746 99.8322 79.2134 99.8089C79.256 99.7857 79.2948 99.7624 79.318 99.7314C79.4072 99.6539 79.4343 99.557 79.3994 99.4291C79.3606 99.3051 79.2831 99.2314 79.1707 99.2198C79.1281 99.2121 79.0854 99.212 79.0389 99.2159C78.9963 99.2159 78.9614 99.2198 78.9265 99.2314L72.7095 101.042C72.849 100.747 72.973 100.421 73.0893 100.08L76.132 99.1927C76.9575 98.9524 77.2637 98.4717 77.0544 97.7586L76.5893 96.1694C76.4847 95.8128 76.3335 95.5803 76.132 95.464C75.8878 95.3167 75.5196 95.3167 75.0467 95.4562L68.5118 97.3593C67.6862 97.5997 67.38 98.0764 67.5893 98.7896L68.0544 100.379C68.2599 101.092 68.7754 101.336 69.601 101.092L71.2793 100.6L71.194 100.968C71.1397 101.15 71.0699 101.344 70.9808 101.545L67.2095 102.646C67.1746 102.654 67.1397 102.669 67.1048 102.689C67.0583 102.712 67.0196 102.739 66.9924 102.766C66.9033 102.844 66.88 102.945 66.9149 103.069C66.9498 103.185 67.0196 103.259 67.1242 103.286C67.1668 103.293 67.2134 103.297 67.2599 103.293C67.2986 103.293 67.3451 103.282 67.3878 103.27L70.5932 102.336C70.1785 103.007 69.7521 103.565 69.3296 104.014C69.132 104.22 68.8916 104.441 68.6087 104.681C68.4227 104.848 68.1203 105.092 67.7211 105.425L67.6009 105.565C67.5622 105.638 67.5544 105.712 67.5816 105.805C67.6397 106.003 67.7637 106.073 67.9653 106.014C68.0196 106.003 68.1979 105.89 68.4886 105.685C68.8606 105.441 69.2366 105.162 69.6126 104.844C70.1087 104.425 70.5699 103.983 70.9847 103.53C71.5002 102.979 71.9343 102.414 72.2754 101.844L74.2986 101.255C74.8723 101.6 75.5196 101.875 76.2521 102.088C76.8296 102.255 77.4498 102.375 78.1087 102.445C78.5816 102.495 79.0583 102.518 79.5273 102.507C79.6087 102.514 79.6862 102.514 79.7637 102.507L80.1358 102.472C80.3374 102.414 80.411 102.286 80.349 102.084C80.318 101.987 80.2637 101.917 80.1901 101.883ZM69.0661 98.495C68.9537 98.1152 69.0854 97.871 69.4575 97.7624L74.4575 96.3051C74.8296 96.2004 75.07 96.3361 75.1824 96.7159L75.2754 97.0415L69.163 98.8206L69.0699 98.4911L69.0661 98.495ZM70.1823 100.247C69.8103 100.355 69.5699 100.22 69.4575 99.84L69.3451 99.4446L75.4575 97.6694L75.57 98.0609C75.6824 98.4407 75.5544 98.6849 75.1824 98.7934L70.1823 100.251V100.247Z" fill="#0E0E0F"/>
<path d="M74.2907 104.837C74.3915 105.201 74.3954 105.484 74.3023 105.686C74.1861 105.965 73.8837 106.174 73.407 106.318L72.0853 106.697C72.0271 106.705 71.9806 106.705 71.938 106.697C71.8876 106.697 71.845 106.674 71.8062 106.635C71.752 106.604 71.7209 106.546 71.6977 106.477C71.6744 106.403 71.6822 106.337 71.7016 106.283C71.7132 106.232 71.7403 106.19 71.783 106.159C71.814 106.132 71.8527 106.101 71.907 106.077L72.5155 105.899C72.8876 105.794 73.0155 105.546 72.9109 105.166L72.3411 103.225C72.2713 102.996 72.2597 102.814 72.2946 102.666C72.3489 102.453 72.5116 102.31 72.7752 102.232C73.2364 102.097 73.5465 102.298 73.7016 102.833L74.2868 104.841L74.2907 104.837Z" fill="#0E0E0F"/>
<path d="M74.5389 102.879C74.5699 102.879 74.6086 102.887 74.6513 102.906C74.7404 102.937 74.8993 103.03 75.1319 103.181L75.5466 103.445C75.7404 103.569 75.9032 103.685 76.0466 103.801C76.4497 104.096 76.6745 104.329 76.7211 104.503C76.8451 104.937 76.659 105.228 76.1513 105.375C75.8916 105.453 75.5699 105.189 75.1862 104.584C74.9265 104.166 74.6474 103.794 74.3412 103.456C74.2831 103.394 74.2521 103.348 74.2443 103.309C74.1823 103.104 74.2598 102.964 74.4769 102.902L74.5427 102.887L74.5389 102.879Z" fill="#0E0E0F"/>
<path d="M76.593 102.487C76.6706 102.514 76.8489 102.592 77.1279 102.716L77.6047 102.929C77.8062 103.018 77.9884 103.107 78.1551 103.197C78.5659 103.429 78.7985 103.638 78.845 103.817C78.9806 104.278 78.7907 104.58 78.2752 104.731C78.0504 104.801 77.8217 104.685 77.6008 104.383C77.2365 103.914 76.8062 103.472 76.3062 103.069C76.221 103.007 76.1667 102.941 76.1512 102.879C76.0892 102.669 76.1628 102.534 76.3682 102.472C76.438 102.456 76.5078 102.456 76.593 102.479V102.487Z" fill="#0E0E0F"/>
<path d="M70.5465 104.987C70.5465 104.987 69.9457 104.619 69.5892 105.045C69.2403 105.468 69.7481 106.394 70.8837 106.386C70.8837 106.386 71.8217 105.91 71.6085 104.948C71.4496 104.212 70.4729 104.495 70.5504 104.983L70.5465 104.987Z" fill="#0E0E0F"/>
<path fill-rule="evenodd" clip-rule="evenodd" d="M26.2286 84.0083C26.1705 83.9656 25.9612 83.83 25.8914 83.8416C25.8759 83.7641 25.7712 83.6555 25.8643 83.423C25.8914 83.3571 25.9147 83.2796 25.9573 83.1827C26.0542 82.9811 25.8992 82.3493 25.7092 82.3804C25.6937 82.3222 25.3875 81.8687 25.3255 81.83C25.093 81.6672 24.8914 81.4579 24.6627 81.299C24.6588 81.2951 24.3875 81.1866 24.3333 81.171C24.186 81.1284 23.8565 80.9075 23.7209 80.9307C23.7131 80.8804 23.5038 80.7602 23.4534 80.7563C23.31 80.7447 23.3371 80.7912 23.2054 80.6982C22.9922 80.547 22.9495 80.4152 22.8526 80.1904C22.841 80.3455 22.81 80.454 22.7364 80.5974C22.6666 80.7524 22.6743 81.3571 22.6666 81.3687C22.6317 81.4307 22.5697 81.4075 22.5774 81.6439C22.5852 81.9036 22.5154 81.7912 22.4573 82.0005C22.3953 82.1982 22.5619 82.392 22.5348 82.5858C22.4883 82.8726 22.6278 82.8804 22.6821 83.0703C22.7402 83.2796 22.7402 83.3532 22.9147 83.4734C22.9457 83.6362 23.1782 83.7835 23.3178 83.8416C23.5542 83.9346 23.6666 84.2176 24.0426 84.2331C24.3333 84.2486 25.1511 84.2912 25.3255 84.109C25.3488 84.0858 25.7596 83.9579 25.8216 83.9501C25.872 83.985 26.0619 84.0315 26.2015 84.1207C26.1937 84.0858 26.2015 84.0431 26.2286 84.016V84.0083ZM25.2596 81.8649C25.3139 81.8997 25.3837 82.0199 25.465 82.14C25.4728 82.1633 25.4922 82.1827 25.4999 82.2021C25.5891 82.33 25.6743 82.4501 25.7325 82.4346C25.7945 82.4734 25.8139 82.5238 25.8294 82.578C25.8449 82.6555 25.841 82.7369 25.8643 82.7912C25.903 83.0276 25.7945 83.2331 25.7092 83.454C25.686 83.5238 25.6588 83.5974 25.6511 83.6749C25.4302 83.7137 25.1705 83.578 24.9185 83.6245V83.5664C24.934 83.4152 25.0736 83.1672 25.1317 83.0819C25.1937 82.9966 25.1976 82.8493 25.2441 82.7873C25.3565 82.6284 25.2829 82.0509 25.2596 81.8649ZM25.1899 81.892C25.2829 82.3338 25.2364 82.6827 25.0464 83.0858C25.0232 83.1323 25.0038 83.1672 24.9883 83.2021C24.9573 83.2486 24.9379 83.2835 24.9224 83.3145C24.8953 83.3648 24.8759 83.4269 24.8565 83.6013C24.8333 83.5935 24.7984 83.547 24.7751 83.5354C24.6162 83.454 24.4612 83.3842 24.4767 83.2059C24.4767 83.1788 24.4844 83.1478 24.4922 83.1207C24.5581 82.8959 24.7325 82.7098 24.81 82.5703C24.8255 82.547 24.8371 82.5276 24.8449 82.5044C24.934 82.2021 24.9147 81.8571 24.8294 81.5276C24.8643 81.5509 24.9108 81.5819 24.9573 81.6168C25.0658 81.6982 25.1821 81.8028 25.1899 81.8997V81.892ZM24.5426 81.3145C24.6821 81.3765 24.7441 81.5548 24.7751 81.6866C24.8294 81.9734 24.9418 82.3377 24.6976 82.5819C24.6278 82.6555 24.5813 82.7292 24.5309 82.8106C24.5077 82.8455 24.4728 82.9656 24.4418 83.0664C24.4185 83.1362 24.3914 83.1982 24.3759 83.1982C24.3178 83.1594 24.2286 83.1129 24.1433 83.0587C24.0154 82.985 23.8875 82.8997 23.8565 82.8028C23.8178 82.6594 23.8759 82.5276 23.9612 82.4114C23.9999 82.3649 24.0426 82.3183 24.0775 82.2796C24.1046 82.2524 24.1278 82.2292 24.1433 82.2098C24.1782 82.1749 24.1976 82.1478 24.2054 82.1284C24.2247 82.0858 24.2209 82.0586 24.2674 81.9579C24.4806 81.5199 24.3526 81.5315 24.3875 81.2912C24.4495 81.2835 24.4999 81.2873 24.5426 81.3106V81.3145ZM24.2557 81.2835L24.2906 81.4773C24.3139 81.6594 24.2325 81.8183 24.1976 81.9928C24.1433 82.2331 23.7286 82.5199 23.7712 82.7718C23.748 82.7641 23.7402 82.7369 23.7286 82.7137C23.7209 82.6866 23.7092 82.6594 23.7015 82.6478C23.5891 82.4734 23.5309 82.3106 23.5271 82.1517C23.5271 81.9928 23.5813 81.8377 23.7015 81.6633C23.7674 81.5742 23.7984 81.4811 23.8178 81.3842C23.8255 81.2873 23.8255 81.1866 23.8216 81.0703C23.8371 81.0703 23.8488 81.0703 23.8681 81.0703C23.9922 81.0897 24.2247 81.2176 24.2557 81.2796V81.2835ZM23.6705 80.954C23.7015 80.985 23.7286 81.016 23.7364 81.0393C23.7441 81.0897 23.7557 81.1788 23.7557 81.2524V81.3222C23.717 81.6672 23.4185 81.8183 23.4302 82.1168C23.4224 82.0819 23.4147 82.047 23.403 82.0083C23.3953 81.9811 23.3875 81.954 23.3759 81.9269C23.3294 81.8145 23.31 81.7137 23.2945 81.6168C23.2441 81.2408 23.3837 80.9773 23.3604 80.8455C23.4418 80.8067 23.5813 80.8804 23.6705 80.9579V80.954ZM22.9961 80.6943C23.0503 80.6866 23.1162 80.7641 23.1976 80.799C23.217 80.8106 23.2441 80.8145 23.2674 80.8106C23.2945 80.954 23.2712 81.3571 23.1782 81.4346C23.155 81.3183 23.0852 81.1555 23.0464 80.9462V80.923L23.0387 80.9191C23.0154 80.861 22.9883 80.7835 22.9961 80.7214V80.6904V80.6943ZM22.7945 80.8687C22.8023 80.8183 22.8061 80.7873 22.8061 80.7602C22.8061 80.7447 22.81 80.7331 22.81 80.7214C22.8178 80.6904 22.8255 80.6594 22.8681 80.6013L22.8914 80.6478C22.9069 80.7524 22.9224 80.8571 22.9418 80.9579C22.965 81.1129 22.9844 81.2641 23.0387 81.4075C23.0852 81.5548 23.217 81.7176 23.1937 81.8765C23.186 81.8765 23.1744 81.8765 23.1666 81.8765C23.1007 81.8377 22.9689 81.6633 22.934 81.6284C22.9108 81.6052 22.8914 81.578 22.872 81.5509C22.7402 81.3571 22.7402 81.0858 22.7906 80.8687H22.7945ZM23.0116 81.8493C23.0387 81.8726 23.0542 81.8959 23.0619 81.9036C23.1511 82.0238 23.186 82.0315 23.2402 82.1013C23.2751 82.1439 23.3216 82.2214 23.3953 82.392C23.3953 82.392 23.3488 82.3687 23.3023 82.3377C23.2286 82.2912 23.1278 82.2292 23.093 82.2176C22.8449 82.1633 22.8604 82.0819 22.7092 81.8726C22.6666 81.799 22.655 81.5586 22.7054 81.4889C22.7209 81.5005 22.9224 81.7292 23.0116 81.8416V81.8493ZM22.5464 81.9889C22.5736 81.9695 22.6085 81.9695 22.6627 82.0121C22.7519 82.14 22.9379 82.2486 23.093 82.2951C23.2868 82.3493 23.1627 82.3726 23.3255 82.4462C23.3333 82.4462 23.341 82.454 23.3488 82.454C23.5348 82.5431 23.5891 82.5974 23.6627 82.7912C23.4844 82.8222 23.3875 82.8261 23.2131 82.7912C22.9612 82.7369 22.8914 82.6207 22.8178 82.6323C22.8061 82.6323 22.7868 82.6323 22.7674 82.6245C22.5813 82.5548 22.4573 82.0742 22.5503 81.985L22.5464 81.9889ZM22.6899 82.9075C22.6085 82.8261 22.5658 82.6594 22.6007 82.5897C22.6317 82.5974 22.6899 82.6439 22.7131 82.6633C22.8681 82.7757 23.1821 82.8571 23.4224 82.8881C23.4883 82.8997 23.5619 82.9036 23.6085 82.9036C23.7829 82.9036 23.841 82.9346 23.8992 82.9811C23.9263 83.0044 23.9534 83.0238 23.9844 83.0509C23.9999 83.1129 23.8488 83.1207 23.6899 83.1129C23.5193 83.1052 23.3371 83.078 23.2906 83.0703C23.0658 83.0393 23.0503 83.0199 22.9999 82.9966C22.9883 82.9889 22.9689 82.9811 22.9379 82.9695C22.903 82.9617 22.8682 82.9462 22.8294 82.9424C22.7596 82.923 22.7015 82.9075 22.686 82.9075H22.6899ZM22.841 83.2602C22.8255 83.2253 22.8178 83.1943 22.8139 83.1555C22.81 83.1323 22.8061 83.1168 22.8023 83.0935C22.81 83.0858 22.8255 83.078 22.8371 83.078C22.8488 83.078 22.8643 83.0742 22.8643 83.0742H22.8875C22.965 83.0742 23.0697 83.1013 23.1472 83.1207C23.1705 83.1284 23.1937 83.1323 23.2092 83.1362C23.341 83.1711 23.7596 83.1866 23.7635 83.1904C23.8294 83.2098 23.9069 83.1362 23.9689 83.1478C24.1937 83.1866 24.341 83.2602 24.4069 83.4462C24.3681 83.454 24.3216 83.4656 24.2829 83.4773C24.1123 83.5121 23.9418 83.5586 23.7674 83.5703C23.624 83.5858 23.3526 83.5393 23.1317 83.4501C23.0077 83.3997 22.8992 83.3377 22.841 83.2641V83.2602ZM23.093 83.5625C23.093 83.5625 23.0697 83.547 23.0619 83.5315C23.1899 83.5315 23.3178 83.5625 23.4457 83.6013C23.6666 83.6672 23.8682 83.6362 24.0775 83.6013C24.2054 83.5742 24.341 83.547 24.4767 83.547C24.4961 83.547 24.5193 83.547 24.5464 83.5548C24.6356 83.5742 24.7596 83.6323 24.7945 83.6904C24.779 83.693 24.7674 83.6982 24.7596 83.7059C24.6433 83.8222 24.1511 83.8997 24.0309 83.8959C23.779 83.8881 23.6085 83.8649 23.3875 83.7602C23.0658 83.6052 23.2364 83.6672 23.093 83.5625ZM24.9224 84.1517C24.6123 84.1517 24.2829 84.1788 23.9806 84.1245C23.8178 84.0974 23.6588 84.0431 23.5154 83.9424C23.4844 83.9191 23.4689 83.9036 23.465 83.8959V83.8881C23.465 83.8881 23.5426 83.9114 23.5813 83.923C23.9457 84.0431 24.2635 83.9811 24.6356 83.8532C24.81 83.7912 24.9224 83.6827 25.0813 83.6711C25.1356 83.6633 25.1937 83.671 25.2596 83.6904C25.279 83.6943 25.2945 83.6982 25.3178 83.7021C25.4689 83.7331 25.686 83.7331 25.779 83.8842C25.4883 83.9424 25.2131 84.1517 24.9224 84.1517Z" fill="#0E0E0F"/>
<path fill-rule="evenodd" clip-rule="evenodd" d="M25.4574 78.9812C24.6047 76.6479 23.1978 74.3339 21.0582 72.9464C18.6396 71.365 14.973 72.334 15.6047 75.5975C15.7792 76.5084 16.6125 78.1324 17.6784 78.206C18.6629 78.2719 18.8373 76.2836 17.9264 76.3611C17.4923 76.396 17.628 77.0278 17.3257 77.1712C16.2055 77.7138 15.8102 75.675 15.9613 75.02C16.1745 74.0355 16.9109 73.3029 17.8024 72.9696C19.3024 72.4115 20.845 73.2177 22.1551 74.3184C23.8683 75.7603 24.9458 77.7874 25.4962 79.8533C26.1939 82.4502 26.1861 87.9541 27.7094 89.5123C25.9458 86.303 26.7171 82.4541 25.4497 78.9812H25.4574Z" fill="#0E0E0F"/>
<path fill-rule="evenodd" clip-rule="evenodd" d="M33.6746 95.4765C33.601 95.2827 33.3955 94.8021 33.2134 94.7207C33.2986 94.5269 33.2289 94.1161 33.7986 93.7285C33.9575 93.6238 34.1281 93.4726 34.3839 93.3254C34.9149 93.0153 35.5273 91.3254 35.0312 91.1083C35.101 90.9494 35.0855 89.4494 35.0079 89.2517C34.725 88.5347 34.5893 87.7401 34.3103 87.023C34.3025 87.0075 33.8568 86.3409 33.7676 86.2323C33.4924 85.9029 33.0855 84.8951 32.7289 84.744C32.787 84.6161 32.5002 84.0269 32.3878 83.9339C32.0855 83.6742 32.07 83.8292 31.911 83.43C31.6552 82.7517 31.7715 82.3912 31.8878 81.7207C31.6242 82.0579 31.3917 82.2478 31.0118 82.4726C30.601 82.713 29.6901 84.1044 29.6552 84.1199C29.4769 84.2013 29.3684 84.0695 29.0234 84.6199C28.6513 85.2246 28.6668 84.8564 28.1901 85.244C27.7599 85.6006 27.8413 86.2944 27.4769 86.6975C26.9382 87.2827 27.2444 87.5153 27.0738 88.0308C26.8839 88.5967 26.7715 88.7672 26.9808 89.3176C26.7948 89.7323 27.101 90.4223 27.3335 90.7633C27.7327 91.3486 27.5545 92.1626 28.3955 92.7788C29.0351 93.2595 30.8335 94.6044 31.5196 94.461C31.601 94.4416 32.7366 94.7788 32.8917 94.8486C32.9537 94.9998 33.4731 95.5657 33.6552 95.992C33.694 95.8874 33.5622 95.5075 33.663 95.4804L33.6746 95.4765ZM34.3645 87.7827C34.3955 87.8641 34.4304 87.9649 34.4731 88.0734C34.6048 88.4416 34.7444 88.9184 34.6048 89.1703C34.601 89.1742 34.601 89.1781 34.601 89.1781C34.601 89.1781 34.601 89.1858 34.601 89.1936C34.4072 89.6819 34.1785 90.0889 33.9072 90.4494C33.5312 90.9416 33.0661 91.337 32.4576 91.6975C31.7482 92.1122 31.88 91.8564 31.2327 92.5695C31.1901 92.5153 31.1901 92.3564 31.163 92.3021C31.0545 92.1277 30.9576 91.9533 30.8955 91.7866C30.7831 91.4882 30.8025 91.2013 31.1514 90.9106C31.194 90.8719 31.2482 90.8409 31.2986 90.806C31.8684 90.4145 32.6087 90.2866 32.8994 90.0463C33.5777 89.4881 34.0622 88.6664 34.3645 87.7866H34.3723L34.3645 87.7827ZM33.6785 86.6006C34.2986 86.8757 34.1436 87.6277 33.9731 88.0928C33.6514 88.8254 33.3451 89.8254 32.4188 90.0192C32.2056 90.0695 32.0196 90.1432 31.8258 90.2246C31.7793 90.244 31.7327 90.2672 31.6824 90.2827C31.6242 90.306 31.5157 90.3874 31.3917 90.4843C31.1591 90.6703 30.8684 90.9106 30.756 90.9339C30.7482 90.9339 30.7405 90.9339 30.7289 90.9339C30.5893 90.5773 30.2289 90.0037 30.1513 89.5579C30.1281 89.4416 30.1242 89.3331 30.1513 89.2401C30.1824 89.1393 30.2327 89.054 30.2831 88.9804C30.5389 88.6238 31.0196 88.4726 31.4498 88.3835C31.6436 88.3409 31.7676 88.3099 31.849 88.2866C31.9072 88.2672 31.942 88.2517 31.9731 88.2323C32.0816 88.1703 32.1126 88.1044 32.3839 87.9494C32.7405 87.7362 32.9614 87.5773 33.1048 87.4378C33.4149 87.1316 33.3607 86.9494 33.6746 86.6044L33.6785 86.6006ZM32.7405 85.2207C32.7715 85.2362 32.8064 85.2595 32.8451 85.2943C32.88 85.3292 32.9149 85.3719 32.9575 85.4184C32.9963 85.4688 33.0351 85.5153 33.07 85.5734C33.0738 85.5734 33.0738 85.5734 33.0738 85.5812C33.1126 85.6354 33.1436 85.6936 33.1785 85.7517V85.7595C33.2134 85.8176 33.2482 85.8757 33.2754 85.9339C33.2754 85.9339 33.2754 85.9416 33.2793 85.9455C33.3025 85.9998 33.3296 86.0502 33.3451 86.1044C33.3451 86.1044 33.349 86.1122 33.3529 86.1199C33.3684 86.1664 33.3839 86.213 33.3917 86.2517V86.2711C33.3994 86.306 33.4072 86.337 33.4072 86.3641V86.3719L33.2986 86.6161L33.1862 86.8641C33.1475 86.9494 33.0932 87.0269 33.0351 87.0967C32.8219 87.3719 32.5428 87.5695 32.287 87.7982C32.2521 87.8254 32.2172 87.8602 32.1785 87.8951C31.6862 88.3641 30.2986 88.3874 30.0118 89.0308C29.9886 89.0036 29.9847 88.961 29.9963 88.9145C30.0041 88.8254 30.0467 88.713 30.0467 88.6471C30.0583 88.1432 30.1436 87.7323 30.3219 87.3912C30.5544 86.9533 30.9498 86.6354 31.5506 86.399C32.1514 86.1703 32.411 85.7478 32.7366 85.2246L32.7405 85.2207ZM32.4265 84.3486C32.5583 84.5889 32.632 84.8835 32.601 85.0192C32.5351 85.1626 32.3645 85.4688 32.2482 85.6316C32.2327 85.6509 32.2172 85.6703 32.2056 85.6858C31.6901 86.2982 30.9653 86.3176 30.4886 86.7207C30.3994 86.7982 30.3141 86.8874 30.2482 86.9959C30.2715 86.9378 30.287 86.8757 30.3103 86.8176C30.3529 86.7052 30.3994 86.5928 30.4227 86.4804C30.7676 84.9029 31.8607 84.4068 32.0467 83.9959C32.194 84.0114 32.3335 84.1626 32.4343 84.3486H32.4265ZM31.4343 83.1006C31.5661 83.1626 31.6087 83.4843 31.7521 83.6742C31.7637 83.6858 31.7793 83.7052 31.787 83.7207H31.7909C31.818 83.7478 31.8451 83.7633 31.8762 83.7827C31.7172 84.1509 31.0467 85.0347 30.7095 85.0773C30.7405 84.9959 30.7715 84.9068 30.7986 84.8099H30.8025V84.7943C30.8839 84.5385 30.9614 84.2207 31.0971 83.8835C31.1242 83.8215 31.1436 83.7556 31.1707 83.6897C31.1785 83.6509 31.1901 83.6006 31.2017 83.5579C31.2366 83.4106 31.2986 83.2478 31.3955 83.1471C31.4033 83.1354 31.4149 83.1199 31.4265 83.1083L31.4343 83.1006ZM30.1746 83.8176C30.3219 83.5812 30.5079 83.3641 30.6979 83.1781C31.0002 82.8951 30.8994 82.8447 31.2831 82.6974L31.256 82.8331C31.1048 83.1781 30.9304 83.523 30.7715 83.8719C30.6397 84.1703 30.5118 84.4804 30.4227 84.7866C30.3335 85.1161 30.3529 85.5424 30.2095 85.868C30.1746 85.9533 30.1281 86.0347 30.0661 86.1005C30.0583 86.1005 30.0467 86.0928 30.0428 86.085C29.9304 85.961 29.9033 85.3254 29.8723 85.1509V85.1354C29.7754 84.6819 29.9227 84.2207 30.1746 83.8215V83.8176ZM29.5351 84.4688C29.5351 84.4688 29.5428 84.5114 29.5544 84.5579C29.5971 84.8292 29.694 85.6199 29.7211 85.8835C29.7211 85.9145 29.7211 85.9378 29.7211 85.9533C29.7444 86.3874 29.8258 86.4416 29.8335 86.7246C29.8374 86.8912 29.818 87.1354 29.7366 87.5812C29.7366 87.5812 29.7327 87.5695 29.7289 87.5657C29.7211 87.5618 29.7211 87.5579 29.7134 87.5424C29.7134 87.5424 29.7056 87.5347 29.7056 87.5269C29.6165 87.3564 29.4149 86.837 29.3141 86.7285C28.8258 86.2207 28.9963 86.0695 28.9614 85.3564C28.9847 85.1277 29.318 84.554 29.5389 84.4688H29.5351ZM28.3335 85.3951C28.4537 85.3137 28.5622 85.3525 28.6358 85.5773H28.6397C28.6397 85.5967 28.6397 85.6122 28.6397 85.6354C28.663 85.8912 28.756 86.1781 28.8955 86.4339C28.9808 86.6006 29.0816 86.7556 29.1901 86.8874C29.2095 86.9106 29.225 86.9261 29.2405 86.9455C29.5118 87.3021 29.2405 87.2013 29.4808 87.5889C29.5041 87.6199 29.5157 87.6509 29.5389 87.6858C29.7095 87.9649 29.7909 88.1587 29.7948 88.3835C29.7948 88.5269 29.7676 88.6897 29.7134 88.899C29.2676 88.7052 29.0234 88.5618 28.6824 88.2013C28.2056 87.6974 28.2134 87.3215 28.0273 87.244C27.9963 87.2246 27.9692 87.1974 27.9459 87.1664C27.9459 87.1626 27.9382 87.1587 27.9304 87.1509C27.9304 87.1509 27.9304 87.1432 27.9265 87.1393C27.6475 86.7207 28.0079 85.6122 28.3296 85.3951H28.3335ZM27.6203 86.806C27.6514 86.8409 27.6785 86.9184 27.7056 86.9882C27.7289 87.0502 27.7444 87.1122 27.7599 87.1471C27.911 87.5269 28.287 88.0114 28.6862 88.4184C28.9498 88.6897 29.225 88.9261 29.4498 89.0734C29.8955 89.368 29.9459 89.5347 30.0118 89.7633C30.0312 89.8292 30.0467 89.8951 30.0777 89.9804C30.0118 90.1393 29.6513 89.9261 29.287 89.6509C28.9188 89.3835 28.5506 89.0463 28.4653 88.9688C28.2327 88.7556 28.1126 88.6316 28.0467 88.5463C27.9304 88.4029 27.9498 88.3641 27.8103 88.2013C27.7948 88.1819 27.7831 88.1626 27.7638 88.1471C27.5816 87.93 27.38 87.6897 27.3258 87.6703C27.2754 87.368 27.4304 86.9184 27.6203 86.8099V86.806ZM27.1397 88.713C27.1669 88.5734 27.2211 88.4494 27.2831 88.3176C27.287 88.3021 27.2986 88.2827 27.2986 88.2711H27.3025C27.3258 88.2672 27.3568 88.275 27.3917 88.2827C27.3955 88.2866 27.3994 88.2827 27.4072 88.2866C27.442 88.3021 27.4769 88.3215 27.5196 88.3447H27.5234C27.694 88.461 27.8762 88.6548 28.0196 88.8176C28.0738 88.8796 28.1281 88.9378 28.1668 88.9765C28.2482 89.0657 28.3955 89.1897 28.5506 89.3215C28.8645 89.5734 29.2289 89.8525 29.3296 89.9261C29.3451 89.9416 29.3568 89.9494 29.3568 89.9494C29.3762 89.9688 29.3917 89.9843 29.4149 89.9959C29.5079 90.0579 29.6552 90.0618 29.7715 90.1006C29.8141 90.1161 29.8568 90.1316 29.8878 90.1626C29.8994 90.1742 29.911 90.1858 29.9188 90.1936C30.2831 90.5618 30.5002 90.9029 30.4614 91.3331C30.4575 91.3951 30.4459 91.461 30.4304 91.5269C30.2172 91.4339 29.9886 91.3486 29.7599 91.2633C29.4731 91.1548 29.194 91.0424 28.9227 90.9029C28.8762 90.8757 28.8258 90.8602 28.7793 90.8331C28.7521 90.8176 28.7211 90.7982 28.6901 90.7788C28.6824 90.7788 28.6824 90.7711 28.6707 90.7672C28.663 90.7633 28.6591 90.7556 28.6436 90.7478C28.2909 90.5075 27.8103 90.023 27.4808 89.5385C27.287 89.244 27.1514 88.9533 27.1358 88.7052L27.1397 88.713ZM27.6281 90.6975C27.5506 90.5734 27.4924 90.4726 27.4537 90.3951C27.3374 90.182 27.3219 90.1238 27.3141 90.0773C27.3141 90.0424 27.3219 90.0114 27.2909 89.9068C27.2831 89.8796 27.2676 89.8409 27.2521 89.7943C27.2405 89.7556 27.2289 89.7207 27.225 89.6742C27.4304 89.806 27.6087 89.9804 27.7793 90.1626C27.8568 90.2478 27.9343 90.3331 28.0041 90.4261C28.0932 90.5308 28.1862 90.6277 28.2909 90.713C28.7366 91.1044 29.2793 91.3021 29.8258 91.5463C30.0389 91.6432 30.2482 91.7478 30.4614 91.8757C30.4886 91.8951 30.5196 91.9184 30.5506 91.9455C30.6552 92.0424 30.7793 92.2052 30.8607 92.3602C30.9227 92.4804 30.9653 92.5967 30.9576 92.6858H30.9537L30.9459 92.6781C30.9072 92.6626 30.8917 92.6626 30.849 92.6742C30.6591 92.7129 30.3064 92.6277 29.9614 92.4959C29.5079 92.3292 29.0544 92.0967 28.9072 91.9959C28.7754 91.899 28.6552 91.8137 28.5428 91.7285C28.1707 91.4378 27.9033 91.1509 27.6358 90.6936L27.6281 90.6975ZM30.5273 93.9378C30.4614 93.8951 30.3917 93.8486 30.3219 93.806C29.2909 93.1277 28.0932 92.5114 27.632 91.3137C27.6048 91.2246 27.5971 91.1742 27.5971 91.1432V91.1316C27.5971 91.0928 27.6397 91.1354 27.6862 91.2013C27.725 91.2556 27.7715 91.3254 27.8103 91.3719C27.8568 91.4261 27.8994 91.4726 27.942 91.5269C27.9808 91.5734 28.0234 91.6238 28.0622 91.6626C28.1242 91.7285 28.194 91.7905 28.2676 91.8525C28.2909 91.8719 28.3103 91.8951 28.3296 91.9145C28.3606 91.9416 28.3917 91.961 28.4227 91.9843C28.9614 92.399 29.5893 92.6316 30.3335 92.8254C30.6165 92.899 30.88 92.9029 31.1242 92.9378C31.4382 92.9804 31.7289 93.0695 32.0118 93.4106C32.0932 93.5037 32.1979 93.6006 32.3103 93.7013C32.4188 93.7982 32.5351 93.9068 32.632 94.023C32.7444 94.1548 32.8374 94.2943 32.8723 94.4571C32.8878 94.5192 32.8994 94.5889 32.8955 94.6626C32.6436 94.554 32.3684 94.4881 32.0893 94.4339C31.5351 94.3254 30.9614 94.2517 30.5234 93.9455L30.5273 93.9378ZM32.9227 93.9649C32.8607 93.9378 32.8025 93.9029 32.7482 93.868C32.2754 93.5657 31.9072 92.9804 31.3296 92.7246C31.4072 92.5502 31.6591 92.3525 31.9343 92.1858C32.2056 92.0153 32.5041 91.8796 32.6591 91.8176C32.9188 91.7168 33.163 91.3912 33.3568 91.3176C33.4188 91.2943 33.4847 91.2517 33.5545 91.1936C33.57 91.1781 33.5893 91.1587 33.6048 91.1432C34.0738 90.6975 34.6203 89.6161 34.8141 89.2401C34.9576 89.6083 34.7017 91.1238 35.0273 91.2672C35.0351 91.2944 35.0428 91.3176 35.0506 91.3447C35.1087 91.5424 35.0467 91.7207 34.9614 91.8874C34.8917 92.0269 34.8064 92.1626 34.7793 92.2788C34.4149 93.0889 33.5002 93.3331 32.9265 93.9649H32.9227Z" fill="#0E0E0F"/>
<path fill-rule="evenodd" clip-rule="evenodd" d="M94.4806 84.1119C94.624 84.0227 94.81 83.9762 94.8643 83.9413C94.9224 83.9491 95.3333 84.0809 95.3565 84.1002C95.5309 84.2863 96.3488 84.2398 96.6356 84.2243C97.0154 84.2088 97.1278 83.9258 97.3643 83.8328C97.5077 83.7747 97.7364 83.6274 97.7674 83.4646C97.9418 83.3444 97.9457 83.2708 97.9999 83.0615C98.0542 82.8677 98.1937 82.8638 98.1472 82.577C98.1201 82.3832 98.2868 82.1855 98.2286 81.9917C98.1666 81.7824 98.0968 81.8948 98.1085 81.6351C98.1123 81.3987 98.0542 81.4219 98.0154 81.3599C98.0077 81.3483 98.0154 80.7437 97.9457 80.5886C97.8759 80.4452 97.841 80.3406 97.8294 80.1816C97.7325 80.4064 97.6899 80.5421 97.4767 80.6894C97.3527 80.7785 97.372 80.7359 97.2286 80.7475C97.1744 80.7514 96.9689 80.8716 96.9612 80.9219C96.8216 80.8987 96.4961 81.1196 96.3488 81.1623C96.3023 81.1816 96.0271 81.2863 96.0271 81.2902C95.7945 81.4491 95.593 81.6623 95.3643 81.8212C95.2984 81.8638 94.9883 82.3134 94.9806 82.3716C94.7829 82.3367 94.6278 82.9723 94.7247 83.1739C94.7713 83.2708 94.7906 83.3483 94.8178 83.4142C94.9108 83.6468 94.81 83.7553 94.7945 83.8328C94.7247 83.8212 94.5193 83.9568 94.4534 83.9995C94.4806 84.0266 94.4883 84.0692 94.4806 84.1041V84.1119ZM95.4224 81.8638C95.3992 82.046 95.3294 82.6274 95.4418 82.7863C95.4844 82.8483 95.4961 82.9956 95.5542 83.0809C95.6123 83.1661 95.7519 83.4103 95.7674 83.5654C95.7713 83.5886 95.7713 83.608 95.7674 83.6235C95.5193 83.577 95.2519 83.7126 95.0387 83.6739C95.0232 83.6002 95.0038 83.5266 94.9767 83.453C94.8953 83.232 94.7751 83.0266 94.8178 82.7902C94.841 82.7359 94.8333 82.6506 94.8527 82.577C94.8643 82.5227 94.8875 82.4723 94.9418 82.4336C95.0038 82.4491 95.093 82.3289 95.1744 82.201C95.1899 82.1855 95.2054 82.1623 95.217 82.139C95.2945 82.0188 95.3643 81.8987 95.4185 81.8638H95.4224ZM95.7286 81.6041C95.7751 81.5692 95.8178 81.5382 95.8526 81.515C95.7635 81.8444 95.7441 82.1894 95.841 82.4917C95.8449 82.515 95.8643 82.5343 95.872 82.5576C95.9495 82.6971 96.124 82.8832 96.1899 83.108C96.1976 83.1351 96.2092 83.1661 96.2092 83.1933C96.2247 83.3716 96.0775 83.4413 95.9069 83.5227C95.8837 83.5344 95.8565 83.5809 95.8371 83.5886C95.81 83.4142 95.7945 83.3522 95.7674 83.3018C95.748 83.2708 95.7325 83.2398 95.7015 83.1894C95.686 83.1584 95.6666 83.1235 95.6433 83.0731C95.4495 82.6739 95.403 82.3212 95.5038 81.8793C95.5077 81.7824 95.624 81.6778 95.7364 81.5964L95.7286 81.6041ZM96.2984 81.2979C96.3371 81.5382 96.2015 81.5266 96.4185 81.9646C96.4689 82.0654 96.4651 82.0925 96.4883 82.1351C96.4961 82.1506 96.5116 82.1778 96.5465 82.2165C96.5658 82.2359 96.5852 82.2592 96.6123 82.2863C96.6472 82.3289 96.6937 82.3716 96.7286 82.4181C96.8139 82.5343 96.872 82.6661 96.8333 82.8095C96.8023 82.9064 96.6782 82.9878 96.5465 83.0654C96.4612 83.1196 96.372 83.1623 96.3178 83.2049C96.2945 83.2049 96.2674 83.1429 96.248 83.0731C96.217 82.9762 96.1821 82.8522 96.1589 82.8173C96.1046 82.7359 96.062 82.6623 95.9883 82.5886C95.748 82.3444 95.8643 81.9801 95.9069 81.6933C95.9418 81.5615 96.0116 81.3832 96.1433 81.3212C96.186 81.2979 96.2402 81.294 96.3023 81.3018L96.2984 81.2979ZM96.8178 81.0731C96.8178 81.0731 96.8488 81.0731 96.8604 81.0731C96.8604 81.1894 96.8565 81.2902 96.8682 81.3871C96.8837 81.484 96.9147 81.5731 96.9806 81.6661C97.1007 81.8406 97.155 81.9956 97.155 82.1545C97.1511 82.3134 97.093 82.4723 96.9806 82.6506C96.9728 82.6623 96.9612 82.6894 96.9534 82.7165C96.9457 82.7398 96.9302 82.7669 96.9147 82.7747C96.9534 82.5188 96.5387 82.232 96.4883 81.9956C96.4496 81.8212 96.3682 81.6661 96.3914 81.4801L96.4224 81.2863C96.4651 81.2243 96.6899 81.0964 96.8178 81.077V81.0731ZM97.3216 80.8406C97.3023 80.9723 97.4379 81.2359 97.3837 81.6119C97.3759 81.7088 97.3527 81.8095 97.31 81.9219C97.3023 81.9491 97.2906 81.9762 97.2868 82.0033C97.2751 82.0421 97.2713 82.077 97.2557 82.1119C97.2635 81.8134 96.9689 81.6623 96.9302 81.3173V81.2475C96.9302 81.1739 96.9379 81.0847 96.9457 81.0344C96.9534 81.0111 96.9806 80.9801 97.0154 80.9491C97.1007 80.8754 97.2364 80.7979 97.3178 80.8367L97.3216 80.8406ZM97.6899 80.6933V80.7243C97.6976 80.7863 97.6705 80.8638 97.6472 80.9219L97.6433 80.9491C97.6085 81.1545 97.5309 81.3212 97.5077 81.4375C97.4147 81.3561 97.3914 80.953 97.4185 80.8134C97.4457 80.8173 97.4689 80.8134 97.4961 80.8018C97.5736 80.7669 97.6395 80.6855 97.6937 80.6971L97.6899 80.6933ZM97.81 81.5499C97.7906 81.577 97.7674 81.6041 97.748 81.6274C97.7131 81.6623 97.5813 81.8367 97.5154 81.8754C97.5077 81.8754 97.4999 81.8832 97.4883 81.8754C97.4651 81.7165 97.6007 81.5537 97.6472 81.4064C97.6976 81.263 97.7247 81.1119 97.7441 80.9568C97.7558 80.8561 97.7713 80.7514 97.7906 80.6468L97.8139 80.6002C97.8565 80.6584 97.8682 80.6894 97.872 80.7204C97.872 80.732 97.872 80.7437 97.8759 80.7592C97.8759 80.7863 97.8759 80.8173 97.8875 80.8677C97.9418 81.0886 97.9379 81.3599 97.8061 81.5499H97.81ZM97.9767 81.4917C98.0271 81.5615 98.0116 81.8018 97.9767 81.8754C97.8255 82.0809 97.841 82.1661 97.5968 82.2204C97.5581 82.2281 97.4612 82.294 97.3837 82.3406C97.341 82.3716 97.3023 82.3948 97.2945 82.3948C97.3643 82.2243 97.4108 82.1468 97.4457 82.1041C97.4999 82.0344 97.5387 82.0266 97.624 81.9064C97.6317 81.8987 97.6511 81.8754 97.6705 81.8522C97.7674 81.7398 97.9612 81.5111 97.9806 81.4995L97.9767 81.4917ZM97.9224 82.6274C97.9224 82.6274 97.8914 82.6351 97.872 82.6351C97.8023 82.6235 97.7286 82.7359 97.4806 82.794C97.3023 82.8328 97.1976 82.8289 97.0271 82.794C97.093 82.5964 97.1511 82.5421 97.3371 82.4568C97.3449 82.4568 97.3565 82.4491 97.3604 82.4491C97.5271 82.3716 97.403 82.3522 97.593 82.2979C97.7519 82.2475 97.934 82.1429 98.0271 82.015C98.0813 81.9762 98.1123 81.9723 98.1356 81.9917C98.2286 82.0809 98.1085 82.5615 97.9224 82.6312V82.6274ZM97.8527 82.9374C97.8178 82.9452 97.7829 82.9568 97.7441 82.9646C97.7131 82.9723 97.6937 82.984 97.6821 82.9917C97.6317 83.015 97.6162 83.0343 97.3875 83.0654C97.3488 83.0731 97.1666 83.1002 96.9999 83.108C96.841 83.1157 96.6899 83.108 96.6976 83.046C96.7325 83.0188 96.7557 82.9995 96.7829 82.9762C96.841 82.9297 96.8953 82.8948 97.0736 82.8987C97.1278 82.8987 97.1937 82.8987 97.2596 82.8832C97.5077 82.8522 97.8139 82.7669 97.9728 82.6584C97.9961 82.6429 98.0542 82.5925 98.0852 82.5847C98.1201 82.6545 98.0775 82.825 97.9999 82.9026C97.9806 82.9026 97.9185 82.9181 97.8527 82.9374ZM97.5581 83.4452C97.3371 83.5344 97.062 83.5809 96.9185 83.5654C96.748 83.5537 96.5736 83.5072 96.403 83.4723C96.3643 83.4607 96.3216 83.4491 96.279 83.4452C96.3449 83.2553 96.4999 83.1816 96.717 83.1429C96.779 83.1313 96.8604 83.2049 96.9224 83.1855C96.9263 83.1855 97.341 83.1661 97.4806 83.1312C97.4961 83.1312 97.5154 83.1235 97.5387 83.1157C97.6162 83.0964 97.7209 83.0692 97.8023 83.0692H97.8061C97.8061 83.0692 97.8371 83.0692 97.8488 83.0731C97.8565 83.0731 97.872 83.0809 97.8798 83.0886C97.8759 83.1119 97.872 83.1274 97.8682 83.1506C97.8643 83.1855 97.8527 83.2204 97.841 83.2553C97.7868 83.3328 97.6821 83.3948 97.5542 83.4413L97.5581 83.4452ZM97.2945 83.7592C97.0736 83.8677 96.903 83.8871 96.6511 83.8948C96.5309 83.8948 96.0387 83.8212 95.9224 83.7049C95.9224 83.7049 95.9108 83.6997 95.8875 83.6894C95.9224 83.6312 96.0465 83.5731 96.1356 83.5537C96.1627 83.546 96.186 83.546 96.2015 83.546C96.341 83.546 96.4767 83.5731 96.6046 83.6002C96.8178 83.6351 97.0154 83.6661 97.2364 83.6002C97.3604 83.5654 97.4961 83.5305 97.6201 83.5305C97.6123 83.546 97.6007 83.5537 97.593 83.5615C97.4457 83.6661 97.6162 83.6041 97.2945 83.7592ZM94.903 83.8832C94.9999 83.732 95.2131 83.732 95.3643 83.701C95.3875 83.6971 95.403 83.6933 95.4224 83.6894C95.4961 83.67 95.5465 83.6661 95.6007 83.67C95.7596 83.6816 95.872 83.7902 96.0464 83.8522C96.4185 83.9801 96.7364 84.046 97.1046 83.9219C97.1395 83.9103 97.2015 83.8793 97.217 83.8871V83.8948C97.217 83.8948 97.1976 83.9181 97.1705 83.9413C97.0271 84.046 96.8682 84.0964 96.7054 84.1235C96.403 84.1778 96.0736 84.1468 95.7635 84.1506C95.4728 84.1506 95.1937 83.9413 94.903 83.8832Z" fill="#0E0E0F"/>
<path fill-rule="evenodd" clip-rule="evenodd" d="M95.2288 78.9812C96.0776 76.6479 97.4846 74.3339 99.6241 72.9464C102.043 71.365 105.709 72.334 105.078 75.5975C104.903 76.5084 104.074 78.1324 103.004 78.206C102.019 78.2719 101.845 76.2836 102.764 76.3611C103.194 76.396 103.058 77.0278 103.357 77.1712C104.477 77.7138 104.868 75.675 104.725 75.02C104.504 74.0355 103.771 73.3029 102.88 72.9696C101.388 72.4115 99.8373 73.2177 98.5233 74.3184C96.814 75.7603 95.7326 77.7874 95.1822 79.8533C94.4846 82.4502 94.5001 87.9541 92.9691 89.5123C94.7249 86.303 93.9613 82.4541 95.2326 78.9812H95.2288Z" fill="#0E0E0F"/>
<path fill-rule="evenodd" clip-rule="evenodd" d="M87.0155 95.9881C87.1976 95.5618 87.717 94.9959 87.779 94.8447C87.9341 94.7749 89.0697 94.4377 89.1511 94.4571C89.8372 94.6005 91.6356 93.2517 92.279 92.7749C93.1162 92.1587 92.9341 91.3447 93.341 90.7594C93.5736 90.4183 93.8759 89.7284 93.6938 89.3137C93.9031 88.7633 93.7907 88.5966 93.6046 88.0269C93.4302 87.5114 93.7364 87.2788 93.1976 86.6935C92.8294 86.2904 92.9108 85.5966 92.4806 85.2401C92.0116 84.8525 92.0232 85.2207 91.6434 84.616C91.3062 84.0656 91.1976 84.2013 91.0232 84.116C90.9883 84.1005 90.0736 82.709 89.6628 82.4687C89.2868 82.2439 89.0503 82.0501 88.7868 81.7168C88.9031 82.3873 89.0193 82.7478 88.7635 83.4261C88.6085 83.8292 88.5891 83.6742 88.2829 83.93C88.1666 84.023 87.8837 84.6121 87.9457 84.7401C87.593 84.8951 87.1821 85.9028 86.9069 86.2284C86.8217 86.337 86.3721 87.0075 86.3682 87.0191C86.093 87.7362 85.9496 88.5308 85.6666 89.2478C85.5891 89.4455 85.5736 90.9455 85.6434 91.1044C85.1511 91.3214 85.7635 93.0114 86.2907 93.3214C86.5465 93.4726 86.7131 93.6199 86.8759 93.7246C87.4418 94.116 87.3759 94.523 87.4612 94.7168C87.279 94.7982 87.0775 95.2788 87 95.4726C87.1046 95.4997 86.9689 95.8796 87.0077 95.9842L87.0155 95.9881ZM86.3217 87.7827C86.6317 88.6625 87.1124 89.4804 87.7945 90.0424C88.0814 90.2827 88.8217 90.4106 89.3914 90.8021C89.4418 90.837 89.4883 90.868 89.5387 90.9067C89.8914 91.1974 89.9031 91.4842 89.7945 91.7827C89.7325 91.9494 89.6317 92.1199 89.531 92.2982C89.5 92.3525 89.5 92.5152 89.4534 92.5656C88.8062 91.8525 88.9457 92.1083 88.2286 91.6935C87.6201 91.3369 87.1589 90.9377 86.779 90.4455C86.5077 90.0811 86.279 89.678 86.0852 89.1897V89.1819C86.0852 89.1819 86.0814 89.1742 86.0775 89.1664C85.9341 88.9183 86.0736 88.4377 86.2093 88.0695C86.248 87.961 86.2868 87.8602 86.3217 87.7788V87.7827ZM87.5814 87.43C87.7209 87.5695 87.9379 87.7284 88.2984 87.9416C88.5736 88.1005 88.6085 88.1664 88.7093 88.2246C88.7403 88.2401 88.7829 88.2594 88.8294 88.2788C88.9147 88.3059 89.0348 88.337 89.2325 88.3757C89.6589 88.4649 90.1434 88.616 90.3992 88.9726C90.4534 89.0501 90.5038 89.1315 90.531 89.2323C90.5581 89.3253 90.5581 89.4338 90.5348 89.5501C90.4534 89.9959 90.093 90.5695 89.9534 90.9261C89.9457 90.9261 89.9379 90.93 89.9263 90.9261C89.8139 90.9067 89.5232 90.6625 89.2907 90.4765C89.1666 90.3796 89.0581 90.2982 89.0038 90.2749C88.9496 90.2594 88.8992 90.2362 88.8566 90.2168C88.655 90.1354 88.4767 90.0618 88.2635 90.0114C87.3333 89.8176 87.031 88.8176 86.7093 88.085C86.5426 87.6199 86.3837 86.868 87.0038 86.5928C87.3139 86.9377 87.2597 87.1199 87.5814 87.4261V87.43ZM89.1279 86.3951C89.7325 86.6277 90.124 86.9455 90.3566 87.3873C90.5387 87.7246 90.624 88.1393 90.6395 88.6432C90.6395 88.7052 90.6744 88.8176 90.686 88.9106C90.6899 88.9571 90.6899 89.0036 90.6705 89.0269C90.3837 88.3835 88.9961 88.3602 88.5 87.8912C88.4651 87.8563 88.4302 87.8253 88.3953 87.7943C88.1395 87.5695 87.8604 87.368 87.6511 87.0928C87.593 87.023 87.5387 86.9455 87.5 86.8602L87.3914 86.6121L87.279 86.368V86.3602C87.279 86.3331 87.2829 86.3021 87.2868 86.2672C87.2907 86.2633 87.2907 86.2517 87.2907 86.2517C87.2984 86.2052 87.3178 86.1625 87.3333 86.116C87.3333 86.1083 87.3333 86.1083 87.3372 86.1005C87.3604 86.0463 87.3837 85.9959 87.4069 85.9416C87.4147 85.9377 87.4147 85.9339 87.4147 85.9339C87.4418 85.8718 87.4728 85.8176 87.5038 85.7556C87.5387 85.6935 87.5775 85.6354 87.6124 85.5811C87.6162 85.5811 87.6162 85.5773 87.6162 85.5773C87.6511 85.5191 87.686 85.4726 87.7209 85.4261H87.7248C87.7635 85.3718 87.8023 85.3292 87.8372 85.3021C87.8759 85.2672 87.9069 85.2401 87.9418 85.2246C88.2674 85.7478 88.5271 86.1703 89.1279 86.399V86.3951ZM88.6472 83.9959C88.8255 84.4028 89.9224 84.899 90.2713 86.4804C90.2945 86.5928 90.3372 86.7052 90.3798 86.8176C90.4031 86.8757 90.4224 86.9377 90.4379 86.9959C90.3721 86.8835 90.2868 86.7982 90.1976 86.7207C89.7209 86.3176 89 86.2982 88.4806 85.6858C88.469 85.6703 88.4534 85.6509 88.4341 85.6315C88.3178 85.4649 88.1472 85.1625 88.0852 85.0191C88.0542 84.8835 88.124 84.585 88.2558 84.3486C88.3565 84.1625 88.4961 84.0114 88.6472 83.9959ZM89.279 83.1393C89.3837 83.2439 89.4379 83.4028 89.4767 83.5501C89.4883 83.5966 89.5 83.6432 89.5116 83.6819C89.5387 83.7478 89.5542 83.8137 89.5852 83.8757C89.717 84.2129 89.8023 84.5307 89.8759 84.7866C89.8798 84.7866 89.8798 84.7943 89.8837 84.7982C89.9108 84.899 89.9418 84.992 89.9728 85.0734C89.6356 85.0308 88.969 84.147 88.8062 83.7788C88.8372 83.7633 88.8643 83.7439 88.8914 83.7207C88.8914 83.7207 88.9147 83.6858 88.9263 83.6742C89.0736 83.4881 89.1085 83.1625 89.2442 83.1005C89.2442 83.1005 89.2674 83.1276 89.2752 83.1393H89.279ZM90.81 85.1315C90.81 85.1315 90.81 85.1432 90.81 85.147C90.7829 85.3215 90.7519 85.9571 90.6434 86.0811C90.6356 86.0889 90.624 86.0966 90.6162 86.0966C90.5542 86.0269 90.5077 85.9494 90.4728 85.8641C90.3294 85.5385 90.3488 85.1121 90.2519 84.7827C90.1666 84.4726 90.0426 84.1664 89.9069 83.868C89.748 83.5191 89.5775 83.1742 89.4224 82.8292L89.3992 82.6935C89.779 82.8408 89.6821 82.8912 89.9806 83.1742C90.1666 83.3602 90.3604 83.5773 90.5077 83.8137C90.7596 84.2168 90.9031 84.678 90.8062 85.1277L90.81 85.1315ZM91.7248 85.3563C91.6899 86.0695 91.8566 86.2207 91.3759 86.7284C91.2674 86.837 91.0736 87.3563 90.9767 87.5269C90.9767 87.5346 90.9767 87.5385 90.969 87.5424C90.9612 87.554 90.9535 87.5579 90.9496 87.5656C90.9457 87.5734 90.9418 87.5811 90.9418 87.5811C90.8604 87.1354 90.8372 86.8912 90.8449 86.7245C90.8527 86.4416 90.9341 86.3873 90.9573 85.9532C90.9573 85.9339 90.9573 85.9145 90.9612 85.8835C90.9883 85.6199 91.0814 84.8292 91.1317 84.5579C91.1356 84.5114 91.1395 84.4765 91.1434 84.4687C91.3682 84.554 91.7015 85.1238 91.7248 85.3563ZM92.7519 87.1393V87.147C92.748 87.1548 92.7364 87.1625 92.7325 87.1664C92.7093 87.1974 92.686 87.2245 92.6473 87.2439C92.469 87.3214 92.4767 87.6974 92 88.2013C91.6511 88.5618 91.4147 88.7013 90.969 88.899C90.9147 88.6897 90.8876 88.5269 90.8914 88.3835C90.8953 88.1587 90.9767 87.9649 91.1434 87.6858C91.1589 87.6509 91.1783 87.6238 91.2015 87.5889C91.4418 87.2013 91.1705 87.3021 91.4418 86.9455C91.4534 86.93 91.4728 86.9106 91.4922 86.8873C91.6007 86.7556 91.7015 86.6005 91.7868 86.4339C91.9263 86.1742 92.0271 85.8912 92.0465 85.6354C92.0465 85.616 92.0465 85.6005 92.0465 85.5811C92.124 85.3525 92.2325 85.3176 92.3527 85.3951C92.6744 85.616 93.0387 86.7207 92.7519 87.1393ZM93.3565 87.6664C93.3023 87.6897 93.1007 87.9261 92.9147 88.1432C92.8992 88.1625 92.8876 88.178 92.8721 88.1974C92.7325 88.3641 92.7558 88.4028 92.6356 88.5424C92.5697 88.6315 92.4496 88.7517 92.217 88.9649C92.1317 89.0424 91.7597 89.3796 91.3992 89.647C91.0348 89.9222 90.6705 90.1354 90.6007 89.9765C90.6317 89.8951 90.6511 89.8253 90.6666 89.7594C90.7364 89.5308 90.7829 89.368 91.2325 89.0695C91.4534 88.9183 91.7286 88.6858 91.9961 88.4145C92.3953 88.0075 92.7752 87.5269 92.9224 87.1432C92.9379 87.1083 92.9534 87.0463 92.9767 86.9842C93.0038 86.9145 93.031 86.837 93.062 86.8021C93.2558 86.9145 93.4069 87.3602 93.3565 87.6625V87.6664ZM93.2015 89.5463C92.8798 90.0346 92.3914 90.5152 92.0387 90.7556C92.031 90.7594 92.0232 90.7672 92.0116 90.7749C92.0077 90.7788 92.0038 90.7827 91.9922 90.7866C91.9612 90.8059 91.9341 90.8215 91.9031 90.8408C91.8604 90.868 91.81 90.8873 91.7597 90.9106C91.4961 91.0463 91.2093 91.1625 90.9186 91.2711C90.6976 91.3563 90.4651 91.4416 90.2519 91.5346C90.2364 91.4687 90.2248 91.4028 90.217 91.3408C90.1821 90.9145 90.3953 90.5695 90.7674 90.2013C90.7752 90.1935 90.7868 90.1858 90.7945 90.1703C90.8255 90.1393 90.8721 90.1199 90.9108 90.1083C91.0271 90.0695 91.1744 90.0618 91.2752 90.0036C91.2907 89.992 91.3139 89.9765 91.3294 89.9571C91.3294 89.9571 91.341 89.9494 91.3565 89.9339C91.4534 89.8602 91.8255 89.585 92.1356 89.3292C92.2945 89.1974 92.4379 89.0734 92.5232 88.9842C92.5581 88.9455 92.6124 88.8873 92.6666 88.8253C92.81 88.6625 92.9922 88.4649 93.1628 88.3525H93.1666C93.2054 88.3292 93.2441 88.3059 93.279 88.2904C93.2829 88.2866 93.2868 88.2904 93.2945 88.2866C93.3255 88.2788 93.3565 88.2672 93.3798 88.2749C93.3798 88.2749 93.3953 88.3059 93.4069 88.3215C93.4612 88.4532 93.5193 88.5773 93.5465 88.7168C93.5348 88.9649 93.3953 89.2594 93.2015 89.5501V89.5463ZM92.1511 91.7323C92.0387 91.8176 91.9224 91.9028 91.7945 91.9997C91.6434 92.1044 91.186 92.337 90.7364 92.4997C90.3876 92.6277 90.0387 92.7129 89.8449 92.678C89.7984 92.6664 89.7868 92.6664 89.7558 92.678C89.7558 92.678 89.7441 92.678 89.7325 92.6858C89.7325 92.5966 89.7674 92.4804 89.8294 92.3602C89.9108 92.2052 90.031 92.0463 90.1434 91.9455C90.1705 91.9145 90.2015 91.8912 90.2286 91.8757C90.4341 91.7478 90.6473 91.6432 90.8682 91.5463C91.4069 91.3021 91.9496 91.1044 92.4031 90.7129C92.5 90.6276 92.5969 90.5308 92.6783 90.4261C92.7558 90.3331 92.8294 90.2478 92.9108 90.1625C93.0775 89.9804 93.2558 89.8059 93.4573 89.6742C93.4573 89.7207 93.4457 89.7556 93.4302 89.7943C93.4108 89.8408 93.3992 89.8796 93.3876 89.9067C93.3604 90.0114 93.3643 90.0385 93.3643 90.0773C93.3643 90.1238 93.341 90.178 93.2248 90.3951C93.1821 90.4726 93.1279 90.5734 93.0503 90.6974C92.7868 91.1548 92.5116 91.4416 92.1434 91.7323H92.1511ZM88.593 94.4261C88.31 94.4804 88.0348 94.5463 87.7868 94.6548C87.7868 94.5811 87.7868 94.5152 87.81 94.4494C87.8488 94.2827 87.9379 94.1432 88.0503 94.0153C88.155 93.899 88.2635 93.7943 88.3759 93.6935C88.4883 93.5928 88.5969 93.4959 88.6666 93.4028C88.9534 93.0618 89.2441 92.9765 89.5542 92.93C89.8023 92.8951 90.0659 92.8912 90.3449 92.8176C91.093 92.6277 91.717 92.3912 92.2597 91.9765C92.2868 91.9494 92.3178 91.9339 92.3488 91.9067C92.3721 91.8912 92.3876 91.868 92.4147 91.8447C92.4806 91.7827 92.5542 91.7207 92.6162 91.6548C92.655 91.6122 92.6976 91.5618 92.7403 91.5191C92.779 91.4649 92.8294 91.4184 92.8721 91.3641C92.9069 91.3137 92.9573 91.2478 92.9922 91.1935C93.0426 91.1277 93.0814 91.085 93.0852 91.1238C93.0852 91.1276 93.0814 91.1354 93.0814 91.1354C93.0814 91.1664 93.0736 91.2168 93.0503 91.3059C92.5852 92.5036 91.3876 93.1199 90.3527 93.7982C90.2829 93.8408 90.217 93.8873 90.1472 93.93C89.7093 94.2323 89.1434 94.3098 88.5852 94.4183L88.593 94.4261ZM85.9069 92.2788C85.8798 92.1587 85.7945 92.0269 85.7248 91.8873C85.6395 91.7207 85.5775 91.5424 85.6356 91.3447C85.6434 91.3176 85.6434 91.2943 85.6589 91.2672C85.9845 91.1238 85.7248 89.6083 85.8682 89.2362C86.0658 89.616 86.6124 90.6974 87.0775 91.1432C87.093 91.1587 87.1124 91.178 87.1317 91.1935C87.1938 91.2517 87.2597 91.2943 87.3255 91.3176C87.5232 91.3951 87.7635 91.7168 88.0271 91.8176C88.1783 91.8796 88.469 92.0153 88.748 92.1858C89.0193 92.3525 89.2752 92.5501 89.3565 92.7245C88.779 92.9804 88.4069 93.5656 87.9341 93.868C87.8798 93.9028 87.8217 93.9377 87.7674 93.9649C87.1899 93.337 86.2674 93.0889 85.9108 92.2788H85.9069Z" fill="#0E0E0F"/>
<path d="M59.4574 12.9062L59.4109 15.2512L61.0582 12.9954L59.4574 12.9062Z" fill="#0E0E0F"/>
<circle cx="60.0001" cy="60" r="50" stroke="#0E0E0F" stroke-width="2"/>
</g>
<defs>
<clipPath id="clip0_2890_194096">
<rect width="120" height="120" fill="white"/>
</clipPath>
</defs>
</svg>
