<svg width="150" height="100" viewBox="0 0 150 100" fill="none" xmlns="http://www.w3.org/2000/svg">
<g clip-path="url(#clip0_2760_91593)">
<path d="M150 0H0V100H150V0Z" fill="white"/>
<path d="M102.703 46.5829H103.489L103.7 46.0051H102.914L102.703 46.5829ZM104.711 45.419H103.925L103.714 45.9968H104.5L104.711 45.419ZM100.683 47.7496H101.469L101.681 47.1718H100.894L100.683 47.7496ZM103.117 45.419H102.331L102.119 45.9968H102.906L103.117 45.419ZM102.106 46.0051H101.319L101.108 46.5829H101.894L102.106 46.0051ZM49.6083 37.7662C48.9444 37.7662 48.2111 38.4051 47.9694 39.194C47.7278 39.9829 48.0694 40.6218 48.7333 40.6218C49.3972 40.6218 50.1306 39.9829 50.3722 39.194C50.6139 38.4051 50.2722 37.7662 49.6083 37.7662ZM65.7861 47.1996H66.375L66.4167 47.0829H65.8278L65.7861 47.1996ZM65.9778 46.6746H66.5667L66.6083 46.5579H66.0194L65.9778 46.6746ZM66.1667 46.1523H66.7556L66.7972 46.0357H66.2083L66.1667 46.1523ZM103.889 47.7496H104.675L104.886 47.1718H104.1L103.889 47.7496ZM107.711 28.869C98.9056 25.9218 87.1833 24.2996 74.7028 24.2996C62.2222 24.2996 50.5 25.9218 41.6944 28.869C33.2667 31.6912 28.4333 35.4885 28.4333 39.2885C28.4333 43.0885 33.2667 46.8885 41.6944 49.7079C50.5 52.6551 62.2222 54.2773 74.7028 54.2773C87.1833 54.2773 98.9056 52.6551 107.711 49.7079C116.139 46.8857 120.972 43.0885 120.972 39.2885C120.972 35.4885 116.139 31.6885 107.711 28.869ZM91.0611 30.7107L92.9111 37.8107C93 38.1579 93.0611 38.5773 93.0861 38.9523L93.1083 38.9246C93.2778 38.3496 93.5111 37.6357 93.6806 37.169L96.0306 30.7107H98.5028L94.2611 42.3607H91.6139L89.6944 35.044C89.6222 34.7607 89.5222 34.2662 89.4722 33.9579H89.4583C89.3278 34.4662 89.0945 35.1412 88.8028 35.944L86.4667 42.3607H83.9944L88.2361 30.7107H91.0583H91.0611ZM85.9389 30.7107L85.1556 32.8579H78.8694L77.9556 35.369H83.8528L83.0806 37.4912H77.1833L76.1833 40.244H82.6444L81.8722 42.3662H72.7778L77.0194 30.7162H85.9389V30.7107ZM74.85 30.7107L74.0667 32.8579H68.4111L67.4 35.6385H72.3306L71.5583 37.7579H66.6278L64.9528 42.3635H62.3194L66.5611 30.7135H74.85V30.7107ZM67.8722 44.9801L67.725 45.3857H66.2194L66.1694 45.4635H65.6639L66.0389 44.8773H66.5389L66.4806 44.9801H67.875H67.8722ZM61.4056 30.7107H64.0389L59.7972 42.3607H57.1639L61.4056 30.7107ZM62.7722 46.1829L62.4806 46.9829H50.725C50.6972 46.9996 50.6694 47.0162 50.6389 47.0357L49.7278 47.519C49.7278 47.519 49.7111 47.5273 49.7028 47.5301H62.2806L61.9889 48.3301H46.1111V48.3218C42.1556 48.1551 40.1472 44.244 41.6194 39.4412C43.1222 34.5329 47.6861 30.5523 51.8139 30.5523C55.9417 30.5523 58.0694 34.5329 56.5667 39.4412C55.9444 41.4746 54.7972 43.344 53.3722 44.8412H63.2556L62.9639 45.6412H52.5417C52.3278 45.8301 52.1083 46.0135 51.8861 46.1857H62.7639L62.7722 46.1829ZM63.9139 48.2885L64.0944 47.7912H64.25L64.7667 46.369H64.6556L63.7889 48.2857H63.2611L64.4306 45.6968H64.2389L64.4167 45.2051H64.8139L64.8306 44.8773H65.4028L65.3861 45.2051H65.7389L65.5583 45.6968H64.9639L64.8833 45.8773H65.4639L64.5861 48.2885H63.9111H63.9139ZM65.6306 48.1079L64.7306 48.319L64.9028 47.8468L65.8056 47.6273L65.6306 48.1079ZM66.5833 48.319L65.8611 48.1079L66.0361 47.6273L66.7556 47.8468L66.5833 48.319ZM67.0361 47.1996L66.8889 47.6051H64.95L65.0972 47.1996H65.2806L65.7056 46.0357H65.5222L65.6694 45.6301H65.8528L65.8972 45.5051H66.4028L66.3583 45.6301H66.9472L66.9917 45.5051H67.4972L67.4528 45.6301H67.6056L67.4583 46.0357H67.3028L66.8806 47.1996H67.0333H67.0361ZM71.4889 45.769H70.175L69.9806 46.2996H71.2278L71.0361 46.8301H69.7889L69.5806 47.3996H70.9472L70.7528 47.9301H69.3889L69.275 48.2468H68.7472L68.8611 47.9301H67.4361L67.6306 47.3996H69.0556L69.2639 46.8301H67.9722L68.1667 46.2996H69.4583L69.6528 45.769H68.2944L68.4889 45.2385H69.8472L69.95 44.9579H70.4778L70.375 45.2385H71.6889L71.4944 45.769H71.4889ZM106.322 45.419H105.536L105.325 45.9968H106.111L105.897 46.5829H105.111L104.9 47.1607H105.686L105.472 47.7468H104.686L104.475 48.3246H103.65L103.861 47.7468H103.075L102.864 48.3246H102.056L102.267 47.7468H101.481L101.269 48.3246H72.1417L73.4111 44.8357H101.742L101.531 45.4135H102.317L102.528 44.8357H103.336L103.125 45.4135H103.911L104.122 44.8357H104.947L104.736 45.4135H105.522L105.733 44.8357H106.531L106.319 45.4135L106.322 45.419ZM102.975 40.3218C104.344 40.3218 105.4 39.894 106.164 39.1273L106.681 37.7023H103.267L104.033 35.5968H109.864L108.297 39.9023C107.058 41.4996 104.978 42.5607 102.05 42.5607C98.4778 42.5607 97.2306 40.1162 98.5556 36.4801C99.8611 32.8968 102.983 30.5496 106.275 30.5496C109.136 30.5496 110.356 31.7051 110.525 33.4468L107.783 34.3718C107.606 33.3135 106.908 32.7885 105.511 32.7885C103.817 32.7885 102.053 34.4662 101.314 36.4912C100.381 39.0523 101.386 40.3162 102.972 40.3162L102.975 40.3218ZM104.314 46.5829H105.1L105.311 46.0051H104.525L104.314 46.5829ZM102.692 46.5829H101.906L101.694 47.1607H102.481L102.692 46.5829ZM51.0111 33.1801C48.1056 33.1801 44.8889 35.9829 43.8333 39.4385C42.775 42.894 44.275 45.6968 47.1806 45.6968C50.0861 45.6968 53.3 42.894 54.3583 39.4385C55.4167 35.9829 53.9167 33.1801 51.0111 33.1801ZM54.1583 38.5885C53.0722 38.2385 51.6861 38.9273 51.0444 40.144C50.4083 41.3523 50.7444 42.6301 51.7917 43.0301C51.075 43.7635 50.2583 44.3496 49.4083 44.7301C49.4139 44.7107 49.4222 44.694 49.425 44.6746C49.85 43.194 49.3222 42.019 48.2444 42.0468C47.1778 42.0746 45.975 43.2718 45.5389 44.7301C44.9222 44.3523 44.4639 43.7635 44.1972 43.0301C45.4889 42.6301 46.6083 41.3551 46.7111 40.144C46.8139 38.9246 45.85 38.2357 44.55 38.5885C44.9 37.7746 45.375 37.0162 45.9361 36.3496C46.2944 37.3523 47.2722 37.7162 48.275 37.1496C49.3694 36.5301 50.0861 35.0329 49.9056 33.7662C50.225 33.6968 50.5472 33.6607 50.8611 33.6607C51.175 33.6607 51.475 33.6968 51.7528 33.7662C50.7972 35.0329 50.5944 36.5301 51.3111 37.1496C51.9667 37.7162 53.1694 37.3523 54.1389 36.3496C54.2889 37.0162 54.3028 37.7746 54.1528 38.5885H54.1583ZM104.286 46.5829H103.5L103.289 47.1607H104.075L104.286 46.5829ZM75 21.2773C47.3861 21.2773 25 29.4746 25 39.5885C25 49.7023 47.3861 57.8996 75 57.8996C102.614 57.8996 125 49.7023 125 39.5885C125 29.4746 102.614 21.2773 75 21.2773ZM108.183 51.1246C99.2278 54.1218 87.3389 55.7718 74.7028 55.7718C62.0667 55.7718 50.175 54.1218 41.2194 51.1246C32.0111 48.0412 26.9389 43.8385 26.9389 39.2885C26.9389 34.7385 32.0111 30.5357 41.2194 27.4523C50.175 24.4551 62.0639 22.8051 74.7028 22.8051C87.3417 22.8051 99.2306 24.4551 108.183 27.4523C117.392 30.5357 122.464 34.7385 122.464 39.2885C122.464 43.8385 117.392 48.0412 108.183 51.1246ZM102.278 47.7496H103.064L103.275 47.1718H102.489L102.278 47.7496Z" fill="url(#paint0_radial_2760_91593)"/>
<path d="M44.4667 75.9115V68.1393H43.9695V67.6421H45.6222V65.4365H47.7167V67.6421H49.3139V68.1393H46.3917V70.7865C46.575 70.381 47.0889 70.181 47.9361 70.181C48.8917 70.2171 49.3889 70.7143 49.425 71.6699V76.906C49.4611 78.0449 49.0195 78.6143 48.1028 78.6143C47.1472 78.5421 46.5222 78.2087 46.2278 77.6226C46.0083 78.431 45.2528 78.7421 43.9667 78.5587C44.2611 78.1921 44.425 77.3087 44.4639 75.9143L44.4667 75.9115ZM47.5528 76.5726V71.6115C47.5167 71.0615 47.3139 70.7671 46.9472 70.731C46.6889 70.8032 46.5056 71.0615 46.3972 71.5032V76.0226C46.3972 76.6837 46.3417 77.2171 46.2306 77.6199C46.4889 77.731 46.7445 77.7865 47.0028 77.7865C47.3695 77.7865 47.5528 77.381 47.5528 76.5726ZM50.6389 65.4921H52.6778C52.5667 65.7865 52.4583 66.0615 52.3472 66.3199L52.1278 66.981H57.2V67.4782H51.9639C51.8917 67.6615 51.8361 67.7893 51.7972 67.8643C51.725 68.0837 51.6306 68.2504 51.5222 68.3615H52.5695V69.7393H54.3333V68.3615H56.2639V69.7393H57.2V70.2365H56.2639V75.4171H57.3111V75.8587H49.65V75.4171H50.5861V70.2365H49.7583V69.7393H50.5861V68.8032C50.2195 68.8754 49.7417 68.8949 49.1528 68.8587C49.4472 68.5643 49.7028 68.1226 49.925 67.5365C49.925 67.4643 49.9611 67.3337 50.0361 67.1504C50.1833 66.7837 50.3861 66.231 50.6417 65.4976L50.6389 65.4921ZM51.025 76.2976H53.0639C52.9167 76.556 52.7889 76.7949 52.6778 77.0143C52.4195 77.4199 52.2361 77.7504 52.1278 78.006C51.9083 78.3365 51.6139 78.5393 51.2445 78.6115C50.875 78.6837 50.1778 78.7226 49.15 78.7226C49.8472 78.4282 50.4722 77.6199 51.025 76.2976ZM52.5695 70.2337V71.6671H54.3333V70.2337H52.5695ZM52.5695 72.0532V73.5421H54.3333V72.0532H52.5695ZM52.5695 73.9254V75.4143H54.3333V73.9254H52.5695ZM53.8361 76.2421H55.7667C56.5028 77.7115 57.0333 78.5199 57.3639 78.6671C55.7472 78.7782 54.8833 78.556 54.7722 78.006C54.5889 77.7115 54.3306 77.2699 54 76.6837C53.9278 76.5004 53.8722 76.3532 53.8333 76.2421H53.8361Z" fill="#005BAB"/>
<path d="M72.3 71.719H68.3862V74.9718H73.5667V75.5774H68.3862V78.444H65.7945V75.5774H60.4473V74.9718H65.7945V71.719H61.7167V71.169H65.7945V68.1385H60.8889V67.5329H65.7945V65.4385H68.3862V67.5329H73.1278V68.1385H68.3862V71.169H72.3V71.719Z" fill="#005BAB"/>
<path d="M89.8278 74.9169H86.025C87.825 76.828 89.1862 78.003 90.1028 78.4447C88.5223 78.5169 87.4945 78.5003 87.0167 78.3892C86.5028 78.3169 86.0417 78.0586 85.6389 77.6169C85.4195 77.3586 85.1973 77.1392 84.9778 76.9558C84.5723 76.5142 84.2806 76.1669 84.0945 75.9086C83.5806 76.4225 82.8806 76.9753 82 77.5614C81.9278 77.6336 81.8723 77.7086 81.8334 77.7808C81.2084 78.4058 79.5 78.6614 76.7084 78.553C78.0667 78.0753 79.8695 76.8614 82.1112 74.9142H76.9306V74.3086H83.2695V68.8503H85.75V74.3086H89.8278V74.9142V74.9169ZM89.4417 69.9558H87.1278C87.3112 69.6975 87.4223 69.3669 87.4584 68.9642V68.4669C87.6417 67.878 87.0361 67.603 85.6389 67.6391H81.3389C80.0167 67.603 79.3 67.9141 79.1889 68.5753V69.2919H80.8973C81.4473 70.2475 82.0723 70.928 82.7723 71.3308C80.75 71.5142 79.5945 71.2391 79.3 70.503C79.1889 70.4308 79.0417 70.2447 78.8584 69.953C78.8223 69.8058 78.7862 69.6947 78.7473 69.6225H76.9834V67.0308H79.1889V68.353C79.2611 67.4725 79.9778 67.0475 81.3389 67.0864H82.0556V65.4336H84.5917V67.0864H87.1834C88.9834 67.0141 89.8278 67.4725 89.7195 68.4642V68.9614C89.6834 69.403 89.5917 69.7336 89.4445 69.953L89.4417 69.9558ZM78.1973 71.7753H80.5112C81.1 72.6947 81.7612 73.3725 82.4945 73.8142C80.4723 73.9975 79.2973 73.7225 78.9667 72.9864C78.8945 72.9503 78.8195 72.8753 78.7473 72.7669C78.4889 72.4364 78.3056 72.1058 78.1973 71.7753Z" fill="#005BAB"/>
<path d="M103.714 68.2471H105.697C105.661 68.5776 105.586 69.2943 105.478 70.397C105.331 71.8304 105.239 72.7109 105.203 73.0443C105.167 74.6609 104.228 75.3582 102.392 75.1387V77.6748H106.031V78.2804H93.2972V77.6748H96.9361V75.1387C95.1 75.3221 94.1806 74.6248 94.1806 73.0443C94.1084 72.7137 93.9972 71.8304 93.85 70.397C93.7389 69.2943 93.6834 68.5776 93.6834 68.2471H95.6667C95.6667 68.4304 95.6861 68.7609 95.7222 69.2387C95.9417 71.297 96.1084 72.5637 96.2195 73.0415C96.4028 74.0332 96.6417 74.6582 96.9361 74.9165V65.7665H99.0861V77.672H100.189V65.7109H102.394V74.972C102.725 74.7137 102.983 74.0721 103.167 73.0415C103.239 72.5637 103.386 71.297 103.608 69.2387C103.644 68.8332 103.681 68.5026 103.719 68.2471H103.714Z" fill="#005BAB"/>
</g>
<defs>
<radialGradient id="paint0_radial_2760_91593" cx="0" cy="0" r="1" gradientUnits="userSpaceOnUse" gradientTransform="translate(52.1738 8.48323) scale(66.3473 66.3473)">
<stop stop-color="#009FE8"/>
<stop offset="1" stop-color="#005BAB"/>
</radialGradient>
<clipPath id="clip0_2760_91593">
<rect width="150" height="100" fill="white"/>
</clipPath>
</defs>
</svg>
