<svg width="160" height="110" viewBox="0 0 160 110" fill="none" xmlns="http://www.w3.org/2000/svg">
<g clip-path="url(#clip0_2890_194097)">
<ellipse cx="80" cy="55" rx="80" ry="55" fill="white"/>
<path d="M114.391 50.7174H115.376L115.641 49.9932H114.655L114.391 50.7174ZM116.908 49.2586H115.923L115.658 49.9827H116.643L116.908 49.2586ZM111.86 52.1796H112.845L113.109 51.4555H112.124L111.86 52.1796ZM114.909 49.2586H113.924L113.66 49.9827H114.645L114.909 49.2586ZM113.642 49.9932H112.657L112.392 50.7174H113.378L113.642 49.9932ZM47.8434 39.6668C47.0113 39.6668 46.0921 40.4675 45.7892 41.4563C45.4863 42.4451 45.9146 43.2459 46.7467 43.2459C47.5788 43.2459 48.4979 42.4451 48.8008 41.4563C49.1037 40.4675 48.6755 39.6668 47.8434 39.6668ZM68.1202 51.4903H68.8583L68.9105 51.3441H68.1724L68.1202 51.4903ZM68.3604 50.8323H69.0985L69.1507 50.686H68.4127L68.3604 50.8323ZM68.5972 50.1777H69.3353L69.3875 50.0315H68.6494L68.5972 50.1777ZM115.877 52.1796H116.863L117.127 51.4555H116.142L115.877 52.1796ZM120.668 28.5152C109.631 24.8212 94.9389 22.788 79.2961 22.788C63.6533 22.788 48.961 24.8212 37.9243 28.5152C27.3611 32.0525 21.3031 36.8119 21.3031 41.5747C21.3031 46.3375 27.3611 51.1003 37.9243 54.6342C48.961 58.3281 63.6533 60.3614 79.2961 60.3614C94.9389 60.3614 109.631 58.3281 120.668 54.6342C131.231 51.0969 137.289 46.3375 137.289 41.5747C137.289 36.8119 131.231 32.049 120.668 28.5152ZM99.7993 30.8235L102.118 39.7225C102.229 40.1577 102.306 40.6834 102.337 41.1534L102.365 41.1186C102.578 40.3979 102.87 39.5031 103.082 38.9182L106.028 30.8235H109.126L103.81 45.4253H100.492L98.0863 36.2548C97.9958 35.8997 97.8705 35.28 97.8078 34.8935H97.7904C97.6267 35.5306 97.3343 36.3767 96.9687 37.3828L94.0407 45.4253H90.9421L96.2585 30.8235H99.7958H99.7993ZM93.3792 30.8235L92.3974 33.5148H84.5185L83.3731 36.6622H90.7645L89.7966 39.3221H82.4052L81.1518 42.7724H89.25L88.2821 45.4323H76.8834L82.1998 30.8305H93.3792V30.8235ZM79.4807 30.8235L78.4988 33.5148H71.4103L70.143 36.9999H76.3228L75.355 39.6563H69.1751L67.0757 45.4288H63.7752L69.0916 30.827H79.4807V30.8235ZM70.7349 48.7085L70.5504 49.2168H68.6633L68.6007 49.3143H67.967L68.437 48.5797H69.0637L68.9906 48.7085H70.7384H70.7349ZM62.6297 30.8235H65.9303L60.6139 45.4253H57.3133L62.6297 30.8235ZM64.3427 50.216L63.9771 51.2187H49.243C49.2082 51.2396 49.1733 51.2605 49.135 51.2849L47.9931 51.8907C47.9931 51.8907 47.9722 51.9011 47.9617 51.9046H63.7264L63.3609 52.9073H43.46V52.8969C38.5022 52.688 35.985 47.7859 37.8303 41.7662C39.7138 35.6142 45.4341 30.6251 50.6078 30.6251C55.7814 30.6251 58.4483 35.6142 56.5648 41.7662C55.7849 44.3147 54.347 46.6578 52.5609 48.5344H64.9485L64.5829 49.5371H51.5199C51.2518 49.7739 50.9768 50.0036 50.6983 50.2195H64.3322L64.3427 50.216ZM65.7736 52.8551L65.9999 52.2319H66.1949L66.8425 50.4493H66.7032L65.6169 52.8516H64.9554L66.4212 49.6067H66.1809L66.4038 48.9905H66.9016L66.9225 48.5797H67.6397L67.6188 48.9905H68.061L67.8347 49.6067H67.0896L66.9887 49.833H67.7163L66.6161 52.8551H65.7701H65.7736ZM67.9252 52.6288L66.7972 52.8934L67.013 52.3015L68.1446 52.0265L67.9252 52.6288ZM69.1194 52.8934L68.2142 52.6288L68.4335 52.0265L69.3353 52.3015L69.1194 52.8934ZM69.6869 51.4903L69.5024 51.9986H67.0722L67.2568 51.4903H67.4865L68.0192 50.0315H67.7894L67.974 49.5232H68.2038L68.2595 49.3665H68.8931L68.8374 49.5232H69.5755L69.6312 49.3665H70.2649L70.2092 49.5232H70.4006L70.2161 50.0315H70.0211L69.4919 51.4903H69.6834H69.6869ZM75.2679 49.6973H73.6211L73.3774 50.3622H74.9407L74.7004 51.0272H73.1372L72.8761 51.741H74.589L74.3453 52.4059H72.6358L72.4931 52.8028H71.8316L71.9743 52.4059H70.1883L70.432 51.741H72.218L72.4792 51.0272H70.8602L71.1039 50.3622H72.7229L72.9666 49.6973H71.2641L71.5078 49.0323H73.2103L73.3391 48.6806H74.0006L73.8718 49.0323H75.5186L75.2749 49.6973H75.2679ZM118.927 49.2586H117.942L117.677 49.9827H118.663L118.394 50.7174H117.409L117.145 51.4415H118.13L117.862 52.1762H116.877L116.612 52.9003H115.578L115.842 52.1762H114.857L114.593 52.9003H113.579L113.844 52.1762H112.859L112.594 52.9003H76.0861L77.6772 48.5274H113.186L112.921 49.2516H113.907L114.171 48.5274H115.184L114.92 49.2516H115.905L116.17 48.5274H117.204L116.939 49.2516H117.924L118.189 48.5274H119.188L118.924 49.2516L118.927 49.2586ZM114.732 42.8698C116.448 42.8698 117.771 42.3337 118.729 41.3728L119.376 39.5867H115.097L116.058 36.9476H123.366L121.403 42.3441C119.85 44.346 117.242 45.676 113.572 45.676C109.095 45.676 107.532 42.6122 109.193 38.0548C110.829 33.5635 114.742 30.6216 118.868 30.6216C122.454 30.6216 123.982 32.0699 124.195 34.2529L120.758 35.4123C120.536 34.0858 119.662 33.4277 117.911 33.4277C115.787 33.4277 113.576 35.5306 112.65 38.0687C111.48 41.2788 112.74 42.8629 114.728 42.8629L114.732 42.8698ZM116.41 50.7174H117.395L117.66 49.9932H116.675L116.41 50.7174ZM114.377 50.7174H113.391L113.127 51.4415H114.112L114.377 50.7174ZM49.6016 33.9187C45.9598 33.9187 41.9281 37.4316 40.6051 41.7627C39.2786 46.0938 41.1587 49.6067 44.8004 49.6067C48.4422 49.6067 52.4704 46.0938 53.7969 41.7627C55.1234 37.4316 53.2433 33.9187 49.6016 33.9187ZM53.5462 40.6973C52.1849 40.2586 50.4476 41.1221 49.6433 42.647C48.8461 44.1615 49.2673 45.7631 50.5799 46.2644C49.6816 47.1835 48.6581 47.9182 47.5927 48.3951C47.5997 48.3708 47.6101 48.3499 47.6136 48.3255C48.1463 46.4698 47.4848 44.9971 46.1339 45.0319C44.797 45.0667 43.2894 46.5673 42.7428 48.3951C41.9699 47.9216 41.3954 47.1835 41.0612 46.2644C42.6802 45.7631 44.0832 44.165 44.2121 42.647C44.3409 41.1186 43.1328 40.2552 41.5034 40.6973C41.9421 39.6772 42.5374 38.7267 43.2407 37.8912C43.6898 39.148 44.9153 39.6041 46.1722 38.8939C47.5439 38.1175 48.4422 36.2409 48.2159 34.6533C48.6163 34.5662 49.0201 34.521 49.4136 34.521C49.807 34.521 50.183 34.5662 50.5312 34.6533C49.3335 36.2409 49.0793 38.1175 49.9776 38.8939C50.7992 39.6041 52.3068 39.148 53.5219 37.8912C53.7099 38.7267 53.7273 39.6772 53.5393 40.6973H53.5462ZM116.375 50.7174H115.39L115.125 51.4415H116.111L116.375 50.7174ZM79.6687 19C45.0581 19 16.9999 29.2742 16.9999 41.9507C16.9999 54.6272 45.0581 64.9014 79.6687 64.9014C114.279 64.9014 142.337 54.6272 142.337 41.9507C142.337 29.2742 114.279 19 79.6687 19ZM121.26 56.4098C110.035 60.1664 95.1339 62.2345 79.2961 62.2345C63.4583 62.2345 48.5536 60.1664 37.3289 56.4098C25.7874 52.5452 19.43 47.2775 19.43 41.5747C19.43 35.8718 25.7874 30.6042 37.3289 26.7396C48.5536 22.983 63.4549 20.9149 79.2961 20.9149C95.1374 20.9149 110.039 22.983 121.26 26.7396C132.801 30.6042 139.159 35.8718 139.159 41.5747C139.159 47.2775 132.801 52.5452 121.26 56.4098ZM113.858 52.1796H114.843L115.108 51.4555H114.123L113.858 52.1796Z" fill="url(#paint0_radial_2890_194097)"/>
<path d="M41.3988 87.4768V77.7353H40.7756V77.112H42.8471V74.3477H45.4723V77.112H47.4742V77.7353H43.8115V81.0532C44.0413 80.5449 44.6854 80.2942 45.7473 80.2942C46.945 80.3395 47.5682 80.9627 47.6134 82.1604V88.7232C47.6587 90.1506 47.1051 90.8644 45.9562 90.8644C44.7585 90.7738 43.9752 90.356 43.6061 89.6214C43.3311 90.6346 42.3841 91.0245 40.7721 90.7947C41.1411 90.3352 41.3466 89.228 41.3953 87.4802L41.3988 87.4768ZM45.2668 88.3054V82.0872C45.2216 81.3979 44.9674 81.0288 44.5078 80.9836C44.1841 81.0741 43.9543 81.3979 43.8185 81.9515V87.616C43.8185 88.4446 43.7489 89.1131 43.6096 89.6179C43.9334 89.7572 44.2537 89.8268 44.5775 89.8268C45.0371 89.8268 45.2668 89.3185 45.2668 88.3054ZM49.1349 74.4173H51.6904C51.5511 74.7863 51.4153 75.131 51.2761 75.4548L51.001 76.2834H57.3584V76.9066H50.7956C50.7051 77.1364 50.6355 77.2966 50.5867 77.3906C50.4962 77.6656 50.3778 77.8745 50.242 78.0138H51.5546V79.7406H53.7654V78.0138H56.1851V79.7406H57.3584V80.3639H56.1851V86.857H57.4977V87.4106H47.8954V86.857H49.0687V80.3639H48.0312V79.7406H49.0687V78.5674C48.6092 78.6579 48.0103 78.6822 47.2722 78.637C47.6413 78.2679 47.9616 77.7144 48.2401 76.9797C48.2401 76.8892 48.2854 76.7256 48.3794 76.4958C48.5639 76.0362 48.8181 75.3434 49.1384 74.4242L49.1349 74.4173ZM49.6188 87.9607H52.1743C51.9898 88.2845 51.8297 88.5839 51.6904 88.859C51.3666 89.3673 51.1368 89.7816 51.001 90.1019C50.726 90.5162 50.3569 90.7704 49.8939 90.8609C49.4308 90.9514 48.557 91.0001 47.2688 91.0001C48.1426 90.6311 48.926 89.618 49.6188 87.9607ZM51.5546 80.3604V82.1569H53.7654V80.3604H51.5546ZM51.5546 82.6408V84.507H53.7654V82.6408H51.5546ZM51.5546 84.9874V86.8536H53.7654V84.9874H51.5546ZM53.1422 87.8911H55.5619C56.4846 89.7328 57.1495 90.746 57.5638 90.9305C55.5376 91.0698 54.4548 90.7912 54.3155 90.1019C54.0857 89.7328 53.7619 89.1793 53.3476 88.4446C53.2571 88.2149 53.1875 88.0303 53.1387 87.8911H53.1422Z" fill="#005BAB"/>
<path d="M76.2844 82.2225H71.3789V86.2994H77.8721V87.0584H71.3789V90.6514H68.1305V87.0584H61.4285V86.2994H68.1305V82.2225H63.0196V81.5331H68.1305V77.7347H61.982V76.9757H68.1305V74.3506H71.3789V76.9757H77.322V77.7347H71.3789V81.5331H76.2844V82.2225Z" fill="#005BAB"/>
<path d="M98.2535 86.2299H93.4872C95.7432 88.6253 97.4492 90.098 98.5981 90.6516C96.6171 90.7421 95.3289 90.7212 94.7301 90.5819C94.086 90.4914 93.508 90.1676 93.0032 89.614C92.7282 89.2903 92.4496 89.0152 92.1746 88.7854C91.6663 88.2319 91.3007 87.7966 91.0674 87.4729C90.4234 88.117 89.546 88.8098 88.4423 89.5444C88.3518 89.6349 88.2822 89.7289 88.2334 89.8195C87.4501 90.6028 85.3089 90.9231 81.8099 90.7873C83.5124 90.1885 85.7719 88.6671 88.5816 86.2264H82.0884V85.4675H90.0334V78.6261H93.1425V85.4675H98.2535V86.2264V86.2299ZM97.7695 80.0118H94.8694C95.0991 79.688 95.2384 79.2737 95.2837 78.7689V78.1457C95.5135 77.4076 94.7545 77.0629 93.0032 77.1081H87.6137C85.9565 77.0629 85.0582 77.4528 84.9189 78.2814V79.1797H87.0601C87.7495 80.3774 88.5328 81.2304 89.4102 81.7352C86.8756 81.965 85.4273 81.6203 85.0582 80.6977C84.9189 80.6071 84.7344 80.3739 84.5046 80.0083C84.4594 79.8238 84.4141 79.6845 84.3654 79.594H82.1546V76.3457H84.9189V78.0029C85.0095 76.8992 85.9077 76.3666 87.6137 76.4153H88.512V74.3438H91.6907V76.4153H94.939C97.1951 76.3248 98.2535 76.8992 98.1177 78.1422V78.7654C98.0724 79.319 97.9575 79.7333 97.773 80.0083L97.7695 80.0118ZM83.676 82.2922H86.5762C87.3143 83.4447 88.1429 84.2942 89.0621 84.8477C86.5274 85.0775 85.0547 84.7328 84.6404 83.8102C84.5499 83.765 84.4559 83.671 84.3654 83.5352C84.0416 83.1209 83.8118 82.7066 83.676 82.2922Z" fill="#005BAB"/>
<path d="M115.658 77.8701H118.144C118.099 78.2844 118.005 79.1827 117.869 80.5649C117.684 82.3614 117.569 83.465 117.524 83.8828C117.479 85.9091 116.302 86.783 114.001 86.508V89.6867H118.562V90.4456H102.602V89.6867H107.163V86.508C104.861 86.7377 103.709 85.8639 103.709 83.8828C103.619 83.4685 103.479 82.3614 103.295 80.5649C103.155 79.1827 103.086 78.2844 103.086 77.8701H105.572C105.572 78.0999 105.596 78.5142 105.641 79.113C105.916 81.6929 106.125 83.2805 106.265 83.8794C106.494 85.1223 106.794 85.9056 107.163 86.2294V74.761H109.858V89.6832H111.24V74.6914H114.004V86.2991C114.418 85.9753 114.742 85.171 114.972 83.8794C115.063 83.2805 115.247 81.6929 115.526 79.113C115.571 78.6047 115.616 78.1904 115.665 77.8701H115.658Z" fill="#005BAB"/>
</g>
<defs>
<radialGradient id="paint0_radial_2890_194097" cx="0" cy="0" r="1" gradientUnits="userSpaceOnUse" gradientTransform="translate(51.0588 2.96417) scale(83.1581)">
<stop stop-color="#009FE8"/>
<stop offset="1" stop-color="#005BAB"/>
</radialGradient>
<clipPath id="clip0_2890_194097">
<rect width="160" height="110" rx="55" fill="white"/>
</clipPath>
</defs>
</svg>
