<svg width="150" height="100" viewBox="0 0 150 100" fill="none" xmlns="http://www.w3.org/2000/svg">
<g clip-path="url(#clip0_2760_91961)">
<path d="M150 0H0V100H150V0Z" fill="#00704A"/>
<path d="M75 72.5225C70.95 72.5225 67.0195 71.7281 63.3195 70.1642C59.7445 68.6531 56.5361 66.4892 53.7806 63.7336C51.025 60.9781 48.8611 57.767 47.35 54.1948C45.7861 50.4948 44.9917 46.5642 44.9917 42.5142C44.9917 38.4642 45.7861 34.5336 47.35 30.8336C48.8611 27.2586 51.025 24.0503 53.7806 21.2947C56.5361 18.5392 59.7473 16.3753 63.3195 14.8642C67.0195 13.3003 70.95 12.5059 75 12.5059C79.05 12.5059 82.9806 13.3003 86.6806 14.8642C90.2556 16.3753 93.4639 18.5392 96.2195 21.2947C98.975 24.0503 101.139 27.2614 102.65 30.8336C104.214 34.5336 105.008 38.4642 105.008 42.5142C105.008 46.5642 104.214 50.4948 102.65 54.1948C101.139 57.7698 98.975 60.9781 96.2195 63.7336C93.4639 66.4892 90.2528 68.6531 86.6806 70.1642C82.9806 71.7281 79.05 72.5225 75 72.5225Z" fill="white"/>
<path d="M66.9056 37.3889C67.0667 37.3278 67.2389 37.2528 67.4084 37.175C67.4695 37.1473 67.525 37.1278 67.5889 37.1C67.6639 37.0639 67.7445 37.05 67.825 37.0473C67.8334 37.0473 67.8445 37.0417 67.8528 37.0417C67.8667 37.0417 67.8806 37.05 67.8973 37.05C67.95 37.0528 68.0028 37.0639 68.0556 37.0834C68.0778 37.0917 68.1 37.0973 68.1223 37.1084C68.1917 37.1417 68.2556 37.1834 68.3084 37.2417C68.3084 37.2417 68.3111 37.2417 68.3111 37.2445C68.3223 37.2556 68.7112 37.6528 69.325 37.8639C69.4278 37.9 69.5389 37.9278 69.6528 37.95C69.7667 37.9723 69.8889 37.9862 70.0139 37.9889C70.0278 37.9889 70.0445 37.9889 70.0611 37.9889C70.5973 37.9889 71.1389 37.7917 71.6778 37.4028C71.8584 37.2723 72.0389 37.1223 72.2167 36.9473C72.3445 36.825 72.5223 36.7639 72.6917 36.775C72.7806 36.7806 72.8639 36.8056 72.9417 36.8445C72.9695 36.8584 72.9889 36.8862 73.0167 36.9056C73.0611 36.9389 73.1056 36.9639 73.1417 37.0084C73.1417 37.0084 73.1806 37.0556 73.2389 37.1139C73.2556 37.1306 73.2667 37.1445 73.2889 37.1667C73.3111 37.1889 73.3417 37.2167 73.3667 37.2389C73.3973 37.2667 73.4223 37.2917 73.4556 37.3223C73.4889 37.35 73.5306 37.3806 73.5667 37.4112C73.6028 37.4417 73.6361 37.4695 73.6778 37.5C73.7223 37.5306 73.7723 37.5612 73.8195 37.5945C73.8639 37.6223 73.9028 37.6528 73.95 37.6778C74.0056 37.7084 74.0667 37.7362 74.125 37.7639C74.1723 37.7862 74.2167 37.8112 74.2639 37.8334C74.3334 37.8612 74.4111 37.8806 74.4861 37.9028C74.5306 37.9167 74.5695 37.9334 74.6167 37.9445C74.7389 37.9695 74.8667 37.9862 75 37.9862C76.0556 37.9862 76.85 37.0167 76.8556 37.0084C76.9639 36.8695 77.1278 36.7834 77.3028 36.7723C77.4834 36.7612 77.6528 36.825 77.7778 36.9445C78.4945 37.6362 79.2223 37.9862 79.9334 37.9862C79.95 37.9862 79.9639 37.9862 79.9806 37.9862C80.9861 37.9639 81.6834 37.2445 81.6889 37.2389C81.875 37.0445 82.1695 36.9862 82.4084 37.1C82.6445 37.2112 82.8695 37.3056 83.0889 37.3889C84.7473 38.0195 85.8223 37.8445 86.425 37.6028C84.4445 35.8139 82.2695 32.6139 79.9528 28.0695C79.9389 28.0639 79.925 28.0584 79.9111 28.0528C79.5889 28.2862 79.0639 28.5667 78.3862 28.5862C77.775 28.6167 77.1695 28.4 76.5973 27.9806C76.2334 28.2695 75.6778 28.5862 74.9917 28.5862C74.3056 28.5862 73.75 28.2667 73.3862 27.9806C72.8139 28.4 72.2084 28.6139 71.5973 28.5862C70.9223 28.5667 70.3945 28.2862 70.0723 28.0528C70.0584 28.0584 70.0445 28.0639 70.0306 28.0695C67.7139 32.6139 65.5389 35.8139 63.5584 37.6028C64.1584 37.8445 65.2362 38.0195 66.8945 37.3889H66.9056ZM82.2612 38.3973C81.8389 38.7278 81.0556 39.2056 80.0334 39.2334C80 39.2334 79.9667 39.2334 79.9361 39.2334C79.875 39.2334 79.8139 39.2195 79.7528 39.2167C78.9361 39.1862 78.1417 38.8584 77.3778 38.25C76.8945 38.675 76.0584 39.2334 75 39.2334C73.9417 39.2334 73.1056 38.675 72.6223 38.25C71.7723 38.9278 70.8889 39.2862 69.9667 39.2334C68.9473 39.2056 68.1611 38.7278 67.7389 38.3973C67.6806 38.4223 67.6223 38.4473 67.5667 38.4695C64.9139 43.3945 62.4223 46.8862 60.1445 48.8695C60.9667 49.2862 62.7139 49.7139 65.6389 48.3362C65.8861 48.2223 66.1778 48.2778 66.3639 48.475C66.4417 48.5556 68.3167 50.4862 70.8028 48.75C71.0695 48.5639 71.325 48.3528 71.5806 48.1084C71.6973 47.9973 71.8528 47.9334 72.0139 47.9334C72.0278 47.9334 72.0417 47.9334 72.0584 47.9334C72.2334 47.9445 72.3973 48.0306 72.5056 48.1695C72.5139 48.1806 73.5723 49.4806 75.0028 49.4806C76.4334 49.4806 77.4889 48.1834 77.5 48.1695C77.6111 48.0306 77.7723 47.9445 77.9473 47.9334C78.125 47.925 78.2973 47.9862 78.4223 48.1056C78.6723 48.3473 78.9334 48.5612 79.2 48.7473C81.6834 50.4834 83.5639 48.5556 83.6417 48.4695C83.825 48.275 84.1195 48.2167 84.3639 48.3334C87.2834 49.7084 89.0334 49.2862 89.8556 48.8667C87.5778 46.8862 85.0861 43.3945 82.4361 38.4695C82.3806 38.4473 82.3223 38.4223 82.2639 38.3973H82.2612ZM86.7278 65.0112L74.9973 60.0056L63.2612 65.0112L51.5306 60.0056L50.8278 60.3056C51.1111 60.6917 51.4084 61.0695 51.7111 61.4417L63.2612 66.3695L74.9973 61.3639L86.7278 66.3695L98.2945 61.4362C98.5973 61.0639 98.8917 60.6889 99.175 60.3056L98.4695 60.0056L86.7306 65.0112H86.7278ZM97.0223 55.7889V49.4973C96.5611 49.8834 95.8112 50.3556 94.8723 50.3556C93.9334 50.3556 93.1834 49.8862 92.7223 49.4973V57.6223L86.725 60.1806L78.0417 56.475V49.4417C78.0417 49.4417 78.0278 49.4306 78.0195 49.425C77.4473 49.9528 76.375 50.7306 75 50.7306C73.625 50.7306 72.55 49.9556 71.9806 49.425C71.9723 49.4306 71.9639 49.4362 71.9584 49.4417V56.4695L63.2612 60.1806L57.2778 57.6278V49.5C56.8167 49.8862 56.0667 50.3556 55.1278 50.3556C54.1889 50.3556 53.4389 49.8862 52.9778 49.4973V55.7917L51.5278 55.1723L48.4306 56.4945C48.625 56.8639 48.8306 57.2306 49.0417 57.5917L51.5278 56.5306L63.2584 61.5362L74.9945 56.5306L86.725 61.5362L98.4639 56.5306L100.956 57.5917C101.167 57.2306 101.369 56.8639 101.567 56.4945L98.4639 55.1723L97.0195 55.7889H97.0223ZM88.9639 40.3834C89.1167 40.325 89.275 40.2584 89.4417 40.1806C89.6861 40.0639 89.9806 40.1195 90.1667 40.3223C90.1667 40.3223 90.4723 40.6334 90.9361 40.7556C91.5223 40.9084 92.1306 40.6917 92.7445 40.1C92.8723 39.9778 93.05 39.9167 93.2195 39.9278C93.3084 39.9334 93.3917 39.9584 93.4667 39.9973C93.5028 40.0167 93.5306 40.05 93.5639 40.0778C93.5973 40.1056 93.6362 40.125 93.6639 40.1612C93.6639 40.1612 93.6945 40.1945 93.7389 40.2417C93.7473 40.25 93.75 40.2556 93.7612 40.2639C93.7778 40.2806 93.8 40.3 93.8223 40.3195C93.8389 40.3362 93.8528 40.35 93.8723 40.3667C93.8945 40.3862 93.925 40.4084 93.95 40.4306C93.9723 40.45 93.9917 40.4667 94.0167 40.4834C94.0473 40.5056 94.0806 40.5278 94.1139 40.5473C94.1417 40.5639 94.1639 40.5834 94.1917 40.6C94.2278 40.6223 94.2723 40.6389 94.3111 40.6612C94.3389 40.675 94.3667 40.6917 94.3945 40.7028C94.4417 40.7223 94.4945 40.7362 94.5445 40.75C94.5695 40.7584 94.5945 40.7695 94.6195 40.775C94.6973 40.7917 94.7806 40.8028 94.8639 40.8028C95.5334 40.8028 96.0639 40.1695 96.0695 40.1612C96.1806 40.0223 96.3417 39.9362 96.5167 39.925C96.6973 39.9195 96.8667 39.975 96.9917 40.0973C97.6056 40.6889 98.2139 40.9028 98.8 40.7528C99.2639 40.6306 99.5695 40.3167 99.5723 40.3139C99.7556 40.1195 100.047 40.0639 100.292 40.1778C100.458 40.2556 100.617 40.3223 100.772 40.3806C101.7 40.7334 102.361 40.725 102.786 40.625C101.419 39.3084 99.9389 37.1 98.3667 34.0417C98.3445 34.0556 98.3195 34.0667 98.2945 34.0806C98.2611 34.1 98.2278 34.1195 98.1889 34.1362C98.1445 34.1584 98.0945 34.1778 98.0445 34.2C98.0084 34.2139 97.975 34.2306 97.9389 34.2445C97.8778 34.2667 97.8084 34.2834 97.7417 34.3C97.7084 34.3084 97.6806 34.3167 97.6473 34.325C97.5445 34.3445 97.4334 34.3584 97.3195 34.3612C96.8639 34.3584 96.4389 34.2417 96.0278 33.9667C95.7445 34.1667 95.3473 34.3612 94.8639 34.3612C94.3806 34.3612 93.9806 34.1667 93.7 33.9667C93.2889 34.2417 92.8778 34.3584 92.4084 34.3612C92.2917 34.3584 92.1834 34.3445 92.0806 34.325C92.05 34.3195 92.0195 34.3084 91.9889 34.3028C91.9195 34.2862 91.85 34.2695 91.7861 34.2473C91.7528 34.2362 91.7223 34.2223 91.6917 34.2084C91.6362 34.1862 91.5834 34.1639 91.5334 34.1389C91.5028 34.1223 91.475 34.1084 91.4473 34.0917C91.4195 34.075 91.3889 34.0612 91.3639 34.0445C89.7945 37.1 88.3111 39.3084 86.9445 40.625C87.3723 40.7278 88.0306 40.7362 88.9556 40.3834H88.9639ZM74.9945 64.8362L63.2584 69.8417L59.5889 68.275C61.1667 69.2223 62.8223 70.0167 64.5389 70.6528L74.9917 66.1917L85.4473 70.6528C87.1778 70.0112 88.8445 69.2112 90.4306 68.2556L86.7223 69.8362L74.9917 64.8306L74.9945 64.8362ZM49.0167 48.4334C49.1473 48.5695 50.3584 49.7528 51.9945 48.6084C52.1834 48.4778 52.3611 48.3306 52.5361 48.1612C52.6528 48.05 52.8084 47.9862 52.9695 47.9862C52.9834 47.9862 52.9973 47.9862 53.0111 47.9862C53.1861 47.9973 53.35 48.0834 53.4584 48.2223C53.4639 48.2278 54.1778 49.1028 55.125 49.1028C56.0723 49.1028 56.7861 48.2278 56.7917 48.2195C56.9028 48.0834 57.0639 47.9973 57.2389 47.9862C57.4056 47.975 57.5861 48.0362 57.7111 48.1584C57.8889 48.3306 58.0667 48.4778 58.2528 48.6056C58.3417 48.6667 58.4278 48.7195 58.5139 48.7667C58.5445 48.6223 58.6167 48.4889 58.7361 48.3973C59.8389 47.5639 61.0139 46.3028 62.2417 44.6556C61.6334 43.7084 61.0111 42.6556 60.3778 41.4806C60.3417 41.5056 60.2973 41.5334 60.2556 41.5584C60.2 41.5945 60.15 41.6306 60.0889 41.6667C60.0417 41.6945 59.9834 41.7167 59.9306 41.7445C59.8611 41.7806 59.7945 41.8167 59.7167 41.8473C59.6473 41.875 59.5639 41.8945 59.4889 41.9195C59.4167 41.9417 59.35 41.9695 59.2723 41.9862C59.1139 42.0223 58.9417 42.0445 58.7611 42.05C58.0945 42.075 57.4556 41.8445 56.8417 41.3889C56.4584 41.6973 55.8611 42.05 55.1195 42.05C54.3778 42.05 53.7806 41.6973 53.4 41.3889C52.7861 41.8445 52.1361 42.075 51.4806 42.05C51.3 42.0445 51.1278 42.0223 50.9695 41.9862C50.9306 41.9778 50.8973 41.9612 50.8584 41.9528C50.7417 41.9223 50.625 41.8889 50.5223 41.8473C50.4723 41.8278 50.4306 41.8028 50.3834 41.7806C50.3028 41.7445 50.2195 41.7084 50.15 41.6667C50.0945 41.6362 50.0528 41.6056 50.0056 41.575C49.9584 41.5445 49.9056 41.5139 49.8639 41.4834C48.325 44.3334 46.8556 46.5112 45.4806 48C45.5389 48.3195 45.6028 48.6362 45.6695 48.95C46.3139 48.9667 47.175 48.8167 48.2834 48.2917C48.5278 48.1778 48.8223 48.2334 49.0084 48.4306L49.0167 48.4334ZM100.128 41.4862C100.092 41.5112 100.047 41.5389 100.006 41.5639C99.95 41.6 99.9 41.6362 99.8389 41.6723C99.7917 41.7 99.7334 41.7223 99.6806 41.75C99.6112 41.7862 99.5445 41.8223 99.4667 41.8528C99.3973 41.8806 99.3139 41.9 99.2389 41.925C99.1667 41.9473 99.1 41.975 99.0223 41.9917C98.8639 42.0278 98.6917 42.05 98.5112 42.0556C97.8584 42.0806 97.2056 41.85 96.5917 41.3945C96.2084 41.7028 95.6111 42.0556 94.8695 42.0556C94.1278 42.0556 93.5306 41.7028 93.1473 41.3945C92.5334 41.85 91.8778 42.0806 91.2278 42.0556C91.0473 42.05 90.875 42.0278 90.7167 41.9917C90.6445 41.975 90.5861 41.95 90.5195 41.9306C90.4361 41.9056 90.35 41.8834 90.2723 41.8528C90.2056 41.825 90.1473 41.7945 90.0861 41.7639C90.0223 41.7334 89.9556 41.7056 89.9 41.6723C89.8417 41.6389 89.7973 41.6084 89.7473 41.575C89.7028 41.5473 89.6528 41.5167 89.6139 41.4889C88.9806 42.6639 88.3584 43.7167 87.75 44.6639C88.9806 46.3112 90.1528 47.5695 91.2556 48.4056C91.375 48.4945 91.4473 48.6306 91.4778 48.775C91.5639 48.7278 91.65 48.675 91.7361 48.6139C91.925 48.4834 92.1028 48.3362 92.2778 48.1667C92.3945 48.0556 92.55 47.9917 92.7112 47.9917C92.725 47.9917 92.7389 47.9917 92.7528 47.9917C92.9278 48.0028 93.0917 48.0889 93.2 48.2278C93.2056 48.2334 93.9195 49.1084 94.8667 49.1084C95.8139 49.1084 96.525 48.2362 96.5334 48.2278C96.6445 48.0889 96.8056 48.0028 96.9806 47.9917C97.1612 47.9862 97.3306 48.0417 97.4556 48.1639C97.6334 48.3362 97.8112 48.4834 97.9973 48.6112C99.6862 49.7889 100.925 48.4945 100.978 48.4362C101.164 48.2362 101.456 48.1806 101.703 48.2973C102.811 48.8195 103.672 48.9695 104.317 48.9556C104.386 48.6417 104.447 48.3223 104.506 48.0056C103.131 46.5167 101.664 44.3417 100.122 41.4889L100.128 41.4862ZM49.2195 40.3834C49.3723 40.325 49.5334 40.2584 49.7 40.1806C49.9445 40.0639 50.2389 40.1195 50.425 40.3223C50.425 40.3223 50.7306 40.6334 51.1945 40.7556C51.7806 40.9084 52.3917 40.6917 53.0028 40.1C53.0639 40.0389 53.1389 39.9973 53.2195 39.9667C53.2361 39.9612 53.2556 39.9612 53.2723 39.9556C53.3278 39.9417 53.3806 39.9223 53.4389 39.9223C53.4528 39.9223 53.4667 39.9223 53.4806 39.9223C53.6584 39.9334 53.8195 40.0195 53.9278 40.1584C53.9278 40.1612 54.4528 40.8 55.1306 40.8C55.8084 40.8 56.3306 40.1667 56.3361 40.1584C56.4473 40.0195 56.6084 39.9334 56.7834 39.9223C56.9611 39.9167 57.1334 39.9723 57.2584 40.0945C57.8723 40.6862 58.4806 40.9 59.0667 40.75C59.5306 40.6278 59.8361 40.3139 59.8389 40.3112C60.025 40.1167 60.3139 40.0612 60.5584 40.175C60.725 40.2528 60.8834 40.3195 61.0389 40.3778C61.9695 40.7306 62.625 40.7195 63.0528 40.6195C61.6861 39.3028 60.2056 37.0945 58.6334 34.0362C58.6139 34.0473 58.5917 34.0584 58.5723 34.0695C58.5334 34.0917 58.4973 34.1112 58.4556 34.1334C58.4139 34.1556 58.3667 34.1723 58.3195 34.1945C58.2806 34.2112 58.2473 34.225 58.2056 34.2417C58.1445 34.2639 58.0806 34.2778 58.0139 34.2945C57.9806 34.3028 57.95 34.3139 57.9139 34.3195C57.8111 34.3389 57.7028 34.3528 57.5861 34.3556C57.1334 34.3528 56.7056 34.2362 56.2945 33.9612C56.0111 34.1612 55.6139 34.3556 55.1306 34.3556C54.6473 34.3556 54.2473 34.1612 53.9667 33.9612C53.5556 34.2362 53.1473 34.3528 52.675 34.3556C52.5584 34.3528 52.45 34.3389 52.3473 34.3195C52.3139 34.3139 52.2861 34.3028 52.2556 34.2945C52.1861 34.2778 52.1195 34.2612 52.0556 34.2389C52.0195 34.225 51.9889 34.2112 51.9528 34.1973C51.9 34.175 51.85 34.1556 51.8028 34.1306C51.7667 34.1112 51.7334 34.0945 51.7 34.075C51.675 34.0612 51.65 34.05 51.6278 34.0362C50.0584 37.0917 48.575 39.3 47.2084 40.6167C47.6361 40.7167 48.2945 40.7278 49.2223 40.375L49.2195 40.3834ZM69.3834 26.9806C69.5528 26.9195 69.7334 26.8473 69.9223 26.7584C70.1695 26.6417 70.4611 26.6973 70.6473 26.8973C70.8139 27.0723 71.7362 27.8973 72.9889 26.6917C73.1167 26.5695 73.2861 26.5084 73.4639 26.5195C73.5528 26.525 73.6361 26.55 73.7111 26.5889C73.7556 26.6112 73.7917 26.6528 73.8278 26.6862C73.8528 26.7084 73.8862 26.725 73.9084 26.7528C73.9084 26.7528 73.9167 26.7639 73.9306 26.7778C73.9306 26.7806 73.9389 26.7862 73.9417 26.7889C73.9917 26.8445 74.0917 26.9445 74.2306 27.0473C74.2306 27.0473 74.2334 27.0473 74.2361 27.0473C74.2834 27.0834 74.3361 27.1167 74.3917 27.15C74.4056 27.1584 74.4195 27.1639 74.4334 27.1723C74.4778 27.1973 74.525 27.2223 74.575 27.2417C74.6056 27.2528 74.6361 27.2612 74.6667 27.2723C74.7028 27.2834 74.7389 27.3 74.7778 27.3084C74.85 27.325 74.9223 27.3334 74.9973 27.3334C75.6084 27.3334 76.0862 26.7528 76.0889 26.7473C76.2 26.6112 76.3639 26.5278 76.5361 26.5167C76.7056 26.5056 76.8834 26.5667 77.0111 26.6889C77.4667 27.1278 77.9278 27.3334 78.3556 27.3334C78.9361 27.3167 79.3473 26.9 79.35 26.8973C79.5362 26.6973 79.8278 26.6389 80.075 26.7584C80.2639 26.8473 80.4445 26.9195 80.6139 26.9834C81.3639 27.2528 81.9167 27.2584 82.2889 27.1862C79.2056 24.1528 76.2278 17.0195 74.9945 13.8223C73.7612 17.0195 70.7806 24.1556 67.7 27.1862C68.0723 27.2556 68.625 27.25 69.3778 26.9834L69.3834 26.9806ZM90.7556 32.8667C90.875 32.825 91 32.7723 91.1306 32.7112C91.2084 32.675 91.2889 32.6612 91.3695 32.6584C91.3778 32.6584 91.3889 32.6528 91.3973 32.6528C91.4111 32.6528 91.425 32.6612 91.4389 32.6612C91.4945 32.6639 91.5473 32.675 91.6 32.6945C91.6223 32.7028 91.6417 32.7084 91.6639 32.7167C91.7334 32.75 91.8 32.7917 91.8556 32.8528C92.0389 33.0389 92.5611 33.4084 93.2973 32.6973C93.425 32.575 93.5945 32.5167 93.7723 32.525C93.8611 32.5306 93.9445 32.5556 94.0223 32.5945C94.0334 32.6 94.0389 32.6112 94.0473 32.6167C94.1112 32.6556 94.1723 32.6973 94.2195 32.7584C94.225 32.7639 94.3028 32.8528 94.4195 32.9417C94.4361 32.9528 94.4556 32.9612 94.4723 32.9723C94.5195 33.0028 94.5667 33.0362 94.625 33.0612C94.7028 33.0945 94.7862 33.1167 94.8723 33.1167C95.2223 33.1167 95.5195 32.7667 95.5223 32.7639C95.6334 32.625 95.7945 32.5389 95.9695 32.5278C96.1473 32.5223 96.3195 32.5778 96.4445 32.7C96.7362 32.9834 96.9861 33.1112 97.2889 33.1167C97.6334 33.1056 97.8834 32.8584 97.8862 32.8584C98.0723 32.6584 98.3639 32.6028 98.6111 32.7167C98.7417 32.7778 98.8667 32.8306 98.9834 32.8723C99.2917 32.9834 99.55 33.0278 99.7556 33.0362C97.725 30.8278 95.8028 26.3806 94.8695 24.0084C93.9334 26.3806 92.0139 30.8278 89.9834 33.0362C90.1889 33.0278 90.4445 32.9834 90.7528 32.8723L90.7556 32.8667ZM51.3861 32.7112C51.4639 32.675 51.5445 32.6612 51.625 32.6584C51.6361 32.6584 51.6445 32.6528 51.6528 32.6528C51.6667 32.6528 51.6806 32.6612 51.6945 32.6612C51.75 32.6639 51.8028 32.675 51.8556 32.6945C51.8778 32.7028 51.8973 32.7084 51.9195 32.7167C51.9889 32.75 52.0556 32.7917 52.1111 32.8528C52.2945 33.0389 52.8167 33.4084 53.5528 32.6973C53.6806 32.575 53.8584 32.5167 54.0278 32.525C54.2056 32.5362 54.3667 32.6223 54.475 32.7612C54.475 32.7612 54.775 33.1139 55.125 33.1139C55.475 33.1139 55.7723 32.7639 55.775 32.7612C55.8861 32.6223 56.0473 32.5362 56.2223 32.525C56.3973 32.5195 56.5723 32.575 56.6973 32.6973C57.4361 33.4112 57.9584 33.0417 58.1445 32.8473C58.3306 32.6584 58.625 32.6 58.8639 32.7139C58.9945 32.775 59.1195 32.825 59.2361 32.8695C59.5445 32.9806 59.8 33.025 60.0084 33.0334C57.9778 30.825 56.0584 26.3778 55.1223 24.0056C54.1861 26.3778 52.2667 30.825 50.2361 33.0334C50.4417 33.025 50.7 32.9806 51.0084 32.8695C51.1278 32.8278 51.2528 32.775 51.3834 32.7139L51.3861 32.7112Z" fill="#00704A"/>
<path d="M36.3445 82.4943V84.0304H39.2528V85.0665H36.3445V87.4998H35.3083V81.4609H39.7611V82.497H36.3445V82.4943Z" fill="white"/>
<path d="M41.9583 87.5001C41.5833 87.5001 41.2417 87.4224 40.9278 87.264C40.6139 87.1057 40.3444 86.889 40.1222 86.6168C39.8972 86.3446 39.7222 86.0223 39.5972 85.6557C39.4694 85.2862 39.4083 84.8974 39.4083 84.4835C39.4083 84.0696 39.4722 83.6779 39.5972 83.3112C39.725 82.9418 39.9 82.6224 40.1222 82.3501C40.3472 82.0779 40.6167 81.8612 40.9278 81.7029C41.2417 81.5446 41.5861 81.4668 41.9583 81.4668C42.3305 81.4668 42.675 81.5446 42.9889 81.7029C43.3028 81.8612 43.5722 82.0779 43.7944 82.3501C44.0194 82.6224 44.1944 82.9446 44.3194 83.3112C44.4472 83.6807 44.5083 84.0696 44.5083 84.4835C44.5083 84.8974 44.4444 85.289 44.3194 85.6557C44.1917 86.0251 44.0167 86.3446 43.7944 86.6168C43.5694 86.889 43.3 87.1057 42.9889 87.264C42.675 87.4224 42.3305 87.5001 41.9583 87.5001ZM41.9583 82.4946C41.8444 82.4946 41.7 82.5196 41.5278 82.5724C41.3555 82.6251 41.1889 82.7224 41.0278 82.8668C40.8667 83.0112 40.7278 83.2112 40.6139 83.4696C40.5 83.7279 40.4417 84.064 40.4417 84.4779C40.4417 84.8918 40.5 85.2279 40.6139 85.4862C40.7278 85.7446 40.8667 85.9474 41.0278 86.089C41.1889 86.2335 41.3555 86.3307 41.5278 86.3835C41.7 86.4362 41.8444 86.4612 41.9583 86.4612C42.0722 86.4612 42.2167 86.4362 42.3889 86.3835C42.5611 86.3307 42.7278 86.2335 42.8889 86.089C43.05 85.9446 43.1889 85.7446 43.3028 85.4862C43.4167 85.2279 43.475 84.8918 43.475 84.4779C43.475 84.064 43.4167 83.7279 43.3028 83.4696C43.1889 83.2112 43.05 83.0085 42.8889 82.8668C42.7278 82.7224 42.5611 82.6251 42.3889 82.5724C42.2167 82.5196 42.0722 82.4946 41.9583 82.4946Z" fill="white"/>
<path d="M48.8583 87.4998L47.8722 85.7304C47.775 85.7415 47.675 85.7526 47.5778 85.7609C47.4806 85.7693 47.3778 85.7748 47.275 85.7748H46.2972V87.4998H45.2611V81.4609H47.275C48.0306 81.4609 48.6167 81.647 49.0333 82.0165C49.45 82.3887 49.6611 82.9276 49.6611 83.6332C49.6611 84.0637 49.5861 84.4276 49.4361 84.7193C49.2861 85.0137 49.0694 85.247 48.7861 85.4193L49.9444 87.4998H48.8556H48.8583ZM47.2722 84.7387C47.4167 84.7387 47.5667 84.722 47.725 84.6859C47.8833 84.6526 48.0306 84.5915 48.1639 84.5082C48.3 84.4248 48.4111 84.3137 48.4972 84.172C48.5833 84.0304 48.6278 83.8526 48.6278 83.6332C48.6278 83.4137 48.5833 83.2332 48.4972 83.0859C48.4111 82.9387 48.3 82.822 48.1639 82.7359C48.0278 82.6498 47.8833 82.5887 47.725 82.5498C47.5667 82.5137 47.4167 82.4943 47.2722 82.4943H46.2972V84.7387H47.2722Z" fill="white"/>
<path d="M51.3944 82.4943V84.0304H54.3027V85.0665H51.3944V86.4637H54.8111V87.4998H50.3583V81.4609H54.8111V82.497H51.3944V82.4943Z" fill="white"/>
<path d="M56.2417 85.7552C56.2695 86.0247 56.3722 86.2108 56.5472 86.3108C56.7222 86.4108 56.9306 86.4608 57.1722 86.4608C57.3806 86.4608 57.5472 86.4358 57.6722 86.3886C57.8 86.3386 57.8972 86.2775 57.9695 86.1997C58.0417 86.1219 58.0889 86.033 58.1167 85.933C58.1417 85.833 58.1556 85.733 58.1556 85.6358C58.1556 85.4219 58.0889 85.2552 57.9528 85.1358C57.8167 85.0163 57.65 84.9136 57.4528 84.833C57.2556 84.7525 57.0361 84.6774 56.8 84.6052C56.5639 84.533 56.3472 84.4413 56.1472 84.3247C55.95 84.2108 55.7806 84.058 55.6472 83.8719C55.5111 83.6858 55.4445 83.433 55.4445 83.1163C55.4445 82.8219 55.5 82.5719 55.6139 82.3608C55.725 82.1497 55.8667 81.9802 56.0361 81.8469C56.2056 81.7136 56.3917 81.6163 56.5917 81.5525C56.7917 81.4886 56.9861 81.458 57.1695 81.458C57.325 81.458 57.4917 81.4775 57.675 81.5191C57.8556 81.558 58.0278 81.6247 58.1917 81.7163C58.3556 81.808 58.4972 81.933 58.6195 82.0913C58.7389 82.2497 58.8222 82.4441 58.8695 82.6747L58.0056 82.9497C57.9722 82.8413 57.9195 82.7552 57.85 82.6913C57.7806 82.6275 57.7056 82.583 57.625 82.5525C57.5445 82.5247 57.4611 82.5052 57.3778 82.4997C57.2945 82.4941 57.225 82.4913 57.1667 82.4913C57.0972 82.4913 57.0222 82.5024 56.9417 82.5219C56.8611 82.5413 56.7861 82.5775 56.7167 82.6247C56.6472 82.6747 56.5889 82.7358 56.5445 82.8136C56.4972 82.8913 56.475 82.9858 56.475 83.0941C56.475 83.2608 56.5417 83.3913 56.6778 83.483C56.8139 83.5747 56.9806 83.6552 57.1778 83.7247C57.375 83.7941 57.5945 83.8663 57.8306 83.9413C58.0667 84.0163 58.2833 84.1163 58.4833 84.2441C58.6806 84.3719 58.8472 84.5413 58.9833 84.7524C59.1195 84.9636 59.1861 85.2441 59.1861 85.5886C59.1861 85.8469 59.1417 86.0941 59.0556 86.3275C58.9695 86.5608 58.8389 86.7636 58.6667 86.9413C58.4945 87.1163 58.2833 87.2552 58.0333 87.3552C57.7833 87.4552 57.4945 87.5024 57.1667 87.4969C56.9083 87.4969 56.6695 87.4608 56.4556 87.3858C56.2417 87.3108 56.0528 87.208 55.8945 87.0802C55.7361 86.9497 55.6083 86.7969 55.5111 86.6191C55.4139 86.4413 55.3528 86.2441 55.3306 86.033L56.2361 85.758L56.2417 85.7552Z" fill="white"/>
<path d="M64.45 82.4941H62.3972V87.4997H61.3611V82.4941H59.2722V81.458H64.45V82.4941Z" fill="white"/>
<path d="M74.1056 81.4609V87.4998H73.0695L73.0861 83.6859L71.3084 87.4998H70.6861L68.925 83.8165V87.4998H67.8889V81.4609H68.925L70.9945 85.6554L73.0667 81.4609H74.1028H74.1056Z" fill="white"/>
<path d="M78.6694 86.0943H76.1833L75.6472 87.4998H74.6111L76.9055 81.4609H77.9416L80.2361 87.4998H79.2L78.6639 86.0943H78.6694ZM78.2805 85.0582L77.4277 82.8248L76.5833 85.0582H78.2833H78.2805Z" fill="white"/>
<path d="M84.9972 84.4974V87.5001H83.9528V87.0779C83.7639 87.2112 83.5555 87.314 83.3305 87.389C83.1055 87.464 82.8639 87.5001 82.6055 87.5001C82.2305 87.5001 81.8889 87.4224 81.575 87.264C81.2611 87.1057 80.9916 86.889 80.7694 86.6168C80.5444 86.3446 80.3694 86.0223 80.2444 85.6557C80.1167 85.2862 80.0555 84.8974 80.0555 84.4835C80.0555 84.0696 80.1194 83.6779 80.2444 83.3112C80.3722 82.9418 80.5472 82.6224 80.7694 82.3501C80.9944 82.0779 81.2639 81.8612 81.575 81.7029C81.8889 81.5446 82.2333 81.4668 82.6055 81.4668C82.9 81.4668 83.175 81.5196 83.4333 81.6224C83.6916 81.7251 83.925 81.8668 84.1361 82.0446C84.3472 82.2223 84.525 82.4307 84.6722 82.6696C84.8194 82.9085 84.9278 83.164 84.9972 83.4335H83.9611C83.8055 83.089 83.6139 82.8474 83.3861 82.7085C83.1583 82.5696 82.9 82.5001 82.6055 82.5001C82.4917 82.5001 82.3472 82.5251 82.175 82.5779C82.0028 82.6307 81.8361 82.7279 81.675 82.8724C81.5139 83.0168 81.375 83.2168 81.2611 83.4751C81.1472 83.7335 81.0889 84.0696 81.0889 84.4835C81.0889 84.8974 81.1472 85.2335 81.2611 85.4918C81.375 85.7501 81.5139 85.9529 81.675 86.0946C81.8361 86.239 82.0028 86.3362 82.175 86.389C82.3472 86.4418 82.4917 86.4668 82.6055 86.4668C82.9 86.4668 83.1611 86.3946 83.3916 86.2501C83.6222 86.1057 83.8083 85.8668 83.9528 85.5335H82.8222L82.8305 84.4974H84.9972Z" fill="white"/>
<path d="M86.9055 81.4609V87.4998H85.8694V81.4609H86.9055Z" fill="white"/>
<path d="M92.4 85.5336C92.3306 85.8086 92.2223 86.0669 92.075 86.3058C91.9278 86.5447 91.75 86.7531 91.5445 86.9281C91.3361 87.1031 91.1028 87.242 90.8417 87.3475C90.5806 87.4531 90.3028 87.5031 90.0084 87.5031C89.6334 87.5031 89.2917 87.4253 88.9778 87.2669C88.6639 87.1086 88.3945 86.8919 88.1723 86.6197C87.9473 86.3475 87.7723 86.0253 87.6473 85.6586C87.5195 85.2892 87.4584 84.9003 87.4584 84.4864C87.4584 84.0725 87.5223 83.6808 87.6473 83.3142C87.775 82.9447 87.95 82.6253 88.1723 82.3531C88.3973 82.0808 88.6667 81.8642 88.9778 81.7058C89.2917 81.5475 89.6361 81.4697 90.0084 81.4697C90.3028 81.4697 90.5778 81.5225 90.8362 81.6253C91.0945 81.7281 91.3278 81.8697 91.5389 82.0475C91.75 82.2253 91.9278 82.4336 92.075 82.6725C92.2223 82.9114 92.3306 83.1669 92.4 83.4364H91.3389C91.1723 83.0864 90.9667 82.8419 90.7223 82.7086C90.4778 82.5725 90.2389 82.5058 90.0112 82.5058C89.8973 82.5058 89.7528 82.5308 89.5806 82.5836C89.4084 82.6364 89.2417 82.7336 89.0806 82.8781C88.9195 83.0225 88.7806 83.2225 88.6667 83.4808C88.5528 83.7392 88.4945 84.0753 88.4945 84.4892C88.4945 84.9031 88.5528 85.2392 88.6667 85.4975C88.7806 85.7558 88.9195 85.9586 89.0806 86.1003C89.2417 86.2447 89.4084 86.3419 89.5806 86.3947C89.7528 86.4475 89.8973 86.4725 90.0112 86.4725C90.125 86.4725 90.2445 86.4558 90.3695 86.4253C90.4945 86.3947 90.6139 86.3419 90.7306 86.2697C90.8473 86.1975 90.9584 86.1003 91.0639 85.9808C91.1667 85.8614 91.2556 85.7142 91.3306 85.542H92.4V85.5336Z" fill="white"/>
<path d="M99.9138 85.5336C99.8444 85.8086 99.7361 86.0669 99.5888 86.3058C99.4416 86.5447 99.2638 86.7531 99.0583 86.9281C98.8499 87.1031 98.6166 87.242 98.3555 87.3475C98.0944 87.4531 97.8166 87.5031 97.5222 87.5031C97.1472 87.5031 96.8055 87.4253 96.4916 87.2669C96.1777 87.1086 95.9083 86.8919 95.6861 86.6197C95.4611 86.3475 95.2861 86.0253 95.1611 85.6586C95.0333 85.2892 94.9722 84.9003 94.9722 84.4864C94.9722 84.0725 95.0361 83.6808 95.1611 83.3142C95.2888 82.9447 95.4638 82.6253 95.6861 82.3531C95.9111 82.0808 96.1805 81.8642 96.4916 81.7058C96.8055 81.5475 97.1499 81.4697 97.5222 81.4697C97.8166 81.4697 98.0916 81.5225 98.3499 81.6253C98.6083 81.7281 98.8416 81.8697 99.0527 82.0475C99.2638 82.2253 99.4416 82.4336 99.5888 82.6725C99.7361 82.9114 99.8444 83.1669 99.9138 83.4364H98.8527C98.6861 83.0864 98.4805 82.8419 98.2361 82.7086C97.9916 82.5725 97.7527 82.5058 97.5249 82.5058C97.4111 82.5058 97.2666 82.5308 97.0944 82.5836C96.9222 82.6364 96.7555 82.7336 96.5944 82.8781C96.4333 83.0225 96.2944 83.2225 96.1805 83.4808C96.0666 83.7392 96.0083 84.0753 96.0083 84.4892C96.0083 84.9031 96.0666 85.2392 96.1805 85.4975C96.2944 85.7558 96.4333 85.9586 96.5944 86.1003C96.7555 86.2447 96.9222 86.3419 97.0944 86.3947C97.2666 86.4475 97.4111 86.4725 97.5249 86.4725C97.6388 86.4725 97.7583 86.4558 97.8833 86.4253C98.0083 86.3947 98.1277 86.3419 98.2444 86.2697C98.3611 86.1975 98.4722 86.1003 98.5777 85.9808C98.6805 85.8614 98.7694 85.7142 98.8444 85.542H99.9138V85.5336Z" fill="white"/>
<path d="M104.664 81.4615V85.317C104.664 85.6337 104.608 85.9253 104.494 86.192C104.383 86.4587 104.231 86.6892 104.036 86.8809C103.844 87.0726 103.614 87.2253 103.35 87.3337C103.086 87.442 102.797 87.4976 102.486 87.4976C102.192 87.4976 101.917 87.442 101.658 87.3281C101.4 87.217 101.175 87.0642 100.986 86.8698C100.797 86.6781 100.644 86.4476 100.533 86.1781C100.422 85.9115 100.364 85.6226 100.364 85.3115V81.4559H101.4V85.3115C101.4 85.4448 101.422 85.5781 101.469 85.7115C101.517 85.8448 101.583 85.9698 101.672 86.0837C101.761 86.1948 101.872 86.2865 102.008 86.3559C102.144 86.4253 102.303 86.4587 102.486 86.4587C102.658 86.4587 102.814 86.4281 102.956 86.367C103.097 86.3059 103.217 86.2253 103.314 86.1198C103.411 86.017 103.489 85.8948 103.542 85.7587C103.597 85.6198 103.625 85.4698 103.625 85.3087L103.633 81.4531H104.661L104.664 81.4615Z" fill="white"/>
<path d="M108.814 84.1162C109.114 84.2884 109.342 84.5273 109.494 84.8273C109.647 85.1273 109.728 85.4523 109.728 85.7967C109.728 86.0329 109.694 86.2551 109.625 86.4606C109.555 86.669 109.444 86.8468 109.292 86.9995C109.139 87.1523 108.944 87.2717 108.706 87.3606C108.467 87.4495 108.175 87.494 107.831 87.494H105.483V81.4551H107.261C107.853 81.4551 108.311 81.5995 108.636 81.8856C108.961 82.1745 109.122 82.5551 109.122 83.0329C109.122 83.2106 109.097 83.394 109.05 83.5801C109 83.7662 108.922 83.944 108.814 84.1106V84.1162ZM106.519 83.8745H107.261C107.556 83.8745 107.767 83.8079 107.894 83.6773C108.025 83.544 108.089 83.3801 108.089 83.1856C108.089 82.9495 108.006 82.7745 107.842 82.6634C107.678 82.5523 107.483 82.494 107.258 82.494H106.517V83.8745H106.519ZM107.831 86.4634C107.922 86.4634 108.019 86.4467 108.125 86.4162C108.231 86.3856 108.322 86.3384 108.406 86.2745C108.489 86.2106 108.558 86.1301 108.614 86.0329C108.669 85.9356 108.697 85.819 108.697 85.6884C108.697 85.6134 108.68 85.5301 108.644 85.4384C108.611 85.3467 108.555 85.2606 108.486 85.1829C108.414 85.1051 108.322 85.0412 108.214 84.9884C108.106 84.9356 107.978 84.9106 107.833 84.9106H106.522V86.4634H107.833H107.831Z" fill="white"/>
<path d="M111.272 82.4943V84.0304H114.181V85.0665H111.272V86.4637H114.689V87.4998H110.236V81.4609H114.689V82.497H111.272V82.4943Z" fill="white"/>
</g>
<defs>
<clipPath id="clip0_2760_91961">
<rect width="150" height="100" fill="white"/>
</clipPath>
</defs>
</svg>
