<svg width="140" height="140" viewBox="0 0 140 140" fill="none" xmlns="http://www.w3.org/2000/svg">
<g clip-path="url(#clip0_2890_194089)">
<circle cx="70" cy="70" r="70" fill="#00704A"/>
<circle cx="69.9983" cy="69.9984" r="44.2094" fill="white"/>
<path d="M58.0764 62.4543C58.3155 62.3633 58.5651 62.2515 58.8172 62.1398C58.9082 62.1008 58.9888 62.0696 59.0824 62.028C59.1941 61.976 59.3111 61.9552 59.4281 61.95C59.4411 61.95 59.4567 61.9396 59.4697 61.9396C59.4931 61.9396 59.5113 61.9526 59.5347 61.9526C59.6153 61.9578 59.6906 61.9734 59.766 61.9994C59.7998 62.0098 59.831 62.0202 59.8648 62.0358C59.9662 62.0852 60.0598 62.145 60.1403 62.2307H60.1429L60.1481 62.2359C60.1637 62.2515 60.7382 62.839 61.6428 63.1457C61.7962 63.1977 61.9573 63.2419 62.1263 63.2731C62.2953 63.3043 62.4746 63.3251 62.6592 63.3277C62.6826 63.3277 62.7034 63.3277 62.7268 63.3277C63.5144 63.3277 64.3124 63.0366 65.1078 62.4621C65.373 62.2697 65.6381 62.0462 65.9033 61.7914C66.0904 61.6121 66.3504 61.5185 66.6051 61.5367C66.7351 61.5445 66.8599 61.5809 66.9716 61.6407C67.0132 61.6615 67.0418 61.7031 67.0808 61.7317C67.1432 61.7784 67.2134 61.82 67.2628 61.8824C67.2628 61.8824 67.3226 61.95 67.4057 62.0384C67.4291 62.0644 67.4473 62.0852 67.4785 62.1138C67.5097 62.145 67.5565 62.1866 67.5929 62.2203C67.6371 62.2619 67.6735 62.2983 67.7255 62.3425C67.7749 62.3841 67.8346 62.4309 67.8892 62.4751C67.9438 62.5193 67.9932 62.5635 68.0556 62.6077C68.1206 62.6544 68.1934 62.6986 68.2661 62.7454C68.3311 62.787 68.3883 62.8312 68.4559 62.8702C68.5365 62.917 68.6275 62.956 68.7132 62.9976C68.7834 63.0314 68.8458 63.0704 68.9186 63.099C69.0226 63.1405 69.1344 63.1691 69.2435 63.2003C69.3085 63.2185 69.3683 63.2445 69.4359 63.2601C69.6152 63.2991 69.805 63.3225 70 63.3225C71.5544 63.3225 72.7242 61.8954 72.7346 61.8798C72.8957 61.6771 73.1349 61.5497 73.3948 61.5315C73.66 61.5159 73.9095 61.6069 74.0967 61.7862C75.1546 62.8052 76.223 63.3199 77.2732 63.3199C77.2966 63.3199 77.32 63.3199 77.3434 63.3199C78.825 63.2887 79.8518 62.2281 79.8622 62.2177C80.1377 61.9292 80.5692 61.846 80.9254 62.015C81.2737 62.1788 81.6064 62.3191 81.9261 62.4413C84.3696 63.3693 85.9553 63.1145 86.8417 62.7558C83.9225 60.12 80.72 55.4046 77.307 48.7111C77.2862 48.7033 77.2654 48.6955 77.2446 48.6877C76.7689 49.0308 75.9942 49.4442 74.9987 49.4727C74.0993 49.5169 73.2051 49.1998 72.3655 48.5811C71.83 49.0049 71.0111 49.4727 70 49.4727C68.9888 49.4727 68.17 49.0049 67.6345 48.5811C66.7923 49.1972 65.9007 49.5143 65.0013 49.4727C64.0057 49.4442 63.2311 49.0308 62.7554 48.6877C62.7346 48.6955 62.7138 48.7033 62.693 48.7137C59.2773 55.4072 56.0774 60.12 53.1583 62.7584C54.0395 63.1145 55.6277 63.3719 58.0712 62.4439L58.0764 62.4543ZM80.6966 63.9438C80.0754 64.4299 78.9212 65.1317 77.4161 65.1759C77.3693 65.1759 77.32 65.1759 77.2706 65.1759C77.1796 65.1759 77.0912 65.1551 77.0002 65.1499C75.7967 65.1057 74.6269 64.6196 73.504 63.7254C72.7918 64.3519 71.5596 65.1733 70.0026 65.1733C68.4455 65.1733 67.2134 64.3519 66.4985 63.7254C65.2456 64.7236 63.9459 65.2539 62.589 65.1733C61.0865 65.1317 59.9298 64.4273 59.3085 63.9438C59.2227 63.9802 59.137 64.0165 59.0538 64.0477C55.1468 71.3053 51.4764 76.447 48.1206 79.3662C49.3319 79.9796 51.9054 80.6087 56.2126 78.5811C56.5765 78.4122 57.0054 78.4928 57.2784 78.7865C57.3901 78.9061 60.1559 81.7499 63.8185 79.1894C64.2136 78.9139 64.588 78.6045 64.9649 78.2432C65.1364 78.0769 65.3652 77.9859 65.6017 77.9859C65.6225 77.9859 65.6433 77.9859 65.6641 77.9859C65.9241 78.0041 66.1606 78.1288 66.3244 78.3342C66.3374 78.3498 67.8944 80.263 70.0026 80.263C72.1107 80.263 73.6652 78.3524 73.6808 78.3342C73.8419 78.1314 74.0811 78.0041 74.341 77.9859C74.6035 77.9729 74.8557 78.0613 75.0429 78.2406C75.412 78.5941 75.7941 78.9139 76.1866 79.1868C79.8466 81.7447 82.615 78.9035 82.7294 78.7787C83.0023 78.4928 83.4312 78.407 83.7925 78.5759C88.0946 80.6035 90.6706 79.977 91.882 79.361C88.5261 76.4418 84.8557 71.2975 80.9514 64.0425C80.8682 64.0088 80.7824 63.975 80.6966 63.936V63.9438ZM87.2758 103.148L69.9922 95.7738L52.7034 103.148L35.4198 95.7738L34.3852 96.2157C34.8037 96.7823 35.2378 97.3412 35.6875 97.8897L52.7034 105.15L69.9922 97.7753L87.2758 105.15L104.315 97.8819C104.762 97.336 105.194 96.7797 105.61 96.2157L104.57 95.7712L87.2758 103.146V103.148ZM102.441 89.5611V80.2916C101.762 80.8608 100.655 81.5549 99.2747 81.5549C97.8944 81.5549 96.7871 80.8608 96.1086 80.2916V92.2593L87.2732 96.0259L74.4814 90.5671V80.2084C74.4814 80.2084 74.4606 80.1928 74.4502 80.185C73.608 80.9648 72.0275 82.1086 70 82.1086C67.9724 82.1086 66.392 80.9648 65.5498 80.185C65.5394 80.1928 65.5264 80.2006 65.516 80.211V90.5645L52.7034 96.0311L43.8887 92.2697V80.2968C43.2103 80.866 42.1055 81.5601 40.7226 81.5601C39.3397 81.5601 38.235 80.866 37.5565 80.2968V89.5715L35.4198 88.6591L30.8578 90.6061C31.1463 91.152 31.4453 91.6901 31.7572 92.2229L35.4198 90.6607L52.7034 98.0353L69.9922 90.6607L87.2758 98.0353L104.57 90.6607L108.24 92.2255C108.552 91.6927 108.851 91.152 109.14 90.6087L104.57 88.6591L102.441 89.5663V89.5611ZM90.5718 66.8681C90.798 66.7823 91.0319 66.6836 91.2763 66.5692C91.6376 66.4002 92.0691 66.4808 92.342 66.7771C92.342 66.7771 92.7918 67.2372 93.4754 67.4166C94.3384 67.6428 95.2352 67.323 96.1372 66.4522C96.3244 66.2729 96.5895 66.1845 96.8391 66.1975C96.969 66.2053 97.0938 66.2417 97.2056 66.3014C97.2602 66.33 97.2992 66.3794 97.3485 66.421C97.3979 66.4626 97.4551 66.4912 97.4967 66.5432C97.4967 66.5432 97.5409 66.5926 97.6059 66.6628C97.6163 66.6732 97.6241 66.681 97.6371 66.694C97.6605 66.7174 97.6969 66.7486 97.7255 66.7771C97.7515 66.8005 97.7723 66.8213 97.8008 66.8473C97.8346 66.8759 97.8762 66.9097 97.9152 66.9409C97.949 66.9669 97.9776 66.9929 98.014 67.0215C98.0582 67.0553 98.1102 67.0865 98.1596 67.1177C98.1986 67.1437 98.235 67.1697 98.2766 67.1931C98.3311 67.2242 98.3935 67.2528 98.4533 67.2814C98.4949 67.3022 98.5339 67.3256 98.5781 67.3438C98.6483 67.3724 98.7236 67.3932 98.799 67.414C98.838 67.4244 98.8718 67.44 98.9108 67.4504C99.0278 67.4764 99.1474 67.4894 99.2721 67.4894C100.257 67.4894 101.04 66.5536 101.048 66.5458C101.209 66.343 101.448 66.2157 101.708 66.1975C101.973 66.1871 102.222 66.2729 102.41 66.4522C103.314 67.323 104.208 67.6402 105.071 67.4166C105.755 67.2372 106.205 66.7745 106.21 66.7693C106.483 66.4834 106.912 66.4002 107.268 66.5692C107.515 66.6836 107.749 66.7823 107.975 66.8681C109.345 67.388 110.314 67.375 110.944 67.2268C108.932 65.2851 106.748 62.0332 104.435 57.5284C104.403 57.5492 104.364 57.5674 104.328 57.5856C104.279 57.6142 104.229 57.6428 104.175 57.6687C104.107 57.7025 104.034 57.7311 103.961 57.7623C103.91 57.7831 103.86 57.8065 103.806 57.8247C103.715 57.8559 103.616 57.8819 103.514 57.9053C103.468 57.9157 103.423 57.9313 103.377 57.9417C103.223 57.9703 103.062 57.9911 102.893 57.9963C102.222 57.9911 101.599 57.8195 100.993 57.414C100.577 57.7103 99.9922 57.9963 99.2773 57.9963C98.5625 57.9963 97.9776 57.7103 97.5617 57.414C96.956 57.8169 96.353 57.9911 95.6589 57.9963C95.4874 57.9911 95.3288 57.9703 95.1754 57.9417C95.1286 57.9313 95.0871 57.9183 95.0429 57.9079C94.9389 57.8819 94.8375 57.8585 94.7439 57.8247C94.6945 57.8065 94.6503 57.7883 94.6036 57.7675C94.523 57.7337 94.4424 57.7025 94.3696 57.6661C94.3228 57.6427 94.2838 57.6194 94.2422 57.596C94.2006 57.5726 94.1565 57.5518 94.1175 57.5284C91.804 62.0306 89.6204 65.2825 87.6085 67.2242C88.2402 67.375 89.2071 67.388 90.5718 66.8707V66.8681ZM69.9922 102.891L52.7034 110.266L47.2966 107.96C49.6205 109.356 52.0613 110.523 54.5906 111.464L69.9896 104.895L85.3938 111.469C87.9412 110.526 90.3977 109.345 92.7346 107.939L87.2706 110.268L69.987 102.894L69.9922 102.891ZM31.726 78.7267C31.9158 78.9269 33.7016 80.6711 36.1138 78.9841C36.392 78.7891 36.6519 78.576 36.9118 78.3264C37.0834 78.16 37.3122 78.0691 37.5513 78.0691C37.5721 78.0691 37.5929 78.0691 37.6137 78.0691C37.8736 78.0847 38.1128 78.212 38.274 78.4174C38.2817 78.4278 39.3345 79.7145 40.7278 79.7145C42.1211 79.7145 43.1739 78.4278 43.1843 78.4148C43.3454 78.2146 43.5872 78.0899 43.8445 78.0717C44.0889 78.0561 44.354 78.147 44.5412 78.3238C44.8037 78.5759 45.0663 78.7917 45.3392 78.9841C45.4692 79.075 45.5965 79.1504 45.7213 79.2232C45.7681 79.01 45.8747 78.8125 46.0514 78.6799C47.6787 77.4504 49.4047 75.5944 51.2165 73.1691C50.3197 71.7732 49.4047 70.2214 48.4689 68.4902C48.4169 68.5266 48.3493 68.5656 48.2895 68.6045C48.209 68.6591 48.1362 68.7111 48.0426 68.7631C47.9724 68.8021 47.8866 68.8385 47.8087 68.8775C47.7047 68.9295 47.6085 68.9841 47.4941 69.0282C47.3901 69.0698 47.2706 69.0984 47.1588 69.1322C47.0522 69.166 46.956 69.205 46.8417 69.231C46.6077 69.283 46.3556 69.3168 46.0878 69.3246C45.1052 69.361 44.1669 69.0231 43.2623 68.3524C42.6982 68.8073 41.817 69.3272 40.7252 69.3272C39.6335 69.3272 38.7548 68.8073 38.1908 68.3524C37.2862 69.0257 36.3296 69.3636 35.3626 69.3246C35.0948 69.3168 34.8427 69.283 34.6088 69.231C34.5516 69.218 34.5022 69.1972 34.4476 69.1816C34.276 69.1348 34.1045 69.088 33.9537 69.0282C33.8783 68.9996 33.8211 68.9633 33.7509 68.9295C33.6314 68.8749 33.5092 68.8203 33.4052 68.7631C33.3246 68.7163 33.2649 68.6721 33.1921 68.6253C33.1219 68.5811 33.0439 68.5344 32.9815 68.4902C30.7122 72.6908 28.5521 75.8959 26.5245 78.0899C26.6103 78.5578 26.7039 79.0257 26.8053 79.4883C27.7541 79.5117 29.0226 79.2908 30.655 78.5188C31.0163 78.3498 31.4479 78.4304 31.7208 78.7241L31.726 78.7267ZM107.018 68.4902C106.966 68.5266 106.899 68.5656 106.839 68.6045C106.758 68.6591 106.686 68.7111 106.592 68.7631C106.522 68.8021 106.436 68.8385 106.358 68.8775C106.254 68.9295 106.158 68.9841 106.044 69.0282C105.94 69.0698 105.82 69.0984 105.708 69.1322C105.602 69.166 105.506 69.205 105.391 69.231C105.157 69.283 104.905 69.3168 104.64 69.3246C103.678 69.361 102.716 69.0231 101.814 68.3524C101.25 68.8073 100.369 69.3272 99.2773 69.3272C98.1856 69.3272 97.307 68.8073 96.7403 68.3524C95.8357 69.0257 94.8687 69.3636 93.9147 69.3246C93.647 69.3168 93.3974 69.283 93.1635 69.231C93.0595 69.2076 92.9685 69.1712 92.8723 69.14C92.7502 69.1036 92.6202 69.0724 92.5084 69.0257C92.4096 68.9867 92.3265 68.9373 92.2355 68.8931C92.1419 68.8489 92.0431 68.8073 91.9599 68.7579C91.8742 68.7085 91.8092 68.6617 91.7338 68.6123C91.6688 68.5708 91.5934 68.5266 91.5362 68.485C90.6004 70.2162 89.6854 71.768 88.7886 73.1639C90.6004 75.5892 92.3291 77.4452 93.9537 78.6747C94.1305 78.8073 94.2344 79.0049 94.2838 79.218C94.4086 79.1452 94.536 79.0698 94.6659 78.9789C94.9441 78.7839 95.204 78.5707 95.464 78.3212C95.6355 78.1548 95.8643 78.0639 96.1034 78.0639C96.1242 78.0639 96.145 78.0639 96.1658 78.0639C96.4258 78.0795 96.6649 78.2068 96.8261 78.4122C96.8339 78.4226 97.8866 79.7093 99.2799 79.7093C100.673 79.7093 101.726 78.4252 101.734 78.4122C101.895 78.2094 102.134 78.0821 102.394 78.0639C102.662 78.0535 102.909 78.1392 103.093 78.3186C103.356 78.5708 103.618 78.7865 103.891 78.9789C106.382 80.7153 108.204 78.8073 108.279 78.7215C108.552 78.4278 108.984 78.3472 109.345 78.5162C110.98 79.2856 112.246 79.5065 113.195 79.4857C113.296 79.0205 113.39 78.5551 113.475 78.0873C111.45 75.8933 109.288 72.6882 107.021 68.4876L107.018 68.4902ZM32.0223 66.8681C32.2485 66.7823 32.485 66.6836 32.7294 66.5692C33.0907 66.4002 33.5222 66.4808 33.7951 66.7771C33.7951 66.7771 34.2448 67.2372 34.9285 67.4166C35.7889 67.6428 36.6909 67.3204 37.5903 66.4522C37.6813 66.3638 37.7905 66.3014 37.9074 66.2573C37.9334 66.2469 37.9594 66.2495 37.9854 66.2417C38.066 66.2183 38.1466 66.1949 38.2298 66.1949C38.2506 66.1949 38.2714 66.1949 38.2921 66.1949C38.5521 66.2131 38.7912 66.3378 38.9524 66.5432C38.955 66.5484 39.727 67.4868 40.7252 67.4868C41.7234 67.4868 42.4928 66.551 42.5006 66.5432C42.6618 66.3404 42.9009 66.2131 43.1609 66.1949C43.4234 66.1845 43.6756 66.2703 43.8627 66.4496C44.7647 67.3204 45.6615 67.6376 46.5245 67.414C47.2082 67.2346 47.6579 66.7719 47.6631 66.7667C47.936 66.4808 48.3649 66.3976 48.7237 66.5666C48.968 66.681 49.2045 66.7797 49.4307 66.8655C50.8006 67.3854 51.7676 67.3698 52.3992 67.2216C50.3873 65.2799 48.2038 62.028 45.8877 57.5232C45.8591 57.5388 45.8253 57.557 45.7967 57.5726C45.7421 57.6038 45.6875 57.635 45.6251 57.6661C45.5627 57.6973 45.4926 57.7259 45.4224 57.7545C45.3678 57.7779 45.3158 57.8013 45.256 57.8221C45.1676 57.8533 45.0715 57.8767 44.9753 57.9001C44.9259 57.9131 44.8791 57.9287 44.8297 57.9391C44.6763 57.9677 44.5178 57.9885 44.3462 57.9937C43.6808 57.9885 43.0517 57.8169 42.4434 57.4114C42.0275 57.7077 41.4427 57.9937 40.7278 57.9937C40.013 57.9937 39.4281 57.7077 39.0122 57.4114C38.4065 57.8143 37.8061 57.9885 37.1094 57.9937C36.9404 57.9885 36.7793 57.9677 36.6259 57.9391C36.5791 57.9287 36.5375 57.9157 36.4907 57.9053C36.3894 57.8793 36.288 57.8559 36.197 57.8221C36.145 57.8039 36.0982 57.7831 36.0488 57.7623C35.9735 57.7311 35.8955 57.6999 35.8279 57.6661C35.7733 57.6402 35.7265 57.6116 35.6771 57.5856C35.6433 57.5648 35.6017 57.5466 35.5705 57.5284C33.2571 62.0306 31.0735 65.2825 29.0616 67.2242C29.6932 67.3724 30.6602 67.3906 32.0275 66.8707L32.0223 66.8681ZM61.726 47.1229C61.9781 47.0319 62.2407 46.9253 62.5188 46.7953C62.8827 46.6238 63.3142 46.707 63.5872 47.0007C63.8315 47.258 65.191 48.472 67.034 46.6966C67.2212 46.5172 67.4733 46.4236 67.7359 46.4418C67.8658 46.4496 67.9906 46.486 68.1024 46.5458C68.17 46.5796 68.2194 46.6394 68.2765 46.6888C68.3155 46.7226 68.3623 46.7459 68.3935 46.7875C68.3935 46.7875 68.4065 46.8031 68.4247 46.8239C68.4247 46.8239 68.4247 46.8239 68.4273 46.8265C68.4325 46.8317 68.4403 46.8395 68.4455 46.8447C68.5183 46.9253 68.6665 47.0735 68.8692 47.2242C68.8692 47.2242 68.8744 47.2268 68.8744 47.2294C68.9446 47.2814 69.02 47.3308 69.1032 47.3802C69.1214 47.3906 69.1448 47.401 69.1655 47.4114C69.2331 47.4478 69.3007 47.4842 69.3735 47.5154C69.4177 47.5336 69.4645 47.544 69.5113 47.5596C69.5659 47.5778 69.6179 47.5986 69.675 47.6116C69.779 47.635 69.8882 47.648 70 47.648C70.8994 47.648 71.6012 46.7953 71.609 46.7849C71.7728 46.5848 72.0119 46.46 72.2693 46.4444C72.5162 46.4288 72.7814 46.5172 72.9659 46.6966C73.6366 47.3438 74.3176 47.6453 74.9467 47.6453C75.8019 47.622 76.4076 47.0085 76.4128 47.0033C76.6857 46.707 77.1172 46.6238 77.4811 46.7979C77.7593 46.9305 78.0244 47.0371 78.2765 47.1281C79.3839 47.5232 80.1949 47.5336 80.746 47.4244C76.2048 42.956 71.817 32.4465 70 27.7363C68.183 32.4465 63.7951 42.9586 59.2539 47.4244C59.8024 47.5284 60.616 47.518 61.726 47.1255V47.1229ZM93.2129 55.7946C93.387 55.7322 93.5716 55.6568 93.7665 55.5658C93.8783 55.5138 93.9979 55.493 94.1175 55.4878C94.1331 55.4878 94.1461 55.4774 94.1591 55.4774C94.1798 55.4774 94.2006 55.4878 94.2214 55.4904C94.302 55.4956 94.38 55.5112 94.458 55.5398C94.4892 55.5502 94.5204 55.558 94.5516 55.5736C94.6555 55.623 94.7517 55.6854 94.8323 55.7738C95.1026 56.0493 95.8695 56.59 96.956 55.545C97.1432 55.3657 97.3927 55.2799 97.6579 55.2903C97.7878 55.2981 97.9126 55.3345 98.0244 55.3942C98.04 55.402 98.0478 55.4176 98.0608 55.4254C98.1544 55.48 98.2428 55.545 98.3129 55.6334C98.3207 55.6438 98.4351 55.7738 98.6093 55.9037C98.6327 55.9193 98.6639 55.9323 98.6873 55.9505C98.7574 55.9973 98.8276 56.0467 98.9108 56.0805C99.0226 56.1299 99.1474 56.1611 99.2747 56.1611C99.7894 56.1611 100.229 55.6438 100.234 55.6386C100.395 55.4358 100.634 55.3085 100.894 55.2903C101.157 55.2825 101.409 55.3657 101.596 55.545C102.028 55.9609 102.394 56.1481 102.841 56.1585C103.348 56.1429 103.717 55.779 103.72 55.7764C103.993 55.48 104.424 55.3994 104.786 55.5684C104.978 55.6594 105.16 55.7348 105.337 55.7972C105.791 55.9609 106.168 56.0259 106.475 56.0389C103.483 52.7844 100.655 46.2339 99.2747 42.7402C97.897 46.2339 95.0688 52.787 92.0743 56.0389C92.3784 56.0259 92.7528 55.9609 93.2077 55.7998L93.2129 55.7946ZM35.2144 55.5658C35.3262 55.5138 35.4458 55.493 35.5653 55.4878C35.5809 55.4878 35.5939 55.4774 35.6069 55.4774C35.6277 55.4774 35.6485 55.4878 35.6693 55.4904C35.7499 55.4956 35.8279 55.5112 35.9059 55.5398C35.9371 55.5502 35.9683 55.558 35.9995 55.5736C36.1034 55.623 36.1996 55.6854 36.2802 55.7738C36.5505 56.0493 37.3174 56.59 38.4039 55.545C38.5911 55.3657 38.8536 55.2799 39.1058 55.2903C39.3657 55.3085 39.6049 55.4332 39.766 55.6386C39.766 55.6386 40.2105 56.1585 40.7226 56.1585C41.2347 56.1585 41.6766 55.6412 41.6818 55.636C41.843 55.4332 42.0821 55.3059 42.3421 55.2877C42.602 55.2799 42.8567 55.3631 43.0439 55.5424C44.1357 56.5926 44.8999 56.0493 45.178 55.7634C45.4536 55.4852 45.8851 55.3968 46.236 55.5658C46.4284 55.6568 46.6103 55.7322 46.7871 55.7946C47.242 55.9583 47.6189 56.0233 47.923 56.0337C44.9311 52.7792 42.1029 46.2287 40.7226 42.735C39.3449 46.2287 36.5167 52.7818 33.5222 56.0337C33.8263 56.0207 34.2032 55.9557 34.6607 55.792C34.8375 55.7296 35.0195 55.6542 35.2118 55.5632L35.2144 55.5658Z" fill="#00704A"/>
<path d="M50.9202 20.7021L50.5589 19.6L54.0577 18.4588L53.2649 16.0284L50.5355 16.92L50.1742 15.8178L52.901 14.9262L51.7235 11.3208L53.0752 10.8789L55.7656 19.1217L50.915 20.7047L50.9202 20.7021Z" fill="white"/>
<path d="M39.1344 17.3742C39.909 17.3274 40.6447 17.486 41.3439 17.8447C42.0406 18.2034 42.6176 18.7415 43.0751 19.4564C43.5326 20.1712 43.7744 20.9198 43.803 21.6997C43.8316 22.4795 43.6626 23.2125 43.2935 23.8962C42.9244 24.5798 42.4019 25.1387 41.7208 25.5728C41.0346 26.0121 40.3015 26.2539 39.5269 26.2981C38.7523 26.3422 38.0192 26.1863 37.3252 25.8302C36.6337 25.4714 36.0593 24.936 35.6018 24.2211C35.1443 23.5063 34.8999 22.7576 34.8635 21.9752C34.8297 21.1928 34.9961 20.4597 35.3626 19.7761C35.7317 19.0924 36.2594 18.531 36.9457 18.0917C37.6267 17.6576 38.3546 17.4184 39.1292 17.3716L39.1344 17.3742ZM36.5324 20.2908C36.2958 20.7535 36.1996 21.2578 36.2464 21.8036C36.2932 22.3495 36.4908 22.8928 36.8339 23.4335C37.1796 23.9742 37.5877 24.3797 38.0608 24.65C38.5339 24.9204 39.0304 25.0425 39.5477 25.0191C40.065 24.9957 40.5667 24.8294 41.0502 24.52C41.5337 24.2107 41.895 23.8286 42.1367 23.3685C42.3785 22.9084 42.4747 22.4093 42.4279 21.866C42.3837 21.3227 42.1861 20.7821 41.843 20.2414C41.4973 19.7007 41.0892 19.2952 40.6135 19.0197C40.1378 18.7467 39.6413 18.6193 39.1214 18.6401C38.6015 18.6609 38.0998 18.8247 37.6163 19.134C37.1328 19.4434 36.7715 19.8281 36.535 20.2908H36.5324Z" fill="white"/>
<path d="M23.621 29.6753L27.5279 30.5409L28.261 29.7402L25.7005 27.4008L26.6597 26.3506L33.0621 32.1993L31.0424 34.4088C30.5927 34.9001 30.1274 35.238 29.6439 35.4226C29.1604 35.6072 28.6977 35.6513 28.2558 35.5552C27.8139 35.459 27.4136 35.251 27.0574 34.9261C26.6389 34.544 26.3712 34.0761 26.2516 33.5224C26.1321 32.9687 26.2412 32.3839 26.5792 31.7678L22.4799 30.9282L23.6236 29.6753H23.621ZM29.098 30.5045L28.0374 31.6638C27.6787 32.0563 27.5072 32.4436 27.5201 32.8232C27.5331 33.2027 27.7073 33.5432 28.04 33.8473C28.3728 34.1515 28.7211 34.2892 29.0876 34.2632C29.4541 34.2372 29.8206 34.0241 30.1846 33.6264L31.2451 32.467L29.098 30.5071V30.5045Z" fill="white"/>
<path d="M16.8781 39.5059C17.2784 39.194 17.7073 39.0094 18.1648 38.9548C18.6197 38.9002 19.0694 38.9912 19.5061 39.2277L18.7808 40.5665C18.4351 40.4183 18.0946 40.4001 17.7567 40.5171C17.4187 40.634 17.138 40.8992 16.9119 41.3151C16.6779 41.7466 16.5999 42.1391 16.6779 42.4926C16.7559 42.8461 16.9586 43.1139 17.2888 43.2906C17.5435 43.4284 17.7931 43.4674 18.0348 43.405C18.2766 43.3426 18.5027 43.2231 18.7107 43.0463C18.9186 42.8721 19.1812 42.6122 19.4983 42.2743C19.8986 41.848 20.2521 41.5152 20.5563 41.2787C20.8604 41.0421 21.2139 40.8888 21.6168 40.8264C22.0197 40.7614 22.4616 40.8576 22.9373 41.1149C23.3766 41.3541 23.7016 41.6712 23.9095 42.0689C24.1175 42.4666 24.2059 42.9111 24.1669 43.3998C24.1279 43.8885 23.9693 44.3954 23.686 44.9127C23.2857 45.6509 22.7736 46.1552 22.1471 46.4282C21.5232 46.6985 20.8734 46.6855 20.2027 46.3892L20.9514 45.0063C21.2399 45.1362 21.5492 45.131 21.8794 44.9985C22.2069 44.8633 22.4798 44.6008 22.693 44.2056C22.8879 43.8469 22.9555 43.5038 22.8931 43.1789C22.8334 42.8539 22.6306 42.5966 22.2875 42.412C22.0535 42.2847 21.8222 42.2535 21.596 42.3133C21.3699 42.3757 21.1515 42.49 20.9462 42.6616C20.7408 42.8332 20.4809 43.0827 20.1741 43.4076C19.7608 43.8365 19.3995 44.1719 19.0876 44.4162C18.7756 44.6579 18.4169 44.8139 18.0062 44.8815C17.5955 44.9465 17.151 44.8503 16.6675 44.5878C16.2802 44.3772 15.9709 44.0757 15.7395 43.6806C15.5082 43.2855 15.3964 42.8332 15.4042 42.3211C15.412 41.809 15.5628 41.2839 15.8565 40.7432C16.1346 40.2311 16.4726 39.8178 16.8755 39.5059H16.8781Z" fill="white"/>
<path d="M18.1648 55.0792L15.7057 54.419L14.9285 57.3095L13.8081 57.008L14.5854 54.1174L12.0197 53.426L11.1437 56.6805L10.0234 56.3789L11.2685 51.752L19.6543 54.0083L18.4091 58.6352L17.2888 58.3337L18.1648 55.0818V55.0792Z" fill="white"/>
<path d="M17.1588 71.1543L15.9995 71.1153L16.0801 68.807L8.57294 68.547L8.62233 67.1252L16.1295 67.3851L16.2101 65.0664L17.3694 65.1054L17.1588 71.1543Z" fill="white"/>
<path d="M18.7211 96.9406C18.7913 96.7041 18.9394 96.5247 19.1682 96.4025C19.3943 96.2804 19.6257 96.2544 19.8648 96.3245C20.1014 96.3947 20.2807 96.5429 20.4029 96.7716C20.5225 96.99 20.5459 97.2188 20.4757 97.4553C20.4055 97.6918 20.2548 97.8712 20.0286 97.9934C19.8025 98.1156 19.5711 98.1415 19.332 98.0714C19.0954 98.0012 18.9186 97.8556 18.7991 97.6373C18.6769 97.4111 18.6509 97.1798 18.7211 96.9406Z" fill="white"/>
<path d="M48.1128 118.251L43.8549 125.805L42.615 125.105L45.5316 119.93L40.3119 123.806L39.4541 123.322L40.0546 116.844L37.138 122.02L35.8981 121.321L40.1559 113.767L41.492 114.52L40.8058 121.939L46.7845 117.505L48.1102 118.253L48.1128 118.251Z" fill="white"/>
<path d="M58.1362 128.518L54.601 127.691L53.5898 129.274L52.1445 128.936L57.1458 121.188L58.7497 121.562L59.7998 130.725L58.3416 130.384L58.1362 128.518ZM58.0114 127.296L57.5565 123.051L55.2534 126.652L58.0114 127.296Z" fill="white"/>
<path d="M74.5594 125.131C74.3176 124.707 73.9953 124.393 73.5872 124.187C73.1791 123.982 72.7138 123.891 72.1913 123.909C71.6168 123.93 71.1125 124.081 70.6732 124.354C70.2339 124.629 69.896 125.009 69.662 125.492C69.4255 125.976 69.3215 126.529 69.3449 127.153C69.3683 127.777 69.5165 128.323 69.7894 128.791C70.0624 129.259 70.4263 129.612 70.8864 129.854C71.3439 130.093 71.8612 130.202 72.4356 130.182C73.2077 130.15 73.8289 129.911 74.2942 129.462C74.7595 129.012 75.0325 128.414 75.1104 127.671L71.856 127.795L71.8118 126.662L76.5869 126.477L76.6311 127.587C76.5661 128.263 76.3504 128.892 75.9865 129.472C75.6225 130.052 75.1364 130.522 74.5308 130.883C73.9251 131.245 73.2441 131.44 72.4876 131.468C71.674 131.499 70.9228 131.338 70.2339 130.987C69.5451 130.636 68.9914 130.13 68.5703 129.472C68.1492 128.814 67.923 128.06 67.8892 127.213C67.8554 126.366 68.0244 125.596 68.3935 124.907C68.7626 124.218 69.2773 123.673 69.9402 123.267C70.603 122.862 71.3387 122.646 72.1445 122.615C73.0673 122.578 73.8965 122.773 74.6321 123.2C75.3678 123.626 75.9163 124.247 76.2724 125.066L74.5646 125.131H74.5594Z" fill="white"/>
<path d="M84.3514 120.801L86.5895 129.179L85.2144 129.545L82.9763 121.167L84.3514 120.801Z" fill="white"/>
<path d="M92.1861 120.27C92.2225 119.491 92.4512 118.776 92.8749 118.123C93.2987 117.473 93.8653 116.959 94.5802 116.582C95.3964 116.15 96.2282 115.968 97.0782 116.033C97.9282 116.098 98.6873 116.423 99.3631 117.008L97.8502 117.806C97.4395 117.507 97.0028 117.351 96.5453 117.338C96.0878 117.325 95.6277 117.442 95.1624 117.687C94.6556 117.954 94.263 118.308 93.9849 118.745C93.7068 119.181 93.569 119.673 93.569 120.218C93.569 120.764 93.7198 121.321 94.0187 121.885C94.3176 122.451 94.6919 122.888 95.1416 123.197C95.5914 123.507 96.0748 123.67 96.5947 123.694C97.1146 123.717 97.6267 123.592 98.1362 123.325C98.5989 123.08 98.955 122.766 99.2046 122.381C99.4541 121.996 99.5711 121.549 99.5555 121.04L101.068 120.242C101.17 121.128 101.006 121.939 100.58 122.672C100.153 123.405 99.5295 123.988 98.7133 124.416C97.9932 124.796 97.2446 124.975 96.4726 124.955C95.7005 124.934 94.9831 124.718 94.3176 124.305C93.6548 123.894 93.1245 123.312 92.7294 122.56C92.3343 121.809 92.1523 121.045 92.1887 120.265L92.1861 120.27Z" fill="white"/>
<path d="M119.54 100.013C119.301 100.075 119.069 100.039 118.848 99.9065C118.628 99.7765 118.485 99.5894 118.425 99.3502C118.365 99.1111 118.399 98.8797 118.531 98.6588C118.659 98.443 118.841 98.3052 119.082 98.2455C119.322 98.1831 119.553 98.2195 119.774 98.352C119.995 98.4846 120.138 98.6692 120.198 98.9083C120.26 99.1475 120.226 99.3736 120.099 99.5894C119.966 99.8103 119.782 99.9533 119.543 100.013H119.54Z" fill="white"/>
<path d="M124.864 72.7658C124.182 72.3837 123.647 71.856 123.257 71.1854C122.867 70.5147 122.664 69.7765 122.649 68.968C122.633 68.0452 122.844 67.2186 123.286 66.4908C123.725 65.7629 124.359 65.2301 125.186 64.8895L125.217 66.5974C124.765 66.8313 124.429 67.1484 124.211 67.5513C123.993 67.9543 123.889 68.417 123.899 68.942C123.91 69.5165 124.047 70.026 124.312 70.4705C124.578 70.915 124.955 71.2607 125.441 71.5051C125.927 71.7494 126.491 71.8664 127.13 71.856C127.77 71.8456 128.331 71.7078 128.807 71.4453C129.285 71.1828 129.652 70.824 129.904 70.3717C130.159 69.9168 130.281 69.4047 130.27 68.8303C130.26 68.3052 130.14 67.8477 129.909 67.4526C129.678 67.0575 129.332 66.7507 128.869 66.535L128.838 64.8271C129.675 65.1365 130.325 65.646 130.788 66.3582C131.25 67.0705 131.489 67.8867 131.505 68.8095C131.521 69.6257 131.344 70.3717 130.977 71.0528C130.611 71.7338 130.094 72.2771 129.428 72.6852C128.763 73.0933 128.004 73.3039 127.156 73.3195C126.309 73.3351 125.545 73.1505 124.864 72.7684V72.7658Z" fill="white"/>
<path d="M121.175 56.9224L126.478 55.3575C127.107 55.173 127.533 54.8662 127.757 54.4399C127.978 54.0136 128.001 53.5067 127.827 52.9167C127.65 52.3188 127.354 51.9003 126.938 51.6637C126.522 51.4272 125.997 51.4012 125.368 51.5884L120.065 53.1532L119.662 51.7885L124.939 50.2315C125.617 50.0313 126.236 50.0105 126.792 50.1665C127.351 50.3224 127.816 50.6136 128.196 51.0399C128.573 51.4662 128.851 51.9783 129.028 52.5761C129.205 53.174 129.249 53.7537 129.163 54.3126C129.077 54.8714 128.841 55.3627 128.453 55.789C128.069 56.2153 127.536 56.5273 126.857 56.7274L121.58 58.2845L121.178 56.9198L121.175 56.9224Z" fill="white"/>
<path d="M118.035 37.8553C118.217 37.3666 118.529 36.9897 118.971 36.7245C119.348 36.4984 119.748 36.3892 120.169 36.4048C120.59 36.4178 120.998 36.5582 121.396 36.8233C121.794 37.0884 122.139 37.4679 122.436 37.9592L124.224 40.9304L116.795 45.4014L115.09 42.568C114.786 42.0611 114.609 41.575 114.562 41.1097C114.515 40.6444 114.58 40.2311 114.757 39.8724C114.934 39.5137 115.201 39.2278 115.558 39.012C115.986 38.7547 116.41 38.6533 116.831 38.7105C117.252 38.7677 117.648 38.947 118.014 39.2512C117.845 38.8093 117.853 38.344 118.035 37.8553ZM119.184 42.3055L118.277 40.7978C118.037 40.3975 117.757 40.1428 117.442 40.0258C117.125 39.9114 116.795 39.9556 116.454 40.161C116.119 40.3637 115.924 40.6315 115.872 40.9694C115.818 41.3073 115.911 41.6764 116.153 42.0741L117.06 43.5818L119.186 42.3029L119.184 42.3055ZM120.624 37.8709C120.283 37.7565 119.935 37.8059 119.579 38.019C119.215 38.2374 119.002 38.5363 118.937 38.9132C118.874 39.2927 118.965 39.6879 119.215 40.1012L120.179 41.705L122.501 40.3091L121.51 38.6637C121.261 38.2504 120.967 37.9852 120.626 37.8709H120.624Z" fill="white"/>
<path d="M109.119 32.8851L110.936 31.1019L108.838 28.9652L109.667 28.1515L111.765 30.2883L113.663 28.4271L111.302 26.0226L112.132 25.209L115.487 28.6272L109.29 34.7099L105.935 31.2916L106.764 30.478L109.124 32.8825L109.119 32.8851Z" fill="white"/>
<path d="M86.0177 14.3305C86.1399 14.5463 86.1659 14.7776 86.0983 15.0246C86.0307 15.2741 85.8877 15.4587 85.672 15.5809C85.4562 15.703 85.2249 15.729 84.9779 15.6614C84.7362 15.5965 84.5568 15.4535 84.4346 15.2403C84.3125 15.0246 84.2865 14.7932 84.3541 14.5463C84.4216 14.2967 84.5646 14.1122 84.7804 13.99C84.9961 13.8678 85.2223 13.8392 85.464 13.9068C85.7136 13.9744 85.8981 14.1174 86.0203 14.3331L86.0177 14.3305Z" fill="white"/>
</g>
<defs>
<clipPath id="clip0_2890_194089">
<rect width="140" height="140" fill="white"/>
</clipPath>
</defs>
</svg>
