<svg width="140" height="141" viewBox="0 0 140 141" fill="none" xmlns="http://www.w3.org/2000/svg">
<g clip-path="url(#clip0_2890_194104)">
<path d="M84.1422 14.6207C76.3317 6.81017 63.6684 6.81018 55.8579 14.6207L14.1422 56.3364C6.33171 64.1469 6.33172 76.8102 14.1422 84.6207L55.8579 126.336C63.6684 134.147 76.3317 134.147 84.1422 126.336L125.858 84.6207C133.668 76.8102 133.668 64.1469 125.858 56.3364L84.1422 14.6207Z" fill="#007510"/>
<path d="M87.0451 64.73C87.4368 64.73 87.956 64.6663 88.6073 64.5342C88.8669 64.5342 88.999 64.3383 88.999 63.9489V60.5319H89.0958C89.7447 62.6156 90.9837 64.0457 92.8055 64.8268C93.1948 63.982 93.747 63.4274 94.4644 63.1678V62.8752C92.4468 62.6156 90.8515 61.8345 89.681 60.5319H93.7824C94.1081 60.4682 94.3016 60.336 94.3677 60.1425V59.9466L94.2709 59.8499L92.3193 58.4835L91.3424 59.949H88.999V59.2646C89.5182 59.0688 89.7801 58.8422 89.7801 58.5803C89.7801 58.4505 89.6834 58.3537 89.4875 58.2877H89.3908L87.1442 58.0918V59.9466H85.2894L85.1926 59.8499L83.5336 58.5803L82.5567 59.9466H80.9945V59.1655C81.4499 58.9697 81.6788 58.7762 81.6788 58.5803C81.6788 58.4505 81.6127 58.3537 81.4829 58.2877H81.3862L79.1396 58.0918V59.9466H75.7226V60.5319H78.3585C77.837 61.7024 76.86 63.038 75.43 64.5342L75.7226 64.9235C77.0229 64.2085 78.1627 63.3283 79.1396 62.2876V63.5572C79.0736 64.2085 79.0429 64.6639 79.0429 64.9235C79.1727 64.9235 79.3685 64.8905 79.6281 64.8268C80.0836 64.7631 80.4092 64.697 80.6051 64.6309C80.8647 64.5672 80.9945 64.3383 80.9945 63.9466V61.4074C81.5797 61.8628 81.9714 62.3843 82.1673 62.9696L82.2641 63.0663C82.3938 63.3283 82.5567 63.4557 82.7525 63.4557C83.3378 63.392 83.6634 63.0333 83.7295 62.382C83.7295 61.5372 82.8163 61.0817 80.9968 61.0156V60.5272H86.0728C85.4215 61.6339 84.4445 62.7407 83.1443 63.8474L82.1673 63.6516C82.1012 64.107 82.0352 64.6616 81.9714 65.3105C81.9714 65.1147 81.9384 65.2775 81.8747 65.799H80.4092L77.188 65.1147V67.6539C77.188 69.8013 77.155 71.2998 77.0913 72.1446C77.6105 72.1446 78.165 72.0809 78.7503 71.9488C79.0759 71.8851 79.2387 71.6562 79.2387 71.2644V70.5801H82.559C81.9077 72.8597 78.9792 74.941 73.771 76.8289L73.9669 77.2183C79.4983 76.2413 82.8847 74.4526 84.1212 71.8473V74.4832C84.0552 75.8496 84.8056 76.5009 86.3678 76.4348H91.8356C93.5936 76.4348 94.5045 75.9794 94.5683 75.0685C94.5683 74.8726 94.4715 74.7121 94.2756 74.58C93.95 74.3841 93.7872 74.0915 93.7872 73.7021L93.6904 71.4556L93.3978 71.3588L92.6167 73.9947C92.5506 74.5163 92.1282 74.7759 91.3471 74.7759H87.1489C86.4315 74.7759 86.1059 74.5163 86.1719 73.9947V70.5777H89.3931V71.0497L88.2226 70.7736C88.0905 71.229 87.897 71.6868 87.6374 72.1399C87.4415 72.4656 87.1159 72.7252 86.6604 72.921L87.1489 74.3865L87.2457 74.4832C87.2457 74.5493 87.2787 74.58 87.3424 74.58C87.602 74.58 87.7342 74.3841 87.7342 73.9947C88.7111 73.865 89.6527 73.6384 90.566 73.3104C90.6108 73.4001 90.6438 73.4661 90.6651 73.5086C90.7288 73.7682 90.7618 73.931 90.7618 73.9947C90.8256 74.3204 90.9884 74.4832 91.2503 74.4832C91.7695 74.4195 92.0645 74.1269 92.1282 73.6054C92.1282 72.8903 91.4438 72.3051 90.0775 71.8473L89.8816 72.0432C90.0775 72.239 90.238 72.4986 90.3701 72.8243L88.0268 72.921C88.5459 72.5317 89.0038 72.1399 89.3931 71.7505C89.8486 71.6868 90.0775 71.5547 90.0775 71.3612L89.8816 71.1653L89.4592 71.0662C89.9619 71.0615 90.4928 70.9978 91.0545 70.8727C91.3801 70.809 91.5429 70.5801 91.5429 70.1883C91.4769 69.6692 91.4462 68.6592 91.4462 67.1607V66.7713C91.9654 66.4456 92.2273 66.153 92.2273 65.8934C92.2273 65.6338 92.0951 65.471 91.8356 65.4049L89.7849 64.6238L89.0038 65.7943H82.8517C83.2434 65.5347 83.6328 65.2091 84.0245 64.8173C84.4799 64.8173 84.7089 64.6215 84.7089 64.2321C84.7089 64.0362 84.513 63.9395 84.1236 63.9395C85.1643 63.3542 86.1743 62.6392 87.1513 61.792V63.0616C87.0852 63.9088 87.0545 64.461 87.0545 64.7206L87.0451 64.73ZM85.1903 67.1701C85.254 66.7807 85.287 66.4857 85.287 66.2922H89.3884V67.8545H85.1903V67.1701ZM85.0935 68.3429H89.3884V70.101H84.7985C84.9944 69.5158 85.0911 68.9305 85.0911 68.3429H85.0935ZM82.6511 70.0987H79.234V68.3406H83.0428C82.9767 69.058 82.8469 69.6432 82.6534 70.0987H82.6511ZM83.1396 66.2922V67.8545H79.234V66.2922H83.1396Z" fill="white"/>
<path d="M73.1811 63.7527C73.3109 69.0906 72.4637 73.5153 70.6419 77.0315L71.0336 77.3241C74.092 74.5253 75.5244 69.9378 75.3286 63.5568V57.6997H93.8792C94.2686 57.636 94.4645 57.5038 94.4645 57.3103C94.4645 57.1805 94.4314 57.0838 94.3677 57.0177L92.0244 55.4555L90.6581 57.2136H84.0198C84.6688 56.8242 84.9968 56.3994 84.9968 55.944C84.9968 54.967 83.857 54.4785 81.5798 54.4785L81.483 54.6744C82.0022 55.1959 82.3939 55.8803 82.6558 56.7251C82.7196 56.9209 82.8517 57.0838 83.0452 57.2136H76.3079L73.0867 56.4325C73.1504 57.6029 73.1835 58.7121 73.1835 59.7528V63.755L73.1811 63.7527Z" fill="white"/>
<path d="M48.004 77.6879C45.7244 76.6472 43.9356 74.8892 42.633 72.4161H46.9279C47.3833 72.4161 47.6122 72.3193 47.6122 72.1234C47.6122 71.9276 47.5155 71.7978 47.3196 71.7317L45.4648 70.4621L44.4878 71.8285H41.656V70.0704C42.2412 69.9406 42.5339 69.681 42.5339 69.2893C42.5339 69.1595 42.4017 69.0934 42.1445 69.0934L39.4118 68.8008V71.8285H36.1906L34.4325 70.4621L33.3588 71.8285H31.504V70.1695C32.0892 69.9736 32.3818 69.714 32.3818 69.3884C32.3818 69.1925 32.2851 69.0958 32.0892 69.0958L29.2574 68.8999C29.3211 69.5512 29.3541 70.5282 29.3541 71.8285H24.7643V72.4137H28.6698C27.4993 75.1464 25.9371 77.459 23.9832 79.3469L24.2758 79.6395C26.1636 78.7286 27.8557 77.2325 29.3518 75.1487V78.8584C29.2857 80.0313 29.255 80.9091 29.255 81.4944C29.7105 81.4944 30.3288 81.4283 31.1099 81.2985C31.4355 81.2324 31.5984 81.0059 31.5984 80.6141V78.6602C31.5323 77.6832 31.5016 77.0012 31.5016 76.6095V73.8768C32.2166 74.6579 32.7051 75.5712 32.9671 76.6095C33.1629 77.0649 33.4225 77.2938 33.7482 77.2938C34.5293 77.1641 34.9517 76.6756 35.0178 75.8284C35.0178 74.7877 33.8473 73.9735 31.504 73.3883V72.4113H38.4372C37.0047 75.2101 35.1169 77.6195 32.7736 79.6372L33.0662 80.0289C35.7352 78.7923 37.8496 77.0673 39.4118 74.8538V76.7086C39.4118 78.8561 39.3787 80.4513 39.315 81.492C39.964 81.492 40.5846 81.4259 41.1699 81.2961C41.4955 81.2301 41.6583 81.0035 41.6583 80.6118V72.4113H42.0477C42.5669 75.7316 43.8058 78.1387 45.7574 79.6372C46.3426 78.7923 47.0577 78.3039 47.9048 78.1717L48.0016 77.6832L48.004 77.6879Z" fill="white"/>
<path d="M24.6698 69.0954L24.8657 69.4871C29.0308 68.4464 32.3511 66.6247 34.8242 64.0194V67.3397C34.7582 68.3827 34.7275 69.1308 34.7275 69.5862C35.6384 69.5862 36.2897 69.5225 36.6791 69.3904C37.0684 69.3267 37.2313 69.0647 37.1675 68.6093C37.1675 68.3497 37.1345 67.7314 37.0708 66.7544V62.8489H37.7552C39.1852 65.7775 41.7244 67.7645 45.3703 68.8051C45.9556 67.6347 46.6069 66.9833 47.3219 66.8536L47.4187 66.3651C43.5769 65.9757 40.6153 64.8029 38.5339 62.8513H46.0523C46.4417 62.8513 46.6376 62.7545 46.6376 62.5586C46.6376 62.4289 46.5715 62.3321 46.4417 62.266L44.2943 60.6071L43.0247 62.266H37.0684V60.4112C37.6537 60.2153 37.9463 59.9557 37.9463 59.6301C37.9463 59.5003 37.8495 59.4035 37.6537 59.3375L34.7251 59.1416C34.7888 59.5971 34.8219 60.574 34.8219 62.0702V62.266H25.4486V62.8513H32.7712C30.8196 65.1946 28.1176 67.2783 24.6675 69.1001L24.6698 69.0954Z" fill="white"/>
<path d="M56.7967 76.6512C57.6415 76.5214 58.0969 76.0022 58.163 75.0889C58.0969 73.9161 56.8604 72.8117 54.4533 71.7687V70.0106H58.5547C58.8804 69.9469 59.0739 69.8147 59.14 69.6188C59.14 69.489 59.0739 69.3923 58.9441 69.3262L56.9925 67.9599L55.9188 69.4253H54.4533V65.0313C55.0386 64.8354 55.3312 64.5759 55.3312 64.2502C55.3312 64.1204 55.199 64.0543 54.9418 64.0543L52.0133 63.7617C52.1431 65.39 52.2091 66.8861 52.2091 68.2525V69.4253H47.8151V70.0106H51.6239C50.7767 73.5905 49.3443 77.2364 47.329 80.9461L47.6216 81.2387C49.5095 79.2871 51.0386 77.1066 52.2115 74.6972V77.9184C52.2115 80.6511 52.1784 83.3531 52.1147 86.0221C52.7 86.0858 53.2852 86.0221 53.8728 85.8262C54.2622 85.6941 54.4581 85.4368 54.4581 85.0451V72.3515C55.2392 73.4583 55.7583 74.6311 56.0203 75.8653C56.1501 76.3869 56.412 76.6464 56.8014 76.6464L56.7967 76.6512Z" fill="white"/>
<path d="M65.193 70.0115C65.6484 75.2196 67.0148 79.1252 69.2944 81.7281C69.8796 80.4915 70.5946 79.8402 71.4418 79.7765L71.5386 79.3848C69.1953 77.6267 67.2743 74.5023 65.7782 70.0115H70.1722C70.564 69.9478 70.7575 69.8156 70.7575 69.6197C70.7575 69.49 70.6914 69.4239 70.5616 69.4239L68.4141 67.8617L67.1446 69.4239H64.8012V65.2257C65.3865 65.0299 65.6791 64.7703 65.6791 64.4446C65.6791 64.2487 65.5469 64.152 65.2874 64.152L62.3588 63.8594C62.4225 64.7066 62.4556 66.2027 62.4556 68.3501V69.4239H59.2344V70.0091H61.6744C60.3718 74.1105 58.4179 78.0161 55.8173 81.7257L56.2067 82.0183C58.8757 79.675 60.9571 76.9423 62.4556 73.8179V77.7234C62.4556 80.652 62.4225 83.4201 62.3588 86.023C62.944 86.023 63.5954 85.9569 64.3104 85.8271C64.7021 85.695 64.8956 85.4377 64.8956 85.046C64.8295 83.0283 64.7989 80.4254 64.7989 77.2349V70.0091H65.1906L65.193 70.0115Z" fill="white"/>
<path d="M104.107 68.4166C105.084 68.3529 105.603 67.7983 105.669 66.7577C105.603 65.3913 104.237 64.4143 101.568 63.8291L101.372 64.025C102.217 65.0019 102.802 66.1724 103.13 67.5388C103.26 68.124 103.585 68.4166 104.107 68.4166Z" fill="white"/>
<path d="M115.922 68.7088L113.286 66.7549L111.821 68.7088H93.0745V69.2941H100.104V70.271C100.104 74.5022 99.6159 77.7258 98.639 79.9369C97.7257 82.0844 95.8709 84.1351 93.0745 86.089L93.3671 86.4784C99.2903 84.3947 102.316 80.3617 102.448 74.3724H109.574C109.379 77.1051 109.185 79.6443 108.989 81.9876C108.857 83.2242 108.012 83.7788 106.45 83.6466L103.033 83.354L102.837 83.8425C105.114 84.1681 106.287 84.9162 106.351 86.089C109.605 85.9569 111.264 84.5905 111.33 81.9876C111.656 79.3187 111.849 76.9447 111.915 74.8609C112.564 74.4716 112.892 74.1129 112.892 73.7872C112.892 73.5913 112.796 73.4309 112.6 73.2987L109.867 72.225L108.989 73.7872H102.544V72.1282C102.608 71.3471 102.641 70.7289 102.641 70.2734V69.2964H115.432C115.757 69.2964 115.951 69.1997 116.017 69.0038C116.017 68.874 115.984 68.7773 115.92 68.7112L115.922 68.7088Z" fill="white"/>
<path d="M55.1684 62.1575C55.0551 62.1905 54.7908 62.2047 54.7413 62.2141L54.7247 62.2991C54.8663 62.292 55.1684 62.2825 55.3973 62.2825C55.6663 62.2825 55.9967 62.2896 56.1383 62.2991L56.1218 62.2141C56.0297 62.207 55.8315 62.1905 55.6781 62.1575C55.6569 62.0442 55.6451 61.3339 55.6451 60.9988V60.8784C55.874 60.8784 56.3695 60.9068 56.4663 60.9799C56.4781 61.1003 56.4875 61.2371 56.4875 61.3221L56.5725 61.3457C56.5796 61.0436 56.6126 60.6425 56.6362 60.449L56.5512 60.4608C56.5347 60.5363 56.5158 60.6377 56.4946 60.6991C56.3648 60.7392 55.8433 60.7557 55.6451 60.7557V60.6684C55.6451 60.3664 55.6569 59.6466 55.6781 59.59C55.8787 59.59 56.5229 59.6419 56.6669 59.7788C56.6787 59.8543 56.6881 60.0313 56.6881 60.0973L56.7802 60.1304C56.7849 59.833 56.8155 59.3257 56.8486 59.1416L56.7566 59.1605C56.7448 59.2502 56.7164 59.3988 56.7046 59.446C56.6197 59.4696 55.6026 59.4696 55.4303 59.4696C55.2746 59.4696 54.8663 59.4625 54.7271 59.4531L54.7436 59.5381C54.864 59.5499 55.1188 59.5711 55.1707 59.5947C55.1825 59.708 55.192 60.3546 55.192 60.718V60.9681C55.192 61.4141 55.1849 62.0702 55.1707 62.1622L55.1684 62.1575Z" fill="white"/>
<path d="M58.8332 62.3464C59.822 62.3464 60.5701 61.7116 60.5701 60.7252C60.5701 60.35 60.4002 59.9607 60.084 59.727C59.7347 59.4698 59.3949 59.4014 58.9701 59.4014C57.8586 59.4014 57.205 60.1258 57.205 60.9211C57.205 61.2987 57.297 61.5937 57.592 61.8957C57.9672 62.278 58.4297 62.3464 58.8356 62.3464H58.8332ZM58.8191 59.5548C59.4869 59.5548 60.0792 60.166 60.0792 61.0179C60.0792 61.6621 59.6049 62.1813 59.0291 62.1813C58.2456 62.1813 57.6651 61.4733 57.6651 60.7536C57.6651 59.9253 58.2692 59.5548 58.8191 59.5548Z" fill="white"/>
<path d="M61.2828 62.1571C61.1695 62.1854 60.9123 62.209 60.8556 62.2137L60.8391 62.2987C60.9311 62.2916 61.3536 62.2822 61.5187 62.2822C61.7028 62.2822 62.1111 62.2892 62.2102 62.2987L62.1937 62.2137C62.1063 62.2067 61.8397 62.1783 61.7712 62.1571C61.7594 61.973 61.7524 61.3524 61.7524 61.0904V60.9866C61.8208 60.9866 61.986 60.9748 62.1394 60.963C62.2031 61.048 63.2745 62.2822 63.5553 62.412L63.7323 62.3836C63.3146 61.94 62.6656 60.8875 62.6231 60.786C62.9323 60.6138 63.1895 60.2787 63.1895 60.0262C63.1895 59.8043 63.0574 59.6509 62.8426 59.5684C62.5689 59.4598 62.0898 59.4551 61.7075 59.4551L60.8391 59.4598L60.8509 59.5448C60.9382 59.5518 61.212 59.5778 61.2804 59.5919C61.2969 59.6675 61.3016 60.4415 61.3016 60.5854V60.8309C61.3016 61.2533 61.2969 62.0415 61.2804 62.1595L61.2828 62.1571ZM61.7547 60.7388C61.7547 60.4533 61.7618 59.7335 61.7736 59.5684C62.4698 59.5684 62.7034 59.8822 62.7034 60.1394C62.7034 60.5382 62.4178 60.7223 62.2456 60.786C62.0733 60.8497 61.8987 60.8615 61.7547 60.8615V60.7365V60.7388Z" fill="white"/>
<path d="M64.4096 62.1582C64.301 62.1865 64.0603 62.2101 63.9943 62.2148L63.973 62.2998C64.1288 62.2927 64.4473 62.2833 64.5842 62.2833C64.8367 62.2833 65.7311 62.2998 65.8467 62.3187C65.8515 62.3824 65.8515 62.4556 65.8515 62.5641L65.9364 62.5806C65.9529 62.38 66.0402 61.7688 66.0686 61.6508L65.9765 61.6744C65.9529 61.7618 65.9317 61.8868 65.8869 62.0284C65.7028 62.1323 65.3229 62.1653 64.9217 62.1653C64.9099 62.0497 64.8934 61.1718 64.8934 60.9264V60.8461C65.2403 60.8461 65.5541 60.8697 65.6768 60.9358C65.6768 61.0161 65.6721 61.1199 65.6697 61.2048L65.7453 61.2379C65.7641 61.1081 65.8373 60.5582 65.8491 60.4851L65.7641 60.4922C65.7571 60.5488 65.7453 60.6054 65.724 60.6644C65.6273 60.6998 65.2379 60.7281 64.891 60.7281V60.6479C64.891 60.4096 64.9075 59.6332 64.9193 59.5789C65.1317 59.5789 65.7523 59.6308 65.8255 59.7488C65.8302 59.8291 65.8255 60.0108 65.8255 60.0391L65.9152 60.0674C65.9222 59.9423 65.9765 59.3193 65.9954 59.2344L65.9034 59.2509C65.8963 59.324 65.8845 59.3925 65.8703 59.4397C65.7618 59.468 64.8155 59.468 64.6881 59.468C64.5984 59.468 64.4662 59.4633 64.3341 59.4633C64.2019 59.4586 64.0674 59.4562 63.973 59.4515L63.9895 59.5364C64.0863 59.5482 64.3317 59.5765 64.4072 59.5931C64.4238 59.7181 64.4356 60.3577 64.4356 60.7187V60.9028C64.4356 61.3441 64.4238 62.0851 64.4072 62.1582H64.4096Z" fill="white"/>
<path d="M66.7174 62.2476C66.8307 62.3089 67.0785 62.349 67.272 62.349C67.8195 62.349 68.2608 62.0305 68.2608 61.4712C68.2608 60.9638 67.9233 60.7396 67.5882 60.5296C67.2814 60.3361 67.0101 60.1969 67.0101 59.9349C67.0101 59.7532 67.154 59.5337 67.5009 59.5337C67.7817 59.5337 67.9917 59.7508 68.0366 59.8948C68.0437 59.968 68.0531 60.0647 68.0531 60.2016L68.1451 60.2417C68.1451 59.9113 68.1853 59.5385 68.2419 59.1396L68.1499 59.1514C68.1263 59.26 68.105 59.3804 68.0767 59.4771C67.9799 59.4535 67.7699 59.404 67.5339 59.404C66.9393 59.404 66.7056 59.798 66.7056 60.1119C66.7056 60.5674 67.0195 60.7915 67.4136 61.0488C67.6755 61.2187 67.928 61.3791 67.928 61.7048C67.928 62.0021 67.6755 62.2122 67.357 62.2122C67.0785 62.2122 66.8425 62.0305 66.7339 61.7732C66.7222 61.7001 66.7009 61.4712 66.7056 61.4193L66.6136 61.3957C66.6254 61.4924 66.6018 61.9266 66.6018 62.0305C66.6018 62.1862 66.5452 62.6346 66.5381 62.6912L66.6301 62.6676C66.6584 62.5189 66.6986 62.3254 66.7174 62.2499V62.2476Z" fill="white"/>
<path d="M68.7351 59.8055C68.8436 59.7371 69.1339 59.6356 69.7781 59.6356C69.7899 59.7277 69.797 60.3223 69.797 60.622V60.8037C69.797 61.153 69.7899 61.8444 69.7781 62.1583C69.6814 62.1701 69.3557 62.2055 69.2637 62.2149L69.2424 62.2999C69.3581 62.2928 69.8418 62.2834 70.0235 62.2834C70.2454 62.2834 70.715 62.2904 70.8117 62.2999L70.7952 62.2149C70.7197 62.2079 70.3539 62.1701 70.2761 62.1583C70.2643 61.8374 70.2548 61.1577 70.2548 60.8037V60.622C70.2548 60.3318 70.2619 59.7442 70.2761 59.6356C70.6654 59.6356 71.2247 59.7229 71.3262 59.8055C71.3309 59.8952 71.3262 60.058 71.3191 60.2209L71.4111 60.2445C71.4229 60.1241 71.515 59.2982 71.5409 59.2061L71.4394 59.2227C71.4229 59.2982 71.3993 59.4232 71.3828 59.4728C71.3191 59.4846 70.6229 59.5129 70.0401 59.5129C69.4973 59.5129 68.8059 59.4846 68.7398 59.4728C68.728 59.3878 68.7209 59.2628 68.7162 59.2109L68.6242 59.1943C68.6289 59.5129 68.5793 60.0156 68.5628 60.2091L68.6548 60.1855C68.6784 60.0533 68.702 59.8952 68.7351 59.8079V59.8055Z" fill="white"/>
<path d="M70.3894 85.8843C70.3304 85.6625 69.9953 84.0295 69.9269 83.6354C70 83.6189 70.1746 83.5929 70.2218 83.5858L70.2313 83.5127C70.151 83.5198 69.8537 83.5269 69.7404 83.5269C69.6177 83.5269 69.377 83.5198 69.2637 83.5127L69.2803 83.5858C69.344 83.5953 69.4525 83.6094 69.521 83.6354C69.5139 83.7156 68.905 85.1764 68.8012 85.377C68.6927 85.1103 68.2608 83.9563 68.1593 83.6354C68.2254 83.6212 68.3245 83.5976 68.4236 83.5858L68.4378 83.5127C68.3387 83.5198 68.0602 83.5269 67.9092 83.5269C67.7228 83.5269 67.4467 83.5198 67.4018 83.5127L67.4231 83.5858C67.4608 83.5929 67.6779 83.6212 67.7723 83.6354C67.7204 83.9233 67.3357 85.6649 67.2579 85.8867C67.18 85.9079 67.0667 85.9221 67.0077 85.9315L66.9841 86.0047C67.0998 85.9976 67.2791 85.9905 67.3759 85.9905C67.4419 85.9905 67.8526 85.9976 67.8997 86.0047L67.8856 85.9315C67.8337 85.9245 67.6355 85.8961 67.5717 85.882C67.5576 85.4265 67.7652 84.4472 67.8573 83.9092H67.8714C67.9139 84.0437 68.577 85.8017 68.6738 86.0188C68.78 85.8183 69.4738 84.1263 69.5682 83.9115H69.5823C69.6248 84.1735 69.9316 85.7569 69.9387 85.8891C69.8679 85.8961 69.6012 85.9268 69.5516 85.9315L69.5446 86.0047C69.646 85.9976 70.0354 85.9905 70.1959 85.9905C70.3563 85.9905 70.5734 85.9976 70.6938 86.0047L70.6773 85.9315C70.6136 85.9221 70.472 85.9032 70.3847 85.882L70.3894 85.8843Z" fill="white"/>
<path d="M73.3486 85.8829C73.1857 85.5738 72.9686 84.9815 72.8695 84.7101C72.735 84.3396 72.5415 83.7874 72.499 83.6317C72.5792 83.6104 72.676 83.5963 72.7657 83.5868L72.7751 83.5137C72.6736 83.5208 72.3197 83.5278 72.1734 83.5278C72.1144 83.5278 71.8217 83.5208 71.7155 83.5137V83.5868C71.8029 83.5963 71.9209 83.6104 71.9964 83.6317C71.9468 83.7662 71.2459 85.6611 71.1185 85.8829C71.0241 85.9042 70.9179 85.9207 70.8164 85.9325L70.807 86.0057C70.8872 85.9986 71.1232 85.9915 71.2153 85.9915C71.3167 85.9915 71.6377 85.9986 71.7486 86.0057L71.7344 85.9325C71.6353 85.9231 71.5197 85.9089 71.4324 85.8829C71.4678 85.6116 71.6589 84.9461 71.6801 84.8965C71.8099 84.8753 72.3716 84.8517 72.4943 84.8517C72.5509 84.9532 72.8011 85.7012 72.8648 85.8853C72.7562 85.9089 72.6312 85.9231 72.5084 85.9349L72.4919 86.008C72.5863 86.0009 72.9851 85.9939 73.0866 85.9939C73.273 85.9939 73.6294 86.0009 73.6718 86.008L73.6624 85.9349C73.5562 85.9207 73.4547 85.9065 73.3533 85.8853L73.3486 85.8829ZM71.7273 84.729C71.7627 84.6134 71.9916 84.0022 72.1002 83.6883H72.1073C72.1663 83.8818 72.3881 84.5095 72.466 84.7431L71.725 84.729H71.7273Z" fill="white"/>
<path d="M75.3096 84.899L75.3309 84.9722C75.3969 84.9863 75.6164 85.0029 75.6872 85.0099C75.699 85.0737 75.7014 85.1822 75.7014 85.2908V85.4772C75.7014 85.6542 75.699 85.7722 75.6896 85.8265C75.5409 85.9043 75.3332 85.9185 75.2412 85.9185C74.479 85.9185 73.9905 85.1822 73.9905 84.6064C73.9905 84.0306 74.3987 83.587 75.0123 83.587C75.5857 83.587 75.8359 83.8206 75.9279 83.9291C75.9421 84.0094 75.9586 84.1344 75.9657 84.2524L76.0459 84.2949C76.0341 83.9669 76.0742 83.3439 76.0955 83.207L76.0152 83.2235C76.0058 83.2967 75.9657 83.4949 75.9515 83.5516C75.8359 83.5091 75.4654 83.4643 75.1633 83.4643C74.8046 83.4643 74.4483 83.5303 74.1274 83.7498C73.8182 83.9622 73.5704 84.3162 73.5704 84.8141C73.5704 85.2554 73.8277 85.6518 74.2713 85.876C74.5663 86.0247 74.9769 86.0459 75.2058 86.0459C75.4347 86.0459 75.9043 85.9893 76.1073 85.9303C76.1002 85.8312 76.1002 85.6447 76.1002 85.515V85.4017C76.1002 85.3026 76.1025 85.0713 76.1143 85.0099C76.1922 84.9934 76.3904 84.9745 76.4211 84.9722L76.44 84.899C76.3975 84.9061 76.0553 84.9085 75.8854 84.9085C75.7627 84.9085 75.4913 84.9038 75.3073 84.899H75.3096Z" fill="white"/>
<path d="M77.4264 83.6354C77.5538 83.6212 77.7261 83.5929 77.7969 83.5858L77.8134 83.5127C77.7544 83.5198 77.45 83.5269 77.2707 83.5269C76.9922 83.5269 76.6689 83.5198 76.6005 83.5127L76.617 83.5858C76.6831 83.5929 76.9167 83.6212 76.9875 83.6354C77.0016 83.7558 77.0064 84.4142 77.0064 84.5298V84.7375C77.0064 85.082 77.004 85.7357 76.9875 85.882C76.9143 85.8961 76.6736 85.9268 76.6146 85.9315L76.6005 86.0047C76.7067 85.9976 77.03 85.9905 77.1503 85.9905C77.3698 85.9905 77.7355 85.9976 77.8134 86.0047L77.7969 85.9315C77.7261 85.9245 77.5161 85.9032 77.4264 85.882C77.4122 85.8112 77.4075 85.2236 77.4075 84.7658V84.5463C77.4075 84.1121 77.4099 83.7038 77.4264 83.633V83.6354Z" fill="white"/>
<path d="M78.467 84.6067C78.467 84.0568 78.8729 83.5919 79.5148 83.5919C79.9703 83.5919 80.2983 83.8468 80.3644 84.0002C80.3738 84.0592 80.3856 84.2267 80.3856 84.2928L80.4658 84.3164C80.4682 83.9813 80.4894 83.6155 80.5437 83.2285L80.4635 83.245C80.454 83.2875 80.4116 83.5117 80.3903 83.5589C80.2912 83.5306 79.9632 83.4669 79.654 83.4669C79.2977 83.4669 78.9697 83.5117 78.6039 83.7595C78.2948 83.9671 78.047 84.3258 78.047 84.8143C78.047 85.2651 78.3184 85.6662 78.7762 85.8928C79.0617 86.0344 79.4464 86.0485 79.5762 86.0485C80.1307 86.0485 80.4847 85.9046 80.5673 85.8361L80.6169 85.6851C80.3667 85.8338 80.0505 85.8763 79.7815 85.8763C79.0381 85.8763 78.4694 85.2957 78.4694 84.6067H78.467Z" fill="white"/>
<path d="M82.4646 84.4016C82.4646 83.8517 82.8705 83.3869 83.5124 83.3869C83.9678 83.3869 84.2958 83.6417 84.3619 83.7951C84.3714 83.8541 84.3832 84.0216 84.3832 84.0877L84.4634 84.1113C84.4658 83.7762 84.487 83.4105 84.5413 83.0234L84.461 83.04C84.4516 83.0824 84.4091 83.3066 84.3879 83.3538C84.2888 83.3255 83.9607 83.2618 83.6516 83.2618C83.2953 83.2618 82.9673 83.3066 82.6015 83.5544C82.2923 83.7621 82.0446 84.1208 82.0446 84.6092C82.0446 85.06 82.3159 85.4611 82.7737 85.6877C83.0593 85.8293 83.4439 85.8434 83.5737 85.8434C84.1283 85.8434 84.4823 85.6995 84.5649 85.6311L84.6144 85.48C84.3643 85.6287 84.0481 85.6712 83.779 85.6712C83.0357 85.6712 82.467 85.0907 82.467 84.4016H82.4646Z" fill="white"/>
<path d="M86.592 83.307L86.6156 83.3802C86.7076 83.3873 86.9176 83.4156 87.0002 83.4298C87.0144 83.5454 87.0167 84.192 87.0167 84.3029V84.6262C87.0167 85.0486 86.9719 85.3601 86.7808 85.5395C86.6604 85.6527 86.507 85.7094 86.2734 85.7094C85.8935 85.7094 85.5749 85.4545 85.5749 84.7088V84.2392C85.5749 83.9371 85.582 83.4888 85.5914 83.4298C85.7047 83.4085 85.8628 83.392 85.9572 83.3802L85.9737 83.307C85.8864 83.3141 85.615 83.3212 85.4522 83.3212C85.1808 83.3212 84.9542 83.3141 84.8575 83.307L84.8693 83.3802C84.9637 83.3944 85.0746 83.4109 85.1477 83.4298C85.1572 83.5289 85.1643 83.9088 85.1643 84.2274V84.7772C85.1643 85.3931 85.4994 85.8439 86.2285 85.8439C86.5778 85.8439 86.802 85.7424 86.9648 85.5961C87.2362 85.3554 87.3094 85.0179 87.3094 84.6191C87.3094 84.4917 87.3023 84.3241 87.3023 84.1849V84.015C87.3023 83.9206 87.3094 83.4793 87.3212 83.4274C87.4132 83.4062 87.5076 83.392 87.5666 83.3778L87.5878 83.3047C87.5288 83.3118 87.34 83.3188 87.1583 83.3188C86.9389 83.3188 86.6746 83.3118 86.5872 83.3047L86.592 83.307Z" fill="white"/>
<path d="M89.1831 84.4583V84.4489C89.2988 84.3993 89.5064 84.2861 89.6386 84.0831C89.7259 83.9415 89.7306 83.8542 89.7306 83.7527C89.7306 83.5875 89.6244 83.2949 88.9377 83.2949C88.7159 83.2949 88.0433 83.3185 87.9254 83.3232L87.9419 83.3964C88.0433 83.4035 88.1849 83.4106 88.3053 83.4318C88.3194 83.5757 88.3289 84.1256 88.3289 84.3804V84.6023C88.3289 84.9114 88.3289 85.4377 88.3053 85.6807C88.2321 85.702 88.0197 85.7232 87.9395 85.7303L87.9254 85.8034C88.0268 85.7964 88.3832 85.7893 88.461 85.7893C88.5389 85.7893 88.6663 85.7964 88.789 85.8034C88.9165 85.8105 89.0368 85.8176 89.084 85.8176C89.5749 85.8176 89.9053 85.5462 89.9053 85.1403C89.9053 84.7675 89.5324 84.5173 89.1831 84.4607V84.4583ZM88.7112 84.2625C88.7112 83.9462 88.7135 83.446 88.7206 83.4106C88.7513 83.3964 88.8056 83.3893 88.8622 83.3893C89.1501 83.3893 89.3389 83.5946 89.3389 83.8967C89.3389 84.076 89.2657 84.2459 89.1336 84.3403C88.9991 84.4394 88.8197 84.4607 88.7112 84.4607V84.2625ZM89.0368 85.7043C88.966 85.7043 88.8362 85.6878 88.756 85.6312C88.7395 85.5863 88.7135 85.0601 88.7135 84.758V84.5669C88.7985 84.5551 88.9873 84.5763 89.1289 84.6518C89.3696 84.7793 89.5135 85.0506 89.5135 85.2748C89.5135 85.5179 89.3719 85.7043 89.0368 85.7043Z" fill="white"/>
<path d="M91.8639 85.5643C91.7011 85.6564 91.3707 85.6847 91.0191 85.6847C91.0097 85.5832 90.9955 84.8139 90.9955 84.5992V84.5284C91.2976 84.5284 91.5737 84.5496 91.6822 84.6062C91.6822 84.677 91.6799 84.7691 91.6751 84.8422L91.7412 84.8705C91.7601 84.7573 91.8214 84.2759 91.8332 84.2122L91.7601 84.2192C91.753 84.2688 91.7412 84.3183 91.7247 84.3703C91.6397 84.4009 91.2976 84.4269 90.9955 84.4269V84.3561C90.9955 84.1484 91.0097 83.4688 91.0191 83.4192C91.2055 83.4192 91.7483 83.4641 91.812 83.5679C91.8167 83.6387 91.812 83.7968 91.812 83.8228L91.8899 83.8464C91.897 83.7378 91.9418 83.1903 91.9607 83.1172L91.8804 83.1313C91.8734 83.1951 91.8639 83.2541 91.8521 83.2965C91.7577 83.3201 90.9294 83.3201 90.8162 83.3201C90.7383 83.3201 90.6227 83.3154 90.507 83.3154C90.3914 83.3131 90.2734 83.3083 90.1908 83.306L90.205 83.3791C90.2899 83.3886 90.5047 83.4145 90.5707 83.4287C90.5849 83.5372 90.5943 84.0989 90.5943 84.4151V84.5779C90.5943 84.9649 90.5849 85.6139 90.5707 85.6776C90.4763 85.7012 90.264 85.7224 90.2073 85.7272L90.1908 85.8003C90.3277 85.7932 90.6061 85.7862 90.7265 85.7862C90.9483 85.7862 91.7318 85.8003 91.8332 85.8168C91.838 85.8735 91.838 85.9372 91.838 86.0316L91.9111 86.0457C91.9253 85.8688 92.0032 85.3331 92.0268 85.2316L91.9465 85.2528C91.9253 85.3307 91.9088 85.4393 91.8686 85.562L91.8639 85.5643Z" fill="white"/>
</g>
<defs>
<clipPath id="clip0_2890_194104">
<rect width="140" height="140" fill="white" transform="translate(0 0.478516)"/>
</clipPath>
</defs>
</svg>
