<svg width="150" height="100" viewBox="0 0 150 100" fill="none" xmlns="http://www.w3.org/2000/svg">
<g clip-path="url(#clip0_2760_91743)">
<path d="M150 0H0V100H150V0Z" fill="#007510"/>
<path d="M95.061 43.2338C95.5221 43.2338 96.1333 43.1588 96.8999 43.0033C97.2055 43.0033 97.361 42.7727 97.361 42.3144V38.2921H97.4749C98.2388 40.7449 99.6971 42.4283 101.842 43.3477C102.3 42.3533 102.95 41.7005 103.794 41.3949V41.0505C101.419 40.7449 99.5416 39.8255 98.1638 38.2921H102.992C103.375 38.2171 103.603 38.0616 103.68 37.8338V37.6033L103.567 37.4894L101.269 35.881L100.119 37.606H97.361V36.8005C97.9721 36.5699 98.2805 36.3033 98.2805 35.9949C98.2805 35.8421 98.1666 35.7283 97.936 35.6505H97.8221L95.1777 35.4199V37.6033H92.9944L92.8805 37.4894L90.9277 35.9949L89.7777 37.6033H87.9388V36.6838C88.4749 36.4533 88.7444 36.2255 88.7444 35.9949C88.7444 35.8421 88.6666 35.7283 88.5138 35.6505H88.3999L85.7555 35.4199V37.6033H81.7333V38.2921H84.836C84.2221 39.6699 83.0721 41.2421 81.3888 43.0033L81.7333 43.4616C83.2638 42.6199 84.6055 41.5838 85.7555 40.3588V41.8533C85.6777 42.6199 85.6416 43.156 85.6416 43.4616C85.7944 43.4616 86.0249 43.4227 86.3305 43.3477C86.8666 43.2727 87.2499 43.1949 87.4805 43.1171C87.786 43.0421 87.9388 42.7727 87.9388 42.3116V39.3227C88.6277 39.8588 89.0888 40.4727 89.3194 41.1616L89.4333 41.2755C89.586 41.5838 89.7777 41.7338 90.0083 41.7338C90.6971 41.6588 91.0805 41.2366 91.1583 40.4699C91.1583 39.4755 90.0833 38.9394 87.9416 38.8616V38.2866H93.9166C93.1499 39.5894 91.9999 40.8921 90.4694 42.1949L89.3194 41.9644C89.2416 42.5005 89.1638 43.1533 89.0888 43.9171C89.0888 43.6866 89.0499 43.8783 88.9749 44.4921H87.2499L83.4583 43.6866V46.6755C83.4583 49.2033 83.4194 50.9671 83.3444 51.9616C83.9555 51.9616 84.6083 51.8866 85.2971 51.731C85.6805 51.656 85.8721 51.3866 85.8721 50.9255V50.1199H89.7805C89.0138 52.8033 85.5666 55.2533 79.436 57.4755L79.6666 57.9338C86.1777 56.7838 90.1638 54.6783 91.6194 51.6116V54.7144C91.5416 56.3227 92.4249 57.0894 94.2638 57.0116H100.7C102.769 57.0116 103.842 56.4755 103.917 55.4033C103.917 55.1727 103.803 54.9838 103.572 54.8283C103.189 54.5977 102.997 54.2533 102.997 53.7949L102.883 51.1505L102.539 51.0366L101.619 54.1394C101.542 54.7533 101.044 55.0588 100.125 55.0588H95.1833C94.3388 55.0588 93.9555 54.7533 94.0333 54.1394V50.1171H97.8249V50.6727L96.4471 50.3477C96.2916 50.8838 96.0638 51.4227 95.7583 51.956C95.5277 52.3394 95.1444 52.6449 94.6083 52.8755L95.1833 54.6005L95.2971 54.7144C95.2971 54.7921 95.336 54.8283 95.411 54.8283C95.7166 54.8283 95.8721 54.5977 95.8721 54.1394C97.0221 53.9866 98.1305 53.7199 99.2055 53.3338C99.2583 53.4394 99.2971 53.5171 99.3221 53.5671C99.3971 53.8727 99.436 54.0644 99.436 54.1394C99.511 54.5227 99.7027 54.7144 100.011 54.7144C100.622 54.6394 100.969 54.2949 101.044 53.681C101.044 52.8394 100.239 52.1505 98.6305 51.6116L98.3999 51.8421C98.6305 52.0727 98.8194 52.3783 98.9749 52.7616L96.2166 52.8755C96.8277 52.4171 97.3666 51.956 97.8249 51.4977C98.361 51.4227 98.6305 51.2671 98.6305 51.0394L98.3999 50.8088L97.9027 50.6921C98.4944 50.6866 99.1194 50.6116 99.7805 50.4644C100.164 50.3894 100.355 50.1199 100.355 49.6588C100.278 49.0477 100.242 47.8588 100.242 46.0949V45.6366C100.853 45.2533 101.161 44.9088 101.161 44.6033C101.161 44.2977 101.005 44.106 100.7 44.0283L98.286 43.1088L97.3666 44.4866H90.1249C90.586 44.181 91.0444 43.7977 91.5055 43.3366C92.0416 43.3366 92.311 43.106 92.311 42.6477C92.311 42.4171 92.0805 42.3033 91.6221 42.3033C92.8471 41.6144 94.036 40.7727 95.186 39.7755V41.2699C95.1083 42.2671 95.0721 42.9171 95.0721 43.2227L95.061 43.2338ZM92.8777 46.106C92.9527 45.6477 92.9916 45.3005 92.9916 45.0727H97.8194V46.9116H92.8777V46.106ZM92.7638 47.4866H97.8194V49.556H92.4166C92.6471 48.8671 92.761 48.1783 92.761 47.4866H92.7638ZM89.8888 49.5533H85.8666V47.4838H90.3499C90.2721 48.3283 90.1194 49.0171 89.8916 49.5533H89.8888ZM90.4638 45.0727V46.9116H85.8666V45.0727H90.4638Z" fill="white"/>
<path d="M78.7416 42.0837C78.8944 48.367 77.8971 53.5753 75.7527 57.7142L76.2138 58.0587C79.8138 54.7642 81.4999 49.3642 81.2694 41.8531V34.9587H103.105C103.564 34.8837 103.794 34.7281 103.794 34.5003C103.794 34.3475 103.755 34.2337 103.68 34.1559L100.922 32.317L99.3138 34.3864H91.4999C92.2638 33.9281 92.6499 33.4281 92.6499 32.892C92.6499 31.742 91.3082 31.167 88.6277 31.167L88.5138 31.3975C89.1249 32.0114 89.586 32.817 89.8944 33.8114C89.9694 34.042 90.1249 34.2337 90.3527 34.3864H82.4221L78.6305 33.467C78.7055 34.8448 78.7444 36.1503 78.7444 37.3753V42.0864L78.7416 42.0837Z" fill="white"/>
<path d="M49.1056 58.4865C46.4222 57.2615 44.3167 55.1921 42.7833 52.2809H47.8389C48.375 52.2809 48.6445 52.1671 48.6445 51.9365C48.6445 51.7059 48.5306 51.5532 48.3 51.4754L46.1167 49.9809L44.9667 51.5893H41.6333V49.5198C42.3222 49.3671 42.6667 49.0615 42.6667 48.6004C42.6667 48.4476 42.5111 48.3698 42.2083 48.3698L38.9917 48.0254V51.5893H35.2L33.1306 49.9809L31.8667 51.5893H29.6833V49.6365C30.3722 49.4059 30.7167 49.1004 30.7167 48.7171C30.7167 48.4865 30.6028 48.3726 30.3722 48.3726L27.0389 48.1421C27.1139 48.9087 27.1528 50.0587 27.1528 51.5893H21.75V52.2782H26.3472C24.9695 55.4948 23.1306 58.2171 20.8306 60.4393L21.175 60.7837C23.3972 59.7115 25.3889 57.9504 27.15 55.4976V59.8643C27.0722 61.2448 27.0361 62.2782 27.0361 62.9671C27.5722 62.9671 28.3 62.8893 29.2195 62.7365C29.6028 62.6587 29.7945 62.3921 29.7945 61.9309V59.6309C29.7167 58.4809 29.6806 57.6782 29.6806 57.2171V54.0004C30.5222 54.9198 31.0972 55.9948 31.4056 57.2171C31.6361 57.7532 31.9417 58.0226 32.325 58.0226C33.2445 57.8698 33.7417 57.2948 33.8195 56.2976C33.8195 55.0726 32.4417 54.1143 29.6833 53.4254V52.2754H37.8445C36.1583 55.5698 33.9361 58.4059 31.1778 60.7809L31.5222 61.2421C34.6639 59.7865 37.1528 57.7559 38.9917 55.1504V57.3337C38.9917 59.8615 38.9528 61.7393 38.8778 62.9643C39.6417 62.9643 40.3722 62.8865 41.0611 62.7337C41.4445 62.6559 41.6361 62.3893 41.6361 61.9282V52.2754H42.0945C42.7056 56.1837 44.1639 59.0171 46.4611 60.7809C47.15 59.7865 47.9917 59.2115 48.9889 59.0559L49.1028 58.4809L49.1056 58.4865Z" fill="white"/>
<path d="M21.639 48.3719L21.8696 48.8331C26.7723 47.6081 30.6807 45.4636 33.5918 42.3969V46.3053C33.514 47.533 33.4779 48.4136 33.4779 48.9497C34.5501 48.9497 35.3168 48.8747 35.7751 48.7192C36.2335 48.6442 36.4251 48.3358 36.3501 47.7997C36.3501 47.4942 36.3112 46.7664 36.2362 45.6164V41.0192H37.0418C38.7251 44.4664 41.714 46.8053 46.0057 48.0303C46.6946 46.6525 47.4612 45.8858 48.3029 45.733L48.4168 45.1581C43.8946 44.6997 40.4085 43.3192 37.9585 41.0219H46.8085C47.2668 41.0219 47.4973 40.9081 47.4973 40.6775C47.4973 40.5247 47.4196 40.4108 47.2668 40.333L44.739 38.3803L43.2446 40.333H36.2335V38.1497C36.9223 37.9192 37.2668 37.6136 37.2668 37.2303C37.2668 37.0775 37.1529 36.9636 36.9223 36.8858L33.4751 36.6553C33.5501 37.1914 33.589 38.3414 33.589 40.1025V40.333H22.5557V41.0219H31.1751C28.8779 43.7803 25.6973 46.2331 21.6362 48.3775L21.639 48.3719Z" fill="white"/>
<path d="M59.4555 57.267C60.4499 57.1142 60.986 56.5031 61.0638 55.4281C60.986 54.0475 59.5305 52.7475 56.6971 51.5197V49.4503H61.5249C61.9083 49.3753 62.136 49.2197 62.2138 48.9892C62.2138 48.8364 62.136 48.7225 61.9833 48.6447L59.686 47.0364L58.4221 48.7614H56.6971V43.5892C57.386 43.3586 57.7305 43.0531 57.7305 42.6697C57.7305 42.517 57.5749 42.4392 57.2721 42.4392L53.8249 42.0947C53.9777 44.0114 54.0555 45.7725 54.0555 47.3808V48.7614H48.8833V49.4503H53.3666C52.3694 53.6642 50.6833 57.9558 48.311 62.3225L48.6555 62.667C50.8777 60.3697 52.6777 57.8031 54.0583 54.967V58.7586C54.0583 61.9753 54.0194 65.1558 53.9444 68.2975C54.6333 68.3725 55.3221 68.2975 56.0138 68.0669C56.4721 67.9114 56.7027 67.6086 56.7027 67.1475V52.2058C57.6221 53.5086 58.2333 54.8892 58.5416 56.342C58.6944 56.9558 59.0027 57.2614 59.461 57.2614L59.4555 57.267Z" fill="white"/>
<path d="M69.3388 49.4497C69.875 55.5802 71.4833 60.1775 74.1666 63.2413C74.8555 61.7858 75.6972 61.0191 76.6944 60.9441L76.8083 60.483C74.05 58.4136 71.7888 54.7358 70.0277 49.4497H75.2C75.6611 49.3747 75.8888 49.2191 75.8888 48.9886C75.8888 48.8358 75.8111 48.758 75.6583 48.758L73.1305 46.9191L71.6361 48.758H68.8777V43.8163C69.5666 43.5858 69.9111 43.2802 69.9111 42.8969C69.9111 42.6663 69.7555 42.5525 69.45 42.5525L66.0027 42.208C66.0777 43.2052 66.1166 44.9663 66.1166 47.4941V48.758H62.325V49.4469H65.1972C63.6638 54.2747 61.3638 58.8719 58.3027 63.2386L58.7611 63.583C61.9027 60.8247 64.3527 57.608 66.1166 53.9302V58.5275C66.1166 61.9747 66.0777 65.233 66.0027 68.2969C66.6916 68.2969 67.4583 68.2191 68.3 68.0663C68.7611 67.9108 68.9888 67.608 68.9888 67.1469C68.9111 64.7719 68.875 61.708 68.875 57.9525V49.4469H69.3361L69.3388 49.4497Z" fill="white"/>
<path d="M115.144 47.5719C116.294 47.4969 116.906 46.8441 116.983 45.6191C116.906 44.0108 115.297 42.8608 112.156 42.1719L111.925 42.4024C112.919 43.5524 113.608 44.9302 113.994 46.5385C114.147 47.2274 114.531 47.5719 115.144 47.5719Z" fill="white"/>
<path d="M129.053 47.9162L125.95 45.6162L124.225 47.9162H102.158V48.6051H110.433V49.7551C110.433 54.7357 109.858 58.5301 108.708 61.1329C107.633 63.6607 105.45 66.0745 102.158 68.3745L102.503 68.8329C109.475 66.3801 113.036 61.6329 113.192 54.5829H121.581C121.35 57.7995 121.122 60.7884 120.892 63.5468C120.736 65.0023 119.742 65.6551 117.903 65.4995L113.881 65.1551L113.65 65.7301C116.331 66.1134 117.711 66.994 117.786 68.3745C121.617 68.219 123.57 66.6107 123.647 63.5468C124.031 60.4051 124.258 57.6107 124.336 55.1579C125.1 54.6995 125.486 54.2773 125.486 53.894C125.486 53.6634 125.372 53.4745 125.142 53.319L121.925 52.0551L120.892 53.894H113.306V51.9412C113.381 51.0218 113.42 50.294 113.42 49.7579V48.6079H128.475C128.858 48.6079 129.086 48.494 129.164 48.2634C129.164 48.1107 129.125 47.9968 129.05 47.919L129.053 47.9162Z" fill="white"/>
<path d="M57.5388 40.2053C57.4055 40.2442 57.0944 40.2608 57.036 40.2719L57.0166 40.3719C57.1833 40.3636 57.5388 40.3525 57.8083 40.3525C58.1249 40.3525 58.5138 40.3608 58.6805 40.3719L58.661 40.2719C58.5527 40.2636 58.3194 40.2442 58.1388 40.2053C58.1138 40.0719 58.0999 39.2358 58.0999 38.8414V38.6997C58.3694 38.6997 58.9527 38.733 59.0666 38.8192C59.0805 38.9608 59.0916 39.1219 59.0916 39.2219L59.1916 39.2497C59.1999 38.8942 59.2388 38.4219 59.2666 38.1942L59.1666 38.2081C59.1472 38.2969 59.1249 38.4164 59.0999 38.4886C58.9472 38.5358 58.3333 38.5553 58.0999 38.5553V38.4525C58.0999 38.0969 58.1138 37.2497 58.1388 37.183C58.3749 37.183 59.1333 37.2442 59.3027 37.4053C59.3166 37.4942 59.3277 37.7025 59.3277 37.7803L59.436 37.8192C59.4416 37.4692 59.4777 36.8719 59.5166 36.6553L59.4083 36.6775C59.3944 36.783 59.361 36.958 59.3472 37.0136C59.2472 37.0414 58.0499 37.0414 57.8472 37.0414C57.6638 37.0414 57.1833 37.033 57.0194 37.0219L57.0388 37.1219C57.1805 37.1358 57.4805 37.1608 57.5416 37.1886C57.5555 37.3219 57.5666 38.083 57.5666 38.5108V38.8053C57.5666 39.3303 57.5583 40.1025 57.5416 40.2108L57.5388 40.2053Z" fill="white"/>
<path d="M61.8527 40.4276C63.0166 40.4276 63.8971 39.6804 63.8971 38.5193C63.8971 38.0776 63.6971 37.6193 63.3249 37.3443C62.9138 37.0415 62.5138 36.9609 62.0138 36.9609C60.7055 36.9609 59.936 37.8137 59.936 38.7498C59.936 39.1943 60.0444 39.5415 60.3916 39.8971C60.8333 40.3471 61.3777 40.4276 61.8555 40.4276H61.8527ZM61.836 37.1415C62.6221 37.1415 63.3194 37.8609 63.3194 38.8637C63.3194 39.6221 62.761 40.2332 62.0833 40.2332C61.161 40.2332 60.4777 39.3998 60.4777 38.5526C60.4777 37.5776 61.1888 37.1415 61.836 37.1415Z" fill="white"/>
<path d="M64.7361 40.2059C64.6028 40.2393 64.3 40.2671 64.2333 40.2726L64.2139 40.3726C64.3222 40.3643 64.8194 40.3532 65.0139 40.3532C65.2305 40.3532 65.7111 40.3615 65.8278 40.3726L65.8083 40.2726C65.7055 40.2643 65.3916 40.2309 65.3111 40.2059C65.2972 39.9893 65.2889 39.2587 65.2889 38.9504V38.8282C65.3694 38.8282 65.5639 38.8143 65.7444 38.8004C65.8194 38.9004 67.0805 40.3532 67.4111 40.506L67.6194 40.4726C67.1278 39.9504 66.3639 38.7115 66.3139 38.5921C66.6778 38.3893 66.9805 37.9948 66.9805 37.6976C66.9805 37.4365 66.825 37.2559 66.5722 37.1587C66.25 37.0309 65.6861 37.0254 65.2361 37.0254L64.2139 37.0309L64.2278 37.1309C64.3305 37.1393 64.6528 37.1698 64.7333 37.1865C64.7528 37.2754 64.7583 38.1865 64.7583 38.3559V38.6448C64.7583 39.1421 64.7528 40.0698 64.7333 40.2087L64.7361 40.2059ZM65.2916 38.5365C65.2916 38.2004 65.3 37.3532 65.3139 37.1587C66.1333 37.1587 66.4083 37.5282 66.4083 37.8309C66.4083 38.3004 66.0722 38.5171 65.8694 38.5921C65.6666 38.6671 65.4611 38.6809 65.2916 38.6809V38.5337V38.5365Z" fill="white"/>
<path d="M68.4167 40.2053C68.2889 40.2387 68.0056 40.2664 67.9278 40.272L67.9028 40.372C68.0862 40.3637 68.4612 40.3526 68.6223 40.3526C68.9195 40.3526 69.9723 40.372 70.1084 40.3942C70.1139 40.4692 70.1139 40.5553 70.1139 40.6831L70.2139 40.7026C70.2334 40.4664 70.3362 39.747 70.3695 39.6081L70.2612 39.6359C70.2334 39.7387 70.2084 39.8859 70.1556 40.0526C69.9389 40.1748 69.4917 40.2137 69.0195 40.2137C69.0056 40.0776 68.9862 39.0442 68.9862 38.7553V38.6609C69.3945 38.6609 69.7639 38.6887 69.9084 38.7664C69.9084 38.8609 69.9028 38.9831 69.9001 39.0831L69.9889 39.122C70.0112 38.9692 70.0973 38.322 70.1112 38.2359L70.0112 38.2442C70.0028 38.3109 69.9889 38.3776 69.9639 38.447C69.8501 38.4887 69.3917 38.522 68.9834 38.522V38.4276C68.9834 38.147 69.0028 37.2331 69.0167 37.1692C69.2667 37.1692 69.9973 37.2303 70.0834 37.3692C70.0889 37.4637 70.0834 37.6776 70.0834 37.7109L70.1889 37.7442C70.1973 37.597 70.2612 36.8637 70.2834 36.7637L70.1751 36.7831C70.1667 36.8692 70.1528 36.9498 70.1362 37.0053C70.0084 37.0387 68.8945 37.0387 68.7445 37.0387C68.6389 37.0387 68.4834 37.0331 68.3278 37.0331C68.1723 37.0276 68.0139 37.0248 67.9028 37.0192L67.9223 37.1192C68.0362 37.1331 68.3251 37.1664 68.4139 37.1859C68.4334 37.3331 68.4473 38.0859 68.4473 38.5109V38.7276C68.4473 39.247 68.4334 40.1192 68.4139 40.2053H68.4167Z" fill="white"/>
<path d="M71.1332 40.3107C71.2666 40.3829 71.5582 40.4301 71.786 40.4301C72.4304 40.4301 72.9499 40.0551 72.9499 39.3968C72.9499 38.7996 72.5527 38.5357 72.1582 38.2885C71.7971 38.0607 71.4777 37.8968 71.4777 37.5885C71.4777 37.3746 71.6471 37.1162 72.0554 37.1162C72.386 37.1162 72.6332 37.3718 72.686 37.5412C72.6943 37.6273 72.7054 37.7412 72.7054 37.9023L72.8138 37.9496C72.8138 37.5607 72.861 37.1218 72.9277 36.6523L72.8193 36.6662C72.7916 36.794 72.7666 36.9357 72.7332 37.0496C72.6193 37.0218 72.3721 36.9635 72.0943 36.9635C71.3943 36.9635 71.1193 37.4273 71.1193 37.7968C71.1193 38.3329 71.4888 38.5968 71.9527 38.8996C72.261 39.0996 72.5582 39.2885 72.5582 39.6718C72.5582 40.0218 72.261 40.269 71.886 40.269C71.5582 40.269 71.2804 40.0551 71.1527 39.7523C71.1388 39.6662 71.1138 39.3968 71.1193 39.3357L71.011 39.3079C71.0249 39.4218 70.9971 39.9329 70.9971 40.0551C70.9971 40.2385 70.9305 40.7662 70.9221 40.8329L71.0305 40.8051C71.0638 40.6301 71.111 40.4023 71.1332 40.3135V40.3107Z" fill="white"/>
<path d="M73.5084 37.4362C73.6362 37.3557 73.9779 37.2362 74.7362 37.2362C74.7501 37.3446 74.7584 38.0446 74.7584 38.3974V38.6112C74.7584 39.0224 74.7501 39.8362 74.7362 40.2057C74.6223 40.2196 74.239 40.2612 74.1307 40.2724L74.1057 40.3724C74.2418 40.364 74.8112 40.3529 75.0251 40.3529C75.2862 40.3529 75.839 40.3612 75.9529 40.3724L75.9334 40.2724C75.8446 40.264 75.414 40.2196 75.3223 40.2057C75.3084 39.8279 75.2973 39.0279 75.2973 38.6112V38.3974C75.2973 38.0557 75.3057 37.364 75.3223 37.2362C75.7807 37.2362 76.439 37.339 76.5584 37.4362C76.564 37.5418 76.5584 37.7335 76.5501 37.9251L76.6584 37.9529C76.6723 37.8112 76.7807 36.839 76.8112 36.7307L76.6918 36.7501C76.6723 36.839 76.6446 36.9862 76.6251 37.0446C76.5501 37.0585 75.7307 37.0918 75.0446 37.0918C74.4057 37.0918 73.5918 37.0585 73.514 37.0446C73.5001 36.9446 73.4918 36.7974 73.4862 36.7362L73.3779 36.7168C73.3834 37.0918 73.3251 37.6835 73.3057 37.9112L73.414 37.8835C73.4418 37.7279 73.4696 37.5418 73.5084 37.439V37.4362Z" fill="white"/>
<path d="M75.4556 68.1335C75.3862 67.8724 74.9917 65.9501 74.9112 65.4862C74.9973 65.4668 75.2028 65.4362 75.2584 65.4279L75.2695 65.3418C75.175 65.3501 74.825 65.3585 74.6917 65.3585C74.5473 65.3585 74.2639 65.3501 74.1306 65.3418L74.15 65.4279C74.225 65.439 74.3528 65.4557 74.4334 65.4862C74.425 65.5807 73.7084 67.3001 73.5862 67.5362C73.4584 67.2224 72.95 65.864 72.8306 65.4862C72.9084 65.4696 73.025 65.4418 73.1417 65.4279L73.1584 65.3418C73.0417 65.3501 72.7139 65.3585 72.5362 65.3585C72.3167 65.3585 71.9917 65.3501 71.9389 65.3418L71.9639 65.4279C72.0084 65.4362 72.2639 65.4696 72.375 65.4862C72.3139 65.8251 71.8612 67.8751 71.7695 68.1362C71.6778 68.1612 71.5445 68.1779 71.475 68.189L71.4473 68.2751C71.5834 68.2668 71.7945 68.2585 71.9084 68.2585C71.9862 68.2585 72.4695 68.2668 72.525 68.2751L72.5084 68.189C72.4473 68.1807 72.2139 68.1474 72.1389 68.1307C72.1223 67.5946 72.3667 66.4418 72.475 65.8085H72.4917C72.5417 65.9668 73.3223 68.0362 73.4362 68.2918C73.5612 68.0557 74.3778 66.064 74.4889 65.8112H74.5056C74.5556 66.1196 74.9167 67.9835 74.925 68.139C74.8417 68.1474 74.5278 68.1835 74.4695 68.189L74.4612 68.2751C74.5806 68.2668 75.0389 68.2585 75.2278 68.2585C75.4167 68.2585 75.6723 68.2668 75.8139 68.2751L75.7945 68.189C75.7195 68.1779 75.5528 68.1557 75.45 68.1307L75.4556 68.1335Z" fill="white"/>
<path d="M78.9389 68.1336C78.7473 67.7697 78.4917 67.0725 78.375 66.7531C78.2167 66.3169 77.9889 65.6669 77.9389 65.4836C78.0334 65.4586 78.1473 65.4419 78.2528 65.4308L78.2639 65.3447C78.1445 65.3531 77.7278 65.3614 77.5556 65.3614C77.4862 65.3614 77.1417 65.3531 77.0167 65.3447V65.4308C77.1195 65.4419 77.2584 65.4586 77.3473 65.4836C77.2889 65.6419 76.4639 67.8725 76.3139 68.1336C76.2028 68.1586 76.0778 68.1781 75.9584 68.1919L75.9473 68.2781C76.0417 68.2697 76.3195 68.2614 76.4278 68.2614C76.5473 68.2614 76.925 68.2697 77.0556 68.2781L77.0389 68.1919C76.9223 68.1808 76.7862 68.1642 76.6834 68.1336C76.725 67.8142 76.95 67.0308 76.975 66.9725C77.1278 66.9475 77.7889 66.9197 77.9334 66.9197C78 67.0392 78.2945 67.9197 78.3695 68.1364C78.2417 68.1642 78.0945 68.1808 77.95 68.1947L77.9306 68.2808C78.0417 68.2725 78.5112 68.2642 78.6306 68.2642C78.85 68.2642 79.2695 68.2725 79.3195 68.2808L79.3084 68.1947C79.1834 68.1781 79.0639 68.1614 78.9445 68.1364L78.9389 68.1336ZM77.0306 66.7753C77.0723 66.6392 77.3417 65.9197 77.4695 65.5503H77.4778C77.5473 65.7781 77.8084 66.5169 77.9 66.7919L77.0278 66.7753H77.0306Z" fill="white"/>
<path d="M81.2472 66.9751L81.2722 67.0612C81.3499 67.0778 81.6083 67.0973 81.6916 67.1056C81.7055 67.1806 81.7083 67.3084 81.7083 67.4362V67.6556C81.7083 67.864 81.7055 68.0028 81.6944 68.0667C81.5194 68.1584 81.275 68.1751 81.1666 68.1751C80.2694 68.1751 79.6944 67.3084 79.6944 66.6306C79.6944 65.9528 80.175 65.4306 80.8972 65.4306C81.5722 65.4306 81.8666 65.7056 81.9749 65.8334C81.9916 65.9278 82.0111 66.0751 82.0194 66.214L82.1138 66.264C82.0999 65.8778 82.1472 65.1445 82.1722 64.9834L82.0777 65.0028C82.0666 65.089 82.0194 65.3223 82.0027 65.389C81.8666 65.339 81.4305 65.2862 81.075 65.2862C80.6527 65.2862 80.2333 65.364 79.8555 65.6223C79.4916 65.8723 79.2 66.289 79.2 66.8751C79.2 67.3945 79.5027 67.8612 80.025 68.1251C80.3722 68.3001 80.8555 68.3251 81.1249 68.3251C81.3944 68.3251 81.9472 68.2584 82.1861 68.189C82.1777 68.0723 82.1777 67.8528 82.1777 67.7001V67.5667C82.1777 67.4501 82.1805 67.1778 82.1944 67.1056C82.2861 67.0862 82.5194 67.064 82.5555 67.0612L82.5777 66.9751C82.5277 66.9834 82.125 66.9862 81.925 66.9862C81.7805 66.9862 81.4611 66.9806 81.2444 66.9751H81.2472Z" fill="white"/>
<path d="M83.7388 65.4862C83.8888 65.4696 84.0916 65.4362 84.1749 65.4279L84.1944 65.3418C84.1249 65.3501 83.7666 65.3585 83.5555 65.3585C83.2277 65.3585 82.8472 65.3501 82.7666 65.3418L82.786 65.4279C82.8638 65.4362 83.1388 65.4696 83.2222 65.4862C83.2388 65.6279 83.2444 66.4029 83.2444 66.539V66.7835C83.2444 67.189 83.2416 67.9585 83.2222 68.1307C83.1361 68.1474 82.8527 68.1835 82.7833 68.189L82.7666 68.2751C82.8916 68.2668 83.2722 68.2585 83.4138 68.2585C83.6722 68.2585 84.1027 68.2668 84.1944 68.2751L84.1749 68.189C84.0916 68.1807 83.8444 68.1557 83.7388 68.1307C83.7222 68.0474 83.7166 67.3557 83.7166 66.8168V66.5585C83.7166 66.0474 83.7194 65.5668 83.7388 65.4835V65.4862Z" fill="white"/>
<path d="M84.9639 66.631C84.9639 65.9838 85.4417 65.4366 86.1973 65.4366C86.7334 65.4366 87.1195 65.7366 87.1973 65.9171C87.2084 65.9866 87.2223 66.1838 87.2223 66.2616L87.3167 66.2893C87.3195 65.8949 87.3445 65.4643 87.4084 65.0088L87.3139 65.0282C87.3028 65.0782 87.2528 65.3421 87.2278 65.3977C87.1111 65.3643 86.725 65.2893 86.3611 65.2893C85.9417 65.2893 85.5556 65.3421 85.125 65.6338C84.7612 65.8782 84.4695 66.3005 84.4695 66.8755C84.4695 67.406 84.7889 67.8782 85.3278 68.1449C85.6639 68.3116 86.1167 68.3282 86.2695 68.3282C86.9223 68.3282 87.3389 68.1588 87.4361 68.0782L87.4945 67.9005C87.2 68.0755 86.8278 68.1255 86.5112 68.1255C85.6362 68.1255 84.9667 67.4421 84.9667 66.631H84.9639Z" fill="white"/>
<path d="M89.6695 66.3888C89.6695 65.7416 90.1473 65.1944 90.9028 65.1944C91.4389 65.1944 91.8251 65.4944 91.9028 65.6749C91.9139 65.7444 91.9278 65.9416 91.9278 66.0194L92.0223 66.0472C92.025 65.6527 92.05 65.2222 92.1139 64.7666L92.0195 64.786C92.0084 64.836 91.9584 65.0999 91.9334 65.1555C91.8167 65.1222 91.4306 65.0472 91.0667 65.0472C90.6473 65.0472 90.2612 65.0999 89.8306 65.3916C89.4667 65.636 89.175 66.0583 89.175 66.6333C89.175 67.1638 89.4945 67.636 90.0334 67.9027C90.3695 68.0694 90.8223 68.086 90.9751 68.086C91.6278 68.086 92.0445 67.9166 92.1417 67.836L92.2001 67.6583C91.9056 67.8333 91.5334 67.8833 91.2167 67.8833C90.3417 67.8833 89.6723 67.1999 89.6723 66.3888H89.6695Z" fill="white"/>
<path d="M94.5277 65.1004L94.5555 65.1865C94.6639 65.1949 94.9111 65.2282 95.0083 65.2449C95.025 65.381 95.0277 66.1421 95.0277 66.2727V66.6532C95.0277 67.1504 94.975 67.5171 94.75 67.7282C94.6083 67.8615 94.4278 67.9282 94.1528 67.9282C93.7055 67.9282 93.3305 67.6282 93.3305 66.7504V66.1977C93.3305 65.8421 93.3389 65.3143 93.35 65.2449C93.4833 65.2199 93.6694 65.2004 93.7805 65.1865L93.8 65.1004C93.6972 65.1088 93.3777 65.1171 93.1861 65.1171C92.8666 65.1171 92.6 65.1088 92.4861 65.1004L92.5 65.1865C92.6111 65.2032 92.7416 65.2227 92.8277 65.2449C92.8389 65.3615 92.8472 65.8088 92.8472 66.1838V66.831C92.8472 67.556 93.2416 68.0865 94.1 68.0865C94.5111 68.0865 94.775 67.9671 94.9666 67.7949C95.2861 67.5115 95.3722 67.1143 95.3722 66.6449C95.3722 66.4949 95.3639 66.2977 95.3639 66.1338V65.9338C95.3639 65.8227 95.3722 65.3032 95.3861 65.2421C95.4944 65.2171 95.6055 65.2004 95.675 65.1838L95.7 65.0977C95.6305 65.106 95.4083 65.1143 95.1944 65.1143C94.9361 65.1143 94.625 65.106 94.5222 65.0977L94.5277 65.1004Z" fill="white"/>
<path d="M97.5777 66.4554V66.4443C97.7138 66.3859 97.9583 66.2526 98.1138 66.0137C98.2166 65.847 98.2222 65.7443 98.2222 65.6248C98.2222 65.4304 98.0972 65.0859 97.2888 65.0859C97.0277 65.0859 96.2361 65.1137 96.0972 65.1193L96.1166 65.2054C96.2361 65.2137 96.4027 65.222 96.5444 65.247C96.5611 65.4165 96.5722 66.0637 96.5722 66.3637V66.6248C96.5722 66.9887 96.5722 67.6082 96.5444 67.8943C96.4583 67.9193 96.2083 67.9443 96.1138 67.9526L96.0972 68.0387C96.2166 68.0304 96.6361 68.0221 96.7277 68.0221C96.8194 68.0221 96.9694 68.0304 97.1138 68.0387C97.2638 68.047 97.4055 68.0554 97.461 68.0554C98.0388 68.0554 98.4277 67.7359 98.4277 67.2582C98.4277 66.8193 97.9888 66.5248 97.5777 66.4582V66.4554ZM97.0222 66.2248C97.0222 65.8526 97.0249 65.2637 97.0333 65.2221C97.0694 65.2054 97.1333 65.1971 97.1999 65.1971C97.5388 65.1971 97.7611 65.4387 97.7611 65.7943C97.7611 66.0054 97.6749 66.2054 97.5194 66.3165C97.3611 66.4332 97.1499 66.4582 97.0222 66.4582V66.2248ZM97.4055 67.9221C97.3222 67.9221 97.1694 67.9026 97.0749 67.8359C97.0555 67.7832 97.0249 67.1637 97.0249 66.8082V66.5832C97.1249 66.5693 97.3472 66.5943 97.5138 66.6832C97.7972 66.8332 97.9666 67.1526 97.9666 67.4165C97.9666 67.7026 97.7999 67.9221 97.4055 67.9221Z" fill="white"/>
<path d="M100.733 67.7585C100.542 67.8668 100.153 67.9002 99.7389 67.9002C99.7278 67.7807 99.7111 66.8752 99.7111 66.6224V66.539C100.067 66.539 100.392 66.564 100.519 66.6307C100.519 66.714 100.517 66.8224 100.511 66.9085L100.589 66.9418C100.611 66.8085 100.683 66.2418 100.697 66.1668L100.611 66.1752C100.603 66.2335 100.589 66.2918 100.569 66.3529C100.469 66.389 100.067 66.4196 99.7111 66.4196V66.3363C99.7111 66.0918 99.7278 65.2918 99.7389 65.2335C99.9584 65.2335 100.597 65.2863 100.672 65.4085C100.678 65.4918 100.672 65.6779 100.672 65.7085L100.764 65.7363C100.772 65.6085 100.825 64.964 100.847 64.8779L100.753 64.8946C100.744 64.9696 100.733 65.039 100.719 65.089C100.608 65.1168 99.6334 65.1168 99.5 65.1168C99.4084 65.1168 99.2723 65.1113 99.1361 65.1113C99 65.1085 98.8611 65.1029 98.7639 65.1002L98.7806 65.1863C98.8806 65.1974 99.1334 65.2279 99.2111 65.2446C99.2278 65.3724 99.2389 66.0335 99.2389 66.4057V66.5974C99.2389 67.0529 99.2278 67.8168 99.2111 67.8918C99.1 67.9196 98.85 67.9446 98.7834 67.9502L98.7639 68.0363C98.925 68.0279 99.2528 68.0196 99.3945 68.0196C99.6556 68.0196 100.578 68.0363 100.697 68.0557C100.703 68.1224 100.703 68.1974 100.703 68.3085L100.789 68.3252C100.806 68.1168 100.897 67.4863 100.925 67.3668L100.831 67.3918C100.806 67.4835 100.786 67.6113 100.739 67.7557L100.733 67.7585Z" fill="white"/>
</g>
<defs>
<clipPath id="clip0_2760_91743">
<rect width="150" height="100" fill="white"/>
</clipPath>
</defs>
</svg>
