<svg width="150" height="100" viewBox="0 0 150 100" fill="none" xmlns="http://www.w3.org/2000/svg">
<g clip-path="url(#clip0_2760_91699)">
<path d="M150 0H0V100H150V0Z" fill="#E6E6E6"/>
<path d="M36.6501 33.7531C36.5834 33.5808 36.4195 33.4697 36.2362 33.4697H25.4473C25.3001 33.4697 25.164 33.542 25.0806 33.6642C24.9973 33.7864 24.9806 33.9392 25.0334 34.0781L37.5612 66.2503C37.6279 66.4225 37.7917 66.5336 37.9751 66.5336H48.764C48.9112 66.5336 49.0473 66.4614 49.1306 66.3392C49.214 66.217 49.2306 66.0642 49.1779 65.9253L36.6501 33.7531Z" fill="white"/>
<path d="M66.3555 47.1251C66.3555 46.8807 66.1555 46.6807 65.9111 46.6807H60.4916C60.2916 46.6807 60.1194 46.8112 60.0638 47.0029L54.6472 65.9612C54.6083 66.0946 54.6361 66.239 54.7194 66.3529C54.8027 66.464 54.9361 66.5307 55.075 66.5307H60.4916C60.6916 66.5307 60.8639 66.4001 60.9194 66.2084L66.3305 47.2723C66.3472 47.2279 66.3555 47.1779 66.3555 47.1279V47.1251Z" fill="white"/>
<path d="M78.8861 61.1945H70.9167C70.8028 61.1945 70.5167 61.1612 70.2778 60.8501C69.9834 60.4668 69.6 59.4223 70.325 56.7223C71.5722 52.0723 73.5334 52.0195 73.6167 52.0195H81.5861C81.7889 52.0195 81.9639 51.8834 82.0167 51.689L83.1806 47.3501C83.1945 47.3056 83.2028 47.2612 83.2028 47.214C83.2028 46.9695 83.0028 46.7695 82.7584 46.7695H71.6556C70.8584 46.7695 66.7611 47.239 64.2806 56.4945C63.1417 60.7418 63.1861 63.7084 64.4139 65.3084C65.2056 66.339 66.2195 66.4501 66.6195 66.4501H77.7222C77.925 66.4501 78.1 66.314 78.1528 66.1195L79.3222 61.7584C79.3584 61.6251 79.3306 61.4834 79.2445 61.3723C79.1611 61.2612 79.0306 61.1973 78.8917 61.1973L78.8861 61.1945Z" fill="white"/>
<path d="M106.983 47.1251C106.983 46.8807 106.783 46.6807 106.539 46.6807H101.12C99.4834 46.6807 98.2834 48.1446 95.6501 51.3501C95.3084 51.7668 94.9362 52.2196 94.5334 52.7057C94.3251 50.5029 94.0056 49.1334 93.5001 48.2196C92.9112 47.1557 92.0473 46.6807 90.6917 46.6807H85.2751C85.0751 46.6807 84.9029 46.8112 84.8473 47.0029L79.4306 65.9612C79.3917 66.0946 79.4195 66.239 79.5028 66.3529C79.5862 66.464 79.7195 66.5307 79.8584 66.5307H85.2751C85.4751 66.5307 85.6473 66.4001 85.7028 66.2084L89.2667 53.739C89.2917 53.8057 89.314 53.8723 89.3334 53.9418L90.864 61.3223C90.864 61.3223 90.864 61.3334 90.8695 61.3418C90.989 61.8112 91.4084 62.139 91.8945 62.139C92.2029 62.139 92.4945 62.0029 92.6973 61.7668L98.4084 55.0168L95.2806 65.964C95.2417 66.0973 95.2695 66.2418 95.3528 66.3557C95.4362 66.4696 95.5695 66.5334 95.7084 66.5334H101.125C101.325 66.5334 101.497 66.4029 101.553 66.2112L106.964 47.2751C106.981 47.2307 106.989 47.1807 106.989 47.1307L106.983 47.1251Z" fill="white"/>
<path d="M125 47.2112C125 46.9668 124.8 46.7668 124.556 46.7668H119.508C119.395 46.7668 119.286 46.8084 119.206 46.8862L113.556 52.1557L114.958 47.2501C114.997 47.1168 114.969 46.9723 114.886 46.8584C114.803 46.7473 114.669 46.6807 114.531 46.6807H109.114C108.914 46.6807 108.742 46.8112 108.686 47.0029L103.269 65.9612C103.231 66.0946 103.258 66.239 103.342 66.3529C103.425 66.464 103.558 66.5307 103.697 66.5307H109.114C109.314 66.5307 109.486 66.4001 109.542 66.2084L111.625 58.9196L114.547 66.1696C114.614 66.339 114.778 66.4473 114.961 66.4473H119.908C120.056 66.4473 120.194 66.3751 120.278 66.2501C120.361 66.1279 120.378 65.9723 120.322 65.8334L116.203 55.614L124.853 47.5446C124.945 47.464 125.003 47.3446 125.003 47.2112H125Z" fill="white"/>
<path d="M60.9361 34.9142C60.9361 34.6697 60.7361 34.4697 60.4916 34.4697C60.4916 34.4697 60.4888 34.4697 60.4861 34.4697C60.3777 34.4697 60.2805 34.5114 60.2027 34.5753L44.9916 47.3975C44.8472 47.5197 44.7944 47.7225 44.8638 47.9003L50.1472 61.4669C50.2138 61.6392 50.3777 61.7503 50.5611 61.7503C50.7472 61.7503 50.9111 61.6336 50.9749 61.4614L60.8972 35.092C60.9222 35.0364 60.9333 34.9781 60.9333 34.9142H60.9361Z" fill="white"/>
<path d="M86.1417 45.153H86.7333C86.9972 45.153 87.2222 45.0919 87.4056 44.9863C87.4861 45.053 87.5834 45.0891 87.6861 45.0891C87.7028 45.0891 87.7195 45.0891 87.7361 45.0863C88.4167 45.0086 88.9778 44.8919 89.4389 44.728L89.7611 45.0113C89.8417 45.0835 89.9472 45.1224 90.0556 45.1224H91.6667C91.85 45.1224 92.0139 45.0113 92.0806 44.8419C92.1472 44.6724 92.1056 44.478 91.9722 44.353L91.0722 43.503C91.1028 43.4613 91.1306 43.428 91.1584 43.3919C91.2 43.4947 91.275 43.5808 91.3778 43.6308C91.4389 43.6586 91.5028 43.6724 91.5695 43.6724C91.6695 43.6724 91.7695 43.6391 91.85 43.5724L92.0139 43.4391L92.3167 44.8058C92.3611 45.0086 92.5417 45.153 92.75 45.153H94.0667C94.2028 45.153 94.3306 45.0919 94.4139 44.9863C94.4972 44.8808 94.5306 44.7419 94.5 44.6086L93.8722 41.8919L94.3695 41.5058C94.4778 41.4224 94.5417 41.2919 94.5417 41.153V39.5724C94.5417 39.4002 94.4417 39.2419 94.2861 39.1697C94.225 39.1419 94.1611 39.128 94.0972 39.128C93.9945 39.128 93.8917 39.1641 93.8111 39.2308L93.3556 39.6113L93.2 38.8974H93.4695C93.4695 38.8974 93.4861 38.8974 93.4917 38.8974C94.1472 38.8641 94.5389 38.4502 94.5389 37.7947C94.5389 37.7697 94.5389 37.7419 94.5306 37.7169L94.3667 36.7947C94.3278 36.5836 94.1445 36.428 93.9278 36.428H92.9084C92.8639 36.428 92.8195 36.4336 92.775 36.4474C92.7 36.3947 92.6111 36.3613 92.5111 36.3613H91.0972C90.975 36.3613 90.8584 36.4113 90.7722 36.503C90.6889 36.5919 90.6445 36.7141 90.6528 36.8363V36.8891H87.2472C86.2806 36.8891 85.7111 37.4669 85.6833 38.4724C85.6833 38.478 85.6833 38.4808 85.6833 38.4863V44.7058C85.6833 44.9502 85.8834 45.1502 86.1278 45.1502L86.1417 45.153Z" fill="white"/>
<path d="M95.5722 38.8752C95.5278 38.9447 95.5 39.0252 95.5 39.1141V44.3141C95.5 44.5586 95.7 44.7586 95.9445 44.7586H96.3722C96.4056 44.7586 96.4389 44.7558 96.4722 44.7474C96.5222 44.7363 96.5722 44.7197 96.6167 44.7002V44.7086C96.6167 44.953 96.8167 45.153 97.0611 45.153H98.3445C98.5889 45.153 98.7889 44.953 98.7889 44.7086V43.4974C98.825 43.5058 98.8639 43.5086 98.9028 43.5086C98.9306 43.5086 98.9583 43.5086 98.9833 43.503V44.6752C98.9833 44.9197 99.1834 45.1197 99.4278 45.1197H103.672C103.917 45.1197 104.117 44.9197 104.117 44.6752V42.378C104.128 42.053 104.064 41.778 103.933 41.5558C104.078 41.5336 104.206 41.4474 104.269 41.3141C104.344 41.1613 104.325 40.978 104.219 40.8447L103.444 39.8558L104.164 38.4974C104.181 38.4669 104.192 38.4336 104.203 38.4002C104.414 37.5808 104.069 36.953 103.256 36.6808C103.211 36.6669 103.164 36.6586 103.114 36.6586H101.986C101.978 36.6308 101.964 36.6058 101.95 36.5808C101.869 36.4447 101.725 36.3613 101.567 36.3613H100.317C100.178 36.3613 100.044 36.428 99.9611 36.5391C99.8111 36.7419 99.6222 36.8891 99.3861 36.9891C99.3695 36.9974 99.3528 37.0086 99.3389 37.0197H98.7889V36.8058C98.7889 36.5613 98.5889 36.3613 98.3445 36.3613H97.0611C96.8167 36.3613 96.6167 36.5613 96.6167 36.8058V37.0197H95.8778C95.6334 37.0197 95.4333 37.2197 95.4333 37.4641V38.5502C95.4333 38.6752 95.4861 38.7891 95.5695 38.8697L95.5722 38.8752Z" fill="white"/>
<path d="M105.497 43.1363C105.364 43.2141 105.272 43.3586 105.272 43.5224V44.7058C105.272 44.8252 105.322 44.9419 105.408 45.0252C105.492 45.1058 105.603 45.1502 105.717 45.1502C105.722 45.1502 105.728 45.1502 105.733 45.1502C107.467 45.0891 108.803 44.7058 109.719 44.0141C110.539 44.6724 111.822 45.0447 113.622 45.1502C113.631 45.1502 113.639 45.1502 113.647 45.1502C113.761 45.1502 113.869 45.1058 113.953 45.028C114.042 44.9447 114.092 44.828 114.092 44.703V43.5197C114.092 43.3474 113.994 43.2002 113.853 43.1252C113.994 43.0502 114.092 42.903 114.092 42.7308V41.7447C114.092 41.6308 114.05 41.528 113.978 41.4474C114.047 41.3697 114.092 41.2641 114.092 41.1502V40.2613C114.092 40.0863 113.992 39.9336 113.842 39.8613C113.853 39.8224 113.861 39.778 113.861 39.7336V38.8447C113.861 38.7947 113.853 38.7474 113.839 38.703C113.972 38.6252 114.058 38.4836 114.058 38.3197V37.4308C114.058 37.1863 113.858 36.9863 113.614 36.9863H113.461C113.508 36.878 113.514 36.7558 113.467 36.6419C113.4 36.4724 113.236 36.3613 113.053 36.3613H111.275C111.147 36.3613 111.028 36.4141 110.944 36.5086C110.658 36.8308 110.228 36.9863 109.631 36.9863C109.033 36.9863 108.617 36.8419 108.35 36.5447C108.267 36.4502 108.144 36.3947 108.017 36.3947H106.239C106.058 36.3947 105.897 36.503 105.828 36.6697C105.786 36.7724 105.783 36.8863 105.819 36.9863H105.681C105.436 36.9863 105.236 37.1863 105.236 37.4308V38.3197C105.236 38.4836 105.325 38.628 105.456 38.703C105.442 38.7474 105.433 38.7947 105.433 38.8447V39.7336C105.433 39.7836 105.442 39.8308 105.456 39.8752C105.322 39.953 105.236 40.0947 105.236 40.2586V41.1474C105.236 41.2613 105.278 41.3641 105.35 41.4447C105.281 41.5224 105.236 41.628 105.236 41.7419V42.728C105.236 42.9058 105.342 43.0613 105.492 43.1308L105.497 43.1363Z" fill="white"/>
<path d="M115.456 38.8998H116.236C116.05 38.9637 115.892 39.0582 115.758 39.1832C115.481 39.4443 115.339 39.8193 115.339 40.2971V42.6998C115.339 42.9443 115.539 43.1443 115.783 43.1443H116.164L115.511 44.5165C115.444 44.6554 115.456 44.8165 115.536 44.9443C115.617 45.0721 115.758 45.1526 115.911 45.1526H117.425C117.6 45.1526 117.758 45.0526 117.831 44.8943L118.633 43.1471H119.681V43.886C119.681 44.6582 120.142 45.1221 120.917 45.1221H123.417C123.661 45.1221 123.861 44.9221 123.861 44.6776V43.6248C123.861 43.3804 123.661 43.1804 123.417 43.1804H121.953V43.1498H123.022C123.267 43.1498 123.467 42.9498 123.467 42.7054V40.3026C123.467 39.5887 123.172 39.1026 122.642 38.9054H123.383C123.628 38.9054 123.828 38.7054 123.828 38.461V37.3415C123.828 37.0971 123.628 36.8971 123.383 36.8971H120.569V36.8165C120.569 36.5721 120.369 36.3721 120.125 36.3721H118.775C118.531 36.3721 118.331 36.5721 118.331 36.8165V36.8971H115.453C115.208 36.8971 115.008 37.0971 115.008 37.3415V38.461C115.008 38.7054 115.208 38.9054 115.453 38.9054L115.456 38.8998Z" fill="white"/>
<path d="M48.761 66.0863H37.9721L25.4443 33.9141H36.2332L48.761 66.0863Z" fill="url(#paint0_linear_2760_91699)"/>
<path d="M65.9083 47.125H60.4916L55.075 66.0861H60.4916L65.9083 47.125Z" fill="#6FB92C"/>
<path d="M70.9194 61.6387C70.3055 61.6387 68.7027 61.0582 69.8972 56.6054C71.0916 52.1526 73.0027 51.572 73.6166 51.572H81.5861L82.7555 47.2109H71.6527C70.5055 47.2109 66.9361 48.2943 64.7083 56.6054C62.4805 64.9165 65.4694 65.9998 66.6194 65.9998H77.7222L78.8916 61.6387H70.9222H70.9194Z" fill="#6FB92C"/>
<path d="M102.478 47.125H101.122C99.4 47.125 98.1166 49.1222 94.1805 53.825C93.7916 48.3806 92.8833 47.125 90.6944 47.125H85.2778L79.8611 66.0833H85.2778L89.0916 52.7306C89.4139 53.0167 89.6555 53.3972 89.7666 53.8389L91.2972 61.2306C91.4194 61.7111 92.0333 61.8528 92.3527 61.475L99.4 53.1472L95.7027 66.0833H101.119L106.536 47.125H102.475H102.478Z" fill="#6FB92C"/>
<path d="M124.555 47.2111H119.508L112.686 53.575L114.53 47.125H109.111L103.694 66.0861H109.111L111.55 57.55L114.955 66H119.903L115.672 55.4972L124.555 47.2111Z" fill="#6FB92C"/>
<path d="M60.4917 34.9141L45.2778 47.7391L50.5612 61.3057L60.4917 34.9141Z" fill="url(#paint1_linear_2760_91699)"/>
<path d="M91.5694 41.7476L91.9972 41.3532L91.3722 38.4587H87.4888V43.9226C87.4888 44.4504 87.236 44.7115 86.7333 44.7115H86.1416V38.4921C86.1638 37.7254 86.5361 37.3393 87.2611 37.3393H91.1444L91.111 36.8115H92.5249L92.5583 37.3393H92.986L92.9194 36.8782H93.9388L94.1027 37.8004C94.1027 38.2171 93.8944 38.4365 93.4777 38.4587H92.6555L93.0833 40.4337L94.1027 39.5782V41.1587L93.3777 41.7171L94.0694 44.7115H92.7527L92.2916 42.6393L91.5666 43.231V41.7504L91.5694 41.7476ZM90.0555 40.5282V40.0671H91.2416V40.5282H91.5694V41.6143H91.2416V42.5699C91.1305 42.7004 90.9333 42.9532 90.6499 43.3254C90.5833 43.4365 90.5305 43.5115 90.486 43.556L91.6694 44.6754H90.0583L89.5333 44.2143C89.0722 44.4115 88.4583 44.5532 87.6916 44.6421V43.6226C88.0861 43.6226 88.4472 43.556 88.7777 43.4254C88.5138 43.1393 88.2722 42.8337 88.0527 42.5032V41.6143H87.7222V40.5282H88.0527V40.0671H89.1722V40.5282H90.0611H90.0555ZM87.8194 38.8504H91.1749V39.806H87.8194V38.8504ZM90.0555 41.6143H89.1666V42.1421C89.2527 42.3837 89.4083 42.5699 89.6277 42.7004C89.7805 42.5699 89.9249 42.3921 90.0555 42.1726V41.6143Z" fill="#6FB92C"/>
<path d="M99.4001 38.5529H98.3473V44.7057H97.0639V39.5057C97.0862 38.8918 96.8334 38.5723 96.3084 38.5501H95.8806V37.464H97.0639V36.8057H98.3473V37.464H99.4001V38.5501V38.5529ZM95.9473 39.114H96.3084C96.6389 39.1807 96.8028 39.4862 96.8028 40.0362V43.689C96.8028 44.039 96.6612 44.2473 96.3751 44.314H95.9473V39.114ZM98.5139 41.3196C98.5139 40.8584 98.5584 40.464 98.6445 40.1362C98.7112 39.7862 98.7973 39.6084 98.9084 39.6084C98.9945 39.6084 99.0834 39.7834 99.1723 40.1362C99.2389 40.464 99.2723 40.8612 99.2723 41.3196C99.2723 41.7779 99.2389 42.2084 99.1723 42.5362C99.0834 42.8862 98.9973 43.064 98.9084 43.064C98.7973 43.064 98.7112 42.889 98.6445 42.5362C98.5556 42.2084 98.5139 41.8001 98.5139 41.3196ZM103.678 42.3723V44.6751H99.4334V42.4057C99.4334 41.7473 99.7501 41.4196 100.389 41.4196H102.725C103.383 41.4196 103.7 41.739 103.681 42.3751L103.678 42.3723ZM101.572 36.8112L101.408 37.1084H103.12C103.711 37.3057 103.931 37.7001 103.778 38.2918L102.922 39.9029L103.878 41.1196H102.364L102.067 40.7251L101.606 41.0223C101.1 41.1334 100.706 41.1529 100.422 41.089C100.136 41.0223 99.8751 40.8473 99.6334 40.5612C99.3473 39.9473 99.3917 39.3973 99.7639 38.9168C100.289 38.4779 100.917 38.4029 101.639 38.6862L102 38.9834L102.428 38.1612H100.65C100.364 38.3584 100.003 38.5112 99.5639 38.6223V37.4057C99.8723 37.2751 100.122 37.0779 100.319 36.814H101.569L101.572 36.8112ZM100.422 39.8362C100.444 39.9029 100.489 39.9668 100.553 40.0334C100.639 40.1001 100.75 40.1334 100.881 40.1334C101.078 40.0668 101.264 39.9584 101.439 39.8057C101.264 39.6307 101.078 39.5307 100.881 39.5084C100.75 39.5084 100.639 39.5418 100.553 39.6084C100.486 39.6751 100.442 39.7501 100.422 39.839V39.8362ZM101.672 42.4362H100.783V43.6529H102.364V42.9279C102.364 42.6001 102.133 42.4334 101.672 42.4334V42.4362Z" fill="#6FB92C"/>
<path d="M105.686 38.3254V37.4365H106.839L106.247 36.8449H108.025C108.375 37.2393 108.914 37.4365 109.636 37.4365C110.358 37.4365 110.908 37.2282 111.281 36.8115H113.058L112.4 37.4365H113.617V38.3254H110.492V38.8532H113.42V39.7421H110.492V40.2699H113.65V41.1587H110.492V41.7504H113.65V42.7365H110.82C111.545 43.2643 112.486 43.5254 113.65 43.5254V44.7087C111.742 44.5976 110.436 44.1699 109.733 43.4254C108.9 44.2143 107.561 44.6421 105.72 44.7087V43.5254C106.881 43.5254 107.803 43.2615 108.483 42.7365H105.686V41.7504H108.878V41.5532C108.878 41.2893 108.703 41.1587 108.35 41.1587H105.683V40.2699H108.875V40.0726C108.875 39.8532 108.7 39.7449 108.347 39.7449H105.881V38.856H108.875V38.6587C108.875 38.4393 108.7 38.331 108.347 38.331H105.681L105.686 38.3254Z" fill="#6FB92C"/>
<path d="M118.781 37.3364V36.8086H120.131V37.3364H123.389V38.4558H120.131V39.2447H121.972C122.675 39.2225 123.025 39.5725 123.025 40.2975V42.7003H121.511V43.4558C121.511 43.5669 121.578 43.6197 121.708 43.6197H123.42V44.6725H120.92C120.395 44.6725 120.131 44.4086 120.131 43.8836V42.7003H118.353L117.431 44.7086H115.917L116.872 42.7003H115.786V40.2975C115.786 39.5725 116.181 39.2225 116.972 39.2447H118.783V39.0808C118.783 38.6642 118.508 38.4558 117.961 38.4558H115.461V37.3364H118.786H118.781ZM121.117 40.3308H117.167V41.6142H121.675V40.9225C121.675 40.528 121.489 40.3308 121.117 40.3308Z" fill="#6FB92C"/>
</g>
<defs>
<linearGradient id="paint0_linear_2760_91699" x1="30.511" y1="35.0196" x2="43.7777" y2="65.1724" gradientUnits="userSpaceOnUse">
<stop stop-color="#0068B6"/>
<stop offset="1" stop-color="#100964"/>
</linearGradient>
<linearGradient id="paint1_linear_2760_91699" x1="54.5445" y1="39.5613" x2="47.3917" y2="55.7141" gradientUnits="userSpaceOnUse">
<stop stop-color="#6FB92C"/>
<stop offset="1" stop-color="#009844"/>
</linearGradient>
<clipPath id="clip0_2760_91699">
<rect width="150" height="100" fill="white"/>
</clipPath>
</defs>
</svg>
