<svg width="140" height="140" viewBox="0 0 140 140" fill="none" xmlns="http://www.w3.org/2000/svg">
<g clip-path="url(#clip0_2890_194101)">
<path d="M67.2714 2.54563C68.808 1.11204 71.192 1.11204 72.7286 2.54563L79.9336 9.26736C81.0431 10.3024 82.6428 10.6206 84.0639 10.0889L93.2927 6.63608C95.261 5.89967 97.4635 6.81198 98.3346 8.72449L102.419 17.6918C103.048 19.0727 104.404 19.9788 105.92 20.0314L115.768 20.3731C117.868 20.446 119.554 22.1317 119.627 24.232L119.969 34.0797C120.021 35.5961 120.927 36.9522 122.308 37.5812L131.275 41.6654C133.188 42.5365 134.1 44.739 133.364 46.7073L129.911 55.9361C129.379 57.3572 129.698 58.9569 130.733 60.0664L137.454 67.2714C138.888 68.808 138.888 71.192 137.454 72.7286L130.733 79.9336C129.698 81.0431 129.379 82.6428 129.911 84.0639L133.364 93.2927C134.1 95.261 133.188 97.4635 131.276 98.3346L122.308 102.419C120.927 103.048 120.021 104.404 119.969 105.92L119.627 115.768C119.554 117.868 117.868 119.554 115.768 119.627L105.92 119.969C104.404 120.021 103.048 120.927 102.419 122.308L98.3346 131.275C97.4635 133.188 95.261 134.1 93.2927 133.364L84.0639 129.911C82.6428 129.379 81.0431 129.698 79.9336 130.733L72.7286 137.454C71.192 138.888 68.808 138.888 67.2714 137.454L60.0664 130.733C58.9569 129.698 57.3572 129.379 55.9361 129.911L46.7073 133.364C44.739 134.1 42.5365 133.188 41.6654 131.276L37.5812 122.308C36.9522 120.927 35.5961 120.021 34.0797 119.969L24.232 119.627C22.1317 119.554 20.446 117.868 20.3731 115.768L20.0314 105.92C19.9788 104.404 19.0727 103.048 17.6918 102.419L8.72449 98.3346C6.81198 97.4635 5.89967 95.261 6.63608 93.2927L10.0889 84.0639C10.6206 82.6428 10.3024 81.0431 9.26736 79.9336L2.54563 72.7286C1.11204 71.192 1.11204 68.808 2.54563 67.2714L9.26736 60.0664C10.3024 58.9569 10.6206 57.3572 10.0889 55.9361L6.63608 46.7073C5.89967 44.739 6.81198 42.5365 8.72449 41.6654L17.6918 37.5812C19.0727 36.9522 19.9788 35.5961 20.0314 34.0797L20.3731 24.232C20.446 22.1317 22.1317 20.446 24.232 20.3731L34.0797 20.0314C35.5961 19.9788 36.9522 19.0727 37.5812 17.6918L41.6654 8.72449C42.5365 6.81198 44.739 5.89967 46.7073 6.63608L55.9361 10.0889C57.3572 10.6206 58.9569 10.3024 60.0664 9.26736L67.2714 2.54563Z" fill="#E6E6E6"/>
<path d="M45.5104 85.0137H35.4408L23.7482 54.9863H33.8178L45.5104 85.0137Z" fill="url(#paint0_linear_2890_194101)"/>
<path d="M56.4589 55.9199L42.2593 67.8899L47.1904 80.5521L56.4589 55.9199Z" fill="url(#paint1_linear_2890_194101)"/>
<path d="M61.5144 67.3164H56.4589L51.4033 85.0134H56.4589L61.5144 67.3164Z" fill="#6FB92C"/>
<path d="M66.1915 80.8634C65.6185 80.8634 64.1226 80.3215 65.2374 76.1656C66.3522 72.0097 68.1359 71.4678 68.7089 71.4678H76.147L77.2385 67.3975H66.8759C65.8052 67.3975 62.4737 68.4086 60.3945 76.1656C58.3152 83.9226 61.1048 84.9338 62.1782 84.9338H72.5407L73.6322 80.8634H66.1941H66.1915Z" fill="#6FB92C"/>
<path d="M95.6459 67.3164H94.3807C92.7733 67.3164 91.5755 69.1805 87.9018 73.5697C87.5388 68.4883 86.6911 67.3164 84.6481 67.3164H79.5925L74.537 85.0109H79.5925L83.1522 72.5483C83.4529 72.8153 83.6785 73.1705 83.7822 73.5827L85.2107 80.4816C85.3248 80.9301 85.8977 81.0623 86.1959 80.7097L92.7733 72.9371L89.3225 85.0109H94.3781L99.4337 67.3164H95.6433H95.6459Z" fill="#6FB92C"/>
<path d="M116.252 67.3968H111.541L105.174 73.3364L106.895 67.3164H101.837L96.7815 85.0134H101.837L104.113 77.0464L107.292 84.9331H111.909L107.961 75.1305L116.252 67.3968Z" fill="#6FB92C"/>
<path d="M85.4649 62.2975L85.8641 61.9293L85.2808 59.2278H81.6563V64.3275C81.6563 64.8201 81.4204 65.0638 80.9511 65.0638H80.3989V59.2589C80.4197 58.5434 80.7671 58.183 81.4437 58.183H85.0682L85.0371 57.6904H86.3567L86.3878 58.183H86.7871L86.7249 57.7526H87.6763L87.8293 58.6134C87.8293 59.0023 87.6349 59.2071 87.246 59.2278H86.4786L86.8778 61.0712L87.8293 60.2726V61.7478L87.1526 62.2689L87.7982 65.0638H86.5693L86.1389 63.1297L85.4623 63.6819V62.3001L85.4649 62.2975ZM84.0519 61.1593V60.7289H85.1589V61.1593H85.4649V62.173H85.1589V63.0649C85.0552 63.1867 84.8712 63.4227 84.6067 63.7701C84.5445 63.8738 84.4952 63.9438 84.4537 63.9852L85.5582 65.0301H84.0545L83.5645 64.5997C83.1341 64.7838 82.5612 64.916 81.8456 64.9989V64.0475C82.2137 64.0475 82.5508 63.9852 82.8593 63.8634C82.613 63.5964 82.3874 63.3112 82.1826 63.0026V62.173H81.8741V61.1593H82.1826V60.7289H83.2274V61.1593H84.0571H84.0519ZM81.9649 59.5934H85.0967V60.4852H81.9649V59.5934ZM84.0519 62.173H83.2223V62.6656C83.3026 62.8912 83.4478 63.0649 83.6526 63.1867C83.7952 63.0649 83.93 62.8989 84.0519 62.6941V62.173Z" fill="#6FB92C"/>
<path d="M92.7733 59.3163H91.7907V65.0589H90.593V60.2055C90.6137 59.6326 90.3778 59.3344 89.8878 59.3137H89.4885V58.3H90.593V57.6855H91.7907V58.3H92.7733V59.3137V59.3163ZM89.5507 59.84H89.8878C90.1963 59.9022 90.3493 60.1874 90.3493 60.7007V64.11C90.3493 64.4367 90.217 64.6311 89.95 64.6933H89.5507V59.84ZM91.9463 61.8985C91.9463 61.4681 91.9878 61.1 92.0682 60.7941C92.1304 60.4674 92.2107 60.3015 92.3144 60.3015C92.3948 60.3015 92.4778 60.4648 92.5607 60.7941C92.623 61.1 92.6541 61.4707 92.6541 61.8985C92.6541 62.3263 92.623 62.7281 92.5607 63.0341C92.4778 63.3607 92.3974 63.5267 92.3144 63.5267C92.2107 63.5267 92.1304 63.3633 92.0682 63.0341C91.9852 62.7281 91.9463 62.347 91.9463 61.8985ZM96.7659 62.8811V65.0304H92.8044V62.9122C92.8044 62.2978 93.1 61.9918 93.6963 61.9918H95.8767C96.4911 61.9918 96.7867 62.29 96.7685 62.8837L96.7659 62.8811ZM94.8007 57.6907L94.6478 57.9681H96.2448C96.797 58.1522 97.0019 58.5204 96.8593 59.0726L96.0607 60.5763L96.9526 61.7118H95.5396L95.2622 61.3437L94.8319 61.6211C94.36 61.7248 93.9919 61.743 93.7274 61.6833C93.4604 61.6211 93.2167 61.4578 92.9911 61.1907C92.7241 60.6178 92.7656 60.1044 93.113 59.6559C93.603 59.2463 94.1889 59.1763 94.863 59.4407L95.2 59.7181L95.5993 58.9507H93.94C93.673 59.1348 93.3359 59.2774 92.9263 59.3811V58.2455C93.2141 58.1237 93.4474 57.9396 93.6315 57.6933H94.7982L94.8007 57.6907ZM93.7274 60.5141C93.7481 60.5763 93.7896 60.6359 93.8493 60.6981C93.9296 60.7604 94.0333 60.7915 94.1552 60.7915C94.3393 60.7292 94.513 60.6281 94.6763 60.4855C94.513 60.3222 94.3393 60.2289 94.1552 60.2081C94.0333 60.2081 93.9296 60.2392 93.8493 60.3015C93.787 60.3637 93.7456 60.4337 93.7274 60.5167V60.5141ZM94.8941 62.9407H94.0644V64.0763H95.5396V63.3996C95.5396 63.0937 95.3244 62.9381 94.8941 62.9381V62.9407Z" fill="#6FB92C"/>
<path d="M98.6403 59.1034V58.2738H99.7162L99.164 57.7215H100.823C101.15 58.0897 101.653 58.2738 102.327 58.2738C103.001 58.2738 103.514 58.0793 103.862 57.6904H105.521L104.907 58.2738H106.042V59.1034H103.125V59.596H105.858V60.4256H103.125V60.9182H106.073V61.7478H103.125V62.3001H106.073V63.2204H103.431C104.108 63.713 104.987 63.9567 106.073 63.9567V65.0612C104.292 64.9575 103.074 64.5582 102.418 63.8634C101.64 64.5997 100.39 64.9989 98.6714 65.0612V63.9567C99.7551 63.9567 100.616 63.7104 101.251 63.2204H98.6403V62.3001H101.619V62.116C101.619 61.8697 101.456 61.7478 101.127 61.7478H98.6377V60.9182H101.617V60.7341C101.617 60.5293 101.453 60.4282 101.124 60.4282H98.8218V59.5986H101.617V59.4145C101.617 59.2097 101.453 59.1086 101.124 59.1086H98.6351L98.6403 59.1034Z" fill="#6FB92C"/>
<path d="M110.862 58.1801V57.6875H112.122V58.1801H115.163V59.2249H112.122V59.9612H113.841C114.497 59.9405 114.823 60.2671 114.823 60.9438V63.1864H113.41V63.8916C113.41 63.9953 113.473 64.0445 113.594 64.0445H115.191V65.0271H112.858C112.368 65.0271 112.122 64.7808 112.122 64.2908V63.1864H110.463L109.602 65.0608H108.189L109.081 63.1864H108.067V60.9438C108.067 60.2671 108.435 59.9405 109.174 59.9612H110.864V59.8082C110.864 59.4194 110.608 59.2249 110.097 59.2249H107.764V58.1801H110.867H110.862ZM113.042 60.9749H109.356V62.1727H113.563V61.5271C113.563 61.159 113.39 60.9749 113.042 60.9749Z" fill="#6FB92C"/>
</g>
<defs>
<linearGradient id="paint0_linear_2890_194101" x1="28.4771" y1="56.0182" x2="40.8593" y2="84.1608" gradientUnits="userSpaceOnUse">
<stop stop-color="#0068B6"/>
<stop offset="1" stop-color="#100964"/>
</linearGradient>
<linearGradient id="paint1_linear_2890_194101" x1="50.9082" y1="60.2573" x2="44.2322" y2="75.3333" gradientUnits="userSpaceOnUse">
<stop stop-color="#6FB92C"/>
<stop offset="1" stop-color="#009844"/>
</linearGradient>
<clipPath id="clip0_2890_194101">
<rect width="140" height="140" fill="white"/>
</clipPath>
</defs>
</svg>
