<svg width="150" height="100" viewBox="0 0 150 100" fill="none" xmlns="http://www.w3.org/2000/svg">
<g clip-path="url(#clip0_2760_91916)">
<path d="M150 0H0V100H150V0Z" fill="white"/>
<path d="M58.7223 51.0329L57.8417 52.4801L58.475 54.0496L57.3695 55.3301L57.7334 56.9857L56.4306 58.0662L56.5167 59.7551L55.0528 60.6051L54.8584 62.2857L53.275 62.8857L52.8084 64.5107L51.15 64.844L50.4223 66.3718L48.7306 66.4273L47.7612 67.8162L46.0834 67.5912L44.9 68.7968L43.2834 68.2968L41.9139 69.2912L40.4 68.5329L38.8889 69.2912L37.5195 68.2968L35.9028 68.7968L34.7167 67.5885L33.0417 67.8162L32.0723 66.4273L30.3806 66.3718L29.6528 64.844L27.9945 64.5107L27.5278 62.8857L25.9445 62.2857L25.75 60.6051L24.2862 59.7551L24.3723 58.0662L23.0695 56.9829L23.4334 55.3301L22.3278 54.0496L22.9612 52.4801L22.0834 51.0329L22.9612 49.5885L22.3278 48.019L23.4334 46.7357L23.0695 45.0829L24.3723 44.0023L24.2862 42.3135L25.75 41.4607L25.9445 39.7801L27.5278 39.1801L27.9945 37.5551L29.6528 37.2246L30.3806 35.6968L32.0723 35.6412L33.0417 34.2523L34.7167 34.4773L35.9028 33.269L37.5195 33.7718L38.8889 32.7773L40.4 33.5357L41.9139 32.7773L43.2834 33.7718L44.9 33.269L46.0862 34.4773L47.7639 34.2523L48.7334 35.6412L50.4223 35.6968L51.15 37.2246L52.8084 37.5551L53.2778 39.1829L54.8584 39.7829L55.0528 41.4635L56.5167 42.3135L56.4306 44.0023L57.7334 45.0829L57.3695 46.7357L58.475 48.019L57.8417 49.5885L58.7223 51.0329Z" fill="#E60012"/>
<path d="M44.4583 63.5384C43.8361 63.644 43.0499 63.694 42.2499 63.7162C42.2444 63.7106 42.2388 63.7051 42.2388 63.7051C41.8277 63.7106 41.2499 63.7245 40.6083 63.7301C39.9638 63.7245 39.3888 63.7106 38.9749 63.7051C38.9749 63.7051 38.9722 63.7079 38.9638 63.7162C38.1638 63.694 37.3777 63.644 36.7555 63.5384C35.9527 63.4467 36.0694 63.6384 36.0694 63.9912C36.0694 64.344 35.9805 65.0467 36.6888 65.1662C37.5999 65.3329 39.2138 65.3745 40.6055 65.369C41.9972 65.3745 43.6138 65.3356 44.5222 65.1662C45.2305 65.0467 45.1416 64.344 45.1416 63.9912C45.1416 63.6384 45.2583 63.4467 44.4555 63.5384H44.4583Z" fill="white" stroke="#231815" stroke-width="1.51" stroke-linejoin="round"/>
<path d="M46.6445 59.167C46.0667 58.0087 44.4778 57.7226 43.2583 57.3726L43.2333 57.3865C43.2195 57.367 43.2083 57.3476 43.1972 57.3281L38.3306 57.3726C37.1139 57.7226 35.525 58.0115 34.9445 59.167C34.3667 60.3253 33.5111 62.7892 35.2472 63.5948C35.2472 63.5948 36.4806 64.3003 38.3306 64.2726V63.6531C39.2167 63.7003 40.0611 63.7142 40.7945 63.7087C41.5278 63.7142 42.3722 63.7031 43.2583 63.6531V64.2726C45.1083 64.2976 46.3417 63.5948 46.3417 63.5948C48.0778 62.7892 47.2222 60.3253 46.6445 59.167Z" fill="#174B85" stroke="#231815" stroke-width="1.51" stroke-linejoin="round"/>
<path d="M38.4488 56.7526L37.6389 57.3486L39.9801 60.53L40.79 59.934L38.4488 56.7526Z" fill="#231815" stroke="#A98667" stroke-width="1.12" stroke-linejoin="round"/>
<path d="M42.5285 56.3626L38.5437 61.2207L39.3212 61.8584L43.306 57.0003L42.5285 56.3626Z" fill="#231815" stroke="#A98667" stroke-width="1.12" stroke-linejoin="round"/>
<path d="M40.4722 62.2416C40.4722 62.7805 40.0361 63.2166 39.4972 63.2166C38.9583 63.2166 38.5222 62.7805 38.5222 62.2416C38.5222 61.7027 38.9583 61.2666 39.4972 61.2666C40.0361 61.2666 40.4722 61.7027 40.4722 62.2416Z" fill="#FAE4E6" stroke="#231815" stroke-width="1.51" stroke-linejoin="round"/>
<path d="M42.9528 62.2416C42.9528 62.7805 42.5167 63.2166 41.9778 63.2166C41.4389 63.2166 41.0028 62.7805 41.0028 62.2416C41.0028 61.7027 41.4389 61.2666 41.9778 61.2666C42.5167 61.2666 42.9528 61.7027 42.9528 62.2416Z" fill="#FAE4E6" stroke="#231815" stroke-width="1.51" stroke-linejoin="round"/>
<path d="M39.2639 61.0781H37.9055V65.0281H39.2639V61.0781Z" fill="white" stroke="#231815" stroke-width="1.51" stroke-linejoin="round"/>
<path d="M36.85 59.9111C37.0055 60.4889 37.3333 61.1195 38.1639 61.1445" stroke="#231815" stroke-width="1.51" stroke-linejoin="round"/>
<path d="M44.5555 57.4032C43.6694 57.3115 43.2888 57.6032 43.1638 58.9032C43.1027 59.531 43.0666 60.2949 43.0611 60.9976C43.0555 61.7504 43.9222 60.956 44.3388 60.5949C44.2277 58.5921 44.5527 57.4004 44.5527 57.4004L44.5555 57.4032Z" fill="white" stroke="#231815" stroke-width="1.09" stroke-linejoin="round"/>
<path d="M43.525 61.0781H42.1666V65.0281H43.525V61.0781Z" fill="white" stroke="#231815" stroke-width="1.51" stroke-linejoin="round"/>
<path d="M44.5806 59.9111C44.4251 60.4889 44.0973 61.1195 43.2667 61.1445" stroke="#231815" stroke-width="1.51" stroke-linejoin="round"/>
<path d="M45.1611 64.6191C45.1611 64.6191 44.3944 65.0775 40.6083 65.0941C36.8222 65.0775 36.0555 64.6191 36.0555 64.6191C36.0555 64.6191 35.5694 67.2664 35.3055 68.1914L35.9 68.7997L37.5167 68.2997L38.8861 69.2941L40.4 68.5358L41.9139 69.2941L43.2833 68.2997L44.9 68.7997L45.8222 67.8608C45.5528 66.7553 45.1611 64.6219 45.1611 64.6219V64.6191Z" fill="white"/>
<path d="M45.3667 64.5806C45.3556 64.514 45.3084 64.4584 45.25 64.4306C45.1889 64.4001 45.1167 64.4056 45.0584 64.4362C45.05 64.4418 44.225 64.8668 40.6111 64.8834C36.9972 64.8668 36.1695 64.4418 36.1667 64.439C36.1084 64.4029 36.0361 64.4001 35.9722 64.4279C35.9084 64.4556 35.8639 64.514 35.8528 64.5806C35.7111 65.3473 35.3556 67.2029 35.1389 68.0168L35.475 68.3612C35.6917 67.6695 36.0778 65.6529 36.2167 64.9056C36.6861 65.0529 37.8667 65.2918 40.6084 65.3029C43.35 65.2918 44.5306 65.0529 45 64.9056C45.1222 65.5556 45.4306 67.1695 45.65 68.0334L45.9945 67.6806C45.7806 66.7695 45.4889 65.2529 45.3639 64.5806H45.3667Z" fill="#231815"/>
<path d="M31.2639 48.4053C28.9555 48.3915 28.5639 50.472 30.1 51.4553C30.4194 51.6609 30.8972 51.8248 31.5778 51.9165C32.1083 51.9887 32.2778 51.8192 32.2778 51.8192L33.2333 49.297L31.2667 48.4053H31.2639Z" fill="#FAE4E6" stroke="#231815" stroke-width="1.51" stroke-linejoin="round"/>
<path d="M31.7277 49.4695C31.2916 49.3029 30.8722 49.2695 30.6888 49.2695L31.7277 49.4695Z" fill="#FAE4E6"/>
<path d="M31.7277 49.4695C31.2916 49.3029 30.8722 49.2695 30.6888 49.2695" stroke="#231815" stroke-width="1.51" stroke-linecap="round" stroke-linejoin="round"/>
<path d="M49.4389 48.8114C51.85 49.0419 51.7167 52.0114 48.7333 52.228C45.75 52.4447 48.0806 50.9697 48.0806 50.9697L49.4417 48.8086L49.4389 48.8114Z" fill="#FAE4E6" stroke="#231815" stroke-width="1.51" stroke-linejoin="round"/>
<path d="M31.2222 47.1641C31.2222 47.1641 31.725 51.4225 31.625 52.3947C33.2694 58.4975 45.5416 59.403 48.7611 53.3669C49.4666 49.3086 49.5666 47.4641 50.2361 45.4197L49.9 42.5697C49.9 42.5697 42.9583 40.6919 42.4889 40.7586C42.0194 40.8252 35.2777 41.1613 35.2777 41.1613C35.2777 41.1613 31.2527 44.1447 31.2194 44.2808C31.1861 44.4141 31.2194 47.1641 31.2194 47.1641H31.2222Z" fill="url(#paint0_linear_2760_91916)"/>
<path d="M31.0028 47.0082C31.5056 48.6443 31.5473 50.4637 31.6528 52.4971C32.9639 59.2332 47.9306 58.9554 48.9084 52.4971C48.9084 52.4971 49.4556 47.5332 50.2139 45.2471" stroke="#231815" stroke-width="1.52" stroke-linecap="round" stroke-linejoin="round"/>
<path d="M38.5833 47.6163C39.2361 47.683 41.0639 47.8691 42.2555 47.6163C43.4472 47.3635 44.4861 47.7496 44.8722 48.7385C45.2583 49.7274 45.4583 51.1691 45.3416 52.4107C45.225 53.6524 44.2027 54.0885 42.8777 53.9191C41.5527 53.7524 39.2722 53.7858 38.0833 53.9524C36.8916 54.1191 35.6361 53.5996 35.7361 52.1746C35.7361 52.1746 35.7 50.2691 36.1527 48.8746C36.6166 47.3413 38.5889 47.6135 38.5889 47.6135L38.5833 47.6163Z" fill="white"/>
<path d="M42.9916 51.7081C43.4777 51.072 45.0444 49.1609 47.7472 47.8525C47.7472 47.8525 43.3583 49.5386 42.6888 51.3442C42.4194 52.3609 42.9916 51.7081 42.9916 51.7081Z" fill="#231815"/>
<path d="M37.4583 51.5912C37.1056 51.0718 35.4806 48.9412 32.8639 47.6162C32.8639 47.6162 36.8556 49.2245 37.7611 51.1884C38.0972 52.3107 37.4583 51.5912 37.4583 51.5912Z" fill="#231815"/>
<path d="M41.2389 47.0283C41.2389 47.4338 40.9111 47.7616 40.5056 47.7616C40.1 47.7616 39.7722 47.4338 39.7722 47.0283C39.7722 46.6227 40.1 46.2949 40.5056 46.2949C40.9111 46.2949 41.2389 46.6227 41.2389 47.0283Z" fill="#E60012"/>
<path d="M27.6806 43.3305C27.1806 43.6916 25.9083 44.5944 25.4722 43.15C25.0389 41.7027 25.4055 41.5139 24.1167 41.425C24.1167 41.425 23.5944 41.4083 23.2805 40.7444C22.9667 40.0833 22.55 40.4139 21.8528 40.6555C21.1555 40.9 20.4083 40.3416 21.1222 39.575C21.8361 38.8083 22.3778 38.4444 22.4667 36.8777C22.4667 36.8777 22.3444 36.0083 22.8333 35.5194C22.8333 35.5194 23.2167 35.05 22.6778 34.9611C22.6778 34.9611 21.8417 34.525 22.8167 34.1611C22.8167 34.1611 23.5667 33.8472 24.6639 34.1611C24.75 34.1444 25.0667 32.9944 26.2139 33.6916C26.9806 34.1277 28.1833 33.1889 28.6889 32.7722C29.1944 32.3555 29.3167 32.0583 30.6055 32.5666C31.8944 33.0722 32.6778 33.1611 33.9833 32.45C35.2889 31.7361 36.9278 31.2694 39.4722 30.8361C42.0167 30.4027 45.2528 31.1389 46.8194 32.1166C46.8194 32.1166 47.4444 32.8833 49.3278 32.8166C51.2083 32.75 51.8167 33.55 51.9028 34.1611C51.9889 34.7694 52.7361 36.0777 53.5194 37.0527C54.3028 38.0277 54.5111 38.7444 54.6833 39.2833C54.6833 39.2833 53.9 39.6833 53.7583 40.2389C53.6194 40.7972 52.9222 41.1777 52.5028 41.2139C52.0861 41.2472 51.5083 38.7055 50.9472 41.6277C49.2111 39.6944 39.6028 36.9305 39.6028 36.9305L28.3 37.9277L27.8278 40.2083L27.6806 43.3305Z" fill="#174B85" stroke="#231815" stroke-width="1.51" stroke-linejoin="round"/>
<path d="M30.9528 47.1948C29.9084 45.481 29.525 46.1115 29.7723 43.031C30.0195 39.9504 29.6389 38.4504 27.9611 42.7337C27.9611 42.7337 27.3306 44.7171 26.8111 42.4532C26.2917 40.1893 26.6056 40.2921 27.0584 39.0393C27.0584 39.0393 26.5056 35.9032 28.3167 36.0448C28.3167 36.0448 29.2917 36.0643 29.9723 35.4032C30.6528 34.7421 30.7556 35.3865 30.8417 35.7171C30.9278 36.0476 31.625 36.9726 32.6889 35.8587C32.6889 35.8587 32.8639 35.4921 33.2278 36.0671C33.5917 36.6421 33.6639 36.2254 33.8723 35.5282C34.0834 34.831 34.3084 34.8504 34.8473 34.7115C35.3861 34.5726 35.9973 34.4171 36.2584 34.2254C36.5195 34.0337 36.8334 33.8782 36.7806 34.506C36.7278 35.1337 36.85 35.881 37.0945 34.6976C37.3389 33.5143 39.6917 32.6282 39.9695 33.7615C40.2473 34.8949 40.1417 34.4421 41.1528 34.0948C42.1639 33.7476 42.6695 33.4699 43.5723 34.4643C44.4778 35.4587 46.7417 35.7754 47.6639 35.9837C48.5861 36.1948 49.1611 36.1782 49.6139 36.7698C50.0361 37.2032 50.6056 37.556 50.9889 37.7282C51.3723 37.9032 51.8056 38.8782 51.4056 39.6087C50.7417 40.6004 51.0695 43.0921 50.6361 43.5615C50.2 44.031 47.6056 43.3837 47.6056 43.3837L43.5306 42.7532L40.7973 41.9837L36.6695 42.5365C36.6695 42.5365 33.8834 43.231 33.7778 43.2643C33.6723 43.3004 31.7556 44.7587 31.7556 44.7587L30.9528 47.1948Z" fill="#203668" stroke="#231815" stroke-width="0.76" stroke-miterlimit="10"/>
<path d="M30.9528 47.3698C36.2555 40.7225 45.8666 41.3948 49.8305 47.392C49.8305 47.392 50.3555 44.4309 50.6361 43.5614C45.9083 35.5809 33.0166 38.6309 30.9555 44.2003V47.3698H30.9528Z" fill="#174B85" stroke="#231815" stroke-width="1.51" stroke-linejoin="round"/>
<path d="M107.775 60.7891H105.503C105.328 60.7891 105.189 60.9307 105.189 61.103V66.4668C105.189 66.6418 105.331 66.7807 105.503 66.7807C105.675 66.7807 105.817 66.6391 105.817 66.4668V63.6391H107.303C107.478 63.6391 107.617 63.4974 107.617 63.3252C107.617 63.153 107.475 63.0113 107.303 63.0113H105.817V61.4196H107.775C107.95 61.4196 108.089 61.278 108.089 61.1057C108.089 60.9335 107.947 60.7918 107.775 60.7918V60.7891Z" fill="#E60012"/>
<path d="M75.2917 60.7891C75.1167 60.7891 74.9778 60.9307 74.9778 61.103V63.0085H73.3362V61.103C73.3362 60.928 73.1945 60.7891 73.0223 60.7891C72.85 60.7891 72.7084 60.9307 72.7084 61.103V63.1585C72.7084 63.1863 72.7139 63.2141 72.7195 63.2418C72.7112 63.2696 72.7084 63.2946 72.7084 63.3252C72.7084 63.5002 72.85 63.6391 73.0223 63.6391H73.9223V66.3807C73.9223 66.5557 74.0639 66.6946 74.2362 66.6946C74.4084 66.6946 74.55 66.553 74.55 66.3807V63.6391H75.2917C75.4667 63.6391 75.6056 63.4974 75.6056 63.3252C75.6056 63.2974 75.6 63.2696 75.5945 63.2418C75.6028 63.2141 75.6056 63.1891 75.6056 63.1585V61.103C75.6056 60.928 75.4639 60.7891 75.2917 60.7891Z" fill="#E60012"/>
<path d="M92.3028 60.7891C92.1278 60.7891 91.9889 60.9307 91.9889 61.103V63.0085H90.3473V61.103C90.3473 60.928 90.2056 60.7891 90.0334 60.7891C89.8612 60.7891 89.7195 60.9307 89.7195 61.103V63.1585C89.7195 63.1863 89.725 63.2141 89.7306 63.2418C89.7223 63.2696 89.7195 63.2946 89.7195 63.3252C89.7195 63.5002 89.8612 63.6391 90.0334 63.6391H90.9334V66.3807C90.9334 66.5557 91.075 66.6946 91.2473 66.6946C91.4195 66.6946 91.5612 66.553 91.5612 66.3807V63.6391H92.3028C92.4778 63.6391 92.6167 63.4974 92.6167 63.3252C92.6167 63.2974 92.6112 63.2696 92.6056 63.2418C92.6139 63.2141 92.6167 63.1891 92.6167 63.1585V61.103C92.6167 60.928 92.475 60.7891 92.3028 60.7891Z" fill="#E60012"/>
<path d="M80.8389 60.7891H78.5667C78.3917 60.7891 78.2528 60.9307 78.2528 61.103V66.4668C78.2528 66.6418 78.3945 66.7807 78.5667 66.7807C78.7389 66.7807 78.8806 66.6391 78.8806 66.4668V63.6391H80.5223V66.4668C80.5223 66.6418 80.6639 66.7807 80.8361 66.7807C81.0084 66.7807 81.15 66.6391 81.15 66.4668V61.103C81.15 60.928 81.0084 60.7891 80.8361 60.7891H80.8389ZM78.8806 63.0085V61.4168H80.5223V63.0085H78.8806Z" fill="#E60012"/>
<path d="M86.5805 60.7891C86.4055 60.7891 86.2666 60.9307 86.2666 61.103V64.253L84.8638 62.3335C84.8055 62.253 84.7166 62.2113 84.6222 62.2057V61.103C84.6222 60.928 84.4805 60.7891 84.3083 60.7891C84.1361 60.7891 83.9944 60.9307 83.9944 61.103V66.4668C83.9944 66.6418 84.1361 66.7807 84.3083 66.7807C84.4805 66.7807 84.6222 66.6391 84.6222 66.4668V63.0724L86.2027 65.2363C86.2222 65.2613 86.2416 65.2835 86.2666 65.3002V66.4668C86.2666 66.6418 86.4083 66.7807 86.5805 66.7807C86.7527 66.7807 86.8944 66.6391 86.8944 66.4668V61.103C86.8944 60.928 86.7527 60.7891 86.5805 60.7891Z" fill="#E60012"/>
<path d="M98.0167 60.7891C97.8417 60.7891 97.7028 60.9307 97.7028 61.103V66.1502H96.0611V61.103C96.0611 60.928 95.9195 60.7891 95.7472 60.7891C95.575 60.7891 95.4333 60.9307 95.4333 61.103V66.4668C95.4333 66.6418 95.575 66.7807 95.7472 66.7807H98.0195C98.1945 66.7807 98.3334 66.6391 98.3334 66.4668V61.103C98.3334 60.928 98.1917 60.7891 98.0195 60.7891H98.0167Z" fill="#E60012"/>
<path d="M113.094 60.7891H110.822C110.647 60.7891 110.508 60.9307 110.508 61.103V66.4668C110.508 66.6418 110.65 66.7807 110.822 66.7807H113.094C113.269 66.7807 113.408 66.6391 113.408 66.4668V61.103C113.408 60.928 113.267 60.7891 113.094 60.7891ZM112.781 61.4168V66.1502H111.139V61.4168H112.781Z" fill="#E60012"/>
<path d="M119.208 60.7891H116.936C116.761 60.7891 116.622 60.9307 116.622 61.103V66.4668C116.622 66.6418 116.764 66.7807 116.936 66.7807H119.208C119.383 66.7807 119.522 66.6391 119.522 66.4668V61.103C119.522 60.928 119.381 60.7891 119.208 60.7891ZM118.892 61.4168V66.1502H117.25V61.4168H118.892Z" fill="#E60012"/>
<path d="M125.258 61.3057C125.189 61.3057 125.125 61.328 125.072 61.3668V61.103C125.072 60.928 124.931 60.7891 124.758 60.7891H122.986C122.811 60.7891 122.672 60.9307 122.672 61.103V66.4668C122.672 66.6418 122.814 66.7807 122.986 66.7807H124.758C124.933 66.7807 125.072 66.6391 125.072 66.4668V66.2641H125.258C125.433 66.2641 125.572 66.1224 125.572 65.9502V61.6196C125.572 61.4446 125.431 61.3057 125.258 61.3057ZM124.756 65.6335C124.581 65.6335 124.442 65.7752 124.442 65.9474V66.1502H123.3V61.4168H124.442V61.5363C124.442 61.5835 124.453 61.628 124.469 61.6668C124.45 61.7057 124.442 61.7502 124.442 61.7974C124.442 61.9724 124.583 62.1113 124.756 62.1113H124.942V65.6335H124.756Z" fill="#E60012"/>
<path d="M93.2278 49.9916H85.4056L84.6112 48.8055H88.1056C88.6473 48.8055 89.0862 48.3666 89.0862 47.8249V40.336C89.0862 39.7944 88.6473 39.3555 88.1056 39.3555H75.3723C74.8306 39.3555 74.3917 39.7944 74.3917 40.336V47.8249C74.3917 48.3666 74.8306 48.8055 75.3723 48.8055H79.2612L78.4667 49.9916H70.089C69.5473 49.9916 69.1084 50.4305 69.1084 50.9721C69.1084 51.5138 69.5473 51.9527 70.089 51.9527H77.1556L76.1278 53.486C75.9584 53.7388 75.9167 54.0555 76.014 54.3416C76.1112 54.6305 76.3334 54.8555 76.6195 54.9555L78.9584 55.7694L74.0945 57.4638C73.5834 57.6416 73.314 58.1999 73.4917 58.711C73.6334 59.1166 74.0112 59.3694 74.4167 59.3694C74.5223 59.3694 74.6334 59.3527 74.739 59.3138L81.9362 56.8055L89.1334 59.3138C89.239 59.3499 89.3501 59.3694 89.4556 59.3694C89.8612 59.3694 90.239 59.1166 90.3806 58.711C90.5584 58.1999 90.289 57.6416 89.7778 57.4638L84.914 55.7694L87.2528 54.9555C87.539 54.8555 87.764 54.6277 87.8584 54.3416C87.9556 54.0527 87.9112 53.7388 87.7445 53.486L86.7167 51.9527H93.2278C93.7695 51.9527 94.2084 51.5138 94.2084 50.9721C94.2084 50.4305 93.7695 49.9916 93.2278 49.9916ZM76.3501 46.8444V44.7971H87.1251V46.8444H76.3501ZM87.1223 42.836H76.3473V41.3138H87.1223V42.836ZM81.3084 49.2666C81.4028 49.1249 81.4556 48.9638 81.4695 48.8055H82.3973C82.4112 48.9666 82.464 49.1249 82.5584 49.2666L83.0445 49.9916H80.8195L81.3056 49.2666H81.3084ZM85.4084 53.5221L81.9334 54.7332L78.4584 53.5221L79.5084 51.9527H84.3556L85.4056 53.5221H85.4084Z" fill="#E60012"/>
<path d="M72.0361 43.6526C72.5778 43.6526 73.0166 43.2137 73.0166 42.672V37.9554H90.425V42.672C90.425 43.2137 90.8639 43.6526 91.4055 43.6526C91.9472 43.6526 92.3861 43.2137 92.3861 42.672V36.9776C92.3861 36.4359 91.9472 35.997 91.4055 35.997H82.5194V33.5304C82.5194 32.9887 82.0805 32.5498 81.5389 32.5498C80.9972 32.5498 80.5583 32.9887 80.5583 33.5304V35.997H72.0361C71.4944 35.997 71.0555 36.4359 71.0555 36.9776V42.672C71.0555 43.2137 71.4944 43.6526 72.0361 43.6526Z" fill="#E60012"/>
<path d="M117.233 47.8221C117.631 47.4526 117.653 46.8332 117.283 46.4387L112.539 41.3332V39.6026C112.539 39.061 112.1 38.6221 111.558 38.6221C111.017 38.6221 110.578 39.061 110.578 39.6026V41.1999L105.086 46.5526C104.7 46.9304 104.692 47.5499 105.069 47.9387C105.261 48.136 105.517 48.2332 105.772 48.2332C106.028 48.2332 106.267 48.1415 106.456 47.9554L111.475 43.0637L115.85 47.7721C116.042 47.9804 116.306 48.086 116.567 48.086C116.806 48.086 117.044 47.9999 117.233 47.8249V47.8221Z" fill="#E60012"/>
<path d="M124.011 51.5579V43.7052C124.011 43.1635 123.572 42.7246 123.031 42.7246C122.489 42.7246 122.05 43.1635 122.05 43.7052V51.2941L116.5 56.7052C116.114 57.0829 116.106 57.7024 116.483 58.0913C116.675 58.2885 116.931 58.3857 117.186 58.3857C117.442 58.3857 117.68 58.2941 117.869 58.1079L122.883 53.2191L127.322 57.9968C127.514 58.2052 127.778 58.3107 128.039 58.3107C128.278 58.3107 128.517 58.2246 128.706 58.0496C129.103 57.6802 129.125 57.0607 128.755 56.6663L124.011 51.5579Z" fill="#E60012"/>
<path d="M106.569 39.8301H108.756C109.297 39.8301 109.736 39.3912 109.736 38.8495V35.5968C109.736 35.0551 109.297 34.6162 108.756 34.6162C108.214 34.6162 107.775 35.0551 107.775 35.5968V37.8718H106.569C106.028 37.8718 105.589 38.3107 105.589 38.8523C105.589 39.394 106.028 39.8329 106.569 39.8329V39.8301Z" fill="#E60012"/>
<path d="M114.011 39.8309H116.197C116.739 39.8309 117.178 39.392 117.178 38.8504C117.178 38.3087 116.739 37.8698 116.197 37.8698H114.992V35.5948C114.992 35.0531 114.553 34.6143 114.011 34.6143C113.469 34.6143 113.031 35.0531 113.031 35.5948V38.8476C113.031 39.3893 113.469 39.8281 114.011 39.8281V39.8309Z" fill="#E60012"/>
<path d="M129.167 40.2523C129.167 39.7107 128.728 39.2718 128.186 39.2718H121.006V35.5968C121.006 35.0551 120.567 34.6162 120.025 34.6162C119.483 34.6162 119.044 35.0551 119.044 35.5968V42.7273H117.572C117.031 42.7273 116.592 43.1662 116.592 43.7079C116.592 44.2495 117.031 44.6884 117.572 44.6884H120.025C120.567 44.6884 121.006 44.2495 121.006 43.7079V41.2329H127.206V43.9412C127.206 44.4829 127.644 44.9218 128.186 44.9218C128.728 44.9218 129.167 44.4829 129.167 43.9412V40.2523Z" fill="#E60012"/>
<path d="M114.731 48.8838H108.392C107.85 48.8838 107.411 49.3227 107.411 49.8643V57.1727C107.411 57.2005 107.411 57.2282 107.417 57.256C107.417 57.2838 107.411 57.3116 107.411 57.3393C107.411 57.881 107.85 58.3199 108.392 58.3199H114.731C115.272 58.3199 115.711 57.881 115.711 57.3393C115.711 57.3116 115.711 57.2838 115.706 57.256C115.706 57.2282 115.711 57.2005 115.711 57.1727V49.8643C115.711 49.3227 115.272 48.8838 114.731 48.8838ZM109.369 50.8449H113.75V56.3616H109.369V50.8449Z" fill="#E60012"/>
</g>
<defs>
<linearGradient id="paint0_linear_2760_91916" x1="40.7222" y1="40.7586" x2="40.7222" y2="57.4613" gradientUnits="userSpaceOnUse">
<stop stop-color="#EB6168"/>
<stop offset="0.81" stop-color="#FAE4E6"/>
</linearGradient>
<clipPath id="clip0_2760_91916">
<rect width="150" height="100" fill="white"/>
</clipPath>
</defs>
</svg>
