<svg width="160" height="80" viewBox="0 0 160 80" fill="none" xmlns="http://www.w3.org/2000/svg">
<rect width="160" height="80" rx="12" fill="white"/>
<path d="M62.6373 41.0995L61.698 42.6432L62.3736 44.3173L61.1943 45.6832L61.5825 47.4491L60.1928 48.6017L60.2847 50.4032L58.7232 51.3098L58.5158 53.1024L56.8269 53.7424L56.3291 55.4757L54.5603 55.8313L53.784 57.4609L51.9795 57.5202L50.9455 59.0017L49.1558 58.7617L47.8936 60.0476L46.1692 59.5142L44.7084 60.575L43.0936 59.7661L41.4818 60.575L40.021 59.5142L38.2966 60.0476L37.0314 58.7587L35.2448 59.0017L34.2107 57.5202L32.4063 57.4609L31.63 55.8313L29.8611 55.4757L29.3633 53.7424L27.6744 53.1024L27.467 51.3098L25.9055 50.4032L25.9974 48.6017L24.6078 47.4461L24.9959 45.6832L23.8166 44.3173L24.4922 42.6432L23.5559 41.0995L24.4922 39.5588L23.8166 37.8847L24.9959 36.5158L24.6078 34.7528L25.9974 33.6003L25.9055 31.7988L27.467 30.8891L27.6744 29.0966L29.3633 28.4566L29.8611 26.7232L31.63 26.3706L32.4063 24.741L34.2107 24.6818L35.2448 23.2003L37.0314 23.4403L38.2966 22.1514L40.021 22.6877L41.4818 21.627L43.0936 22.4358L44.7084 21.627L46.1692 22.6877L47.8936 22.1514L49.1588 23.4403L50.9484 23.2003L51.9825 24.6818L53.784 24.741L54.5603 26.3706L56.3291 26.7232L56.8299 28.4595L58.5158 29.0995L58.7232 30.8921L60.2847 31.7988L60.1928 33.6003L61.5825 34.7528L61.1943 36.5158L62.3736 37.8847L61.698 39.5588L62.6373 41.0995Z" fill="#E60012"/>
<path d="M47.4223 54.4393C46.7586 54.5519 45.9201 54.6053 45.0668 54.629C45.0609 54.6231 45.0549 54.6171 45.0549 54.6171C44.6164 54.623 44.0001 54.6379 43.3157 54.6438C42.6283 54.6379 42.0149 54.623 41.5735 54.6171C41.5735 54.6171 41.5705 54.6201 41.5616 54.629C40.7083 54.6053 39.8698 54.5519 39.2061 54.4393C38.3498 54.3416 38.4742 54.546 38.4742 54.9223C38.4742 55.2986 38.3794 56.0482 39.1349 56.1756C40.1068 56.3534 41.8283 56.3979 43.3127 56.3919C44.7971 56.3979 46.5216 56.3564 47.4905 56.1756C48.246 56.0482 48.1512 55.2986 48.1512 54.9223C48.1512 54.546 48.2757 54.3416 47.4194 54.4393H47.4223Z" fill="white" stroke="#231815" stroke-width="1.51" stroke-linejoin="round"/>
<path d="M49.7545 49.775C49.1382 48.5394 47.4433 48.2342 46.1426 47.8609L46.1159 47.8757C46.1011 47.855 46.0893 47.8342 46.0774 47.8135L40.8863 47.8609C39.5886 48.2342 37.8937 48.5424 37.2745 49.775C36.6582 51.0105 35.7456 53.6386 37.5975 54.4979C37.5975 54.4979 38.913 55.2505 40.8863 55.2209V54.5601C41.8315 54.6105 42.7323 54.6253 43.5145 54.6194C44.2967 54.6253 45.1974 54.6135 46.1426 54.5601V55.2209C48.1159 55.2475 49.4315 54.4979 49.4315 54.4979C51.2833 53.6386 50.3707 51.0105 49.7545 49.775Z" fill="#174B85" stroke="#231815" stroke-width="1.51" stroke-linejoin="round"/>
<path d="M41.0123 47.2002L40.1484 47.8359L42.6457 51.2294L43.5096 50.5937L41.0123 47.2002Z" fill="#231815" stroke="#A98667" stroke-width="1.12" stroke-linejoin="round"/>
<path d="M45.364 46.7848L41.1135 51.9668L41.9428 52.647L46.1933 47.465L45.364 46.7848Z" fill="#231815" stroke="#A98667" stroke-width="1.12" stroke-linejoin="round"/>
<path d="M43.1707 53.0556C43.1707 53.6304 42.7055 54.0956 42.1307 54.0956C41.5559 54.0956 41.0907 53.6304 41.0907 53.0556C41.0907 52.4808 41.5559 52.0156 42.1307 52.0156C42.7055 52.0156 43.1707 52.4808 43.1707 53.0556Z" fill="#FAE4E6" stroke="#231815" stroke-width="1.51" stroke-linejoin="round"/>
<path d="M45.8166 53.0556C45.8166 53.6304 45.3514 54.0956 44.7766 54.0956C44.2018 54.0956 43.7366 53.6304 43.7366 53.0556C43.7366 52.4808 44.2018 52.0156 44.7766 52.0156C45.3514 52.0156 45.8166 52.4808 45.8166 53.0556Z" fill="#FAE4E6" stroke="#231815" stroke-width="1.51" stroke-linejoin="round"/>
<path d="M41.8816 51.8135H40.4327V56.0268H41.8816V51.8135Z" fill="white" stroke="#231815" stroke-width="1.51" stroke-linejoin="round"/>
<path d="M39.3069 50.5693C39.4728 51.1856 39.8224 51.8582 40.7084 51.8849" stroke="#231815" stroke-width="1.51" stroke-linejoin="round"/>
<path d="M47.5263 47.8935C46.5812 47.7957 46.1752 48.1068 46.0419 49.4935C45.9767 50.1631 45.9382 50.9779 45.9323 51.7276C45.9264 52.5305 46.8508 51.6831 47.2952 51.2979C47.1767 49.1616 47.5234 47.8905 47.5234 47.8905L47.5263 47.8935Z" fill="white" stroke="#231815" stroke-width="1.09" stroke-linejoin="round"/>
<path d="M46.4268 51.8135H44.9779V56.0268H46.4268V51.8135Z" fill="white" stroke="#231815" stroke-width="1.51" stroke-linejoin="round"/>
<path d="M47.553 50.5693C47.387 51.1856 47.0374 51.8582 46.1515 51.8849" stroke="#231815" stroke-width="1.51" stroke-linejoin="round"/>
<path d="M48.1722 55.5918C48.1722 55.5918 47.3545 56.0807 43.3159 56.0985C39.2774 56.0807 38.4597 55.5918 38.4597 55.5918C38.4597 55.5918 37.9411 58.4155 37.6597 59.4022L38.2937 60.051L40.0182 59.5177L41.4789 60.5784L43.0937 59.7696L44.7085 60.5784L46.1693 59.5177L47.8937 60.051L48.8774 59.0496C48.59 57.8703 48.1722 55.5948 48.1722 55.5948V55.5918Z" fill="white"/>
<path d="M48.3915 55.5501C48.3797 55.479 48.3293 55.4197 48.2671 55.3901C48.2019 55.3575 48.1249 55.3634 48.0626 55.396C48.0538 55.4019 47.1738 55.8553 43.319 55.873C39.4641 55.8553 38.5812 55.4019 38.5782 55.399C38.516 55.3605 38.439 55.3575 38.3708 55.3871C38.3027 55.4167 38.2553 55.479 38.2434 55.5501C38.0923 56.3679 37.713 58.3471 37.4819 59.2153L37.8405 59.5827C38.0716 58.8449 38.4834 56.6938 38.6316 55.8967C39.1323 56.0538 40.3916 56.3086 43.316 56.3204C46.2404 56.3086 47.4997 56.0538 48.0004 55.8967C48.1308 56.5901 48.4597 58.3116 48.6938 59.233L49.0612 58.8567C48.833 57.8849 48.5219 56.2671 48.3886 55.5501H48.3915Z" fill="#231815"/>
<path d="M33.3484 38.2969C30.8862 38.2821 30.4684 40.5014 32.1069 41.5503C32.4477 41.7695 32.9573 41.9443 33.6832 42.0421C34.2491 42.1192 34.4299 41.9384 34.4299 41.9384L35.4491 39.2481L33.3514 38.2969H33.3484Z" fill="#FAE4E6" stroke="#231815" stroke-width="1.51" stroke-linejoin="round"/>
<path d="M33.8434 39.4321C33.3782 39.2543 32.9308 39.2188 32.7352 39.2188L33.8434 39.4321Z" fill="#FAE4E6"/>
<path d="M33.8434 39.4321C33.3782 39.2543 32.9308 39.2188 32.7352 39.2188" stroke="#231815" stroke-width="1.51" stroke-linecap="round" stroke-linejoin="round"/>
<path d="M52.7349 38.7295C55.3068 38.9754 55.1645 42.1428 51.9823 42.374C48.8001 42.6051 51.286 41.0317 51.286 41.0317L52.7379 38.7266L52.7349 38.7295Z" fill="#FAE4E6" stroke="#231815" stroke-width="1.51" stroke-linejoin="round"/>
<path d="M33.3039 36.9731C33.3039 36.9731 33.8402 41.5153 33.7335 42.5523C35.4876 49.0619 48.5779 50.0279 52.012 43.5894C52.7646 39.2605 52.8713 37.2931 53.5853 35.1124L53.2268 32.0724C53.2268 32.0724 45.8224 30.0694 45.3217 30.1405C44.8209 30.2116 37.6298 30.5701 37.6298 30.5701C37.6298 30.5701 33.3365 33.7524 33.301 33.8975C33.2654 34.0398 33.301 36.9731 33.301 36.9731H33.3039Z" fill="url(#paint0_linear_2890_194090)"/>
<path d="M33.0701 36.8072C33.6064 38.5524 33.6508 40.4931 33.7634 42.662C35.1619 49.8472 51.1263 49.5509 52.1693 42.662C52.1693 42.662 52.753 37.3672 53.5619 34.9287" stroke="#231815" stroke-width="1.52" stroke-linecap="round" stroke-linejoin="round"/>
<path d="M41.1558 37.4553C41.8521 37.5264 43.8017 37.7249 45.0728 37.4553C46.3439 37.1857 47.4521 37.5975 47.8639 38.6523C48.2758 39.7072 48.4891 41.2449 48.3647 42.5694C48.2402 43.8938 47.1499 44.359 45.7365 44.1783C44.3232 44.0005 41.8906 44.036 40.6225 44.2138C39.3514 44.3916 38.0121 43.8375 38.1188 42.3175C38.1188 42.3175 38.0803 40.2849 38.5632 38.7975C39.058 37.162 41.1617 37.4523 41.1617 37.4523L41.1558 37.4553Z" fill="white"/>
<path d="M45.858 41.8206C46.3765 41.1421 48.0477 39.1036 50.9306 37.708C50.9306 37.708 46.2491 39.5065 45.5351 41.4324C45.2477 42.5169 45.858 41.8206 45.858 41.8206Z" fill="#231815"/>
<path d="M39.9558 41.6951C39.5795 41.141 37.8462 38.8684 35.0551 37.4551C35.0551 37.4551 39.3128 39.1706 40.2787 41.2654C40.6373 42.4625 39.9558 41.6951 39.9558 41.6951Z" fill="#231815"/>
<path d="M43.9885 36.8271C43.9885 37.2597 43.6389 37.6094 43.2063 37.6094C42.7737 37.6094 42.4241 37.2597 42.4241 36.8271C42.4241 36.3946 42.7737 36.0449 43.2063 36.0449C43.6389 36.0449 43.9885 36.3946 43.9885 36.8271Z" fill="#E60012"/>
<path d="M29.5263 32.8838C28.993 33.269 27.636 34.232 27.1708 32.6912C26.7085 31.1475 27.0997 30.9461 25.7248 30.8512C25.7248 30.8512 25.1678 30.8335 24.833 30.1253C24.4982 29.4201 24.0537 29.7727 23.31 30.0305C22.5663 30.2912 21.7693 29.6957 22.5308 28.8779C23.2923 28.0601 23.87 27.672 23.9649 26.0009C23.9649 26.0009 23.8345 25.0735 24.356 24.552C24.356 24.552 24.7649 24.0513 24.19 23.9565C24.19 23.9565 23.2982 23.4913 24.3382 23.1031C24.3382 23.1031 25.1382 22.7683 26.3086 23.1031C26.4004 23.0853 26.7382 21.8587 27.9619 22.6024C28.7797 23.0676 30.0626 22.0661 30.6019 21.6216C31.1411 21.1772 31.2715 20.8602 32.6463 21.4024C34.0211 21.9416 34.8567 22.0365 36.2493 21.2779C37.6418 20.5165 39.39 20.0187 42.1041 19.5565C44.8181 19.0942 48.27 19.8794 49.9411 20.9224C49.9411 20.9224 50.6077 21.7402 52.6166 21.6691C54.6225 21.5979 55.2714 22.4513 55.3633 23.1031C55.4551 23.752 56.2522 25.1476 57.0877 26.1876C57.9233 27.2276 58.1455 27.992 58.3292 28.5668C58.3292 28.5668 57.4936 28.9935 57.3425 29.5861C57.1944 30.1816 56.4507 30.5875 56.0033 30.6261C55.5588 30.6616 54.9425 27.9505 54.344 31.0675C52.4922 29.0053 42.2433 26.0572 42.2433 26.0572L30.1871 27.1209L29.6834 29.5535L29.5263 32.8838Z" fill="#174B85" stroke="#231815" stroke-width="1.51" stroke-linejoin="round"/>
<path d="M33.0166 37.0052C31.9026 35.177 31.4937 35.8496 31.7574 32.5637C32.0211 29.2778 31.6152 27.6778 29.8255 32.2467C29.8255 32.2467 29.153 34.3622 28.5989 31.9474C28.0448 29.5326 28.3796 29.6422 28.8626 28.306C28.8626 28.306 28.273 24.9608 30.2048 25.1119C30.2048 25.1119 31.2448 25.1326 31.9707 24.4275C32.6966 23.7223 32.8063 24.4097 32.8981 24.7623C32.99 25.1149 33.7337 26.1015 34.8685 24.9134C34.8685 24.9134 35.0552 24.5223 35.4433 25.1356C35.8315 25.7489 35.9085 25.3045 36.1307 24.5608C36.3559 23.8171 36.5959 23.8378 37.1707 23.6897C37.7455 23.5415 38.3974 23.3756 38.6759 23.1712C38.9544 22.9667 39.2892 22.8008 39.2329 23.4704C39.1766 24.14 39.307 24.9371 39.5677 23.6749C39.8285 22.4126 42.3381 21.4675 42.6344 22.6763C42.9307 23.8852 42.8181 23.4023 43.8966 23.0319C44.9751 22.6615 45.5144 22.3652 46.4773 23.426C47.4433 24.4867 49.8581 24.8245 50.8418 25.0467C51.8255 25.2719 52.4388 25.2541 52.9218 25.8852C53.3721 26.3474 53.9795 26.7237 54.3884 26.9074C54.7973 27.0941 55.2595 28.1341 54.8329 28.9134C54.1247 29.9711 54.4744 32.6289 54.0121 33.1296C53.547 33.6304 50.7796 32.94 50.7796 32.94L46.4329 32.2674L43.5174 31.4467L39.1144 32.0363C39.1144 32.0363 36.1426 32.7771 36.03 32.8126C35.9174 32.8511 33.8729 34.4067 33.8729 34.4067L33.0166 37.0052Z" fill="#203668" stroke="#231815" stroke-width="0.76" stroke-miterlimit="10"/>
<path d="M33.0165 37.1923C38.6728 30.102 48.9246 30.819 53.1527 37.216C53.1527 37.216 53.7127 34.0575 54.012 33.1301C48.969 24.6175 35.218 27.8709 33.0194 33.8116V37.1923H33.0165Z" fill="#174B85" stroke="#231815" stroke-width="1.51" stroke-linejoin="round"/>
<path d="M114.96 51.5059H112.536C112.35 51.5059 112.202 51.657 112.202 51.8407V57.5621C112.202 57.7488 112.353 57.897 112.536 57.897C112.72 57.897 112.871 57.7458 112.871 57.5621V54.5459H114.456C114.643 54.5459 114.791 54.3947 114.791 54.211C114.791 54.0273 114.64 53.8762 114.456 53.8762H112.871V52.1785H114.96C115.147 52.1785 115.295 52.0273 115.295 51.8436C115.295 51.6599 115.144 51.5088 114.96 51.5088V51.5059Z" fill="#E60012"/>
<path d="M80.3112 51.5059C80.1245 51.5059 79.9764 51.657 79.9764 51.8407V53.8733H78.2253V51.8407C78.2253 51.654 78.0742 51.5059 77.8905 51.5059C77.7068 51.5059 77.5557 51.657 77.5557 51.8407V54.0333C77.5557 54.0629 77.5616 54.0925 77.5675 54.1221C77.5586 54.1518 77.5557 54.1784 77.5557 54.211C77.5557 54.3977 77.7068 54.5459 77.8905 54.5459H78.8505V57.4703C78.8505 57.657 79.0016 57.8051 79.1853 57.8051C79.369 57.8051 79.5201 57.654 79.5201 57.4703V54.5459H80.3112C80.4979 54.5459 80.646 54.3947 80.646 54.211C80.646 54.1814 80.6401 54.1518 80.6342 54.1221C80.6431 54.0925 80.646 54.0659 80.646 54.0333V51.8407C80.646 51.654 80.4949 51.5059 80.3112 51.5059Z" fill="#E60012"/>
<path d="M98.4562 51.5059C98.2696 51.5059 98.1214 51.657 98.1214 51.8407V53.8733H96.3703V51.8407C96.3703 51.654 96.2192 51.5059 96.0355 51.5059C95.8518 51.5059 95.7007 51.657 95.7007 51.8407V54.0333C95.7007 54.0629 95.7066 54.0925 95.7125 54.1221C95.7036 54.1518 95.7007 54.1784 95.7007 54.211C95.7007 54.3977 95.8518 54.5459 96.0355 54.5459H96.9955V57.4703C96.9955 57.657 97.1466 57.8051 97.3303 57.8051C97.514 57.8051 97.6651 57.654 97.6651 57.4703V54.5459H98.4562C98.6429 54.5459 98.7911 54.3947 98.7911 54.211C98.7911 54.1814 98.7851 54.1518 98.7792 54.1221C98.7881 54.0925 98.7911 54.0659 98.7911 54.0333V51.8407C98.7911 51.654 98.6399 51.5059 98.4562 51.5059Z" fill="#E60012"/>
<path d="M86.2282 51.5059H83.8045C83.6179 51.5059 83.4697 51.657 83.4697 51.8407V57.5621C83.4697 57.7488 83.6208 57.897 83.8045 57.897C83.9882 57.897 84.1394 57.7458 84.1394 57.5621V54.5459H85.8905V57.5621C85.8905 57.7488 86.0416 57.897 86.2253 57.897C86.409 57.897 86.5601 57.7458 86.5601 57.5621V51.8407C86.5601 51.654 86.409 51.5059 86.2253 51.5059H86.2282ZM84.1394 53.8733V52.1755H85.8905V53.8733H84.1394Z" fill="#E60012"/>
<path d="M92.3526 51.5059C92.166 51.5059 92.0178 51.657 92.0178 51.8407V55.2007L90.5215 53.1533C90.4593 53.0673 90.3645 53.0229 90.2637 53.017V51.8407C90.2637 51.654 90.1126 51.5059 89.9289 51.5059C89.7452 51.5059 89.5941 51.657 89.5941 51.8407V57.5621C89.5941 57.7488 89.7452 57.897 89.9289 57.897C90.1126 57.897 90.2637 57.7458 90.2637 57.5621V53.9414L91.9497 56.2496C91.9704 56.2762 91.9911 56.2999 92.0178 56.3177V57.5621C92.0178 57.7488 92.1689 57.897 92.3526 57.897C92.5363 57.897 92.6874 57.7458 92.6874 57.5621V51.8407C92.6874 51.654 92.5363 51.5059 92.3526 51.5059Z" fill="#E60012"/>
<path d="M104.551 51.5059C104.364 51.5059 104.216 51.657 104.216 51.8407V57.2244H102.465V51.8407C102.465 51.654 102.314 51.5059 102.13 51.5059C101.947 51.5059 101.796 51.657 101.796 51.8407V57.5621C101.796 57.7488 101.947 57.897 102.13 57.897H104.554C104.741 57.897 104.889 57.7458 104.889 57.5621V51.8407C104.889 51.654 104.738 51.5059 104.554 51.5059H104.551Z" fill="#E60012"/>
<path d="M120.634 51.5059H118.21C118.024 51.5059 117.876 51.657 117.876 51.8407V57.5621C117.876 57.7488 118.027 57.897 118.21 57.897H120.634C120.821 57.897 120.969 57.7458 120.969 57.5621V51.8407C120.969 51.654 120.818 51.5059 120.634 51.5059ZM120.299 52.1755V57.2244H118.548V52.1755H120.299Z" fill="#E60012"/>
<path d="M127.156 51.5059H124.732C124.545 51.5059 124.397 51.657 124.397 51.8407V57.5621C124.397 57.7488 124.548 57.897 124.732 57.897H127.156C127.342 57.897 127.49 57.7458 127.49 57.5621V51.8407C127.49 51.654 127.339 51.5059 127.156 51.5059ZM126.818 52.1755V57.2244H125.067V52.1755H126.818Z" fill="#E60012"/>
<path d="M133.609 52.057C133.535 52.057 133.467 52.0807 133.41 52.1222V51.8407C133.41 51.654 133.259 51.5059 133.076 51.5059H131.185C130.999 51.5059 130.85 51.657 130.85 51.8407V57.5621C130.85 57.7488 131.002 57.897 131.185 57.897H133.076C133.262 57.897 133.41 57.7458 133.41 57.5621V57.3458H133.609C133.796 57.3458 133.944 57.1947 133.944 57.011V52.3918C133.944 52.2051 133.793 52.057 133.609 52.057ZM133.073 56.6733C132.886 56.6733 132.738 56.8244 132.738 57.0081V57.2244H131.52V52.1755H132.738V52.3029C132.738 52.3533 132.75 52.4007 132.767 52.4422C132.747 52.4836 132.738 52.531 132.738 52.5814C132.738 52.7681 132.889 52.9162 133.073 52.9162H133.271V56.6733H133.073Z" fill="#E60012"/>
<path d="M99.4431 39.9897H91.0995L90.2521 38.7245H93.9795C94.5572 38.7245 95.0254 38.2564 95.0254 37.6786V29.6905C95.0254 29.1127 94.5572 28.6445 93.9795 28.6445H80.3973C79.8195 28.6445 79.3514 29.1127 79.3514 29.6905V37.6786C79.3514 38.2564 79.8195 38.7245 80.3973 38.7245H84.5454L83.698 39.9897H74.7617C74.184 39.9897 73.7158 40.4578 73.7158 41.0356C73.7158 41.6134 74.184 42.0815 74.7617 42.0815H82.2995L81.2032 43.7171C81.0225 43.9867 80.978 44.3245 81.0817 44.6297C81.1854 44.9378 81.4225 45.1778 81.7276 45.2845L84.2225 46.1526L79.0343 47.96C78.4891 48.1497 78.2017 48.7452 78.3914 49.2904C78.5425 49.723 78.9454 49.9926 79.378 49.9926C79.4906 49.9926 79.6091 49.9748 79.7217 49.9334L87.3987 47.2578L95.0758 49.9334C95.1883 49.9719 95.3069 49.9926 95.4195 49.9926C95.8521 49.9926 96.255 49.723 96.4061 49.2904C96.5957 48.7452 96.3083 48.1497 95.7632 47.96L90.575 46.1526L93.0698 45.2845C93.375 45.1778 93.615 44.9349 93.7158 44.6297C93.8195 44.3215 93.7721 43.9867 93.5943 43.7171L92.498 42.0815H99.4431C100.021 42.0815 100.489 41.6134 100.489 41.0356C100.489 40.4578 100.021 39.9897 99.4431 39.9897ZM81.4402 36.6327V34.449H92.9335V36.6327H81.4402ZM92.9306 32.3571H81.4373V30.7334H92.9306V32.3571ZM86.7291 39.2164C86.8299 39.0652 86.8862 38.8934 86.901 38.7245H87.8906C87.9054 38.8964 87.9617 39.0652 88.0624 39.2164L88.581 39.9897H86.2076L86.7262 39.2164H86.7291ZM91.1024 43.7556L87.3958 45.0474L83.6891 43.7556L84.8091 42.0815H89.9795L91.0995 43.7556H91.1024Z" fill="#E60012"/>
<path d="M76.8388 33.2267C77.4165 33.2267 77.8847 32.7586 77.8847 32.1808V27.1497H96.4535V32.1808C96.4535 32.7586 96.9217 33.2267 97.4994 33.2267C98.0772 33.2267 98.5454 32.7586 98.5454 32.1808V26.1067C98.5454 25.529 98.0772 25.0608 97.4994 25.0608H88.021V22.4297C88.021 21.8519 87.5528 21.3838 86.975 21.3838C86.3973 21.3838 85.9291 21.8519 85.9291 22.4297V25.0608H76.8388C76.261 25.0608 75.7928 25.529 75.7928 26.1067V32.1808C75.7928 32.7586 76.261 33.2267 76.8388 33.2267Z" fill="#E60012"/>
<path d="M125.049 37.6746C125.473 37.2806 125.496 36.6198 125.102 36.1991L120.042 30.7532V28.9073C120.042 28.3295 119.573 27.8613 118.996 27.8613C118.418 27.8613 117.95 28.3295 117.95 28.9073V30.611L112.092 36.3206C111.68 36.7235 111.671 37.3843 112.074 37.7991C112.279 38.0094 112.551 38.1132 112.824 38.1132C113.096 38.1132 113.351 38.0154 113.553 37.8169L118.907 32.5991L123.573 37.6213C123.778 37.8435 124.059 37.9561 124.338 37.9561C124.593 37.9561 124.848 37.8643 125.049 37.6776V37.6746Z" fill="#E60012"/>
<path d="M132.278 41.6605V33.2842C132.278 32.7064 131.81 32.2383 131.232 32.2383C130.655 32.2383 130.187 32.7064 130.187 33.2842V41.379L124.267 47.1508C123.855 47.5538 123.846 48.2145 124.249 48.6293C124.453 48.8397 124.726 48.9434 124.998 48.9434C125.271 48.9434 125.526 48.8456 125.727 48.6471L131.075 43.4323L135.81 48.5286C136.015 48.7508 136.296 48.8634 136.575 48.8634C136.829 48.8634 137.084 48.7716 137.286 48.5849C137.709 48.1908 137.733 47.5301 137.339 47.1093L132.278 41.6605Z" fill="#E60012"/>
<path d="M113.674 29.1513H116.006C116.584 29.1513 117.052 28.6832 117.052 28.1054V24.6358C117.052 24.058 116.584 23.5898 116.006 23.5898C115.428 23.5898 114.96 24.058 114.96 24.6358V27.0624H113.674C113.096 27.0624 112.628 27.5306 112.628 28.1083C112.628 28.6861 113.096 29.1543 113.674 29.1543V29.1513Z" fill="#E60012"/>
<path d="M121.612 29.1504H123.944C124.521 29.1504 124.99 28.6822 124.99 28.1044C124.99 27.5267 124.521 27.0585 123.944 27.0585H122.658V24.6319C122.658 24.0541 122.19 23.5859 121.612 23.5859C121.034 23.5859 120.566 24.0541 120.566 24.6319V28.1015C120.566 28.6793 121.034 29.1474 121.612 29.1474V29.1504Z" fill="#E60012"/>
<path d="M137.778 29.6017C137.778 29.0239 137.31 28.5558 136.732 28.5558H129.073V24.6358C129.073 24.058 128.604 23.5898 128.027 23.5898C127.449 23.5898 126.981 24.058 126.981 24.6358V32.2417H125.41C124.833 32.2417 124.364 32.7098 124.364 33.2876C124.364 33.8654 124.833 34.3335 125.41 34.3335H128.027C128.604 34.3335 129.073 33.8654 129.073 33.2876V30.6476H135.686V33.5365C135.686 34.1143 136.154 34.5824 136.732 34.5824C137.31 34.5824 137.778 34.1143 137.778 33.5365V29.6017Z" fill="#E60012"/>
<path d="M122.379 38.8066H115.618C115.04 38.8066 114.572 39.2748 114.572 39.8526V47.6481C114.572 47.6777 114.572 47.7074 114.578 47.737C114.578 47.7666 114.572 47.7962 114.572 47.8259C114.572 48.4036 115.04 48.8718 115.618 48.8718H122.379C122.957 48.8718 123.425 48.4036 123.425 47.8259C123.425 47.7962 123.425 47.7666 123.419 47.737C123.419 47.7074 123.425 47.6777 123.425 47.6481V39.8526C123.425 39.2748 122.957 38.8066 122.379 38.8066ZM116.661 40.8985H121.333V46.7829H116.661V40.8985Z" fill="#E60012"/>
<defs>
<linearGradient id="paint0_linear_2890_194090" x1="43.4372" y1="30.1405" x2="43.4372" y2="47.9568" gradientUnits="userSpaceOnUse">
<stop stop-color="#EB6168"/>
<stop offset="0.81" stop-color="#FAE4E6"/>
</linearGradient>
</defs>
</svg>
