<svg width="140" height="141" viewBox="0 0 140 141" fill="none" xmlns="http://www.w3.org/2000/svg">
<g clip-path="url(#clip0_2890_194103)">
<path d="M3.4641 76.4785C1.32051 72.7657 1.32051 68.1913 3.4641 64.4785L31.5359 15.8567C33.6795 12.1439 37.641 9.85674 41.9282 9.85674H98.0718C102.359 9.85674 106.321 12.1439 108.464 15.8567L136.536 64.4785C138.679 68.1913 138.679 72.7657 136.536 76.4785L108.464 125.1C106.321 128.813 102.359 131.1 98.0718 131.1H41.9282C37.641 131.1 33.6795 128.813 31.5359 125.1L3.4641 76.4785Z" fill="white"/>
<path d="M48.3984 95.5533H46.6945V94.3613H44.7266V95.5533H43.0547V96.5612H44.7266V98.9664L43.0547 99.0811V100.089L44.7266 99.9744V101.201L44.268 102.468H46.2465L46.6972 101.177V99.8384C48.0304 99.7557 48.4011 99.0304 48.4011 98.6918L46.6972 98.8198V96.5612C48.0251 96.5612 48.3664 96.1346 48.4011 95.5533H48.3984Z" fill="#3071B7"/>
<path d="M51.1849 101.427V94.374H49.217V102.448H53.8728V101.427H51.1849Z" fill="#3071B7"/>
<path d="M73.3065 98.3849H75.949V97.3662H72.9545V95.5157L75.7197 95.449V94.4277L68.2641 94.5984V95.6197L70.9973 95.5637V97.3689H68.0028V98.3875H70.6373L67.8934 102.459C70.5653 102.459 70.4133 102.177 71.9706 99.8968C73.5305 102.182 73.3785 102.459 76.0584 102.459L73.3065 98.3875V98.3849Z" fill="#3071B7"/>
<path d="M65.2722 102.459C67.8214 102.459 67.2854 101.981 67.7654 99.4189C65.2162 99.4189 65.7522 99.8936 65.2722 102.459Z" fill="#3071B7"/>
<path d="M67.7735 96.4138C67.2642 94.2699 67.5015 94.3819 65.3683 94.3819C65.8803 96.5311 65.6456 96.4138 67.7735 96.4138Z" fill="#3071B7"/>
<path d="M65.4349 96.8773C65.9096 99.0318 65.6749 98.9092 67.8081 98.9092C67.3335 96.7546 67.5628 96.8773 65.4349 96.8773Z" fill="#3071B7"/>
<path d="M93.964 96.8668L93.9854 95.3602L96.8145 95.2909V94.4189L92.1134 94.4856L92.0175 102.459H93.8867L93.9507 97.8881H94.6413V102.459H96.4546V97.8881H96.9479V96.8668H93.964Z" fill="#3071B7"/>
<path d="M86.1245 102.469C87.9351 102.469 87.8604 102.696 88.3991 100.904C86.5885 100.904 86.6632 100.677 86.1245 102.469Z" fill="#3071B7"/>
<path d="M89.4817 100.904C90.0177 102.696 89.9457 102.469 91.7562 102.469C91.2203 100.677 91.2923 100.904 89.4817 100.904Z" fill="#3071B7"/>
<path d="M91.4896 96.0646H91.8069V95.0433H91.4896V94.374H89.6524V95.0433H88.2631V94.374H86.4259V95.0433H86.1112V96.0646H86.4259V99.6911H86.0765V100.712H91.8389V99.6911H91.4896V96.0646ZM89.655 99.6911H88.2658V99.1951H89.655V99.6911ZM89.655 98.1712H88.2658V97.5819H89.655V98.1712ZM89.655 96.5606H88.2658V96.0646H89.655V96.5606Z" fill="#3071B7"/>
<path fill-rule="evenodd" clip-rule="evenodd" d="M73.7117 44.2935L82.1406 38.4805H56.1313C54.222 38.4805 52.6621 40.0991 52.6621 42.0776V45.9201H53.862C54.2567 45.9201 54.5793 46.2561 54.5793 46.6694V52.6424C54.5793 53.0557 54.2567 53.3917 53.862 53.3917H52.6621V59.5381H53.862C54.2567 59.5381 54.5793 59.8741 54.5793 60.282V66.2577C54.5793 66.6684 54.2567 67.0017 53.862 67.0017H52.6621V70.8495C52.6621 72.8254 54.222 74.444 56.1313 74.444H69.7652L61.3363 68.6363C59.2964 67.2257 57.6245 64.8658 57.6245 63.3885V57.1195L66.2854 63.0926C68.3307 64.5032 69.9972 65.8604 69.9972 67.3377V65.5004C69.9972 61.3646 69.9599 62.0419 66.6267 59.7461L61.3363 56.0982C59.2964 54.6903 57.6245 52.3278 57.6245 50.8505V44.5815L66.2854 50.5572C68.3307 51.9651 69.9972 53.4744 69.9972 54.9516V49.5359C69.9972 48.0587 71.6692 45.6961 73.709 44.2882L73.7117 44.2935Z" fill="#3071B7"/>
<path fill-rule="evenodd" clip-rule="evenodd" d="M78.6609 49.8322L71.5199 54.7546C69.7173 56.0025 69.9973 56.1625 69.9973 58.4264V61.4956C69.9973 59.9623 71.6692 58.2371 73.7091 56.8291L82.37 50.8534V57.1225C82.37 58.5997 80.7008 60.9623 78.6582 62.3702L69.9973 68.3432V74.4469H83.8686C85.7752 74.4469 87.3378 72.8283 87.3378 70.8524V67.0046H86.1378C85.7405 67.0046 85.4152 66.6686 85.4152 66.2607V60.285C85.4152 59.8743 85.7378 59.541 86.1378 59.541H87.3378V53.3946H86.1378C85.7405 53.3946 85.4152 53.0587 85.4152 52.6454V46.6723C85.4152 46.259 85.7378 45.923 86.1378 45.923H87.3378V42.0806C87.3378 40.0993 85.7752 38.4834 83.8686 38.4834H82.3727V44.5871C82.3727 46.0643 80.7034 48.4269 78.6609 49.8348V49.8322Z" fill="#18933B"/>
<path fill-rule="evenodd" clip-rule="evenodd" d="M46.3532 91.6352H35.7244V89.9713L42.612 81.3984L42.62 81.3824L42.6413 81.3504L42.6813 81.2998L42.7347 81.2358L42.8013 81.1504L42.884 81.0518L42.9853 80.9344L43.0973 80.8011L43.22 80.6598L43.3346 80.5211L43.452 80.3931L43.5666 80.2651L43.6786 80.1425L43.7906 80.0252L43.8973 79.9132L44.0039 79.8065H36.495V78.2119H46.1238V79.8065L38.5776 89.0834L37.7723 90.0433H46.3532V91.6352Z" fill="#9E9E9F"/>
<path fill-rule="evenodd" clip-rule="evenodd" d="M60.9523 91.635H58.9444L57.3685 87.5498H51.7581L50.2755 91.635H48.3956L53.558 78.209H55.4726L60.955 91.635H60.9523ZM56.8272 86.1419L56.6272 85.6113L56.4379 85.11L56.2592 84.638L56.0912 84.1953L55.9366 83.782L55.7926 83.4007L55.6593 83.0487L55.5393 82.7234L55.4273 82.4301L55.3259 82.1661L55.2406 81.9288L55.1633 81.7235L55.0966 81.5448L55.0406 81.3982L54.998 81.2808L54.966 81.1928L54.9126 81.0382L54.8566 80.8728L54.8006 80.6942L54.7446 80.4995L54.6833 80.2969L54.6246 80.0809L54.5607 79.8516L54.4967 79.6116H54.454L54.422 79.7796L54.3873 79.9476L54.35 80.1102L54.3127 80.2729L54.2727 80.4355L54.2327 80.5955L54.1927 80.7555L54.1527 80.9155L54.1073 81.0702L54.0647 81.2248L54.0167 81.3768L53.9687 81.5288L53.9207 81.6781L53.8674 81.8248L53.814 81.9715L53.7607 82.1181L52.2568 86.1366H56.8245L56.8272 86.1419Z" fill="#9E9E9F"/>
<path fill-rule="evenodd" clip-rule="evenodd" d="M74.8824 78.2119L69.6186 91.6352H67.8054L62.5977 78.2119H64.5122L68.008 87.9634L68.056 88.0834L68.1067 88.2034L68.152 88.3261L68.2 88.4514L68.2454 88.5794L68.2907 88.71L68.3334 88.8434L68.3787 88.9767L68.424 89.1154L68.464 89.2567L68.504 89.398L68.5467 89.5447L68.5867 89.6913L68.6267 89.846L68.664 89.998L68.704 90.1526H68.7387L68.7733 90.0167L68.8107 89.8833L68.848 89.75L68.888 89.614L68.9253 89.478L68.968 89.342L69.008 89.206L69.0507 89.0674L69.0987 88.9314L69.1413 88.7954L69.1893 88.6567L69.2373 88.5207L69.2853 88.3821L69.3333 88.2434L69.384 88.1021L69.4373 87.9634L73.0771 78.2119H74.8824Z" fill="#9E9E9F"/>
<path fill-rule="evenodd" clip-rule="evenodd" d="M83.8899 77.9854H84.0659L84.2393 77.9934L84.4099 78.0014L84.5779 78.0147L84.7459 78.0334L84.9112 78.0547L85.0766 78.0787L85.2392 78.1053L85.3992 78.1373L85.5565 78.1747L85.7112 78.2147L85.8632 78.2573L86.0152 78.3053L86.1645 78.356L86.3138 78.4093L86.4605 78.4653L86.6045 78.5267L86.7458 78.5933L86.8845 78.6627L87.0205 78.7347L87.1565 78.812L87.2898 78.892L87.4231 78.9773L87.5538 79.0626L87.6818 79.156L87.8071 79.252L87.9297 79.3506L88.0497 79.4519L88.1671 79.5586L88.2844 79.6679L88.3991 79.7826L88.5137 79.8999L88.6257 80.0199L88.7324 80.1426L88.8337 80.2679L88.935 80.3959L89.031 80.5292L89.1244 80.6626L89.2123 80.7959L89.2977 80.9345L89.3803 81.0732L89.4603 81.2145L89.535 81.3612L89.607 81.5078L89.6763 81.6572L89.7403 81.8092L89.8017 81.9612L89.8603 82.1185L89.9163 82.2785L89.967 82.4411L90.015 82.6038L90.0576 82.7691L90.0976 82.9344L90.135 83.1051L90.1696 83.2811L90.199 83.4571L90.223 83.6357L90.247 83.8144L90.2683 83.9957L90.2843 84.1797L90.295 84.369L90.303 84.5584L90.3083 84.753V84.9477V85.1423L90.303 85.3343L90.295 85.5236L90.2843 85.7103L90.2683 85.8943L90.247 86.0756L90.223 86.2543L90.1963 86.4329L90.167 86.6089L90.1323 86.7822L90.095 86.9502L90.055 87.1182L90.0123 87.2836L89.9643 87.4462L89.9136 87.6089L89.8576 87.7662L89.799 87.9235L89.7377 88.0755L89.671 88.2248L89.6017 88.3742L89.5297 88.5208L89.455 88.6648L89.375 88.8061L89.2923 88.9448L89.207 89.0808L89.1164 89.2141L89.023 89.3474L88.927 89.4781L88.8257 89.6061L88.7217 89.7314L88.615 89.8514L88.5031 89.9714L88.3884 90.0887L88.2711 90.2034L88.1537 90.3154L88.0337 90.4194L87.9137 90.5207L87.7911 90.6194L87.6631 90.7154L87.5351 90.806L87.4071 90.8914L87.2738 90.9767L87.1405 91.0567L87.0071 91.1314L86.8711 91.2034L86.7325 91.2727L86.5911 91.3393L86.4472 91.4007L86.3005 91.4567L86.1538 91.51L86.0045 91.5607L85.8552 91.606L85.7032 91.6487L85.5485 91.6887L85.3912 91.7233L85.2339 91.7553L85.0712 91.782L84.9086 91.806L84.7432 91.8273L84.5779 91.8433L84.4099 91.8567L84.2393 91.8647L84.0659 91.87H83.8926H83.7113L83.5326 91.8647L83.354 91.854L83.1807 91.8406L83.01 91.8246L82.8393 91.8033L82.674 91.7793L82.5087 91.75L82.3434 91.718L82.1834 91.6807L82.026 91.6407L81.8687 91.5953L81.7167 91.5473L81.5647 91.4967L81.4154 91.4407L81.2661 91.382L81.1194 91.318L80.9781 91.2487L80.8368 91.1794L80.6981 91.1047L80.5648 91.0274L80.4315 90.942L80.2981 90.8567L80.1675 90.7687L80.0421 90.6727L79.9168 90.574L79.7942 90.4727L79.6742 90.3687L79.5568 90.2594L79.4395 90.1447L79.3248 90.0274L79.2129 89.9074L79.1035 89.7848L78.9995 89.6594L78.8982 89.5314L78.7995 89.4008L78.7035 89.2701L78.6129 89.1368L78.5249 89.0035L78.4396 88.8675L78.3569 88.7315L78.2796 88.5928L78.2076 88.4515L78.1382 88.3075L78.0689 88.1635L78.0049 88.0168L77.9436 87.8702L77.8876 87.7209L77.8343 87.5715L77.7836 87.4195L77.7356 87.2649L77.6929 87.1102L77.6529 86.9502L77.6156 86.7902L77.5809 86.6276L77.5543 86.4649L77.5276 86.3023L77.5036 86.1343L77.4849 85.9689L77.4689 85.7983L77.4583 85.6276L77.4503 85.4516L77.4449 85.2783V85.0997V84.8943L77.4503 84.6917L77.4583 84.4917L77.4689 84.297L77.4849 84.1024L77.5063 83.9104L77.5303 83.7211L77.5543 83.5371L77.5836 83.3531L77.6183 83.1744L77.6556 82.9958L77.6956 82.8198L77.7383 82.6465L77.7863 82.4785L77.8369 82.3131L77.8929 82.1478L77.9489 81.9878L78.0102 81.8278L78.0742 81.6732L78.1436 81.5185L78.2156 81.3692L78.2902 81.2225L78.3676 81.0759L78.4529 80.9345L78.5382 80.7932L78.6262 80.6572L78.7195 80.5239L78.8155 80.3906L78.9169 80.2626L79.0209 80.1372L79.1275 80.0146L79.2369 79.8946L79.3515 79.7773L79.4662 79.6626L79.5835 79.5506L79.7035 79.4466L79.8235 79.3453L79.9461 79.2466L80.0715 79.1506L80.1995 79.06L80.3301 78.9746L80.4635 78.8893L80.5968 78.8093L80.7301 78.7347L80.8688 78.6627L81.0074 78.5933L81.1514 78.5267L81.2954 78.4653L81.4421 78.4093L81.5914 78.356L81.7407 78.3053L81.8927 78.26L82.0447 78.2173L82.202 78.1773L82.362 78.1427L82.5247 78.1107L82.6873 78.084L82.8527 78.06L83.018 78.0387L83.186 78.0227L83.3593 78.0094L83.5326 78.0014L83.7086 77.996H83.8873L83.8899 77.9854ZM83.8713 90.3447H83.9993L84.1246 90.3394L84.2473 90.3314L84.3699 90.3234L84.4899 90.3127L84.6099 90.2967L84.7272 90.2781L84.8446 90.2567L84.9592 90.2327L85.0739 90.2087L85.1859 90.1794L85.2952 90.1474L85.4045 90.1101L85.5112 90.0727L85.6179 90.0327L85.7219 89.9901L85.8232 89.9447L85.9245 89.8941L86.0258 89.8434L86.1245 89.7901L86.2205 89.7341L86.3165 89.6728L86.4098 89.6114L86.5032 89.5448L86.5911 89.4754L86.6791 89.4061L86.7671 89.3314L86.8525 89.2541L86.9378 89.1741L87.0205 89.0915L87.1031 89.0061L87.1831 88.9181L87.2604 88.8275L87.3378 88.7368L87.4098 88.6408L87.4791 88.5448L87.5484 88.4435L87.6151 88.3422L87.6791 88.2382L87.7378 88.1342L87.7964 88.0248L87.8524 87.9155L87.9057 87.8035L87.9591 87.6889L88.0071 87.5715L88.0524 87.4542L88.0951 87.3342L88.1351 87.2116L88.1751 87.0862L88.2124 86.9582L88.2471 86.8276L88.2791 86.6942L88.3084 86.5609L88.3324 86.4249L88.3564 86.2889L88.3777 86.1476L88.3991 86.0036L88.4151 85.857L88.4284 85.7103L88.4391 85.561L88.4471 85.409L88.4551 85.257L88.4604 85.0997V84.9423V84.7797V84.617L88.4524 84.4597L88.4444 84.305L88.4337 84.153L88.4204 84.0037L88.4044 83.8571L88.3831 83.7104L88.3617 83.5664L88.3377 83.4251L88.3137 83.2864L88.2844 83.1504L88.2524 83.0171L88.2177 82.8838L88.1804 82.7531L88.1404 82.6251L88.0977 82.4998L88.0551 82.3771L88.0071 82.2598L87.9564 82.1425L87.9057 82.0251L87.8498 81.9132L87.7938 81.8012L87.7324 81.6918L87.6711 81.5878L87.6071 81.4838L87.5378 81.3825L87.4684 81.2812L87.3964 81.1852L87.3218 81.0919L87.2445 80.9985L87.1644 80.9105L87.0818 80.8252L86.9991 80.7399L86.9138 80.6599L86.8285 80.5799L86.7431 80.5052L86.6551 80.4332L86.5671 80.3639L86.4765 80.2946L86.3858 80.2306L86.2925 80.1692L86.1965 80.1106L86.1005 80.0546L86.0045 80.0013L85.9032 79.9479L85.8045 79.8999L85.7032 79.8546L85.6019 79.8119L85.5005 79.7719L85.3939 79.7319L85.2899 79.6973L85.1832 79.6653L85.0739 79.6386L84.9619 79.6119L84.8499 79.5879L84.7379 79.5666L84.6232 79.5479L84.5059 79.5319L84.3886 79.5213L84.2713 79.5106L84.1513 79.5026H84.0339L83.9113 79.4973H83.786L83.6633 79.5026L83.5406 79.5106L83.4206 79.5213L83.3006 79.5319L83.1833 79.5453L83.066 79.5639L82.9487 79.5853L82.834 79.6093L82.7193 79.6333L82.61 79.6626L82.498 79.6946L82.3914 79.7266L82.2847 79.7639L82.178 79.8039L82.074 79.8439L81.9727 79.8893L81.8714 79.9373L81.7701 79.9853L81.6714 80.0386L81.5727 80.0919L81.4767 80.1506L81.3834 80.2092L81.2901 80.2732L81.1994 80.3399L81.1088 80.4092L81.0208 80.4812L80.9328 80.5559L80.8474 80.6306L80.7621 80.7105L80.6794 80.7959L80.5968 80.8812L80.5168 80.9692L80.4395 81.0572L80.3648 81.1505L80.2928 81.2492L80.2235 81.3478L80.1568 81.4492L80.0901 81.5532L80.0288 81.6625L79.9702 81.7745L79.9141 81.8865L79.8582 82.0038L79.8048 82.1211L79.7542 82.2438L79.7088 82.3691L79.6635 82.4971L79.6235 82.6305L79.5835 82.7638L79.5462 82.8998L79.5115 83.0384L79.4795 83.1824L79.4502 83.3291L79.4262 83.4757L79.4022 83.6251L79.3808 83.7797L79.3595 83.9371L79.3435 84.097L79.3302 84.2597L79.3195 84.425L79.3115 84.593L79.3035 84.7637V84.937L79.2982 85.1157V85.2623L79.3035 85.4063L79.3115 85.5476L79.3195 85.6863L79.3302 85.825L79.3435 85.9609L79.3595 86.0943L79.3782 86.2276L79.3995 86.3609L79.4235 86.4916L79.4502 86.6196L79.4768 86.7449L79.5088 86.8702L79.5435 86.9929L79.5808 87.1129L79.6208 87.2302L79.6608 87.3475L79.7062 87.4649L79.7515 87.5795L79.7995 87.6915L79.8502 87.8009L79.9061 87.9102L79.9621 88.0168L80.0208 88.1208L80.0821 88.2222L80.1435 88.3235L80.2101 88.4248L80.2795 88.5235L80.3488 88.6195L80.4208 88.7128L80.4981 88.8061L80.5755 88.8968L80.6554 88.9848L80.7381 89.0701L80.8234 89.1528L80.9088 89.2354L80.9941 89.3128L81.0821 89.3874L81.1701 89.4568L81.2608 89.5261L81.3541 89.5928L81.4474 89.6541L81.5407 89.7154L81.6394 89.7714L81.7381 89.8274L81.8394 89.8807L81.9407 89.9288L82.042 89.9767L82.146 90.0194L82.25 90.0594L82.3567 90.0967L82.466 90.1341L82.5754 90.1661L82.6873 90.1954L82.802 90.2221L82.9167 90.2461L83.034 90.2701L83.1513 90.2887L83.2687 90.3047L83.3886 90.3154L83.5086 90.3234L83.634 90.3314H83.7566L83.8846 90.3367L83.8713 90.3447Z" fill="#9E9E9F"/>
<path fill-rule="evenodd" clip-rule="evenodd" d="M102.148 82.1505L102.142 82.0705L102.132 81.9931L102.121 81.9158L102.11 81.8385L102.094 81.7665L102.081 81.6892L102.065 81.6198L102.049 81.5505L102.033 81.4785L102.012 81.4092L101.988 81.3452L101.966 81.2785L101.942 81.2119L101.918 81.1479L101.892 81.0865L101.862 81.0252L101.833 80.9665L101.801 80.9105L101.769 80.8492L101.734 80.7959L101.702 80.7399L101.665 80.6865L101.625 80.6359L101.588 80.5852L101.548 80.5346L101.502 80.4866L101.46 80.4386L101.417 80.3932L101.369 80.3506L101.324 80.3052L101.273 80.2626L101.222 80.2226L101.169 80.1799L101.118 80.1452L101.062 80.1052L101.009 80.0706L100.95 80.0359L100.892 80.0013L100.83 79.9693L100.769 79.9399L100.708 79.9106L100.644 79.8813L100.577 79.8519L100.51 79.8279L100.444 79.8039L100.372 79.7799L100.302 79.7586L100.23 79.7373L100.156 79.7186L100.081 79.6999L100.004 79.6813L99.9265 79.6653L99.8465 79.6519L99.7665 79.6386L99.6838 79.6279L99.6012 79.6173L99.5158 79.6066L99.4305 79.6013L99.3425 79.5933L99.2545 79.5879L99.1638 79.5826L99.0705 79.5799L98.9772 79.5773H98.8839L98.7159 79.5799L98.5505 79.5853L98.3879 79.5959L98.2306 79.6093L98.0759 79.6279L97.9239 79.6493L97.8519 79.6626L97.7799 79.6759L97.7079 79.6893L97.6386 79.7053L97.5693 79.7213L97.4999 79.7399L97.4333 79.7586L97.3666 79.7746L97.2999 79.7959L97.2359 79.8199L97.1719 79.8413L97.1106 79.8653L97.0493 79.8893L96.9906 79.9159L96.932 79.9426L96.8733 79.9693L96.8146 79.9986L96.7586 80.0279L96.7026 80.0572L96.6493 80.0892L96.596 80.1212L96.5426 80.1559L96.4946 80.1906L96.4466 80.2252L96.4013 80.2599L96.356 80.2999L96.3107 80.3346L96.2706 80.3746L96.2307 80.4146L96.1933 80.4572L96.156 80.4972L96.1213 80.5372L96.0893 80.5852L96.0573 80.6279L96.028 80.6732L96.0013 80.7185L95.9773 80.7665L95.9507 80.8145L95.9293 80.8625L95.908 80.9105L95.8867 80.9612L95.8707 81.0145L95.8547 81.0679L95.8387 81.1212L95.828 81.1745L95.8173 81.2305L95.8067 81.2865L95.8013 81.3452L95.7933 81.4012L95.7907 81.4598L95.788 81.5185V81.5798V81.6358L95.7907 81.6892L95.7933 81.7398L95.7987 81.7932L95.804 81.8438L95.8093 81.8918L95.82 81.9398L95.828 81.9878L95.8387 82.0358L95.852 82.0811L95.8653 82.1265L95.8813 82.1718L95.8973 82.2171L95.9133 82.2571L95.932 82.2998L95.9507 82.3425L95.9747 82.3798L95.996 82.4198L96.02 82.4571L96.044 82.4971L96.0733 82.5318L96.1 82.5691L96.1293 82.6038L96.1587 82.6385L96.1907 82.6705L96.2253 82.7024L96.26 82.7344L96.2946 82.7638L96.332 82.7958L96.372 82.8251L96.4093 82.8518L96.4493 82.8784L96.4946 82.9051L96.54 82.9318L96.588 82.9584L96.636 82.9851L96.7426 83.0384L96.8573 83.0918L96.9853 83.1451L97.1213 83.1984L97.2653 83.2491L97.4199 83.3024L97.5826 83.3557L97.7559 83.4091L97.9399 83.4624L98.1292 83.5131L98.3319 83.5664L98.5425 83.6197L98.7639 83.6731L98.9932 83.7264L99.1985 83.7717L99.4012 83.8171L99.5985 83.8624L99.7905 83.9104L99.9771 83.9557L100.158 84.0037L100.337 84.049L100.51 84.097L100.676 84.1424L100.841 84.1904L100.998 84.2384L101.153 84.2837L101.3 84.3317L101.444 84.3797L101.582 84.4277L101.718 84.4757L101.846 84.5237L101.977 84.577L102.102 84.633L102.225 84.6943L102.348 84.7557L102.468 84.8223L102.582 84.8943L102.697 84.9663L102.809 85.041L102.918 85.121L103.025 85.2063L103.129 85.289L103.23 85.3796L103.332 85.473L103.428 85.569L103.524 85.6703L103.569 85.721L103.614 85.7716L103.657 85.8276L103.697 85.881L103.74 85.937L103.777 85.9929L103.817 86.0489L103.852 86.1103L103.886 86.1689L103.918 86.2303L103.95 86.2916L103.98 86.3556L104.009 86.4196L104.038 86.4836L104.062 86.5503L104.086 86.6196L104.108 86.6862L104.132 86.7582L104.15 86.8276L104.169 86.8996L104.185 86.9716L104.201 87.0462L104.214 87.1209L104.228 87.1982L104.238 87.2756L104.246 87.3555L104.257 87.4329L104.262 87.5129L104.268 87.5955L104.273 87.6782L104.276 87.7609V87.8462L104.273 87.9528L104.27 88.0595L104.262 88.1662L104.254 88.2702L104.241 88.3715L104.228 88.4755L104.209 88.5742L104.188 88.6755L104.166 88.7715L104.14 88.8701L104.11 88.9661L104.081 89.0621L104.046 89.1555L104.009 89.2488L103.972 89.3394L103.932 89.4301L103.884 89.5181L103.838 89.6088L103.79 89.6941L103.737 89.7821L103.681 89.8648L103.622 89.9501L103.564 90.0327L103.5 90.1101L103.433 90.1927L103.366 90.2701L103.294 90.3501L103.22 90.4247L103.145 90.4994L103.065 90.5767L102.982 90.6487L102.897 90.7207L102.812 90.7927L102.724 90.8594L102.63 90.926L102.54 90.99L102.446 91.0514L102.35 91.11L102.252 91.1687L102.156 91.222L102.054 91.2753L101.953 91.326L101.849 91.3713L101.745 91.4193L101.638 91.462L101.529 91.502L101.42 91.542L101.308 91.5793L101.193 91.614L101.078 91.646L100.964 91.6753L100.844 91.702L100.724 91.7287L100.604 91.7527L100.481 91.774L100.356 91.7927L100.23 91.8087L100.102 91.822L99.9718 91.838L99.8385 91.846L99.7078 91.854L99.5718 91.8593L99.4358 91.8647H99.2998L99.1238 91.862L98.9505 91.8593L98.7799 91.854L98.6145 91.8433L98.4465 91.8327L98.2839 91.8193L98.1266 91.8033L97.9719 91.7847L97.8146 91.7633L97.6652 91.742L97.5159 91.7153L97.3746 91.686L97.2306 91.654L97.0919 91.622L96.9533 91.5873L96.82 91.5473L96.6893 91.51L96.5613 91.4647L96.4333 91.4193L96.3133 91.3713L96.1933 91.3207L96.076 91.2673L95.9613 91.214L95.8493 91.1527L95.7427 91.094L95.6334 91.03L95.532 90.966L95.4307 90.8994L95.3347 90.8274L95.2414 90.7554L95.148 90.6807L95.0574 90.6034L94.972 90.5234L94.8867 90.4407L94.8041 90.3607L94.7267 90.2754L94.6494 90.1874L94.5774 90.1021L94.5054 90.0141L94.4361 89.9234L94.3694 89.8301L94.3081 89.7368L94.2468 89.6434L94.1881 89.5501L94.1321 89.4514L94.0814 89.3528L94.0308 89.2541L93.9828 89.1501L93.9374 89.0488L93.8921 88.9421L93.8548 88.8355L93.8148 88.7288L93.7828 88.6195L93.7508 88.5075L93.7214 88.3982L93.6921 88.2835L93.6681 88.1688L93.6441 88.0542L93.6255 87.9342L93.6121 87.8142L93.5961 87.6942L93.5855 87.5742L93.5775 87.4489L93.5695 87.3235L95.2574 87.1769L95.2654 87.2782L95.2734 87.3742L95.2867 87.4702L95.3027 87.5662L95.3187 87.6595L95.3374 87.7502L95.356 87.8382L95.3774 87.9289L95.4014 88.0142L95.428 88.0995L95.4574 88.1795L95.4867 88.2622L95.5187 88.3422L95.5534 88.4195L95.588 88.4942L95.6254 88.5688L95.6653 88.6408L95.708 88.7128L95.7533 88.7821L95.7987 88.8488L95.8467 88.9128L95.8947 88.9795L95.948 89.0408L96.0013 89.1021L96.0573 89.1608L96.1133 89.2195L96.172 89.2728L96.2333 89.3288L96.2973 89.3794L96.364 89.4301L96.4333 89.4781L96.5 89.5261L96.572 89.5714L96.644 89.6141L96.716 89.6594L96.7906 89.6994L96.8653 89.7368L96.9399 89.7768L97.0146 89.8141L97.0919 89.8488L97.1719 89.8808L97.2493 89.9154L97.3293 89.9447L97.4119 89.9741L97.4946 90.0007L97.5773 90.0301L97.6599 90.0541L97.7452 90.0781L97.8306 90.0994L97.9186 90.1207L98.0039 90.1421L98.0946 90.1581L98.1826 90.1741L98.2705 90.1901L98.3639 90.2034L98.4572 90.2167L98.5479 90.2274L98.6439 90.2354L98.7372 90.2434L98.8332 90.2514L98.9265 90.2541L99.0252 90.2594L99.1238 90.2621H99.2252H99.3185L99.4092 90.2594L99.4998 90.2567L99.5878 90.2514L99.6785 90.2461L99.7638 90.2407L99.8518 90.2327L99.9371 90.2221L100.02 90.2141L100.102 90.2034L100.185 90.1874L100.265 90.1741L100.345 90.1607L100.422 90.1447L100.5 90.1261L100.574 90.1101L100.652 90.0887L100.726 90.0674L100.796 90.0461L100.87 90.0221L100.94 89.9981L101.009 89.9714L101.076 89.9447L101.142 89.9181L101.209 89.8888L101.276 89.8594L101.34 89.8274L101.401 89.7928L101.462 89.7581L101.524 89.7234L101.582 89.6888L101.641 89.6488L101.697 89.6114L101.75 89.5714L101.804 89.5314L101.857 89.4888L101.905 89.4461L101.953 89.4034L101.998 89.3608L102.044 89.3154L102.084 89.2701L102.126 89.2248L102.164 89.1768L102.201 89.1288L102.236 89.0781L102.268 89.0275L102.3 88.9768L102.332 88.9261L102.361 88.8728L102.385 88.8195L102.409 88.7661L102.433 88.7101L102.454 88.6541L102.473 88.5982L102.489 88.5395L102.505 88.4808L102.518 88.4222L102.532 88.3635L102.54 88.3022L102.55 88.2408L102.553 88.1768L102.558 88.1128L102.564 88.0488V87.9822V87.9155L102.558 87.8489L102.553 87.7822L102.548 87.7182L102.54 87.6542L102.529 87.5929L102.518 87.5315L102.502 87.4702L102.486 87.4142L102.468 87.3555L102.449 87.2969L102.425 87.2436L102.404 87.1876L102.377 87.1369L102.35 87.0836L102.321 87.0329L102.289 86.9822L102.257 86.9342L102.22 86.8889L102.185 86.8409L102.145 86.7956L102.108 86.7529L102.065 86.7102L102.02 86.6702L101.972 86.6303L101.924 86.5903L101.876 86.5529L101.825 86.5156L101.769 86.4809L101.716 86.4463L101.657 86.4116L101.598 86.3796L101.473 86.3156L101.337 86.2543L101.19 86.1903L101.036 86.1289L100.87 86.0676L100.692 86.0036L100.508 85.9423L100.308 85.8783L100.102 85.817L99.8838 85.7556L99.6571 85.6943L99.4198 85.6303L99.1718 85.569L98.9132 85.5076L98.6465 85.4463L98.3665 85.385L98.2252 85.353L98.0892 85.321L97.9532 85.289L97.8199 85.257L97.6892 85.2223L97.5612 85.1877L97.4359 85.153L97.3133 85.1157L97.1906 85.0783L97.0733 85.041L96.9559 85.0037L96.844 84.961L96.732 84.9237L96.6253 84.881L96.5186 84.8383L96.4173 84.7957L96.316 84.753L96.2147 84.7103L96.1213 84.6624L96.0253 84.617L95.9373 84.5717L95.8493 84.5237L95.7613 84.4757L95.6787 84.4304L95.5987 84.3797L95.5187 84.329L95.444 84.2757L95.3694 84.225L95.2974 84.1717L95.228 84.1184L95.164 84.065L95.1 84.0091L95.0387 83.9531L94.9774 83.8971L94.9214 83.8384L94.8654 83.7797L94.8121 83.7184L94.7587 83.6571L94.7081 83.5957L94.6627 83.5317L94.6147 83.4651L94.5721 83.4011L94.5321 83.3371L94.4894 83.2678L94.4521 83.1984L94.4174 83.1291L94.3827 83.0598L94.3507 82.9878L94.3188 82.9158L94.2921 82.8411L94.2654 82.7638L94.2414 82.6891L94.2201 82.6118L94.1988 82.5345L94.1801 82.4571L94.1614 82.3745L94.1481 82.2971L94.1348 82.2145L94.1268 82.1291L94.1161 82.0465L94.1108 81.9612L94.1054 81.8758L94.1001 81.7878V81.6998L94.1028 81.5985L94.1054 81.5025L94.1134 81.4038L94.1214 81.3052L94.1294 81.2092L94.1454 81.1159L94.1588 81.0199L94.1801 80.9292L94.2014 80.8385L94.2228 80.7479L94.2494 80.6599L94.2787 80.5692L94.3081 80.4839L94.3428 80.3986L94.3801 80.3132L94.4147 80.2279L94.4574 80.1479L94.5001 80.0652L94.5454 79.9826L94.5934 79.9026L94.6467 79.8253L94.6974 79.7479L94.7534 79.6733L94.8121 79.5986L94.8707 79.5239L94.9347 79.4493L95.0014 79.3773L95.0707 79.308L95.14 79.2386L95.212 79.1693L95.2894 79.1026L95.3667 79.036L95.4467 78.972L95.5267 78.908L95.6094 78.8466L95.6973 78.7906L95.7827 78.732L95.8707 78.6787L95.964 78.6253L96.0547 78.5773L96.1507 78.5293L96.2466 78.4813L96.3426 78.436L96.4413 78.3933L96.5426 78.356L96.6466 78.316L96.7506 78.2813L96.8573 78.2467L96.9666 78.2173L97.0759 78.1853L97.1879 78.156L97.3026 78.132L97.4199 78.108L97.5373 78.0867L97.6572 78.068L97.7772 78.0493L97.8999 78.0334L98.0252 78.02L98.1506 78.0094L98.2785 78.0014L98.4092 77.9934L98.5399 77.988L98.6759 77.9854H98.8092H98.9478L99.0838 77.988L99.2225 77.9934L99.3558 78.0014L99.4892 78.0094L99.6172 78.02L99.7451 78.0334L99.8731 78.0493L99.9985 78.068L100.121 78.0867L100.244 78.108L100.366 78.132L100.481 78.156L100.601 78.1853L100.716 78.2147L100.828 78.2467L100.94 78.2813L101.049 78.316L101.156 78.3533L101.265 78.3933L101.369 78.436L101.47 78.4813L101.574 78.5267L101.673 78.5747L101.769 78.6227L101.868 78.676L101.961 78.732L102.054 78.7853L102.145 78.844L102.236 78.9026L102.321 78.9666L102.409 79.0306L102.492 79.0973L102.574 79.1666L102.652 79.236L102.729 79.308L102.801 79.38L102.876 79.4546L102.942 79.5319L103.009 79.6119L103.073 79.6919L103.134 79.7746L103.193 79.8573L103.252 79.9426L103.302 80.0279L103.356 80.1186L103.404 80.2092L103.452 80.3026L103.494 80.3959L103.537 80.4919L103.574 80.5879L103.612 80.6892L103.646 80.7879L103.678 80.8919L103.708 80.9959L103.732 81.1025L103.758 81.2092L103.777 81.3185L103.798 81.4305L103.814 81.5452L103.828 81.6572L103.838 81.7745L103.849 81.8918L103.854 82.0145L102.148 82.1505Z" fill="#9E9E9F"/>
<path d="M96.764 43.3289V39.0518H95.1667V38.4785H99.0092V39.0518H97.404V43.3289H96.7613H96.764Z" fill="#231815"/>
<path d="M99.6465 43.3282V38.4805H100.612L101.758 41.9123C101.865 42.2323 101.942 42.4723 101.99 42.6296C102.046 42.4536 102.132 42.1949 102.249 41.8536L103.409 38.4805H104.273V43.3282H103.654V39.2698L102.246 43.3282H101.668L100.265 39.2004V43.3282H99.6465Z" fill="#231815"/>
</g>
<defs>
<clipPath id="clip0_2890_194103">
<rect width="140" height="140" fill="white" transform="translate(0 0.478516)"/>
</clipPath>
</defs>
</svg>
