<svg width="150" height="100" viewBox="0 0 150 100" fill="none" xmlns="http://www.w3.org/2000/svg">
<g clip-path="url(#clip0_2760_92162)">
<path d="M150 0H0V100H150V0Z" fill="white"/>
<path d="M52.4973 76.1196H50.7223V74.8779H48.6723V76.1196H46.9307V77.1696H48.6723V79.6751L46.9307 79.7946V80.8446L48.6723 80.7251V82.0029L48.1946 83.3224H50.2557L50.7251 81.9779V80.5835C52.114 80.4974 52.5001 79.7418 52.5001 79.389L50.7251 79.5224V77.1696C52.1084 77.1696 52.464 76.7252 52.5001 76.1196H52.4973Z" fill="#3071B7"/>
<path d="M55.4001 82.2388V74.8916H53.3501V83.3027H58.2001V82.2388H55.4001Z" fill="#3071B7"/>
<path d="M78.4446 79.0695H81.1973V78.0084H78.0779V76.0806L80.9584 76.0112V74.9473L73.1918 75.125V76.1889L76.039 76.1306V78.0112H72.9196V79.0723H75.664L72.8057 83.3139C75.589 83.3139 75.4307 83.0195 77.0529 80.6445C78.6779 83.025 78.5196 83.3139 81.3112 83.3139L78.4446 79.0723V79.0695Z" fill="#3071B7"/>
<path d="M70.075 83.3141C72.7305 83.3141 72.1722 82.8169 72.6722 80.1475C70.0166 80.1475 70.575 80.6419 70.075 83.3141Z" fill="#3071B7"/>
<path d="M72.6806 77.0171C72.15 74.7838 72.3973 74.9005 70.175 74.9005C70.7084 77.1393 70.4639 77.0171 72.6806 77.0171Z" fill="#3071B7"/>
<path d="M70.2444 77.5004C70.7388 79.7448 70.4944 79.617 72.7166 79.617C72.2222 77.3726 72.4611 77.5004 70.2444 77.5004Z" fill="#3071B7"/>
<path d="M99.9638 77.4885L99.986 75.919L102.933 75.8468V74.9385L98.036 75.0079L97.936 83.3135H99.8833L99.9499 78.5524H100.669V83.3135H102.558V78.5524H103.072V77.4885H99.9638Z" fill="#3071B7"/>
<path d="M91.7971 83.3247C93.6832 83.3247 93.6055 83.5609 94.1666 81.6942C92.2805 81.6942 92.3582 81.4581 91.7971 83.3247Z" fill="#3071B7"/>
<path d="M95.2944 81.6942C95.8528 83.5609 95.7778 83.3247 97.6639 83.3247C97.1055 81.4581 97.1805 81.6942 95.2944 81.6942Z" fill="#3071B7"/>
<path d="M97.3862 76.6527H97.7168V75.5888H97.3862V74.8916H95.4723V75.5888H94.0251V74.8916H92.1112V75.5888H91.7834V76.6527H92.1112V80.4305H91.7473V81.4944H97.7501V80.4305H97.3862V76.6527ZM95.4751 80.4305H94.0279V79.9138H95.4751V80.4305ZM95.4751 78.8472H94.0279V78.2333H95.4751V78.8472ZM95.4751 77.1694H94.0279V76.6527H95.4751V77.1694Z" fill="#3071B7"/>
<path fill-rule="evenodd" clip-rule="evenodd" d="M78.8667 22.7225L87.6473 16.667H60.5529C58.564 16.667 56.939 18.3531 56.939 20.4142V24.417H58.189C58.6001 24.417 58.9362 24.767 58.9362 25.1975V31.4198C58.9362 31.8503 58.6001 32.2003 58.189 32.2003H56.939V38.6031H58.189C58.6001 38.6031 58.9362 38.9531 58.9362 39.3781V45.6031C58.9362 46.0309 58.6001 46.3781 58.189 46.3781H56.939V50.3864C56.939 52.4448 58.564 54.1309 60.5529 54.1309H74.7556L65.9751 48.0809C63.8501 46.6114 62.1084 44.1531 62.1084 42.6142V36.0837L71.1306 42.3059C73.2612 43.7753 74.9973 45.1892 74.9973 46.7281V44.8142C74.9973 40.5059 74.9584 41.2114 71.4862 38.8198L65.9751 35.0198C63.8501 33.5531 62.1084 31.092 62.1084 29.5531V23.0225L71.1306 29.2475C73.2612 30.7142 74.9973 32.2864 74.9973 33.8253V28.1837C74.9973 26.6448 76.739 24.1837 78.864 22.717L78.8667 22.7225Z" fill="#3071B7"/>
<path fill-rule="evenodd" clip-rule="evenodd" d="M84.0223 28.4921L76.5835 33.6199C74.7057 34.9199 74.9973 35.0866 74.9973 37.4449V40.6421C74.9973 39.0449 76.739 37.2477 78.864 35.781L87.8862 29.556V36.0866C87.8862 37.6255 86.1473 40.0866 84.0196 41.5533L74.9973 47.7755V54.1338H89.4473C91.4335 54.1338 93.0612 52.4477 93.0612 50.3894V46.381H91.8112C91.3973 46.381 91.0585 46.031 91.0585 45.606V39.381C91.0585 38.9533 91.3946 38.606 91.8112 38.606H93.0612V32.2033H91.8112C91.3973 32.2033 91.0585 31.8533 91.0585 31.4227V25.2005C91.0585 24.7699 91.3946 24.4199 91.8112 24.4199H93.0612V20.4171C93.0612 18.3533 91.4335 16.6699 89.4473 16.6699H87.889V23.0283C87.889 24.5671 86.1501 27.0283 84.0223 28.4949V28.4921Z" fill="#18933B"/>
<path fill-rule="evenodd" clip-rule="evenodd" d="M50.3667 72.039H39.2944V70.3057L46.4694 61.3751L46.4778 61.3584L46.5 61.3251L46.5417 61.2723L46.5972 61.2057L46.6667 61.1168L46.7528 61.014L46.8583 60.8918L46.975 60.7529L47.1028 60.6057L47.2222 60.4612L47.3444 60.3279L47.4639 60.1946L47.5805 60.0668L47.6972 59.9446L47.8083 59.8279L47.9194 59.7168H40.0972V58.0557H50.1278V59.7168L42.2667 69.3807L41.4278 70.3807H50.3667V72.039Z" fill="#9E9E9F"/>
<path fill-rule="evenodd" clip-rule="evenodd" d="M65.5749 72.0388H63.4833L61.8416 67.7833H55.9972L54.4527 72.0388H52.4944L57.8722 58.0527H59.8666L65.5777 72.0388H65.5749ZM61.2777 66.3166L61.0694 65.7638L60.8722 65.2416L60.6861 64.75L60.5111 64.2888L60.3499 63.8583L60.1999 63.4611L60.0611 63.0944L59.9361 62.7555L59.8194 62.45L59.7138 62.175L59.6249 61.9277L59.5444 61.7138L59.4749 61.5277L59.4166 61.375L59.3722 61.2527L59.3388 61.1611L59.2833 61L59.2249 60.8277L59.1666 60.6416L59.1083 60.4388L59.0444 60.2277L58.9833 60.0027L58.9166 59.7638L58.8499 59.5138H58.8055L58.7722 59.6888L58.7361 59.8638L58.6972 60.0333L58.6583 60.2027L58.6166 60.3722L58.5749 60.5388L58.5333 60.7055L58.4916 60.8722L58.4444 61.0333L58.3999 61.1944L58.3499 61.3527L58.2999 61.5111L58.2499 61.6666L58.1944 61.8194L58.1388 61.9722L58.0833 62.125L56.5166 66.3111H61.2749L61.2777 66.3166Z" fill="#9E9E9F"/>
<path fill-rule="evenodd" clip-rule="evenodd" d="M80.086 58.0557L74.6027 72.039H72.7138L67.2888 58.0557H69.2833L72.9249 68.214L72.9749 68.339L73.0277 68.464L73.0749 68.5918L73.1249 68.7223L73.1722 68.8557L73.2194 68.9918L73.2638 69.1307L73.311 69.2696L73.3583 69.414L73.3999 69.5612L73.4416 69.7084L73.486 69.8612L73.5277 70.014L73.5694 70.1751L73.6083 70.3334L73.6499 70.4946H73.686L73.7221 70.3529L73.761 70.214L73.7999 70.0751L73.8416 69.9334L73.8805 69.7918L73.9249 69.6501L73.9666 69.5084L74.011 69.364L74.061 69.2223L74.1055 69.0807L74.1555 68.9362L74.2055 68.7946L74.2555 68.6501L74.3055 68.5057L74.3583 68.3584L74.4138 68.214L78.2055 58.0557H80.086Z" fill="#9E9E9F"/>
<path fill-rule="evenodd" clip-rule="evenodd" d="M89.4695 57.8193H89.6528L89.8334 57.8277L90.0112 57.836L90.1862 57.8499L90.3612 57.8693L90.5334 57.8916L90.7056 57.9166L90.8751 57.9443L91.0417 57.9777L91.2056 58.0166L91.3667 58.0582L91.5251 58.1027L91.6834 58.1527L91.8389 58.2054L91.9945 58.261L92.1473 58.3193L92.2973 58.3832L92.4445 58.4527L92.5889 58.5249L92.7306 58.5999L92.8723 58.6804L93.0112 58.7638L93.1501 58.8527L93.2862 58.9416L93.4195 59.0388L93.5501 59.1388L93.6778 59.2416L93.8028 59.3471L93.9251 59.4582L94.0473 59.5721L94.1667 59.6916L94.2862 59.8138L94.4028 59.9388L94.5139 60.0666L94.6195 60.1971L94.7251 60.3304L94.8251 60.4693L94.9223 60.6082L95.0139 60.7471L95.1028 60.8916L95.1889 61.036L95.2723 61.1832L95.3501 61.336L95.4251 61.4888L95.4973 61.6443L95.5639 61.8027L95.6278 61.961L95.6889 62.1249L95.7473 62.2916L95.8001 62.461L95.8501 62.6304L95.8945 62.8027L95.9362 62.9749L95.9751 63.1527L96.0112 63.336L96.0417 63.5193L96.0667 63.7054L96.0917 63.8916L96.1139 64.0804L96.1306 64.2721L96.1417 64.4693L96.1501 64.6666L96.1556 64.8693V65.0721V65.2749L96.1501 65.4749L96.1417 65.6721L96.1306 65.8666L96.1139 66.0582L96.0917 66.2471L96.0667 66.4332L96.0389 66.6193L96.0084 66.8027L95.9723 66.9832L95.9334 67.1582L95.8917 67.3332L95.8473 67.5054L95.7973 67.6749L95.7445 67.8443L95.6862 68.0082L95.6251 68.1721L95.5612 68.3305L95.4917 68.486L95.4195 68.6416L95.3445 68.7943L95.2667 68.9443L95.1834 69.0916L95.0973 69.236L95.0084 69.3777L94.9139 69.5166L94.8167 69.6554L94.7167 69.7916L94.6112 69.9249L94.5028 70.0554L94.3917 70.1804L94.2751 70.3054L94.1556 70.4277L94.0334 70.5471L93.9112 70.6638L93.7862 70.7721L93.6612 70.8777L93.5334 70.9804L93.4001 71.0804L93.2667 71.1749L93.1334 71.2638L92.9945 71.3527L92.8556 71.436L92.7167 71.5138L92.5751 71.5888L92.4306 71.661L92.2834 71.7305L92.1334 71.7943L91.9806 71.8527L91.8278 71.9082L91.6723 71.961L91.5167 72.0082L91.3584 72.0527L91.1973 72.0943L91.0334 72.1305L90.8695 72.1638L90.7001 72.1916L90.5306 72.2166L90.3584 72.2388L90.1862 72.2554L90.0112 72.2693L89.8334 72.2777L89.6528 72.2832H89.4723H89.2834L89.0973 72.2777L88.9112 72.2666L88.7306 72.2527L88.5528 72.236L88.3751 72.2138L88.2028 72.1888L88.0306 72.1582L87.8584 72.1249L87.6917 72.086L87.5278 72.0443L87.3639 71.9971L87.2056 71.9471L87.0473 71.8943L86.8917 71.836L86.7362 71.7749L86.5834 71.7082L86.4362 71.636L86.2889 71.5638L86.1445 71.486L86.0056 71.4054L85.8667 71.3166L85.7278 71.2277L85.5917 71.136L85.4612 71.036L85.3306 70.9332L85.2028 70.8277L85.0778 70.7193L84.9556 70.6054L84.8334 70.486L84.7139 70.3638L84.5973 70.2388L84.4834 70.111L84.3751 69.9804L84.2695 69.8471L84.1667 69.711L84.0667 69.5749L83.9723 69.436L83.8806 69.2971L83.7917 69.1554L83.7056 69.0138L83.6251 68.8693L83.5501 68.7221L83.4778 68.5721L83.4056 68.4221L83.3389 68.2693L83.2751 68.1166L83.2167 67.961L83.1612 67.8054L83.1084 67.6471L83.0584 67.486L83.0139 67.3249L82.9723 67.1582L82.9334 66.9916L82.8973 66.8221L82.8695 66.6527L82.8417 66.4832L82.8167 66.3082L82.7973 66.136L82.7806 65.9582L82.7695 65.7804L82.7612 65.5971L82.7556 65.4166V65.2304V65.0166L82.7612 64.8054L82.7695 64.5971L82.7806 64.3943L82.7973 64.1916L82.8195 63.9916L82.8445 63.7943L82.8695 63.6027L82.9001 63.411L82.9362 63.2249L82.9751 63.0388L83.0167 62.8554L83.0612 62.6749L83.1112 62.4999L83.1639 62.3277L83.2223 62.1554L83.2806 61.9888L83.3445 61.8221L83.4112 61.661L83.4834 61.4999L83.5584 61.3443L83.6362 61.1916L83.7167 61.0388L83.8056 60.8916L83.8945 60.7443L83.9862 60.6027L84.0834 60.4638L84.1834 60.3249L84.2889 60.1916L84.3973 60.061L84.5084 59.9332L84.6223 59.8082L84.7417 59.686L84.8612 59.5666L84.9834 59.4499L85.1084 59.3416L85.2334 59.236L85.3612 59.1332L85.4917 59.0332L85.6251 58.9388L85.7612 58.8499L85.9001 58.761L86.0389 58.6777L86.1778 58.5999L86.3223 58.5249L86.4667 58.4527L86.6167 58.3832L86.7667 58.3193L86.9195 58.261L87.0751 58.2054L87.2306 58.1527L87.3889 58.1054L87.5473 58.061L87.7112 58.0193L87.8778 57.9832L88.0473 57.9499L88.2167 57.9221L88.3889 57.8971L88.5612 57.8749L88.7362 57.8582L88.9167 57.8443L89.0973 57.836L89.2806 57.8304H89.4667L89.4695 57.8193ZM89.4501 70.6943H89.5834L89.7139 70.6888L89.8417 70.6804L89.9695 70.6721L90.0945 70.661L90.2195 70.6443L90.3417 70.6249L90.4639 70.6027L90.5834 70.5777L90.7028 70.5527L90.8195 70.5221L90.9334 70.4888L91.0473 70.4499L91.1584 70.411L91.2695 70.3693L91.3778 70.3249L91.4834 70.2777L91.5889 70.2249L91.6945 70.1721L91.7973 70.1166L91.8973 70.0582L91.9973 69.9943L92.0945 69.9304L92.1917 69.861L92.2834 69.7888L92.3751 69.7166L92.4667 69.6388L92.5556 69.5582L92.6445 69.4749L92.7306 69.3888L92.8167 69.2999L92.9001 69.2082L92.9806 69.1138L93.0612 69.0193L93.1362 68.9193L93.2084 68.8193L93.2806 68.7138L93.3501 68.6082L93.4167 68.4999L93.4778 68.3916L93.5389 68.2777L93.5973 68.1638L93.6528 68.0471L93.7084 67.9277L93.7584 67.8054L93.8056 67.6832L93.8501 67.5582L93.8917 67.4304L93.9334 67.2999L93.9723 67.1666L94.0084 67.0304L94.0417 66.8916L94.0723 66.7527L94.0973 66.611L94.1223 66.4693L94.1445 66.3221L94.1667 66.1721L94.1834 66.0193L94.1973 65.8666L94.2084 65.711L94.2167 65.5527L94.2251 65.3943L94.2306 65.2304V65.0666V64.8971V64.7277L94.2223 64.5638L94.2139 64.4027L94.2028 64.2443L94.1889 64.0888L94.1723 63.936L94.1501 63.7832L94.1278 63.6332L94.1028 63.486L94.0778 63.3416L94.0473 63.1999L94.0139 63.061L93.9778 62.9221L93.9389 62.786L93.8973 62.6527L93.8528 62.5221L93.8084 62.3943L93.7584 62.2721L93.7056 62.1499L93.6528 62.0277L93.5945 61.911L93.5362 61.7943L93.4723 61.6804L93.4084 61.5721L93.3417 61.4638L93.2695 61.3582L93.1973 61.2527L93.1223 61.1527L93.0445 61.0554L92.9639 60.9582L92.8806 60.8666L92.7945 60.7777L92.7084 60.6888L92.6195 60.6054L92.5306 60.5221L92.4417 60.4443L92.3501 60.3693L92.2584 60.2971L92.1639 60.2249L92.0695 60.1582L91.9723 60.0943L91.8723 60.0332L91.7723 59.9749L91.6723 59.9193L91.5667 59.8638L91.4639 59.8138L91.3584 59.7666L91.2528 59.7221L91.1473 59.6805L91.0362 59.6388L90.9278 59.6027L90.8167 59.5693L90.7028 59.5416L90.5862 59.5138L90.4695 59.4888L90.3528 59.4666L90.2334 59.4471L90.1112 59.4304L89.9889 59.4193L89.8667 59.4082L89.7417 59.3999H89.6195L89.4917 59.3943H89.3612L89.2334 59.3999L89.1056 59.4082L88.9806 59.4193L88.8556 59.4304L88.7334 59.4443L88.6112 59.4638L88.4889 59.486L88.3695 59.511L88.2501 59.536L88.1362 59.5666L88.0195 59.5999L87.9084 59.6332L87.7973 59.6721L87.6862 59.7138L87.5778 59.7554L87.4723 59.8027L87.3667 59.8527L87.2612 59.9027L87.1584 59.9582L87.0556 60.0138L86.9556 60.0749L86.8584 60.136L86.7612 60.2027L86.6667 60.2721L86.5723 60.3443L86.4806 60.4193L86.3889 60.4971L86.3001 60.5749L86.2112 60.6582L86.1251 60.7471L86.0389 60.836L85.9556 60.9277L85.8751 61.0193L85.7973 61.1166L85.7223 61.2193L85.6501 61.3221L85.5806 61.4277L85.5112 61.536L85.4473 61.6499L85.3862 61.7666L85.3278 61.8832L85.2695 62.0054L85.2139 62.1277L85.1612 62.2554L85.1139 62.386L85.0667 62.5193L85.0251 62.6582L84.9834 62.7971L84.9445 62.9388L84.9084 63.0832L84.8751 63.2332L84.8445 63.386L84.8195 63.5388L84.7945 63.6943L84.7723 63.8554L84.7501 64.0193L84.7334 64.186L84.7195 64.3554L84.7084 64.5277L84.7001 64.7027L84.6917 64.8805V65.061L84.6862 65.2471V65.3999L84.6917 65.5499L84.7001 65.6971L84.7084 65.8416L84.7195 65.986L84.7334 66.1277L84.7501 66.2666L84.7695 66.4054L84.7917 66.5443L84.8167 66.6804L84.8445 66.8138L84.8723 66.9443L84.9056 67.0749L84.9417 67.2027L84.9806 67.3277L85.0223 67.4499L85.0639 67.5721L85.1112 67.6943L85.1584 67.8138L85.2084 67.9304L85.2612 68.0443L85.3195 68.1582L85.3778 68.2693L85.4389 68.3777L85.5028 68.4832L85.5667 68.5888L85.6362 68.6943L85.7084 68.7971L85.7806 68.8971L85.8556 68.9943L85.9362 69.0916L86.0167 69.186L86.1001 69.2777L86.1862 69.3666L86.2751 69.4527L86.3639 69.5388L86.4528 69.6193L86.5445 69.6971L86.6362 69.7693L86.7306 69.8416L86.8278 69.911L86.9251 69.9749L87.0223 70.0388L87.1251 70.0971L87.2278 70.1554L87.3334 70.211L87.4389 70.261L87.5445 70.311L87.6528 70.3554L87.7612 70.3971L87.8723 70.436L87.9862 70.4749L88.1001 70.5082L88.2167 70.5388L88.3362 70.5666L88.4556 70.5916L88.5778 70.6166L88.7001 70.636L88.8223 70.6527L88.9473 70.6638L89.0723 70.6721L89.2028 70.6804H89.3306L89.4639 70.686L89.4501 70.6943Z" fill="#9E9E9F"/>
<path fill-rule="evenodd" clip-rule="evenodd" d="M108.489 62.1582L108.483 62.0749L108.472 61.9943L108.461 61.9138L108.45 61.8332L108.433 61.7582L108.419 61.6777L108.403 61.6054L108.386 61.5332L108.369 61.4582L108.347 61.386L108.322 61.3193L108.3 61.2499L108.275 61.1804L108.25 61.1138L108.222 61.0499L108.192 60.986L108.161 60.9249L108.128 60.8666L108.094 60.8027L108.058 60.7471L108.025 60.6888L107.986 60.6332L107.944 60.5804L107.906 60.5277L107.864 60.4749L107.817 60.4249L107.772 60.3749L107.728 60.3277L107.678 60.2832L107.631 60.236L107.578 60.1916L107.525 60.1499L107.469 60.1055L107.417 60.0693L107.358 60.0277L107.303 59.9916L107.242 59.9554L107.181 59.9193L107.117 59.886L107.053 59.8554L106.989 59.8249L106.922 59.7943L106.853 59.7638L106.783 59.7388L106.714 59.7138L106.639 59.6888L106.567 59.6666L106.492 59.6443L106.414 59.6249L106.336 59.6054L106.256 59.586L106.175 59.5693L106.092 59.5554L106.008 59.5416L105.922 59.5304L105.836 59.5193L105.747 59.5082L105.658 59.5027L105.567 59.4943L105.475 59.4888L105.381 59.4832L105.283 59.4805L105.186 59.4777H105.089L104.914 59.4805L104.742 59.486L104.572 59.4971L104.408 59.511L104.247 59.5304L104.089 59.5527L104.014 59.5666L103.939 59.5805L103.864 59.5943L103.792 59.611L103.719 59.6277L103.647 59.6471L103.578 59.6666L103.508 59.6832L103.439 59.7054L103.372 59.7304L103.306 59.7527L103.242 59.7777L103.178 59.8027L103.117 59.8304L103.056 59.8582L102.994 59.886L102.933 59.9166L102.875 59.9471L102.817 59.9777L102.761 60.011L102.706 60.0443L102.65 60.0804L102.6 60.1166L102.55 60.1527L102.503 60.1888L102.456 60.2304L102.408 60.2666L102.367 60.3082L102.325 60.3499L102.286 60.3943L102.247 60.436L102.211 60.4777L102.178 60.5277L102.144 60.5721L102.114 60.6193L102.086 60.6666L102.061 60.7166L102.033 60.7666L102.011 60.8166L101.989 60.8666L101.967 60.9193L101.95 60.9749L101.933 61.0305L101.917 61.086L101.906 61.1416L101.894 61.1999L101.883 61.2582L101.878 61.3193L101.869 61.3777L101.867 61.4388L101.864 61.4999V61.5638V61.6221L101.867 61.6777L101.869 61.7304L101.875 61.786L101.881 61.8388L101.886 61.8888L101.897 61.9388L101.906 61.9888L101.917 62.0388L101.931 62.086L101.944 62.1332L101.961 62.1805L101.978 62.2277L101.994 62.2693L102.014 62.3138L102.033 62.3582L102.058 62.3971L102.081 62.4388L102.106 62.4777L102.131 62.5193L102.161 62.5554L102.189 62.5943L102.219 62.6304L102.25 62.6666L102.283 62.6999L102.319 62.7332L102.356 62.7666L102.392 62.7971L102.431 62.8304L102.472 62.861L102.511 62.8888L102.553 62.9166L102.6 62.9443L102.647 62.9721L102.697 62.9999L102.747 63.0277L102.858 63.0832L102.978 63.1388L103.111 63.1943L103.253 63.2499L103.403 63.3027L103.564 63.3582L103.733 63.4138L103.914 63.4693L104.106 63.5249L104.303 63.5777L104.514 63.6332L104.733 63.6888L104.964 63.7443L105.203 63.7999L105.417 63.8471L105.628 63.8943L105.833 63.9416L106.033 63.9916L106.228 64.0388L106.417 64.0888L106.603 64.136L106.783 64.186L106.956 64.2332L107.128 64.2832L107.292 64.3332L107.453 64.3805L107.606 64.4304L107.756 64.4805L107.9 64.5304L108.042 64.5805L108.175 64.6304L108.311 64.686L108.442 64.7443L108.569 64.8082L108.697 64.8721L108.822 64.9416L108.942 65.0166L109.061 65.0916L109.178 65.1693L109.292 65.2527L109.403 65.3416L109.511 65.4277L109.617 65.5221L109.722 65.6193L109.822 65.7193L109.922 65.8249L109.969 65.8777L110.017 65.9305L110.061 65.9888L110.103 66.0443L110.147 66.1027L110.186 66.161L110.228 66.2193L110.264 66.2832L110.3 66.3443L110.333 66.4082L110.367 66.4721L110.397 66.5388L110.428 66.6054L110.458 66.6721L110.483 66.7416L110.508 66.8138L110.531 66.8832L110.556 66.9582L110.575 67.0304L110.594 67.1054L110.611 67.1805L110.628 67.2582L110.642 67.336L110.656 67.4166L110.667 67.4971L110.675 67.5804L110.686 67.661L110.692 67.7443L110.697 67.8305L110.703 67.9166L110.706 68.0027V68.0916L110.703 68.2027L110.7 68.3138L110.692 68.4249L110.683 68.5332L110.669 68.6388L110.656 68.7471L110.636 68.8499L110.614 68.9555L110.592 69.0555L110.564 69.1582L110.533 69.2582L110.503 69.3582L110.467 69.4554L110.428 69.5527L110.389 69.6471L110.347 69.7416L110.297 69.8332L110.25 69.9277L110.2 70.0166L110.144 70.1082L110.086 70.1943L110.025 70.2832L109.964 70.3693L109.897 70.4499L109.828 70.536L109.758 70.6166L109.683 70.6999L109.606 70.7777L109.528 70.8554L109.444 70.936L109.358 71.011L109.269 71.086L109.181 71.161L109.089 71.2304L108.992 71.2999L108.897 71.3666L108.8 71.4304L108.7 71.4916L108.597 71.5527L108.497 71.6082L108.392 71.6638L108.286 71.7166L108.178 71.7638L108.069 71.8138L107.958 71.8582L107.844 71.8999L107.731 71.9416L107.614 71.9805L107.494 72.0166L107.375 72.0499L107.256 72.0804L107.131 72.1082L107.006 72.136L106.881 72.161L106.753 72.1832L106.622 72.2027L106.492 72.2193L106.358 72.2332L106.222 72.2499L106.083 72.2582L105.947 72.2666L105.806 72.2721L105.664 72.2777H105.522L105.339 72.2749L105.158 72.2721L104.981 72.2666L104.808 72.2554L104.633 72.2443L104.464 72.2304L104.3 72.2138L104.139 72.1943L103.975 72.1721L103.819 72.1499L103.664 72.1221L103.517 72.0916L103.367 72.0582L103.222 72.0249L103.078 71.9888L102.939 71.9471L102.803 71.9082L102.669 71.861L102.536 71.8138L102.411 71.7638L102.286 71.711L102.164 71.6554L102.044 71.5999L101.928 71.536L101.817 71.4749L101.703 71.4082L101.597 71.3416L101.492 71.2721L101.392 71.1971L101.294 71.1221L101.197 71.0443L101.103 70.9638L101.014 70.8804L100.925 70.7943L100.839 70.711L100.758 70.6221L100.678 70.5305L100.603 70.4416L100.528 70.3499L100.456 70.2554L100.386 70.1582L100.322 70.061L100.258 69.9638L100.197 69.8666L100.139 69.7638L100.086 69.661L100.033 69.5582L99.9833 69.4499L99.9361 69.3443L99.8888 69.2332L99.85 69.1221L99.8083 69.011L99.775 68.8971L99.7416 68.7804L99.7111 68.6666L99.6805 68.5471L99.6555 68.4277L99.6305 68.3082L99.6111 68.1832L99.5972 68.0582L99.5805 67.9332L99.5694 67.8082L99.5611 67.6777L99.5527 67.5471L101.311 67.3943L101.319 67.4999L101.328 67.5999L101.342 67.6999L101.358 67.7999L101.375 67.8971L101.394 67.9916L101.414 68.0832L101.436 68.1777L101.461 68.2666L101.489 68.3554L101.519 68.4388L101.55 68.5249L101.583 68.6082L101.619 68.6888L101.656 68.7666L101.694 68.8443L101.736 68.9193L101.781 68.9943L101.828 69.0666L101.875 69.136L101.925 69.2027L101.975 69.2721L102.031 69.336L102.086 69.3999L102.144 69.461L102.203 69.5221L102.264 69.5777L102.328 69.636L102.394 69.6888L102.464 69.7416L102.536 69.7916L102.606 69.8416L102.681 69.8888L102.756 69.9332L102.831 69.9804L102.908 70.0221L102.986 70.061L103.064 70.1027L103.142 70.1416L103.222 70.1777L103.306 70.211L103.386 70.2471L103.469 70.2777L103.556 70.3082L103.642 70.336L103.728 70.3666L103.814 70.3916L103.903 70.4166L103.992 70.4388L104.083 70.461L104.172 70.4832L104.267 70.4999L104.358 70.5166L104.45 70.5332L104.547 70.5471L104.644 70.561L104.739 70.5721L104.839 70.5804L104.936 70.5888L105.036 70.5971L105.133 70.5999L105.236 70.6054L105.339 70.6082H105.444H105.542L105.636 70.6054L105.731 70.6027L105.822 70.5971L105.917 70.5916L106.006 70.586L106.097 70.5777L106.186 70.5666L106.272 70.5582L106.358 70.5471L106.444 70.5305L106.528 70.5166L106.611 70.5027L106.692 70.486L106.772 70.4666L106.85 70.4499L106.931 70.4277L107.008 70.4055L107.081 70.3832L107.158 70.3582L107.231 70.3332L107.303 70.3055L107.372 70.2777L107.442 70.2499L107.511 70.2193L107.581 70.1888L107.647 70.1554L107.711 70.1193L107.775 70.0832L107.839 70.0471L107.9 70.011L107.961 69.9693L108.019 69.9304L108.075 69.8888L108.131 69.8471L108.186 69.8027L108.236 69.7582L108.286 69.7138L108.333 69.6693L108.381 69.6221L108.422 69.5749L108.467 69.5277L108.506 69.4777L108.544 69.4277L108.581 69.3749L108.614 69.3221L108.647 69.2693L108.681 69.2166L108.711 69.161L108.736 69.1054L108.761 69.0499L108.786 68.9916L108.808 68.9332L108.828 68.8749L108.844 68.8138L108.861 68.7527L108.875 68.6916L108.889 68.6305L108.897 68.5666L108.908 68.5027L108.911 68.436L108.917 68.3693L108.922 68.3027V68.2332V68.1638L108.917 68.0943L108.911 68.0249L108.906 67.9582L108.897 67.8916L108.886 67.8277L108.875 67.7638L108.858 67.6999L108.842 67.6416L108.822 67.5804L108.803 67.5193L108.778 67.4638L108.756 67.4054L108.728 67.3527L108.7 67.2971L108.669 67.2443L108.636 67.1916L108.603 67.1416L108.564 67.0943L108.528 67.0443L108.486 66.9971L108.447 66.9527L108.403 66.9082L108.356 66.8666L108.306 66.8249L108.256 66.7832L108.206 66.7443L108.153 66.7054L108.094 66.6693L108.039 66.6332L107.978 66.5971L107.917 66.5638L107.786 66.4971L107.644 66.4332L107.492 66.3666L107.331 66.3027L107.158 66.2388L106.972 66.1721L106.781 66.1082L106.572 66.0416L106.358 65.9777L106.131 65.9138L105.894 65.8499L105.647 65.7832L105.389 65.7193L105.119 65.6554L104.842 65.5916L104.55 65.5277L104.403 65.4943L104.261 65.461L104.119 65.4277L103.981 65.3943L103.844 65.3582L103.711 65.3221L103.581 65.286L103.453 65.2471L103.325 65.2082L103.203 65.1693L103.081 65.1304L102.964 65.086L102.847 65.0471L102.736 65.0027L102.625 64.9582L102.519 64.9138L102.414 64.8693L102.308 64.8249L102.211 64.7749L102.111 64.7277L102.019 64.6805L101.928 64.6304L101.836 64.5805L101.75 64.5332L101.667 64.4805L101.583 64.4277L101.506 64.3721L101.428 64.3193L101.353 64.2638L101.281 64.2082L101.214 64.1527L101.147 64.0943L101.083 64.036L101.019 63.9777L100.961 63.9166L100.903 63.8555L100.847 63.7916L100.792 63.7277L100.739 63.6638L100.692 63.5971L100.642 63.5277L100.597 63.461L100.556 63.3943L100.511 63.3221L100.472 63.2499L100.436 63.1777L100.4 63.1054L100.367 63.0304L100.333 62.9554L100.306 62.8777L100.278 62.7971L100.253 62.7193L100.231 62.6388L100.208 62.5582L100.189 62.4777L100.169 62.3916L100.156 62.311L100.142 62.2249L100.133 62.136L100.122 62.0499L100.117 61.961L100.111 61.8721L100.106 61.7804V61.6888L100.108 61.5832L100.111 61.4832L100.119 61.3804L100.128 61.2777L100.136 61.1777L100.153 61.0804L100.167 60.9804L100.189 60.886L100.211 60.7916L100.233 60.6971L100.261 60.6054L100.292 60.511L100.322 60.4221L100.358 60.3332L100.397 60.2443L100.433 60.1554L100.478 60.0721L100.522 59.986L100.569 59.8999L100.619 59.8166L100.675 59.736L100.728 59.6554L100.786 59.5777L100.847 59.4999L100.908 59.4221L100.975 59.3443L101.044 59.2693L101.117 59.1971L101.189 59.1249L101.264 59.0527L101.344 58.9832L101.425 58.9138L101.508 58.8471L101.592 58.7804L101.678 58.7166L101.769 58.6582L101.858 58.5971L101.95 58.5416L102.047 58.486L102.142 58.436L102.242 58.386L102.342 58.336L102.442 58.2888L102.544 58.2443L102.65 58.2054L102.758 58.1638L102.867 58.1277L102.978 58.0916L103.092 58.061L103.206 58.0277L103.322 57.9971L103.442 57.9721L103.564 57.9471L103.686 57.9249L103.811 57.9055L103.936 57.886L104.064 57.8693L104.194 57.8554L104.325 57.8443L104.458 57.836L104.594 57.8277L104.731 57.8221L104.872 57.8193H105.011H105.156L105.297 57.8221L105.442 57.8277L105.581 57.836L105.719 57.8443L105.853 57.8554L105.986 57.8693L106.119 57.886L106.25 57.9055L106.378 57.9249L106.506 57.9471L106.633 57.9721L106.753 57.9971L106.878 58.0277L106.997 58.0582L107.114 58.0916L107.231 58.1277L107.344 58.1638L107.456 58.2027L107.569 58.2443L107.678 58.2888L107.783 58.336L107.892 58.3832L107.994 58.4332L108.094 58.4832L108.197 58.5388L108.294 58.5971L108.392 58.6527L108.486 58.7138L108.581 58.7749L108.669 58.8416L108.761 58.9082L108.847 58.9777L108.933 59.0499L109.014 59.1221L109.094 59.1971L109.169 59.2721L109.247 59.3499L109.317 59.4304L109.386 59.5138L109.453 59.5971L109.517 59.6832L109.578 59.7693L109.639 59.8582L109.692 59.9471L109.747 60.0416L109.797 60.136L109.847 60.2332L109.892 60.3304L109.936 60.4304L109.975 60.5304L110.014 60.636L110.05 60.7388L110.083 60.8471L110.114 60.9554L110.139 61.0666L110.167 61.1777L110.186 61.2916L110.208 61.4082L110.225 61.5277L110.239 61.6443L110.25 61.7666L110.261 61.8888L110.267 62.0166L108.489 62.1582Z" fill="#9E9E9F"/>
<path d="M102.88 21.7168V17.2613H101.217V16.6641H105.219V17.2613H103.547V21.7168H102.878H102.88Z" fill="#231815"/>
<path d="M105.883 21.717V16.667H106.889L108.083 20.242C108.194 20.5753 108.275 20.8253 108.325 20.9892C108.383 20.8059 108.472 20.5364 108.594 20.1809L109.803 16.667H110.703V21.717H110.058V17.4892L108.592 21.717H107.989L106.528 17.417V21.717H105.883Z" fill="#231815"/>
</g>
<defs>
<clipPath id="clip0_2760_92162">
<rect width="150" height="100" fill="white"/>
</clipPath>
</defs>
</svg>
