<svg width="512" height="348" viewBox="0 0 512 348" fill="none" xmlns="http://www.w3.org/2000/svg">
<rect x="0.5" y="36.5" width="511" height="311" rx="15.5" fill="white" stroke="#7DD3FC"/>
<rect x="16" y="80" width="480" height="252" rx="8" fill="#E0F2FE"/>
<path d="M41.04 109.992H39.28C39.008 111.384 38.656 112.744 38.336 113.88C38.896 114.232 39.44 114.616 39.968 115.032C40.496 113.64 40.848 111.96 41.04 109.992ZM41.504 108.856L42.176 108.968C42 111.784 41.584 114.008 40.88 115.752C41.52 116.28 42.048 116.776 42.416 117.224L41.728 118.232C41.408 117.8 40.944 117.32 40.4 116.84C39.632 118.344 38.608 119.416 37.36 120.184C37.2 119.896 36.896 119.464 36.64 119.24C37.808 118.6 38.784 117.56 39.52 116.072C38.752 115.448 37.904 114.84 37.12 114.344C37.488 113.208 37.872 111.64 38.208 109.992H36.752V108.888H38.416C38.624 107.752 38.8 106.632 38.912 105.624L40.048 105.688C39.904 106.68 39.728 107.768 39.52 108.888H41.312L41.504 108.856ZM47.68 118.68H51.296V119.8H42.4V118.68H46.512V114.888H43.344V113.784H46.512V110.328H44.144C43.808 111.336 43.424 112.216 42.992 112.936C42.768 112.76 42.256 112.456 41.984 112.328C42.944 110.904 43.552 108.696 43.904 106.472L45.04 106.664C44.88 107.528 44.688 108.392 44.48 109.208H46.512V105.672H47.68V109.208H51.008V110.328H47.68V113.784H50.72V114.888H47.68V118.68ZM57.232 118.296H64.336V114.664H57.232V118.296ZM65.552 113.56V120.216H64.336V119.384H57.232V120.216H56.064V114.952C55.184 115.256 54.288 115.512 53.408 115.72C53.312 115.4 53.04 114.888 52.8 114.632C54.784 114.216 56.832 113.512 58.688 112.52C57.984 111.88 57.04 111.112 56.256 110.552L57.152 109.864C58 110.44 59.056 111.24 59.792 111.88C61.376 110.904 62.768 109.688 63.712 108.296H57.792C56.768 109.288 55.504 110.216 54 111C53.824 110.728 53.44 110.28 53.184 110.104C55.76 108.856 57.568 107.08 58.528 105.56L59.856 105.848C59.552 106.296 59.216 106.76 58.816 107.208H64.48L64.672 107.144L65.472 107.64C64.16 110.184 61.856 112.152 59.2 113.56H65.552Z" fill="#0E0E0F"/>
<path d="M37.424 145.048L36.496 144.728C36.928 143.672 37.216 141.928 37.328 140.632L38.224 140.76C38.144 142.072 37.84 143.88 37.424 145.048ZM38.8 152.216V137.608H39.984V152.216H38.8ZM40.096 140.552L40.928 140.168C41.408 141.032 41.904 142.168 42.096 142.84L41.2 143.272C41.024 142.584 40.544 141.432 40.096 140.552ZM47.12 150.536H51.12V151.672H41.36V150.536H45.936V146.536H42.544V145.432H45.936V142.12H43.6C43.28 143.08 42.912 143.912 42.48 144.6C42.24 144.44 41.712 144.184 41.424 144.056C42.352 142.664 42.992 140.52 43.36 138.344L44.512 138.536C44.352 139.368 44.16 140.2 43.936 140.984H45.936V137.672H47.12V140.984H50.736V142.12H47.12V145.432H50.384V146.536H47.12V150.536ZM58.72 142.456V139.384H54.64V142.456H58.72ZM59.872 138.328V143.528H53.536V138.328H59.872ZM56.832 145.304H60.144C60.144 145.304 60.128 145.672 60.128 145.848C59.952 149.688 59.792 151.096 59.392 151.576C59.136 151.896 58.848 152.024 58.432 152.056C58.048 152.104 57.36 152.088 56.656 152.056C56.624 151.704 56.512 151.24 56.32 150.92C57.008 150.984 57.616 151 57.872 151C58.128 151 58.256 150.968 58.4 150.824C58.64 150.536 58.8 149.384 58.944 146.408H56.72C56.384 149 55.584 151.032 53.328 152.28C53.184 151.992 52.848 151.592 52.576 151.4C54.592 150.36 55.312 148.6 55.6 146.408H52.944V145.304H55.712C55.744 144.872 55.776 144.408 55.792 143.928H56.928C56.896 144.408 56.88 144.856 56.832 145.304ZM63.152 139.544V148.328H62V139.544H63.152ZM65.376 137.928H66.544V150.664C66.544 151.448 66.336 151.8 65.856 151.992C65.36 152.216 64.528 152.232 63.104 152.232C63.056 151.912 62.864 151.368 62.688 151.032C63.76 151.08 64.688 151.064 64.976 151.048C65.264 151.048 65.376 150.952 65.376 150.664V137.928Z" fill="#0E0E0F"/>
<path d="M204.64 150.568H211.12V151.72H196.944V150.568H203.424V146.504H198.672V145.352H203.424V141.864H199.664C199.152 142.872 198.592 143.752 198 144.472C197.76 144.28 197.232 143.928 196.912 143.768C198.224 142.36 199.248 140.152 199.872 137.88L201.072 138.136C200.816 139.016 200.528 139.88 200.176 140.696H203.424V137.624H204.64V140.696H210.368V141.864H204.64V145.352H209.776V146.504H204.64V150.568ZM216.08 149.832H224.016V145.368H216.08V149.832ZM224.016 139.88H216.08V144.2H224.016V139.88ZM214.88 138.712H225.264V151.976H224.016V151H216.08V152.04H214.88V138.712Z" fill="#0E0E0F"/>
<path d="M39.296 210.76H43.232V208.472H39.296V210.76ZM43.232 205.08H39.296V207.368H43.232V205.08ZM48.592 205.08H44.48V207.368H48.592V205.08ZM44.48 210.76H48.592V208.472H44.48V210.76ZM45.616 214.76H48.976C49.872 214.76 50.032 214.248 50.16 212.168C50.448 212.392 50.96 212.6 51.328 212.696C51.12 215.096 50.736 215.944 49.056 215.944H45.536C43.76 215.944 43.232 215.48 43.232 213.608V211.928H39.296V212.904H38.08V203.928H43.232V201.64H44.48V203.928H49.776V211.928H44.48V213.64C44.48 214.568 44.656 214.76 45.616 214.76ZM56.736 204.296L55.92 205.128C55.456 204.488 54.448 203.48 53.632 202.76L54.4 202.04C55.216 202.712 56.24 203.672 56.736 204.296ZM56.08 213.272L57.728 212.008C57.824 212.328 58.048 212.776 58.192 213C55.488 215.112 55.056 215.464 54.8 215.8C54.672 215.528 54.336 215.048 54.112 214.856C54.416 214.632 54.96 214.056 54.96 213.304V207.752H52.752V206.616H56.08V213.272ZM65.136 214.504V211.384H59.856V214.504H65.136ZM67.28 207.64H63.088V210.296H66.368V216.168H65.136V215.592H59.856V216.232H58.672V210.296H61.904V207.64H57.856V206.504H61.904V203.64C60.64 203.816 59.376 203.96 58.192 204.072C58.144 203.8 57.968 203.368 57.84 203.096C60.576 202.824 63.808 202.312 65.616 201.72L66.448 202.68C65.504 202.984 64.336 203.224 63.088 203.448V206.504H67.28V207.64Z" fill="#0E0E0F"/>
<path d="M38.464 173.336V175.416H37.328V172.264H39.968C39.68 171.656 39.104 170.84 38.592 170.232L39.584 169.768C40.176 170.44 40.832 171.336 41.104 171.944L40.496 172.264H44C43.776 171.592 43.28 170.6 42.8 169.88L43.824 169.496C44.368 170.248 44.928 171.256 45.12 171.928L44.304 172.264H46.912C47.504 171.528 48.16 170.488 48.528 169.72L49.728 170.136C49.248 170.856 48.688 171.624 48.176 172.264H50.784V175.416H49.616V173.336H38.464ZM51.072 178.6V179.704H44.56V182.76C44.56 183.48 44.368 183.816 43.792 183.992C43.216 184.184 42.304 184.2 40.848 184.2C40.768 183.864 40.528 183.384 40.352 183.048C41.568 183.096 42.656 183.096 42.96 183.064C43.296 183.048 43.376 182.968 43.376 182.744V179.704H37.008V178.6H43.376V177.448C44.304 177.112 45.328 176.568 46.144 176.024H39.68V174.968H47.504L47.728 174.904L48.512 175.496C47.488 176.424 46 177.32 44.56 177.96V178.6H51.072ZM67.136 171.96V173.064H58.416V171.96H62.448C62.192 171.4 61.68 170.552 61.184 169.96L62.176 169.528C62.72 170.12 63.264 170.92 63.52 171.48L62.48 171.96H67.136ZM63.488 174.024L64.304 173.4C65.344 174.376 66.576 175.768 67.104 176.68L66.224 177.416C65.712 176.472 64.512 175.032 63.488 174.024ZM60.528 173.48L61.6 173.96C60.88 175.224 59.808 176.584 58.752 177.512C58.56 177.304 58.176 176.984 57.92 176.792C58.96 175.944 59.968 174.6 60.528 173.48ZM58.112 177.864L57.392 178.76C57.184 178.216 56.656 177.16 56.224 176.296V184.216H55.136V176.472C54.608 178.36 53.904 180.184 53.168 181.304C53.04 180.968 52.752 180.456 52.528 180.168C53.504 178.824 54.464 176.296 54.912 174.104H53.056V172.984H55.136V169.608H56.224V172.984H58.016V174.104H56.224V174.744C56.608 175.288 57.84 177.384 58.112 177.864ZM64.144 176.28L65.28 176.568C64.848 178.088 64.192 179.432 63.328 180.584C64.448 181.704 65.808 182.568 67.392 183.096C67.12 183.32 66.768 183.8 66.592 184.12C65.024 183.544 63.664 182.632 62.56 181.48C61.488 182.6 60.16 183.528 58.56 184.248C58.4 183.992 58.048 183.56 57.808 183.352C59.424 182.648 60.752 181.72 61.808 180.6C60.912 179.448 60.208 178.104 59.68 176.632L60.704 176.344C61.152 177.592 61.76 178.712 62.544 179.704C63.264 178.696 63.792 177.56 64.144 176.28Z" fill="#0E0E0F"/>
<path d="M198.464 173.336V175.416H197.328V172.264H199.968C199.68 171.656 199.104 170.84 198.592 170.232L199.584 169.768C200.176 170.44 200.832 171.336 201.104 171.944L200.496 172.264H204C203.776 171.592 203.28 170.6 202.8 169.88L203.824 169.496C204.368 170.248 204.928 171.256 205.12 171.928L204.304 172.264H206.912C207.504 171.528 208.16 170.488 208.528 169.72L209.728 170.136C209.248 170.856 208.688 171.624 208.176 172.264H210.784V175.416H209.616V173.336H198.464ZM211.072 178.6V179.704H204.56V182.76C204.56 183.48 204.368 183.816 203.792 183.992C203.216 184.184 202.304 184.2 200.848 184.2C200.768 183.864 200.528 183.384 200.352 183.048C201.568 183.096 202.656 183.096 202.96 183.064C203.296 183.048 203.376 182.968 203.376 182.744V179.704H197.008V178.6H203.376V177.448C204.304 177.112 205.328 176.568 206.144 176.024H199.68V174.968H207.504L207.728 174.904L208.512 175.496C207.488 176.424 206 177.32 204.56 177.96V178.6H211.072ZM221.008 174.984H226.288C226.288 174.984 226.272 175.4 226.256 175.56C225.984 180.824 225.744 182.728 225.152 183.384C224.816 183.784 224.48 183.912 223.904 183.96C223.392 183.992 222.448 183.976 221.488 183.928C221.456 183.56 221.312 183.08 221.072 182.744C222.096 182.84 223.072 182.84 223.456 182.84C223.76 182.856 223.952 182.808 224.128 182.632C224.576 182.216 224.832 180.472 225.056 176.12H220.912C220.56 179.592 219.536 182.456 216.208 184.152C216.048 183.864 215.696 183.48 215.424 183.288C218.496 181.784 219.424 179.24 219.728 176.12H216.096V174.984H219.808C219.856 174.136 219.888 173.272 219.904 172.376H221.12C221.088 173.256 221.072 174.136 221.008 174.984ZM227.088 170.392V171.528H215.088V175.464C215.088 178.008 214.896 181.688 213.664 184.184C213.456 183.976 212.912 183.624 212.624 183.512C213.792 181.16 213.888 177.88 213.888 175.464V170.392H227.088Z" fill="#0E0E0F"/>
<path d="M43.376 240.44V237.096H41.456V240.44H43.376ZM41.456 245.112H43.376V241.48H41.456V245.112ZM38.448 241.48V245.112H40.416V241.48H38.448ZM40.416 237.096H38.448V240.44H40.416V237.096ZM41.504 233.64V236.056H44.464V246.984H43.376V246.152H38.448V247.208H37.408V236.056H40.352V233.64H41.504ZM50.304 234.424L51.12 234.952C50.544 236.408 49.792 238.216 49.104 239.704C50.56 241.208 50.928 242.44 50.928 243.56C50.928 244.488 50.704 245.256 50.176 245.608C49.904 245.784 49.552 245.896 49.184 245.944C48.768 245.992 48.24 245.992 47.776 245.96C47.744 245.64 47.632 245.16 47.424 244.824C47.936 244.872 48.384 244.872 48.72 244.872C48.96 244.856 49.2 244.808 49.392 244.696C49.712 244.488 49.824 244.008 49.808 243.448C49.808 242.456 49.392 241.288 47.936 239.848C48.544 238.504 49.168 236.824 49.616 235.592H47.04V248.216H46V234.472H50.112L50.304 234.424ZM56.928 241.048V241.64C57.584 242.216 59.104 243.64 59.488 244.024L58.72 244.952C58.368 244.488 57.584 243.592 56.928 242.872V248.232H55.792V242.904C55.088 244.28 54.176 245.624 53.344 246.52C53.184 246.232 52.864 245.848 52.592 245.608C53.664 244.6 54.848 242.744 55.552 241.048H53.008V239.944H55.792V238.136H56.576C56.416 237.576 56.112 236.824 55.776 236.184H55.12C54.656 237.048 54.144 237.832 53.632 238.44C53.408 238.264 52.928 237.944 52.64 237.784C53.632 236.744 54.496 235.144 54.992 233.544L56.144 233.832C55.984 234.28 55.808 234.728 55.616 235.16H59.808V236.184H56.976C57.296 236.792 57.552 237.448 57.68 237.912L56.928 238.216V239.944H59.456V241.048H56.928ZM65.36 239.784H61.104V241.368H65.36V239.784ZM61.104 243.928H65.36V242.296H61.104V243.928ZM61.104 246.52H65.36V244.856H61.104V246.52ZM59.952 248.216V238.712H66.544V248.12H65.36V247.528H61.104V248.216H59.952ZM61.904 235.16H67.088V236.184H63.616C64.048 236.776 64.448 237.432 64.656 237.896L63.632 238.328C63.424 237.752 62.88 236.888 62.352 236.184H61.424C60.976 237.016 60.464 237.752 59.904 238.328C59.68 238.136 59.184 237.8 58.896 237.64C59.936 236.648 60.768 235.128 61.248 233.544L62.384 233.832C62.24 234.28 62.096 234.728 61.904 235.16Z" fill="#0E0E0F"/>
<path d="M90.976 108.376L89.792 109.16C89.328 108.424 88.288 107.32 87.392 106.52L88.496 105.816C89.408 106.568 90.464 107.64 90.976 108.376ZM80.848 105.72L82.256 106.184C81.808 107.24 81.248 108.296 80.64 109.288V120.232H79.104V111.48C78.496 112.264 77.856 112.968 77.184 113.576C77.04 113.208 76.592 112.424 76.336 112.088C78.112 110.584 79.824 108.184 80.848 105.72ZM91.248 111.112L86.512 111.72C87.024 115.64 87.984 118.28 89.504 118.456C89.904 118.472 90.144 117.592 90.288 115.784C90.576 116.088 91.232 116.488 91.52 116.6C91.152 119.496 90.416 120.28 89.568 120.232C86.896 120.008 85.648 116.84 85.04 111.928L81.536 112.376L81.312 110.968L84.896 110.52C84.768 109.064 84.672 107.496 84.608 105.816H86.112C86.16 107.416 86.24 108.936 86.368 110.312L91.056 109.72L91.248 111.112ZM97.264 111.256V112.568H102.736V111.256H97.264ZM105.824 114.824V118.104C105.824 118.824 105.664 119.224 105.12 119.448C104.56 119.656 103.744 119.672 102.544 119.672C102.464 119.272 102.24 118.696 102.048 118.312C102.896 118.344 103.744 118.344 103.968 118.344C104.224 118.328 104.288 118.28 104.288 118.088V116.168H100.96V120.264H99.424V116.168H95.888V119.544H94.384V114.824H99.424V113.656H95.84V110.168H104.256V113.656H100.96V114.824H105.824ZM104.08 107.928H106.736V111.48H105.264V109.208H94.784V111.48H93.36V107.928H95.728C95.472 107.432 95.04 106.744 94.64 106.248L95.984 105.72C96.48 106.248 96.992 107 97.248 107.512L96.304 107.928H99.28V105.576H100.816V107.928H103.68L102.72 107.56C103.136 107.048 103.696 106.248 103.968 105.704L105.552 106.216C105.056 106.84 104.528 107.48 104.08 107.928ZM111.712 114.504L113.152 114.984C112.256 116.504 110.944 118.216 109.872 119.288C109.584 119.032 108.976 118.568 108.64 118.344C109.728 117.368 110.944 115.864 111.712 114.504ZM122.736 113.32H117.104V118.408C117.104 119.288 116.912 119.72 116.336 119.944C115.76 120.2 114.88 120.232 113.52 120.216C113.456 119.8 113.232 119.128 113.008 118.712C113.968 118.744 114.912 118.744 115.184 118.728C115.472 118.728 115.568 118.664 115.568 118.392V113.32H112.032C111.04 113.32 110.288 113.4 110.128 113.544C110.032 113.224 109.792 112.536 109.616 112.168C109.856 112.088 110.016 111.72 110.16 111.144C110.288 110.616 110.672 108.552 110.688 106.712C114.336 106.632 118.704 106.328 121.248 105.72L122.048 107.048C119.424 107.672 115.552 107.944 112.144 108.04C112.016 109.336 111.776 110.696 111.504 111.832H115.568V108.824H117.104V111.832H122.752L122.736 113.32ZM118.96 115.08L120.256 114.536C121.344 115.752 122.704 117.464 123.344 118.568L121.952 119.24C121.36 118.168 120.048 116.376 118.96 115.08Z" fill="#0369A1"/>
<path d="M79.888 142.248V143.72H83.184V142.248H79.888ZM79.888 139.656V141.08H83.184V139.656H79.888ZM88.048 141.08V139.656H84.688V141.08H88.048ZM88.048 143.72V142.248H84.688V143.72H88.048ZM90.128 146.312L90.08 146.92C89.792 149.896 89.488 151.176 88.96 151.688C88.592 152.04 88.176 152.152 87.568 152.2C87.056 152.232 86.08 152.216 85.072 152.168C85.04 151.768 84.848 151.192 84.592 150.824C85.6 150.904 86.624 150.92 87.024 150.92C87.36 150.92 87.552 150.904 87.712 150.76C88.048 150.472 88.288 149.576 88.496 147.64H83.856C83.072 149.784 81.408 151.384 77.456 152.264C77.328 151.864 76.96 151.288 76.672 150.984C79.984 150.328 81.472 149.176 82.208 147.64H77.216V146.312H82.672C82.768 145.88 82.832 145.416 82.896 144.952H78.4V138.408H89.6V144.952H84.464C84.4 145.416 84.32 145.88 84.224 146.312H90.128Z" fill="#0369A1"/>
<path d="M237.376 151V149.48H239.952V141.288H237.84V140.12C238.944 139.912 239.728 139.64 240.4 139.208H241.792V149.48H244.096V151H237.376ZM247.525 142.872C247.525 144.376 248.197 145.24 249.429 145.24C250.165 145.24 250.997 144.808 251.669 143.8C251.493 141.48 250.613 140.424 249.333 140.424C248.325 140.424 247.525 141.336 247.525 142.872ZM249.013 151.208C247.653 151.208 246.693 150.664 246.005 149.96L247.013 148.824C247.477 149.352 248.197 149.704 248.933 149.704C250.357 149.704 251.589 148.552 251.701 145.192C251.013 146.04 250.005 146.568 249.109 146.568C247.141 146.568 245.813 145.336 245.813 142.872C245.813 140.536 247.413 139 249.317 139C251.573 139 253.397 140.808 253.397 144.712C253.397 149.352 251.285 151.208 249.013 151.208ZM256.65 142.872C256.65 144.376 257.322 145.24 258.554 145.24C259.29 145.24 260.122 144.808 260.794 143.8C260.618 141.48 259.738 140.424 258.458 140.424C257.45 140.424 256.65 141.336 256.65 142.872ZM258.138 151.208C256.778 151.208 255.818 150.664 255.13 149.96L256.138 148.824C256.602 149.352 257.322 149.704 258.058 149.704C259.482 149.704 260.714 148.552 260.826 145.192C260.138 146.04 259.13 146.568 258.234 146.568C256.266 146.568 254.938 145.336 254.938 142.872C254.938 140.536 256.538 139 258.442 139C260.698 139 262.522 140.808 262.522 144.712C262.522 149.352 260.41 151.208 258.138 151.208ZM264.079 151V149.928C267.551 146.856 269.343 144.568 269.343 142.632C269.343 141.352 268.671 140.472 267.343 140.472C266.415 140.472 265.647 141.064 265.023 141.784L263.983 140.76C264.991 139.656 266.031 139 267.567 139C269.727 139 271.119 140.408 271.119 142.536C271.119 144.808 269.311 147.16 266.815 149.544C267.423 149.48 268.159 149.432 268.735 149.432H271.679V151H264.079ZM272.692 153.88L277.14 138.216H278.42L273.972 153.88H272.692ZM283.294 151.208C280.99 151.208 279.486 149.16 279.486 145.064C279.486 140.984 280.99 139 283.294 139C285.598 139 287.102 141 287.102 145.064C287.102 149.16 285.598 151.208 283.294 151.208ZM283.294 149.752C284.494 149.752 285.342 148.472 285.342 145.064C285.342 141.688 284.494 140.456 283.294 140.456C282.094 140.456 281.246 141.688 281.246 145.064C281.246 148.472 282.094 149.752 283.294 149.752ZM289.235 151V149.48H291.811V141.288H289.699V140.12C290.803 139.912 291.587 139.64 292.259 139.208H293.651V149.48H295.955V151H289.235ZM297.176 153.88L301.624 138.216H302.904L298.456 153.88H297.176ZM307.779 151.208C305.475 151.208 303.971 149.16 303.971 145.064C303.971 140.984 305.475 139 307.779 139C310.083 139 311.587 141 311.587 145.064C311.587 149.16 310.083 151.208 307.779 151.208ZM307.779 149.752C308.979 149.752 309.827 148.472 309.827 145.064C309.827 141.688 308.979 140.456 307.779 140.456C306.579 140.456 305.731 141.688 305.731 145.064C305.731 148.472 306.579 149.752 307.779 149.752ZM316.632 151.208C314.776 151.208 313.608 150.456 312.776 149.64L313.656 148.44C314.328 149.112 315.176 149.704 316.408 149.704C317.736 149.704 318.744 148.76 318.744 147.192C318.744 145.624 317.848 144.728 316.504 144.728C315.752 144.728 315.304 144.952 314.616 145.4L313.72 144.808L314.072 139.208H320.04V140.776H315.672L315.4 143.8C315.912 143.544 316.376 143.384 317.016 143.384C318.984 143.384 320.6 144.552 320.6 147.128C320.6 149.736 318.696 151.208 316.632 151.208Z" fill="#0369A1"/>
<path d="M77.376 215V213.48H79.952V205.288H77.84V204.12C78.944 203.912 79.728 203.64 80.4 203.208H81.792V213.48H84.096V215H77.376ZM89.413 215.208C87.557 215.208 86.357 214.472 85.573 213.592L86.469 212.408C87.157 213.112 88.037 213.704 89.253 213.704C90.581 213.704 91.493 212.968 91.493 211.736C91.493 210.44 90.661 209.592 88.005 209.592V208.232C90.325 208.232 91.093 207.352 91.093 206.168C91.093 205.128 90.405 204.488 89.285 204.472C88.373 204.488 87.605 204.92 86.933 205.576L85.973 204.424C86.901 203.592 87.989 203 89.349 203C91.461 203 92.949 204.104 92.949 206.04C92.949 207.4 92.165 208.344 90.917 208.808V208.888C92.277 209.224 93.349 210.248 93.349 211.832C93.349 213.96 91.573 215.208 89.413 215.208ZM94.954 215V213.928C98.426 210.856 100.218 208.568 100.218 206.632C100.218 205.352 99.546 204.472 98.218 204.472C97.29 204.472 96.522 205.064 95.898 205.784L94.858 204.76C95.866 203.656 96.906 203 98.442 203C100.602 203 101.994 204.408 101.994 206.536C101.994 208.808 100.186 211.16 97.69 213.544C98.298 213.48 99.034 213.432 99.61 213.432H102.554V215H94.954ZM109.145 210.408H112.393V207.32C112.393 206.68 112.441 205.688 112.473 205.032H112.409C112.121 205.64 111.801 206.248 111.465 206.856L109.145 210.408ZM112.393 215V211.832H107.289V210.6L111.977 203.208H114.121V210.408H115.609V211.832H114.121V215H112.393ZM118.494 206.872C118.494 208.376 119.166 209.24 120.398 209.24C121.134 209.24 121.966 208.808 122.638 207.8C122.462 205.48 121.582 204.424 120.302 204.424C119.294 204.424 118.494 205.336 118.494 206.872ZM119.982 215.208C118.622 215.208 117.662 214.664 116.974 213.96L117.982 212.824C118.446 213.352 119.166 213.704 119.902 213.704C121.326 213.704 122.558 212.552 122.67 209.192C121.982 210.04 120.974 210.568 120.078 210.568C118.11 210.568 116.782 209.336 116.782 206.872C116.782 204.536 118.382 203 120.286 203C122.542 203 124.366 204.808 124.366 208.712C124.366 213.352 122.254 215.208 119.982 215.208ZM129.795 215.208C127.587 215.208 125.955 213.896 125.955 212.072C125.955 210.52 126.979 209.48 128.067 208.904V208.824C127.187 208.2 126.483 207.32 126.483 206.072C126.483 204.232 127.923 203.032 129.843 203.032C131.891 203.032 133.171 204.312 133.171 206.152C133.171 207.352 132.355 208.376 131.619 208.92V209C132.675 209.592 133.603 210.52 133.603 212.12C133.603 213.864 132.067 215.208 129.795 215.208ZM130.563 208.456C131.267 207.8 131.619 207.048 131.619 206.264C131.619 205.176 130.963 204.36 129.811 204.36C128.851 204.36 128.131 205.016 128.131 206.072C128.131 207.352 129.251 207.944 130.563 208.456ZM129.827 213.88C131.043 213.88 131.859 213.176 131.859 212.072C131.859 210.632 130.563 210.088 128.963 209.432C128.147 209.992 127.587 210.872 127.587 211.896C127.587 213.064 128.563 213.88 129.827 213.88ZM137.432 215C137.64 210.696 138.392 207.944 140.664 204.776H135.128V203.208H142.712V204.344C139.944 207.784 139.512 210.392 139.32 215H137.432ZM148.439 215V213.48H151.015V205.288H148.903V204.12C150.007 203.912 150.791 203.64 151.463 203.208H152.855V213.48H155.159V215H148.439ZM156.892 215V213.928C160.364 210.856 162.156 208.568 162.156 206.632C162.156 205.352 161.484 204.472 160.156 204.472C159.228 204.472 158.46 205.064 157.836 205.784L156.796 204.76C157.804 203.656 158.844 203 160.38 203C162.54 203 163.932 204.408 163.932 206.536C163.932 208.808 162.124 211.16 159.628 213.544C160.236 213.48 160.972 213.432 161.548 213.432H164.492V215H156.892ZM169.601 215.208C167.745 215.208 166.545 214.472 165.761 213.592L166.657 212.408C167.345 213.112 168.225 213.704 169.441 213.704C170.769 213.704 171.681 212.968 171.681 211.736C171.681 210.44 170.849 209.592 168.193 209.592V208.232C170.513 208.232 171.281 207.352 171.281 206.168C171.281 205.128 170.593 204.488 169.473 204.472C168.561 204.488 167.793 204.92 167.121 205.576L166.161 204.424C167.089 203.592 168.177 203 169.536 203C171.649 203 173.137 204.104 173.137 206.04C173.137 207.4 172.353 208.344 171.105 208.808V208.888C172.465 209.224 173.536 210.248 173.536 211.832C173.536 213.96 171.761 215.208 169.601 215.208ZM178.726 215.208C176.87 215.208 175.702 214.456 174.87 213.64L175.75 212.44C176.422 213.112 177.27 213.704 178.502 213.704C179.83 213.704 180.838 212.76 180.838 211.192C180.838 209.624 179.942 208.728 178.598 208.728C177.846 208.728 177.398 208.952 176.71 209.4L175.814 208.808L176.166 203.208H182.134V204.776H177.766L177.494 207.8C178.006 207.544 178.47 207.384 179.11 207.384C181.078 207.384 182.694 208.552 182.694 211.128C182.694 213.736 180.79 215.208 178.726 215.208Z" fill="#0369A1"/>
<path d="M80.144 179.384V177.624H81.616V179.416C81.616 181.112 81.328 183 79.024 184.28C78.784 183.928 78.224 183.416 77.872 183.176C79.888 182.136 80.144 180.664 80.144 179.384ZM86.352 184.264V177.672H87.888V184.264H86.352ZM86.48 172.424H81.28C82.016 173.288 82.928 173.992 84.064 174.568C85.056 173.992 85.872 173.288 86.48 172.424ZM90.928 172.424H88.288C87.584 173.576 86.672 174.488 85.568 175.224C87.248 175.864 89.216 176.248 91.424 176.44C91.136 176.776 90.752 177.4 90.576 177.8C88.064 177.528 85.888 176.968 84.064 176.088C82.176 177.016 79.92 177.592 77.504 177.992C77.376 177.64 76.96 176.984 76.672 176.664C78.896 176.408 80.912 175.96 82.624 175.272C81.456 174.504 80.496 173.576 79.728 172.424H77.04V171.16H83.616C83.408 170.744 83.136 170.248 82.848 169.88L84.272 169.48C84.672 169.976 85.088 170.664 85.296 171.16H90.928V172.424ZM100.944 171.512H97.152C96.912 171.784 96.64 172.04 96.352 172.296H100.208C100.432 172.072 100.704 171.8 100.944 171.512ZM103.936 174.024V173.256H100.608V174.024H103.936ZM103.936 175.688V174.904H100.608V175.688H103.936ZM96.032 174.904V175.688H99.28V174.904H96.032ZM96.032 173.256V174.024H99.28V173.256H96.032ZM94.656 176.648V173.64C94.272 173.88 93.888 174.12 93.472 174.36C93.312 174.04 92.88 173.544 92.608 173.32C94.72 172.248 96.24 170.792 97.056 169.512L98.528 169.816C98.352 170.056 98.176 170.296 98 170.536H101.584L101.856 170.456L102.832 171.016C102.592 171.48 102.272 171.912 101.92 172.296H105.36V176.648H94.656ZM103.328 179.832H96.624V180.776H103.328V179.832ZM96.624 182.712H103.328V181.736H96.624V182.712ZM95.168 184.28V178.76H104.848V184.232H103.328V183.768H96.624V184.28H95.168ZM93.2 177.208H106.768V178.2H93.2V177.208ZM116.784 181.608H123.184V183.096H108.864V181.608H115.12V172.84H109.712V171.304H122.352V172.84H116.784V181.608ZM137.456 173.128L138.816 173.784C138.064 175.688 137.024 177.896 136.16 179.4L134.928 178.76C135.776 177.304 136.864 174.968 137.456 173.128ZM128.816 178.744L127.328 179.288C126.96 177.816 126.064 175.352 125.28 173.512L126.64 173.08C127.44 174.904 128.4 177.304 128.816 178.744ZM134.736 182.008H139.04V183.48H124.976V182.008H129.28V169.784H130.8V182.008H133.216V169.8H134.736V182.008ZM155.024 175.544H149.184C150.272 178.872 152.288 181.576 155.312 182.84C154.944 183.16 154.448 183.784 154.208 184.232C151.216 182.84 149.28 180.248 148.032 176.856C147.216 179.752 145.488 182.52 141.856 184.232C141.616 183.832 141.136 183.304 140.72 182.984C144.528 181.32 146.08 178.44 146.72 175.544H141.04V174.008H146.992C147.184 172.408 147.168 170.872 147.184 169.592H148.8C148.784 170.888 148.768 172.424 148.576 174.008H155.024V175.544ZM158.672 173.48V175.448H157.28V172.168H159.808C159.52 171.592 159.024 170.872 158.544 170.296L159.808 169.72C160.384 170.376 161.024 171.256 161.296 171.848L160.656 172.168H163.824C163.6 171.512 163.136 170.6 162.704 169.928L164.016 169.432C164.528 170.168 165.088 171.16 165.28 171.816L164.4 172.168H166.768C167.328 171.432 167.936 170.424 168.272 169.672L169.792 170.184C169.344 170.856 168.832 171.576 168.352 172.168H170.832V175.448H169.36V173.48H158.672ZM171.072 178.536V179.912H164.72V182.536C164.72 183.352 164.512 183.768 163.856 183.976C163.2 184.2 162.256 184.216 160.864 184.216C160.752 183.816 160.48 183.176 160.24 182.792C161.36 182.824 162.48 182.824 162.816 182.808C163.12 182.792 163.2 182.728 163.2 182.504V179.912H157.008V178.536H163.2V177.448C164 177.144 164.848 176.696 165.568 176.248H159.744V174.952H167.248L167.552 174.872L168.512 175.624C167.504 176.536 166.112 177.4 164.72 178.04V178.536H171.072Z" fill="#0369A1"/>
<path d="M251.024 175.544H245.184C246.272 178.872 248.288 181.576 251.312 182.84C250.944 183.16 250.448 183.784 250.208 184.232C247.216 182.84 245.28 180.248 244.032 176.856C243.216 179.752 241.488 182.52 237.856 184.232C237.616 183.832 237.136 183.304 236.72 182.984C240.528 181.32 242.08 178.44 242.72 175.544H237.04V174.008H242.992C243.184 172.408 243.168 170.872 243.184 169.592H244.8C244.784 170.888 244.768 172.424 244.576 174.008H251.024V175.544ZM266.88 175.72H258.4C258.224 176.264 258.048 176.792 257.888 177.304H264.512L264.768 177.224L265.888 177.896C264.784 179.064 263.28 180.552 261.872 181.928C262.8 182.296 263.664 182.68 264.304 183.032L263.424 184.328C261.824 183.368 258.56 182.072 256.08 181.384L256.896 180.28C257.952 180.536 259.152 180.92 260.352 181.336C261.264 180.456 262.256 179.512 263.072 178.696H255.824C256.144 177.864 256.48 176.824 256.848 175.72H252.944V174.28H257.28C257.456 173.736 257.616 173.192 257.776 172.632H254.224V171.208H258.176C258.336 170.632 258.48 170.056 258.624 169.512L260.16 169.72C260.032 170.2 259.888 170.696 259.744 171.208H265.744V172.632H259.328C259.168 173.192 259.008 173.736 258.832 174.28H266.88V175.72Z" fill="#0369A1"/>
<path d="M80.432 247.208C78.224 247.208 76.8 245.528 76.8 242.6C76.8 239.752 78.608 237.976 80.576 237.976C81.584 237.976 82.224 238.36 82.944 238.968L82.864 237.512V234.248H84.704V247H83.2L83.056 246.008H82.992C82.336 246.68 81.424 247.208 80.432 247.208ZM80.864 245.688C81.6 245.688 82.224 245.352 82.864 244.616V240.312C82.208 239.72 81.584 239.512 80.928 239.512C79.696 239.512 78.704 240.68 78.704 242.584C78.704 244.584 79.488 245.688 80.864 245.688ZM89.5501 247.208C88.0301 247.208 86.9581 246.216 86.9581 244.664C86.9581 242.776 88.5581 241.8 92.2221 241.4C92.2061 240.376 91.8381 239.48 90.5421 239.48C89.6141 239.48 88.7501 239.896 87.9981 240.376L87.3101 239.128C88.2221 238.552 89.4541 237.976 90.8621 237.976C93.0541 237.976 94.0621 239.368 94.0621 241.704V247H92.5581L92.4141 245.992H92.3501C91.5501 246.68 90.6061 247.208 89.5501 247.208ZM90.1101 245.752C90.8781 245.752 91.5021 245.384 92.2221 244.728V242.568C89.6141 242.872 88.7341 243.544 88.7341 244.536C88.7341 245.4 89.3261 245.752 90.1101 245.752ZM96.6733 247V238.2H98.5133V247H96.6733ZM97.5853 236.552C96.9133 236.552 96.4493 236.12 96.4493 235.448C96.4493 234.792 96.9133 234.36 97.5853 234.36C98.2573 234.36 98.7373 234.792 98.7373 235.448C98.7373 236.12 98.2573 236.552 97.5853 236.552ZM104.851 247.208C102.467 247.208 100.643 245.528 100.643 242.6C100.643 239.672 102.675 237.976 104.995 237.976C106.115 237.976 106.931 238.424 107.571 238.984L106.659 240.184C106.179 239.752 105.683 239.496 105.091 239.496C103.603 239.496 102.547 240.744 102.547 242.6C102.547 244.472 103.571 245.704 105.027 245.704C105.763 245.704 106.419 245.352 106.947 244.904L107.715 246.12C106.899 246.84 105.859 247.208 104.851 247.208ZM109.533 247V234.248H111.373V237.624L111.293 239.368C112.061 238.632 112.941 237.976 114.141 237.976C116.013 237.976 116.845 239.224 116.845 241.464V247H115.005V241.688C115.005 240.168 114.557 239.56 113.517 239.56C112.701 239.56 112.141 239.976 111.373 240.76V247H109.533ZM121.55 247.208C120.03 247.208 118.958 246.216 118.958 244.664C118.958 242.776 120.558 241.8 124.222 241.4C124.206 240.376 123.838 239.48 122.542 239.48C121.614 239.48 120.75 239.896 119.998 240.376L119.31 239.128C120.222 238.552 121.454 237.976 122.862 237.976C125.054 237.976 126.062 239.368 126.062 241.704V247H124.558L124.414 245.992H124.35C123.55 246.68 122.606 247.208 121.55 247.208ZM122.11 245.752C122.878 245.752 123.502 245.384 124.222 244.728V242.568C121.614 242.872 120.734 243.544 120.734 244.536C120.734 245.4 121.326 245.752 122.11 245.752ZM128.673 247V238.2H130.177L130.321 239.416H130.369C131.185 238.632 132.081 237.976 133.281 237.976C135.153 237.976 135.985 239.224 135.985 241.464V247H134.145V241.688C134.145 240.168 133.697 239.56 132.657 239.56C131.841 239.56 131.281 239.976 130.513 240.76V247H128.673ZM141.666 250.952C139.554 250.952 138.018 250.168 138.018 248.632C138.018 247.896 138.482 247.208 139.298 246.712V246.632C138.85 246.36 138.498 245.896 138.498 245.176C138.498 244.488 138.994 243.896 139.49 243.544V243.48C138.882 243.016 138.322 242.184 138.322 241.128C138.322 239.144 139.906 237.976 141.73 237.976C142.226 237.976 142.674 238.072 143.01 238.2H146.13V239.576H144.45C144.786 239.928 145.026 240.52 145.026 241.192C145.026 243.112 143.57 244.216 141.73 244.216C141.33 244.216 140.882 244.12 140.498 243.944C140.21 244.2 140.018 244.44 140.018 244.872C140.018 245.4 140.37 245.736 141.49 245.736H143.106C145.186 245.736 146.274 246.376 146.274 247.88C146.274 249.576 144.482 250.952 141.666 250.952ZM141.73 243.032C142.642 243.032 143.394 242.312 143.394 241.128C143.394 239.96 142.658 239.272 141.73 239.272C140.802 239.272 140.066 239.944 140.066 241.128C140.066 242.312 140.818 243.032 141.73 243.032ZM141.938 249.736C143.474 249.736 144.498 248.984 144.498 248.168C144.498 247.432 143.922 247.208 142.85 247.208H141.522C141.106 247.208 140.706 247.16 140.338 247.08C139.81 247.464 139.586 247.912 139.586 248.36C139.586 249.224 140.482 249.736 141.938 249.736ZM149.732 247.208C148.404 247.208 147.908 246.36 147.908 244.936V234.248H149.748V245.032C149.748 245.528 149.956 245.704 150.18 245.704C150.26 245.704 150.324 245.704 150.484 245.672L150.724 247.064C150.5 247.144 150.196 247.208 149.732 247.208ZM156.337 247.208C153.953 247.208 152.049 245.512 152.049 242.6C152.049 239.752 154.017 237.976 156.065 237.976C158.401 237.976 159.665 239.656 159.665 242.136C159.665 242.504 159.617 242.856 159.569 243.08H153.857C154.001 244.76 155.057 245.768 156.577 245.768C157.361 245.768 158.033 245.528 158.673 245.112L159.313 246.28C158.497 246.824 157.489 247.208 156.337 247.208ZM153.841 241.8H158.065C158.065 240.296 157.377 239.416 156.097 239.416C154.993 239.416 154.017 240.264 153.841 241.8ZM161.704 247V245.48H164.28V237.608H162.168V236.44C163.272 236.248 164.056 235.96 164.728 235.544H166.12V245.48H168.424V247H161.704ZM170.157 247V245.928C173.437 242.712 175.421 240.664 175.421 238.872C175.421 237.624 174.749 236.792 173.421 236.792C172.493 236.792 171.725 237.384 171.101 238.104L170.061 237.08C171.069 235.992 172.109 235.32 173.645 235.32C175.805 235.32 177.197 236.696 177.197 238.776C177.197 240.872 175.293 242.984 172.845 245.544C173.437 245.48 174.189 245.432 174.765 245.432H177.757V247H170.157ZM183.138 247.208C180.802 247.208 179.33 245.08 179.33 241.224C179.33 237.368 180.802 235.32 183.138 235.32C185.49 235.32 186.946 237.384 186.946 241.224C186.946 245.08 185.49 247.208 183.138 247.208ZM183.138 245.752C184.338 245.752 185.186 244.52 185.186 241.224C185.186 237.928 184.338 236.776 183.138 236.776C181.938 236.776 181.09 237.928 181.09 241.224C181.09 244.52 181.938 245.752 183.138 245.752ZM191.991 247.208C190.135 247.208 188.935 246.472 188.151 245.592L189.047 244.408C189.735 245.112 190.615 245.704 191.831 245.704C193.159 245.704 194.071 244.984 194.071 243.832C194.071 242.568 193.239 241.752 190.583 241.752V240.392C192.903 240.392 193.671 239.544 193.671 238.44C193.671 237.416 192.983 236.792 191.863 236.792C190.951 236.792 190.183 237.24 189.511 237.912L188.551 236.76C189.479 235.912 190.567 235.32 191.927 235.32C194.039 235.32 195.527 236.408 195.527 238.296C195.527 239.624 194.743 240.504 193.495 240.968V241.048C194.855 241.384 195.927 242.376 195.927 243.928C195.927 245.992 194.151 247.208 191.991 247.208ZM204.22 249.88C200.668 249.88 197.724 247.656 197.724 243.336C197.724 238.44 201.276 235.24 205.42 235.24C209.132 235.24 211.484 237.736 211.484 241.352C211.484 244.536 209.436 246.168 207.724 246.168C206.732 246.168 205.948 245.704 205.804 244.808H205.756C205.212 245.496 204.348 246.024 203.58 246.024C202.3 246.024 201.34 245.08 201.34 243.432C201.34 241.432 202.78 239.192 204.86 239.192C205.468 239.192 205.964 239.464 206.284 240.072H206.316L206.54 239.336H207.724L206.972 243.032C206.652 244.36 206.972 244.968 207.9 244.968C209.02 244.968 210.252 243.624 210.252 241.416C210.252 238.6 208.636 236.424 205.276 236.424C202.124 236.424 199.036 239.128 199.036 243.272C199.036 246.808 201.372 248.696 204.364 248.696C205.404 248.696 206.428 248.376 207.212 247.928L207.676 248.984C206.604 249.592 205.484 249.88 204.22 249.88ZM203.948 244.808C204.412 244.808 204.892 244.536 205.468 243.832L205.948 241.096C205.66 240.616 205.356 240.424 204.892 240.424C203.596 240.424 202.78 242.056 202.78 243.336C202.78 244.376 203.276 244.808 203.948 244.808ZM216.775 250.952C214.663 250.952 213.127 250.168 213.127 248.632C213.127 247.896 213.591 247.208 214.407 246.712V246.632C213.959 246.36 213.607 245.896 213.607 245.176C213.607 244.488 214.103 243.896 214.599 243.544V243.48C213.991 243.016 213.431 242.184 213.431 241.128C213.431 239.144 215.015 237.976 216.839 237.976C217.335 237.976 217.783 238.072 218.119 238.2H221.239V239.576H219.559C219.895 239.928 220.135 240.52 220.135 241.192C220.135 243.112 218.679 244.216 216.839 244.216C216.439 244.216 215.991 244.12 215.607 243.944C215.319 244.2 215.127 244.44 215.127 244.872C215.127 245.4 215.479 245.736 216.599 245.736H218.215C220.295 245.736 221.383 246.376 221.383 247.88C221.383 249.576 219.591 250.952 216.775 250.952ZM216.839 243.032C217.751 243.032 218.503 242.312 218.503 241.128C218.503 239.96 217.767 239.272 216.839 239.272C215.911 239.272 215.175 239.944 215.175 241.128C215.175 242.312 215.927 243.032 216.839 243.032ZM217.047 249.736C218.583 249.736 219.607 248.984 219.607 248.168C219.607 247.432 219.031 247.208 217.959 247.208H216.631C216.215 247.208 215.815 247.16 215.447 247.08C214.919 247.464 214.695 247.912 214.695 248.36C214.695 249.224 215.591 249.736 217.047 249.736ZM223.017 247V238.2H224.521L224.665 239.432H224.713C225.465 238.632 226.345 237.976 227.433 237.976C228.745 237.976 229.481 238.584 229.865 239.592C230.729 238.664 231.625 237.976 232.729 237.976C234.569 237.976 235.433 239.224 235.433 241.464V247H233.593V241.688C233.593 240.168 233.113 239.56 232.121 239.56C231.513 239.56 230.873 239.96 230.137 240.76V247H228.297V241.688C228.297 240.168 227.833 239.56 226.825 239.56C226.233 239.56 225.577 239.96 224.857 240.76V247H223.017ZM240.175 247.208C238.655 247.208 237.583 246.216 237.583 244.664C237.583 242.776 239.183 241.8 242.847 241.4C242.831 240.376 242.463 239.48 241.167 239.48C240.239 239.48 239.375 239.896 238.623 240.376L237.935 239.128C238.847 238.552 240.079 237.976 241.487 237.976C243.679 237.976 244.687 239.368 244.687 241.704V247H243.183L243.039 245.992H242.975C242.175 246.68 241.231 247.208 240.175 247.208ZM240.735 245.752C241.503 245.752 242.127 245.384 242.847 244.728V242.568C240.239 242.872 239.359 243.544 239.359 244.536C239.359 245.4 239.951 245.752 240.735 245.752ZM247.298 247V238.2H249.138V247H247.298ZM248.21 236.552C247.538 236.552 247.074 236.12 247.074 235.448C247.074 234.792 247.538 234.36 248.21 234.36C248.882 234.36 249.362 234.792 249.362 235.448C249.362 236.12 248.882 236.552 248.21 236.552ZM253.716 247.208C252.388 247.208 251.892 246.36 251.892 244.936V234.248H253.732V245.032C253.732 245.528 253.94 245.704 254.164 245.704C254.244 245.704 254.308 245.704 254.468 245.672L254.708 247.064C254.484 247.144 254.18 247.208 253.716 247.208ZM257.65 247.208C256.962 247.208 256.418 246.68 256.418 245.928C256.418 245.16 256.962 244.616 257.65 244.616C258.338 244.616 258.882 245.16 258.882 245.928C258.882 246.68 258.338 247.208 257.65 247.208ZM264.804 247.208C262.42 247.208 260.596 245.528 260.596 242.6C260.596 239.672 262.628 237.976 264.948 237.976C266.068 237.976 266.884 238.424 267.524 238.984L266.612 240.184C266.132 239.752 265.636 239.496 265.044 239.496C263.556 239.496 262.5 240.744 262.5 242.6C262.5 244.472 263.524 245.704 264.98 245.704C265.716 245.704 266.372 245.352 266.9 244.904L267.668 246.12C266.852 246.84 265.812 247.208 264.804 247.208ZM272.584 247.208C270.408 247.208 268.44 245.528 268.44 242.6C268.44 239.672 270.408 237.976 272.584 237.976C274.76 237.976 276.728 239.672 276.728 242.6C276.728 245.528 274.76 247.208 272.584 247.208ZM272.584 245.704C273.976 245.704 274.84 244.472 274.84 242.6C274.84 240.744 273.976 239.496 272.584 239.496C271.208 239.496 270.344 240.744 270.344 242.6C270.344 244.472 271.208 245.704 272.584 245.704ZM278.892 247V238.2H280.396L280.54 239.432H280.588C281.34 238.632 282.22 237.976 283.308 237.976C284.62 237.976 285.356 238.584 285.74 239.592C286.604 238.664 287.5 237.976 288.604 237.976C290.444 237.976 291.308 239.224 291.308 241.464V247H289.468V241.688C289.468 240.168 288.988 239.56 287.996 239.56C287.388 239.56 286.748 239.96 286.012 240.76V247H284.172V241.688C284.172 240.168 283.708 239.56 282.7 239.56C282.108 239.56 281.452 239.96 280.732 240.76V247H278.892Z" fill="#0369A1"/>
<rect x="356" y="100" width="120" height="140" rx="5" fill="white"/>
<path d="M41.2695 272H36V312H41.2695V272Z" fill="black"/>
<path d="M46.539 272H43.9043V312H46.539V272Z" fill="black"/>
<path d="M59.7128 272H51.8086V312H59.7128V272Z" fill="black"/>
<path d="M67.6167 272H64.9819V312H67.6167V272Z" fill="black"/>
<path d="M78.1557 272H72.8862V312H78.1557V272Z" fill="black"/>
<path d="M88.6947 272H80.7905V312H88.6947V272Z" fill="black"/>
<path d="M101.869 272H93.9644V312H101.869V272Z" fill="black"/>
<path d="M107.138 272H104.503V312H107.138V272Z" fill="black"/>
<path d="M120.311 272H109.772V312H120.311V272Z" fill="black"/>
<path d="M128.216 272H122.946V312H128.216V272Z" fill="black"/>
<path d="M141.389 272H133.485V312H141.389V272Z" fill="black"/>
<path d="M149.293 272H146.659V312H149.293V272Z" fill="black"/>
<path d="M157.198 272H151.928V312H157.198V272Z" fill="black"/>
<path d="M165.102 272H159.833V312H165.102V272Z" fill="black"/>
<path d="M175.641 272H170.371V312H175.641V272Z" fill="black"/>
<path d="M183.545 272H180.91V312H183.545V272Z" fill="black"/>
<path d="M194.084 272H186.18V312H194.084V272Z" fill="black"/>
<path d="M207.257 272H196.718V312H207.257V272Z" fill="black"/>
<path d="M220.431 272H209.892V312H220.431V272Z" fill="black"/>
<path d="M228.335 272H225.701V312H228.335V272Z" fill="black"/>
<path d="M233.605 272H230.97V312H233.605V272Z" fill="black"/>
<path d="M244.143 272H238.874V312H244.143V272Z" fill="black"/>
<path d="M257.317 272H254.683V312H257.317V272Z" fill="black"/>
<path d="M265.222 272H262.587V312H265.222V272Z" fill="black"/>
<path d="M275.761 272H267.856V312H275.761V272Z" fill="black"/>
<path d="M281.03 272H278.395V312H281.03V272Z" fill="black"/>
<path d="M294.203 272H283.665V312H294.203V272Z" fill="black"/>
<path d="M302.108 272H296.838V312H302.108V272Z" fill="black"/>
<path d="M310.012 272H304.743V312H310.012V272Z" fill="black"/>
<path d="M320.551 272H315.282V312H320.551V272Z" fill="black"/>
<path d="M328.455 272H325.82V312H328.455V272Z" fill="black"/>
<path d="M338.994 272H331.09V312H338.994V272Z" fill="black"/>
<path d="M352.168 272H341.629V312H352.168V272Z" fill="black"/>
<path d="M357.437 272H354.802V312H357.437V272Z" fill="black"/>
<path d="M367.976 272H362.707V312H367.976V272Z" fill="black"/>
<path d="M381.15 272H378.515V312H381.15V272Z" fill="black"/>
<path d="M386.419 272H383.785V312H386.419V272Z" fill="black"/>
<path d="M396.958 272H391.688V312H396.958V272Z" fill="black"/>
<path d="M404.862 272H402.228V312H404.862V272Z" fill="black"/>
<path d="M415.401 272H412.767V312H415.401V272Z" fill="black"/>
<path d="M425.94 272H418.036V312H425.94V272Z" fill="black"/>
<path d="M439.114 272H433.844V312H439.114V272Z" fill="black"/>
<path d="M447.018 272H441.749V312H447.018V272Z" fill="black"/>
<path d="M462.826 272H454.922V312H462.826V272Z" fill="black"/>
<path d="M468.096 272H465.461V312H468.096V272Z" fill="black"/>
<path d="M476 272H470.73V312H476V272Z" fill="black"/>
<rect x="61.5" y="52.5" width="119" height="11" rx="5.5" fill="#E0F2FE" stroke="#7DD3FC"/>
<rect x="226.5" y="52.5" width="59" height="11" rx="5.5" fill="#E0F2FE" stroke="#7DD3FC"/>
<rect x="331.5" y="52.5" width="119" height="11" rx="5.5" fill="#E0F2FE" stroke="#7DD3FC"/>
<rect x="234.5" y="0.5" width="43" height="59" rx="7.5" fill="#E0F2FE" stroke="#7DD3FC"/>
<circle cx="256" cy="18" r="10" fill="url(#paint0_angular_2199_252)"/>
<circle cx="256" cy="18" r="10" fill="#7DD3FC"/>
<defs>
<radialGradient id="paint0_angular_2199_252" cx="0" cy="0" r="1" gradientUnits="userSpaceOnUse" gradientTransform="translate(256 18) rotate(90) scale(10)">
<stop stop-color="#D9D9D9"/>
<stop offset="0.16" stop-color="#737373"/>
<stop offset="0.32" stop-color="#D9D9D9"/>
<stop offset="0.49" stop-color="#737373"/>
<stop offset="0.66" stop-color="#D9D9D9"/>
<stop offset="0.83" stop-color="#737373"/>
<stop offset="1" stop-color="#D9D9D9"/>
</radialGradient>
</defs>
</svg>
