<svg width="150" height="48" viewBox="0 0 150 48" fill="none" xmlns="http://www.w3.org/2000/svg">
<path d="M21 14L10 34" stroke="#0E0E0F" stroke-width="8" stroke-linecap="round" stroke-linejoin="round"/>
<path d="M32 34L21 14" stroke="#0E0E0F" stroke-width="8" stroke-linecap="round" stroke-linejoin="round"/>
<path d="M43 14V34" stroke="#0E0E0F" stroke-width="8" stroke-linecap="round" stroke-linejoin="round"/>
<circle cx="55" cy="20" r="5" fill="#0E0E0F"/>
<path d="M91 14L79 34L67 14V34" stroke="#0E0E0F" stroke-width="8" stroke-linecap="round" stroke-linejoin="round"/>
<path fill-rule="evenodd" clip-rule="evenodd" d="M114.497 27.9722C113.398 29.2158 111.79 30 110 30C106.686 30 104 27.3137 104 24C104 20.6863 106.686 18 110 18C111.79 18 113.398 18.7842 114.497 20.0278C115.195 17.2936 116.598 14.8412 118.5 12.8752C116.144 11.0716 113.197 10 110 10C102.268 10 96 16.268 96 24C96 31.732 102.268 38 110 38C113.197 38 116.144 36.9284 118.5 35.1248C116.598 33.1588 115.195 30.7064 114.497 27.9722Z" fill="#0E0E0F"/>
<circle cx="130" cy="24" r="10" stroke="#0E0E0F" stroke-width="8"/>
</svg>
