<svg width="110" height="50" viewBox="0 0 110 50" fill="none" xmlns="http://www.w3.org/2000/svg">
<path d="M100.536 26.8718L81.2617 24.2446C79.1723 23.9598 77.2812 22.8711 75.9999 21.2153L67.4015 10.1035C65.8879 8.14739 63.5384 7 61.0466 7H37C28.4203 7 20.9076 13.1893 17.0055 21.4202C16.299 22.9106 15.1394 24.1645 13.6206 24.8077L13.252 24.9639C10.5542 26.1065 8.49317 28.3746 7.6134 31.1692L3.6374 43.7989C2.826 46.3762 4.7507 49 7.45279 49H13C13.5523 49 14 48.5523 14 48V46.5294C14 39.98 19.3726 34.6706 26 34.6706C32.6274 34.6706 38 39.98 38 46.5294V48C38 48.5523 38.4477 49 39 49H78C78.5523 49 79 48.5523 79 48V46.5294C79 39.98 84.3726 34.6706 91 34.6706C97.6274 34.6706 103 39.98 103 46.5294V47.0235C103 48.1151 103.895 49 105 49C106.105 49 107 48.1151 107 47.0235V34.2016C107 30.5058 104.24 27.3768 100.536 26.8718Z" fill="#4BD3E9" stroke="#27043E" stroke-width="2"/>
<path d="M73 24C74.2812 25.6755 76.1723 26.7772 78.2618 27.0654L83.0803 27.73" stroke="#27043E" stroke-linecap="round"/>
<path d="M75 46C75 37.1634 82.1634 30 91 30" stroke="#27043E" stroke-linecap="round"/>
<path d="M10 46C10 37.1634 17.1634 30 26 30C34.8366 30 42 37.1634 42 46" stroke="#27043E" stroke-linecap="round"/>
<path d="M47 13C47 11.8954 47.8954 11 49 11H62.4658C63.1145 11 63.7229 11.3146 64.0978 11.844L69.7645 19.844C70.7027 21.1685 69.7556 23 68.1324 23H49C47.8954 23 47 22.1046 47 21V13Z" fill="#86D3FF" stroke="#27043E"/>
<path d="M43 13C43 11.8954 42.1046 11 41 11H37.1013C34.7736 11 32.5188 11.812 30.7256 13.2961L23.2785 19.4592C21.8348 20.654 22.6796 23 24.5536 23H41C42.1046 23 43 22.1046 43 21V13Z" fill="#86D3FF" stroke="#27043E"/>
<rect x="47" y="27" width="7" height="2" rx="1" stroke="#27043E"/>
<path d="M100.315 26.8418L100.536 26.8718C103.614 27.2914 106.04 29.5226 106.772 32.3852C106.105 32.776 105.329 33 104.5 33C102.015 33 100 30.9853 100 28.5C100 27.9144 100.112 27.3549 100.315 26.8418Z" fill="#FFC211" stroke="#27043E" stroke-width="2"/>
<path d="M45 23V35" stroke="#27043E" stroke-linecap="round"/>
<path d="M7.84521 30.5131C8.4977 30.8251 9.22841 30.9999 9.99994 30.9999C12.7614 30.9999 14.9999 28.7613 14.9999 25.9999C14.9999 25.3754 14.8855 24.7777 14.6764 24.2266C14.3472 24.4536 13.9948 24.6491 13.6205 24.8076L13.2519 24.9638C10.7685 26.0155 8.82473 28.0211 7.84521 30.5131Z" fill="#FFC211" stroke="#27043E" stroke-width="2"/>
<rect x="1" y="40" width="6" height="7" rx="1" fill="#4BD3E9" stroke="#27043E" stroke-width="2"/>
<rect x="105" y="40" width="4" height="7" rx="1" fill="#4BD3E9" stroke="#27043E" stroke-width="2"/>
<path d="M38 1V7" stroke="#27043E" stroke-linecap="round"/>
<path d="M46 1V7" stroke="#27043E" stroke-linecap="round"/>
<path d="M54 1V7" stroke="#27043E" stroke-linecap="round"/>
<path d="M23 2C23 1.44772 23.4477 1 24 1H68C68.5523 1 69 1.44772 69 2V3C69 4.10457 68.1046 5 67 5H25C23.8954 5 23 4.10457 23 3V2Z" stroke="#27043E"/>
<path d="M65.8621 14.3345L64.0979 11.844C63.723 11.3146 63.1146 11 62.4659 11H60.3001L48.9023 22.9977C48.9347 22.9992 48.9673 23 49.0001 23H57.6298L65.8621 14.3345Z" fill="#B3E3FF"/>
<path d="M43 13C43 11.8954 42.1046 11 41 11H40.2L29 23H35.4324L43 14.8919V13Z" fill="#B3E3FF"/>
<path d="M43 13C43 11.8954 42.1046 11 41 11H37.1013C34.7736 11 32.5188 11.812 30.7256 13.2961L23.2785 19.4592C21.8348 20.654 22.6796 23 24.5536 23H41C42.1046 23 43 22.1046 43 21V13Z" stroke="#27043E"/>
<path d="M47 13C47 11.8954 47.8954 11 49 11H62.4658C63.1145 11 63.7229 11.3146 64.0978 11.844L69.7645 19.844C70.7027 21.1685 69.7556 23 68.1324 23H49C47.8954 23 47 22.1046 47 21V13Z" stroke="#27043E"/>
</svg>
