<svg width="615" height="248" viewBox="0 0 615 248" fill="none" xmlns="http://www.w3.org/2000/svg">
<path d="M529.687 248H464.299C464.104 247.199 464 246.362 464 245.5C464 239.701 468.701 235 474.5 235C477.078 235 479.439 235.929 481.267 237.471C483.355 235.33 486.272 234 489.5 234C490.947 234 492.331 234.267 493.606 234.755C496.977 228.924 503.28 225 510.5 225C521.27 225 530 233.73 530 244.5C530 245.695 529.893 246.865 529.687 248Z" fill="#61CB29"/>
<path d="M521.992 248H464.582C464.207 247.074 464 246.061 464 245C464 240.582 467.582 237 472 237C475.21 237 477.979 238.891 479.253 241.619C481.031 239.992 483.4 239 486 239C488.553 239 490.883 239.957 492.651 241.532C495.202 236.471 500.446 233 506.5 233C514.893 233 521.728 239.671 521.992 248Z" fill="#008800"/>
<path d="M530 248C530 246.5 530 245.695 530 244.5C530 233.73 521.27 225 510.5 225C503.28 225 496.977 228.924 493.606 234.755C492.331 234.267 490.947 234 489.5 234C486.272 234 483.355 235.33 481.267 237.471C479.439 235.929 477.078 235 474.5 235C468.701 235 464 239.701 464 245.5C464 246.362 464 247 464 248" stroke="#0E0E0F" stroke-width="2"/>
<path d="M509 175H611V248H509V175Z" fill="#FEAE4B"/>
<path d="M611 248V175H509V248" stroke="#27043E" stroke-width="2"/>
<path d="M509 98C509 95.7909 510.791 94 513 94H607C609.209 94 611 95.7909 611 98V170H509V98Z" fill="#FEAE4B" stroke="#27043E" stroke-width="2"/>
<path d="M506 242C506 240.895 506.895 240 508 240H540C541.105 240 542 240.895 542 242V248H506V242Z" fill="#A0A8BF"/>
<path d="M542 248V242C542 240.895 541.105 240 540 240H508C506.895 240 506 240.895 506 242V248" stroke="#27043E" stroke-width="2"/>
<path d="M542 244H578V248H542V244Z" fill="#A0A8BF"/>
<path d="M578 248V244H542V248" stroke="#27043E" stroke-width="2"/>
<path d="M506 172.5C506 171.119 507.119 170 508.5 170H611.5C612.881 170 614 171.119 614 172.5C614 173.881 612.881 175 611.5 175H508.5C507.119 175 506 173.881 506 172.5Z" fill="#FFFDFE" stroke="#27043E" stroke-width="2"/>
<path d="M506 106.5C506 105.119 507.119 104 508.5 104H611.5C612.881 104 614 105.119 614 106.5C614 107.881 612.881 109 611.5 109H508.5C507.119 109 506 107.881 506 106.5Z" fill="#FFFDFE" stroke="#27043E" stroke-width="2"/>
<path d="M578 242C578 240.895 578.895 240 580 240H612C613.105 240 614 240.895 614 242V248H578V242Z" fill="#A0A8BF"/>
<path d="M614 248V242C614 240.895 613.105 240 612 240H580C578.895 240 578 240.895 578 242V248" stroke="#27043E" stroke-width="2"/>
<path d="M546 208C546 200.268 552.268 194 560 194C567.732 194 574 200.268 574 208V244H546V208Z" fill="#FFFDFE" stroke="#27043E" stroke-width="2"/>
<path d="M521 132C521 127.029 525.029 123 530 123C534.971 123 539 127.029 539 132V153H521V132Z" fill="#FFFDFE" stroke="#27043E" stroke-width="2"/>
<rect x="519" y="153" width="22" height="3" fill="#FFFDFE" stroke="#27043E" stroke-width="2"/>
<path d="M524 132C524 128.686 526.686 126 530 126C533.314 126 536 128.686 536 132V153H524V132Z" fill="#86D3FF" stroke="#27043E" stroke-width="2"/>
<path d="M524 132C524 128.686 526.686 126 530 126C533.314 126 536 128.686 536 132V135H524V132Z" fill="#86D3FF" stroke="#27043E" stroke-width="2"/>
<path d="M519 203C519 198.029 523.029 194 528 194C532.971 194 537 198.029 537 203V224H519V203Z" fill="#FFFDFE" stroke="#27043E" stroke-width="2"/>
<rect x="517" y="224" width="22" height="3" fill="#FFFDFE" stroke="#27043E" stroke-width="2"/>
<path d="M522 203C522 199.686 524.686 197 528 197C531.314 197 534 199.686 534 203V224H522V203Z" fill="#86D3FF" stroke="#27043E" stroke-width="2"/>
<path d="M522 203C522 199.686 524.686 197 528 197C531.314 197 534 199.686 534 203V206H522V203Z" fill="#86D3FF" stroke="#27043E" stroke-width="2"/>
<rect x="549" y="153" width="22" height="3" fill="#FFFDFE" stroke="#27043E" stroke-width="2"/>
<path d="M551 132C551 127.029 555.029 123 560 123C564.971 123 569 127.029 569 132V153H551V132Z" fill="#FFFDFE" stroke="#27043E" stroke-width="2"/>
<path d="M554 132C554 128.686 556.686 126 560 126C563.314 126 566 128.686 566 132V153H554V132Z" fill="#86D3FF" stroke="#27043E" stroke-width="2"/>
<path d="M554 132C554 128.686 556.686 126 560 126C563.314 126 566 128.686 566 132V135H554V132Z" fill="#86D3FF" stroke="#27043E" stroke-width="2"/>
<rect x="579" y="153" width="22" height="3" fill="#FFFDFE" stroke="#27043E" stroke-width="2"/>
<path d="M581 132C581 127.029 585.029 123 590 123C594.971 123 599 127.029 599 132V153H581V132Z" fill="#FFFDFE" stroke="#27043E" stroke-width="2"/>
<path d="M584 132C584 128.686 586.686 126 590 126C593.314 126 596 128.686 596 132V153H584V132Z" fill="#86D3FF" stroke="#27043E" stroke-width="2"/>
<path d="M584 132C584 128.686 586.686 126 590 126C593.314 126 596 128.686 596 132V135H584V132Z" fill="#86D3FF" stroke="#27043E" stroke-width="2"/>
<rect x="581" y="224" width="22" height="3" fill="#FFFDFE" stroke="#27043E" stroke-width="2"/>
<path d="M583 203C583 198.029 587.029 194 592 194C596.971 194 601 198.029 601 203V224H583V203Z" fill="#FFFDFE" stroke="#27043E" stroke-width="2"/>
<path d="M586 203C586 199.686 588.686 197 592 197C595.314 197 598 199.686 598 203V224H586V203Z" fill="#86D3FF" stroke="#27043E" stroke-width="2"/>
<path d="M586 203C586 199.686 588.686 197 592 197C595.314 197 598 199.686 598 203V206H586V203Z" fill="#86D3FF" stroke="#27043E" stroke-width="2"/>
<path d="M550 208C550 202.477 554.477 198 560 198C565.523 198 570 202.477 570 208V209H550V208Z" fill="#86D3FF" stroke="#27043E" stroke-width="2" stroke-linejoin="round"/>
<rect x="550" y="213" width="20" height="31" rx="1" fill="#86D3FF" stroke="#27043E" stroke-width="2"/>
<path d="M560 198V209" stroke="#27043E" stroke-width="2"/>
<path d="M552 201L559.778 208.778" stroke="#27043E" stroke-width="2"/>
<path d="M567.777 201L559.999 208.778" stroke="#27043E" stroke-width="2"/>
<path d="M503 131H509V134H503V131Z" fill="#FFFDFE" stroke="#27043E" stroke-width="2"/>
<path d="M503 146H509V149H503V146Z" fill="#FFFDFE" stroke="#27043E" stroke-width="2"/>
<rect x="489" y="122" width="14" height="36" rx="4" fill="#E15435" stroke="#27043E" stroke-width="2"/>
<path d="M494.652 154V150.316H495.769V153.194H497.431V154H494.652Z" fill="white"/>
<path d="M494.508 147.921V144.237H497.472V145.043H495.624V145.676H497.319V146.482H495.624V147.115H497.464V147.921H494.508Z" fill="white"/>
<path d="M494.213 138.964V138.158H497.787V138.964H496.55V141.842H495.45V138.964H494.213Z" fill="white"/>
<path d="M498 133.921C498 134.331 497.911 134.677 497.733 134.959C497.555 135.239 497.315 135.452 497.012 135.597C496.71 135.741 496.372 135.813 496 135.813C495.625 135.813 495.286 135.741 494.984 135.596C494.683 135.449 494.443 135.236 494.265 134.955C494.088 134.673 494 134.329 494 133.921C494 133.511 494.088 133.165 494.265 132.885C494.443 132.603 494.683 132.39 494.984 132.246C495.286 132.101 495.625 132.028 496 132.028C496.372 132.028 496.71 132.101 497.012 132.246C497.315 132.39 497.555 132.603 497.733 132.885C497.911 133.165 498 133.511 498 133.921ZM496.851 133.921C496.851 133.7 496.819 133.514 496.753 133.363C496.689 133.211 496.593 133.096 496.466 133.018C496.34 132.939 496.185 132.899 496 132.899C495.815 132.899 495.659 132.939 495.532 133.018C495.406 133.096 495.311 133.211 495.245 133.363C495.181 133.514 495.149 133.7 495.149 133.921C495.149 134.141 495.181 134.328 495.245 134.48C495.311 134.631 495.406 134.747 495.532 134.826C495.659 134.904 495.815 134.943 496 134.943C496.185 134.943 496.34 134.904 496.466 134.826C496.593 134.747 496.689 134.631 496.753 134.48C496.819 134.328 496.851 134.141 496.851 133.921Z" fill="white"/>
<path d="M494.145 129.684V126H495.261V127.439H496.739V126H497.855V129.684H496.739V128.245H495.261V129.684H494.145Z" fill="white"/>
<rect x="1" y="238" width="116" height="10" fill="#ECECEC"/>
<path d="M117 248V238H1V248" stroke="#27043E" stroke-width="2"/>
<rect x="1" y="144" width="116" height="8" fill="#ECECEC" stroke="#27043E" stroke-width="2"/>
<rect x="5" y="152" width="112" height="86" fill="#ECECEC" stroke="#27043E" stroke-width="2"/>
<rect x="55" y="201" width="44" height="30" fill="#86D3FF" stroke="#27043E" stroke-width="2"/>
<path d="M55 215.727V231H63L90.5 201H68.5L55 215.727Z" fill="#B3E3FF"/>
<path d="M96.3667 201L68.8667 231H81.3333L98 212.818V201H96.3667Z" fill="#B3E3FF"/>
<rect x="55" y="201" width="44" height="30" stroke="#27043E" stroke-width="2"/>
<path d="M102 231H52" stroke="#27043E" stroke-width="2"/>
<rect x="77" y="201" width="22" height="30" stroke="#27043E" stroke-width="2"/>
<path d="M11 217C11 208.716 17.7157 202 26 202C34.2843 202 41 208.716 41 217V248H11V217Z" fill="#F9AF88"/>
<path d="M41 248V217C41 208.716 34.2843 202 26 202V202C17.7157 202 11 208.716 11 217V248" stroke="#27043E" stroke-width="2"/>
<circle cx="35" cy="230" r="3" fill="white" stroke="#27043E" stroke-width="2"/>
<rect x="21" y="211" width="10" height="10" rx="2" fill="#83D4FF" stroke="#27043E" stroke-width="2"/>
<path d="M5 152H21V184C21 188.418 17.4183 192 13 192C8.58172 192 5 188.418 5 184V152Z" fill="#FE7B69" stroke="#27043E" stroke-width="2"/>
<path d="M21 152H37V184C37 188.418 33.4183 192 29 192C24.5817 192 21 188.418 21 184V152Z" fill="#ECECEC" stroke="#27043E" stroke-width="2"/>
<path d="M37 152H53V184C53 188.418 49.4183 192 45 192C40.5817 192 37 188.418 37 184V152Z" fill="#FE7B69" stroke="#27043E" stroke-width="2"/>
<path d="M53 152H69V184C69 188.418 65.4183 192 61 192C56.5817 192 53 188.418 53 184V152Z" fill="#ECECEC" stroke="#27043E" stroke-width="2"/>
<path d="M69 152H85V184C85 188.418 81.4183 192 77 192C72.5817 192 69 188.418 69 184V152Z" fill="#FE7B69" stroke="#27043E" stroke-width="2"/>
<path d="M85 152H101V184C101 188.418 97.4183 192 93 192C88.5817 192 85 188.418 85 184V152Z" fill="#ECECEC" stroke="#27043E" stroke-width="2"/>
<path d="M101 152H117V184C117 188.418 113.418 192 109 192C104.582 192 101 188.418 101 184V152Z" fill="#FE7B69" stroke="#27043E" stroke-width="2"/>
<rect x="117" y="24" width="84" height="224" fill="#ECECEC"/>
<path d="M201 248V24H117V248" stroke="#27043E" stroke-width="2"/>
<rect x="126" y="187" width="66" height="5" fill="#ECECEC" stroke="#27043E" stroke-width="2"/>
<rect x="127" y="160" width="64" height="5" fill="#ECECEC" stroke="#27043E" stroke-width="2"/>
<rect x="129" y="117" width="60" height="43" fill="#86D3FF" stroke="#27043E" stroke-width="2"/>
<path d="M129 143.875V160H144L184 117H154L129 143.875Z" fill="#B3E3FF"/>
<path d="M189 120.225L152 160H169L189 138.5V120.225Z" fill="#B3E3FF"/>
<rect x="129" y="117" width="60" height="43" stroke="#27043E" stroke-width="2"/>
<rect x="159" y="117" width="30" height="43" stroke="#27043E" stroke-width="2"/>
<rect x="127" y="88" width="64" height="5" fill="#ECECEC" stroke="#27043E" stroke-width="2"/>
<rect x="129" y="45" width="60" height="43" fill="#86D3FF" stroke="#27043E" stroke-width="2"/>
<path d="M129 71.875V88H144L184 45H154L129 71.875Z" fill="#B3E3FF"/>
<path d="M189 48.225L152 88H169L189 66.5V48.225Z" fill="#B3E3FF"/>
<rect x="129" y="45" width="60" height="43" stroke="#27043E" stroke-width="2"/>
<rect x="159" y="45" width="30" height="43" stroke="#27043E" stroke-width="2"/>
<rect x="160" y="170" width="14" height="5" fill="#CACDD4" stroke="#27043E" stroke-width="2"/>
<rect x="168" y="175" width="14" height="5" fill="#CACDD4" stroke="#27043E" stroke-width="2"/>
<rect x="117" y="214" width="9" height="5" fill="#CACDD4" stroke="#27043E" stroke-width="2"/>
<rect x="117" y="102" width="15" height="5" fill="#CACDD4" stroke="#27043E" stroke-width="2"/>
<rect x="186" y="97" width="14" height="5" fill="#CACDD4" stroke="#27043E" stroke-width="2"/>
<rect x="175" y="102" width="14" height="5" fill="#CACDD4" stroke="#27043E" stroke-width="2"/>
<rect x="193" y="209" width="8" height="5" fill="#CACDD4" stroke="#27043E" stroke-width="2"/>
<rect x="188" y="31" width="13" height="5" fill="#CACDD4" stroke="#27043E" stroke-width="2"/>
<path d="M169 20C169 18.8954 169.895 18 171 18H195C196.105 18 197 18.8954 197 20V24H169V20Z" fill="#CACDD4" stroke="#27043E" stroke-width="2"/>
<path d="M175 12.5C175 11.1193 176.119 10 177.5 10C178.881 10 180 11.1193 180 12.5V18H175V12.5Z" fill="#CACDD4" stroke="#27043E" stroke-width="2"/>
<path d="M186 5.5C186 4.11929 187.119 3 188.5 3C189.881 3 191 4.11929 191 5.5V18H186V5.5Z" fill="#CACDD4" stroke="#27043E" stroke-width="2"/>
<rect x="117" y="35" width="10" height="5" fill="#CACDD4" stroke="#27043E" stroke-width="2"/>
<rect x="117" y="219" width="6" height="5" fill="#CACDD4" stroke="#27043E" stroke-width="2"/>
<rect x="117" y="107" width="9" height="5" fill="#CACDD4" stroke="#27043E" stroke-width="2"/>
<rect x="196" y="224" width="5" height="5" fill="#CACDD4" stroke="#27043E" stroke-width="2"/>
<rect x="129" y="192" width="60" height="56" fill="#F9AF88"/>
<path d="M189 248V192H129V248" stroke="#27043E" stroke-width="2"/>
<path d="M159 248V192H129V248" stroke="#27043E" stroke-width="2"/>
<circle cx="164.5" cy="222.5" r="2.5" fill="#ECECEC" stroke="#27043E" stroke-width="2"/>
<circle cx="153.5" cy="222.5" r="2.5" fill="#ECECEC" stroke="#27043E" stroke-width="2"/>
<rect x="193" y="108" width="166" height="20" fill="#FFC477" stroke="#27043E" stroke-width="2"/>
<rect x="193" y="116" width="166" height="6" fill="#F77D88" stroke="#27043E" stroke-width="2"/>
<rect x="339" y="133" width="8" height="115" fill="#FFC477"/>
<path d="M347 248V133H339V248" stroke="#27043E" stroke-width="2"/>
<rect x="335" y="128" width="16" height="5" fill="#FFC477" stroke="#27043E" stroke-width="2"/>
<rect x="209" y="128" width="52" height="80" fill="#86D3FF" stroke="#27043E" stroke-width="2"/>
<rect x="201" y="128" width="8" height="120" fill="#92CCCE"/>
<path d="M209 248V128H201V248" stroke="#27043E" stroke-width="2"/>
<rect x="209" y="180" width="52" height="4" fill="#92CCCE" stroke="#27043E" stroke-width="2"/>
<rect x="209" y="152" width="52" height="4" fill="#92CCCE" stroke="#27043E" stroke-width="2"/>
<rect x="209" y="208" width="52" height="4" fill="#92CCCE" stroke="#27043E" stroke-width="2"/>
<rect x="209" y="212" width="52" height="36" fill="#6DB1B0"/>
<path d="M261 248V212H209V248" stroke="#27043E" stroke-width="2"/>
<rect x="233" y="128" width="4" height="120" fill="#92CCCE"/>
<path d="M237 248V128H233V248" stroke="#27043E" stroke-width="2"/>
<rect x="261" y="128" width="8" height="120" fill="#92CCCE"/>
<path d="M269 248V128H261V248" stroke="#27043E" stroke-width="2"/>
<path d="M316.615 198.486L328.185 212.275L325.121 214.846L313.551 201.057L316.615 198.486Z" fill="#FF7B72" stroke="#27043E" stroke-width="2"/>
<circle cx="324.996" cy="216.254" r="5" fill="#FF7B72" stroke="#27043E" stroke-width="2"/>
<circle cx="324.996" cy="216.255" r="2" stroke="#27043E" stroke-width="2"/>
<path d="M282 187C282 184.791 283.791 183 286 183H314C316.209 183 318 184.791 318 187V243H282V187Z" fill="#FF7B72" stroke="#27043E" stroke-width="2"/>
<path d="M277 246C277 244.343 278.343 243 280 243H320C321.657 243 323 244.343 323 246V248H277V246Z" fill="#FF7B72"/>
<path d="M323 248V246C323 244.343 321.657 243 320 243H280C278.343 243 277 244.343 277 246V248" stroke="#27043E" stroke-width="2"/>
<path d="M313 181C313 178.791 307.18 177 300 177C292.82 177 287 178.791 287 181V243H313V181Z" fill="#FF7B72" stroke="#27043E" stroke-width="2"/>
<path d="M291 200C291 198.343 292.343 197 294 197H306C307.657 197 309 198.343 309 200V210C309 210.552 308.552 211 308 211H292C291.448 211 291 210.552 291 210V200Z" fill="white" stroke="#27043E" stroke-width="2"/>
<path d="M292 221C292 219.895 292.895 219 294 219H306C307.105 219 308 219.895 308 221V227C308 228.105 307.105 229 306 229H294C292.895 229 292 228.105 292 227V221Z" stroke="#27043E" stroke-width="2"/>
<circle cx="300" cy="180" r="3" fill="#FFC76A" stroke="#27043E" stroke-width="2"/>
<circle cx="300" cy="164" r="10" fill="#EDEBEC" stroke="#27043E" stroke-width="2"/>
<circle cx="300" cy="164" r="6" fill="#FFC76A" stroke="#27043E" stroke-width="2"/>
<path d="M297 175C297 173.343 298.343 172 300 172C301.657 172 303 173.343 303 175V177H297V175Z" fill="#EDEBEC" stroke="#27043E" stroke-width="2"/>
<rect x="285" y="189" width="30" height="4" rx="2" fill="#EDEBEC" stroke="#27043E" stroke-width="2"/>
<path d="M300 195L302 208H298L300 195Z" fill="#27043E"/>
<circle cx="300" cy="208" r="3" fill="#6DB1B0" stroke="#27043E" stroke-width="2"/>
<rect x="352" y="228" width="110" height="20" fill="#FF7B72"/>
<path d="M462 248V228H352V248" stroke="#27043E" stroke-width="2"/>
<rect x="352" y="154" width="110" height="14" rx="2" fill="#FF7B72" stroke="#27043E" stroke-width="2"/>
<rect x="359" y="173" width="96" height="55" fill="#FFFDFE" stroke="#27043E" stroke-width="2"/>
<path d="M355 168H459V171C459 172.105 458.105 173 457 173H357C355.895 173 355 172.105 355 171V168Z" fill="#FFFDFE" stroke="#27043E" stroke-width="2"/>
<rect x="389" y="137" width="36" height="24" rx="2" fill="#FFFDFE" stroke="#27043E" stroke-width="2"/>
<path d="M406.293 143.707C406.683 143.317 407.317 143.317 407.707 143.707L423.293 159.293C423.923 159.923 423.477 161 422.586 161H391.414C390.523 161 390.077 159.923 390.707 159.293L406.293 143.707Z" stroke="#27043E" stroke-width="2"/>
<path d="M406.313 153.352C406.699 153.716 407.301 153.716 407.687 153.352L423.171 138.727C423.829 138.106 423.39 137 422.485 137H391.515C390.61 137 390.171 138.106 390.829 138.727L406.313 153.352Z" fill="#FFFDFE" stroke="#27043E" stroke-width="2"/>
<rect x="425" y="190" width="24" height="58" fill="#FFFDFE"/>
<path d="M449 248V190H425V248" stroke="#27043E" stroke-width="2"/>
<rect x="429" y="196" width="16" height="16" fill="#86D3FF" stroke="#27043E" stroke-width="2"/>
<circle cx="431.5" cy="228.5" r="2.5" fill="#ECECEC" stroke="#27043E" stroke-width="2"/>
<rect x="370" y="190" width="45" height="26" fill="#86D3FF" stroke="#27043E" stroke-width="2"/>
<path d="M370 202.764V216H378.372L407.151 190H384.128L370 202.764Z" fill="#B3E3FF"/>
<path d="M413.291 190L384.512 216H397.558L415 200.242V190H413.291Z" fill="#B3E3FF"/>
<rect x="370" y="190" width="45" height="26" stroke="#27043E" stroke-width="2"/>
<path d="M418 216H367" stroke="#27043E" stroke-width="2"/>
<rect x="385" y="190" width="15" height="26" stroke="#27043E" stroke-width="2"/>
<path d="M443.215 197L430 211H435.991L444 202.515V197H443.215Z" fill="#B3E3FF"/>
<rect x="476" y="201" width="22" height="38" rx="4" fill="#E15435" stroke="#27043E" stroke-width="2"/>
<rect x="485" y="239" width="4" height="5" fill="#FFFDFE" stroke="#27043E" stroke-width="2"/>
<path d="M478 246C478 244.895 478.895 244 480 244H494C495.105 244 496 244.895 496 246V248H478V246Z" fill="#E15435"/>
<path d="M496 248V246C496 244.895 495.105 244 494 244H480C478.895 244 478 244.895 478 246V248" stroke="#27043E" stroke-width="2"/>
<rect x="481" y="217" width="12" height="17" rx="2" stroke="#27043E" stroke-width="2"/>
<path d="M493 212H481" stroke="#27043E" stroke-width="2" stroke-linecap="round"/>
<path d="M491.533 209V205H492.524V208.125H493.999V209H491.533Z" fill="white"/>
<path d="M488.668 209V205H489.659V208.125H491.134V209H488.668Z" fill="white"/>
<path d="M485.622 209H484.553L485.757 205H487.111L488.316 209H487.247L486.449 206.102H486.42L485.622 209ZM485.422 207.422H487.432V208.234H485.422V207.422Z" fill="white"/>
<path d="M480 205H481.233L482.081 207.266H482.124L482.972 205H484.205V209H483.236V206.688H483.207L482.395 208.969H481.81L480.998 206.672H480.969V209H480V205Z" fill="white"/>
</svg>
