<svg width="90" height="250" viewBox="0 0 90 250" fill="none" xmlns="http://www.w3.org/2000/svg">
<ellipse cx="32.5" cy="29" rx="32.5" ry="29" transform="matrix(-1 0 0 1 70 21)" fill="#E77536"/>
<ellipse cx="68" cy="73" rx="22" ry="20" fill="#E77536"/>
<ellipse cx="22" cy="15" rx="22" ry="15" transform="matrix(-1 0 0 1 86 37)" fill="#E77536"/>
<ellipse cx="22" cy="17" rx="22" ry="17" transform="matrix(-1 0 0 1 71 57)" fill="#E77536"/>
<ellipse cx="20.5" cy="16.5" rx="20.5" ry="16.5" transform="matrix(-1 0 0 1 64 73)" fill="#E77536"/>
<ellipse cx="23.5" cy="85.5" rx="23.5" ry="16.5" fill="#E77536"/>
<ellipse cx="22.5" cy="21.5" rx="22.5" ry="21.5" transform="matrix(-1 0 0 1 45 34)" fill="#FB945C"/>
<ellipse cx="25" cy="17.5" rx="25" ry="17.5" transform="matrix(-1 0 0 1 65 18)" fill="#FB945C"/>
<ellipse cx="15" cy="11.5" rx="15" ry="11.5" transform="matrix(-1 0 0 1 69 64)" fill="#E78B36"/>
<path d="M52 102H44L41 250H55L52 102Z" fill="#764C37"/>
<path d="M50 108V99.4909L60 67L65.5 33" stroke="#764C37" stroke-width="4"/>
<path d="M29.816 47.0791C30.3246 46.4252 31.267 46.3074 31.9209 46.816C32.5748 47.3246 32.6926 48.267 32.184 48.9209L29.816 47.0791ZM22.816 56.0791L29.816 47.0791L32.184 48.9209L25.184 57.9209L22.816 56.0791Z" fill="#764C37"/>
<path d="M57 77L69 70" stroke="#764C37" stroke-width="3" stroke-linecap="round"/>
<path d="M46 111L46 88L32 76.2745L16 40" stroke="#764C37" stroke-width="4"/>
<path d="M46 120V100.59L17 72.5" stroke="#764C37" stroke-width="4"/>
<path d="M47 156L69 139" stroke="#764C37" stroke-width="6"/>
<path d="M31.816 87.0791C32.3246 86.4252 33.267 86.3074 33.9209 86.816C34.5748 87.3246 34.6926 88.267 34.184 88.9209L31.816 87.0791ZM24.816 96.0791L31.816 87.0791L34.184 88.9209L27.184 97.9209L24.816 96.0791Z" fill="#764C37"/>
<ellipse cx="72" cy="59" rx="18" ry="14" fill="#F4AC41"/>
<ellipse cx="5.10019" cy="3.82515" rx="5.10019" ry="3.82515" transform="matrix(-0.877276 0.479986 0.479986 0.877276 42.9487 107)" fill="#F4AC41"/>
<ellipse cx="2.30068" cy="1.72551" rx="2.30068" ry="1.72551" transform="matrix(-0.989723 0.142995 0.142995 0.989723 32.8662 124.551)" fill="#F4AC41"/>
<ellipse cx="8" cy="6" rx="8" ry="6" transform="matrix(-0.950343 0.311203 0.311203 0.950343 18.2056 81)" fill="#F4AC41"/>
<ellipse cx="16" cy="12" rx="16" ry="12" transform="matrix(-0.999972 0.00754763 0.00754763 0.999972 81.999 122)" fill="#E77536"/>
<ellipse cx="24" cy="66.5" rx="24" ry="12.5" fill="#F4C641"/>
<path d="M47.0118 27.5673C46.622 33.59 55.9266 39.1138 67.7942 39.9051C79.6618 40.6963 89.5984 36.4554 89.9882 30.4327C90.378 24.41 81.0734 18.8862 69.2058 18.095C57.3382 17.3037 47.4016 21.5446 47.0118 27.5673Z" fill="#F4C641"/>
<path d="M0.578018 40.3828C3.54571 49.4466 17.1094 53.4888 30.8735 49.4114C44.6375 45.334 53.3897 34.681 50.422 25.6172C47.4543 16.5534 33.8906 12.5112 20.1265 16.5886C6.3625 20.666 -2.38967 31.319 0.578018 40.3828Z" fill="#F4C641"/>
<path d="M20.2142 26.5593C22.1273 37.3116 36.3421 43.9868 51.9639 41.4688C67.5857 38.9507 78.6988 28.193 76.7858 17.4407C74.8727 6.68838 60.6579 0.0131857 45.0361 2.53123C29.4143 5.04927 18.3012 15.807 20.2142 26.5593Z" fill="#F4C641"/>
<ellipse cx="8" cy="4.5" rx="8" ry="4.5" transform="matrix(-0.915531 0.402247 0.402247 0.915531 23.5176 18.4282)" fill="#FFDE67"/>
<ellipse cx="15" cy="3.5" rx="15" ry="3.5" transform="matrix(-0.915531 0.402247 0.402247 0.915531 67.4658 14)" fill="#FFDE67"/>
<ellipse cx="5" cy="3.5" rx="5" ry="3.5" transform="matrix(-1 0 0 1 31 93)" fill="#E78B36"/>
<ellipse cx="6" cy="4.5" rx="6" ry="4.5" transform="matrix(1 0 0 -1 78 124.045)" fill="#E77536"/>
</svg>
