<svg width="120" height="250" viewBox="0 0 120 250" fill="none" xmlns="http://www.w3.org/2000/svg">
<ellipse cx="60.5" cy="55.5" rx="47.5" ry="34.5" fill="#E77536"/>
<ellipse cx="70.5" cy="45.5" rx="19.5" ry="17.5" fill="#FB945C"/>
<ellipse cx="22" cy="73" rx="22" ry="20" fill="#E77536"/>
<ellipse cx="29" cy="57" rx="22" ry="20" fill="#E77536"/>
<ellipse cx="41" cy="74" rx="22" ry="17" fill="#E77536"/>
<ellipse cx="46.5" cy="89.5" rx="20.5" ry="16.5" fill="#E77536"/>
<ellipse cx="58.5" cy="94.5" rx="20.5" ry="17.5" fill="#E77536"/>
<ellipse cx="81.5" cy="85.5" rx="23.5" ry="16.5" fill="#E77536"/>
<ellipse cx="92.5" cy="63.5" rx="22.5" ry="17.5" fill="#FB945C"/>
<ellipse cx="50" cy="35.5" rx="25" ry="17.5" fill="#FB945C"/>
<ellipse cx="46.9999" cy="86.4998" rx="15" ry="11.5" transform="rotate(9.45091 46.9999 86.4998)" fill="#E78B36"/>
<ellipse cx="70" cy="107.5" rx="5" ry="3.5" fill="#E78B36"/>
<path d="M38 91H46L49 250H35L38 91Z" fill="#764C37"/>
<path d="M40 91V84.5L32 57L29 36" stroke="#764C37" stroke-width="4"/>
<path d="M58.184 44.0791C57.6754 43.4252 56.733 43.3074 56.0791 43.816C55.4252 44.3246 55.3074 45.267 55.816 45.9209L58.184 44.0791ZM65.184 53.0791L58.184 44.0791L55.816 45.9209L62.816 54.9209L65.184 53.0791Z" fill="#764C37"/>
<path d="M32 60L15 43" stroke="#764C37" stroke-width="3" stroke-linecap="round"/>
<path d="M44 91V78.5L58 65L74 40" stroke="#764C37" stroke-width="4"/>
<path d="M44 91V81.6418L64 71L88 64" stroke="#764C37" stroke-width="4"/>
<path d="M44 133.642L64 123" stroke="#764C37" stroke-width="4"/>
<path d="M62.184 74.0791C61.6754 73.4252 60.733 73.3074 60.0791 73.816C59.4252 74.3246 59.3074 75.267 59.816 75.9209L62.184 74.0791ZM69.184 83.0791L62.184 74.0791L59.816 75.9209L66.816 84.9209L69.184 83.0791Z" fill="#764C37"/>
<ellipse cx="31.6724" cy="69.8008" rx="18" ry="14" fill="#F4AC41"/>
<ellipse cx="68.4699" cy="82.1917" rx="8" ry="6" transform="rotate(18.1317 68.4699 82.1917)" fill="#F4AC41"/>
<ellipse cx="84.8576" cy="88.3978" rx="2.4903" ry="1.86772" transform="rotate(13.5098 84.8576 88.3978)" fill="#F4AC41"/>
<ellipse cx="66.119" cy="122.776" rx="11" ry="9" transform="rotate(-16.6653 66.119 122.776)" fill="#F4C641"/>
<ellipse cx="96" cy="69" rx="24" ry="15" fill="#F4C641"/>
<ellipse cx="26.0014" cy="34.4078" rx="22" ry="16" transform="rotate(-3.75825 26.0014 34.4078)" fill="#F4C641"/>
<path d="M116.422 38.3828C113.454 47.4466 99.8906 51.4888 86.1265 47.4114C72.3625 43.334 63.6103 32.681 66.578 23.6172C69.5457 14.5534 83.1094 10.5112 96.8735 14.5886C110.638 18.666 119.39 29.319 116.422 38.3828Z" fill="#F4C641"/>
<path d="M90.6462 30.6823C87.9613 43.4094 70.7209 50.735 52.1386 47.0445C33.5563 43.3539 20.6689 30.0448 23.3538 17.3177C26.0387 4.59055 43.2791 -2.73503 61.8614 0.955528C80.4437 4.64608 93.3311 17.9552 90.6462 30.6823Z" fill="#F4C641"/>
<ellipse cx="8" cy="4.5" rx="8" ry="4.5" transform="matrix(-0.915531 0.402247 0.402247 0.915531 44.6484 7)" fill="#FFDE67"/>
<ellipse cx="10.2033" cy="3.5" rx="10.2033" ry="3.5" transform="matrix(-0.951106 0.308866 0.308866 0.951106 83.2925 31.811)" fill="#FFDE67"/>
</svg>
