<svg width="422" height="868" viewBox="0 0 422 868" fill="none" xmlns="http://www.w3.org/2000/svg">
<rect x="4" width="414" height="868" rx="60" fill="black"/>
<path d="M0 149C0 147.895 0.895431 147 2 147H8V183H2C0.895431 183 0 182.105 0 181V149Z" fill="black"/>
<path d="M0 209C0 207.895 0.895431 207 2 207H8V267H2C0.895431 267 0 266.105 0 265V209Z" fill="black"/>
<path d="M0 283C0 281.895 0.895431 281 2 281H8V341H2C0.895431 341 0 340.105 0 339V283Z" fill="black"/>
<path d="M414 251H420C421.105 251 422 251.895 422 253V339C422 340.105 421.105 341 420 341H414V251Z" fill="black"/>
</svg>
