<svg width="1000" height="240" viewBox="0 0 1000 240" fill="none" xmlns="http://www.w3.org/2000/svg">
<path d="M122.29 107.12C120.94 108.47 118.64 109.43 117.1 109.23L119.98 106.15C118.83 105.77 116.9 105.96 115.75 107.11C114.6 108.26 111.52 110.76 107.67 113.84L111.13 114.61C90.1702 132.68 64.4102 148.64 42.1002 158.45L40.3702 169.03C36.7202 167.11 33.8302 169.03 29.7902 169.03C18.0602 169.03 14.2202 156.15 9.99023 150.57C10.7602 148.46 11.3402 145.95 11.5302 143.26L16.3402 141.14C19.0302 139.79 20.9502 138.64 22.3002 135.37C25.3802 128.26 26.7202 122.1 29.0302 113.64L28.2602 110.76C30.9502 102.11 36.9102 95.5702 37.3002 88.0702C37.4902 82.6902 30.3802 79.2302 30.5702 74.4202C30.7602 69.4202 40.1802 66.9202 45.1802 64.2302L47.1002 65.5802C56.1402 55.7702 56.7102 35.9702 66.9002 35.9702C68.6302 35.9702 75.5502 47.3102 76.5102 49.8102C77.2802 52.8902 75.5502 56.5402 74.7802 60.5802C81.3202 60.5802 88.4302 58.6602 98.2402 60.0002C96.3202 63.6502 102.09 62.6902 103.24 60.0002C105.16 61.5402 110.55 60.9602 114.78 62.3102C132.47 67.6902 133.43 82.5002 134.39 90.7702C131.12 95.7702 126.51 103.08 122.28 107.11L122.29 107.12ZM42.8802 153.46L42.5002 155.38L47.8802 152.5L48.8402 150.19L42.8802 153.46ZM59.9902 91.1602L59.8002 97.1202C59.0302 98.0802 57.4902 98.6602 56.3402 100V100.19C59.4202 97.6902 59.0302 106.34 57.3002 106.34C56.3402 106.15 55.5702 105.76 54.8002 105.19V105.38C55.5702 106.53 55.9502 107.88 56.1502 109.42C55.9602 113.84 52.1102 119.23 51.1502 126.53C58.0702 122.3 73.6502 116.15 83.2602 107.88C84.0302 108.65 84.8002 108.65 86.1402 109.03L84.9902 106.34L86.7202 105.19C87.4902 106.54 88.2602 106.73 88.6402 106.73C90.5602 106.73 94.2202 103.65 100.95 95.7702C105.95 97.5002 115.95 84.6202 114.79 77.5002C82.3002 77.5002 70.3702 87.8802 59.9902 91.1502V91.1602ZM51.1502 151.15L60.9602 146.34C60.1902 145.96 59.6102 144.23 60.5802 143.07V142.88C57.7002 144.42 52.8902 148.84 51.1602 150.96V151.15H51.1502ZM97.6802 122.69C94.2202 122.69 91.1402 124.61 87.3002 127.11C83.0702 129.8 76.3402 133.65 70.1902 137.49C70.0002 138.64 69.4202 139.99 68.0802 140.76C66.7302 139.41 64.6202 139.99 62.5002 141.91C63.6502 141.91 65.5802 142.49 66.9202 143.26C77.8802 136.53 88.8402 128.45 97.6802 122.88V122.69ZM103.06 116.92L96.7102 120.38C97.8602 121.15 99.4002 121.53 100.75 120.38L104.79 117.5L103.06 116.92ZM120.75 101.93L119.21 103.66L121.71 104.24L123.25 102.51L120.75 101.93Z" fill="white"/>
<path d="M220.73 73.4698C203.23 81.3498 185.35 81.9298 168.43 86.7398C166.32 90.1998 163.62 94.6198 160.35 99.8198C168.04 99.0498 184 92.5098 189.58 92.5098C195.16 92.5098 196.89 94.4298 200.92 101.35C200.15 103.46 201.11 105.39 203.04 106.35L201.69 110.58C189.96 112.5 161.31 117.12 151.7 121.35C146.7 123.46 142.28 144.61 142.09 149.04C148.05 153.46 157.09 151.54 162.66 150.19L163.81 152.11C165.16 152.11 166.89 150.96 166.89 149.8C169.77 149.42 170.74 154.03 173.43 153.26C185.93 149.8 200.73 144.8 210.35 141.72C210.93 141.53 211.7 141.34 211.89 141.91C212.28 142.87 209.39 144.22 207.85 144.99L194.77 149.8C195.92 150.57 198.04 151.91 199.38 152.68C199.96 152.87 199.57 153.26 199 153.45C189.39 156.72 177.46 159.99 166.7 162.68C169.58 164.03 173.81 164.03 177.47 163.06C185.16 160.95 195.74 157.29 205.16 154.02C205.74 153.83 207.08 153.25 206.12 155.17C204.97 157.09 203.43 158.44 200.74 159.4C188.24 164.21 172.09 169.98 160.36 169.98C137.86 169.98 121.9 159.79 122.67 131.72C123.06 117.49 134.78 99.9898 148.82 70.5798C147.86 65.7698 148.05 61.1598 151.51 55.9698C161.12 57.1198 166.7 42.3198 173.43 42.3198C177.08 42.3198 187.27 45.1998 189.77 45.9698C189.96 50.1998 189 54.6198 186.31 59.8098C189.58 60.5798 198.81 61.5398 203.04 61.5398L204.77 65.1898C205.73 65.1898 207.46 64.0398 209.58 64.0398C211.7 64.0398 216.31 65.9598 219 66.3498C219.38 66.3498 219.77 66.7298 219.38 67.1198C211.69 74.0398 206.31 69.8098 207.65 75.5798C213.42 73.2698 218.23 71.9298 223.61 69.4298C224.38 69.0498 225.53 67.6998 225.72 68.8498C226.1 70.7698 222.64 71.9298 220.72 73.4598L220.73 73.4698ZM139.4 140.57C138.63 144.03 138.44 146.53 139.98 147.68L140.94 142.49L139.4 140.57ZM142.48 129.61L140.37 136.72L141.72 138.45L144.41 129.41L142.49 129.6L142.48 129.61ZM142.86 128.27H143.05C144.2 126.73 145.74 125.19 146.51 123.27C144.01 123.08 143.24 124.23 142.86 126.15V128.26V128.27ZM153.82 100.39L156.32 100.01L158.24 95.5898C156.89 95.5898 154.39 98.2798 153.82 100.4V100.39ZM162.66 87.5098L159.39 92.8898L161.89 92.3098L165.16 86.9298L162.66 87.5098ZM187.66 145.19C182.28 149.23 175.55 151.92 173.24 148.27C182.08 146.35 190.93 143.46 198.04 140.58C198.81 140.19 199 140.77 198.62 141.35C196.31 144.04 191.31 145.39 187.66 145.2V145.19ZM205.73 67.5098L206.31 69.8198L209.77 68.2798C209.58 67.3198 206.89 67.1298 205.73 67.5098Z" fill="white"/>
<path d="M293.79 52.3202C300.71 54.0502 304.17 60.2002 303.6 67.5102C304.56 68.2802 304.95 69.2402 304.95 70.2002C304.95 74.2402 298.41 79.6202 291.11 81.1602C287.07 75.9702 293.42 75.7802 291.49 73.6602C272.07 73.6602 262.26 77.5102 245.54 89.4302V92.3102L253.62 98.0802C261.89 103.85 269.96 106.54 275.73 112.88L277.84 111.53C283.42 117.49 286.68 124.8 286.3 129.8L285.15 145.18L281.88 144.41C276.3 152.1 265.15 159.02 253.81 164.02C247.85 161.52 244.58 162.48 244.77 167.67C235.54 171.13 227.27 172.86 223.81 172.86C221.12 172.86 216.5 169.78 211.89 165.36C204.2 163.82 202.47 159.21 203.43 155.75C200.93 152.29 199.2 149.02 199.2 146.91C199.2 142.1 202.47 139.22 205.55 136.91C208.82 139.6 213.82 146.33 217.28 146.33C226.32 146.33 244.2 141.14 256.5 130.37V128.45C251.69 123.84 247.85 115.38 244.39 117.68C239.2 110.76 236.89 107.87 233.43 110.37C230.74 108.06 225.55 103.45 224.59 98.0602C223.44 91.9102 221.13 84.7902 221.32 80.7502C222.47 64.9802 253.62 49.2202 278.04 49.2202C282.85 49.2202 289.19 49.4102 294 49.9902L293.81 52.3002L293.79 52.3202ZM242.45 164.22L235.72 167.1L236.68 168.45L242.45 166.53V164.22ZM259.76 77.8902C252.84 80.0102 245.72 82.8902 245.53 85.9702L259.76 78.0902V77.9002V77.8902ZM297.25 80.9702L302.06 77.7002C302.06 80.0102 301.48 80.2002 298.98 82.3102L297.25 80.9602V80.9702Z" fill="white"/>
<path d="M356.09 75.9702H353.98C348.79 83.2802 345.71 96.7402 336.87 101.54L337.64 103.85L330.14 108.08C322.64 118.85 319.37 132.11 315.14 143.07C314.56 144.61 312.06 147.68 314.56 148.45C315.14 148.64 316.48 144.6 316.67 144.03C321.09 134.03 324.36 119.03 331.28 111.15C333.97 110.19 332.05 112.5 331.66 113.07C324.93 124.41 321.66 137.49 316.09 150.95C312.24 159.99 310.9 168.26 311.86 172.1C308.4 170.95 305.32 169.6 302.25 167.87V161.72C300.9 162.87 300.33 164.22 300.14 166.33C295.72 163.06 292.06 158.64 289.56 151.91C289.56 117.3 325.32 70.0002 339.17 44.6202C340.32 43.0802 342.82 41.9302 344.94 41.9302C346.86 41.9302 348.79 42.7002 350.9 43.2802V47.8902C354.75 49.4302 357.82 53.8502 357.82 58.0802C357.82 63.2702 357.05 70.1902 356.09 75.9602V75.9702ZM311.1 152.69L308.98 157.88C308.79 158.46 309.37 160.38 310.52 158.46L313.21 151.73C310.52 149.04 311.29 152.11 311.1 152.69Z" fill="white"/>
<path d="M346.09 109.04C349.55 105.77 360.51 76.7402 384.74 64.4302C386.85 63.4702 385.7 61.5502 388.01 60.0102C399.35 52.9002 405.89 50.2002 423.2 50.2002C435.51 53.4702 433.01 61.7402 441.27 66.7402C441.27 69.4302 439.54 71.1602 437.62 73.0902C439.35 73.6702 440.7 75.2102 441.47 76.3602C441.28 77.3202 440.51 78.2802 439.74 78.4702C438.01 76.7402 433.97 73.6602 429.74 73.6602C408.59 73.6602 362.64 108.08 365.9 135.38C379.55 137.69 400.32 133.65 405.12 131.34C407.62 130.19 410.31 127.11 411.85 124.61C416.85 116.73 424.16 107.69 430.31 101.34C431.08 102.11 432.04 102.69 433 103.26C431.46 104.99 429.35 108.64 429.73 109.99L434.54 104.22C438.58 106.14 442.62 107.49 443.38 115.18C448.19 115.18 442.42 124.22 444.15 126.33C430.5 140.17 425.69 143.64 422.81 146.13C421.08 151.32 418.77 158.05 415.89 164.97L416.66 166.32C419.74 160.55 421.66 154.59 423.77 149.21L425.88 148.25C420.88 160.56 416.07 176.13 409.54 187.67C407.81 190.75 410.31 192.09 408.58 195.55C407.04 198.82 405.31 204.01 401.47 204.01H398.2V201.51C389.93 203.24 385.7 198.43 384.16 193.05L388.97 184.59C385.89 185.36 384.55 187.86 383.59 190.74H380.32C385.32 180.17 388.97 171.71 392.63 163.63C395.71 156.9 397.82 161.71 397.82 151.13L394.36 152.28C391.67 149.01 385.13 151.13 380.52 154.78C364.18 154.97 355.72 151.7 348.6 137.86H346.29C342.64 128.25 344.75 119.98 347.64 111.52L346.1 109.02L346.09 109.04ZM363.97 127.31C362.43 129.04 361.66 130.77 361.66 132.12C361.66 133.27 362.43 134.23 363.58 134.62L363.96 127.31H363.97ZM434.15 107.89L430.3 113.08C432.99 112.7 435.3 110.58 437.03 109.23C436.07 107.31 435.11 106.54 434.15 107.88V107.89Z" fill="white"/>
<path d="M565.86 55.2002C567.97 53.8502 571.82 52.8902 575.86 52.7002C582.78 52.5102 588.17 53.4702 591.44 55.7802L587.59 58.4702L587.97 59.2402C589.32 59.2402 592.97 58.0902 594.12 57.3202L599.5 63.0902C589.5 67.7002 571.62 80.9702 561.81 94.4302C560.66 95.9702 559.89 93.6602 558.73 94.4302C558.35 101.35 554.31 105.01 549.69 112.31C548.73 114.04 549.11 116.54 547.96 119.23C547.96 120.38 545.08 121.54 544.5 123.27C539.69 138.07 533.16 153.46 527 169.22L518.35 165.18L517.2 167.87C504.89 164.6 503.74 159.79 502.01 146.91C501.43 141.91 502.97 133.26 501.63 129.03C497.01 115.57 501.44 109.8 500.28 100L499.32 92.5002C493.36 94.4202 486.63 100.19 481.63 109.23L482.21 112.31C472.6 130.38 463.94 155.38 455.29 166.92H449.91C444.33 166.92 441.26 154.04 438.95 152.88L437.8 144.42C436.84 138.46 438.57 136.34 439.92 132.69C453.57 99.6202 475.49 79.6202 490.68 64.0502C496.45 66.1602 512.22 75.9702 514.91 83.0902C517.22 88.8602 519.52 100.97 521.45 108.86C534.52 86.1702 553.75 57.9102 557.98 56.3702L562.02 55.7902C550.1 67.5202 541.64 81.3602 537.02 88.0902C535.29 90.9702 534.52 92.1302 534.91 92.3202L536.06 93.0902C541.64 84.4402 554.52 66.1702 565.86 55.2102V55.2002ZM489.71 68.6602L485.48 73.0802C487.79 75.0002 489.9 71.1602 491.25 69.8102L489.71 68.6602ZM547.01 129.81L545.28 128.66C545.47 125.97 545.66 122.31 547.97 123.28L547.01 129.82V129.81ZM562.2 85.2002C560.66 87.5102 557.59 91.5502 559.51 92.5102L563.55 86.3602C563.93 85.7802 562.59 84.6302 562.2 85.2102V85.2002ZM561.24 64.8202L564.51 60.5902L562.97 59.8202C562.01 60.5902 560.86 61.9302 559.7 63.8602C559.89 64.2502 560.47 65.0102 561.24 64.8202ZM567.2 78.4702L563.35 83.4702C564.5 83.2802 564.89 83.6602 565.08 84.4302L568.54 79.4302C568.92 79.0402 568.16 77.3102 567.19 78.4702H567.2ZM581.81 62.5102L582.2 64.2402C584.12 62.8902 585.85 62.7002 585.47 59.8202L581.82 62.5102H581.81Z" fill="white"/>
<path d="M597.57 135.96L593.92 136.73C593.92 136.15 596.42 134.23 598.15 132.69C598.53 132.31 599.11 132.31 598.73 133.07L597.58 135.95L597.57 135.96ZM686.41 159.22C688.91 160.57 685.45 166.33 683.33 170.37C680.45 175.75 677.56 186.33 674.68 186.33C669.49 183.25 658.14 175.75 658.14 167.29C658.14 155.75 666.6 138.26 672.37 127.68L671.41 125.95C666.8 125.95 650.26 128.26 648.53 128.26C647.95 127.49 646.99 126.91 646.03 126.91C642.95 126.91 641.42 129.22 640.26 132.1C636.61 140.94 630.45 163.63 628.53 172.48C624.49 172.48 623.53 170.37 621.22 168.06C621.22 168.06 621.03 168.25 620.83 168.25C620.64 168.44 620.45 168.44 620.25 168.44H619.29C618.52 168.44 617.94 168.06 617.18 167.86L618.14 165.55C606.6 158.05 612.95 150.94 615.26 135.94C610.84 134.98 604.68 135.75 599.69 135.75C601.8 131.9 605.84 131.14 609.3 129.4L606.22 127.67L617.37 123.06C618.52 120.18 620.06 118.83 621.41 116.14C624.87 109.79 626.03 100.95 629.49 94.4099C638.53 77.2999 650.64 58.6499 656.6 43.6499C657.37 43.0699 656.79 42.1099 659.29 42.1099C669.48 42.1099 668.71 48.0699 674.29 53.2599C674.48 59.7999 675.83 64.4099 672.94 74.2199H671.59C669.67 80.3699 662.75 89.7899 658.71 98.2499C655.06 99.9799 652.75 103.83 652.75 107.29L656.79 106.14C662.17 99.7899 669.86 99.0299 677.36 99.0299C679.86 99.0299 683.7 100.18 686.59 101.15C698.51 86.3399 706.01 69.2299 714.86 52.3099C715.63 50.9599 717.36 49.9999 719.28 49.9999C726.01 49.9999 728.51 59.8099 728.51 67.1099C728.51 71.5299 727.93 76.7199 724.86 79.0299C724.28 84.4099 722.36 89.6099 717.94 92.1099C719.48 95.7599 713.52 102.88 710.63 108.07C708.13 107.3 704.86 109.99 703.52 112.3C702.17 114.61 699.87 119.03 698.14 122.68C697.75 123.45 699.29 124.41 700.25 122.49L702.56 117.68C703.52 115.76 705.25 114.22 706.98 114.41C700.83 125.37 697.94 136.52 690.44 147.29L688.33 146.52C687.56 146.14 685.83 147.29 685.06 148.44C684.29 149.79 682.75 152.09 681.21 154.78C679.48 157.47 681.21 162.09 681.4 164.01C680.05 166.32 677.36 168.24 677.36 170.74C678.71 173.62 682.17 168.05 686.4 159.2L686.41 159.22ZM635.26 134.42L636.99 135L639.1 129.23C637.37 129.23 636.22 131.92 635.25 134.42H635.26ZM661.03 140.38L663.14 141.15C661.99 146.34 659.29 148.07 658.91 148.07L661.02 140.38H661.03ZM675.83 163.65L673.91 167.5L675.06 169.04L678.33 162.5C677.75 162.5 676.41 162.5 675.83 163.65ZM684.87 156.15C684.49 156.92 683.91 156.92 683.91 156.34L683.72 154.23L686.6 150C686.98 149.42 687.56 149.04 687.95 149.42L688.53 150L684.88 156.15H684.87ZM696.02 127.69L688.14 143.07C690.45 142.88 692.18 139.61 693.33 137.11L698.52 126.53C697.75 126.34 696.41 126.91 696.02 127.68V127.69Z" fill="white"/>
<path d="M784.46 75.9702H782.34C777.15 83.2802 774.07 96.7402 765.23 101.54L766 103.85L758.5 108.08C751 118.85 747.73 132.11 743.5 143.07C742.92 144.61 740.42 147.68 742.92 148.45C743.5 148.64 744.84 144.6 745.03 144.03C749.45 134.03 752.72 119.03 759.64 111.15C762.33 110.19 760.41 112.5 760.02 113.07C753.29 124.41 750.02 137.49 744.44 150.95C740.59 159.99 739.25 168.26 740.21 172.1C736.75 170.95 733.67 169.6 730.6 167.87V161.72C729.25 162.87 728.68 164.22 728.49 166.33C724.07 163.06 720.41 158.64 717.91 151.91C717.91 117.3 753.67 70.0002 767.52 44.6202C768.67 43.0802 771.17 41.9302 773.29 41.9302C775.21 41.9302 777.14 42.7002 779.25 43.2802V47.8902C783.1 49.4302 786.17 53.8502 786.17 58.0802C786.17 63.2702 785.4 70.1902 784.44 75.9602L784.46 75.9702ZM739.47 152.69L737.36 157.88C737.17 158.46 737.74 160.38 738.9 158.46L741.59 151.73C738.9 149.04 739.67 152.11 739.48 152.69H739.47Z" fill="white"/>
<path d="M774.46 109.04C777.92 105.77 788.88 76.7402 813.11 64.4302C815.22 63.4702 814.07 61.5502 816.38 60.0102C827.73 52.9002 834.26 50.2002 851.57 50.2002C863.88 53.4702 861.38 61.7402 869.64 66.7402C869.64 69.4302 867.91 71.1602 865.99 73.0902C867.72 73.6702 869.07 75.2102 869.84 76.3602C869.65 77.3202 868.88 78.2802 868.11 78.4702C866.38 76.7402 862.34 73.6602 858.11 73.6602C836.96 73.6602 791.01 108.08 794.27 135.38C807.92 137.69 828.69 133.65 833.49 131.34C835.99 130.19 838.68 127.11 840.22 124.61C845.22 116.73 852.53 107.69 858.68 101.34C859.45 102.11 860.41 102.69 861.37 103.26C859.83 104.99 857.72 108.64 858.1 109.99L862.91 104.22C866.95 106.14 870.99 107.49 871.75 115.18C876.56 115.18 870.79 124.22 872.52 126.33C858.87 140.17 854.06 143.64 851.18 146.13C849.45 151.32 847.14 158.05 844.26 164.97L845.03 166.32C848.11 160.55 850.03 154.59 852.14 149.21L854.25 148.25C849.25 160.56 844.44 176.13 837.91 187.67C836.18 190.75 838.68 192.09 836.95 195.55C835.41 198.82 833.68 204.01 829.84 204.01H826.57V201.51C818.3 203.24 814.07 198.43 812.53 193.05L817.34 184.59C814.26 185.36 812.92 187.86 811.96 190.74H808.69C813.69 180.17 817.34 171.71 821 163.63C824.08 156.9 826.19 161.71 826.19 151.13L822.73 152.28C820.04 149.01 813.5 151.13 808.89 154.78C792.55 154.97 784.09 151.7 776.97 137.86H774.66C771.01 128.25 773.12 119.98 776.01 111.52L774.47 109.02L774.46 109.04ZM792.34 127.31C790.8 129.04 790.03 130.77 790.03 132.12C790.03 133.27 790.8 134.23 791.95 134.62L792.33 127.31H792.34ZM862.52 107.89L858.67 113.08C861.36 112.7 863.67 110.58 865.4 109.23C864.44 107.31 863.48 106.54 862.52 107.88V107.89Z" fill="white"/>
<path d="M859.06 135.96L855.41 136.73C855.41 136.15 857.91 134.23 859.64 132.69C860.02 132.31 860.6 132.31 860.22 133.07L859.07 135.95L859.06 135.96ZM947.89 159.22C950.39 160.57 946.93 166.33 944.81 170.37C941.93 175.75 939.04 186.33 936.16 186.33C930.97 183.25 919.62 175.75 919.62 167.29C919.62 155.75 928.08 138.26 933.85 127.68L932.89 125.95C928.28 125.95 911.74 128.26 910.01 128.26C909.43 127.49 908.47 126.91 907.51 126.91C904.43 126.91 902.9 129.22 901.74 132.1C898.09 140.94 891.93 163.63 890.01 172.48C885.97 172.48 885.01 170.37 882.7 168.06C882.7 168.06 882.51 168.25 882.31 168.25C882.12 168.44 881.93 168.44 881.73 168.44H880.77C880 168.44 879.42 168.06 878.66 167.86L879.62 165.55C868.08 158.05 874.43 150.94 876.74 135.94C872.32 134.98 866.16 135.75 861.17 135.75C863.28 131.9 867.32 131.14 870.78 129.4L867.7 127.67L878.85 123.06C880 120.18 881.54 118.83 882.89 116.14C886.35 109.79 887.51 100.95 890.97 94.4099C900.01 77.2999 912.12 58.6499 918.08 43.6499C918.85 43.0699 918.27 42.1099 920.77 42.1099C930.96 42.1099 930.19 48.0699 935.77 53.2599C935.96 59.7999 937.31 64.4099 934.42 74.2199H933.07C931.15 80.3699 924.23 89.7899 920.19 98.2499C916.54 99.9799 914.23 103.83 914.23 107.29L918.27 106.14C923.65 99.7899 931.34 99.0299 938.84 99.0299C941.34 99.0299 945.18 100.18 948.07 101.15C959.99 86.3399 967.49 69.2299 976.34 52.3099C977.11 50.9599 978.84 49.9999 980.76 49.9999C987.49 49.9999 989.99 59.8099 989.99 67.1099C989.99 71.5299 989.41 76.7199 986.34 79.0299C985.76 84.4099 983.84 89.6099 979.42 92.1099C980.96 95.7599 975 102.88 972.11 108.07C969.61 107.3 966.34 109.99 965 112.3C963.65 114.61 961.35 119.03 959.62 122.68C959.23 123.45 960.77 124.41 961.73 122.49L964.04 117.68C965 115.76 966.73 114.22 968.46 114.41C962.31 125.37 959.42 136.52 951.92 147.29L949.81 146.52C949.04 146.14 947.31 147.29 946.54 148.44C945.77 149.79 944.23 152.09 942.69 154.78C940.96 157.47 942.69 162.09 942.88 164.01C941.53 166.32 938.84 168.24 938.84 170.74C940.19 173.62 943.65 168.05 947.88 159.2L947.89 159.22ZM896.75 134.42L898.48 135L900.59 129.23C898.86 129.23 897.71 131.92 896.74 134.42H896.75ZM922.51 140.38L924.62 141.15C923.47 146.34 920.77 148.07 920.39 148.07L922.5 140.38H922.51ZM937.32 163.65L935.4 167.5L936.55 169.04L939.82 162.5C939.24 162.5 937.9 162.5 937.32 163.65ZM946.35 156.15C945.97 156.92 945.39 156.92 945.39 156.34L945.2 154.23L948.08 150C948.46 149.42 949.04 149.04 949.43 149.42L950.01 150L946.36 156.15H946.35ZM957.51 127.69L949.63 143.07C951.94 142.88 953.67 139.61 954.82 137.11L960.01 126.53C959.24 126.34 957.9 126.91 957.51 127.68V127.69Z" fill="white"/>
</svg>
