<svg width="200" height="80" viewBox="0 0 200 80" fill="none" xmlns="http://www.w3.org/2000/svg">
<path d="M35.1543 54.4599C30.0625 49.2352 50.0903 47.8774 52.7764 47.3608C85.9839 43.4055 119.428 41.841 152.842 40.8079C162.524 40.5422 173.209 40.4094 182.935 40.3799C185.665 40.5717 196.336 39.9076 194.86 44.4386C194.639 44.8518 194.373 45.206 194.048 45.4717C188.912 48.8662 182.64 49.4714 176.84 50.903C165.505 53.3087 148.916 55.921 137.315 57.8544C129.655 59.3598 119.708 60.0092 112.889 63.7875C113.066 63.5513 113.037 63.0348 112.801 62.8134C113.244 62.9905 114.218 63.2266 115.029 63.3004C128.209 64.1122 141.61 62.6215 154.79 61.6622L159.778 61.2047C161.358 61.1309 163.188 60.7471 164.604 61.7508C166.317 63.6251 163.748 65.8685 163.202 67.6395C161.18 72.2443 172.058 70.5028 174.449 70.4142C174.862 70.3699 175.231 70.6651 175.26 71.0784C175.305 71.4769 175.01 71.8458 174.596 71.8901C172.914 72.0229 171.231 72.1705 169.534 72.1853C166.376 72.3181 159.852 72.0229 161.859 67.1377C163.557 63.2562 165.77 62.1345 159.911 62.6806C155.07 63.2414 149.787 63.8613 144.96 64.3188C140.075 64.5107 111.266 68.5103 110.498 63.7137C110.262 62.5477 111.281 61.6917 112.166 61.2637C113.908 60.4225 115.561 60.1273 117.228 59.7583C123.929 58.6514 130.452 57.4264 137.05 56.2752C150.2 53.9728 163.335 51.5376 176.338 48.5858C181.149 47.4789 186.049 46.5491 190.551 44.6157C191.333 44.2467 192.13 43.8777 192.558 43.3907C192.543 43.4202 192.528 43.4497 192.514 43.4792C192.514 43.5235 192.484 43.6564 192.528 43.7597C192.735 44.1582 192.602 43.863 192.307 43.7892C187.2 42.21 178.316 42.9922 172.884 42.8151C152.856 42.9479 132.843 43.553 112.83 44.5566C89.5408 45.8702 66.1627 47.0952 43.0503 50.3421C40.6889 50.903 37.3239 51.1539 35.7594 52.8954C35.7004 52.984 35.8627 53.1463 35.9365 53.2054C36.8221 53.7662 35.8922 54.9912 35.11 54.4303L35.1543 54.4599Z" fill="white"/>
<path d="M32.8377 20.293C32.0702 20.1307 31.8931 21.7689 31.775 22.1674L31.229 22.2264C31.2732 22.6397 31.7603 22.6545 32.0702 22.7135C31.9374 23.112 31.5832 23.2448 31.1699 23.2596L30.5501 26.3589L30.9338 26.108L31.4061 23.8499L31.6717 24.3665L31.3766 26.1228C31.2732 26.7574 31.0223 27.2592 30.6829 27.3035C30.2106 27.3625 30.3729 27.9529 30.2844 28.4104L30.0187 28.13L29.8416 28.3514C30.0483 28.6761 30.432 29.0746 30.4763 29.4878C30.5648 30.27 29.8711 31.8197 29.4431 33.2218L28.8085 32.779C28.7495 32.8528 28.6462 32.8971 28.5576 32.9414C28.4543 32.9857 28.3657 33.0004 28.2181 33.0152C26.9194 33.1628 25.1926 31.1408 25.0597 29.9158C24.9122 28.5285 27.1408 23.2153 28.0706 20.3963L27.9377 20.1307C27.0227 20.8539 24.6908 21.9017 24.7055 22.9644L19.2595 28.7646C18.5954 28.0414 18.2559 28.6761 17.5327 28.7499C16.6472 28.8532 15.9535 27.2297 15.496 26.1523C15.8207 24.4255 16.4406 22.256 17.0457 20.2635L16.6324 19.6289C15.3927 20.8981 14.33 22.7725 13.5478 24.3812C12.3819 26.846 10.8322 30.639 9.66623 33.4432C9.31202 33.3399 9.51864 32.7348 9.71051 32.233C9.32678 32.1739 9.12015 32.779 8.9578 33.458C8.79546 34.1664 8.9578 34.9043 9.2087 35.3619C9.04636 35.5242 8.88401 35.598 8.69214 35.6275C7.29005 35.7751 5.09098 33.517 5.00242 32.7643C4.91387 31.9525 7.27529 27.1116 8.55931 24.4846C10.0204 21.4737 11.4668 18.6548 13.5773 16.6623C14.1087 15.5997 15.2894 13.4744 16.5144 13.3416C18.4183 13.135 19.3628 15.4374 20.3517 17.2527C20.2779 18.153 20.5288 19.437 20.9568 20.175C21.9604 19.3042 23.2001 18.0054 24.2185 17.2675C24.4399 17.1051 24.7646 17.2675 24.9712 17.5331C25.2221 17.297 25.3844 16.8985 25.1778 16.5443C26.8603 15.2307 29.0151 13.8139 29.7531 13.7253C30.4025 13.6515 31.2732 14.1386 32.0555 14.6109C32.7786 15.9096 33.5461 16.9575 33.6789 18.0792C33.7822 19.068 33.5166 20.3963 32.882 20.2635L32.8377 20.293ZM9.90237 31.067L9.59244 31.7607L9.81382 31.9378L10.109 31.1851L9.88761 31.067H9.90237ZM10.0352 30.6685L10.2566 30.8161C10.3894 30.4619 10.537 30.2996 10.2861 30.152L10.0352 30.6685ZM29.6793 26.6393C29.694 26.8165 29.7531 26.9788 29.7531 27.0378C30.004 26.8017 30.1073 26.1375 29.7826 26.0342C29.694 26.1523 29.6793 26.3884 29.6793 26.6246V26.6393ZM30.9633 22.6692H30.9338C30.5353 23.4072 29.9892 24.3665 30.1073 25.4144C30.1368 25.621 30.1811 25.7833 30.2401 25.99H30.2696L30.9781 22.6692H30.9633ZM31.3028 20.7063L31.0519 21.7984C31.3913 21.4885 31.6717 21.1048 31.5389 20.9572L31.3028 20.7063ZM31.716 20.4259L32.0112 19.3189C31.5389 19.378 31.5537 19.8207 31.347 20.4554L31.716 20.4111V20.4259ZM32.4244 22.1084L32.0555 22.1526C32.1588 21.8722 32.4687 21.4885 32.6311 21.3999L32.4392 22.1084H32.4244Z" fill="white"/>
<path d="M54.8138 24.1007C55.0056 24.4254 54.799 24.8239 54.43 24.8534L54.1644 24.4254C53.8987 24.514 53.7068 24.6616 53.9282 25.0306C53.5592 25.0601 52.9541 25.4143 52.9836 25.7833C53.0279 26.2998 52.4228 26.167 52.0243 26.2998C51.6701 26.6983 51.4044 27.1706 51.0355 27.7462L50.637 27.4362C49.7957 28.0561 50.2975 28.3956 49.412 28.8974C48.8807 29.2073 48.2313 29.2221 47.6262 29.4139C47.5376 29.5173 47.9509 29.6353 47.9214 29.7682L47.3162 30.0191L46.3126 29.5173C45.7961 29.901 46.2536 30.6537 45.6042 30.9489C44.8072 31.2883 44.1726 31.5687 43.2428 31.9525C42.6229 31.4211 41.944 31.672 41.5012 32.0853C40.2467 31.4211 38.697 30.4028 37.7525 29.7239C36.8817 29.1335 36.4832 27.4805 36.3651 25.8423C35.7453 17.5478 45.6928 11.4229 48.246 11.231C49.2349 11.1572 49.7662 11.7328 50.8731 12.4707C50.9912 14.0352 52.7623 15.1716 54.2234 16.0276C55.6255 16.8098 56.1863 18.4924 56.3339 20.3372C56.4225 21.4589 55.9502 23.0381 54.799 24.1303L54.8138 24.1007ZM50.6075 17.3707C50.4894 17.0755 50.4008 16.8689 50.268 17.0165C50.1499 17.1641 50.0171 17.2379 49.9138 17.2526C49.6777 17.2674 49.5153 17.0017 49.4858 17.0165C47.6705 17.1493 44.6892 19.4664 43.4346 21.8279C41.8554 22.7429 40.8666 24.7649 40.3058 27.1706C41.088 27.0378 42.1063 26.9049 42.6967 26.6098L48.6445 23.5989C49.3087 23.2742 50.7255 22.4477 51.3011 21.577L52.6885 19.4517L50.6075 17.3707ZM42.431 21.8279C41.8997 21.5622 41.3241 22.0788 41.2799 22.4625C41.2799 22.6691 41.4127 22.8315 41.7226 22.8462L42.431 21.8279ZM43.2723 31.3031C43.1247 31.1112 42.8738 30.9489 42.6377 30.9784C42.5048 31.0227 42.372 31.0669 42.2392 31.2145L43.2723 31.3031ZM47.5524 28.5874C47.5524 28.6908 47.4343 28.9417 47.5081 29.0007C47.6557 29.0892 47.9214 28.9712 48.0837 28.8826C48.0689 28.6465 47.8918 28.5579 47.5524 28.5727V28.5874ZM49.3234 27.451C48.7331 27.8052 48.5117 27.9971 48.5707 28.3661L49.5153 27.7757L49.3234 27.451ZM50.2237 26.5655L49.7219 27.1853L49.8843 27.5543L50.5337 27.0968C50.4304 26.9935 50.3271 26.6245 50.2237 26.5655Z" fill="white"/>
<path d="M81.6014 9.50441C81.7933 9.35682 82.0442 9.38633 82.0885 9.54868C80.4503 11.0246 79.3876 13.9616 77.6313 15.2161C76.2145 15.1128 76.6867 16.8101 76.0669 16.8691C75.5946 16.8986 75.388 17.5923 75.0633 18.0793C72.5838 21.9757 67.8757 26.8166 64.3188 31.0967L62.164 30.4768C61.5294 29.4732 60.4962 28.5729 60.3929 27.1708C60.2306 25.2226 60.3044 13.9911 60.3486 11.9691C60.3486 11.1869 59.5369 9.88814 60.2896 9.22399C62.9757 10.1538 64.186 12.6333 64.4664 15.4965C64.1122 16.6772 64.8796 17.5332 64.8206 18.5221L64.4516 18.6106C64.3335 19.6733 64.1417 20.7507 63.8908 21.7543L64.5107 23.2302C67.7429 19.9832 70.3552 16.5149 72.9085 12.7218C74.3548 12.7218 73.9121 11.4083 75.6536 11.4969L76.9229 9.99145C77.1738 9.66675 77.6903 9.71103 77.8527 10.021C77.4985 10.5523 76.1111 12.2348 74.7976 13.5336C74.6648 13.6812 74.8714 13.7697 75.1518 13.6517C76.4063 12.53 78.443 10.1686 78.8563 9.53392C79.2991 9.53392 79.668 8.60411 80.3027 9.09116C79.9484 9.41585 79.3138 10.021 79.4466 10.6113C79.7713 10.1833 80.2584 9.60772 80.5978 9.69627L80.7012 9.72579C80.2141 10.3309 79.4171 11.4969 78.9153 12.4119L79.1662 12.4709C79.7418 11.6887 80.6421 10.4195 81.631 9.50441H81.6014ZM63.2414 20.8688C63.2266 21.1492 63.3299 21.4148 63.5808 21.4001L63.6251 20.854H63.2561L63.2414 20.8688ZM63.389 19.8651L63.2857 20.485L63.6694 20.6031C63.6694 20.2932 63.9055 19.8356 63.389 19.8651ZM73.5578 18.7582L73.7792 19.1567C74.3253 18.5073 74.281 18.1088 74.0301 17.976L73.5578 18.7582ZM75.0042 16.2935C75.2256 16.4558 75.4322 16.4854 75.5651 16.4706C75.9045 16.4116 76.0964 16.0278 76.1111 15.5851L75.019 16.2935H75.0042ZM77.3361 16.1754L77.0114 15.9098C77.1295 15.5556 77.3656 15.4522 77.5723 15.5703L77.3214 16.1607L77.3361 16.1754ZM78.5168 12.899L77.8379 13.6517C77.4394 13.873 77.6018 14.3896 78.0298 14.0206C78.4873 13.6221 78.7677 13.1351 78.8711 12.9137C78.6644 13.0318 78.5611 12.8252 78.5316 12.899H78.5168ZM80.893 8.85501C80.9816 8.70743 81.1587 8.60411 81.2915 8.58936C81.3948 8.58936 81.4981 8.61887 81.6162 8.78122C81.4539 8.88453 81.2915 9.03212 80.9668 9.43061C80.893 9.3273 80.7602 9.34206 80.6274 9.34206C80.6864 9.20923 80.7897 9.03212 80.9078 8.85501H80.893Z" fill="white"/>
<path d="M96.065 13.1055C92.9952 14.5814 89.8073 14.7733 86.826 15.7031C86.457 16.323 85.9995 17.1347 85.4534 18.0645C86.8112 17.8874 89.6302 16.6624 90.619 16.6329C91.6078 16.6034 91.9325 16.9429 92.6705 18.1531C92.5377 18.5368 92.7295 18.8763 93.069 19.0386L92.8476 19.7913C90.7666 20.1898 85.6895 21.1344 84.007 21.9314C83.1215 22.3298 82.4426 26.1081 82.4278 26.9051C83.5052 27.6578 85.0992 27.2741 86.088 27.0084L86.3094 27.3479C86.5456 27.3479 86.8555 27.1265 86.8407 26.9199C87.3573 26.8461 87.5491 27.6578 88.0214 27.5102C90.2353 26.8313 92.8328 25.8867 94.5301 25.2964C94.6334 25.2669 94.7662 25.2226 94.8105 25.3259C94.8843 25.4882 94.3825 25.7539 94.1021 25.8867L91.7997 26.8018C92.0063 26.9346 92.3901 27.1708 92.6262 27.2888C92.7295 27.3183 92.6705 27.3921 92.5672 27.4217C90.8699 28.0415 88.7594 28.6909 86.8555 29.2075C87.372 29.4289 88.1247 29.4141 88.7741 29.2222C90.132 28.809 91.9916 28.1153 93.6593 27.4955C93.7626 27.4659 93.9988 27.3479 93.8364 27.7021C93.6446 28.0415 93.3789 28.2924 92.9066 28.4843C90.7076 29.3994 87.8591 30.4915 85.7781 30.5505C81.7784 30.6539 78.8857 28.9123 78.9004 23.9238C78.9004 21.3853 80.9076 18.2269 83.2691 12.9284C83.0772 12.0724 83.092 11.2607 83.6823 10.3161C85.3944 10.4785 86.3242 7.82186 87.5196 7.79234C88.169 7.77758 89.9991 8.23511 90.4419 8.36794C90.5009 9.12064 90.3386 9.90286 89.8958 10.8474C90.4862 10.9655 92.1244 11.0983 92.8771 11.0836L93.2018 11.7182C93.3789 11.7182 93.6741 11.4968 94.0431 11.4968C94.412 11.4968 95.2533 11.8068 95.7256 11.8658C95.7994 11.8658 95.8584 11.9248 95.7994 11.9986C94.4563 13.2679 93.4822 12.5447 93.7479 13.5631C94.7663 13.1203 95.6075 12.8694 96.5521 12.3971C96.6849 12.3233 96.8915 12.0872 96.921 12.279C96.9948 12.6185 96.3897 12.8399 96.0503 13.1203L96.065 13.1055ZM81.9113 25.4145C81.7932 26.0343 81.7637 26.4771 82.0441 26.6837L82.1917 25.7539L81.9113 25.4145ZM82.4131 23.4515L82.0736 24.7208L82.3245 25.016L82.7525 23.3925L82.4131 23.4368V23.4515ZM82.4721 23.2006H82.5016C82.6935 22.9202 82.9591 22.6398 83.092 22.3003C82.6492 22.2708 82.5164 22.4774 82.4573 22.8316V23.2006H82.4721ZM84.2874 18.1974L84.7302 18.1236L85.0549 17.3266C84.8188 17.3266 84.376 17.8284 84.2874 18.1974ZM85.8076 15.8655L85.2468 16.8395L85.6895 16.7215L86.2504 15.7474L85.8076 15.8655ZM90.5157 26.0048C89.5711 26.7428 88.3904 27.2593 87.9624 26.6247C89.5268 26.241 91.0913 25.6949 92.3458 25.1488C92.4786 25.075 92.5229 25.1783 92.4491 25.2816C92.0506 25.7687 91.1651 26.0343 90.5157 26.0196V26.0048ZM93.3789 12.1167L93.497 12.5299L94.1021 12.2348C94.0578 12.0724 93.5855 12.0429 93.3789 12.1167Z" fill="white"/>
<path d="M128.83 10.0065C129.213 9.77035 129.892 9.608 130.615 9.57848C131.84 9.56373 132.8 9.74083 133.375 10.1688L132.682 10.6411L132.741 10.774C132.977 10.774 133.626 10.5821 133.833 10.4493L134.777 11.4824C132.992 12.2794 129.774 14.6113 128.003 16.9727C127.797 17.2383 127.664 16.8251 127.457 16.9727C127.369 18.1977 126.645 18.8471 125.804 20.1311C125.627 20.441 125.686 20.8838 125.479 21.3561C125.479 21.5627 124.963 21.7546 124.86 22.0645C123.974 24.6916 122.778 27.4072 121.642 30.2114L120.107 29.4735L119.901 29.9458C117.716 29.3406 117.524 28.4699 117.244 26.1822C117.155 25.2967 117.451 23.7618 117.214 22.9943C116.417 20.5886 117.214 19.5703 117.037 17.8287L116.89 16.5004C115.827 16.8251 114.617 17.8435 113.702 19.4374L113.79 19.9835C112.034 23.1862 110.44 27.6138 108.876 29.6358H107.916C106.927 29.6063 106.411 27.3039 105.998 27.0973L105.806 25.5919C105.643 24.5292 105.953 24.1603 106.204 23.5109C108.713 17.6516 112.654 14.139 115.399 11.4086C116.417 11.7923 119.207 13.5781 119.664 14.8474C120.063 15.8805 120.447 18.0353 120.771 19.4522C123.147 15.4378 126.631 10.4493 127.383 10.1836L128.106 10.095C125.952 12.1613 124.417 14.5965 123.59 15.792C123.28 16.2938 123.133 16.5004 123.207 16.5447L123.413 16.6775C124.432 15.1573 126.763 11.9251 128.8 10.0065H128.83ZM115.251 12.2351L114.484 13.0173C114.897 13.3568 115.281 12.6779 115.517 12.4417L115.251 12.2351ZM125.317 23.2452L125.007 23.0386C125.051 22.5663 125.096 21.9169 125.494 22.0793L125.302 23.2452H125.317ZM128.121 15.3345C127.841 15.7477 127.28 16.4561 127.619 16.6332L128.357 15.5411C128.431 15.4378 128.195 15.2311 128.121 15.3345ZM127.988 11.7038L128.579 10.9511L128.313 10.8035C128.136 10.9363 127.929 11.1724 127.723 11.5119C127.752 11.5857 127.856 11.7185 127.988 11.689V11.7038ZM129.022 14.1537L128.328 15.0393C128.534 15.0098 128.608 15.0835 128.638 15.2164L129.258 14.3308C129.258 14.3308 129.199 13.9471 129.022 14.1537ZM131.649 11.3348L131.708 11.6447C132.047 11.4086 132.357 11.3791 132.298 10.8625L131.634 11.3348H131.649Z" fill="white"/>
<path d="M150.805 23.5546C150.968 23.9088 150.702 24.263 150.333 24.2483L150.112 23.7907C149.831 23.8498 149.624 23.9679 149.816 24.3516C149.447 24.3368 148.813 24.6172 148.798 24.9862C148.783 25.5028 148.208 25.2962 147.794 25.3847C147.396 25.7389 147.071 26.1817 146.643 26.6982L146.289 26.344C145.374 26.8458 145.831 27.2443 144.902 27.6576C144.341 27.9085 143.691 27.8494 143.072 27.9528C142.968 28.0561 143.367 28.2037 143.322 28.3365L142.703 28.5136L141.773 27.8937C141.212 28.2037 141.581 29.0154 140.887 29.222C140.061 29.4582 139.397 29.6648 138.422 29.9304C137.862 29.3253 137.168 29.5024 136.681 29.8566C135.515 29.0449 134.098 27.8642 133.242 27.0672C132.445 26.3883 132.253 24.691 132.327 23.0528C132.696 14.7436 143.278 9.8436 145.846 9.94691C146.835 9.99119 147.293 10.6258 148.311 11.4966C148.237 13.0758 149.861 14.4041 151.218 15.4225C152.517 16.367 152.886 18.0938 152.798 19.9387C152.753 21.0604 152.104 22.5805 150.82 23.5103L150.805 23.5546ZM147.425 16.3818C147.337 16.0719 147.278 15.8652 147.13 15.9981C146.983 16.1309 146.85 16.1899 146.746 16.1899C146.51 16.1899 146.378 15.8947 146.348 15.8947C144.533 15.821 141.3 17.7544 139.766 19.9534C138.083 20.6619 136.873 22.5658 136.017 24.8829C136.814 24.8534 137.832 24.8239 138.467 24.6172L144.739 22.3296C145.433 22.0935 146.938 21.4293 147.617 20.6471L149.241 18.6989L147.425 16.3965V16.3818ZM138.511 29.3401C138.378 29.1335 138.157 28.9416 137.906 28.9416C137.773 28.9711 137.626 29.0006 137.478 29.1335L138.496 29.3549L138.511 29.3401ZM138.791 19.8354C138.29 19.5107 137.655 19.9534 137.566 20.3224C137.566 20.529 137.655 20.7061 137.95 20.7504L138.777 19.8354H138.791ZM143.086 27.141C143.086 27.2443 142.939 27.4805 142.998 27.5543C143.131 27.6576 143.411 27.569 143.588 27.51C143.588 27.2738 143.426 27.1558 143.086 27.141ZM144.975 26.2407C144.341 26.5211 144.105 26.6835 144.119 27.0525L145.138 26.5802L144.975 26.226V26.2407ZM145.964 25.4585L145.389 26.0193L145.507 26.4031L146.215 26.0193C146.112 25.916 146.068 25.5323 145.964 25.4585Z" fill="white"/>
<path d="M184.929 17.3558C183.098 18.7874 180.088 21.4145 178.759 22.4624L178.287 21.9753C178.508 23.3922 177.21 24.2482 176.206 25.5027C175.881 25.2961 176.295 24.8976 176.605 24.4696C176.25 24.1596 175.822 24.7205 175.409 25.2666C174.981 25.8126 174.671 26.1964 174.907 26.6687C173.299 28.1741 170.17 31.9966 168.945 31.8933C168.472 31.849 168.354 30.3731 167.69 29.6942L167.469 29.9156L166.628 28.4397C166.244 27.7608 165.772 25.547 165.093 24.6319C163.174 26.5949 159.794 31.2587 159.351 31.2292C158.982 31.1996 158.274 29.8271 157.964 29.8123C157.831 29.8123 157.728 29.8123 157.639 29.9599C156.473 28.3512 156.223 25.6503 156.385 22.4771C156.547 18.9498 157.226 14.9206 157.654 11.4227L158.126 11.1128C159.661 12.0278 160.547 14.9944 160.768 16.5441C161.108 19.1121 158.51 22.9789 159.72 24.0711L165.122 17.8576L165.934 17.651L167.971 15.1125C168.399 14.5664 168.443 13.2233 169.092 13.2823C169.801 13.3414 170.657 14.3007 170.849 15.2453L171.454 18.2413C170.125 19.7467 169.255 21.9753 167.941 23.2741C168.65 23.4069 169.078 24.3958 169.624 24.4401C170.539 24.5139 178.42 14.1531 182.183 13.9317C182.567 13.9022 183.29 13.8875 183.733 13.9317C183.394 14.2122 183.098 14.5369 183.497 14.6992L185.135 13.6366C185.371 13.6956 185.681 14.0203 185.77 14.345L187.187 14.6992C186.98 15.0239 186.582 15.4371 186.109 15.7028L186.375 15.8209C187.098 15.8799 188.117 14.286 188.795 15.2305C187.6 16.057 186.404 17.4739 184.988 17.3115L184.929 17.3558ZM166.539 17.6362L166.923 17.5919C167.306 17.1787 167.72 16.6621 167.543 16.3079L166.539 17.6362ZM177.106 23.3922L176.619 23.9678L176.811 24.1892L177.269 23.5693L177.106 23.3922ZM177.313 23.038L177.505 23.2889C177.741 22.9937 177.889 22.8461 177.667 22.61L177.328 23.0232L177.313 23.038ZM180.191 20.6323C179.246 20.0419 178.966 21.2521 178.863 21.6506H178.892L180.176 20.6323H180.191ZM182.626 17.7838L182.67 18.138C183.659 17.5034 184.515 17.0901 184.633 16.485L182.641 17.7986L182.626 17.7838ZM184.87 16.3522L184.914 16.6621C185.268 16.4555 185.578 16.4408 185.593 15.9242L184.87 16.3522Z" fill="white"/>
</svg>
