<svg width="92" height="94" viewBox="0 0 92 94" fill="none" xmlns="http://www.w3.org/2000/svg">
<g clip-path="url(#clip0_2797_52345)">
<path d="M63.7082 31.4298L63.9925 31.951H64.5862H88.4827H89.7765L89.4505 30.699C87.0336 21.4185 82.0541 14.1217 74.5171 8.85984C67.0687 3.60097 57.9225 1 47.1379 1C38.2216 1 30.2529 2.96426 23.2591 6.91737C16.2692 10.7843 10.7849 16.2462 6.81843 23.2853L6.81641 23.2889C2.93049 30.2525 1 38.1861 1 47.0629C1 55.9397 2.93049 63.8734 6.81637 70.837L6.82104 70.8451C10.788 77.7994 16.2708 83.2575 23.255 87.2062L23.2613 87.2097L23.2677 87.2132C30.3426 91.0786 38.3498 93 47.2644 93C54.8128 93 61.6237 91.5475 67.6767 88.6206C73.6928 85.7114 78.6577 81.8923 82.5508 77.1565C86.5076 72.4456 89.3153 67.334 90.9583 61.8242L91 61.6844V61.5385V41.5245V40.5245H90H42.9655H41.9655V41.5245V57.3846V58.3846H42.9655H68.9783C67.3385 62.6052 64.9135 65.8456 61.7239 68.1551L61.7238 68.155L61.715 68.1615C58.2918 70.6977 54.0433 71.993 48.908 71.993C41.3623 71.993 35.5326 69.7965 31.2934 65.5004C27.1362 61.119 25 55.0167 25 47.0629C25 39.6172 27.0497 33.7978 31.0541 29.4922L31.0541 29.4923L31.0603 29.4855C35.0617 25.1036 40.3855 22.8881 47.1379 22.8881C51.052 22.8881 54.3799 23.6587 57.1567 25.1595L57.1715 25.1675L57.1866 25.1749C60.0403 26.5954 62.2061 28.6751 63.7082 31.4298Z" fill="#FEE049" stroke="#27043E" stroke-width="2"/>
<path d="M27.7136 11C33.5446 7.66667 40.2034 6 47.6901 6C56.7606 6 64.3912 8.21014 70.5822 12.6304C75.0847 15.8083 78.4898 19.8662 80.7971 24.8043" stroke="#27043E" stroke-width="2"/>
</g>
<defs>
<clipPath id="clip0_2797_52345">
<rect width="92" height="94" fill="white"/>
</clipPath>
</defs>
</svg>
