<svg width="94" height="94" viewBox="0 0 94 94" fill="none" xmlns="http://www.w3.org/2000/svg">
<g clip-path="url(#clip0_2797_52346)">
<path d="M23.8852 87.1139L23.8897 87.1164C30.9614 91.041 38.7128 93 47.125 93C55.5372 93 63.2489 91.041 70.2398 87.1139C77.2299 83.1871 82.7747 77.7188 86.8633 70.7244L86.866 70.7198C90.9603 63.6302 93 55.6947 93 46.9374C93 38.1819 90.9611 30.2874 86.8657 23.2796C82.8586 16.2803 77.3107 10.8109 70.2372 6.88472C63.2471 2.95852 55.5362 1 47.125 1C38.7128 1 30.9614 2.95897 23.8897 6.88362L23.8852 6.88614C16.897 10.8118 11.3125 16.2776 7.14127 23.2678L7.14123 23.2678L7.13668 23.2756C3.03968 30.2844 1 38.1802 1 46.9374C1 55.6947 3.03969 63.6302 7.13403 70.7198L7.13761 70.726L7.14127 70.7322C11.3125 77.7224 16.897 83.1882 23.8852 87.1139ZM63.1352 64.7903L63.1352 64.7903L63.1286 64.7976C59.1753 69.2315 53.8774 71.4729 47.125 71.4729C40.2832 71.4729 34.8992 69.2685 30.8651 64.9158C26.9025 60.4676 24.875 54.51 24.875 46.9374C24.875 39.2754 26.9056 33.3226 30.8622 28.9622C34.8966 24.6074 40.2815 22.4019 47.125 22.4019C53.8774 22.4019 59.1753 24.6433 63.1286 29.0772L63.1349 29.0842L63.1413 29.0911C67.1814 33.4541 69.25 39.3651 69.25 46.9374C69.25 54.4222 67.1834 60.3391 63.1352 64.7903Z" fill="#FEE049" stroke="#27043E" stroke-width="2"/>
<path d="M47.1111 7C54.4444 7 61.1481 8.70607 67.2222 12.1182C73.3703 15.5304 78.1852 20.2777 81.6666 26.3602C85.2222 32.4427 87 39.3041 87 46.9444" stroke="#27043E" stroke-width="2"/>
</g>
<defs>
<clipPath id="clip0_2797_52346">
<rect width="94" height="94" fill="white"/>
</clipPath>
</defs>
</svg>
