<svg width="606" height="74" viewBox="0 0 606 74" fill="none" xmlns="http://www.w3.org/2000/svg">
<path fill-rule="evenodd" clip-rule="evenodd" d="M37 1C17.1177 1 1 17.1178 1 37C1 56.8823 17.1178 73 37 73H569C588.882 73 605 56.8823 605 37C605 17.1178 588.882 1 569 1H37ZM37 13C23.7452 13 13 23.7452 13 37C13 50.2548 23.7452 61 37 61H569C582.255 61 593 50.2548 593 37C593 23.7452 582.255 13 569 13H37Z" fill="#E2E4BD"/>
<path d="M2 37C2 17.67 17.67 2 37 2V0C16.5655 0 0 16.5655 0 37H2ZM37 72C17.6701 72 2 56.33 2 37H0C0 57.4345 16.5655 74 37 74V72ZM569 72H37V74H569V72ZM604 37C604 56.33 588.33 72 569 72V74C589.435 74 606 57.4345 606 37H604ZM569 2C588.33 2 604 17.67 604 37H606C606 16.5655 589.435 0 569 0V2ZM37 2H569V0H37V2ZM14 37C14 24.2975 24.2975 14 37 14V12C23.1929 12 12 23.1929 12 37H14ZM37 60C24.2975 60 14 49.7025 14 37H12C12 50.8071 23.1929 62 37 62V60ZM569 60H37V62H569V60ZM592 37C592 49.7025 581.703 60 569 60V62C582.807 62 594 50.8071 594 37H592ZM569 14C581.703 14 592 24.2975 592 37H594C594 23.1929 582.807 12 569 12V14ZM37 14H569V12H37V14Z" fill="#27043E"/>
</svg>
