<svg width="90" height="60" viewBox="0 0 90 60" fill="none" xmlns="http://www.w3.org/2000/svg">
<rect x="26" y="24" width="38" height="12" rx="6" fill="#FB923C"/>
<path d="M14 6L12 6C8.68629 6 6 8.68629 6 12V48C6 51.3137 8.68629 54 12 54H78C81.3137 54 84 51.3137 84 48V12C84 8.68629 81.3137 6 78 6L36 6M22 6H28" stroke="#27043E" stroke-width="4" stroke-linecap="round" stroke-linejoin="round"/>
<path d="M12 26V34" stroke="#27043E" stroke-width="4" stroke-linecap="round"/>
<path d="M78 26V34" stroke="#27043E" stroke-width="4" stroke-linecap="round"/>
<path d="M21 26L17.7071 29.2929C17.3166 29.6834 17.3166 30.3166 17.7071 30.7071L21 34" stroke="#27043E" stroke-width="4" stroke-linecap="round"/>
<path d="M72.2929 29.2929L73.7071 27.8787L73.7071 27.8787L72.2929 29.2929ZM67.5858 27.4142C66.8047 26.6332 66.8047 25.3668 67.5858 24.5858C68.3668 23.8047 69.6332 23.8047 70.4142 24.5858L67.5858 27.4142ZM70.4142 35.4142C69.6332 36.1953 68.3668 36.1953 67.5858 35.4142C66.8047 34.6332 66.8047 33.3668 67.5858 32.5858L70.4142 35.4142ZM72.2929 30.7071L73.7071 32.1213L73.7071 32.1213L72.2929 30.7071ZM70.8787 30.7071L67.5858 27.4142L70.4142 24.5858L73.7071 27.8787L70.8787 30.7071ZM67.5858 32.5858L70.8787 29.2929L73.7071 32.1213L70.4142 35.4142L67.5858 32.5858ZM73.7071 27.8787C74.8787 29.0503 74.8787 30.9497 73.7071 32.1213L70.8787 29.2929C70.4882 29.6834 70.4882 30.3166 70.8787 30.7071L73.7071 27.8787Z" fill="#27043E"/>
</svg>
