<svg width="46" height="60" viewBox="0 0 46 60" fill="none" xmlns="http://www.w3.org/2000/svg">
<rect x="4" y="22" width="38" height="12" fill="#FFF2F3"/>
<path d="M35 51V60H11V51C11 47.6863 13.6863 45 17 45H29C32.3137 45 35 47.6863 35 51Z" fill="#FFF2F3"/>
<path d="M38 36V30H8V36C8 40.9706 12.0294 45 17 45H29C33.9706 45 38 40.9706 38 36Z" fill="#FFF2F3"/>
<path d="M8 30V36C8 40.9706 12.0294 45 17 45H29C33.9706 45 38 40.9706 38 36V30" stroke="#0E0E0F" stroke-width="4"/>
<path d="M29 51V60H11V51C11 47.6863 13.6863 45 17 45H23C26.3137 45 29 47.6863 29 51Z" fill="#FED7AA"/>
<path d="M11 60V51C11 47.6863 13.6863 45 17 45H29C32.3137 45 35 47.6863 35 51V60" stroke="#0E0E0F" stroke-width="4"/>
<path d="M24 30V22C24 19.7909 22.2091 18 20 18C17.7909 18 16 19.7909 16 22V30H24Z" fill="#FFF2F3"/>
<path d="M31 30V21.5C31 19.567 29.433 18 27.5 18C25.567 18 24 19.567 24 21.5V30H31Z" fill="#FFF2F3"/>
<path d="M38 30V24.5C38 22.567 36.433 21 34.5 21C32.567 21 31 22.567 31 24.5V30H38Z" fill="#FFF2F3"/>
<path d="M16 30V7C16 4.79086 14.2091 3 12 3C9.79086 3 8 4.79086 8 7V30H16Z" fill="#FFF2F3"/>
<path d="M24 30V22C24 19.7909 22.2091 18 20 18V18C17.7909 18 16 19.7909 16 22V30" stroke="#0E0E0F" stroke-width="4"/>
<path d="M31 30V21.5C31 19.567 29.433 18 27.5 18V18C25.567 18 24 19.567 24 21.5V30" stroke="#0E0E0F" stroke-width="4"/>
<path d="M38 30V24.5C38 22.567 36.433 21 34.5 21V21C32.567 21 31 22.567 31 24.5V30" stroke="#0E0E0F" stroke-width="4"/>
<path d="M16 30V7C16 4.79086 14.2091 3 12 3V3C9.79086 3 8 4.79086 8 7V30" stroke="#0E0E0F" stroke-width="4"/>
<path d="M46 24V24C43.7909 24 42 25.7909 42 28V28C42 30.2091 43.7909 32 46 32V32" stroke="#FFF2F3" stroke-width="4"/>
<path d="M0 24V24C2.20914 24 4 25.7909 4 28V28C4 30.2091 2.20914 32 0 32V32" stroke="#FFF2F3" stroke-width="4"/>
</svg>
