<svg width="1280" height="450" viewBox="0 0 1280 450" fill="none" xmlns="http://www.w3.org/2000/svg">
<path d="M25 171H89V289H55V271L25 241V171Z" fill="#E2E4BD" stroke="#27043E" stroke-width="2"/>
<path d="M83 191V223" stroke="#27043E" stroke-width="2" stroke-linecap="round"/>
<path d="M83 229V236" stroke="#27043E" stroke-width="2" stroke-linecap="round"/>
<rect x="61" y="280" width="8" height="4" fill="#FCFDF8" stroke="#27043E" stroke-width="2"/>
<rect x="75" y="280" width="8" height="4" fill="#FCFDF8" stroke="#27043E" stroke-width="2"/>
<path d="M40 211V236" stroke="#27043E" stroke-width="10"/>
<path d="M61.6506 248.5L40 236" stroke="#27043E" stroke-width="10"/>
<path d="M18.3494 248.5L40 236" stroke="#27043E" stroke-width="10"/>
<path d="M40 211V236" stroke="#FCFDF8" stroke-width="6"/>
<path d="M61.6506 248.5L40 236" stroke="#FCFDF8" stroke-width="6"/>
<path d="M18.3494 248.5L40 236" stroke="#FCFDF8" stroke-width="6"/>
<path fill-rule="evenodd" clip-rule="evenodd" d="M40 266C56.5685 266 70 252.569 70 236C70 219.431 56.5685 206 40 206C23.4315 206 10 219.431 10 236C10 252.569 23.4315 266 40 266ZM40 258C52.1503 258 62 248.15 62 236C62 223.85 52.1503 214 40 214C27.8497 214 18 223.85 18 236C18 248.15 27.8497 258 40 258Z" fill="#FCFDF8"/>
<path d="M69 236C69 252.016 56.0163 265 40 265V267C57.1208 267 71 253.121 71 236H69ZM40 207C56.0163 207 69 219.984 69 236H71C71 218.879 57.1208 205 40 205V207ZM11 236C11 219.984 23.9837 207 40 207V205C22.8792 205 9 218.879 9 236H11ZM40 265C23.9837 265 11 252.016 11 236H9C9 253.121 22.8792 267 40 267V265ZM61 236C61 247.598 51.598 257 40 257V259C52.7025 259 63 248.703 63 236H61ZM40 215C51.598 215 61 224.402 61 236H63C63 223.297 52.7025 213 40 213V215ZM19 236C19 224.402 28.402 215 40 215V213C27.2975 213 17 223.297 17 236H19ZM40 257C28.402 257 19 247.598 19 236H17C17 248.703 27.2975 259 40 259V257Z" fill="#27043E"/>
<circle cx="40" cy="236" r="8" fill="#FCFDF8" stroke="#27043E" stroke-width="2"/>
<path d="M45 236C45 233.239 42.7614 231 40 231" stroke="#27043E" stroke-width="2" stroke-linecap="round"/>
<path d="M64.4388 227.106C63.1809 223.643 61.1631 220.393 58.3856 217.616C55.6081 214.838 52.3585 212.82 48.8951 211.562" stroke="#27043E" stroke-width="2" stroke-linecap="round"/>
<rect x="43" y="177" width="40" height="8" rx="4" fill="#FCFDF8" stroke="#27043E" stroke-width="2"/>
<path d="M43 181C43 178.791 44.7909 177 47 177H67V185H47C44.7909 185 43 183.209 43 181V181Z" fill="#9F9FAB"/>
<path d="M51 177H59V185H51V177Z" stroke="#27043E" stroke-width="2"/>
<path d="M59 177H67V185H59V177Z" stroke="#27043E" stroke-width="2"/>
<path d="M67 177H75V185H67V177Z" stroke="#27043E" stroke-width="2"/>
<rect x="43" y="177" width="40" height="8" rx="4" stroke="#27043E" stroke-width="2"/>
<rect x="63" y="289" width="18" height="38" fill="#FCFEE8" stroke="#27043E" stroke-width="2"/>
<path d="M77 296V314" stroke="#27043E" stroke-width="2"/>
<rect x="60" y="289" width="24" height="4" fill="#FCFEE8" stroke="#27043E" stroke-width="2"/>
<rect x="60" y="327" width="24" height="4" fill="#FCFEE8" stroke="#27043E" stroke-width="2"/>
<rect x="1214" y="289" width="18" height="38" fill="#FCFEE8" stroke="#27043E" stroke-width="2"/>
<path d="M1228 296V314" stroke="#27043E" stroke-width="2"/>
<rect x="1211" y="289" width="24" height="4" fill="#FCFEE8" stroke="#27043E" stroke-width="2"/>
<rect x="1211" y="327" width="24" height="4" fill="#FCFEE8" stroke="#27043E" stroke-width="2"/>
<circle cx="20" cy="409" r="11" fill="#FCFEE8" stroke="#27043E" stroke-width="2"/>
<rect x="20" y="394" width="8" height="30" fill="#C4D2F5" stroke="#27043E" stroke-width="2"/>
<circle cx="10.4999" cy="394.275" r="2" transform="rotate(-30 10.4999 394.275)" fill="#27043E"/>
<circle cx="4.27746" cy="400.497" r="2" transform="rotate(-60 4.27746 400.497)" fill="#27043E"/>
<circle cx="2" cy="408.997" r="2" transform="rotate(-90 2 408.997)" fill="#27043E"/>
<circle cx="4.27746" cy="417.497" r="2" transform="rotate(-120 4.27746 417.497)" fill="#27043E"/>
<circle cx="10.4999" cy="423.72" r="2" transform="rotate(-150 10.4999 423.72)" fill="#27043E"/>
<path d="M44.0002 449H89.0002V331H55.0002L44.0002 369H28.0002V449H44.0002Z" fill="#C6E1EF" stroke="#27043E" stroke-width="2"/>
<rect width="8" height="5" transform="matrix(1 0 0 -1 67.0002 342)" fill="#FCFDF8" stroke="#27043E" stroke-width="2"/>
<rect width="8" height="5" transform="matrix(1 0 0 -1 75.0002 342)" fill="#FCFDF8" stroke="#27043E" stroke-width="2"/>
<rect width="8" height="2" transform="matrix(1 0 0 -1 75.0002 342)" fill="#27043E"/>
<rect width="8" height="3" transform="matrix(1 0 0 -1 67.0002 342)" fill="#27043E"/>
<rect x="53" y="397" width="30" height="46" rx="2" fill="white" stroke="#27043E" stroke-width="2"/>
<rect x="56.0002" y="408" width="8" height="8" fill="#27043E" stroke="#27043E"/>
<rect x="56.0002" y="424" width="8" height="8" fill="#27043E" stroke="#27043E"/>
<rect x="72.0002" y="408" width="8" height="8" fill="#27043E" stroke="#27043E"/>
<rect x="72.0002" y="424" width="8" height="8" fill="#27043E" stroke="#27043E"/>
<rect x="64.0002" y="400" width="8" height="8" fill="#27043E" stroke="#27043E"/>
<rect x="64.0002" y="416" width="8" height="8" fill="#27043E" stroke="#27043E"/>
<rect x="64.0002" y="432" width="8" height="8" fill="#27043E" stroke="#27043E"/>
<rect x="56.0002" y="400" width="8" height="8" fill="white" stroke="#27043E"/>
<rect x="56.0002" y="416" width="8" height="8" fill="white" stroke="#27043E"/>
<rect x="56.0002" y="432" width="8" height="8" fill="white" stroke="#27043E"/>
<rect x="64.0002" y="408" width="8" height="8" fill="white" stroke="#27043E"/>
<rect x="64.0002" y="424" width="8" height="8" fill="white" stroke="#27043E"/>
<rect x="72.0002" y="400" width="8" height="8" fill="white" stroke="#27043E"/>
<rect x="72.0002" y="416" width="8" height="8" fill="white" stroke="#27043E"/>
<rect x="72.0002" y="432" width="8" height="8" fill="white" stroke="#27043E"/>
<circle cx="44" cy="437" r="3" fill="#50AEDF" stroke="#27043E" stroke-width="2"/>
<circle cx="44" cy="425" r="3" fill="#FBE33F" stroke="#27043E" stroke-width="2"/>
<path d="M24 337H56V365L44 377H24V337Z" fill="#C7CFFD" stroke="#27043E" stroke-width="2"/>
<circle cx="30.5" cy="343.5" r="2.5" fill="white" stroke="#27043E" stroke-width="2"/>
<circle cx="30.5" cy="370.5" r="2.5" fill="white" stroke="#27043E" stroke-width="2"/>
<circle cx="49.5" cy="343.5" r="2.5" fill="white" stroke="#27043E" stroke-width="2"/>
<rect x="28" y="351" width="24" height="12" fill="white" stroke="#27043E"/>
<path d="M28 351H40L29 363H28V351Z" fill="#27043E" stroke="#27043E"/>
<path d="M52 351H51L40 363H52V351Z" fill="#27043E" stroke="#27043E"/>
<rect x="32" y="355" width="16" height="4" fill="white" stroke="#27043E"/>
<path d="M77 121L82 126L77 131" stroke="#27043E" stroke-width="3" stroke-linecap="round" stroke-linejoin="round"/>
<path d="M88 121L93 126L88 131" stroke="#27043E" stroke-width="3" stroke-linecap="round" stroke-linejoin="round"/>
<path d="M99 121L104 126L99 131" stroke="#27043E" stroke-width="3" stroke-linecap="round" stroke-linejoin="round"/>
<path d="M1203 121L1198 126L1193 121" stroke="#27043E" stroke-width="3" stroke-linecap="round" stroke-linejoin="round"/>
<path d="M1203 132L1198 137L1193 132" stroke="#27043E" stroke-width="3" stroke-linecap="round" stroke-linejoin="round"/>
<path d="M57 171V104.714C57 97.1401 62.3726 91 69 91H1211C1217.63 91 1223 97.1401 1223 104.714V171" stroke="#27043E" stroke-width="12"/>
<path d="M57 171V104.714C57 97.1401 62.3726 91 69 91H1211C1217.63 91 1223 97.1401 1223 104.714V171" stroke="#FEE049" stroke-width="8"/>
<path d="M1235 162L1232 159H1214L1211 162V171H1235V162Z" fill="#FEE049" stroke="#27043E" stroke-width="2"/>
<path d="M45 162L48 159H66L69 162V171H45V162Z" fill="#FEE049" stroke="#27043E" stroke-width="2"/>
<rect x="593" y="74" width="94" height="34" fill="#C6CFFA" stroke="#412732" stroke-width="2" stroke-linejoin="round"/>
<path d="M593 74L585 80V102L593 108V74Z" fill="#C6CFFA" stroke="#412732" stroke-width="2" stroke-linejoin="round"/>
<path d="M687 74L695 80V102L687 108V74Z" fill="#C6CFFA" stroke="#412732" stroke-width="2" stroke-linejoin="round"/>
<rect x="579" y="80" width="6" height="22" fill="#C6CFFA" stroke="#412732" stroke-width="2"/>
<rect width="6" height="22" transform="matrix(-1 0 0 1 701 80)" fill="#C6CFFA" stroke="#412732" stroke-width="2"/>
<rect x="593" y="74" width="94" height="28" fill="#FEE049" stroke="#412732" stroke-width="2" stroke-linejoin="round"/>
<path d="M593 74L585 80V96L593 102V74Z" fill="#C6CFFA" stroke="#412732" stroke-width="2" stroke-linejoin="round"/>
<path d="M687 74L695 80V96L687 102V74Z" fill="#C6CFFA" stroke="#412732" stroke-width="2" stroke-linejoin="round"/>
<path d="M610.904 94H605.864C604.531 94 603.539 93.7333 602.888 93.2C602.248 92.6667 601.928 91.8453 601.928 90.736V85.744C601.928 84.6347 602.248 83.8133 602.888 83.28C603.539 82.7467 604.531 82.48 605.864 82.48H609.864C610.067 82.48 610.211 82.528 610.296 82.624C610.392 82.7093 610.44 82.8533 610.44 83.056V84.992C610.44 85.1947 610.392 85.344 610.296 85.44C610.211 85.5253 610.067 85.568 609.864 85.568H606.536C606.205 85.568 605.96 85.6373 605.8 85.776C605.64 85.904 605.56 86.1013 605.56 86.368V90.192C605.56 90.4587 605.619 90.656 605.736 90.784C605.864 90.912 606.051 90.976 606.296 90.976H607.848V88.48C607.848 88.2773 607.891 88.1333 607.976 88.048C608.072 87.952 608.221 87.904 608.424 87.904H610.904C611.107 87.904 611.251 87.952 611.336 88.048C611.432 88.1333 611.48 88.2773 611.48 88.48V93.424C611.48 93.6267 611.432 93.776 611.336 93.872C611.251 93.9573 611.107 94 610.904 94ZM617.048 85.36V87.408H618.248C618.525 87.408 618.712 87.3387 618.808 87.2C618.904 87.0507 618.952 86.8693 618.952 86.656V86.112C618.952 85.8987 618.904 85.7227 618.808 85.584C618.712 85.4347 618.525 85.36 618.248 85.36H617.048ZM616.472 94H614.008C613.805 94 613.656 93.9573 613.56 93.872C613.475 93.776 613.432 93.6267 613.432 93.424V83.056C613.432 82.8533 613.475 82.7093 613.56 82.624C613.656 82.528 613.805 82.48 614.008 82.48H619.336C620.531 82.48 621.352 82.7307 621.8 83.232C622.259 83.7227 622.488 84.3627 622.488 85.152V85.888C622.488 86.336 622.419 86.72 622.28 87.04C622.152 87.3493 621.923 87.5733 621.592 87.712C622.168 87.776 622.632 88.0107 622.984 88.416C623.347 88.8213 623.528 89.36 623.528 90.032V93.424C623.528 93.6267 623.48 93.776 623.384 93.872C623.299 93.9573 623.155 94 622.952 94H620.472C620.269 94 620.12 93.9573 620.024 93.872C619.939 93.776 619.896 93.6267 619.896 93.424V90.976C619.896 90.7413 619.848 90.5707 619.752 90.464C619.667 90.3467 619.512 90.288 619.288 90.288H617.048V93.424C617.048 93.6267 617 93.776 616.904 93.872C616.819 93.9573 616.675 94 616.472 94ZM629.499 85.84L628.747 88.272H631.259L630.507 85.84C630.464 85.744 630.416 85.6747 630.363 85.632C630.32 85.5893 630.267 85.568 630.203 85.568H629.803C629.739 85.568 629.68 85.5893 629.627 85.632C629.584 85.6747 629.541 85.744 629.499 85.84ZM628.587 93.424C628.587 93.6267 628.539 93.776 628.443 93.872C628.357 93.9573 628.213 94 628.011 94H625.659C625.456 94 625.307 93.9573 625.211 93.872C625.125 93.776 625.083 93.6267 625.083 93.424V89.2C625.083 88.88 625.131 88.512 625.227 88.096C625.333 87.68 625.493 87.1947 625.707 86.64L627.099 83.008C627.163 82.8267 627.259 82.6933 627.387 82.608C627.525 82.5227 627.701 82.48 627.915 82.48H632.219C632.421 82.48 632.587 82.5227 632.715 82.608C632.853 82.6933 632.955 82.8267 633.019 83.008L634.411 86.64C634.624 87.1947 634.779 87.68 634.875 88.096C634.981 88.512 635.035 88.88 635.035 89.2V93.424C635.035 93.6267 634.987 93.776 634.891 93.872C634.805 93.9573 634.661 94 634.459 94H632.043C631.829 94 631.669 93.9573 631.563 93.872C631.467 93.776 631.419 93.6267 631.419 93.424V91.184H628.587V93.424ZM640.066 94H637.586C637.384 94 637.234 93.9573 637.138 93.872C637.053 93.776 637.01 93.6267 637.01 93.424V83.056C637.01 82.8533 637.053 82.7093 637.138 82.624C637.234 82.528 637.384 82.48 637.586 82.48H642.482C643.933 82.48 644.925 82.768 645.458 83.344C645.992 83.92 646.258 84.672 646.258 85.6V87.648C646.258 88.576 645.992 89.328 645.458 89.904C644.925 90.48 643.933 90.768 642.482 90.768H640.642V93.424C640.642 93.6267 640.594 93.776 640.498 93.872C640.413 93.9573 640.269 94 640.066 94ZM640.61 85.472V87.888H642.05C642.36 87.888 642.562 87.808 642.658 87.648C642.754 87.488 642.802 87.3067 642.802 87.104V86.256C642.802 86.0533 642.754 85.872 642.658 85.712C642.562 85.552 642.36 85.472 642.05 85.472H640.61ZM650.973 94H648.493C648.29 94 648.141 93.9573 648.045 93.872C647.959 93.776 647.917 93.6267 647.917 93.424V83.056C647.917 82.8533 647.959 82.7093 648.045 82.624C648.141 82.528 648.29 82.48 648.493 82.48H650.973C651.175 82.48 651.319 82.528 651.405 82.624C651.501 82.7093 651.549 82.8533 651.549 83.056V86.528H654.221V83.056C654.221 82.8533 654.263 82.7093 654.349 82.624C654.445 82.528 654.594 82.48 654.797 82.48H657.277C657.479 82.48 657.623 82.528 657.709 82.624C657.805 82.7093 657.853 82.8533 657.853 83.056V93.424C657.853 93.6267 657.805 93.776 657.709 93.872C657.623 93.9573 657.479 94 657.277 94H654.797C654.594 94 654.445 93.9573 654.349 93.872C654.263 93.776 654.221 93.6267 654.221 93.424V89.872H651.549V93.424C651.549 93.6267 651.501 93.776 651.405 93.872C651.319 93.9573 651.175 94 650.973 94ZM660.377 94C660.174 94 660.025 93.9573 659.929 93.872C659.844 93.776 659.801 93.6267 659.801 93.424V91.52C659.801 91.3173 659.844 91.1733 659.929 91.088C660.025 90.992 660.174 90.944 660.377 90.944H661.961V85.568H660.377C660.174 85.568 660.025 85.5253 659.929 85.44C659.844 85.344 659.801 85.1947 659.801 84.992V83.056C659.801 82.8533 659.844 82.7093 659.929 82.624C660.025 82.528 660.174 82.48 660.377 82.48H667.193C667.396 82.48 667.54 82.528 667.625 82.624C667.721 82.7093 667.769 82.8533 667.769 83.056V84.992C667.769 85.1947 667.721 85.344 667.625 85.44C667.54 85.5253 667.396 85.568 667.193 85.568H665.641V90.944H667.193C667.396 90.944 667.54 90.992 667.625 91.088C667.721 91.1733 667.769 91.3173 667.769 91.52V93.424C667.769 93.6267 667.721 93.776 667.625 93.872C667.54 93.9573 667.396 94 667.193 94H660.377ZM677.409 94H673.505C672.171 94 671.179 93.7333 670.529 93.2C669.889 92.6667 669.569 91.8453 669.569 90.736V85.76C669.569 84.6507 669.889 83.8293 670.529 83.296C671.179 82.752 672.171 82.48 673.505 82.48H677.409C677.611 82.48 677.755 82.528 677.841 82.624C677.937 82.7093 677.985 82.8533 677.985 83.056V84.992C677.985 85.1947 677.937 85.344 677.841 85.44C677.755 85.5253 677.611 85.568 677.409 85.568H674.193C673.862 85.568 673.617 85.6373 673.457 85.776C673.297 85.904 673.217 86.1013 673.217 86.368V90.176C673.217 90.4427 673.297 90.64 673.457 90.768C673.617 90.8853 673.862 90.944 674.193 90.944H677.409C677.611 90.944 677.755 90.992 677.841 91.088C677.937 91.1733 677.985 91.3173 677.985 91.52V93.424C677.985 93.6267 677.937 93.776 677.841 93.872C677.755 93.9573 677.611 94 677.409 94Z" fill="#412732"/>
<rect x="579" y="80" width="6" height="16" fill="#C6CFFA" stroke="#412732" stroke-width="2"/>
<rect width="6" height="16" transform="matrix(-1 0 0 1 701 80)" fill="#C6CFFA" stroke="#412732" stroke-width="2"/>
<path d="M579 97H585L593 103H687L695 97H701" stroke="#412732" stroke-width="4" stroke-linejoin="round"/>
<path d="M1249 331H1197L1191 337V449H1255V337L1249 331Z" fill="#C6E1EF" stroke="#27043E" stroke-width="2"/>
<path d="M1248 414H1198V442H1248V414Z" fill="#C6E1EF" stroke="#27043E" stroke-width="2"/>
<path d="M1242.5 414H1198V436.5L1242.5 414Z" fill="#27043E" stroke="#27043E" stroke-width="2"/>
<path d="M1244 418H1202V438H1244V418Z" fill="white" stroke="#27043E" stroke-width="2"/>
<path d="M1202 428H1219L1222 423L1225 432L1228 428H1244" stroke="#27043E" stroke-width="2" stroke-linecap="round"/>
<circle cx="1223" cy="359" r="12" fill="white" stroke="#27043E" stroke-width="2"/>
<circle cx="1223" cy="359" r="12" stroke="#27043E" stroke-width="2"/>
<circle cx="1223" cy="359" r="8" fill="white" stroke="#27043E" stroke-width="2"/>
<circle cx="1223" cy="359" r="3" fill="#27043E"/>
<path d="M1228.66 353.343L1217.34 364.656" stroke="#27043E" stroke-width="2" stroke-linecap="round"/>
<rect x="1203" y="398" width="8" height="8" rx="4" fill="white" stroke="#27043E" stroke-width="2"/>
<rect x="1235" y="398" width="8" height="8" rx="4" fill="white" stroke="#27043E" stroke-width="2"/>
<rect x="1219" y="398" width="8" height="8" rx="4" fill="white" stroke="#27043E" stroke-width="2"/>
<rect x="186" y="82" width="32" height="18" rx="2" fill="#FEE049" stroke="#27043E" stroke-width="2"/>
<rect x="178" y="12" width="48" height="44" rx="2" fill="#C7CFFD" stroke="#27043E" stroke-width="2"/>
<rect x="182" y="16" width="40" height="36" rx="1" fill="#FCFDF8" stroke="#27043E" stroke-width="2"/>
<path d="M192 80C192 78.8954 192.895 78 194 78H210C211.105 78 212 78.8954 212 80V82H192V80Z" fill="#FCFDF8" stroke="#27043E" stroke-width="2"/>
<rect x="197" y="60" width="10" height="18" fill="#FEE049" stroke="#27043E" stroke-width="2"/>
<path d="M192 56H212V58C212 59.1046 211.105 60 210 60H194C192.895 60 192 59.1046 192 58V56Z" fill="#FCFDF8" stroke="#27043E" stroke-width="2"/>
<path d="M182 22H222" stroke="#27043E" stroke-linecap="round"/>
<path d="M182 28H222" stroke="#27043E" stroke-linecap="round"/>
<path d="M182 34H222" stroke="#27043E" stroke-linecap="round"/>
<path d="M182 40H222" stroke="#27043E" stroke-linecap="round"/>
<path d="M182 46H222" stroke="#27043E" stroke-linecap="round"/>
<rect x="198" y="19" width="8" height="17" fill="#27043E"/>
<circle cx="202" cy="44" r="5" fill="#27043E"/>
<path d="M1255 171H1191V283L1197 289H1249L1255 283V171Z" fill="#E2E4BD" stroke="#27043E" stroke-width="2"/>
<rect x="1212" y="192" width="22" height="50" rx="2" fill="#27043E" stroke="#27043E" stroke-width="2"/>
<path d="M1212 194C1212 192.895 1212.9 192 1214 192H1232C1233.1 192 1234 192.895 1234 194V202H1212V194Z" fill="white" stroke="#27043E" stroke-width="2"/>
<rect x="1212" y="202" width="22" height="10" fill="white" stroke="#27043E" stroke-width="2"/>
<rect x="1066" y="81" width="4" height="20" fill="#C6CFFA" stroke="#27043E" stroke-width="2"/>
<rect x="1094" y="81" width="4" height="20" fill="#C6CFFA" stroke="#27043E" stroke-width="2"/>
<rect x="1079" y="10" width="6" height="72" fill="#C6CFFA" stroke="#27043E" stroke-width="2"/>
<rect x="1076" y="6" width="12" height="4" fill="#C6CFFA" stroke="#27043E" stroke-width="2"/>
<path fill-rule="evenodd" clip-rule="evenodd" d="M1088 76H1076V82H1070V100H1076H1088H1094V82H1088V76Z" fill="#C6CFFA"/>
<path d="M1076 76V75H1075V76H1076ZM1088 76H1089V75H1088V76ZM1076 82V83H1077V82H1076ZM1070 82V81H1069V82H1070ZM1070 100H1069V101H1070V100ZM1094 100V101H1095V100H1094ZM1094 82H1095V81H1094V82ZM1088 82H1087V83H1088V82ZM1076 77H1088V75H1076V77ZM1077 82V76H1075V82H1077ZM1070 83H1076V81H1070V83ZM1071 100V82H1069V100H1071ZM1076 99H1070V101H1076V99ZM1088 99H1076V101H1088V99ZM1094 99H1088V101H1094V99ZM1093 82V100H1095V82H1093ZM1088 83H1094V81H1088V83ZM1087 76V82H1089V76H1087Z" fill="#27043E"/>
<rect x="1074" y="72" width="16" height="4" fill="#C6CFFA" stroke="#27043E" stroke-width="2"/>
<circle cx="1082" cy="34" r="20" fill="#C6CFFA" stroke="#27043E" stroke-width="2"/>
<path fill-rule="evenodd" clip-rule="evenodd" d="M1096.46 40.8472C1097.45 38.7714 1098 36.45 1098 34C1098 25.1634 1090.84 18 1082 18C1073.16 18 1066 25.1634 1066 34C1066 36.45 1066.55 38.7714 1067.54 40.8472C1071.56 37.8047 1076.57 36 1082 36C1087.43 36 1092.44 37.8047 1096.46 40.8472Z" fill="white"/>
<path d="M1096.46 40.8472L1095.86 41.6448L1096.84 42.3862L1097.37 41.2757L1096.46 40.8472ZM1067.54 40.8472L1066.63 41.2757L1067.16 42.3862L1068.14 41.6448L1067.54 40.8472ZM1097 34C1097 36.2987 1096.48 38.4741 1095.56 40.4188L1097.37 41.2757C1098.42 39.0688 1099 36.6013 1099 34H1097ZM1082 19C1090.28 19 1097 25.7157 1097 34H1099C1099 24.6112 1091.39 17 1082 17V19ZM1067 34C1067 25.7157 1073.72 19 1082 19V17C1072.61 17 1065 24.6112 1065 34H1067ZM1068.44 40.4188C1067.52 38.4741 1067 36.2987 1067 34H1065C1065 36.6013 1065.58 39.0688 1066.63 41.2757L1068.44 40.4188ZM1068.14 41.6448C1071.99 38.729 1076.79 37 1082 37V35C1076.34 35 1071.12 36.8803 1066.93 40.0497L1068.14 41.6448ZM1082 37C1087.21 37 1092.01 38.729 1095.86 41.6448L1097.07 40.0497C1092.88 36.8803 1087.66 35 1082 35V37Z" fill="#27043E"/>
<path d="M1086.79 22.8447L1082 36.0004" stroke="#27043E" stroke-width="2" stroke-linecap="round"/>
</svg>
