<svg width="70" height="70" viewBox="0 0 70 70" fill="none" xmlns="http://www.w3.org/2000/svg">
<rect x="52.2134" y="43.728" width="26" height="12" rx="6" transform="rotate(45 52.2134 43.728)" fill="#FFBB03" stroke="#47277C" stroke-width="2"/>
<path fill-rule="evenodd" clip-rule="evenodd" d="M31 61C47.5685 61 61 47.5685 61 31C61 14.4315 47.5685 1 31 1C14.4315 1 1 14.4315 1 31C1 47.5685 14.4315 61 31 61ZM31 51C42.0457 51 51 42.0457 51 31C51 19.9543 42.0457 11 31 11C19.9543 11 11 19.9543 11 31C11 42.0457 19.9543 51 31 51Z" fill="#8FC54B" stroke="#47277C" stroke-width="2"/>
</svg>
